<?xml version="1.0" standalone="no"?>
<!DOCTYPE svg PUBLIC "-//W3C//DTD SVG 20010904//EN"
 "http://www.w3.org/TR/2001/REC-SVG-20010904/DTD/svg10.dtd">
<svg version="1.0" xmlns="http://www.w3.org/2000/svg"
 width="1449.000000pt" height="1401.000000pt" viewBox="0 0 1449.000000 1401.000000"
 preserveAspectRatio="xMidYMid meet">
<metadata>
Created by potrace 1.16, written by Peter Selinger 2001-2019
</metadata>
<g transform="translate(0.000000,1401.000000) scale(0.100000,-0.100000)"
fill="#000000" stroke="none">
<path d="M7270 10812 c0 -6 -9 -8 -19 -5 -13 3 -20 -1 -23 -13 -2 -13 -13 -18
-38 -18 -26 -1 -36 -6 -38 -20 -3 -11 -15 -28 -27 -38 -15 -11 -26 -34 -30
-61 -4 -23 -18 -59 -31 -79 -28 -43 -28 -51 -12 -112 11 -40 10 -47 -6 -65
-17 -18 -17 -25 -6 -66 11 -38 10 -49 -4 -79 -9 -19 -21 -38 -26 -41 -17 -10
-12 -75 5 -75 8 0 15 -9 15 -20 0 -11 -7 -20 -15 -20 -11 0 -15 -12 -15 -45 0
-43 1 -45 30 -45 20 0 30 5 30 15 0 9 7 18 15 21 8 4 15 14 15 24 0 10 7 24
16 31 13 10 15 28 12 81 -3 65 -3 67 15 50 18 -16 20 -16 33 3 13 17 14 15 14
-28 0 -45 1 -47 28 -47 51 0 62 18 77 125 21 144 20 175 -5 175 -11 0 -23 7
-26 15 -4 8 -11 15 -18 16 -6 0 -21 13 -34 30 -20 25 -21 30 -8 35 9 3 23 4
31 0 9 -3 20 3 27 14 7 11 22 20 34 20 11 0 23 3 27 6 9 9 -16 44 -30 44 -18
0 -16 55 2 70 19 16 17 101 -2 108 -7 2 -13 -1 -13 -6z"/>
<path d="M7000 9982 c0 -20 -24 -45 -51 -55 -20 -7 -29 -69 -22 -143 6 -57 17
-74 36 -55 18 18 27 13 27 -17 0 -37 -9 -45 -27 -26 -14 13 -17 13 -33 -1 -35
-32 -41 -66 -38 -240 l3 -170 76 -3 c42 -1 88 2 102 7 32 12 29 24 -21 93 -27
39 -31 49 -19 54 9 3 25 1 36 -6 26 -13 29 5 4 19 -30 16 -8 22 24 6 37 -18
61 -11 69 20 3 13 14 31 25 41 23 20 24 45 5 107 -12 40 -12 53 2 100 14 53
14 57 -7 90 -17 28 -20 44 -15 75 5 30 1 48 -12 71 -19 33 -23 34 -91 31 -25
-1 -43 3 -43 9 0 6 -7 11 -15 11 -8 0 -15 -8 -15 -18z"/>
<path d="M6967 9229 c-25 -29 -26 -33 -12 -49 19 -21 19 -49 -1 -99 -19 -47
-16 -106 6 -106 8 0 26 23 40 52 14 28 33 60 43 71 9 10 17 24 17 30 0 7 7 12
16 12 12 0 14 7 9 28 -4 20 -1 33 10 42 13 11 13 15 -6 31 -35 31 -89 25 -122
-12z"/>
<path d="M6838 9124 c-40 -47 -44 -64 -52 -189 -6 -94 -24 -185 -37 -185 -5 0
-11 11 -15 25 -8 31 -21 32 -45 3 -22 -25 -26 -88 -5 -88 9 0 15 -22 19 -76 6
-75 18 -107 31 -85 15 23 26 9 26 -33 0 -30 5 -46 15 -50 8 -3 15 0 15 7 1 12
30 -21 30 -34 0 -4 -10 -9 -22 -13 l-23 -6 22 -18 c14 -11 23 -30 25 -56 3
-33 7 -41 30 -47 36 -9 52 5 72 68 17 54 22 133 8 133 -5 0 -18 -13 -30 -30
-13 -16 -29 -30 -37 -30 -20 0 -19 39 0 46 8 4 15 15 15 25 0 12 7 19 19 19
27 0 51 43 72 128 22 87 23 130 6 154 -20 25 -35 8 -48 -52 -13 -63 -25 -90
-41 -90 -6 0 -3 12 7 27 14 21 17 40 12 95 -4 42 -2 80 5 96 6 15 10 35 9 45
-2 11 5 17 19 17 21 0 21 0 -3 32 -24 30 -24 33 -11 71 19 52 18 69 -3 66 -42
-4 -45 0 -39 36 4 19 3 35 -1 34 -4 0 -25 -20 -45 -45z"/>
<path d="M6577 7484 c-37 -45 -98 -104 -108 -104 -5 0 -9 -30 -9 -66 0 -51 5
-72 20 -92 22 -28 20 -67 -6 -108 -18 -27 -10 -34 38 -34 25 0 45 -7 59 -21
24 -24 53 -18 87 18 27 30 28 53 2 60 -26 7 -25 11 5 55 14 20 25 41 25 46 0
6 7 12 15 16 12 4 14 18 9 68 -4 35 -13 70 -21 79 -8 9 -17 34 -20 55 -3 22
-11 42 -17 46 -23 16 -58 7 -79 -18z"/>
<path d="M7636 3934 c-3 -9 -6 -31 -6 -50 0 -32 1 -34 21 -23 20 10 21 9 16
-13 -10 -40 5 -51 58 -44 31 5 51 3 61 -5 20 -16 27 -6 20 28 -5 19 -18 35
-41 47 -27 15 -35 25 -35 48 0 26 -2 28 -44 28 -31 0 -46 -5 -50 -16z"/>
<path d="M8223 2971 c-11 -18 -35 -26 -113 -37 -31 -5 -37 -11 -48 -45 -18
-59 -16 -133 6 -152 10 -10 24 -17 30 -17 7 0 12 -6 12 -13 0 -8 11 -24 25
-37 14 -13 25 -32 25 -42 0 -11 12 -29 26 -41 17 -15 27 -36 31 -65 3 -26 11
-42 19 -42 9 0 14 -12 14 -33 0 -19 3 -37 7 -40 10 -11 33 13 33 34 0 15 7 19
31 19 31 0 31 0 25 43 -4 25 -2 64 5 88 23 89 15 193 -18 212 -8 5 -13 27 -13
60 0 72 -8 94 -36 101 -13 4 -24 11 -24 16 0 17 -25 11 -37 -9z"/>
</g>
</svg>
