<?xml version="1.0" standalone="no"?>
<!DOCTYPE svg PUBLIC "-//W3C//DTD SVG 20010904//EN"
 "http://www.w3.org/TR/2001/REC-SVG-20010904/DTD/svg10.dtd">
<svg version="1.0" xmlns="http://www.w3.org/2000/svg"
 width="1479.000000pt" height="1421.000000pt" viewBox="0 0 1479.000000 1421.000000"
 preserveAspectRatio="xMidYMid meet">
<metadata>
Created by potrace 1.16, written by Peter Selinger 2001-2019
</metadata>
<g transform="translate(0.000000,1421.000000) scale(0.100000,-0.100000)"
fill="#000000" stroke="none">
<path d="M3853 12414 c-18 -9 -39 -27 -48 -40 -19 -30 -12 -47 50 -108 37 -36
45 -50 45 -80 0 -29 -4 -36 -19 -36 -22 0 -31 -11 -46 -55 -5 -16 -18 -31 -28
-33 -23 -5 -57 -33 -57 -47 0 -6 16 -19 36 -28 l35 -17 -21 -38 -21 -37 25
-70 c23 -62 24 -71 11 -91 -8 -12 -25 -26 -37 -30 -12 -3 -28 -13 -36 -20 -7
-8 -24 -14 -36 -14 -62 0 -137 -72 -103 -100 7 -5 23 -18 36 -28 23 -18 23
-19 10 -95 l-13 -78 -105 3 c-97 3 -106 5 -109 23 -2 11 -20 39 -38 62 -46 56
-110 69 -164 33 -13 -8 -13 -14 4 -44 l19 -35 -32 -36 c-30 -34 -31 -39 -31
-125 l0 -90 -40 0 c-35 0 -43 -4 -60 -32 -10 -18 -24 -39 -30 -46 -16 -18 -4
-59 20 -67 11 -3 20 -13 20 -21 0 -8 10 -14 26 -14 26 0 40 -12 79 -67 43 -61
72 -83 109 -83 40 0 42 -6 21 -56 l-15 -35 -52 6 c-29 3 -58 2 -63 -2 -6 -4
-19 -27 -29 -50 -15 -35 -24 -43 -45 -43 -25 0 -59 -35 -47 -47 8 -8 -13 -43
-25 -43 -5 0 -19 -9 -31 -19 -16 -16 -19 -27 -14 -58 15 -86 13 -95 -24 -116
-19 -10 -37 -23 -40 -27 -3 -5 -18 -12 -33 -15 -15 -4 -27 -11 -27 -15 0 -5
-14 -12 -32 -15 -52 -12 -88 -58 -88 -113 0 -20 -10 -38 -35 -61 -39 -35 -44
-57 -16 -66 10 -3 22 -16 25 -28 3 -13 19 -29 38 -38 42 -18 48 -50 13 -69
-19 -10 -25 -21 -25 -45 0 -18 7 -38 15 -45 8 -7 15 -19 15 -28 0 -8 9 -29 19
-46 23 -36 17 -52 -19 -57 -20 -3 -25 -10 -25 -32 -1 -16 -8 -33 -18 -38 -9
-6 -17 -20 -17 -33 0 -30 25 -52 43 -39 30 24 47 22 82 -13 38 -37 41 -57 9
-63 -26 -5 -35 -21 -23 -42 7 -14 4 -22 -13 -33 -12 -9 -28 -16 -34 -16 -17 0
-24 -26 -17 -60 7 -38 -11 -60 -48 -60 -19 0 -29 -5 -29 -15 0 -8 4 -15 8 -15
4 0 15 -12 24 -27 11 -21 13 -35 6 -54 -10 -30 -32 -39 -100 -39 -60 0 -74
-19 -57 -82 7 -24 13 -65 14 -91 2 -27 6 -51 9 -54 9 -9 98 -9 122 0 14 5 27
1 42 -13 11 -11 27 -20 34 -20 8 0 21 -9 31 -20 9 -11 24 -20 32 -20 24 0 18
-22 -16 -58 -26 -27 -36 -32 -58 -27 -14 4 -29 12 -33 18 -4 7 -11 1 -19 -16
-7 -15 -21 -29 -33 -33 -63 -18 -76 -28 -76 -61 0 -18 -4 -33 -10 -33 -5 0
-10 -7 -10 -16 0 -9 -9 -27 -19 -40 -11 -14 -17 -33 -14 -45 4 -15 -6 -31 -41
-62 -29 -27 -48 -54 -52 -74 -8 -40 4 -123 17 -123 6 0 20 -11 33 -25 18 -19
33 -25 65 -25 41 0 41 0 41 -38 0 -46 -26 -126 -46 -143 -18 -15 -18 -39 1
-39 23 0 10 -220 -16 -276 -21 -45 -17 -70 12 -79 24 -8 24 -19 2 -56 -15 -25
-16 -31 -4 -38 8 -5 16 -32 19 -60 4 -42 2 -51 -12 -51 -9 0 -16 5 -16 10 0 6
-6 10 -13 10 -20 0 -39 -43 -35 -76 2 -23 -1 -29 -17 -30 -11 -1 -26 -2 -32
-3 -7 -1 -13 -8 -13 -17 0 -9 -14 -29 -32 -46 l-32 -30 -10 23 c-14 34 -16 35
-26 19 -5 -9 -22 -13 -44 -12 -26 2 -38 -2 -45 -16 -11 -21 3 -42 27 -42 9 0
13 -7 9 -20 -7 -28 18 -50 58 -50 21 0 35 -6 39 -16 4 -12 13 -14 31 -10 18 5
27 2 31 -9 8 -20 77 -20 94 0 16 19 36 19 44 0 3 -10 19 -15 44 -15 24 0 49
-8 65 -20 14 -11 34 -20 45 -20 18 0 32 -18 32 -40 0 -8 -49 -20 -83 -21 -9 0
-28 -11 -42 -25 -13 -13 -29 -24 -35 -24 -16 0 -12 -27 5 -34 16 -6 21 -36 5
-36 -5 0 -14 -18 -20 -40 -6 -21 -15 -42 -20 -45 -19 -12 -10 -30 20 -44 30
-12 30 -14 16 -36 -15 -23 -13 -77 4 -100 4 -5 11 -29 15 -52 6 -36 4 -43 -9
-43 -9 0 -24 9 -33 20 -20 24 -51 26 -59 5 -3 -8 -16 -15 -27 -15 -12 0 -39
-3 -60 -6 -31 -5 -42 -2 -58 15 -17 18 -31 21 -113 21 -79 0 -96 -3 -116 -20
-28 -24 -48 -25 -71 -5 -15 15 -17 14 -23 -10 -5 -18 -13 -25 -31 -25 -14 0
-29 -8 -35 -20 -8 -14 -19 -20 -38 -18 -26 3 -27 1 -24 -36 2 -21 9 -48 17
-60 15 -22 10 -39 -15 -49 -9 -3 -4 -6 13 -6 23 -1 27 -5 27 -29 0 -29 -26
-62 -48 -62 -7 0 -12 -7 -12 -15 0 -8 7 -15 15 -15 8 0 15 -3 15 -7 0 -5 15
-16 33 -27 23 -13 28 -20 17 -24 -24 -9 -40 -29 -46 -61 -7 -33 -15 -37 -45
-21 -16 9 -19 7 -19 -10 0 -11 7 -23 15 -26 11 -5 15 -23 15 -78 0 -74 -9 -96
-42 -96 -22 0 -25 -48 -3 -56 11 -5 12 -11 4 -25 -8 -16 -6 -19 15 -19 33 0
41 -16 20 -38 -17 -16 -17 -17 9 -20 25 -3 40 -32 16 -32 -14 0 -39 -25 -39
-39 0 -7 27 -11 70 -11 68 0 70 -1 70 -24 0 -14 5 -28 10 -31 6 -4 8 -11 5
-16 -4 -5 0 -18 8 -30 17 -23 5 -69 -26 -104 -10 -11 -20 -30 -24 -43 -8 -32
3 -132 16 -145 16 -16 14 -47 -2 -41 -8 3 -20 -2 -27 -11 -17 -20 -32 -19 -53
5 -20 23 -35 26 -43 6 -3 -8 -28 -17 -61 -21 -48 -6 -57 -4 -74 14 -24 25 -28
26 -58 5 -22 -16 -24 -16 -33 0 -5 9 -17 16 -28 16 -10 0 -27 15 -39 35 -28
47 -51 38 -51 -20 0 -29 -5 -45 -15 -49 -35 -13 -1 -86 40 -86 13 0 26 -4 30
-10 3 -5 12 -7 20 -3 9 3 15 -1 15 -11 0 -9 7 -16 15 -16 11 0 15 -11 15 -37
0 -28 -7 -43 -27 -61 -24 -20 -26 -26 -16 -52 9 -23 8 -32 -3 -41 -8 -6 -14
-18 -14 -25 0 -19 -19 -18 -26 1 -9 23 -28 18 -41 -11 -10 -21 -8 -31 8 -59
30 -50 22 -85 -21 -99 -30 -9 -35 -16 -38 -44 -3 -25 3 -40 22 -59 14 -14 30
-42 36 -62 10 -37 70 -101 94 -101 7 0 23 -9 36 -20 28 -24 38 -25 62 -3 14
13 23 14 41 5 12 -6 28 -12 35 -14 10 -3 9 -10 -6 -28 -11 -14 -23 -40 -26
-58 -7 -29 -11 -32 -45 -32 -45 0 -61 -14 -61 -54 1 -40 17 -61 55 -70 36 -9
45 -21 45 -63 0 -23 6 -33 20 -38 11 -3 20 -11 20 -17 0 -7 19 -8 54 -4 47 6
58 4 75 -13 30 -30 51 -27 51 7 0 16 9 38 20 50 11 12 20 33 20 47 0 15 5 35
10 46 9 16 15 17 31 9 11 -6 29 -8 41 -4 11 3 23 2 27 -4 12 -19 51 -24 57 -8
4 9 18 16 34 16 24 0 29 -5 32 -27 3 -25 8 -28 42 -31 22 -2 45 -10 51 -19 19
-25 55 -8 55 27 0 35 25 62 54 58 16 -2 21 -10 22 -33 0 -39 11 -56 32 -54 38
3 42 -1 42 -45 0 -25 5 -48 10 -51 20 -12 42 -67 36 -91 -8 -32 -31 -30 -62 3
-21 23 -28 25 -44 15 -11 -7 -34 -12 -51 -12 -61 0 -91 -37 -48 -60 23 -13 20
-36 -3 -32 -9 1 -23 -10 -33 -24 -16 -25 -16 -29 0 -73 20 -53 58 -91 90 -91
19 0 22 -5 21 -37 0 -21 -7 -43 -14 -48 -7 -6 -11 -21 -10 -35 2 -19 -2 -26
-19 -28 -18 -3 -23 -10 -23 -32 0 -29 19 -44 45 -34 9 4 15 0 15 -9 0 -8 7
-20 15 -27 8 -7 15 -25 15 -41 0 -16 5 -29 12 -29 6 0 19 -7 29 -16 19 -17 29
-15 65 11 20 15 24 14 52 -10 l30 -25 30 30 c17 16 37 30 46 30 8 0 21 8 28
18 16 21 83 72 96 72 5 0 12 -9 15 -19 3 -14 1 -18 -9 -14 -8 3 -14 1 -14 -5
0 -8 22 -22 35 -22 5 0 47 41 64 63 12 15 12 17 -2 11 -10 -3 -22 4 -33 21 -9
14 -30 40 -46 57 -32 34 -34 41 -14 57 11 10 17 7 30 -10 8 -12 12 -27 9 -33
-3 -6 -2 -8 2 -3 5 4 17 -1 27 -10 18 -16 20 -16 42 12 12 15 27 26 32 22 6
-3 11 4 11 15 3 29 10 33 38 20 19 -9 27 -8 39 3 13 13 17 12 35 -11 31 -39
46 -24 16 16 -26 35 -33 56 -15 45 6 -3 10 -1 10 6 0 15 27 -7 42 -34 7 -15 7
-22 -3 -28 -11 -7 -10 -9 3 -9 9 0 28 13 41 30 16 19 35 30 51 30 29 0 32 -7
11 -34 -8 -10 -12 -23 -9 -28 3 -5 1 -15 -5 -22 -6 -7 -10 -24 -9 -38 2 -22 6
-25 39 -23 26 2 45 11 63 30 25 26 25 28 7 44 -28 25 -72 87 -66 94 3 4 2 5
-1 3 -3 -3 -20 11 -36 30 -28 32 -30 37 -16 50 14 14 18 13 37 -11 11 -15 18
-32 14 -38 -3 -5 -2 -7 4 -4 14 9 54 -35 56 -61 0 -11 4 -19 8 -16 12 7 59
-64 59 -89 0 -14 7 -30 15 -37 11 -9 13 -16 5 -24 -14 -14 -13 -26 4 -26 7 0
19 -7 26 -15 17 -21 -4 -45 -40 -45 -20 0 -29 -6 -34 -22 -9 -35 -8 -36 23
-43 27 -6 53 -35 31 -35 -19 0 -50 -35 -50 -57 0 -32 56 -56 85 -36 26 18 35
16 35 -5 0 -23 19 -42 42 -42 10 0 18 -7 18 -17 0 -10 12 -24 27 -30 32 -15
53 -17 53 -4 0 5 9 11 20 14 13 3 20 0 20 -9 0 -19 28 -18 48 3 16 15 17 15
20 0 4 -20 35 -31 62 -22 24 8 26 -2 4 -26 -19 -21 -10 -59 14 -59 12 0 8 -6
-11 -18 -21 -13 -27 -22 -22 -39 3 -13 0 -32 -7 -42 -10 -17 -9 -23 10 -39 16
-14 22 -30 22 -62 0 -33 4 -43 20 -47 11 -3 20 -14 20 -24 0 -21 22 -38 28
-21 5 15 32 16 32 1 0 -6 6 -9 13 -6 21 8 47 -13 47 -38 0 -21 5 -25 28 -25
34 0 92 -60 92 -95 0 -13 6 -36 12 -51 10 -22 10 -28 0 -32 -7 -2 -18 -9 -25
-16 -6 -7 -20 -15 -29 -19 -26 -9 -22 -24 7 -31 33 -8 32 -19 -5 -33 -21 -8
-28 -16 -24 -27 6 -16 -34 -39 -88 -51 -38 -8 -37 -37 2 -52 21 -8 28 -16 24
-27 -3 -9 -12 -16 -19 -16 -21 0 -65 -45 -65 -67 0 -15 8 -22 30 -26 24 -5 30
-12 30 -32 0 -25 -23 -35 -35 -15 -3 5 -17 10 -30 10 -14 0 -36 13 -54 32 -28
30 -33 32 -52 20 -16 -10 -24 -11 -35 -1 -10 8 -18 9 -25 2 -11 -11 -2 -43 12
-43 13 0 11 -57 -1 -65 -6 -4 -21 0 -33 8 -16 10 -28 11 -44 4 -25 -11 -26
-14 -23 -68 1 -22 -6 -44 -18 -59 -18 -22 -18 -26 -4 -48 12 -18 12 -28 4 -47
-9 -20 -9 -25 3 -25 7 0 17 5 20 10 10 17 30 11 63 -18 32 -28 42 -52 22 -52
-16 0 -12 -37 4 -43 9 -4 17 2 21 14 9 26 29 24 45 -5 16 -30 46 -39 65 -19 9
9 31 14 58 13 71 -3 71 -3 52 26 -14 22 -15 28 -4 35 8 5 20 9 28 9 10 0 12
12 7 54 -8 59 5 82 29 50 13 -18 14 -18 34 0 20 19 22 19 41 1 30 -27 39 -9
29 65 -9 73 -5 100 17 100 8 0 14 10 14 26 0 36 30 84 58 91 26 6 24 26 -2 31
-27 6 -55 33 -49 48 3 9 14 12 29 8 22 -6 24 -3 24 29 0 22 6 37 15 41 10 4
15 -1 15 -14 0 -15 7 -20 29 -20 35 0 60 25 43 42 -32 32 6 51 49 25 17 -10
22 -9 30 6 7 12 17 15 34 11 17 -4 26 0 34 14 9 17 18 20 46 15 28 -4 35 -2
35 11 0 9 7 16 15 16 11 0 15 -12 15 -45 0 -42 2 -45 26 -45 15 0 38 -12 56
-31 36 -35 80 -37 87 -4 2 11 14 29 26 41 l23 21 17 -24 c16 -20 26 -23 90
-23 84 0 101 11 90 60 -6 28 -4 32 29 45 20 9 36 22 36 31 0 14 7 15 42 10 23
-4 45 -11 48 -16 3 -5 22 -9 41 -8 20 1 40 -2 45 -5 6 -3 16 -2 23 3 11 6 11
12 -3 31 -23 33 -20 47 12 51 21 2 27 8 25 25 -2 19 0 20 26 10 23 -9 34 -7
55 6 14 10 26 23 26 30 0 18 -38 57 -55 57 -20 0 -19 19 0 26 23 9 18 32 -10
50 -30 20 -24 34 16 34 17 0 32 6 35 15 7 17 34 21 34 5 0 -12 37 -13 44 -1 9
13 76 -10 76 -26 0 -7 7 -16 16 -20 12 -4 14 -14 10 -39 -8 -39 6 -51 36 -30
12 9 30 16 39 16 10 0 19 6 22 13 4 9 7 9 18 0 18 -17 39 -16 39 1 0 23 20 30
38 12 13 -12 14 -18 4 -28 -23 -23 -12 -33 37 -35 43 -1 50 1 60 23 15 34 14
47 -4 40 -18 -7 -19 4 -3 39 13 29 20 31 52 10 22 -15 25 -14 44 10 18 22 26
25 62 21 36 -4 42 -2 50 20 7 16 17 24 34 24 30 0 50 23 41 50 -5 16 -2 23 14
27 23 6 27 23 10 40 -13 13 7 50 31 58 8 3 26 15 39 26 l24 20 -22 21 c-19 17
-21 23 -9 33 12 12 50 19 86 16 6 -1 12 -8 12 -16 0 -19 9 -19 34 0 14 11 46
15 107 15 68 0 88 3 93 15 3 8 13 15 22 15 24 0 9 68 -22 97 -20 18 -24 32
-24 77 0 44 4 57 19 65 37 20 34 95 -7 140 -8 8 -12 25 -9 38 4 24 -38 99 -77
139 -9 8 -16 28 -16 44 0 17 -7 33 -17 39 -15 8 -18 23 -17 80 1 55 -1 71 -12
71 -21 0 -20 232 1 250 8 7 15 18 15 26 0 7 14 21 30 31 l31 18 -5 190 c-5
203 -7 235 -18 235 -12 0 -25 44 -27 93 -1 17 -7 27 -16 27 -9 0 -20 11 -25
25 -5 14 -14 25 -20 25 -5 0 -10 15 -10 33 0 18 -7 42 -15 53 -15 20 -18 77
-6 129 5 21 0 46 -16 83 -13 29 -23 62 -23 73 0 16 -5 20 -19 16 -35 -9 -43 8
-18 35 20 22 25 41 32 119 7 92 18 119 49 119 21 0 20 27 0 48 -14 13 -16 31
-11 99 2 46 9 89 15 96 5 6 17 38 27 70 l18 57 43 0 c36 0 44 3 44 19 0 10 7
24 15 31 19 16 19 64 0 84 -11 11 -13 20 -6 33 18 36 33 101 27 120 -5 15 1
27 23 44 23 18 27 27 20 41 -7 13 -4 23 11 38 20 20 30 20 78 3 8 -4 12 5 12
25 0 17 3 37 6 46 7 18 39 22 49 6 8 -13 35 -13 35 1 0 6 7 18 16 26 10 10 13
25 9 41 -10 40 24 64 88 61 53 -3 114 7 132 21 6 4 40 11 77 15 37 3 70 11 73
16 4 5 37 9 74 9 58 0 72 -3 95 -25 14 -13 26 -31 26 -39 0 -8 16 -29 34 -47
28 -26 33 -36 25 -50 -5 -10 -7 -30 -3 -44 4 -15 2 -25 -5 -25 -23 0 2 -27 40
-44 43 -19 69 -11 69 24 0 26 26 45 34 25 3 -8 15 -15 26 -15 16 0 20 7 20 30
0 17 7 33 17 39 12 6 19 27 23 63 5 51 6 53 38 56 30 3 32 5 32 45 0 56 10 69
50 65 30 -3 34 0 42 30 8 28 13 32 42 32 37 0 46 12 46 64 0 19 9 45 20 59 15
19 20 40 20 89 0 39 5 72 14 83 9 12 12 32 9 53 -5 28 -1 38 21 57 18 16 26
32 26 56 0 42 35 116 65 135 17 11 36 13 72 9 38 -6 59 -2 101 16 28 12 52 28
52 35 0 23 19 25 38 6 11 -11 39 -21 63 -24 33 -4 54 -14 82 -40 20 -20 37
-41 37 -48 0 -17 80 -7 91 12 7 10 14 9 38 -5 16 -9 49 -17 76 -17 40 0 51 5
79 35 23 24 38 33 53 29 13 -4 28 2 41 17 17 18 28 21 60 15 29 -4 43 -2 52 9
7 8 23 15 36 15 12 0 29 7 38 15 8 8 24 15 36 15 11 0 23 7 26 15 4 8 14 15
24 15 10 0 20 9 23 20 3 13 14 20 29 20 34 0 76 22 82 42 2 10 14 18 26 18 11
0 32 11 44 25 13 14 35 28 47 30 13 3 25 9 27 15 2 5 17 10 33 10 26 0 29 3
29 34 0 19 7 41 15 50 8 8 15 26 15 41 0 15 11 45 24 68 14 23 28 65 32 92 4
28 13 55 21 60 11 8 13 21 8 49 l-8 38 -44 -5 c-28 -3 -48 0 -57 8 -7 7 -24
15 -37 17 -21 3 -24 9 -27 51 -4 54 23 146 44 154 8 3 14 19 14 37 0 46 46
106 95 122 21 7 57 43 135 132 29 34 52 52 67 52 16 0 25 8 29 25 3 13 16 27
27 30 32 9 90 38 105 53 13 11 28 16 45 13 4 0 7 3 7 9 0 5 5 10 11 10 7 0 18
8 25 17 9 14 25 17 63 16 49 -2 51 -1 51 25 0 40 51 65 135 66 l65 1 22 44
c20 40 24 43 53 38 40 -7 52 1 61 38 9 35 26 55 49 55 9 0 29 13 45 29 37 36
119 50 156 26 33 -22 64 -2 64 41 0 51 41 87 106 92 30 2 55 10 55 16 1 6 0
36 -1 68 -1 48 1 57 18 62 11 4 30 2 44 -3 38 -14 55 1 41 39 -9 25 -9 30 3
30 8 0 14 5 14 10 0 6 7 10 15 10 19 0 19 17 0 36 -12 13 -12 17 5 34 11 11
31 20 44 20 24 0 36 16 36 49 0 25 300 321 326 321 29 0 72 29 78 53 5 20 14
25 52 30 28 3 51 11 56 21 5 9 18 16 28 16 11 0 20 4 20 9 0 5 8 12 18 15 10
4 33 19 51 35 27 24 39 28 69 24 29 -4 41 0 56 16 11 12 27 21 38 21 10 0 18
4 18 8 0 5 18 16 39 25 22 10 47 30 57 45 9 15 23 31 31 35 7 4 13 20 13 35 0
32 16 52 41 52 17 0 79 57 79 72 0 16 44 108 52 108 4 0 8 7 8 15 0 8 3 15 8
15 4 0 22 13 39 28 17 16 53 46 79 68 27 21 53 45 57 52 5 7 26 30 48 51 34
34 39 46 39 83 0 41 3 46 44 72 67 42 126 117 126 160 0 17 124 146 139 146 5
0 19 20 31 44 11 24 27 47 35 50 25 9 16 44 -21 83 -31 31 -39 35 -55 25 -10
-7 -25 -12 -33 -12 -9 0 -26 -12 -40 -26 l-24 -27 -13 22 c-14 22 -39 29 -39
11 0 -5 -6 -10 -13 -10 -7 0 -26 -16 -41 -35 -16 -19 -35 -35 -43 -35 -7 0
-24 -9 -36 -20 -15 -15 -29 -19 -49 -15 l-28 7 0 -57 c0 -44 -4 -57 -17 -62
-28 -11 -40 -27 -41 -54 0 -14 -11 -44 -26 -67 -14 -23 -26 -47 -26 -53 0 -7
-11 -9 -33 -5 -22 4 -40 1 -55 -10 -21 -14 -24 -14 -48 5 -27 22 -56 16 -67
-12 -3 -9 -25 -14 -71 -15 -60 0 -67 2 -89 27 -32 38 -64 54 -93 47 -13 -4
-33 -1 -44 6 -14 9 -27 10 -48 2 -22 -8 -31 -8 -41 3 -14 15 -63 10 -69 -8 -8
-22 -40 -6 -61 31 -12 22 -29 40 -37 40 -8 0 -31 16 -51 35 -34 33 -38 34 -59
20 -32 -21 -41 -19 -48 10 -4 14 -11 25 -16 25 -23 0 -6 38 35 80 56 56 57 70
6 70 -33 0 -41 4 -51 28 -34 81 -52 94 -76 56 -14 -20 -22 -24 -44 -19 -18 4
-33 1 -43 -9 -9 -9 -22 -16 -30 -16 -27 0 -47 -12 -47 -27 0 -12 -7 -14 -29
-10 -31 7 -33 3 -47 -93 -9 -58 -12 -64 -29 -50 -8 7 -15 21 -15 31 0 10 -11
26 -24 34 -13 9 -26 29 -30 45 -3 17 -12 30 -20 30 -16 0 -31 -34 -21 -50 3
-5 1 -11 -4 -11 -6 -1 -15 -3 -21 -4 -5 -1 -14 -3 -20 -4 -16 -2 -50 -40 -50
-56 0 -8 9 -15 19 -15 11 0 23 -9 26 -20 3 -11 11 -20 16 -20 15 0 78 -50 89
-71 7 -12 6 -22 -4 -32 -8 -7 -16 -25 -18 -38 -2 -20 -10 -25 -46 -30 -29 -4
-51 -14 -68 -32 -23 -25 -27 -26 -41 -12 -17 18 -38 7 -48 -25 -3 -10 -18 -21
-33 -25 -15 -4 -30 -12 -34 -18 -4 -7 -11 -1 -18 15 -9 20 -22 27 -53 31 -22
3 -43 11 -47 18 -5 6 -15 9 -24 6 -18 -7 -21 -23 -6 -32 19 -12 10 -45 -22
-79 -50 -52 -58 -64 -58 -81 0 -9 -7 -30 -16 -47 -13 -25 -14 -36 -5 -50 6
-10 11 -28 11 -41 0 -28 17 -47 43 -47 16 0 19 -5 13 -31 -3 -17 -6 -40 -6
-50 0 -11 -7 -19 -15 -19 -11 0 -14 -15 -12 -71 2 -76 -15 -107 -28 -50 -5 22
-14 33 -32 37 -27 7 -39 -1 -45 -31 -2 -14 -12 -21 -35 -23 -30 -3 -32 -1 -35
35 -3 35 -5 38 -37 41 -25 3 -37 -1 -44 -14 -9 -16 -11 -15 -26 4 -23 29 -77
36 -102 11 -22 -22 -25 -45 -5 -56 18 -10 9 -63 -10 -63 -8 0 -14 -4 -14 -10
0 -5 -13 -10 -30 -10 -16 0 -30 5 -30 10 0 6 -7 10 -15 10 -18 0 -19 -12 -4
-27 15 -15 3 -33 -22 -33 -29 0 -45 -19 -52 -64 -9 -59 -57 -81 -57 -27 0 17
-5 33 -11 37 -6 3 -8 17 -4 31 4 17 -1 33 -20 54 -14 17 -25 37 -25 46 0 10
-8 14 -27 12 -16 -2 -37 2 -47 8 -17 10 -18 14 -6 42 10 25 10 34 0 46 -10 12
-10 22 -2 39 13 30 5 42 -35 51 -18 3 -33 11 -33 16 0 5 -16 9 -36 9 -34 0
-36 -2 -31 -27 6 -31 -21 -86 -38 -79 -23 8 -45 -15 -45 -48 0 -19 -7 -39 -15
-46 -26 -22 -16 -31 15 -15 39 20 39 3 0 -33 -46 -43 -43 -56 13 -53 45 2 64
-11 32 -23 -8 -3 -15 -12 -15 -21 0 -10 -10 -15 -29 -15 -16 0 -34 -7 -41 -15
-7 -8 -21 -15 -31 -15 -11 0 -19 -7 -19 -15 0 -8 5 -15 10 -15 6 0 10 -4 10
-10 0 -5 -11 -10 -23 -10 -13 0 -26 -3 -30 -6 -11 -11 5 -34 23 -34 22 0 39
-22 22 -28 -16 -5 -15 -32 1 -33 6 -1 22 0 35 1 22 1 30 -14 12 -25 -16 -10
-12 -23 10 -30 12 -4 20 -15 20 -30 0 -23 -22 -35 -68 -35 -24 0 -52 -21 -52
-39 0 -5 -9 -26 -21 -45 -15 -25 -28 -36 -45 -36 -14 0 -24 6 -24 14 0 19 -47
56 -71 56 -11 0 -19 5 -19 10 0 6 -6 10 -14 10 -7 0 -19 7 -26 15 -10 12 -16
13 -26 4 -8 -6 -43 -14 -78 -16 -55 -5 -65 -9 -75 -30 -6 -13 -18 -26 -28 -30
-9 -4 -24 -14 -34 -24 -19 -19 -79 -39 -116 -39 -13 0 -23 -4 -23 -10 0 -5
-11 -10 -24 -10 -54 0 -86 -12 -92 -35 -3 -13 -17 -33 -30 -46 -18 -17 -21
-25 -13 -36 6 -7 15 -13 20 -13 12 0 49 -32 49 -42 0 -5 -6 -8 -14 -8 -16 0
-116 -95 -116 -109 0 -5 -10 -13 -22 -17 -12 -3 -28 -13 -36 -20 -7 -8 -29
-14 -49 -14 l-35 0 7 65 7 65 -59 -6 c-39 -5 -64 -13 -77 -27 -19 -20 -19 -20
-38 3 -22 27 -62 50 -87 50 -9 0 -23 -10 -31 -21 -32 -47 -53 -59 -100 -59
-26 0 -67 -3 -92 -6 -37 -5 -49 -2 -73 18 -38 30 -106 52 -137 45 -14 -4 -29
-17 -35 -30 -7 -15 -23 -27 -41 -30 -17 -3 -42 -17 -57 -31 -21 -20 -30 -23
-39 -13 -40 43 -66 157 -66 295 l0 82 -40 40 c-22 22 -42 52 -46 67 -11 53
-15 63 -25 63 -5 0 -9 -4 -9 -8 0 -18 -42 -52 -65 -52 -19 0 -26 7 -31 28 -12
56 -16 62 -35 62 -10 0 -19 -6 -19 -14 0 -20 -24 -37 -65 -46 -32 -7 -35 -6
-35 15 0 18 6 24 27 27 39 4 42 28 4 28 -26 0 -31 4 -31 25 0 14 6 25 14 25 7
0 25 9 40 21 29 23 35 62 12 84 -16 16 -26 10 -26 -16 0 -13 -9 -19 -32 -21
-30 -3 -33 -6 -36 -40 -3 -33 -7 -38 -28 -38 -56 0 -7 106 58 125 29 8 35 13
28 25 -5 8 -10 33 -10 55 -1 98 -31 155 -89 170 -35 9 -51 30 -51 67 -1 41
-30 78 -63 78 -24 0 -57 27 -57 48 0 7 -9 12 -19 12 -11 0 -26 7 -35 15 -42
42 -90 38 -129 -12 -10 -12 -24 -23 -32 -23 -7 0 -25 -14 -39 -30 l-25 -30
-35 34 c-18 19 -39 51 -46 70 -6 20 -16 36 -21 36 -5 0 -9 6 -9 13 0 6 -16 23
-35 36 -29 19 -44 23 -86 19 -28 -3 -55 -11 -59 -18 -4 -7 -28 -14 -53 -17
-44 -5 -46 -4 -104 56 -33 33 -64 61 -70 61 -34 0 -53 83 -68 290 -5 61 -12
91 -25 108 -19 23 -70 31 -70 10 0 -28 -25 16 -36 62 -10 46 -9 52 13 85 13
19 27 35 31 35 80 5 106 10 113 21 15 22 6 54 -16 57 -53 10 -60 54 -15 98 29
28 29 32 30 127 0 106 -11 140 -60 185 -49 45 -54 45 -80 -9 -17 -38 -20 -53
-12 -61 9 -9 19 -5 40 15 27 26 52 35 52 19 0 -4 -22 -24 -49 -44 -36 -27 -51
-34 -60 -25 -16 16 -14 61 5 101 9 19 14 42 10 51 -9 25 -39 14 -56 -22 -18
-39 -30 -42 -30 -9 0 13 12 35 26 50 15 14 22 26 15 26 -6 0 -11 7 -11 15 0 8
-4 15 -9 15 -5 0 -12 11 -15 25 -4 14 -18 32 -31 41 -21 14 -30 14 -55 4 -17
-7 -30 -16 -30 -21 0 -12 -37 -11 -45 1 -12 20 -41 9 -63 -25 -12 -20 -33 -41
-46 -46 -13 -6 -29 -25 -37 -42 -17 -40 -29 -40 -54 0 -30 46 -51 57 -86 42
-32 -13 -118 -7 -128 9 -3 6 -19 14 -34 17 -15 4 -27 11 -27 15 0 5 -13 11
-30 15 -16 4 -30 10 -30 15 0 4 -12 11 -27 15 -15 3 -30 10 -33 13 -11 15
-111 42 -154 42 -36 0 -53 -6 -74 -25 -15 -14 -37 -28 -49 -31 -13 -4 -23 -10
-23 -14 0 -4 -12 -11 -26 -14 -15 -4 -40 -21 -57 -37 l-30 -31 -19 24 c-9 12
-18 32 -18 44 0 36 -62 76 -134 87 -48 8 -56 19 -45 66 13 54 12 57 -23 96
-46 53 -101 78 -154 70 -45 -6 -124 9 -124 25 0 4 -13 11 -30 15 -16 4 -32 11
-35 16 -10 15 -74 10 -100 -7 -19 -12 -42 -15 -88 -12 -52 3 -69 9 -93 31 -16
15 -33 27 -37 27 -5 0 -6 23 -2 50 8 56 2 60 -52 34z m2085 -716 c2 -18 10
-28 24 -30 58 -9 43 -77 -25 -113 l-38 -20 -19 22 c-10 13 -16 31 -14 40 3 12
-3 22 -18 28 -34 15 -33 41 1 76 40 39 84 38 89 -3z m-119 -125 c40 -49 40
-83 0 -117 -29 -25 -69 -35 -69 -18 0 4 13 13 29 19 34 12 53 43 41 63 -7 11
-13 9 -30 -13 -28 -35 -73 -37 -95 -3 -17 26 -12 50 18 84 31 34 70 29 106
-15z m-413 -357 c37 -37 42 -60 18 -94 -24 -34 -67 -29 -98 11 -33 43 -33 70
0 96 35 28 40 27 80 -13z m-116 -83 c52 -67 58 -78 42 -81 -11 -2 -22 -12 -25
-23 -8 -31 -60 -25 -90 11 -42 49 -44 70 -11 97 23 18 26 25 16 35 -14 14 -16
38 -3 38 5 0 37 -35 71 -77z m6097 -319 c-3 -4 5 -15 18 -26 14 -11 23 -24 20
-29 -4 -5 0 -9 8 -9 8 0 27 -17 43 -37 37 -49 45 -58 66 -65 14 -6 16 -1 13
25 -15 124 -15 126 5 137 18 10 20 7 22 -27 5 -103 5 -119 -6 -126 -7 -6 -6
-7 4 -4 23 6 81 -13 99 -32 9 -9 12 -11 7 -4 -5 7 -5 13 0 13 14 0 110 -28
102 -29 -5 -1 -10 0 -13 2 -2 1 -11 -7 -20 -18 -9 -11 -14 -14 -10 -7 3 6 4
12 1 12 -2 0 -13 3 -23 6 -15 5 -15 4 -3 -5 23 -16 -1 -13 -64 9 -49 16 -58
17 -61 5 -3 -8 -7 -22 -10 -31 -3 -8 -1 -13 4 -10 13 8 54 -41 46 -55 -5 -8
-4 -10 3 -5 7 4 12 3 12 -2 0 -20 -34 -23 -48 -5 -7 10 -21 27 -30 38 -71 83
-93 115 -86 127 4 7 4 10 -1 6 -4 -4 -19 5 -34 21 -94 98 -95 100 -81 116 7 8
15 15 18 15 3 0 2 -3 -1 -6z m38 -200 c0 -15 -6 -18 -33 -16 -65 7 -82 -44
-36 -112 14 -21 27 -45 28 -54 2 -8 13 -17 26 -19 13 -2 26 -5 28 -8 12 -12
61 27 67 54 3 17 14 31 26 34 16 4 19 0 19 -30 0 -19 -4 -32 -9 -29 -5 3 -11
-4 -14 -15 -3 -12 -10 -18 -17 -14 -6 4 -9 1 -8 -7 2 -7 -3 -12 -9 -10 -7 1
-13 -2 -13 -7 0 -13 -41 -21 -68 -14 -27 7 -124 132 -117 150 2 7 0 13 -5 13
-19 0 -10 57 13 77 47 43 122 47 122 7z m-452 -274 c22 18 31 20 40 11 9 -10
7 -16 -9 -30 -20 -16 -41 -76 -23 -65 5 3 13 -5 18 -18 5 -13 21 -36 35 -51
24 -26 30 -28 58 -18 26 9 33 8 44 -7 12 -15 9 -19 -24 -34 -20 -10 -46 -15
-57 -11 -26 7 -56 33 -50 43 3 4 -2 10 -10 14 -8 3 -15 10 -15 16 0 6 6 8 13
4 7 -4 9 -3 4 2 -5 5 -12 9 -16 9 -4 0 -22 16 -40 35 -18 19 -30 29 -26 23 3
-8 0 -13 -8 -13 -22 0 -27 11 -15 30 9 14 8 24 -6 44 -10 16 -14 35 -11 47 6
19 9 17 38 -16 l32 -37 28 22z m-128 -140 c0 -9 -9 -15 -22 -14 -12 0 -21 -2
-20 -5 1 -3 -8 -16 -20 -28 -23 -23 -31 -67 -15 -77 5 -3 32 6 61 20 62 28 79
29 108 9 17 -12 21 -24 19 -55 -4 -48 -28 -77 -95 -114 -46 -25 -49 -25 -54
-7 -3 15 5 23 35 37 54 24 91 69 78 95 -14 24 -36 24 -83 -1 -21 -11 -43 -17
-49 -14 -7 4 -8 3 -4 -4 5 -8 -1 -12 -14 -12 -12 0 -18 4 -15 10 3 5 0 7 -9 4
-17 -6 -36 24 -36 57 0 28 94 122 118 117 9 -2 17 -10 17 -18z m-296 -317 c34
-41 39 -58 15 -49 -8 3 -13 2 -10 -3 6 -9 -79 -91 -96 -91 -6 0 -3 -10 8 -22
10 -12 13 -18 5 -13 -9 5 -12 4 -8 -2 4 -6 24 -9 44 -7 58 5 63 7 57 15 -2 5
1 18 8 31 7 13 13 24 13 24 0 1 10 5 23 9 21 6 22 4 16 -22 -7 -26 -34 -76
-34 -61 0 4 -11 -4 -25 -17 -29 -30 -84 -33 -112 -7 -10 9 -12 13 -3 8 8 -5
-9 12 -37 38 -46 42 -53 52 -53 86 0 42 36 95 74 110 48 20 83 12 115 -27z
m-348 -98 c28 -41 29 -41 61 -16 24 19 24 19 36 0 10 -16 9 -21 -8 -31 -25
-16 -25 -33 0 -65 11 -14 17 -30 13 -37 -3 -6 -3 -8 2 -4 4 4 23 -6 42 -22 37
-33 52 -36 72 -17 11 10 14 9 18 -1 3 -6 9 -10 14 -7 5 4 6 -1 3 -10 -8 -21
-36 -35 -69 -35 -19 0 -43 17 -86 61 -32 33 -57 64 -54 69 12 19 -43 -5 -72
-32 l-31 -30 45 -57 c56 -68 66 -75 108 -67 24 5 34 2 38 -8 8 -21 -17 -38
-59 -39 -31 -1 -43 6 -85 51 -28 28 -50 53 -50 57 1 3 -2 4 -5 3 -3 -2 -10 5
-15 14 -5 10 -16 15 -24 11 -9 -3 -22 0 -30 7 -12 10 -12 15 1 35 11 18 12 25
3 31 -8 5 -10 3 -4 -7 4 -8 -4 -1 -18 14 -23 26 -27 67 -7 67 9 0 45 -52 43
-61 -5 -16 36 -3 68 22 20 16 40 25 44 21 4 -4 3 2 -3 13 -5 11 -10 24 -10 28
0 5 -4 12 -8 15 -4 4 -4 0 0 -8 4 -8 0 -6 -8 5 -9 11 -14 26 -11 33 3 8 5 18
5 23 0 19 18 8 41 -26z m-121 -295 c25 -29 44 -57 42 -62 -1 -5 1 -7 6 -4 5 3
23 -10 41 -28 37 -38 36 -53 -4 -99 -40 -45 -92 -59 -119 -31 -9 8 -16 12 -16
8 0 -4 -12 7 -27 26 -16 18 -52 58 -81 88 -40 42 -50 57 -42 67 9 11 15 11 32
-3 39 -32 108 -124 101 -134 -3 -7 -1 -8 6 -4 6 4 18 2 26 -4 9 -8 28 -10 47
-6 18 3 38 7 45 8 7 1 10 5 7 9 -2 4 0 10 6 14 6 4 8 11 5 16 -6 8 9 13 28 10
5 -1 6 3 2 9 -4 7 -12 7 -25 0 -15 -8 -24 -2 -53 33 -19 23 -44 53 -56 66 -11
13 -18 28 -14 34 3 5 1 7 -4 4 -6 -4 -18 2 -28 13 -15 17 -16 22 -4 36 11 14
14 14 24 1 5 -8 30 -38 55 -67z m-332 -139 c21 24 37 32 61 32 34 0 88 -34 83
-53 -1 -6 1 -9 6 -6 5 3 26 -17 47 -45 22 -27 43 -49 47 -49 5 0 8 -6 8 -14 0
-8 6 -16 13 -19 9 -3 9 -7 -2 -20 -16 -21 -34 -11 -28 14 3 11 1 16 -5 13 -11
-7 -36 18 -88 85 -38 50 -72 62 -112 40 -13 -8 -25 -13 -28 -12 -3 1 -5 -10
-5 -23 0 -13 4 -24 8 -24 5 0 5 -5 1 -12 -4 -6 -3 -8 3 -5 6 4 21 -5 33 -19
21 -22 22 -26 9 -40 -14 -13 -22 -8 -75 57 -32 39 -58 75 -56 80 1 5 -1 8 -5
7 -5 -2 -20 9 -34 23 -22 23 -23 28 -10 37 13 8 25 1 58 -35 l42 -45 29 33z
m-93 -118 c16 -16 16 -17 -5 -25 -12 -5 -36 -19 -52 -33 l-29 -24 22 -22 c17
-17 28 -20 57 -14 21 4 39 11 42 15 6 10 78 -4 92 -18 6 -6 12 -25 15 -44 5
-42 -22 -80 -78 -108 -47 -24 -54 -25 -56 -2 -1 11 13 24 38 35 44 21 63 48
54 76 -9 30 -33 33 -82 11 -25 -11 -56 -18 -68 -16 -35 7 -65 42 -65 77 0 38
17 72 32 63 6 -4 8 -3 4 4 -7 11 30 42 51 42 6 0 19 -8 28 -17z m-5367 -1945
c7 -7 12 -20 12 -29 0 -10 11 -20 25 -23 39 -10 44 -51 9 -87 -43 -45 -116
-32 -100 18 4 13 -1 21 -17 28 -33 15 -32 42 3 75 35 33 50 36 68 18z m-116
-135 c52 -56 58 -93 20 -125 -23 -21 -62 -32 -62 -19 0 6 9 11 20 11 24 0 53
41 44 64 -8 21 -9 21 -38 -9 -32 -32 -71 -32 -92 0 -19 29 -12 57 23 85 35 27
54 25 85 -7z m-494 -448 c64 -77 72 -91 47 -81 -9 3 -15 0 -15 -8 0 -22 -28
-39 -55 -32 -30 8 -80 79 -71 102 3 9 15 18 26 21 24 6 26 26 5 43 -16 13 -20
30 -7 30 4 0 35 -34 70 -75z m1074 -1837 c20 -22 47 -55 60 -74 38 -55 41 -50
38 54 -1 52 2 66 17 77 17 13 18 9 23 -68 l5 -82 75 -21 c42 -11 74 -25 73
-32 -2 -7 4 -9 15 -5 16 5 16 5 0 -12 -15 -17 -18 -17 -62 0 -25 10 -46 20
-46 24 0 11 -60 8 -61 -3 -3 -24 4 -41 27 -72 24 -31 24 -33 7 -43 -15 -8 -22
-5 -33 12 -8 12 -13 25 -12 30 1 4 -2 7 -8 7 -17 0 -92 108 -84 121 4 7 3 9
-3 6 -10 -7 -60 52 -55 66 1 5 -1 6 -6 3 -5 -3 -19 8 -31 25 -19 25 -20 33
-10 46 12 14 14 14 24 -1 5 -10 27 -36 47 -58z m-22 -116 c0 -15 -24 -32 -45
-32 -11 0 -30 -7 -41 -15 -12 -8 -24 -12 -27 -9 -3 3 -8 0 -13 -7 -4 -8 -3
-10 4 -5 8 5 12 -3 12 -23 0 -39 56 -120 89 -128 33 -8 75 19 79 51 3 20 9 26
28 26 29 0 30 -9 5 -58 -21 -41 -42 -56 -86 -65 -41 -9 -65 7 -120 78 -42 54
-46 64 -42 100 8 56 55 95 114 95 24 0 43 -4 43 -8z m-486 -334 c17 16 18 16
7 -5 -7 -13 -9 -23 -7 -23 3 0 13 14 22 31 14 28 17 30 31 16 14 -14 13 -18
-12 -39 -22 -20 -26 -29 -19 -49 4 -13 7 -27 6 -31 -1 -4 5 -5 12 -2 13 5 43
-32 38 -48 -1 -4 23 -6 53 -5 35 2 56 -2 59 -9 6 -16 -31 -39 -70 -42 -33 -3
-66 22 -121 94 -21 28 -28 32 -40 22 -11 -9 -16 -9 -23 2 -5 8 -5 19 0 25 6 7
2 23 -11 44 -13 21 -17 40 -13 54 6 20 9 19 39 -15 30 -35 32 -36 49 -20z
m-120 -155 c-10 -7 -24 -11 -31 -9 -6 3 -10 0 -7 -7 2 -7 -7 -24 -21 -39 -14
-16 -21 -28 -14 -28 6 0 9 -6 6 -14 -4 -11 2 -12 36 -4 23 5 47 14 54 20 7 6
13 7 13 2 0 -4 5 -3 12 4 29 29 85 5 91 -38 6 -40 -12 -78 -55 -114 -48 -42
-75 -50 -81 -26 -3 12 6 23 32 36 20 9 39 17 44 16 4 -1 6 1 5 6 -3 14 14 42
23 37 4 -3 3 8 -2 25 -7 19 -18 30 -30 30 -23 0 -69 -21 -69 -32 0 -4 -3 -7
-7 -6 -5 1 -18 -4 -31 -11 -19 -10 -26 -10 -40 1 -28 22 -41 42 -42 63 0 29
38 87 52 79 6 -4 8 -3 5 3 -9 14 19 37 34 27 7 -4 9 -3 5 4 -3 6 2 12 11 14
25 5 29 -23 7 -39z m-292 -264 c13 -5 34 -26 47 -45 l24 -34 -28 -25 c-16 -13
-33 -21 -38 -18 -6 3 -7 1 -3 -5 3 -5 -6 -19 -20 -29 -20 -15 -25 -25 -20 -41
11 -33 69 -30 101 4 14 15 23 30 20 34 -3 4 4 10 15 13 25 7 27 -23 4 -62 -17
-29 -63 -65 -49 -39 3 7 0 5 -8 -4 -8 -10 -26 -18 -40 -18 -25 0 -87 43 -87
61 0 6 -9 20 -21 32 -55 58 -59 106 -13 152 25 25 62 36 48 13 -4 -7 -3 -8 5
-4 6 4 9 12 6 17 -8 12 29 11 57 -2z m-269 -139 c6 0 19 7 29 16 14 14 21 14
32 5 12 -10 13 -16 3 -26 -7 -7 -16 -10 -22 -7 -5 3 -7 2 -3 -3 4 -4 3 -14 -4
-22 -8 -10 -6 -19 12 -38 13 -14 19 -29 15 -36 -5 -7 -4 -10 1 -6 14 8 47 -20
38 -34 -4 -8 -3 -10 5 -5 6 4 13 1 16 -6 7 -18 45 -21 63 -5 11 9 17 7 29 -8
12 -18 12 -22 -8 -37 -12 -10 -33 -18 -48 -18 -32 1 -75 35 -65 51 4 7 3 9 -3
6 -6 -4 -30 18 -53 47 -26 34 -48 54 -60 53 -10 -1 -18 -4 -18 -7 2 -18 -4
-21 -17 -10 -13 11 -14 10 -10 -2 3 -8 -3 -22 -14 -32 -20 -18 -20 -19 35 -81
43 -50 62 -64 89 -67 18 -2 31 0 29 4 -3 4 -1 8 4 8 16 0 24 -32 11 -44 -9 -8
-10 -8 -5 1 5 9 2 11 -8 7 -9 -3 -14 -10 -11 -14 3 -5 -9 -8 -27 -8 -24 1 -42
12 -75 46 -24 24 -40 49 -36 54 3 6 1 8 -5 4 -6 -3 -20 8 -32 24 -17 24 -25
28 -35 20 -17 -14 -23 -3 -26 49 -2 23 -7 45 -13 48 -5 4 -6 0 -1 -8 5 -10 3
-9 -9 2 -12 11 -14 22 -8 38 l8 23 27 -32 c15 -17 25 -35 22 -40 -6 -10 15 -8
33 3 6 5 17 5 24 1 7 -5 8 -3 4 5 -5 8 0 14 13 18 31 8 37 41 11 68 -16 17
-20 30 -15 46 7 22 8 22 37 -14 17 -20 35 -37 41 -37z"/>
</g>
</svg>
