<?xml version="1.0" standalone="no"?>
<!DOCTYPE svg PUBLIC "-//W3C//DTD SVG 20010904//EN"
 "http://www.w3.org/TR/2001/REC-SVG-20010904/DTD/svg10.dtd">
<svg version="1.0" xmlns="http://www.w3.org/2000/svg"
 width="1449.000000pt" height="837.000000pt" viewBox="0 0 1449.000000 837.000000"
 preserveAspectRatio="xMidYMid meet">
<metadata>
Created by potrace 1.16, written by Peter Selinger 2001-2019
</metadata>
<g transform="translate(0.000000,837.000000) scale(0.100000,-0.100000)"
fill="#000000" stroke="none">
<path d="M10378 7498 c-9 -7 -18 -25 -22 -40 -4 -16 -17 -32 -34 -40 -15 -7
-28 -23 -30 -36 -3 -18 -8 -21 -28 -16 -29 7 -64 -19 -64 -47 0 -31 -71 -37
-175 -14 -30 7 -31 5 -48 -49 -18 -56 -28 -64 -57 -46 -11 7 -16 4 -20 -12 -3
-12 -13 -26 -23 -32 -14 -9 -21 -6 -36 13 -19 24 -41 22 -41 -5 0 -8 -11 -19
-25 -24 -17 -7 -25 -17 -25 -34 0 -36 -37 -67 -75 -64 -24 2 -31 -1 -33 -18
-2 -12 -12 -30 -23 -40 -10 -9 -19 -23 -19 -31 0 -10 -9 -14 -29 -11 -21 2
-35 -4 -50 -22 -19 -24 -21 -24 -48 -9 -42 23 -53 14 -53 -41 l0 -49 -62 -3
c-58 -3 -61 -4 -45 -20 11 -11 17 -33 17 -64 0 -26 5 -62 12 -80 6 -17 8 -39
5 -47 -5 -14 -11 -14 -57 3 -60 22 -85 17 -75 -14 21 -63 18 -99 -15 -163 -34
-66 -39 -70 -70 -53 -15 8 -23 5 -39 -11 -17 -19 -24 -20 -48 -11 -15 6 -49
10 -74 9 -31 -1 -53 3 -65 14 -34 30 -79 39 -109 23 -30 -15 -64 -10 -66 9 0
7 0 33 1 58 1 31 -4 50 -14 58 -11 9 -16 10 -16 2 0 -7 -40 -11 -127 -11
l-128 0 -28 35 c-26 33 -31 35 -87 35 -48 0 -64 5 -88 25 -33 28 -72 33 -72
11 0 -8 16 -27 35 -42 45 -34 45 -48 -1 -41 -39 7 -74 32 -74 54 0 15 -56 18
-65 3 -11 -18 -47 -10 -66 14 -28 36 -101 40 -156 9 l-41 -24 -16 23 c-9 13
-16 43 -16 71 0 47 -2 50 -79 125 -76 74 -134 122 -146 122 -3 0 -16 11 -28
24 -25 26 -78 56 -101 56 -20 0 -29 -32 -16 -64 14 -38 13 -46 -7 -47 -12 0
-13 -2 -5 -6 20 -8 42 17 42 48 0 22 5 29 20 29 31 0 28 -63 -5 -95 -25 -25
-85 -35 -85 -14 0 5 -13 2 -30 -8 -30 -18 -40 -52 -22 -81 6 -8 -3 -25 -24
-47 -31 -33 -36 -35 -99 -35 -36 0 -86 5 -110 11 -41 10 -46 9 -71 -14 -15
-14 -44 -33 -65 -44 -37 -17 -38 -20 -41 -73 l-3 -55 -82 -5 -82 -6 -80 -83
c-75 -77 -81 -86 -81 -125 0 -30 -7 -48 -24 -67 -38 -41 -58 -88 -66 -155 -9
-68 -23 -89 -80 -120 -40 -21 -130 -111 -130 -129 0 -27 -46 -65 -78 -65 -27
0 -34 -5 -48 -37 -31 -75 -30 -92 6 -122 l33 -27 -29 -27 c-16 -15 -37 -35
-46 -44 -11 -10 -18 -31 -18 -55 0 -44 -35 -134 -55 -142 -8 -3 -25 4 -38 15
-14 10 -32 19 -40 19 -8 0 -33 14 -55 30 -23 17 -50 30 -60 30 -19 0 -85 -50
-115 -87 l-18 -23 -41 26 c-27 17 -49 24 -67 21 -71 -14 -104 -27 -136 -55
l-35 -31 -120 1 c-117 1 -120 2 -147 30 -15 15 -34 28 -43 28 -19 0 -50 -30
-50 -48 0 -19 -25 -14 -45 8 -18 20 -18 20 -53 -14 -34 -35 -74 -48 -152 -50
-23 -1 -35 -6 -37 -16 -11 -82 -14 -89 -41 -92 -26 -3 -27 -6 -28 -60 0 -38
-6 -64 -17 -75 -8 -10 -19 -36 -22 -58 -8 -45 -30 -75 -54 -75 -23 -1 -53 -28
-84 -77 -16 -26 -35 -43 -46 -43 -15 0 -31 -18 -31 -35 0 -10 56 -55 67 -55 7
0 14 -10 17 -22 2 -13 10 -53 18 -89 16 -74 8 -99 -31 -99 -15 0 -21 -6 -21
-24 0 -12 -5 -38 -11 -55 -16 -47 0 -59 40 -30 22 16 34 20 42 12 7 -7 -4 -21
-34 -46 -44 -36 -45 -36 -63 -16 -11 12 -17 33 -16 52 1 18 3 48 5 67 2 31 -1
35 -25 38 -24 3 -28 0 -28 -23 0 -33 -22 -29 -31 6 -7 29 -20 27 -70 -13 -34
-27 -43 -30 -76 -23 -21 4 -54 8 -73 9 l-35 1 4 -73 c3 -64 0 -76 -18 -93 -28
-26 -35 -24 -57 16 -10 19 -22 35 -26 35 -5 0 -26 -11 -48 -25 -22 -14 -43
-25 -48 -25 -5 0 -17 -17 -28 -37 -28 -56 -49 -73 -109 -90 -61 -18 -85 -13
-85 17 0 11 -6 20 -13 20 -13 0 -47 -35 -47 -49 0 -17 -79 -96 -111 -112 -19
-9 -56 -23 -84 -31 l-50 -14 -19 -67 c-18 -65 -18 -68 -1 -87 10 -11 32 -22
49 -26 32 -5 51 -27 96 -109 22 -38 22 -40 5 -72 -10 -18 -22 -33 -27 -33 -4
0 -8 -4 -8 -10 0 -12 -24 -43 -76 -97 -30 -31 -50 -43 -70 -43 -42 -1 -68 -26
-112 -110 -45 -84 -56 -88 -107 -39 -24 22 -40 29 -70 29 -47 -1 -66 -14 -84
-58 -20 -48 -42 -56 -76 -26 -31 26 -55 30 -73 12 -16 -16 -15 -45 1 -51 31
-11 -13 -22 -101 -25 l-97 -4 -18 30 c-10 18 -17 51 -17 81 0 43 -4 53 -25 67
-32 21 -86 12 -140 -24 -51 -34 -63 -41 -130 -76 -31 -17 -68 -40 -81 -53 -14
-13 -27 -23 -30 -23 -2 0 -24 -21 -48 -46 -43 -44 -45 -45 -80 -35 -53 14 -87
-1 -112 -52 l-20 -42 -91 -3 c-84 -3 -93 -1 -113 20 -25 26 -60 91 -60 110 0
7 -12 26 -26 42 -19 20 -29 24 -34 16 -5 -9 -19 -11 -41 -6 -27 5 -37 2 -49
-14 -16 -21 -17 -21 -65 -4 -68 23 -94 41 -113 83 -15 32 -22 37 -67 42 -28 4
-66 10 -86 14 -48 9 -74 -15 -65 -59 9 -46 43 -76 85 -76 67 -1 96 -48 63
-103 -11 -17 -23 -52 -27 -77 -10 -69 -24 -98 -60 -120 -47 -29 -92 -128 -65
-145 13 -8 13 -48 -1 -79 -18 -38 4 -81 55 -106 29 -14 47 -33 62 -63 18 -37
25 -42 58 -45 46 -4 73 17 82 64 3 19 10 36 14 39 11 7 30 -42 37 -94 6 -47
26 -81 48 -81 7 0 20 9 31 21 33 37 52 42 89 25 35 -17 60 -13 69 10 8 20 40
17 78 -6 24 -14 42 -18 69 -14 30 5 44 1 72 -20 34 -26 57 -33 57 -17 0 13 61
40 77 34 8 -3 21 -22 29 -42 8 -20 34 -50 58 -68 l43 -31 0 -87 c-1 -85 0 -88
28 -112 119 -97 139 -139 57 -115 -22 7 -56 12 -76 12 -33 0 -36 -2 -36 -29 0
-16 6 -31 15 -35 23 -9 21 -117 -4 -144 -11 -13 -21 -45 -24 -83 -4 -33 -14
-73 -23 -88 -16 -26 -15 -30 10 -69 14 -23 26 -46 26 -51 0 -5 17 -17 38 -26
42 -20 52 -31 52 -61 0 -12 13 -39 28 -60 31 -43 62 -131 62 -173 -1 -14 -7
-37 -15 -51 -8 -14 -14 -29 -15 -33 0 -5 40 -7 89 -5 86 3 91 4 122 36 36 37
45 38 93 16 34 -17 35 -17 73 14 45 35 113 56 154 47 24 -5 35 -2 52 17 32 34
78 48 161 48 49 0 83 6 106 18 33 17 122 44 183 57 48 10 77 47 77 100 0 52 9
55 80 30 51 -18 112 -19 156 -3 27 9 36 8 65 -9 23 -14 45 -19 69 -16 39 5
136 -33 171 -68 23 -23 28 -23 57 -3 18 13 26 13 38 3 13 -10 12 -14 -3 -31
-12 -14 -18 -15 -24 -6 -5 8 -7 3 -5 -13 3 -36 14 -49 39 -49 11 0 35 -13 52
-29 38 -36 83 -47 110 -26 20 15 20 15 0 9 -11 -4 5 9 35 27 42 26 55 40 55
58 0 40 -26 47 -90 26 -51 -18 -59 -18 -83 -4 -21 11 -28 24 -30 53 -2 28 0
36 9 30 8 -5 10 -3 5 5 -10 16 20 48 67 72 32 17 38 17 43 5 8 -20 -5 -39 -22
-32 -8 3 -14 1 -14 -4 0 -5 -9 -11 -19 -15 -11 -3 -23 -15 -26 -26 -4 -10 -14
-19 -23 -20 -14 0 -14 -2 -2 -6 8 -3 19 -12 23 -19 10 -18 45 -17 77 1 63 36
133 1 125 -62 -2 -18 -9 -41 -14 -52 -10 -17 -6 -21 25 -31 26 -9 39 -9 47 -1
6 6 46 11 93 11 76 0 84 2 102 25 12 15 30 25 45 25 14 0 29 4 32 10 3 5 25 7
48 4 32 -5 46 -2 56 10 17 20 35 20 51 1 16 -19 61 -19 107 0 19 8 52 15 73
15 32 0 46 -8 91 -51 49 -45 57 -50 89 -45 24 4 47 19 73 47 41 44 31 43 145
23 18 -4 38 -1 46 5 8 7 37 14 65 15 43 3 59 10 94 42 23 21 46 45 51 53 4 9
27 34 51 56 23 22 44 46 46 54 3 8 24 17 48 20 64 9 85 40 71 106 -26 123 -26
129 15 174 21 22 42 41 49 41 6 0 20 14 31 30 11 16 25 30 30 31 18 1 147 158
215 261 14 21 28 38 33 38 4 0 7 5 7 10 0 18 35 45 85 65 42 17 52 27 62 58
15 46 34 65 96 97 48 24 56 31 116 98 17 18 39 32 53 32 26 1 68 32 68 51 0 7
8 21 17 31 27 30 19 88 -16 118 -22 20 -29 37 -34 78 -6 50 -4 55 24 83 42 41
60 37 89 -19 24 -45 27 -47 70 -48 25 0 59 -7 77 -14 24 -11 37 -11 55 -3 13
6 35 14 51 17 15 4 27 13 27 21 0 10 10 15 29 15 16 0 31 6 35 15 3 8 14 15
25 15 19 0 31 -18 31 -50 0 -9 7 -23 15 -30 13 -10 19 -9 35 5 13 12 38 19 68
20 54 2 81 16 108 56 10 16 25 29 32 29 6 0 12 4 12 8 0 14 64 40 116 48 63 9
90 27 98 64 6 33 26 39 50 15 18 -19 36 -19 36 -1 0 29 53 29 64 0 10 -27 36
-16 36 16 0 24 4 30 21 30 12 0 30 11 41 25 11 14 26 25 34 25 20 0 114 49
144 75 14 12 54 31 90 43 85 27 130 50 155 79 12 14 32 23 49 23 38 0 170 53
281 114 10 6 37 23 59 38 21 16 45 28 52 28 7 0 24 10 37 22 23 21 127 49 182
49 33 0 108 -16 132 -29 12 -7 49 -12 83 -12 49 0 72 6 115 30 30 17 67 30 82
30 21 0 46 18 103 75 41 41 79 75 83 75 10 0 77 72 77 83 0 4 33 7 73 7 39 0
92 7 117 16 32 11 92 16 230 17 131 2 194 7 216 16 36 16 79 9 88 -16 4 -10
-3 -26 -18 -42 -14 -15 -31 -50 -39 -80 -10 -39 -25 -66 -55 -97 -23 -23 -42
-47 -42 -53 0 -12 -47 -61 -60 -61 -5 0 -23 -29 -40 -64 -30 -61 -62 -97 -106
-122 -29 -16 -54 -74 -54 -126 0 -36 6 -54 27 -78 22 -27 25 -35 15 -51 -7
-10 -8 -19 -3 -19 6 0 11 -21 13 -47 3 -44 5 -48 33 -53 23 -4 35 -15 49 -44
11 -23 36 -49 61 -65 26 -16 47 -38 54 -57 17 -47 14 -157 -6 -191 -16 -28
-15 -30 22 -78 20 -28 41 -51 45 -53 5 -2 19 11 31 27 13 17 28 31 34 31 7 0
22 9 35 20 26 23 68 26 92 7 20 -15 58 -86 58 -107 0 -8 -6 -39 -12 -69 -10
-42 -20 -58 -44 -74 -17 -12 -36 -33 -41 -48 -7 -17 -24 -33 -45 -42 -22 -9
-39 -26 -47 -45 -9 -21 -22 -32 -42 -36 -31 -6 -73 6 -84 23 -11 18 -93 13
-103 -6 -7 -12 -24 -17 -60 -18 -42 -1 -56 -6 -76 -28 -14 -15 -45 -36 -68
-46 -24 -10 -51 -27 -60 -38 -15 -17 -31 -19 -130 -18 l-112 0 -24 35 c-47 70
-90 67 -113 -7 -14 -47 -15 -48 -50 -45 -44 4 -53 -7 -38 -44 5 -16 10 -50 11
-77 0 -39 -4 -52 -21 -64 -12 -8 -36 -30 -55 -49 -29 -30 -39 -34 -86 -34 -42
0 -64 -7 -104 -31 -64 -40 -96 -69 -96 -91 0 -20 -46 -60 -89 -78 -27 -11 -42
-11 -87 0 -52 13 -55 12 -74 -10 -11 -13 -20 -37 -20 -56 0 -28 4 -33 30 -39
26 -6 29 -11 28 -40 -1 -24 6 -40 25 -58 29 -26 57 -93 57 -136 0 -20 -9 -32
-32 -45 -48 -27 -68 -56 -68 -98 0 -46 25 -74 75 -84 47 -9 52 -23 25 -78 -21
-42 -22 -46 -6 -76 9 -18 16 -39 16 -46 0 -25 34 -84 47 -84 8 0 20 -15 28
-34 8 -18 20 -36 27 -39 29 -11 72 3 103 33 25 24 38 30 58 25 28 -7 65 9 85
37 8 10 27 24 44 31 17 7 39 29 52 52 17 30 31 41 56 46 41 9 50 22 50 83 0
42 6 58 41 105 69 93 94 101 143 51 32 -33 76 -40 96 -15 7 9 12 40 11 74 -1
58 -1 60 29 66 24 5 32 14 37 36 3 16 9 32 14 35 11 6 69 -23 69 -35 0 -12 27
-21 44 -15 7 3 28 32 45 64 26 50 30 67 25 104 -6 41 -4 45 25 62 31 18 47 46
37 63 -4 5 -3 16 0 25 5 12 21 16 70 16 61 0 98 12 214 70 9 4 16 25 18 56 4
44 8 52 45 79 28 20 43 40 45 57 2 20 15 34 48 53 40 23 44 29 44 64 0 40 23
71 54 71 29 0 59 20 107 71 33 36 53 49 73 49 15 0 40 8 54 18 15 10 43 25 62
32 19 8 40 20 45 28 6 8 32 14 63 15 44 2 56 7 81 35 34 36 55 39 156 21 75
-13 132 -1 167 36 23 24 85 35 102 18 4 -4 32 -8 63 -9 41 -1 59 2 72 16 9 9
28 31 44 48 15 17 37 32 50 34 17 2 22 10 22 33 1 17 4 38 9 48 10 21 49 23
65 3 9 -11 31 -14 81 -12 58 2 72 6 87 25 l18 22 38 -25 c28 -19 51 -26 86
-26 48 0 49 -1 69 -43 17 -35 32 -50 76 -72 48 -24 54 -30 45 -47 -13 -25 -6
-35 36 -42 29 -6 35 -11 35 -33 0 -14 -13 -41 -30 -60 -35 -39 -36 -45 -13
-83 22 -37 81 -61 172 -67 61 -5 78 -10 96 -29 14 -16 34 -24 54 -24 20 0 38
-8 50 -23 10 -12 31 -35 45 -52 l26 -30 30 33 c16 17 32 32 36 32 3 0 17 -9
31 -20 32 -25 43 -25 43 -1 0 11 11 32 25 47 16 17 23 34 19 43 -3 9 -8 24
-11 33 -3 9 -18 22 -34 28 -16 7 -37 25 -46 41 -9 16 -30 33 -45 38 -24 8 -28
15 -28 46 0 36 -26 105 -39 105 -12 0 -75 61 -85 82 -6 12 -26 26 -45 31 -38
9 -56 28 -66 67 -4 14 -12 28 -18 32 -7 4 -17 31 -22 60 -9 48 -13 53 -38 56
-22 3 -29 10 -34 34 -4 19 -17 37 -34 47 -35 19 -38 56 -13 151 15 60 15 63
-5 84 -16 17 -20 30 -15 53 4 20 1 35 -10 46 -36 35 -41 89 -10 101 8 3 14 16
14 29 0 38 34 74 78 81 52 8 85 43 130 137 40 85 65 105 108 89 33 -13 44 -13
44 1 0 26 33 77 56 88 14 6 32 27 40 46 8 19 18 35 23 35 15 0 47 35 67 74 11
22 35 47 58 60 22 12 45 36 55 56 14 31 22 36 69 43 28 5 52 13 52 18 0 5 21
-2 48 -15 26 -14 59 -28 74 -32 l28 -6 -2 73 c-1 41 -8 83 -15 94 -11 19 -10
23 17 39 23 13 30 25 30 47 0 18 5 29 14 29 7 0 19 6 25 14 9 11 5 15 -19 20
-31 6 -34 9 -44 59 -7 31 -22 33 -80 13 -21 -7 -47 -11 -57 -9 -27 7 -25 66 2
105 18 25 20 34 10 54 -16 35 -14 49 14 108 33 70 56 90 95 83 35 -7 36 -5 13
31 -29 44 -41 53 -80 59 -23 3 -60 22 -93 48 -63 48 -91 58 -128 44 -20 -8
-29 -6 -48 12 -20 19 -30 21 -72 15 l-49 -6 -24 46 c-22 42 -31 50 -89 71 -36
14 -70 29 -76 34 -8 6 -17 5 -27 -6 -9 -8 -27 -19 -41 -25 -15 -5 -26 -17 -26
-27 0 -18 -24 -39 -70 -59 -21 -9 -33 -7 -79 18 -30 15 -61 28 -71 28 -20 0
-50 31 -50 52 0 23 -46 68 -70 68 -11 0 -28 -8 -38 -17 -41 -40 -79 -53 -151
-53 l-70 0 -17 58 c-21 74 -38 92 -85 92 -29 0 -46 7 -68 29 -39 38 -106 50
-161 28 -23 -9 -43 -11 -51 -6 -21 13 -39 11 -39 -4 0 -19 -48 -62 -100 -90
-40 -21 -49 -22 -75 -11 -34 14 -65 3 -65 -22 0 -9 -9 -23 -21 -33 -16 -13
-22 -32 -26 -85 -4 -45 -11 -70 -20 -73 -17 -7 -78 49 -99 90 -17 31 -34 34
-76 10 l-29 -18 -27 33 c-15 18 -34 32 -42 32 -22 1 -50 25 -50 44 0 9 7 16
16 16 21 0 77 31 88 50 5 8 27 33 48 54 21 22 38 41 38 43 0 17 -33 62 -50 66
-16 4 -20 13 -20 44 1 57 17 71 86 75 58 3 59 3 59 33 0 27 3 30 30 30 24 0
31 5 33 25 2 18 15 31 44 45 22 12 47 33 56 48 14 23 15 31 3 59 -7 18 -16 45
-18 61 -5 24 -2 27 21 27 14 0 26 4 26 8 0 5 9 18 20 30 17 18 27 20 69 15 46
-5 51 -3 80 26 19 19 31 42 31 59 0 15 7 36 15 46 8 11 15 26 15 34 0 18 -51
84 -107 139 -24 24 -43 47 -43 53 0 5 -4 10 -10 10 -20 0 -50 78 -49 130 1 34
-4 56 -15 69 -9 9 -16 25 -16 35 0 14 -6 16 -34 11 -29 -6 -37 -3 -51 18 -15
24 -15 30 0 89 8 35 25 80 35 101 43 81 11 91 -57 17 -45 -49 -47 -50 -107
-51 -102 -1 -167 -14 -185 -36 -9 -11 -28 -23 -43 -27 -29 -7 -58 -52 -72
-110 -4 -17 -18 -40 -31 -52 -13 -12 -27 -34 -31 -48 -5 -21 -12 -26 -39 -26
-25 0 -40 -8 -58 -30 -14 -16 -34 -30 -45 -30 -14 0 -21 9 -25 30 -4 17 -13
30 -21 30 -35 0 -23 81 14 90 20 5 26 13 28 44 3 31 -4 46 -36 89 -22 29 -43
62 -47 75 -3 12 -20 29 -36 37 -16 9 -29 21 -29 28 0 15 55 37 93 37 17 0 41
14 67 39 34 32 41 46 40 73 -3 59 -3 60 31 53 25 -6 31 -4 36 14 5 19 13 21
82 21 74 0 77 1 119 39 33 30 42 46 42 71 0 22 8 38 25 52 32 25 32 64 2 109
-27 40 -59 45 -67 10 -3 -13 -12 -27 -20 -31 -8 -4 -27 -13 -42 -20 -15 -7
-30 -21 -33 -31 -8 -24 -122 -32 -147 -10 -10 8 -18 18 -18 24 0 17 -61 87
-76 87 -10 0 -14 -10 -12 -35 1 -19 4 -32 7 -30 8 8 51 -58 44 -68 -3 -6 -1
-7 5 -3 6 3 23 -10 38 -29 20 -27 24 -39 16 -47 -9 -9 -19 -5 -42 17 -16 15
-27 33 -23 38 3 6 2 7 -4 4 -10 -6 -59 48 -81 90 -14 25 -2 68 26 90 11 10 12
12 2 7 -12 -5 -13 -4 -3 6 19 21 4 101 -24 125 -12 11 -23 28 -23 36 0 22 -38
69 -55 69 -7 0 -25 15 -40 33 -14 17 -33 40 -41 50 -8 9 -14 20 -14 24 0 11
-35 32 -56 33 -11 0 -27 -6 -36 -12z m239 -525 l44 -47 -23 -17 c-12 -10 -26
-15 -30 -12 -5 2 -7 -1 -6 -9 2 -7 -5 -13 -14 -13 -10 0 -18 -5 -19 -10 0 -6
-7 -18 -16 -27 -12 -14 -13 -21 -4 -32 11 -13 90 -28 89 -16 -2 13 15 39 23
34 5 -3 6 2 3 10 -6 16 21 34 33 23 11 -11 -17 -70 -47 -98 -29 -28 -80 -40
-80 -18 0 5 -4 8 -9 5 -7 -5 -24 13 -101 103 -40 47 -37 111 5 135 10 6 25 17
33 24 7 6 27 12 45 12 24 0 40 -10 74 -47z m-347 -78 c16 -22 32 -33 47 -32
12 1 19 5 17 9 -3 4 -3 8 0 8 2 0 11 3 19 6 24 9 30 -27 7 -43 -28 -20 -25
-35 14 -74 19 -18 33 -36 31 -39 -8 -14 58 -42 84 -37 27 6 51 -7 51 -26 0 -5
-7 -7 -15 -3 -8 3 -14 0 -12 -7 1 -7 -12 -13 -32 -15 -30 -3 -40 3 -93 60 -33
35 -63 71 -67 81 -6 17 -8 17 -34 -3 -15 -12 -27 -18 -27 -14 0 4 -9 -5 -21
-20 l-21 -26 30 -38 c61 -75 88 -95 122 -88 21 4 36 1 46 -9 13 -12 11 -16
-10 -30 -18 -12 -35 -15 -57 -10 -36 8 -113 80 -103 97 4 7 3 8 -4 4 -6 -4
-19 5 -28 19 -11 17 -24 25 -35 22 -22 -6 -42 15 -34 34 3 8 -6 27 -19 42 -16
18 -22 35 -18 49 5 20 7 20 37 -15 31 -36 62 -44 82 -22 5 4 1 5 -7 1 -8 -4 0
6 19 22 l34 29 -21 30 c-19 26 -27 73 -12 73 3 0 16 -16 30 -35z m-152 -248
c12 -13 19 -27 15 -32 -5 -4 -3 -5 3 -2 14 8 129 -119 130 -145 1 -10 -3 -18
-7 -18 -5 0 -9 -7 -9 -15 0 -8 -19 -29 -42 -45 -33 -24 -48 -29 -72 -24 -37 7
-99 63 -91 82 2 7 1 11 -3 8 -5 -3 -28 14 -51 38 -38 38 -40 44 -26 56 14 12
20 10 40 -16 13 -16 21 -33 18 -38 -4 -5 -2 -6 3 -3 6 3 29 -14 52 -39 34 -35
50 -44 76 -44 19 0 39 7 46 15 7 8 15 13 19 11 12 -8 6 40 -6 56 -7 8 -11 18
-8 21 3 4 2 5 -2 2 -9 -7 -34 16 -27 26 3 5 -1 9 -8 9 -15 0 -54 41 -50 53 1
4 -5 7 -14 7 -10 0 -14 5 -10 16 3 8 2 12 -3 9 -12 -7 -24 12 -16 25 9 15 19
12 43 -13z m-105 -269 c71 -75 76 -84 60 -95 -15 -11 -20 -9 -39 14 -12 16
-20 32 -17 37 4 5 1 6 -5 2 -6 -3 -25 11 -43 34 -18 22 -40 42 -49 45 -35 11
-99 -28 -100 -61 0 -6 31 -47 69 -91 52 -60 67 -83 58 -92 -18 -18 -30 -13
-57 25 -14 19 -49 60 -78 90 -31 31 -50 59 -46 66 4 6 3 8 -3 5 -13 -8 -67 48
-59 62 5 7 0 8 -11 4 -17 -6 -17 -5 0 13 18 19 19 18 53 -18 19 -21 36 -38 39
-38 2 0 25 21 51 46 62 60 78 56 177 -48z m-290 -102 c4 -9 -1 -17 -11 -21
-30 -10 -63 -43 -71 -73 -8 -27 -7 -28 25 -30 19 -2 45 4 58 13 36 24 80 34
100 23 9 -5 14 -13 11 -19 -4 -5 -1 -9 4 -9 20 0 12 -66 -11 -96 -24 -31 -33
-39 -82 -66 -23 -14 -32 -15 -38 -5 -13 20 -9 25 26 37 19 6 37 18 40 26 3 9
11 12 17 8 7 -4 9 -3 5 4 -3 6 -2 13 4 17 16 10 12 55 -6 62 -9 3 -41 -6 -70
-20 -66 -32 -74 -33 -103 -6 -34 32 -23 83 28 131 43 40 65 47 74 24z m-5359
-1922 c9 -8 16 -22 16 -30 0 -8 8 -17 18 -21 76 -27 66 -123 -14 -123 -35 0
-64 28 -64 62 0 9 -8 19 -18 23 -11 3 -24 17 -31 32 -10 22 -9 29 10 49 26 28
61 31 83 8z m-114 -97 c37 -30 80 -90 80 -112 0 -26 -45 -67 -69 -63 -22 5
-25 28 -3 28 27 0 45 25 37 51 l-7 22 -18 -23 c-22 -29 -64 -29 -96 0 -28 27
-31 65 -7 92 18 21 61 23 83 5z m-366 -343 c9 -3 25 -21 37 -40 20 -33 20 -36
4 -60 -19 -29 -57 -49 -79 -41 -15 6 -56 64 -56 79 0 3 12 20 26 37 26 31 39
36 68 25z m-104 -111 c51 -67 58 -83 39 -83 -6 0 -24 -11 -41 -25 -38 -32 -51
-32 -82 6 -38 45 -31 95 16 112 11 3 11 9 0 26 -13 23 -8 46 9 35 5 -3 32 -35
59 -71z m1165 -1886 l0 -72 90 -9 c50 -5 92 -10 94 -12 2 -2 -2 -10 -9 -19 -8
-10 -24 -13 -49 -10 -40 4 -100 8 -116 6 -5 -1 -10 -14 -10 -30 0 -16 2 -28 4
-26 2 2 15 -7 30 -21 26 -25 26 -25 6 -40 -18 -14 -22 -13 -44 13 -13 15 -44
51 -69 78 -25 28 -54 65 -64 83 -18 29 -38 48 -22 20 4 -7 -5 -2 -20 12 -37
33 -55 66 -32 57 9 -4 15 -3 15 1 -3 19 2 23 16 12 8 -7 12 -17 8 -23 -3 -5
-1 -7 5 -3 6 3 31 -20 57 -54 63 -82 77 -80 73 14 -2 51 1 78 11 90 21 25 26
11 26 -67z m-160 -127 c11 -18 -13 -49 -35 -43 -11 3 -31 -2 -45 -11 -36 -24
-34 -72 5 -115 17 -18 27 -37 24 -43 -4 -6 -3 -8 3 -5 5 3 26 2 47 -3 21 -4
35 -6 32 -3 -3 3 4 13 14 22 11 9 21 27 23 41 6 37 37 39 37 3 0 -34 -14 -58
-29 -49 -6 4 -9 2 -6 -7 12 -28 -64 -70 -102 -56 -11 4 -37 29 -57 56 -20 26
-43 57 -52 68 -20 26 -12 80 18 112 31 33 110 55 123 33z m-483 -307 c10 1 18
5 18 9 0 4 7 4 17 1 11 -4 14 -3 9 5 -4 7 -3 12 3 12 21 0 17 -26 -7 -46 l-25
-21 41 -58 c23 -32 42 -63 42 -69 0 -7 18 -10 45 -9 51 1 66 -11 39 -33 -35
-27 -128 5 -108 37 4 7 3 9 -4 6 -5 -4 -27 16 -48 44 -26 36 -42 49 -55 46
-20 -5 -35 21 -20 36 7 7 3 20 -10 39 -15 20 -19 37 -14 55 6 25 6 25 32 -15
16 -25 34 -40 45 -39z"/>
</g>
</svg>
