<?xml version="1.0" standalone="no"?>
<!DOCTYPE svg PUBLIC "-//W3C//DTD SVG 20010904//EN"
 "http://www.w3.org/TR/2001/REC-SVG-20010904/DTD/svg10.dtd">
<svg version="1.0" xmlns="http://www.w3.org/2000/svg"
 width="1373.000000pt" height="973.000000pt" viewBox="0 0 1373.000000 973.000000"
 preserveAspectRatio="xMidYMid meet">
<metadata>
Created by potrace 1.16, written by Peter Selinger 2001-2019
</metadata>
<g transform="translate(0.000000,973.000000) scale(0.100000,-0.100000)"
fill="#000000" stroke="none">
<path d="M12210 8633 c-22 -8 -40 -34 -40 -58 0 -26 -34 -60 -50 -50 -25 16
-58 -6 -81 -52 -37 -76 -45 -82 -92 -70 -43 11 -125 -4 -138 -25 -10 -17 -130
-18 -155 -3 -31 19 -105 38 -114 28 -4 -4 -10 -33 -14 -64 l-6 -55 73 -17 c39
-10 80 -17 90 -17 23 0 22 -12 -4 -28 -15 -10 -29 -10 -52 -3 -68 20 -104 22
-111 6 -6 -17 8 -50 31 -73 17 -17 17 -27 -1 -41 -10 -9 -19 -4 -39 23 -14 18
-23 37 -19 41 4 3 2 5 -4 3 -17 -5 -111 112 -99 124 2 2 -11 5 -30 6 -27 2
-43 -5 -73 -33 -35 -31 -46 -35 -93 -35 -56 0 -114 -26 -125 -55 -6 -15 -68
-55 -85 -55 -6 0 -17 7 -26 15 -13 14 -18 14 -37 2 -11 -7 -27 -28 -35 -45
-12 -27 -20 -32 -48 -32 -63 0 -111 -30 -175 -109 -14 -16 -29 -21 -67 -21
-28 0 -53 -4 -56 -10 -3 -5 -28 -10 -56 -10 -33 0 -49 -4 -49 -13 0 -24 -37
-44 -91 -51 -45 -6 -58 -12 -74 -36 -20 -30 -85 -66 -151 -85 -24 -6 -54 17
-54 41 0 18 -41 28 -88 20 -25 -5 -48 -19 -72 -46 l-35 -39 -53 9 c-59 10
-102 42 -102 78 0 19 -5 22 -35 22 -35 0 -35 0 -35 -44 0 -28 7 -52 20 -69 31
-39 27 -105 -7 -134 -15 -14 -39 -23 -58 -23 -23 0 -35 -6 -44 -23 -7 -13 -11
-27 -10 -33 7 -23 -14 -52 -41 -58 -17 -3 -30 -12 -30 -20 0 -7 -17 -22 -37
-31 -21 -10 -46 -29 -56 -42 -10 -12 -27 -23 -37 -23 -11 0 -20 -10 -24 -24
-3 -14 -24 -37 -46 -53 -22 -15 -40 -33 -40 -39 0 -6 -13 -30 -30 -52 -16 -23
-30 -48 -30 -56 0 -7 -13 -16 -30 -19 -25 -6 -30 -11 -30 -37 0 -23 -5 -30
-19 -30 -22 0 -36 -16 -45 -52 -5 -24 -11 -28 -41 -28 -28 0 -37 -5 -45 -25
-5 -13 -18 -33 -30 -45 -28 -28 -26 -77 5 -106 14 -13 25 -28 25 -34 0 -5 6
-10 13 -10 6 -1 3 -9 -9 -18 -12 -10 -25 -28 -29 -41 -6 -20 -12 -22 -38 -17
-72 15 -82 13 -85 -19 -2 -16 -12 -40 -23 -53 -10 -14 -19 -30 -19 -36 0 -7
-18 -20 -40 -30 -22 -10 -40 -23 -40 -30 0 -6 -10 -20 -22 -31 -19 -16 -39
-19 -123 -20 -55 0 -107 -4 -115 -10 -59 -38 -110 -54 -110 -35 0 5 -18 13
-40 16 -22 4 -40 10 -40 15 0 5 -7 9 -15 9 -8 0 -15 6 -15 14 0 21 -45 28
-129 20 -60 -5 -79 -11 -97 -31 -18 -20 -28 -23 -60 -18 -30 5 -44 2 -59 -13
-16 -14 -37 -19 -88 -20 -44 -1 -78 -7 -97 -18 -24 -15 -34 -16 -55 -6 -32 15
-121 16 -130 2 -7 -12 -62 -14 -67 -2 -1 4 -24 17 -49 29 -25 13 -51 33 -58
47 -8 13 -36 33 -66 46 -29 12 -55 30 -58 40 -4 15 -12 17 -50 13 -36 -4 -51
-1 -73 16 -14 11 -30 18 -35 15 -5 -3 -19 2 -31 10 -37 26 -58 21 -58 -14 0
-27 -3 -30 -30 -30 -16 0 -30 5 -30 10 0 6 -20 10 -45 10 -45 0 -45 0 -45 -35
0 -38 -4 -41 -85 -65 -22 -6 -45 -11 -50 -10 -28 6 -57 -2 -72 -20 -12 -14
-30 -20 -59 -20 -25 0 -47 -6 -54 -15 -7 -8 -18 -15 -25 -15 -8 0 -15 -5 -17
-10 -2 -6 -55 -13 -120 -17 l-116 -6 -22 -38 c-12 -22 -24 -39 -27 -39 -3 0
-16 11 -29 25 -24 26 -74 35 -74 13 0 -6 -7 -19 -16 -29 -14 -15 -28 -17 -105
-12 l-89 6 0 -30 c0 -24 -5 -32 -25 -37 -15 -4 -27 -16 -31 -31 -6 -25 -37
-35 -49 -15 -3 6 -21 10 -38 10 -22 0 -42 10 -64 30 -18 17 -38 30 -46 30 -8
0 -22 9 -32 20 -10 11 -24 20 -32 20 -7 0 -13 4 -13 9 0 12 -90 20 -110 10 -8
-4 -19 -24 -25 -44 -10 -37 -17 -43 -104 -85 -24 -11 -63 -42 -86 -67 -36 -39
-47 -45 -69 -39 -14 3 -26 11 -26 16 0 6 -24 10 -53 10 -31 0 -61 6 -73 15
-33 25 -54 19 -54 -15 0 -20 -5 -30 -15 -30 -8 0 -15 -4 -15 -10 0 -15 -58
-12 -63 3 -2 8 -29 12 -84 12 -62 0 -83 4 -97 18 -12 12 -33 17 -72 17 -52 0
-54 -1 -68 -35 -10 -23 -22 -35 -35 -35 -11 0 -23 -4 -26 -10 -3 -5 -24 -10
-45 -10 -21 0 -42 5 -45 10 -3 6 -15 10 -25 10 -10 0 -25 7 -34 15 -17 17 -42
20 -51 5 -8 -13 -45 -13 -45 -1 0 21 -42 23 -61 2 -20 -21 -44 -19 -53 5 -3 8
-19 14 -40 14 -27 0 -43 -8 -69 -35 -33 -33 -37 -35 -104 -35 -51 0 -74 4 -83
15 -16 19 -67 19 -86 0 -12 -12 -44 -15 -149 -15 -98 0 -134 -3 -137 -12 -6
-18 -136 -18 -147 0 -4 7 -25 15 -46 17 -21 2 -42 9 -46 17 -27 43 -26 43 -62
30 -59 -21 -88 -15 -139 31 -26 23 -65 58 -88 77 -22 19 -40 41 -40 48 0 10
-24 12 -105 10 l-105 -2 0 -33 c0 -30 -3 -33 -31 -33 -17 0 -37 -7 -46 -16
-13 -12 -28 -14 -78 -9 -57 6 -64 5 -84 -16 -24 -26 -26 -41 -9 -68 8 -14 9
-31 2 -58 -7 -31 -14 -39 -36 -41 -14 -2 -32 -10 -38 -18 -7 -8 -23 -14 -37
-14 -13 0 -31 -7 -39 -15 -10 -9 -25 -12 -45 -8 -20 4 -35 0 -48 -11 -16 -15
-22 -15 -40 -4 -17 10 -25 10 -48 -3 -23 -13 -51 -15 -154 -11 -117 4 -126 3
-131 -14 -2 -11 -1 -73 2 -139 6 -115 4 -371 -4 -445 -2 -19 -4 -41 -5 -48 -1
-7 -9 -16 -18 -19 -37 -13 -68 -46 -78 -81 -9 -31 -16 -38 -40 -40 -34 -4 -45
-16 -45 -53 0 -17 -10 -34 -31 -50 -25 -19 -30 -28 -25 -51 4 -20 0 -33 -16
-47 -26 -25 -19 -78 17 -114 24 -23 50 -64 91 -143 13 -25 14 -38 6 -62 -12
-34 4 -76 28 -78 8 -1 20 -2 26 -2 7 -1 15 -26 18 -56 4 -30 13 -57 20 -59 7
-3 18 -31 25 -62 12 -53 12 -59 -8 -85 -16 -23 -20 -44 -21 -121 -3 -219 -1
-235 20 -254 12 -11 20 -31 20 -52 0 -20 8 -41 21 -54 19 -19 20 -22 4 -75
-16 -57 -29 -234 -19 -266 7 -22 40 -24 48 -3 3 8 4 45 2 81 -6 94 3 104 86
104 38 0 68 4 68 9 0 6 13 23 30 38 22 21 28 34 24 51 -4 12 -10 22 -14 22 -4
0 -26 16 -49 36 l-41 36 0 118 c0 103 2 119 19 134 11 10 23 31 26 47 8 37 30
59 59 59 16 0 27 10 37 32 8 18 25 38 38 45 13 6 28 19 33 27 5 9 17 16 27 16
19 0 61 35 61 50 0 6 27 10 59 10 33 0 63 5 66 10 3 6 33 10 65 10 41 0 63 5
75 17 11 10 35 17 66 17 28 1 53 6 57 13 4 6 20 15 35 18 15 4 27 13 27 20 0
15 27 45 40 45 5 0 23 -14 40 -30 17 -17 39 -30 50 -30 21 0 80 31 80 43 0 4
9 7 20 7 11 0 20 -4 20 -10 0 -5 8 -10 18 -10 11 0 30 -9 42 -20 23 -20 23
-23 12 -76 -11 -53 -8 -84 8 -84 12 0 27 23 34 53 5 20 13 27 30 27 13 0 44 3
70 6 43 6 46 5 39 -12 -4 -10 -13 -25 -20 -32 -13 -13 -8 -42 8 -42 5 0 18
-18 29 -40 26 -50 50 -45 50 11 0 22 4 47 9 57 5 9 12 25 15 35 3 9 14 17 25
17 11 0 30 10 41 22 l21 23 19 -25 c11 -14 20 -29 20 -34 0 -12 32 -35 48 -36
7 0 25 11 40 25 32 29 47 31 61 8 9 -15 10 -13 11 14 0 22 8 37 28 51 22 17
25 23 15 33 -7 7 -13 19 -13 26 0 7 6 13 13 13 18 0 107 -146 107 -176 0 -56
66 -77 76 -24 9 43 30 57 52 36 10 -9 26 -16 35 -16 9 0 17 -4 17 -10 0 -5 7
-10 16 -10 12 0 14 -8 9 -44 l-7 -45 43 -3 c41 -3 44 -5 41 -30 -4 -36 10 -35
48 2 28 28 36 30 100 30 49 0 70 4 70 13 0 6 6 3 12 -7 8 -14 7 -25 -5 -46
-14 -24 -14 -29 -1 -55 10 -19 13 -42 9 -67 -9 -54 1 -78 34 -78 36 0 111 37
117 58 11 36 22 47 50 52 24 5 28 9 25 30 -9 58 -7 65 23 68 15 2 38 14 50 27
20 21 31 23 135 27 80 2 116 7 119 16 2 6 17 12 33 12 41 0 41 35 0 43 -16 3
-31 12 -34 20 -11 28 6 70 34 86 21 12 33 30 44 68 14 48 18 53 50 59 28 5 35
11 35 30 0 25 7 28 50 24 41 -3 49 -16 43 -75 -3 -29 -3 -68 1 -87 6 -35 76
-123 76 -96 0 8 13 41 29 74 21 43 30 79 34 136 6 91 18 118 53 118 28 0 55
23 71 61 10 22 16 25 54 23 24 -2 50 -3 57 -3 6 -1 12 -10 12 -22 0 -11 15
-42 32 -70 l33 -49 70 -2 c107 -3 157 1 190 17 19 8 57 13 99 12 48 -1 71 2
74 11 2 6 10 12 18 12 8 0 28 14 45 31 27 27 31 29 45 15 10 -10 33 -16 64
-16 46 0 74 -15 53 -29 -6 -3 -18 -29 -27 -57 -14 -43 -22 -53 -56 -68 -50
-22 -59 -39 -53 -99 5 -44 7 -47 34 -47 16 0 29 -4 29 -10 0 -5 16 -10 35 -10
26 0 33 -3 29 -15 -4 -8 -13 -15 -20 -15 -8 0 -17 -7 -20 -15 -4 -9 -19 -15
-40 -15 -38 0 -42 -9 -18 -46 15 -23 15 -28 0 -68 -25 -65 -31 -140 -16 -187
11 -32 11 -45 2 -60 -7 -10 -12 -29 -12 -41 0 -21 2 -20 21 10 12 17 25 32 30
32 5 0 9 6 9 14 0 7 15 21 33 29 29 15 34 15 56 0 18 -11 26 -13 29 -5 2 7 9
12 16 12 7 0 21 9 31 20 11 12 31 20 50 20 17 0 35 4 41 9 5 5 37 12 72 16 59
7 62 6 62 -14 0 -12 6 -21 14 -21 8 0 19 -14 25 -30 5 -17 14 -29 18 -28 19 5
60 -18 96 -53 21 -22 42 -39 47 -39 6 0 10 -10 10 -23 0 -24 37 -67 58 -67 7
0 12 -8 12 -18 0 -9 12 -30 27 -46 22 -24 28 -26 37 -14 6 8 19 17 29 21 9 3
17 13 17 22 0 8 7 15 15 15 8 0 15 5 15 10 0 6 11 10 25 10 14 0 25 -3 25 -7
0 -3 -11 -21 -25 -39 -14 -18 -25 -45 -25 -61 0 -16 -9 -36 -20 -46 -11 -9
-20 -23 -20 -31 0 -8 -16 -16 -40 -20 -34 -5 -40 -10 -40 -31 0 -19 5 -25 21
-25 13 0 23 -10 30 -30 6 -16 14 -30 19 -30 4 0 10 -9 13 -19 4 -16 12 -19 51
-15 36 3 46 1 46 -10 0 -9 12 -16 28 -18 20 -2 28 -9 30 -28 3 -25 48 -55 80
-53 8 1 26 -19 40 -43 15 -24 35 -46 45 -49 11 -4 17 -17 17 -35 0 -16 5 -32
10 -35 18 -11 10 -25 -14 -25 -13 0 -27 6 -29 13 -8 17 -8 -54 -1 -80 4 -13
13 -23 20 -23 23 0 16 -36 -8 -47 -13 -6 -38 -14 -56 -17 -18 -3 -40 -12 -47
-20 -8 -8 -23 -12 -34 -9 -13 3 -23 -2 -30 -16 -7 -11 -17 -18 -25 -15 -16 6
-56 -29 -56 -49 0 -7 7 -22 15 -33 26 -34 18 -39 -72 -41 -48 -1 -98 -8 -110
-14 -18 -10 -26 -10 -35 -1 -12 12 -88 17 -88 6 0 -3 5 -14 10 -25 9 -15 7
-21 -5 -25 -8 -3 -15 -17 -15 -30 0 -13 -4 -24 -9 -24 -5 0 -8 -6 -7 -14 0 -8
-2 -15 -6 -15 -29 -3 -38 1 -38 13 0 15 -24 28 -34 19 -8 -8 -8 -58 0 -116 6
-40 10 -46 33 -49 20 -2 27 -9 29 -30 3 -22 9 -28 28 -28 48 0 89 -68 49 -84
-19 -7 -20 -26 -1 -26 8 0 22 -7 31 -16 14 -15 14 -17 -2 -30 -21 -16 -73 -19
-73 -4 0 21 -37 9 -63 -21 -24 -28 -32 -31 -64 -26 -24 4 -46 17 -63 37 -23
27 -32 30 -81 30 -50 0 -56 2 -73 31 -17 29 -19 29 -42 15 -13 -9 -35 -16 -49
-16 -21 0 -25 -5 -25 -29 0 -38 9 -61 24 -61 15 0 46 -36 46 -54 0 -7 7 -19
15 -26 12 -10 15 -32 14 -99 -3 -99 -19 -139 -61 -148 l-28 -5 0 -191 c0 -178
1 -192 20 -212 l20 -22 -21 -26 c-16 -21 -17 -27 -6 -27 41 0 68 -121 47 -212
-19 -83 -21 -88 -36 -88 -8 0 -14 -1 -14 -3 0 -1 -4 -16 -9 -34 l-9 -32 86 -2
c48 -1 129 -1 181 0 105 2 115 -3 105 -56 -4 -20 2 -59 15 -103 24 -78 32 -84
116 -78 48 3 50 4 65 46 9 24 33 57 58 79 23 20 42 40 42 45 0 12 33 48 45 48
20 0 45 58 45 102 0 46 21 78 52 78 17 0 74 67 88 105 6 15 10 37 10 49 0 13
18 48 41 80 l40 56 18 -22 c10 -12 34 -27 52 -34 31 -10 34 -14 31 -48 -2 -26
1 -36 12 -36 8 0 16 -11 18 -27 4 -36 20 -39 49 -9 37 37 107 62 130 48 24
-15 46 -15 51 0 4 10 13 10 45 0 22 -7 50 -12 62 -12 21 0 22 3 16 44 -6 38
-4 46 14 58 18 11 21 22 21 89 0 59 3 78 15 83 9 3 15 18 15 35 0 21 7 34 23
42 33 17 33 17 3 48 l-28 29 31 31 c38 39 43 99 11 131 -25 25 -25 32 -1 47
17 10 17 16 7 54 -9 33 -8 43 2 46 6 3 12 19 12 37 0 60 40 85 89 55 39 -24
89 -25 98 -3 3 9 -1 28 -9 43 -17 28 -11 40 24 54 10 3 20 18 24 32 3 14 13
25 20 25 22 0 28 27 14 60 -12 28 -11 32 15 54 26 23 27 27 21 84 -9 84 -1
112 34 112 15 0 41 5 57 11 29 9 31 13 30 58 -1 40 5 55 31 89 30 37 32 45 32
117 0 77 0 77 45 128 25 29 45 57 45 63 0 7 6 14 13 17 20 7 69 117 63 140 -3
11 0 42 5 69 13 58 -4 93 -52 111 -16 6 -29 15 -29 19 0 4 -10 8 -23 8 -28 0
-47 17 -47 42 0 10 -22 41 -50 69 -27 28 -50 54 -50 58 1 16 29 40 53 46 18 5
33 21 48 51 24 50 52 74 89 74 36 0 101 60 109 101 6 29 11 34 38 37 28 3 31
7 37 48 3 25 14 59 23 75 14 24 24 29 55 29 28 0 41 5 45 18 4 9 13 23 20 30
7 7 15 28 19 47 6 33 9 35 45 35 35 0 39 3 39 26 0 14 7 33 16 42 14 13 16 30
11 93 -3 42 -2 81 2 87 3 6 20 14 36 18 17 4 35 10 40 14 6 4 25 11 43 15 l32
7 0 -109 c0 -86 4 -114 17 -133 33 -49 44 -50 86 -9 25 26 34 29 49 20 10 -6
31 -11 48 -11 29 0 53 17 132 93 22 21 23 43 3 63 -8 9 -15 28 -15 43 0 15 -9
37 -21 50 -30 32 -28 124 6 228 24 73 30 82 55 88 29 6 47 35 35 55 -15 24 5
56 45 74 38 17 40 20 40 62 0 30 5 46 15 50 8 4 15 16 15 28 0 23 18 45 64 81
16 13 25 30 26 48 0 26 3 28 33 25 28 -3 32 0 35 23 2 17 11 29 24 32 22 6 22
-2 2 157 -6 43 -5 45 25 57 21 8 31 18 31 32 0 12 7 24 15 27 8 4 15 12 15 20
0 8 7 14 15 14 8 0 15 4 15 8 0 5 13 23 29 41 27 30 32 32 45 19 11 -12 13
-29 9 -72 -5 -46 -2 -60 12 -76 30 -33 64 -25 111 25 23 25 46 45 53 45 6 0
11 18 11 45 0 38 3 45 20 45 15 0 20 7 20 28 0 15 4 32 9 38 6 5 11 34 13 64
3 49 5 55 27 58 13 2 33 14 45 27 12 13 34 27 48 30 14 4 31 17 38 31 15 26
48 32 79 12 33 -21 51 4 44 63 -6 48 -5 49 21 49 19 0 26 -5 26 -20 0 -11 5
-20 10 -20 10 0 69 38 80 51 11 13 84 48 91 43 5 -2 15 9 23 25 9 16 26 33 38
37 12 4 31 17 41 30 10 13 25 24 33 24 8 0 14 5 14 11 0 6 14 30 30 54 17 24
30 53 30 64 0 12 6 21 13 21 22 0 47 34 47 64 0 16 7 29 18 33 9 4 28 15 41
25 32 24 49 23 77 -7 13 -14 28 -25 34 -25 5 0 10 -4 10 -10 0 -5 14 -10 30
-10 17 0 30 5 30 10 0 6 6 10 14 10 8 0 21 6 28 13 7 8 25 17 39 20 14 4 31
17 38 31 8 15 26 27 46 30 20 4 37 16 45 31 7 14 17 25 21 25 9 0 25 16 63 61
29 34 74 46 108 28 18 -10 48 -2 48 12 0 17 66 77 93 83 17 4 27 13 27 25 0
19 23 45 32 36 3 -3 10 1 17 9 9 10 27 13 69 9 67 -6 88 7 96 55 2 18 9 39 15
46 5 6 8 22 5 33 -4 15 0 25 14 32 11 6 25 26 32 45 21 63 82 93 159 75 25 -6
54 -15 63 -20 10 -5 29 -9 43 -9 16 0 25 -6 25 -15 0 -8 9 -15 20 -15 11 0 20
4 20 8 0 4 18 19 40 32 22 14 40 28 40 32 0 4 16 10 37 14 20 4 48 13 62 20
14 8 43 14 64 14 23 0 51 8 68 21 31 22 36 21 77 -18 24 -23 49 -15 55 15 4
17 16 33 31 40 26 11 26 13 26 121 0 88 -3 110 -15 115 -8 3 -15 1 -15 -5 0
-5 -12 -15 -27 -22 -16 -6 -37 -23 -49 -36 l-21 -24 -22 31 c-15 22 -20 39
-15 57 3 14 2 31 -4 38 -10 12 -15 39 -13 65 0 6 12 12 25 12 22 0 23 2 15 43
-4 23 -8 63 -9 90 0 45 -1 47 -29 47 -23 0 -34 7 -48 30 -10 18 -26 30 -38 30
-33 0 -65 28 -65 57 0 15 -7 34 -16 44 -15 16 -14 20 2 47 17 29 17 30 -10 58
-31 35 -32 38 -5 65 12 12 26 37 31 57 10 35 29 62 45 62 4 1 17 19 28 42 15
31 33 48 72 67 70 36 90 56 96 97 3 19 17 48 31 65 14 17 26 43 26 58 0 26 -3
29 -52 35 -63 7 -457 7 -478 -1z m-850 -400 c0 -17 -16 -29 -38 -30 -28 -2
-71 -28 -79 -49 -9 -24 5 -57 43 -101 24 -27 46 -43 60 -43 25 0 60 32 70 64
7 21 22 36 37 36 4 0 7 -15 7 -34 0 -57 -79 -118 -140 -107 -22 3 -100 90
-117 129 -30 72 30 138 130 141 15 1 27 -2 27 -6z m-478 -291 c17 11 29 13 39
7 11 -8 9 -13 -11 -32 -23 -20 -39 -64 -20 -52 11 7 51 -50 42 -60 -4 -5 -2
-5 4 -2 7 4 17 0 24 -8 7 -8 9 -15 4 -15 -14 -1 24 -21 57 -30 18 -5 27 -5 24
1 -4 5 -1 9 5 9 13 0 25 -28 16 -37 -3 -4 -14 -7 -24 -8 -9 0 -23 -5 -30 -9
-14 -8 -101 73 -137 128 -12 18 -24 26 -36 23 -21 -6 -48 21 -33 31 13 9 13
53 0 45 -5 -4 -7 1 -3 10 4 11 2 14 -9 10 -15 -6 -18 5 -7 33 5 15 11 11 39
-21 31 -37 33 -38 56 -23z m-106 -139 c-3 -3 -16 -6 -30 -7 -13 0 -23 -3 -21
-5 2 -2 -5 -11 -17 -21 -16 -13 -19 -23 -14 -43 8 -32 28 -34 96 -10 42 15 52
15 74 4 13 -8 30 -26 36 -41 15 -36 9 -76 -10 -72 -8 2 -12 0 -7 -4 10 -11
-33 -54 -54 -54 -10 0 -21 -4 -24 -10 -10 -16 -22 -12 -28 10 -3 13 0 20 8 20
23 0 72 48 78 76 7 38 -33 54 -74 30 -40 -24 -86 -24 -110 0 -24 24 -32 83
-13 91 8 3 12 8 9 13 -6 10 35 47 65 58 21 8 26 6 33 -11 4 -11 5 -22 3 -24z
m-263 -282 l36 -39 -60 -57 c-32 -31 -59 -60 -59 -64 0 -4 10 -13 23 -20 24
-13 69 -3 82 19 3 5 10 8 14 5 5 -2 6 7 3 20 -3 20 0 25 17 25 29 0 28 -37 -3
-75 -21 -26 -26 -28 -40 -16 -9 8 -19 11 -23 7 -3 -3 -1 -6 5 -6 7 0 12 -7 12
-15 0 -8 -9 -15 -19 -15 -11 0 -26 -3 -34 -6 -10 -3 -37 17 -76 58 -52 54 -61
68 -61 99 0 43 43 104 67 95 8 -3 12 -2 8 3 -6 11 11 19 46 20 18 1 37 -11 62
-38z m-367 -108 c-4 -10 -4 -14 0 -10 4 4 17 -2 28 -12 27 -25 32 -25 57 0 17
17 23 18 36 8 13 -12 13 -15 -6 -30 -29 -24 -26 -43 14 -88 20 -22 32 -41 28
-43 -4 -3 -3 -3 4 -2 7 2 15 -1 18 -6 9 -14 49 -12 63 2 9 9 15 9 24 0 18 -18
-16 -49 -58 -54 -37 -4 -45 1 -109 72 -16 19 -24 30 -16 25 10 -5 12 -4 7 3
-13 21 -51 13 -89 -19 -20 -17 -37 -34 -37 -39 0 -5 11 -22 25 -38 13 -16 22
-32 18 -36 -3 -3 1 -6 11 -6 9 0 15 -4 11 -9 -6 -11 48 -23 85 -19 32 4 38
-22 9 -40 -51 -32 -68 -27 -137 43 -38 39 -70 64 -78 61 -8 -3 -19 4 -25 16
-7 13 -7 18 -1 14 6 -3 13 -2 17 4 3 5 2 10 -4 10 -6 0 -13 11 -17 25 -3 14
-10 25 -15 25 -12 0 -12 37 0 45 5 3 19 -8 31 -25 26 -37 34 -37 79 -3 20 16
39 27 43 26 12 -4 -4 30 -23 52 -19 21 -16 65 3 65 6 0 7 -8 4 -17z m-146
-284 c0 -10 5 -21 12 -25 7 -5 8 -2 3 7 -4 8 17 -13 48 -46 31 -33 54 -66 52
-73 -3 -8 0 -10 6 -6 26 16 -4 -63 -34 -89 -67 -58 -107 -49 -182 41 -93 110
-88 102 -74 118 10 13 14 12 31 -3 10 -9 16 -23 13 -30 -2 -8 -1 -12 4 -9 13
8 63 -62 55 -76 -4 -6 -3 -8 3 -5 6 4 18 -2 28 -14 14 -15 29 -19 61 -17 23 2
40 5 38 7 -2 3 3 15 11 28 15 22 14 26 -10 58 -15 19 -24 39 -20 45 4 6 2 9
-4 8 -11 -3 -91 79 -91 93 0 5 7 9 16 9 9 0 12 5 8 13 -5 8 -2 8 9 -2 9 -7 17
-22 17 -32z m-360 -191 c0 -14 14 -8 44 17 40 34 60 38 97 19 37 -19 51 -33
116 -122 35 -49 43 -66 34 -75 -12 -12 -14 -10 -72 61 -5 6 -8 12 -5 12 3 0
-14 20 -36 45 -46 50 -80 58 -119 26 -21 -17 -22 -20 -8 -52 7 -19 12 -41 11
-49 -2 -12 -1 -12 6 -2 7 11 15 6 33 -20 12 -18 36 -48 52 -67 26 -30 27 -35
13 -49 -9 -9 -17 -14 -19 -11 -46 57 -75 104 -70 113 3 6 3 8 -2 4 -9 -8 -94
100 -95 120 0 6 -4 12 -8 12 -5 0 -21 17 -35 37 -21 29 -24 40 -15 51 10 11
18 7 44 -25 19 -21 33 -41 34 -45z m-57 -91 c3 -7 -11 -20 -34 -31 -40 -20
-61 -58 -42 -77 13 -13 75 -30 68 -19 -5 8 13 17 54 25 11 2 28 -3 36 -11 8
-9 15 -12 15 -8 0 4 11 -7 25 -26 17 -22 23 -41 19 -54 -9 -28 -35 -57 -46
-50 -4 3 -7 0 -6 -8 2 -7 -5 -12 -14 -12 -10 1 -16 -2 -13 -6 3 -4 -7 -11 -22
-15 -24 -6 -42 6 -43 26 0 8 81 44 97 42 9 0 9 4 0 18 -9 14 -9 24 -1 37 10
15 7 17 -19 19 -17 1 -34 8 -39 15 -5 8 -8 9 -8 2 0 -17 -53 -36 -86 -32 -41
4 -76 59 -63 97 16 45 55 75 105 80 7 0 14 -5 17 -12z m-5315 -1959 c7 -16 21
-28 31 -28 49 0 56 -66 10 -104 -49 -41 -99 -31 -99 21 0 13 -6 23 -13 23 -8
0 -22 9 -32 20 -15 17 -16 24 -5 50 24 57 84 67 108 18z m-96 -130 c44 -48 49
-84 16 -115 -27 -23 -56 -35 -68 -28 -15 9 1 35 20 35 24 0 44 26 36 46 -5 14
-10 13 -31 -10 -31 -34 -68 -34 -94 0 -27 35 -26 59 4 89 37 38 71 33 117 -17z
m-392 -365 c28 -36 23 -80 -11 -106 -43 -31 -87 -3 -104 66 -15 60 75 91 115
40z"/>
</g>
</svg>
