<?xml version="1.0" standalone="no"?>
<!DOCTYPE svg PUBLIC "-//W3C//DTD SVG 20010904//EN"
 "http://www.w3.org/TR/2001/REC-SVG-20010904/DTD/svg10.dtd">
<svg version="1.0" xmlns="http://www.w3.org/2000/svg"
 width="1403.000000pt" height="939.000000pt" viewBox="0 0 1403.000000 939.000000"
 preserveAspectRatio="xMidYMid meet">
<metadata>
Created by potrace 1.16, written by Peter Selinger 2001-2019
</metadata>
<g transform="translate(0.000000,939.000000) scale(0.100000,-0.100000)"
fill="#000000" stroke="none">
<path d="M3551 8507 c-6 -16 -11 -32 -11 -37 0 -4 -27 -35 -60 -69 -33 -34
-60 -66 -60 -71 0 -15 -37 -12 -89 7 -47 16 -48 16 -69 -5 -26 -26 -37 -27
-76 -7 -32 17 -66 20 -66 5 0 -13 -36 -13 -76 2 -37 13 -64 0 -64 -31 0 -26
50 -96 81 -115 16 -10 29 -23 29 -29 0 -16 -58 -50 -95 -57 -22 -4 -31 -11
-33 -27 -3 -19 1 -23 22 -23 14 0 28 -5 32 -11 3 -6 9 -7 13 -3 3 5 20 16 38
26 29 15 33 15 55 0 38 -26 39 -35 7 -68 -29 -30 -30 -33 -19 -75 13 -48 30
-65 76 -74 37 -6 64 -52 64 -107 0 -72 -13 -138 -26 -138 -15 0 -17 -5 -19
-60 -1 -19 -5 -44 -10 -54 -8 -18 -5 -19 31 -11 21 4 55 8 73 9 l35 1 -3 -51
-2 -52 43 -14 c47 -16 58 -38 48 -98 -5 -25 -1 -45 14 -71 l20 -37 -33 -37
-33 -38 26 -16 c21 -13 26 -23 26 -58 0 -53 10 -59 45 -27 18 16 36 24 54 22
23 -3 26 -8 29 -50 2 -34 7 -48 18 -48 8 0 14 -10 14 -25 0 -14 5 -25 10 -25
17 0 80 44 80 56 0 6 9 19 19 28 17 16 24 16 57 6 67 -22 103 -92 68 -131 -16
-18 -17 -21 -1 -55 15 -31 15 -35 2 -41 -21 -7 -56 -78 -49 -96 4 -11 30 -17
87 -22 100 -9 110 -16 102 -67 -9 -51 6 -68 61 -68 31 0 50 -6 65 -21 11 -11
30 -19 42 -19 52 5 56 -3 37 -72 -14 -47 -46 -58 -155 -49 -78 7 -80 6 -107
-21 -28 -29 -73 -38 -80 -16 -3 8 -33 11 -95 10 -69 -1 -94 3 -103 13 -7 9
-30 15 -54 15 -23 0 -51 7 -63 15 -24 17 -29 13 -58 -52 -19 -45 -59 -76 -117
-91 -17 -4 -35 -16 -40 -25 -4 -9 -12 -25 -17 -34 -11 -24 -39 -28 -59 -10 -9
8 -26 17 -37 19 -17 2 -20 -2 -17 -29 3 -47 -22 -43 -44 7 -14 31 -23 40 -39
38 -17 -3 -21 -14 -29 -82 -9 -72 -8 -80 10 -93 10 -7 27 -20 37 -29 10 -8 39
-19 65 -24 76 -14 119 -36 126 -65 4 -15 13 -25 25 -25 10 0 23 -12 30 -26 11
-24 14 -25 62 -19 45 6 51 5 56 -13 4 -19 11 -20 54 -15 56 7 79 -6 79 -44 0
-13 11 -46 25 -73 30 -59 31 -85 6 -127 -11 -17 -17 -40 -15 -50 4 -13 -3 -23
-19 -32 -22 -12 -28 -11 -48 8 -13 11 -28 21 -35 21 -18 0 -44 -40 -44 -67 0
-12 -9 -27 -19 -33 -42 -22 -97 -7 -167 46 -48 37 -57 32 -49 -28 4 -29 11
-57 16 -62 17 -18 9 -26 -23 -26 l-33 -1 35 -29 c19 -16 40 -30 46 -30 33 -1
73 -107 53 -142 -12 -21 2 -35 39 -41 49 -8 75 -35 68 -70 -5 -24 1 -35 34
-68 21 -21 43 -39 47 -39 4 0 33 -26 63 -57 66 -67 99 -82 203 -93 54 -5 88
-14 106 -28 59 -43 184 -28 166 21 -6 15 -10 15 -37 -8 -34 -29 -62 -26 -90 7
-40 45 -11 108 50 108 26 0 39 -9 72 -51 22 -28 40 -57 40 -64 0 -19 -38 -63
-60 -70 -16 -5 -20 -15 -20 -49 0 -55 24 -77 88 -84 42 -4 52 -1 71 19 11 12
21 28 21 35 0 14 27 27 34 16 2 -4 9 -26 15 -49 9 -32 18 -43 41 -52 26 -9 29
-13 21 -34 -13 -33 3 -47 51 -47 39 0 39 0 33 -34 -8 -41 8 -55 35 -31 17 15
19 15 38 -6 14 -14 23 -41 27 -78 13 -120 12 -125 -29 -117 -31 6 -36 3 -55
-29 -14 -25 -27 -35 -45 -35 -16 0 -32 -11 -46 -30 -20 -28 -26 -30 -84 -30
-44 0 -67 5 -76 15 -7 8 -23 15 -36 15 -14 0 -35 13 -51 30 -14 16 -30 30 -36
30 -12 0 -46 42 -47 57 0 21 -46 26 -79 9 -32 -17 -36 -27 -45 -111 -8 -61
-18 -73 -50 -55 -21 11 -29 11 -48 -2 -52 -34 -138 -30 -138 7 0 8 -13 27 -29
41 -17 15 -31 35 -33 47 -2 11 -15 29 -30 40 l-26 20 -46 -27 c-24 -14 -53
-26 -64 -26 -10 0 -31 -10 -46 -23 -24 -21 -26 -26 -15 -50 23 -51 -36 -137
-95 -137 -19 0 -39 -7 -46 -15 -7 -9 -29 -15 -51 -15 -20 0 -44 -7 -53 -15 -8
-8 -19 -15 -25 -15 -6 0 -11 -4 -11 -10 0 -15 -32 -49 -68 -72 -18 -11 -39
-32 -46 -47 -8 -15 -26 -33 -40 -41 -14 -7 -26 -19 -26 -25 0 -7 -9 -20 -21
-31 -12 -10 -27 -31 -35 -45 -9 -18 -24 -29 -48 -33 -45 -9 -56 -26 -17 -26
24 0 31 -4 31 -19 0 -23 -16 -36 -53 -45 -17 -4 -36 -20 -48 -41 -19 -31 -22
-33 -47 -23 -15 7 -35 19 -45 27 -17 14 -21 13 -45 -17 -15 -18 -36 -32 -47
-32 -11 0 -26 -9 -33 -21 -10 -15 -20 -19 -40 -15 -24 5 -29 1 -48 -37 -21
-40 -24 -42 -65 -42 -32 0 -50 -6 -66 -22 -18 -18 -27 -20 -57 -13 -33 7 -37
6 -56 -25 -25 -40 -40 -47 -88 -40 -35 6 -38 4 -55 -35 -18 -39 -39 -51 -52
-30 -3 6 -21 10 -40 10 -35 0 -45 -12 -45 -59 0 -33 -53 -88 -90 -93 -22 -3
-25 -8 -28 -52 -2 -27 2 -54 7 -59 27 -27 3 -114 -33 -119 -22 -3 -23 -8 -10
-80 6 -33 4 -38 -25 -53 -27 -14 -32 -21 -29 -48 2 -27 8 -33 31 -35 26 -3 27
-5 27 -62 0 -50 3 -62 24 -77 20 -15 22 -21 13 -41 -8 -17 -6 -31 6 -58 23
-48 21 -62 -13 -94 l-29 -27 34 -32 c19 -17 39 -31 44 -31 13 0 18 -47 10 -88
-10 -45 -2 -67 29 -83 40 -19 62 -40 62 -57 0 -25 33 -41 83 -42 l48 0 -15
-27 c-18 -37 -5 -73 27 -73 13 0 32 -6 42 -14 19 -13 18 -15 -15 -46 l-34 -32
25 -44 c14 -26 33 -47 47 -51 29 -7 28 -27 -3 -47 -21 -14 -25 -24 -25 -66 0
-36 -4 -50 -14 -50 -23 0 -26 -27 -6 -45 15 -14 29 -16 64 -11 41 6 45 5 48
-16 3 -20 8 -23 48 -21 25 1 56 8 69 15 21 11 26 10 47 -15 22 -26 74 -38 74
-18 0 18 27 18 66 0 50 -24 81 -24 93 0 14 26 69 47 84 32 17 -17 40 -13 68
12 34 33 49 36 86 20 46 -19 61 -17 92 15 16 15 45 36 65 46 20 11 36 25 36
32 0 7 7 20 16 28 11 11 14 25 9 45 -6 26 -3 30 29 41 19 6 41 22 50 35 19 28
42 24 50 -10 5 -19 47 -45 44 -26 -2 21 6 18 39 -13 l38 -35 26 25 c14 13 29
21 34 17 4 -5 5 -2 1 5 -4 6 -2 12 3 12 17 0 13 18 -10 50 -14 18 -19 35 -15
46 6 16 9 15 30 -7 13 -13 21 -28 18 -34 -3 -5 -2 -7 3 -3 4 4 17 3 28 -3 13
-8 17 -8 13 0 -4 5 2 15 13 20 28 15 50 -12 29 -37 -18 -20 -32 -55 -19 -48 4
3 16 -3 26 -14 10 -11 15 -20 12 -20 -4 0 14 -19 38 -41 37 -34 50 -41 75 -37
39 6 61 -17 35 -36 -19 -14 -13 -36 11 -36 8 0 14 -5 14 -10 0 -6 11 -15 25
-22 21 -9 27 -8 44 13 l19 24 29 -21 c18 -14 30 -34 34 -56 3 -19 15 -46 28
-59 12 -13 20 -33 19 -44 -2 -16 -9 -19 -36 -17 -62 4 -50 -60 13 -72 40 -8
58 -34 49 -71 -4 -18 -2 -25 9 -25 8 0 28 -7 43 -15 17 -9 40 -13 57 -9 25 5
27 3 27 -27 0 -33 22 -58 52 -59 9 0 20 -9 23 -21 4 -11 22 -27 41 -36 19 -9
34 -20 34 -25 0 -4 7 -5 15 -2 9 4 19 -3 26 -20 16 -33 25 -26 38 31 13 52 68
108 118 122 29 8 44 31 19 31 -24 0 -29 20 -10 41 23 26 44 21 64 -16 14 -24
23 -29 46 -27 52 4 59 4 82 -3 26 -9 30 10 7 35 -11 13 -13 24 -6 41 14 37 58
79 81 79 12 0 33 9 47 20 14 11 31 20 38 20 6 0 22 11 35 25 16 17 34 25 57
25 31 0 33 2 33 34 0 29 3 33 20 29 10 -3 25 -11 31 -19 6 -8 24 -14 39 -14
27 0 60 -26 60 -48 0 -7 -7 -12 -15 -12 -8 0 -15 -8 -15 -19 0 -10 -6 -24 -14
-31 -8 -6 -12 -18 -9 -26 6 -16 53 -19 53 -4 0 6 13 4 30 -5 16 -8 36 -15 44
-15 19 0 24 -34 13 -88 -11 -54 3 -73 50 -70 25 2 37 -4 49 -20 20 -30 62 -28
96 3 17 16 39 25 58 25 23 0 33 5 37 20 5 18 14 20 89 20 l84 0 -7 -42 c-6
-39 -5 -42 10 -29 10 7 17 19 17 26 0 18 34 45 56 45 11 0 28 6 38 13 18 13
18 15 1 40 -26 40 -13 60 51 79 42 12 64 14 85 6 31 -11 59 2 59 28 0 23 28
42 54 37 24 -5 26 -2 26 30 0 40 24 67 42 49 7 -7 19 -12 28 -12 10 0 27 -9
39 -19 13 -12 30 -17 39 -13 46 17 83 46 88 71 4 14 9 29 11 33 5 10 43 -14
43 -27 0 -14 49 -35 81 -35 14 0 38 9 52 20 32 26 69 26 85 0 17 -28 72 -28
79 0 4 14 14 20 34 20 29 0 38 13 19 25 -19 12 -10 22 36 40 44 17 46 17 68
-4 26 -24 58 -27 75 -7 6 7 25 16 41 20 35 7 40 35 10 53 -17 11 -19 21 -13
100 6 92 14 113 43 113 9 0 29 11 44 25 l28 26 -26 20 c-14 11 -26 25 -26 31
0 25 33 75 60 92 24 13 30 24 30 50 0 51 39 75 65 39 10 -14 31 -17 106 -18
52 -1 108 -5 124 -9 17 -4 40 -9 53 -12 14 -3 20 -9 16 -16 -4 -6 2 -18 12
-26 13 -10 15 -16 7 -19 -23 -8 -14 -33 11 -33 17 0 31 -10 45 -34 34 -55 45
-60 83 -40 18 9 43 29 56 45 16 19 33 29 51 29 17 0 38 11 56 30 32 33 84 41
104 16 10 -12 8 -19 -8 -35 l-20 -20 35 -20 c19 -12 39 -21 44 -21 6 0 15 -9
22 -20 7 -11 19 -20 26 -20 33 0 44 -148 17 -214 -15 -36 -13 -56 6 -56 11 0
61 -34 99 -67 42 -38 92 -22 102 32 5 30 37 30 69 -1 26 -25 32 -27 50 -16 16
10 24 10 42 -3 12 -8 29 -15 39 -15 21 0 36 -96 19 -128 -6 -11 -11 -34 -11
-50 0 -24 -6 -32 -32 -42 -75 -27 -78 -37 -19 -65 23 -12 48 -31 57 -43 8 -12
22 -22 30 -22 23 0 77 -31 92 -52 25 -34 93 -95 129 -114 33 -18 35 -18 47 -1
7 9 18 17 25 17 13 0 13 4 15 80 1 52 2 55 25 52 24 -4 24 -3 18 55 l-6 58 45
39 c24 22 44 47 44 57 0 10 14 33 30 51 17 18 30 35 30 39 0 7 33 45 103 118
l52 53 3 -36 c3 -31 11 -41 59 -76 l56 -39 19 24 c15 20 23 23 38 15 10 -6 30
-10 44 -10 23 0 26 4 26 33 0 57 79 117 96 72 4 -9 19 -15 35 -15 67 0 111
-72 54 -86 -14 -3 -25 -13 -25 -21 0 -13 9 -14 49 -9 29 4 52 2 55 -3 9 -14
48 -4 58 14 14 24 38 18 38 -9 0 -13 7 -27 16 -30 15 -6 16 1 10 52 -6 56 -5
59 15 58 17 -1 24 8 36 49 21 70 53 87 75 40 11 -25 41 -34 53 -15 4 6 13 5
25 -3 16 -9 24 -9 40 1 28 17 38 15 42 -10 5 -36 42 -31 46 6 2 16 -1 33 -7
39 -13 13 -15 81 -3 73 16 -10 35 13 41 50 5 30 12 39 30 44 30 7 37 23 17 39
-12 10 -10 20 15 71 36 72 36 86 3 94 -41 11 -28 45 30 75 41 21 46 26 32 36
-21 16 -21 19 15 54 17 18 41 31 55 31 28 0 32 21 8 44 -34 35 -40 118 -8 130
11 4 12 19 7 66 -5 51 -3 64 13 82 14 15 16 22 7 25 -23 8 -14 40 11 47 14 3
31 18 38 34 9 19 21 27 38 27 21 0 26 5 28 35 4 40 18 52 50 45 15 -4 24 0 29
11 4 11 12 14 27 9 27 -9 126 -14 126 -7 0 3 -7 14 -17 24 -17 19 -18 16 33
136 8 18 14 48 14 66 0 31 27 76 46 76 5 0 15 -9 22 -20 17 -28 31 -25 43 10
11 30 24 35 67 24 13 -4 21 -13 20 -23 -2 -11 4 -16 20 -15 12 0 22 -5 22 -11
0 -13 77 -28 93 -18 5 3 8 26 7 52 -4 67 -3 69 30 76 41 9 48 25 20 47 -20 16
-21 22 -12 44 11 24 13 24 41 9 17 -8 43 -15 59 -15 32 0 61 24 42 35 -20 13
-9 36 24 50 19 8 37 19 41 24 6 11 45 -22 45 -38 0 -5 15 -13 33 -16 17 -4 46
-16 63 -26 22 -13 50 -19 91 -19 49 0 65 -4 86 -24 14 -13 27 -32 29 -42 2
-12 15 -21 38 -25 19 -4 39 -14 46 -23 6 -9 16 -16 22 -16 6 0 16 -9 23 -21 9
-17 17 -20 41 -15 59 12 90 84 46 107 -28 15 -88 73 -110 107 -10 15 -18 39
-18 53 0 15 -7 29 -15 33 -19 7 -20 94 -2 146 11 33 15 35 55 35 35 0 48 5 67
27 12 14 36 28 51 30 27 3 29 5 26 46 -4 49 17 82 52 82 12 0 36 14 55 30 36
32 53 35 116 20 36 -8 53 -21 75 -59 5 -10 22 -14 52 -13 32 2 50 -3 68 -18
25 -22 37 -17 41 15 3 27 -10 55 -26 55 -7 0 -15 9 -18 20 -3 13 -14 20 -29
20 -13 0 -29 9 -36 21 -13 20 -8 59 8 59 5 0 10 10 12 22 2 13 13 27 26 33 29
13 28 33 -3 47 -14 6 -25 15 -25 20 0 4 18 25 40 47 22 21 40 47 40 58 0 26
-55 83 -80 83 -14 0 -24 9 -32 30 -12 37 -35 50 -83 50 -47 0 -95 46 -95 92 0
29 -1 30 -18 15 -26 -24 -66 -23 -57 0 3 10 9 30 12 46 3 15 10 30 14 33 5 3
9 14 9 24 0 13 -8 20 -27 22 -24 2 -29 8 -31 36 -3 35 -8 36 -54 17 -13 -5
-21 0 -29 19 -7 14 -17 26 -24 26 -14 0 -48 36 -64 67 -9 17 -8 31 2 60 8 21
20 54 26 73 7 19 16 67 20 106 5 43 18 90 34 123 15 29 27 58 27 65 0 29 109
106 152 106 37 1 102 35 131 70 15 17 39 55 52 83 31 64 51 78 145 101 83 20
97 29 151 96 37 46 48 53 129 86 97 39 108 78 31 114 -28 13 -52 28 -54 34 -7
19 19 86 45 115 13 14 30 39 36 55 16 35 6 48 -53 72 -59 25 -67 42 -54 104
10 46 9 53 -8 66 -33 25 -56 13 -88 -50 -17 -33 -37 -62 -45 -66 -91 -43 -85
-37 -102 -111 -31 -130 -67 -152 -167 -103 -42 19 -66 25 -109 23 -56 -3 -56
-3 -64 30 -7 24 -18 36 -46 48 -44 18 -53 30 -46 60 10 37 -26 47 -69 18 -26
-18 -50 -25 -84 -25 -26 0 -59 -3 -72 -7 -20 -5 -22 -10 -17 -43 8 -51 -10
-66 -66 -54 -22 5 -44 16 -48 24 -4 8 -13 27 -21 43 -26 56 -79 25 -79 -47 0
-57 -21 -71 -96 -63 -47 5 -56 3 -76 -19 -13 -13 -31 -24 -41 -24 -23 0 -76
57 -84 90 -11 48 -33 63 -84 56 -40 -6 -48 -3 -68 19 -23 28 -58 27 -74 -1 -4
-8 -19 -26 -32 -42 -21 -24 -26 -25 -44 -14 -31 18 -39 15 -76 -23 l-33 -36
24 -16 c13 -8 24 -25 24 -37 0 -23 -37 -66 -57 -66 -14 0 -63 47 -63 61 0 8
-16 10 -54 6 -88 -9 -96 -4 -96 58 0 57 -15 74 -49 55 -10 -5 -20 -8 -22 -6
-2 2 -21 6 -41 9 -30 4 -43 -1 -73 -26 -36 -29 -38 -30 -51 -12 -8 10 -14 25
-14 32 0 10 -13 13 -45 12 -52 -3 -62 4 -67 46 -2 19 -11 34 -27 41 -34 17
-41 32 -41 95 0 30 -4 59 -9 65 -5 5 -11 25 -13 44 -2 29 -7 35 -29 38 -21 2
-29 -3 -38 -27 -22 -52 -43 -64 -100 -56 -43 6 -51 4 -60 -13 -6 -11 -28 -24
-48 -29 -24 -5 -39 -15 -41 -27 -2 -10 -12 -26 -22 -36 -10 -10 -21 -32 -25
-49 -9 -40 -39 -61 -91 -61 -37 0 -44 4 -63 35 -19 33 -24 35 -70 35 l-50 0 6
-32 c3 -18 6 -37 7 -43 0 -5 -9 -9 -22 -7 -13 2 -25 -3 -28 -12 -11 -28 -89
-16 -99 15 -3 10 -14 21 -24 24 -10 3 -32 18 -50 34 -17 16 -70 48 -116 71
-47 24 -85 47 -85 51 0 5 -7 9 -15 9 -8 0 -15 5 -15 10 0 6 -6 10 -12 10 -7 0
-30 15 -52 33 -30 25 -48 32 -83 33 -25 1 -51 8 -62 18 -9 9 -27 16 -38 16
-11 0 -43 23 -71 50 -42 41 -57 50 -87 50 -19 0 -43 4 -53 9 -9 5 -36 18 -60
31 -41 21 -45 21 -89 6 -26 -9 -53 -16 -61 -16 -8 0 -39 -12 -68 -27 l-52 -26
-51 36 c-34 25 -62 37 -84 37 -24 0 -41 9 -70 40 -23 25 -46 40 -61 40 -34 0
-56 10 -56 24 0 41 -116 52 -155 16 -13 -13 -35 -28 -47 -34 -16 -8 -24 -23
-28 -51 l-5 -40 -55 -5 c-49 -4 -55 -7 -52 -26 2 -15 -7 -26 -33 -40 -41 -22
-66 -13 -75 27 -4 18 -14 25 -39 29 -20 3 -39 13 -45 25 -17 30 -28 36 -61 30
-25 -4 -33 0 -49 24 -11 15 -24 28 -30 28 -34 -1 -44 9 -70 65 l-28 62 26 21
c29 23 33 47 11 65 -20 17 -19 25 7 60 21 30 22 31 5 78 -9 26 -17 54 -17 63
0 9 -11 28 -25 43 -21 23 -32 27 -67 24 -38 -3 -43 0 -57 27 -29 55 -67 66
-73 22 -3 -20 -8 -22 -60 -19 -56 4 -56 3 -63 -27 -6 -27 -11 -31 -38 -31 -23
0 -41 -11 -73 -45 -35 -36 -50 -45 -81 -46 -21 -2 -53 -9 -70 -18 -26 -12 -40
-12 -69 -3 -43 13 -74 1 -74 -28 0 -58 -103 -80 -188 -39 -33 17 -55 20 -91
16 -51 -6 -75 6 -105 54 -19 31 -24 86 -9 114 6 11 13 36 17 55 l6 35 -86 1
c-47 1 -89 5 -92 11 -13 18 -58 23 -78 8 -19 -15 -115 -21 -127 -8 -4 4 6 12
23 19 38 16 38 31 0 39 -42 9 -77 41 -85 75 -5 25 -12 30 -36 30 -30 0 -35 11
-30 68 1 18 -3 22 -24 22 -15 0 -36 5 -48 12 -12 6 -31 12 -41 13 -10 1 -24 9
-30 17 -6 9 -36 24 -66 34 -30 11 -64 27 -74 37 -24 21 -27 21 -72 2 -23 -10
-42 -12 -53 -6 -9 5 -40 8 -68 8 -38 -2 -56 3 -65 14 -7 9 -25 19 -40 23 -53
12 -104 127 -63 142 8 4 15 10 15 16 0 5 6 16 14 24 18 17 31 129 21 190 -5
34 -3 50 8 62 23 26 33 72 15 72 -32 0 -78 96 -78 161 0 14 -9 36 -20 49 -11
13 -20 33 -20 46 0 28 -12 32 -81 26 -65 -5 -129 12 -129 35 0 13 -9 15 -52
10 -28 -4 -56 -2 -62 3 -7 5 -40 5 -81 0 -75 -9 -92 -4 -135 42 -20 21 -22 22
-31 6 -6 -10 -21 -18 -34 -18 -20 0 -25 5 -25 25 0 16 -6 25 -15 25 -8 0 -15
-4 -15 -9 0 -18 -41 -18 -77 0 -47 23 -66 64 -52 112 5 17 9 33 9 34 0 1 -22
-1 -48 -4 -37 -4 -52 -1 -64 11 -9 9 -19 16 -23 16 -8 0 -69 43 -73 53 -2 4
-10 7 -18 7 -8 0 -14 4 -14 10 0 5 -11 12 -24 16 -29 7 -41 30 -20 38 23 9 16
26 -11 26 -13 0 -28 8 -34 18 -8 15 -11 14 -20 -11z m602 -3607 c6 -16 18 -30
27 -30 45 0 54 -67 15 -105 -13 -14 -33 -25 -45 -25 -25 0 -60 34 -60 58 0 9
-10 22 -22 27 -54 24 -20 105 43 105 25 0 33 -6 42 -30z m4928 -1448 c9 -18
28 -41 43 -53 32 -25 33 -55 4 -86 -37 -40 -108 -20 -108 30 0 11 -11 30 -25
43 -32 30 -32 57 2 84 36 28 64 22 84 -18z m-156 -58 c31 -12 85 -95 85 -131
0 -28 -5 -36 -35 -50 -28 -13 -37 -14 -49 -3 -19 15 -12 32 9 23 20 -7 45 14
45 38 0 23 -13 24 -30 4 -20 -24 -66 -18 -89 11 -28 36 -26 68 5 93 29 23 34
24 59 15z m-327 -384 c12 -16 22 -39 22 -51 0 -31 -28 -59 -59 -59 -31 0 -81
46 -81 75 0 66 78 89 118 35z m-131 -82 c63 -62 77 -88 48 -88 -8 0 -15 -7
-15 -15 0 -17 -30 -35 -57 -35 -28 0 -73 51 -73 83 0 16 8 32 20 39 24 15 25
31 5 48 -14 11 -12 30 3 30 3 0 35 -28 69 -62z m-3735 -344 c-4 -16 -5 -51 -2
-78 l5 -49 70 -28 c39 -15 79 -31 90 -34 19 -6 19 -7 -3 -17 -18 -9 -38 -7
-92 9 -66 19 -69 19 -73 1 -3 -10 1 -25 10 -33 8 -8 11 -21 7 -27 -4 -7 -4
-10 1 -6 10 10 35 -10 35 -27 0 -20 -32 -28 -42 -11 -5 8 -15 22 -24 31 -8 8
-12 15 -7 15 4 0 3 4 -2 8 -6 4 -21 21 -34 37 -25 32 -74 88 -129 147 -30 31
-33 40 -22 53 7 8 17 15 23 15 6 0 8 -3 5 -6 -3 -3 8 -20 26 -37 17 -18 47
-51 67 -75 25 -29 41 -40 53 -36 18 7 22 24 6 24 -5 0 -10 25 -10 56 0 45 5
61 22 79 27 29 30 27 20 -11z m-162 -181 c-1 -18 -17 -32 -35 -31 -11 1 -32
-6 -47 -16 -21 -14 -28 -26 -28 -51 0 -18 7 -38 15 -45 9 -7 14 -19 11 -26 -3
-7 0 -16 6 -20 7 -5 8 -2 3 6 -5 9 -4 11 3 6 7 -4 12 -14 12 -22 0 -8 3 -13 8
-12 4 0 15 -2 26 -7 11 -5 26 -3 38 4 10 6 24 9 30 5 6 -4 8 -3 4 4 -7 12 13
63 29 74 20 15 35 8 35 -17 0 -14 -4 -25 -9 -25 -5 0 -13 -9 -16 -20 -7 -23
-82 -70 -113 -70 -28 0 -85 49 -78 67 3 8 2 12 -3 8 -5 -3 -19 7 -30 21 -23
30 -28 49 -8 38 9 -6 9 -4 -1 8 -17 21 -3 55 39 96 25 25 41 32 71 32 21 0 38
-3 38 -7z m-544 -328 c16 -25 64 -60 50 -37 -10 17 14 25 32 10 15 -12 16 -11
4 4 -16 20 1 34 17 14 9 -11 5 -19 -20 -39 l-31 -24 36 -50 c20 -27 33 -52 30
-55 -3 -3 18 -6 46 -5 68 0 81 -14 38 -41 -22 -14 -43 -19 -59 -15 -31 8 -62
40 -53 55 4 6 3 8 -4 4 -13 -8 -55 48 -44 59 4 5 2 5 -5 2 -6 -4 -13 -1 -16 5
-3 10 -7 10 -20 0 -13 -11 -17 -10 -26 6 -6 11 -7 23 -3 27 11 11 8 49 -5 63
-13 13 -7 42 8 42 5 0 16 -11 25 -25z m-66 -147 c-1 -17 -12 -28 -43 -43 -36
-17 -42 -25 -42 -50 0 -39 28 -44 84 -16 50 26 62 26 95 0 19 -15 26 -30 26
-55 0 -24 -4 -33 -12 -28 -7 4 -8 3 -4 -5 9 -14 -12 -43 -25 -35 -5 3 -8 0 -7
-7 3 -14 -60 -61 -75 -56 -6 2 -11 11 -13 20 -3 20 31 41 48 31 6 -4 8 -3 5 3
-4 6 5 18 19 28 18 12 24 23 22 43 -4 36 -36 40 -100 12 -50 -22 -51 -22 -77
-2 -18 13 -27 30 -29 56 -2 25 0 36 7 31 6 -3 9 0 5 8 -7 18 54 70 73 63 8 -3
11 -2 8 3 -3 5 3 12 12 14 10 3 19 5 21 6 1 0 2 -9 2 -21z m-318 -256 c-1 -8
1 -11 6 -8 11 7 24 -4 50 -40 22 -32 16 -54 -15 -54 -7 0 -13 -5 -13 -10 0 -6
-8 -14 -17 -17 -23 -9 -43 -29 -43 -42 0 -5 11 -18 25 -29 33 -26 70 -18 85
19 16 37 48 39 48 4 0 -14 -5 -25 -10 -25 -5 0 -7 -4 -3 -9 7 -13 -43 -51 -67
-51 -21 0 -98 39 -98 49 0 3 -18 25 -39 49 -45 49 -60 94 -39 119 11 14 11 16
-2 8 -8 -4 -4 4 9 18 13 15 28 24 32 21 5 -3 9 0 9 6 0 7 16 10 43 8 28 -2 41
-7 39 -16z"/>
<path d="M3332 1440 l-33 -30 19 -28 c11 -15 32 -38 46 -51 14 -13 23 -28 19
-34 -3 -6 -1 -7 5 -3 6 3 14 2 17 -4 8 -13 85 -10 103 3 15 12 38 52 25 44
-14 -9 -46 20 -37 34 5 8 3 10 -5 4 -13 -7 -46 24 -81 74 -20 29 -40 27 -78
-9z"/>
</g>
</svg>
