<?xml version="1.0" standalone="no"?>
<!DOCTYPE svg PUBLIC "-//W3C//DTD SVG 20010904//EN"
 "http://www.w3.org/TR/2001/REC-SVG-20010904/DTD/svg10.dtd">
<svg version="1.0" xmlns="http://www.w3.org/2000/svg"
 width="611.000000pt" height="657.000000pt" viewBox="0 0 611.000000 657.000000"
 preserveAspectRatio="xMidYMid meet">
<metadata>
Created by potrace 1.16, written by Peter Selinger 2001-2019
</metadata>
<g transform="translate(0.000000,657.000000) scale(0.100000,-0.100000)"
fill="#000000" stroke="none">
<path d="M2390 5534 c-58 -9 -130 -28 -130 -34 0 -4 -13 -13 -30 -20 -16 -7
-30 -16 -30 -21 0 -5 -9 -9 -20 -9 -25 0 -70 -45 -70 -71 0 -20 -5 -23 -51
-33 -21 -5 -28 -14 -33 -41 -7 -38 -18 -46 -92 -71 -90 -29 -95 -36 -94 -112
2 -91 2 -92 -13 -92 -7 0 -17 -14 -22 -32 -12 -38 -80 -82 -144 -93 -44 -7
-61 -26 -42 -48 18 -22 17 -108 -1 -121 -9 -7 -21 -30 -27 -52 -11 -43 -18
-47 -131 -89 -114 -43 -156 -60 -164 -67 -6 -4 -16 -8 -24 -8 -7 0 -40 -13
-73 -30 -58 -28 -109 -33 -109 -9 0 5 -5 9 -11 9 -6 0 -18 7 -26 16 -11 10
-26 14 -44 10 -39 -8 -99 -48 -99 -66 0 -11 -18 -20 -58 -28 -32 -7 -89 -28
-128 -47 -38 -19 -74 -35 -80 -35 -6 0 -36 -13 -67 -30 -31 -16 -63 -30 -71
-30 -24 0 -64 -61 -76 -114 -12 -53 -7 -81 15 -90 8 -3 15 -17 15 -30 0 -14 8
-41 17 -61 15 -31 15 -40 4 -73 -7 -20 -22 -46 -32 -57 -18 -20 -18 -23 -2
-73 l17 -53 -32 -25 c-41 -33 -41 -64 0 -109 35 -39 61 -43 116 -19 107 46 99
44 120 26 20 -18 61 -92 102 -187 35 -83 54 -117 68 -122 6 -3 12 -10 12 -17
0 -6 44 -40 97 -76 53 -36 102 -71 109 -77 7 -7 15 -13 18 -13 9 0 46 -39 46
-48 0 -12 64 -72 78 -72 17 0 32 -67 32 -148 0 -64 -3 -76 -25 -98 -32 -31
-31 -54 0 -100 l26 -38 -36 -20 c-42 -24 -53 -57 -31 -91 9 -13 16 -31 16 -38
0 -22 39 -67 58 -67 9 0 68 -12 130 -26 l113 -27 -5 -81 c-7 -98 -7 -113 0
-246 7 -133 17 -147 87 -117 42 18 101 37 114 37 14 0 43 -72 43 -106 0 -13 7
-40 14 -59 12 -29 20 -35 44 -35 32 0 56 -22 66 -60 12 -47 33 -65 76 -64 22
1 50 8 62 16 38 24 71 28 169 19 141 -13 179 -38 139 -88 -37 -48 -23 -76 44
-88 47 -9 123 -80 155 -145 26 -52 36 -69 75 -130 59 -92 88 -108 126 -70 11
11 20 22 20 25 0 3 18 24 40 46 32 33 44 39 67 34 46 -10 115 -35 171 -63 46
-23 52 -29 52 -57 0 -32 15 -45 65 -59 32 -9 47 -61 52 -186 3 -63 9 -122 14
-131 4 -9 22 -19 39 -23 17 -3 38 -12 46 -20 14 -15 61 -8 87 12 7 5 63 12
124 16 l113 7 50 -50 c61 -61 104 -69 139 -25 33 42 27 124 -10 124 -22 0 -89
56 -89 75 0 7 -20 20 -45 29 -43 17 -59 40 -33 48 7 3 15 29 18 59 4 48 8 54
30 59 14 3 42 17 61 33 44 33 121 43 157 21 22 -14 22 -14 15 13 -16 63 -14
66 60 99 20 9 37 23 37 30 0 8 9 14 19 14 21 0 31 18 31 58 0 53 14 73 88 133
70 57 77 60 114 54 40 -7 38 -8 110 58 19 18 19 19 -19 55 -21 21 -47 56 -58
80 -22 47 -34 51 -59 23 -19 -21 -46 -18 -46 5 0 8 3 14 8 14 4 0 20 12 35 26
23 21 27 31 22 55 -5 23 0 37 23 67 16 20 32 55 35 77 4 22 11 41 17 43 5 2
10 10 10 18 0 8 4 14 8 14 16 0 72 89 72 114 0 28 31 66 55 66 8 0 15 5 15 11
0 17 38 95 52 106 7 5 34 16 60 23 26 7 57 23 70 37 13 14 39 33 59 44 21 10
39 28 43 42 3 13 25 37 49 55 41 29 45 36 49 83 3 29 12 57 20 63 23 17 27 39
10 58 -13 16 -12 21 12 52 46 61 26 73 -54 31 -81 -43 -114 -56 -127 -51 -20
8 -16 24 12 48 14 12 25 30 25 39 0 10 12 25 28 33 23 12 25 15 10 21 -32 13
-19 34 42 72 70 44 75 62 29 112 -24 26 -32 46 -36 88 -5 48 -4 53 14 53 32 0
45 21 26 42 -12 14 -31 18 -84 18 -37 0 -69 3 -71 8 -1 4 -23 24 -47 45 -35
29 -53 37 -83 37 -22 0 -48 5 -59 10 -20 11 -59 68 -92 133 -15 30 -25 37 -48
37 -42 0 -36 17 16 41 l45 21 0 53 c0 30 -4 65 -10 79 -5 15 -14 52 -19 84 -5
31 -12 68 -16 82 -5 21 -1 28 24 43 16 9 38 17 48 17 32 0 83 58 83 94 -1 39
-29 96 -55 110 -11 6 -22 14 -25 17 -3 3 -50 46 -105 94 -55 49 -101 92 -103
97 -2 4 -10 8 -18 8 -8 0 -14 4 -14 10 0 5 -16 12 -35 16 -41 7 -69 -11 -79
-52 -6 -24 -8 -25 -79 -18 -98 9 -101 5 -107 -150 l-5 -121 -43 2 c-49 2 -92
26 -99 54 -3 10 -9 19 -13 19 -7 0 -31 35 -85 122 -27 45 -105 156 -124 177
-43 50 -37 55 184 156 44 21 103 48 130 61 31 15 68 24 97 24 31 0 48 5 52 15
7 20 -2 42 -20 49 -9 3 -14 20 -14 43 -1 49 -20 73 -56 73 -42 0 -74 26 -74
59 0 15 -5 32 -12 39 -24 24 -198 10 -218 -18 -11 -15 -67 -38 -110 -45 -84
-14 -129 -48 -130 -97 0 -20 -5 -28 -18 -28 -30 0 -72 -42 -72 -73 0 -23 -4
-27 -29 -27 -35 0 -91 -18 -112 -36 -21 -19 -75 -18 -83 1 -4 12 -27 15 -116
15 l-110 0 0 41 c0 31 8 51 36 87 38 50 77 72 131 72 30 0 36 5 49 36 8 20 14
48 12 63 -3 24 -7 26 -54 29 -57 3 -57 3 -96 117 -12 33 -31 76 -43 95 -12 19
-28 52 -34 73 -16 46 -59 71 -157 88 -38 6 -76 15 -85 20 -16 8 -89 123 -89
140 0 9 -58 10 -110 3z"/>
</g>
</svg>
