<?xml version="1.0" standalone="no"?>
<!DOCTYPE svg PUBLIC "-//W3C//DTD SVG 20010904//EN"
 "http://www.w3.org/TR/2001/REC-SVG-20010904/DTD/svg10.dtd">
<svg version="1.0" xmlns="http://www.w3.org/2000/svg"
 width="1037.000000pt" height="1369.000000pt" viewBox="0 0 1037.000000 1369.000000"
 preserveAspectRatio="xMidYMid meet">
<metadata>
Created by potrace 1.16, written by Peter Selinger 2001-2019
</metadata>
<g transform="translate(0.000000,1369.000000) scale(0.100000,-0.100000)"
fill="#000000" stroke="none">
<path d="M7390 12945 c-7 -8 -8 -15 -3 -15 12 0 33 -59 26 -76 -3 -8 -17 -14
-31 -14 -18 0 -37 -13 -62 -41 -21 -24 -55 -49 -81 -59 -24 -9 -43 -21 -43
-26 1 -5 4 -21 8 -37 7 -28 -3 -42 -68 -92 -18 -14 -26 -30 -26 -52 0 -40 -30
-70 -80 -78 -29 -5 -40 -13 -51 -38 -14 -32 -15 -32 -84 -32 -45 0 -87 -7
-118 -19 l-48 -19 -52 27 c-65 32 -77 32 -112 0 -24 -22 -33 -24 -69 -18 -22
3 -53 13 -68 20 -15 8 -33 14 -40 14 -14 0 -43 26 -79 70 -22 27 -29 27 -178
19 -61 -4 -65 -5 -74 -34 -6 -16 -15 -35 -21 -42 -6 -7 -17 -20 -25 -28 -10
-12 -23 -15 -52 -10 -35 6 -40 4 -48 -18 -6 -16 -23 -29 -48 -37 -56 -19 -76
-44 -81 -107 l-5 -54 -41 1 c-85 4 -94 1 -105 -27 -5 -16 -17 -36 -25 -46 -13
-17 -16 -17 -46 -2 -23 12 -61 17 -130 18 -67 2 -102 6 -114 16 -22 19 -101
18 -123 0 -28 -23 -64 -37 -111 -42 -24 -3 -51 -12 -60 -20 -43 -37 -112 -38
-112 -2 0 8 -4 15 -9 15 -5 0 -12 13 -16 28 -6 31 -50 62 -85 62 -12 0 -41
-13 -64 -28 -22 -16 -59 -41 -81 -56 -42 -29 -59 -30 -165 -7 -25 6 -66 8 -92
4 -41 -5 -54 -2 -96 26 -55 35 -80 38 -142 16 -23 -8 -53 -15 -66 -15 -13 0
-43 -14 -68 -31 -27 -20 -61 -33 -89 -36 -42 -5 -49 -3 -79 29 -27 29 -42 36
-85 40 -47 4 -56 10 -107 62 -51 51 -58 55 -72 41 -19 -19 -35 -19 -79 -1 -34
15 -69 12 -93 -7 -11 -9 -11 -13 4 -24 10 -7 25 -13 34 -13 35 0 110 -100 110
-146 0 -50 28 -89 74 -105 40 -14 41 -15 40 -60 0 -49 -10 -64 -58 -89 -17 -9
-36 -32 -48 -61 -12 -26 -31 -53 -44 -60 -13 -7 -26 -21 -30 -31 -7 -22 4 -78
15 -78 5 0 11 -18 14 -41 9 -69 67 -105 102 -63 17 20 202 154 213 154 6 0 13
-9 17 -19 8 -27 83 -61 132 -61 24 0 62 -11 92 -26 50 -24 86 -27 134 -9 23
10 28 32 10 50 -24 24 -38 15 -59 -40 -7 -18 -8 -17 -12 8 -4 34 22 67 53 67
25 0 55 -29 55 -52 0 -8 16 -26 35 -39 25 -17 35 -32 35 -50 0 -27 22 -60 76
-115 51 -51 76 -64 117 -64 27 0 53 -9 83 -30 24 -16 67 -37 96 -47 29 -10 66
-30 81 -45 16 -16 34 -28 42 -28 34 0 27 -68 -12 -110 -12 -13 -23 -28 -23
-32 0 -3 -6 -13 -14 -21 -27 -26 -56 -106 -56 -152 0 -63 -15 -75 -89 -75
l-60 0 -70 -72 -70 -72 -23 26 c-16 18 -38 28 -70 32 -40 6 -49 4 -67 -15 -12
-13 -21 -27 -21 -32 0 -16 29 -37 59 -43 40 -8 39 -25 -2 -45 -39 -19 -45 -42
-18 -66 22 -19 28 -43 10 -43 -6 0 -29 -13 -52 -28 -23 -16 -57 -34 -74 -41
-18 -7 -45 -24 -60 -37 -15 -13 -40 -26 -56 -30 -44 -9 -103 -74 -67 -74 6 0
10 -7 10 -15 0 -8 3 -15 8 -15 4 0 19 -11 34 -25 26 -24 28 -52 8 -80 -4 -5
-11 -24 -14 -40 -4 -18 -22 -43 -43 -60 -74 -60 -83 -72 -83 -114 0 -47 -10
-56 -66 -52 -44 3 -84 -15 -84 -36 0 -7 -4 -13 -10 -13 -5 0 -10 -4 -10 -9 0
-13 -58 -101 -81 -123 -13 -13 -32 -17 -83 -15 -68 2 -67 3 -107 -55 -3 -5
-29 -12 -58 -17 -29 -5 -57 -15 -62 -22 -30 -49 -43 -59 -78 -59 -34 0 -71
-25 -71 -49 0 -11 -40 -61 -49 -61 -10 0 -41 73 -41 97 0 10 -10 28 -22 39
-13 11 -30 31 -39 44 l-17 25 -36 -19 c-20 -11 -36 -24 -36 -29 0 -6 -7 -19
-16 -28 -16 -18 -18 -18 -46 6 -31 26 -54 24 -63 -6 -4 -10 -11 -19 -16 -19
-5 0 -9 -6 -9 -14 0 -29 -27 -38 -59 -21 -17 8 -31 20 -31 25 0 15 -31 40 -51
40 -11 0 -19 -7 -19 -17 0 -10 -7 -36 -14 -58 -10 -29 -20 -41 -38 -43 -33 -5
-88 -50 -88 -72 0 -10 15 -27 35 -39 43 -25 44 -41 5 -81 -17 -18 -30 -41 -30
-56 0 -41 -18 -64 -50 -64 -16 0 -41 -10 -56 -23 -21 -19 -25 -27 -17 -43 27
-51 25 -74 -9 -104 -29 -26 -31 -33 -20 -50 16 -26 15 -45 -1 -59 -8 -6 -19
-29 -26 -51 -6 -22 -17 -40 -24 -40 -7 0 -32 18 -56 40 -46 43 -52 45 -97 31
-16 -5 -46 -12 -67 -16 -21 -3 -41 -13 -44 -21 -8 -21 5 -64 20 -64 6 0 19 -5
27 -10 12 -9 7 -17 -30 -49 l-45 -40 2 -70 c2 -59 6 -75 26 -97 18 -19 27 -43
31 -86 4 -33 12 -68 18 -78 9 -14 7 -22 -13 -41 -13 -13 -29 -33 -35 -43 -6
-11 -19 -24 -30 -30 -10 -6 -22 -16 -27 -23 -4 -7 -34 -15 -66 -19 -32 -3 -63
-9 -68 -13 -36 -23 -48 -245 -19 -343 14 -46 16 -84 12 -195 -3 -76 -5 -147
-5 -158 -1 -22 -61 -95 -78 -95 -6 0 -13 -7 -17 -15 -4 -12 4 -15 39 -15 25 0
45 -3 45 -8 0 -4 -24 -18 -52 -31 -55 -25 -72 -40 -88 -78 -5 -12 -31 -34 -58
-47 -28 -14 -59 -38 -70 -53 -19 -26 -21 -26 -60 -15 -33 10 -45 10 -62 0 -11
-7 -20 -18 -20 -24 0 -18 -28 -25 -66 -18 -30 5 -36 3 -51 -25 -10 -17 -21
-31 -25 -31 -5 0 -8 -6 -8 -13 0 -8 -13 -32 -29 -54 -38 -53 -56 -104 -47
-138 8 -30 71 -95 92 -95 7 0 14 -4 16 -8 6 -14 88 -52 113 -52 29 0 107 -29
117 -44 4 -6 8 -23 8 -37 0 -15 9 -47 20 -72 18 -39 19 -52 9 -96 -6 -28 -15
-51 -20 -51 -5 0 -9 -11 -9 -25 0 -42 49 -107 107 -140 39 -23 49 -44 25 -51
-56 -18 -74 -29 -89 -55 -10 -17 -34 -34 -62 -45 -90 -34 -97 -69 -17 -79 61
-8 109 0 126 20 16 20 93 30 119 16 22 -12 28 -45 11 -56 -6 -4 -7 -13 -1 -23
5 -9 11 -38 15 -63 6 -40 4 -49 -19 -73 -20 -21 -25 -35 -20 -53 19 -76 18
-84 -3 -90 -11 -3 -23 -12 -27 -20 -6 -17 19 -63 35 -63 6 0 10 -6 10 -14 0
-8 8 -28 17 -44 17 -29 17 -31 0 -50 -11 -12 -37 -22 -66 -25 -26 -3 -69 -17
-94 -31 -29 -17 -62 -26 -89 -26 -44 0 -128 -32 -128 -48 0 -18 -36 -19 -83
-4 -60 19 -79 7 -51 -32 11 -14 28 -28 39 -32 11 -4 28 -15 37 -24 19 -20 15
-25 -34 -50 -16 -7 -28 -22 -28 -32 0 -15 8 -18 48 -18 27 0 63 7 81 16 18 9
50 18 72 21 37 5 43 3 70 -31 20 -24 39 -36 55 -36 33 0 60 -26 45 -43 -23
-28 -24 -92 -2 -133 36 -66 24 -117 -36 -158 -41 -28 -82 -33 -101 -14 -19 19
-160 15 -179 -4 -13 -13 -13 -17 1 -29 45 -41 51 -43 118 -42 68 1 68 1 68
-26 0 -16 -9 -36 -20 -46 -11 -10 -20 -22 -20 -27 0 -5 -7 -16 -15 -24 -11
-11 -19 -12 -34 -4 -31 16 -57 12 -90 -16 -21 -18 -31 -35 -31 -54 0 -36 33
-50 60 -25 14 13 32 16 77 12 32 -2 68 -8 80 -12 22 -7 23 -5 23 45 0 68 18
88 53 59 14 -11 36 -40 48 -65 14 -27 32 -47 46 -50 12 -3 25 -16 29 -27 3
-12 16 -33 28 -45 20 -22 27 -24 116 -20 l95 3 -2 -34 c-1 -19 -7 -46 -13 -60
-42 -91 -44 -97 -41 -133 1 -23 32 -23 94 -2 52 18 112 15 166 -7 27 -11 35
-11 38 -1 3 6 10 9 15 6 6 -4 8 -2 4 4 -8 13 40 52 64 52 27 0 32 -38 6 -47
-11 -4 -27 -6 -35 -4 -7 1 -10 -2 -7 -8 4 -5 -1 -14 -9 -19 -14 -7 -13 -11 5
-35 21 -26 22 -26 57 -12 55 23 89 19 124 -15 28 -27 31 -34 25 -70 -6 -37 -5
-40 18 -40 43 0 56 -10 56 -44 0 -25 -8 -36 -36 -54 -34 -22 -43 -23 -124 -17
-104 8 -127 3 -125 -27 2 -27 49 -58 88 -58 18 0 38 -11 58 -31 33 -34 35 -62
4 -68 -11 -2 -33 -14 -51 -27 -17 -13 -46 -29 -65 -36 -19 -6 -59 -27 -89 -47
-78 -51 -90 -54 -111 -35 -11 10 -19 22 -19 28 0 6 -14 24 -31 39 -30 26 -34
27 -109 21 l-77 -7 -16 47 c-12 34 -13 46 -4 47 13 1 -30 16 -50 18 -6 1 -15
-8 -18 -19 -4 -11 -20 -27 -36 -35 l-29 -16 22 -32 c31 -43 38 -48 73 -45 63
4 74 -26 16 -43 -35 -10 -42 -9 -71 11 -19 13 -29 28 -26 37 3 8 2 12 -3 8 -5
-3 -19 7 -30 22 -17 21 -19 28 -9 36 9 6 8 7 -4 3 -10 -3 -21 1 -26 10 -7 13
-12 12 -43 -2 -18 -10 -36 -18 -38 -20 -5 -4 60 -99 98 -144 29 -34 29 -35 13
-63 -25 -42 -78 -78 -122 -84 -41 -6 -46 -2 -113 75 -29 34 -61 42 -70 17 -5
-12 51 -93 100 -143 17 -17 16 -27 -2 -42 -14 -12 -19 -7 -16 13 1 5 -3 6 -8
2 -6 -3 -25 15 -43 39 -34 47 -43 52 -67 37 -12 -8 -13 -14 -3 -36 20 -45 16
-58 -18 -53 -37 6 -49 -8 -24 -26 11 -8 14 -18 9 -27 -5 -8 -5 -11 0 -7 11 10
37 -11 29 -23 -3 -5 0 -8 7 -7 19 5 22 -19 3 -26 -13 -5 -28 5 -55 33 -20 22
-34 43 -31 46 3 3 0 5 -6 5 -17 0 -15 -19 4 -38 12 -11 15 -27 11 -56 -3 -22
-10 -42 -15 -44 -6 -2 -8 -11 -5 -22 3 -11 -7 -30 -27 -52 -62 -64 -67 -119
-16 -149 19 -11 49 -44 65 -72 17 -29 36 -59 42 -68 10 -13 6 -29 -17 -78 -29
-62 -29 -62 -67 -58 -52 7 -70 0 -89 -34 -14 -24 -16 -38 -8 -81 6 -28 12 -54
15 -57 3 -3 19 3 34 12 39 23 53 21 85 -8 23 -22 26 -31 26 -94 0 -38 5 -73
10 -76 6 -4 26 -1 46 5 33 11 38 10 64 -15 25 -24 30 -25 49 -13 11 7 21 17
21 21 0 5 6 14 13 22 6 7 24 33 39 58 36 62 83 83 136 62 22 -9 47 -31 62 -53
14 -20 28 -39 32 -42 4 -3 11 -18 17 -33 11 -27 12 -28 85 -25 84 3 98 -5 131
-78 24 -52 48 -74 80 -74 39 0 65 -18 65 -44 0 -22 27 -86 36 -86 3 0 22 9 44
20 72 37 93 18 40 -34 -17 -16 -30 -39 -30 -50 0 -13 29 -52 75 -98 55 -56 75
-84 75 -103 0 -26 -3 -29 -53 -39 -38 -9 -67 -59 -67 -118 0 -45 2 -48 26 -48
14 0 45 -5 69 -11 69 -17 85 -3 82 72 -2 55 0 63 26 85 39 34 115 34 151 0 41
-37 31 -67 -26 -81 -18 -5 -30 -17 -37 -38 -16 -44 0 -53 38 -22 25 22 34 25
46 15 8 -7 12 -17 9 -22 -9 -14 54 0 88 20 33 19 53 68 37 88 -17 20 4 70 46
110 26 26 43 34 71 34 29 0 35 -3 30 -16 -3 -9 -6 -18 -6 -20 0 -2 -10 -4 -23
-4 -26 0 -77 -44 -77 -66 0 -9 -5 -12 -12 -8 -7 4 -5 -2 5 -13 18 -21 18 -21
0 -26 -10 -3 11 -5 47 -6 66 -1 93 -13 84 -36 -3 -7 -1 -16 4 -19 12 -7 49 33
54 58 1 11 9 21 17 24 10 3 12 0 8 -12 -4 -10 -3 -15 3 -11 6 3 10 2 10 -4 0
-5 -5 -13 -10 -16 -6 -4 -8 -10 -6 -14 16 -26 -83 -91 -139 -91 -41 0 -52 -21
-50 -102 1 -41 8 -85 16 -98 7 -14 13 -49 14 -79 0 -51 2 -55 33 -70 29 -15
32 -20 30 -56 -3 -36 -6 -40 -32 -43 -83 -10 -65 -75 28 -105 32 -11 56 -24
56 -32 0 -18 39 -45 66 -45 12 0 47 24 80 56 32 30 64 60 71 65 15 13 63 0 63
-17 0 -18 76 -19 83 -1 3 7 23 19 45 26 35 12 43 11 68 -4 16 -9 40 -32 54
-51 31 -42 52 -49 84 -29 20 13 46 16 125 14 55 -2 104 0 108 4 4 4 6 27 4 50
-2 43 -1 44 37 55 22 7 46 12 54 12 17 0 28 29 28 76 0 38 25 91 57 121 18 17
23 33 23 71 0 31 6 58 18 73 34 48 42 70 42 122 0 30 -7 68 -16 86 -20 40 -12
101 18 144 19 27 25 29 71 24 39 -3 54 0 68 14 11 11 19 25 19 33 0 17 22 26
65 26 45 0 102 55 107 102 3 30 6 33 42 36 21 2 51 -2 66 -8 42 -17 67 3 75
59 3 26 1 60 -4 77 -12 43 -3 53 57 63 62 10 117 45 138 88 22 44 123 105 195
117 69 12 112 69 77 104 -7 7 -30 12 -53 12 -23 0 -50 6 -60 14 -18 13 -18 15
-2 30 9 10 17 24 17 32 0 8 4 14 9 14 5 0 12 11 15 25 10 39 37 65 68 65 16 0
41 12 62 31 l36 31 72 -15 73 -15 27 30 c15 16 28 33 30 38 2 5 41 22 88 38
l85 29 -3 34 c-2 19 -8 36 -13 37 -5 2 -9 16 -9 32 0 16 -7 36 -16 45 -16 15
-15 18 9 42 25 26 26 26 60 10 83 -40 148 0 98 61 -11 12 -26 22 -34 22 -29 0
-40 28 -33 88 8 75 0 116 -27 127 -14 6 -22 20 -23 35 -2 48 -4 50 -37 50 -25
0 -41 8 -60 30 -24 27 -27 38 -27 104 0 81 -6 106 -25 106 -14 0 -45 32 -45
46 0 5 39 9 88 9 72 0 92 3 106 18 14 14 16 20 6 32 -7 8 -19 15 -26 15 -8 0
-14 7 -14 15 0 25 -30 34 -67 19 -30 -13 -35 -12 -53 6 -11 11 -24 20 -30 20
-6 0 -10 7 -10 15 0 8 7 15 15 15 8 0 28 12 44 28 45 41 50 116 9 121 -5 1
-23 1 -42 1 -26 0 -44 9 -72 35 -31 29 -38 44 -42 85 -2 28 -6 50 -7 50 -5 0
-54 -42 -86 -73 -32 -31 -44 -33 -64 -13 -12 12 -11 19 10 50 25 36 35 106 16
106 -26 0 -31 103 -6 130 17 18 20 50 6 50 -5 0 -12 14 -16 30 -4 17 -11 30
-16 30 -5 0 -9 23 -9 50 0 28 5 50 10 50 19 0 11 76 -10 95 -16 14 -24 15 -51
6 -51 -17 -66 -14 -107 28 -35 35 -44 39 -87 39 -31 -1 -52 4 -59 14 -6 8 -18
18 -26 22 -90 43 -111 80 -99 173 8 55 3 93 -12 93 -12 0 -11 78 1 93 5 7 25
30 44 52 l35 40 96 -3 c99 -2 121 -12 138 -55 3 -9 15 -17 24 -17 10 0 29 -7
41 -16 18 -12 22 -25 22 -65 l0 -50 26 25 c15 13 37 30 50 37 21 11 27 10 49
-11 13 -13 27 -31 31 -42 8 -27 21 -22 72 29 l47 47 3 -46 c5 -74 23 -72 87 6
32 38 52 45 61 21 4 -8 12 -15 20 -15 8 0 14 -4 14 -10 0 -5 15 -13 33 -18 26
-6 37 -18 59 -62 15 -30 28 -61 28 -67 0 -7 4 -13 9 -13 5 0 12 -11 15 -25 4
-14 10 -25 15 -25 5 0 12 -13 16 -29 9 -42 30 -57 60 -43 14 6 32 9 40 6 26
-11 71 15 96 56 33 54 58 65 109 52 46 -11 76 -7 84 14 7 18 36 18 36 0 0 -21
35 -26 101 -13 73 13 89 3 59 -36 -12 -15 -26 -27 -31 -27 -5 0 -19 -9 -30
-19 -31 -29 -22 -70 20 -92 19 -10 46 -30 61 -44 36 -34 50 -32 50 8 0 21 9
44 24 62 22 26 28 28 76 22 59 -7 90 4 90 33 0 10 5 22 10 25 27 17 -2 95 -36
95 -12 0 -34 48 -35 74 0 12 -8 46 -18 76 l-18 55 -159 0 c-106 0 -168 -4
-186 -12 -35 -17 -57 -16 -92 2 -15 8 -35 15 -42 15 -18 0 -64 28 -81 49 -7 8
-13 31 -13 51 0 20 -6 42 -12 48 -17 17 -17 144 0 149 22 8 14 66 -13 96 l-26
27 30 33 c17 17 31 42 31 54 0 12 5 25 11 28 12 8 -47 65 -68 65 -24 0 -13 38
20 71 33 33 66 130 46 137 -5 2 -9 10 -9 18 0 10 -14 14 -55 14 l-56 0 -19 46
c-11 25 -23 77 -26 115 -4 38 -11 72 -15 75 -5 3 -9 38 -9 79 0 73 -13 105
-43 105 -6 0 -22 12 -34 27 -22 25 -23 34 -23 197 0 161 1 169 16 147 15 -21
22 -23 62 -17 47 6 62 -3 105 -64 8 -11 30 -23 50 -27 42 -6 77 22 77 63 0 34
30 124 41 124 5 0 9 6 9 14 0 26 41 66 78 75 43 12 96 83 107 144 4 20 11 37
16 37 14 0 11 88 -3 92 -20 7 -15 82 6 103 20 21 81 35 170 40 66 4 86 -1 86
-20 0 -19 16 -22 80 -14 41 5 64 14 85 33 15 14 38 26 51 26 22 0 54 -23 54
-40 0 -4 7 -11 16 -14 10 -4 27 6 47 28 26 27 40 33 77 35 25 1 58 3 74 4 24
2 31 -3 40 -28 8 -22 17 -29 31 -27 12 2 30 -5 42 -15 12 -10 30 -25 40 -33
35 -30 144 -70 188 -70 55 0 85 13 156 67 79 59 94 85 94 163 0 64 0 65 35 82
19 9 41 22 48 28 17 15 15 40 -3 40 -8 0 -18 12 -21 26 -5 20 -1 29 17 42 13
9 39 31 57 50 26 25 39 31 55 26 12 -4 49 -8 82 -8 33 -1 79 -5 103 -10 42 -9
42 -8 42 21 0 23 -10 38 -41 64 -43 37 -69 76 -69 108 0 11 -7 27 -16 36 -15
15 -15 19 2 51 10 19 22 34 26 34 5 0 8 21 8 46 0 43 32 129 53 145 4 3 11 23
14 45 4 21 17 50 30 64 22 24 27 41 24 85 -1 11 12 33 29 48 25 24 30 37 30
72 0 55 12 62 112 71 66 6 138 33 138 52 0 4 18 15 40 26 42 20 39 37 -11 49
-17 4 -33 21 -49 54 -13 26 -30 54 -37 61 -7 7 -13 24 -13 37 0 13 -5 25 -12
27 -7 3 -12 21 -12 41 0 26 7 43 27 61 15 14 27 29 27 34 0 5 6 15 14 21 27
23 30 70 7 102 -22 30 -29 89 -9 89 6 0 8 3 5 6 -4 4 -14 1 -23 -7 -14 -11
-25 -4 -86 59 -63 64 -68 73 -55 87 23 23 32 19 74 -32 46 -58 79 -86 111 -95
13 -4 22 -5 19 -2 -3 3 6 16 19 29 25 25 33 75 12 75 -6 0 -8 3 -5 7 4 3 1 11
-6 17 -7 6 -32 34 -55 62 -37 45 -40 53 -27 64 13 11 21 8 45 -15 17 -16 29
-36 28 -44 -2 -11 3 -15 17 -13 11 2 17 1 13 -3 -4 -4 4 -17 18 -28 31 -24 81
-19 121 13 l26 20 -24 -4 c-22 -3 -59 18 -59 34 0 4 -17 27 -39 50 -25 28 -41
38 -46 31 -12 -20 -33 6 -27 34 3 16 -2 33 -13 45 -11 12 -13 20 -7 20 7 0 12
9 12 21 0 12 4 17 11 14 6 -4 8 -14 5 -22 -4 -8 -1 -11 5 -8 6 4 16 0 22 -8
14 -16 51 -32 42 -17 -3 5 10 20 29 32 46 30 51 46 26 80 -11 15 -16 28 -10
28 5 0 10 7 10 15 0 23 13 18 41 -17 l26 -32 28 22 c15 12 31 19 36 16 12 -7
-6 -40 -26 -48 -18 -6 -17 -73 2 -72 6 1 22 -15 35 -34 21 -31 29 -35 66 -34
46 1 64 -20 35 -42 -31 -23 -76 -17 -107 15 -17 18 -25 34 -21 42 5 8 4 10 -3
5 -7 -4 -21 8 -34 28 -13 20 -27 36 -33 36 -5 0 -30 -17 -53 -38 -38 -32 -43
-41 -37 -64 4 -16 11 -26 15 -23 5 3 11 -3 14 -12 3 -10 22 -29 42 -42 30 -21
39 -23 56 -12 23 14 50 -1 41 -25 -5 -14 12 -21 19 -6 7 17 72 42 108 42 41 0
74 24 90 66 5 12 26 30 47 40 21 11 58 33 83 48 34 22 58 30 100 31 35 1 67 9
90 22 19 12 49 24 67 28 35 7 63 42 63 77 0 13 6 33 14 44 8 11 16 49 18 84 3
61 2 65 -19 68 -21 3 -22 2 -9 -23 10 -20 12 -35 4 -55 -9 -26 -48 -72 -48
-56 0 4 -7 0 -16 -8 -8 -9 -19 -14 -24 -11 -5 3 -11 1 -15 -5 -9 -15 -32 -12
-39 5 -4 11 3 19 20 25 13 5 40 20 58 32 28 19 32 27 25 45 -11 30 -46 37 -91
18 -21 -8 -44 -15 -53 -15 -27 0 -65 50 -65 84 0 35 24 76 44 76 8 0 27 7 42
15 26 13 29 13 35 -2 4 -12 -5 -22 -35 -37 -31 -16 -42 -28 -47 -53 -4 -18 -3
-30 2 -28 4 3 10 1 14 -5 3 -5 21 -9 39 -7 26 1 32 6 28 20 -2 9 -8 17 -13 17
-13 0 -11 30 4 44 7 7 24 16 39 19 35 9 39 37 8 64 -14 12 -19 23 -12 23 18 0
15 24 -9 55 -17 20 -19 29 -9 35 10 6 9 9 -1 13 -8 3 -9 6 -2 6 6 1 23 -12 36
-29 29 -34 39 -37 58 -14 7 9 34 25 60 36 31 14 45 26 42 34 -5 13 8 19 30 15
5 -1 6 3 3 8 -14 21 18 23 35 2 l19 -23 29 21 c21 15 45 21 83 21 41 1 49 3
35 11 -9 5 -26 28 -38 50 -20 39 -20 41 -2 77 11 23 25 36 35 36 10 -1 16 3
15 9 -1 5 10 13 26 18 18 5 27 4 27 -4 0 -8 3 -7 9 2 5 8 11 9 15 3 11 -18 -6
-42 -30 -42 -29 0 -64 -33 -64 -60 0 -11 12 -34 28 -51 39 -43 70 -34 100 31
12 27 22 54 22 60 0 5 4 10 9 10 5 0 11 10 15 22 4 17 -3 32 -30 59 -19 19
-31 39 -27 43 5 4 3 6 -2 4 -11 -3 -59 34 -82 63 -10 12 -8 17 6 26 16 10 26
4 67 -39 27 -28 43 -47 35 -43 -10 5 -12 4 -7 -4 4 -6 11 -9 15 -6 5 2 19 -7
31 -20 27 -28 40 -32 40 -10 0 8 5 15 10 15 6 0 10 -5 10 -12 0 -6 3 -8 7 -4
5 4 1 13 -9 20 -24 18 -35 118 -14 135 24 20 29 9 31 -66 2 -54 6 -69 19 -71
11 -2 16 4 16 18 0 25 30 80 43 80 19 0 46 46 47 78 0 19 6 35 14 38 18 7 36
56 36 95 0 62 -83 91 -154 54 -29 -15 -31 -15 -51 11 -21 26 -22 26 -53 10
-32 -17 -80 -21 -97 -8 -6 4 -21 23 -34 43 -30 45 -56 62 -82 54 -15 -5 -19
-16 -19 -50 0 -24 -3 -50 -6 -59 -5 -14 -8 -14 -29 0 -36 24 -57 62 -64 118
-6 47 -10 54 -66 98 -33 27 -71 52 -85 55 -14 4 -30 12 -37 19 -15 15 -17 44
-3 44 6 0 10 58 10 154 l0 153 -37 57 c-36 54 -39 56 -83 56 -25 0 -60 -4 -78
-10 -47 -13 -61 2 -51 55 5 22 8 57 9 78 0 29 8 45 36 72 23 23 46 62 66 112
16 43 34 81 40 84 7 5 4 16 -8 33 -15 20 -28 25 -60 26 -22 0 -49 7 -60 15
-23 18 -91 20 -97 3 -5 -18 3 -48 14 -48 5 0 9 -7 9 -15 0 -8 5 -15 10 -15 6
0 10 -6 10 -14 0 -20 -101 -31 -132 -15 -13 7 -26 16 -29 22 -10 15 -58 11
-78 -7 -23 -21 -39 -20 -90 2 -42 19 -81 56 -81 77 0 21 -44 53 -84 61 -49 9
-85 45 -84 84 1 33 -14 56 -43 65 -14 5 -19 16 -19 45 0 34 -4 42 -32 56 -18
9 -38 24 -44 33 -25 34 -60 69 -86 86 -16 9 -28 22 -28 28 0 16 -50 57 -70 57
-10 0 -31 11 -46 25 -15 14 -37 25 -50 25 -28 0 -64 48 -64 87 0 49 -10 67
-53 97 -29 19 -49 43 -61 72 -14 34 -23 44 -40 44 -18 0 -27 10 -42 45 -17 42
-21 45 -55 45 -20 0 -42 7 -49 15 -7 9 -29 15 -55 15 -26 0 -48 -6 -55 -15z
m1325 -3275 c-3 -5 0 -7 8 -4 15 5 80 -73 72 -86 -10 -16 -126 -81 -135 -75
-5 3 -2 -8 8 -25 9 -16 25 -33 35 -36 28 -9 76 16 83 42 7 27 44 34 44 8 0 -8
-4 -12 -10 -9 -6 3 -7 -1 -4 -10 7 -17 -24 -58 -37 -49 -5 3 -9 1 -9 -5 0 -13
-62 -25 -87 -17 -10 4 -32 28 -49 54 -69 104 -68 99 -54 135 18 45 66 84 107
85 19 1 31 -3 28 -8z m-903 -620 c16 -17 26 -35 23 -40 -4 -6 5 -5 19 2 14 6
26 15 26 20 0 13 63 48 88 48 12 0 22 -5 22 -11 0 -5 5 -7 12 -3 6 4 17 -1 24
-10 7 -10 16 -17 21 -17 4 1 9 -8 9 -19 1 -11 5 -24 9 -28 5 -4 5 1 2 11 -9
25 -5 22 45 -31 36 -38 43 -50 32 -60 -10 -9 -19 -6 -44 14 -26 22 -29 29 -18
43 11 14 11 14 -4 3 -14 -11 -20 -10 -38 8 -12 12 -23 29 -25 39 -1 9 -10 15
-20 13 -10 -2 -14 1 -10 7 6 11 -14 7 -51 -11 -25 -12 -46 -51 -38 -71 3 -8
-2 -19 -10 -26 -12 -10 -24 -3 -71 43 -31 31 -53 61 -50 66 4 6 3 10 -2 9 -22
-4 -25 2 -7 16 25 19 22 20 56 -15z m-22 -134 c0 -2 3 -13 7 -23 3 -10 3 -15
-2 -11 -4 4 -20 -1 -35 -12 -15 -11 -30 -16 -34 -12 -4 4 -7 3 -6 -3 1 -5 1
-12 0 -15 -5 -13 -6 -59 -1 -56 3 2 15 0 26 -4 13 -5 32 1 57 16 21 13 48 24
61 24 27 0 63 -23 78 -51 14 -28 -6 -91 -29 -87 -11 2 -16 -3 -14 -13 1 -8 -9
-26 -23 -39 -21 -19 -29 -22 -43 -14 -20 13 -23 40 -4 37 6 -2 12 2 12 9 0 6
3 9 6 5 7 -7 47 39 57 65 3 9 -1 22 -9 29 -19 15 -54 19 -54 6 0 -5 -7 -6 -16
-3 -8 3 -12 2 -9 -4 3 -5 -3 -14 -14 -19 -29 -16 -71 -13 -77 4 -4 8 -12 15
-20 15 -7 0 -17 12 -20 26 -10 41 8 86 45 111 30 21 61 30 61 19z m-5295
-1964 c11 -17 29 -32 40 -34 10 -2 26 -15 34 -30 14 -25 14 -29 -5 -54 -11
-15 -33 -32 -49 -37 -25 -9 -32 -6 -52 17 -13 15 -23 33 -23 41 0 7 -9 17 -20
20 -24 7 -37 51 -23 74 12 19 54 42 68 38 6 -2 19 -17 30 -35z m-122 -84 c30
-24 77 -91 77 -111 0 -11 -10 -31 -22 -44 -24 -26 -68 -31 -68 -8 0 8 8 15 19
15 25 0 45 25 37 46 -6 15 -9 15 -29 -5 -13 -11 -32 -21 -42 -21 -27 0 -75 49
-75 77 0 49 64 80 103 51z m-357 -334 c38 -39 43 -73 17 -96 -38 -33 -59 -31
-92 9 -38 46 -39 75 -5 102 36 28 41 27 80 -15z m-127 -64 c52 -82 61 -106 38
-97 -7 3 -19 -4 -25 -14 -8 -12 -24 -19 -42 -19 -24 0 -35 8 -56 40 -23 35
-25 44 -16 65 6 14 15 25 19 25 5 0 14 4 22 9 12 8 12 12 2 25 -12 14 -9 46 3
46 2 0 27 -36 55 -80z m1160 -1842 c-16 -113 -16 -113 49 -127 31 -7 72 -17
90 -23 30 -9 31 -11 16 -23 -17 -12 -56 -7 -104 12 -8 3 -21 5 -27 4 -7 -1
-13 3 -13 9 0 6 -4 9 -9 6 -15 -10 -18 -62 -4 -75 7 -7 10 -17 7 -23 -4 -6 -3
-8 3 -5 6 4 14 -1 17 -10 4 -9 1 -20 -6 -24 -16 -10 -50 20 -43 38 2 8 1 12
-4 8 -13 -7 -122 117 -116 133 3 7 1 11 -4 8 -4 -3 -23 10 -41 29 -19 19 -30
35 -24 35 5 0 4 4 -3 8 -9 6 -7 11 8 20 17 11 24 8 53 -24 19 -20 44 -54 57
-75 13 -21 29 -37 34 -35 6 1 13 33 16 69 4 51 11 73 29 92 13 14 24 25 25 25
1 0 -2 -24 -6 -52z m-176 -164 c12 -13 -6 -33 -36 -39 -40 -9 -77 -42 -77 -69
0 -12 21 -42 46 -69 39 -40 51 -47 79 -45 19 1 32 5 29 9 -2 4 3 12 11 19 8 7
15 23 15 35 0 31 36 41 44 12 11 -45 -67 -127 -121 -127 -30 0 -126 87 -119
107 3 8 2 12 -3 9 -5 -3 -12 1 -15 10 -9 25 -7 64 4 64 6 0 10 6 10 13 0 18
34 49 43 40 4 -3 7 -1 7 6 0 19 68 40 83 25z m-450 -351 c22 17 29 18 42 7 14
-12 13 -16 -11 -41 -15 -16 -25 -32 -21 -35 4 -4 1 -14 -6 -23 -10 -14 -10
-14 4 -4 13 11 20 8 43 -16 18 -19 25 -34 20 -43 -4 -7 -3 -10 1 -5 5 4 19 0
32 -8 21 -14 27 -14 53 -1 28 13 31 13 40 -5 9 -16 6 -22 -21 -38 -33 -20 -87
-15 -81 8 1 7 -1 10 -6 7 -4 -2 -32 20 -62 50 -36 36 -59 52 -70 49 -10 -3
-23 1 -30 10 -10 12 -9 16 5 21 14 6 12 11 -15 39 -25 26 -30 37 -24 60 l7 28
36 -40 37 -39 27 19z m657 -2470 c-1 -38 -2 -73 -1 -79 1 -6 28 -17 61 -24 33
-7 57 -17 54 -22 -3 -5 5 -6 19 -3 30 8 43 -8 22 -25 -12 -10 -28 -9 -80 9
-36 11 -70 21 -75 21 -19 0 -10 -52 15 -84 23 -30 24 -35 10 -46 -13 -11 -19
-9 -33 11 -9 13 -16 27 -14 32 1 4 -4 6 -10 5 -7 -2 -12 5 -12 14 1 10 -2 16
-6 13 -11 -7 -131 136 -124 147 3 5 0 7 -8 6 -7 -2 -12 3 -10 10 1 8 -2 11 -7
8 -5 -3 -14 0 -20 8 -8 10 -6 17 8 30 18 16 20 15 50 -22 17 -22 28 -42 26
-46 -3 -3 -2 -4 1 -1 4 2 15 -5 25 -16 14 -17 16 -26 8 -43 -9 -19 -9 -20 4
-3 13 15 16 16 27 2 20 -25 30 0 30 77 0 53 4 69 18 77 9 6 19 11 20 11 2 0 3
-30 2 -67z"/>
<path d="M1542 3327 c-5 -7 -13 -22 -16 -34 -4 -11 -18 -24 -31 -27 -30 -8
-32 -27 -5 -51 22 -20 27 -41 8 -29 -9 5 -9 2 1 -9 15 -19 26 -23 15 -5 -5 8
-2 9 10 5 10 -4 24 -7 32 -7 9 0 12 -5 9 -11 -4 -5 11 2 33 18 45 32 47 45 12
93 -40 56 -57 70 -68 57z"/>
</g>
</svg>
