<?xml version="1.0" standalone="no"?>
<!DOCTYPE svg PUBLIC "-//W3C//DTD SVG 20010904//EN"
 "http://www.w3.org/TR/2001/REC-SVG-20010904/DTD/svg10.dtd">
<svg version="1.0" xmlns="http://www.w3.org/2000/svg"
 width="1086.000000pt" height="868.000000pt" viewBox="0 0 1086.000000 868.000000"
 preserveAspectRatio="xMidYMid meet">
<metadata>
Created by potrace 1.16, written by Peter Selinger 2001-2019
</metadata>
<g transform="translate(0.000000,868.000000) scale(0.100000,-0.100000)"
fill="#000000" stroke="none">
<path d="M3429 8370 c-7 -22 -16 -40 -21 -40 -4 0 -8 -8 -8 -19 0 -10 -6 -24
-14 -30 -8 -7 -18 -26 -21 -42 -4 -16 -11 -29 -16 -29 -5 0 -9 -5 -9 -11 0 -5
-10 -31 -21 -57 -41 -90 -72 -158 -105 -229 -19 -39 -34 -76 -34 -82 0 -6 -4
-11 -10 -11 -5 0 -10 -5 -10 -11 0 -6 -13 -40 -30 -76 -16 -35 -33 -75 -36
-89 -3 -13 -10 -24 -15 -24 -5 0 -9 -7 -9 -15 0 -16 -39 -97 -51 -105 -4 -3
-11 -18 -14 -33 -4 -15 -11 -27 -16 -27 -5 0 -9 -7 -9 -16 0 -9 -6 -28 -14
-42 -28 -56 -56 -120 -56 -131 0 -6 -4 -11 -10 -11 -5 0 -10 -7 -10 -15 0 -8
-9 -32 -20 -52 -11 -21 -20 -43 -20 -50 0 -7 -4 -13 -9 -13 -5 0 -12 -13 -16
-30 -4 -16 -11 -30 -16 -30 -5 0 -9 -7 -9 -15 0 -13 -55 -142 -80 -186 -5 -9
-12 -34 -16 -55 -3 -22 -10 -43 -14 -49 -5 -5 -11 -28 -15 -50 -4 -22 -11 -44
-15 -50 -4 -5 -11 -32 -15 -59 -3 -27 -10 -56 -15 -65 -4 -9 -13 -36 -19 -61
-24 -94 -40 -157 -51 -205 -6 -27 -14 -57 -17 -65 -7 -16 -24 -83 -43 -165 -6
-27 -15 -59 -20 -70 -5 -11 -12 -34 -15 -52 -4 -21 -23 -46 -57 -75 -27 -24
-67 -58 -87 -75 -20 -18 -39 -33 -43 -33 -4 0 -23 -15 -41 -32 -19 -18 -49
-44 -67 -58 -18 -14 -40 -33 -49 -42 -8 -10 -19 -18 -24 -18 -4 0 -18 -10 -30
-23 -12 -12 -53 -47 -92 -77 -85 -66 -162 -144 -171 -173 -4 -12 -9 -24 -13
-27 -3 -3 -17 -27 -31 -53 -14 -27 -35 -60 -47 -73 -13 -14 -23 -28 -23 -31 0
-3 -16 -31 -35 -63 -41 -67 -41 -70 -16 -70 12 0 23 11 29 28 5 15 19 37 31
49 12 12 21 25 21 29 0 3 13 23 29 43 15 20 40 59 55 86 53 96 78 130 121 163
23 18 54 43 67 55 31 28 60 52 123 102 28 22 55 45 60 51 6 5 34 28 63 49 28
22 52 43 52 47 0 4 5 8 10 8 6 0 23 12 38 28 15 15 53 47 85 71 32 24 60 48
63 53 6 9 14 41 44 173 6 28 15 59 20 70 5 11 12 39 15 62 4 24 10 45 15 48 4
3 11 29 15 60 3 30 10 57 15 60 5 3 12 30 15 60 4 30 11 55 15 55 4 0 11 23
14 52 4 28 10 57 14 62 4 6 12 34 18 61 7 28 19 75 29 105 9 30 20 71 25 90 5
19 22 62 39 95 51 105 91 194 91 205 0 5 5 10 10 10 6 0 10 7 10 16 0 9 6 28
14 42 8 15 28 59 46 97 17 39 45 97 61 130 16 33 29 65 29 72 0 6 6 18 13 25
12 13 27 43 65 128 11 25 34 75 51 112 17 37 31 72 31 78 0 5 5 10 10 10 6 0
10 7 10 15 0 8 9 31 19 52 11 21 31 65 46 98 14 33 42 92 61 131 19 39 34 76
34 82 0 7 5 12 10 12 6 0 10 6 10 13 0 6 17 45 37 85 l37 73 130 -6 c72 -3
228 -10 346 -15 118 -5 357 -12 530 -15 173 -4 378 -10 455 -15 77 -5 295 -12
485 -15 190 -4 352 -9 360 -12 8 -2 260 -9 560 -14 832 -16 1032 -23 1055 -36
23 -13 177 -69 218 -79 15 -3 30 -10 33 -15 3 -5 12 -9 21 -9 8 0 29 -6 46
-14 18 -8 41 -16 52 -19 11 -3 45 -15 75 -27 30 -12 71 -26 90 -32 19 -5 40
-13 45 -17 6 -4 30 -13 55 -20 25 -7 64 -21 87 -32 49 -22 65 -23 81 -7 9 9 2
15 -27 29 -21 9 -52 20 -70 24 -17 3 -33 11 -36 16 -4 5 -13 9 -22 9 -8 0 -29
6 -46 14 -18 8 -63 24 -100 37 -37 12 -70 26 -73 30 -3 5 -15 9 -27 9 -12 0
-34 6 -49 14 -15 8 -40 17 -57 21 -17 4 -33 11 -36 16 -4 5 -13 9 -22 9 -8 0
-29 6 -46 14 -18 8 -68 26 -111 40 -70 23 -101 27 -265 32 -102 3 -206 7 -231
9 -25 2 -232 9 -460 14 -228 6 -505 15 -615 20 -308 16 -555 25 -720 26 -282
3 -1030 25 -1178 35 -81 6 -242 10 -357 10 l-209 0 -12 -40z"/>
<path d="M8502 7870 c-9 -15 -5 -20 31 -33 23 -9 54 -19 70 -23 15 -3 30 -10
33 -15 3 -5 12 -9 21 -9 8 0 29 -6 46 -14 47 -20 198 -74 230 -82 15 -3 30
-10 33 -15 3 -5 12 -9 21 -9 8 0 29 -6 46 -14 18 -8 56 -22 85 -32 28 -10 52
-24 52 -31 0 -7 4 -13 9 -13 5 0 12 -13 16 -30 4 -16 10 -32 14 -35 8 -5 53
-94 106 -210 15 -33 43 -92 61 -131 19 -39 34 -76 34 -83 0 -6 5 -11 10 -11 6
0 10 -6 10 -12 0 -7 16 -47 36 -88 20 -41 49 -102 65 -135 16 -33 29 -64 29
-68 0 -3 14 -29 30 -55 17 -27 30 -57 30 -66 0 -9 5 -16 10 -16 6 0 10 -5 10
-11 0 -6 7 -27 17 -46 13 -28 14 -41 5 -67 -6 -17 -14 -48 -18 -69 -3 -20 -10
-40 -15 -43 -5 -3 -9 -15 -9 -26 0 -11 -14 -66 -30 -122 -29 -99 -45 -154 -77
-266 -8 -30 -20 -66 -25 -80 -6 -14 -16 -47 -23 -75 -7 -27 -20 -75 -29 -105
-9 -30 -23 -77 -30 -105 -8 -27 -21 -75 -30 -105 -10 -30 -22 -75 -28 -100 -5
-25 -14 -49 -19 -54 -5 -6 -9 -18 -9 -28 0 -19 -35 -143 -68 -243 -11 -33 -23
-76 -27 -95 -4 -19 -11 -41 -15 -50 -4 -8 -13 -35 -19 -60 -7 -25 -16 -61 -21
-81 -8 -30 -63 -167 -115 -284 -45 -103 -67 -152 -75 -165 -5 -8 -67 -130
-138 -270 -70 -140 -139 -268 -152 -284 -14 -16 -47 -54 -75 -84 -27 -30 -63
-71 -80 -90 -16 -19 -61 -67 -100 -107 -38 -39 -97 -102 -130 -140 -33 -38
-76 -86 -95 -106 -19 -20 -55 -61 -80 -90 -61 -73 -158 -169 -171 -169 -6 0
-41 -20 -78 -45 -37 -25 -72 -45 -78 -45 -6 0 -13 -4 -15 -8 -1 -4 -32 -26
-68 -47 -36 -21 -83 -52 -104 -67 -21 -15 -45 -28 -53 -28 -7 0 -13 -4 -13
-10 0 -5 -8 -10 -19 -10 -10 0 -24 -7 -31 -15 -7 -8 -17 -15 -22 -15 -6 0 -30
-13 -55 -30 -24 -16 -48 -30 -54 -30 -5 0 -9 -4 -9 -9 0 -5 -10 -13 -22 -17
-13 -4 -25 -10 -28 -13 -7 -9 -57 -41 -98 -64 -18 -9 -51 -31 -74 -47 -23 -17
-47 -30 -55 -30 -7 0 -13 -3 -13 -7 0 -8 -26 -25 -98 -65 -18 -10 -51 -32 -74
-48 -23 -17 -47 -30 -54 -30 -7 0 -14 -4 -16 -8 -1 -4 -21 -19 -43 -32 -22
-13 -70 -43 -107 -67 -37 -24 -71 -43 -77 -43 -5 0 -11 -4 -13 -8 -1 -4 -32
-26 -68 -47 -36 -21 -83 -52 -104 -67 l-39 -28 -503 0 -503 0 -153 156 c-84
86 -196 201 -248 254 l-95 97 -125 7 c-69 3 -145 11 -170 16 -25 5 -103 14
-175 20 -247 20 -340 29 -370 35 -32 5 -64 -17 -110 -76 -30 -39 -135 -157
-182 -206 -24 -24 -43 -48 -43 -53 0 -4 -4 -10 -8 -12 -5 -1 -47 -47 -95 -100
-47 -54 -97 -110 -111 -125 -14 -15 -26 -31 -26 -35 0 -5 -135 -8 -300 -8
-182 0 -307 -4 -318 -10 -9 -5 -66 -19 -127 -30 -158 -28 -217 -41 -238 -52
-10 -5 -41 -12 -68 -15 -39 -5 -55 -12 -74 -35 -14 -16 -25 -36 -25 -44 0 -8
-4 -14 -10 -14 -5 0 -10 -5 -10 -10 0 -10 -37 -68 -51 -80 -3 -3 -9 -12 -12
-20 -4 -8 -15 -27 -25 -42 -9 -15 -37 -60 -62 -100 -24 -40 -47 -75 -50 -78
-8 -8 -29 -44 -40 -67 -5 -13 -14 -23 -20 -23 -5 0 -10 -5 -10 -12 0 -7 -20
-42 -44 -78 -47 -69 -60 -115 -86 -285 -30 -201 -42 -277 -56 -365 -8 -52 -19
-124 -24 -160 -5 -36 -14 -85 -19 -110 -11 -48 -30 -160 -38 -223 -6 -42 -19
-46 -54 -17 -44 36 -87 69 -119 90 -13 8 -36 27 -52 42 -16 16 -31 28 -33 28
-8 0 -100 72 -103 81 -2 5 -10 9 -18 9 -16 0 -104 60 -104 72 0 4 -5 8 -11 8
-18 0 -98 71 -105 93 -4 12 -10 24 -14 27 -4 3 -27 38 -51 78 -24 40 -52 85
-61 100 -10 15 -21 34 -25 42 -3 8 -18 33 -32 55 -38 60 -49 78 -57 95 -4 8
-10 17 -13 20 -4 3 -12 16 -19 30 -15 32 -33 60 -50 78 -6 7 -12 20 -12 28 0
8 -4 14 -10 14 -5 0 -10 7 -10 15 0 8 -9 23 -20 32 -11 10 -20 21 -20 26 0 5
-7 15 -15 23 -13 13 -15 58 -15 279 l0 264 -99 98 c-54 54 -107 105 -118 114
-10 9 -85 88 -168 175 -82 87 -165 173 -182 191 -18 19 -33 38 -33 43 0 6 -4
10 -10 10 -5 0 -10 7 -10 15 0 8 5 15 10 15 6 0 10 4 10 9 0 6 13 29 29 53 16
24 37 59 48 78 10 19 30 53 44 75 14 22 34 56 45 75 10 19 23 38 27 41 9 6 26
35 49 79 7 14 15 27 19 30 3 3 9 12 12 20 4 8 16 29 27 45 11 17 26 42 32 58
7 15 16 27 20 27 4 0 8 5 8 11 0 13 72 133 83 137 4 2 7 8 7 14 0 12 72 132
83 136 4 2 7 8 7 14 0 12 85 155 141 238 20 30 48 74 61 98 27 50 34 63 69
117 14 22 29 47 33 55 8 17 19 35 57 95 14 22 29 47 32 55 4 8 16 29 27 45 11
17 25 42 31 58 6 15 15 27 20 27 5 0 9 5 9 11 0 10 68 127 80 139 3 3 11 16
18 30 10 21 34 56 69 106 8 10 30 50 65 117 11 20 24 37 29 37 5 0 9 5 9 11 0
6 20 45 45 86 50 82 51 86 31 102 -12 10 -16 8 -22 -11 -3 -13 -10 -25 -13
-28 -11 -8 -71 -109 -71 -119 0 -5 -6 -16 -12 -23 -19 -21 -37 -50 -51 -80 -6
-16 -14 -28 -18 -28 -4 0 -10 -11 -13 -25 -4 -14 -11 -25 -16 -25 -6 0 -10 -5
-10 -10 0 -10 -38 -69 -51 -80 -4 -3 -9 -15 -13 -27 -4 -13 -12 -23 -17 -23
-5 0 -9 -6 -9 -14 0 -8 -6 -21 -14 -28 -7 -8 -17 -24 -20 -36 -4 -12 -12 -22
-17 -22 -5 0 -9 -5 -9 -11 0 -14 -71 -133 -82 -137 -4 -2 -8 -8 -8 -14 0 -13
-71 -132 -82 -136 -4 -2 -8 -8 -8 -14 0 -10 -68 -128 -79 -138 -3 -3 -15 -23
-26 -45 -20 -39 -76 -130 -93 -150 -4 -5 -11 -17 -15 -25 -4 -8 -16 -28 -27
-45 -11 -16 -26 -42 -32 -57 -7 -16 -15 -28 -19 -28 -4 0 -10 -11 -13 -25 -4
-14 -11 -25 -16 -25 -6 0 -10 -6 -10 -13 0 -8 -9 -24 -20 -37 -11 -13 -20 -29
-20 -37 0 -7 -4 -13 -10 -13 -5 0 -10 -6 -10 -14 0 -8 -6 -21 -12 -28 -19 -21
-37 -50 -51 -80 -6 -16 -15 -28 -19 -28 -4 0 -8 -5 -8 -11 0 -14 -71 -133 -82
-137 -4 -2 -8 -8 -8 -14 0 -11 -69 -129 -80 -138 -3 -3 -24 -34 -45 -70 -21
-36 -41 -67 -44 -70 -3 -3 -17 -27 -30 -55 -14 -27 -27 -52 -30 -55 -10 -9
-31 -44 -44 -72 -6 -16 -15 -28 -19 -28 -4 0 -8 -9 -8 -19 0 -23 34 -60 372
-404 l258 -262 0 -260 0 -261 30 -34 c16 -19 29 -41 30 -47 0 -7 4 -13 8 -13
4 0 13 -12 20 -27 6 -16 21 -41 32 -58 11 -16 23 -37 27 -45 3 -8 9 -17 12
-20 4 -3 12 -16 19 -30 15 -32 33 -60 49 -78 7 -7 13 -20 13 -28 0 -8 5 -14
10 -14 6 0 10 -6 10 -13 0 -6 16 -34 35 -61 19 -27 35 -55 35 -63 0 -7 5 -13
10 -13 6 0 10 -6 10 -13 0 -6 16 -34 35 -61 19 -27 35 -54 35 -59 0 -12 71
-81 108 -105 15 -9 32 -20 37 -25 6 -4 33 -22 60 -40 28 -17 55 -36 62 -42 24
-20 39 -32 108 -84 39 -30 72 -57 73 -62 2 -5 8 -9 13 -9 11 0 103 -69 107
-81 2 -5 9 -9 15 -9 6 0 20 -9 32 -20 11 -10 25 -16 31 -12 10 7 26 88 60 297
9 55 22 136 29 180 8 44 17 105 20 135 4 30 10 73 15 95 11 46 27 147 41 255
9 70 27 162 35 185 3 6 15 28 29 50 13 22 27 48 31 58 3 9 10 17 15 17 5 0 9
5 9 10 0 12 41 73 53 78 4 2 7 9 7 16 0 7 13 31 28 52 15 21 45 68 67 104 21
36 42 67 46 70 3 3 9 15 13 28 4 12 12 22 17 22 5 0 9 7 9 15 0 9 7 18 15 21
8 4 15 11 15 17 0 5 12 29 28 53 21 35 34 45 62 50 19 3 42 9 52 14 9 5 39 12
67 16 28 4 54 10 57 15 2 4 31 11 64 15 33 4 60 10 60 14 0 4 47 15 104 24 78
12 176 16 385 16 231 0 281 2 288 14 8 15 99 118 168 190 22 23 58 64 80 91
22 27 53 63 70 80 33 34 138 152 179 200 24 28 28 29 104 26 43 -1 114 -6 157
-11 44 -6 141 -14 215 -20 74 -5 158 -14 185 -20 28 -5 87 -11 133 -14 l82 -4
68 -69 c37 -38 147 -151 245 -251 l178 -182 529 0 c290 0 530 4 532 8 2 5 35
28 73 51 107 64 108 65 123 79 7 6 20 12 28 12 8 0 14 5 14 10 0 6 5 10 10 10
9 0 66 36 80 50 3 3 16 11 30 18 32 15 60 33 78 50 7 6 19 12 27 12 7 0 15 3
17 8 2 4 35 27 73 50 39 24 79 48 90 55 10 7 25 18 33 24 7 7 19 13 27 13 7 0
15 3 17 8 2 4 35 27 73 50 39 24 79 48 90 55 10 7 25 18 33 25 7 6 19 12 27
12 7 0 15 3 17 8 3 7 128 87 168 107 11 5 20 13 20 17 0 3 17 12 38 19 20 7
48 20 62 30 22 15 74 48 135 86 11 7 27 15 35 19 8 4 17 10 20 14 4 5 77 50
165 103 11 7 31 25 45 42 14 16 45 50 70 75 25 26 63 68 85 95 22 27 53 63 70
80 16 17 59 64 95 105 36 40 94 103 130 140 85 89 180 192 180 196 0 2 11 15
24 29 14 15 33 43 44 63 129 250 302 599 302 609 0 7 5 13 10 13 6 0 10 7 10
16 0 9 7 28 14 42 8 15 22 45 31 67 9 22 23 54 30 70 8 17 17 42 21 58 3 15
10 27 14 27 5 0 11 19 15 42 4 23 11 49 16 58 8 15 20 61 41 150 5 25 14 49
19 54 5 6 9 21 9 33 0 13 6 36 14 51 7 15 16 44 20 66 4 21 11 46 16 55 5 9
14 36 20 61 16 64 36 136 55 200 9 30 21 75 27 100 5 25 14 49 19 54 5 6 9 18
9 28 0 9 6 37 13 60 8 24 24 77 36 118 13 41 27 84 31 95 5 11 11 37 15 59 3
21 10 46 15 55 8 15 18 49 41 146 5 22 13 49 18 60 5 11 14 38 19 60 6 22 18
65 27 95 26 87 29 119 12 153 -8 18 -23 50 -34 72 -10 22 -24 46 -30 53 -7 7
-13 17 -13 22 0 5 -13 38 -30 73 -16 36 -30 70 -30 76 0 6 -4 11 -9 11 -5 0
-12 14 -16 30 -4 17 -11 30 -16 30 -5 0 -9 5 -9 10 0 6 -14 41 -31 78 -17 37
-45 96 -61 132 -17 36 -45 97 -64 136 -19 39 -34 76 -34 83 0 6 -4 11 -9 11
-5 0 -12 11 -15 25 -3 13 -20 47 -36 75 -17 28 -30 55 -30 60 0 24 -38 70 -62
76 -15 3 -30 10 -33 15 -4 5 -13 9 -22 9 -8 0 -29 6 -46 14 -18 7 -72 28 -122
45 -49 18 -104 38 -120 45 -17 7 -45 17 -62 20 -18 4 -35 12 -38 17 -4 5 -12
9 -20 9 -8 0 -26 5 -42 11 -15 7 -55 22 -89 34 -57 21 -62 21 -72 5z"/>
<path d="M4336 7844 c-12 -11 -16 -36 -16 -94 0 -67 3 -81 18 -89 20 -11 75
-7 114 8 15 5 32 4 48 -3 28 -14 526 -16 548 -2 19 12 16 160 -4 180 -20 21
-29 20 -52 -4 -17 -18 -32 -21 -116 -21 -53 -1 -96 -4 -96 -8 0 -4 -7 -8 -15
-8 -8 0 -15 4 -15 10 0 5 -57 7 -135 5 -74 -2 -135 0 -135 5 0 12 -65 37 -99
37 -16 0 -37 -7 -45 -16z m117 -29 c15 -14 27 -33 27 -41 0 -14 2 -14 16 0 21
21 64 20 80 -1 24 -32 17 -43 -27 -43 -36 0 -40 -2 -29 -15 7 -8 23 -15 36
-15 17 0 22 -4 18 -15 -13 -33 -75 -10 -93 36 -6 15 -10 18 -10 8 -2 -35 -68
-68 -110 -54 -19 6 -21 14 -21 79 0 40 3 76 7 79 17 17 79 6 106 -18z"/>
<path d="M4022 6738 c-7 -7 -12 -27 -12 -45 0 -28 -4 -33 -24 -33 -36 0 -91
-26 -109 -52 l-16 -23 -16 23 c-19 26 -65 51 -83 45 -17 -7 -5 -23 18 -23 10
0 28 -13 40 -30 18 -25 20 -41 18 -117 l-3 -88 -52 3 c-31 1 -53 -2 -53 -8 0
-20 -47 -9 -78 18 -40 36 -41 70 -3 111 24 25 37 31 72 31 41 0 42 1 26 17
-14 15 -22 15 -50 5 -46 -17 -46 -17 -53 28 -4 22 -12 40 -18 40 -6 0 -20 13
-30 29 -13 19 -37 35 -69 45 -51 17 -192 22 -214 8 -13 -8 -21 -322 -8 -342 3
-5 43 -10 91 -10 86 0 132 14 192 56 20 15 22 15 22 -1 0 -9 10 -25 23 -36 18
-15 39 -18 123 -19 101 0 102 0 108 25 l6 25 28 -25 c27 -25 27 -25 197 -23
l170 3 3 75 c3 80 10 97 38 86 13 -5 15 -9 6 -18 -21 -21 -14 -92 11 -122 23
-26 25 -27 128 -24 l104 3 3 89 c3 86 -7 137 -33 161 -34 33 -113 45 -159 24
-18 -8 -29 -9 -38 -2 -8 7 -49 9 -100 7 l-88 -4 0 38 c0 49 -14 62 -65 62 -23
0 -46 -5 -53 -12z m98 -177 c0 -169 -1 -172 -50 -164 -41 6 -44 5 -77 -8 -30
-12 -35 -11 -70 17 -98 80 -38 254 79 229 28 -6 28 -6 28 39 l0 46 45 0 45 0
0 -159z m-552 105 c35 -38 37 -44 37 -106 0 -37 -5 -72 -12 -80 -55 -67 -63
-72 -128 -85 -41 -9 -81 -11 -103 -7 l-37 8 -3 158 -3 158 106 -4 106 -3 37
-39z m748 -51 c8 -33 -1 -55 -23 -55 -38 0 -48 -18 -53 -92 l-5 -73 -35 0 -35
0 -3 118 -3 117 35 0 c19 0 38 -5 41 -10 4 -6 12 -4 21 5 24 23 53 19 60 -10z
m193 -9 c23 -24 26 -35 29 -116 4 -88 4 -89 -21 -95 -14 -4 -34 -2 -44 3 -13
8 -25 6 -44 -5 -25 -15 -30 -15 -62 0 -22 11 -37 26 -41 43 -8 32 2 84 16 84
5 0 16 7 24 15 9 8 31 15 51 15 23 0 33 4 31 13 -6 17 -46 21 -63 7 -19 -16
-41 -7 -48 20 -14 53 122 65 172 16z"/>
<path d="M3400 6556 l0 -96 34 0 c28 0 40 7 60 33 52 68 25 144 -55 154 l-39
6 0 -97z"/>
<path d="M5327 6743 c-4 -3 -7 -24 -7 -45 0 -34 -3 -38 -24 -38 -38 0 -79 -19
-104 -48 -23 -26 -24 -26 -38 -8 -8 11 -14 23 -14 26 0 15 -79 28 -145 24 -38
-2 -75 -4 -82 -4 -6 0 -13 -12 -15 -27 l-3 -28 -20 22 c-39 42 -103 53 -177
31 l-39 -11 2 -51 c1 -32 -4 -63 -15 -85 -15 -28 -16 -38 -5 -65 24 -63 34
-66 215 -66 l164 0 0 86 c0 64 3 85 13 82 8 -3 13 -32 15 -87 l3 -82 57 3 c51
3 57 6 60 26 l3 23 30 -26 c29 -23 38 -25 139 -25 92 0 109 2 114 17 8 19 7
330 -1 350 -5 14 -113 19 -126 6z m113 -182 c0 -136 -2 -160 -16 -165 -24 -9
-62 -7 -69 4 -3 5 -19 3 -40 -7 -32 -15 -37 -15 -68 1 -79 43 -91 154 -22 222
13 14 32 19 70 19 l51 -1 -3 34 c-3 47 1 52 53 52 l44 0 0 -159z m-615 63 c18
-8 36 -22 39 -29 2 -7 6 -55 7 -107 l2 -93 -49 0 c-27 0 -57 -4 -67 -9 -23
-11 -85 21 -93 47 -19 59 28 117 95 117 23 0 29 4 25 15 -7 17 -49 20 -59 5
-11 -18 -31 -11 -43 14 -8 18 -8 27 1 34 30 24 98 27 142 6z m297 -14 c19 -18
22 -31 22 -117 1 -106 -3 -113 -59 -99 -23 6 -24 12 -27 84 -3 71 -5 77 -25
80 -22 3 -23 1 -23 -76 0 -64 -3 -81 -16 -86 -22 -8 -62 -7 -68 2 -2 4 -6 57
-7 117 l-3 110 37 3 c20 2 37 -1 37 -7 0 -5 12 -3 28 5 33 18 75 12 104 -16z"/>
<path d="M7962 6728 c-5 -13 -8 -44 -7 -70 1 -27 0 -48 -1 -48 -2 0 -20 11
-40 25 -42 28 -91 32 -133 11 -17 -9 -32 -11 -42 -5 -8 5 -38 9 -67 9 -41 0
-54 -4 -59 -17 -11 -29 -28 -34 -33 -10 -5 17 -15 23 -45 27 -22 3 -51 2 -65
-3 -16 -5 -44 -4 -77 4 -39 9 -62 9 -97 0 -71 -18 -74 -16 -78 32 l-3 42 -52
3 c-50 3 -53 2 -52 -20 0 -13 3 -17 6 -10 3 7 23 12 49 12 l44 0 0 -154 c0
-166 0 -166 -55 -166 -31 0 -34 6 -36 74 l-2 56 -54 0 -53 0 0 -65 c0 -62 -1
-65 -24 -65 -56 0 -56 0 -56 166 0 96 -4 154 -10 154 -12 0 -14 -309 -1 -328
5 -9 25 -12 62 -10 l54 3 3 63 c3 61 3 62 32 62 29 0 29 -1 32 -62 l3 -63 58
-3 c46 -2 57 0 57 13 0 19 26 20 34 0 4 -12 26 -15 110 -15 102 0 106 1 111
23 4 13 4 34 2 47 -2 14 -1 36 2 49 6 21 9 16 26 -35 27 -82 30 -85 87 -82 52
3 58 9 87 82 l12 29 19 -39 c29 -57 63 -74 154 -74 46 0 76 4 76 10 0 7 6 7
19 0 11 -5 69 -9 133 -7 l113 2 2 171 2 171 -27 14 c-15 7 -30 14 -33 16 -3 1
-18 -5 -34 -13 -26 -14 -31 -13 -41 0 -7 11 -27 16 -58 16 -39 0 -48 -4 -54
-22z m98 -167 c0 -169 0 -168 -50 -167 l-25 1 -3 163 -2 162 40 0 40 0 0 -159z
m-632 43 c24 -25 26 -35 27 -118 l0 -91 -28 -3 c-16 -2 -34 1 -41 7 -9 7 -19
6 -35 -5 -28 -20 -65 -11 -97 23 -24 26 -33 73 -14 73 6 0 10 6 10 13 0 19 53
47 89 47 17 0 31 4 31 10 0 15 -50 24 -63 11 -17 -17 -35 -13 -47 10 -21 39
17 60 99 54 32 -2 50 -10 69 -31z m487 1 c19 -21 25 -39 25 -71 l0 -44 -52 -1
c-29 -1 -59 -1 -65 0 -7 1 -13 -5 -13 -12 0 -19 36 -28 83 -20 36 5 37 5 37
-24 0 -26 -5 -32 -41 -43 -33 -11 -47 -11 -77 -1 -44 16 -82 48 -82 71 0 9 -5
21 -11 27 -15 15 16 102 44 122 55 40 112 38 152 -4z m-357 12 c6 -7 14 -32
18 -55 7 -45 34 -60 34 -18 0 12 5 37 11 55 10 28 15 31 55 31 41 0 57 -11 35
-24 -5 -4 -12 -24 -16 -46 -4 -22 -10 -40 -15 -40 -5 0 -11 -18 -15 -40 -4
-22 -11 -40 -16 -40 -5 0 -9 -9 -9 -19 0 -20 -18 -31 -50 -31 -27 0 -59 37
-66 77 -3 18 -10 36 -15 39 -5 3 -9 13 -9 22 0 9 -7 30 -15 46 -24 46 -20 56
24 56 21 0 43 -6 49 -13z m624 -92 c-1 -55 -1 -107 -2 -116 0 -16 -19 -21 -57
-13 -22 4 -23 8 -23 120 l0 115 41 -3 42 -3 -1 -100z"/>
<path d="M5564 6718 c-6 -9 -9 -246 -5 -335 1 -9 19 -13 55 -13 52 0 55 1 61
30 4 16 4 34 1 39 -3 5 -3 19 2 30 7 19 11 15 38 -36 l30 -58 61 -3 c52 -2 62
0 65 14 3 16 4 17 20 1 13 -14 36 -17 118 -17 100 0 101 0 111 27 16 42 28 10
16 -43 -15 -65 1 -77 95 -77 53 0 81 5 100 17 26 17 60 74 52 87 -2 4 2 9 10
12 8 3 17 -1 20 -9 7 -19 329 -20 345 -1 5 7 11 44 13 82 2 54 7 70 18 71 8 1
21 2 28 3 8 1 12 19 12 55 0 34 -5 56 -12 59 -7 2 -48 2 -92 -1 -76 -5 -78 -6
-88 -35 l-11 -29 -15 24 c-25 42 -100 60 -157 38 -19 -7 -62 -7 -135 0 -118
12 -152 5 -184 -41 l-15 -22 -31 31 c-40 41 -88 49 -162 30 l-58 -16 0 43 c0
46 -9 55 -60 55 -50 0 -60 -9 -60 -52 0 -35 -2 -39 -15 -28 -8 7 -15 18 -15
24 0 7 -10 22 -23 34 -18 17 -36 22 -75 22 -29 0 -54 -5 -58 -12z m136 -55
c14 -27 28 -50 32 -53 3 -3 10 -17 13 -33 4 -15 11 -25 15 -22 5 3 10 -5 12
-17 2 -13 2 21 0 75 l-5 97 42 0 42 0 -3 -157 c-3 -157 -3 -158 -27 -161 -45
-7 -66 6 -86 52 -11 25 -23 46 -27 46 -3 0 -9 14 -13 30 -4 17 -10 30 -15 30
-5 0 -13 12 -18 28 -6 18 -7 -5 -4 -75 l5 -102 -26 -6 c-14 -4 -34 -4 -45 -1
-19 6 -20 17 -21 152 -1 79 1 149 4 154 3 6 27 10 53 10 46 0 48 -1 72 -47z
m346 -39 c19 -9 34 -23 34 -30 0 -8 5 -14 10 -14 7 0 10 -33 8 -92 l-3 -93
-52 3 c-32 1 -53 -2 -53 -8 0 -5 -8 -10 -18 -10 -27 0 -72 23 -72 38 0 6 -4
12 -10 12 -22 0 -9 59 19 89 23 25 37 31 71 31 37 0 40 2 26 15 -17 18 -40 19
-68 4 -24 -13 -40 3 -36 36 5 34 88 45 144 19z m246 -6 c6 -10 8 -10 8 0 0 7
14 12 35 12 l35 0 0 -124 c0 -143 -11 -174 -70 -200 -71 -31 -153 -12 -148 34
3 23 6 25 52 22 35 -1 55 3 68 14 27 26 23 29 -32 26 -42 -3 -54 0 -75 20 -14
12 -25 30 -25 39 0 8 -5 20 -11 26 -23 23 28 127 72 146 21 10 81 -1 91 -15z
m297 -12 c24 -24 26 -35 29 -116 2 -50 0 -90 -5 -91 -4 0 -17 -2 -27 -4 -11
-2 -27 0 -35 5 -10 5 -25 3 -42 -7 -25 -15 -30 -15 -60 -1 -41 20 -59 62 -45
100 6 16 14 28 19 28 5 0 15 7 23 15 9 8 31 15 51 15 23 0 33 4 31 13 -6 17
-46 21 -63 7 -19 -16 -41 -7 -48 20 -14 53 122 65 172 16z m221 20 c21 -26 8
-58 -30 -70 l-35 -11 -5 -75 -5 -75 -35 0 -35 0 -3 118 -3 117 35 0 c19 0 36
-6 38 -12 3 -9 9 -8 22 5 21 21 40 22 56 3z"/>
<path d="M4433 6193 c-8 -3 -13 -23 -13 -49 l0 -44 -38 0 c-29 0 -48 -8 -78
-34 l-40 -34 -32 34 -32 33 -97 -2 -98 -2 -3 -27 c-3 -28 -32 -41 -32 -15 0
41 -115 61 -184 32 -38 -16 -39 -22 -22 -96 0 -3 -8 -22 -19 -42 -19 -36 -19
-38 -1 -71 24 -45 73 -72 112 -61 16 4 81 8 144 9 l115 1 3 78 c4 95 22 103
22 10 0 -38 4 -74 9 -81 13 -22 101 -12 115 13 6 11 12 22 13 24 2 2 14 -8 29
-22 29 -30 75 -43 100 -29 10 5 44 7 76 5 52 -5 58 -4 58 13 4 163 -3 350 -13
356 -13 8 -75 9 -94 1z m92 -35 c3 -13 4 -88 3 -168 l-3 -145 -37 -3 c-30 -3
-38 0 -38 13 0 15 -1 15 -16 1 -31 -32 -134 -7 -134 32 0 6 -5 12 -11 14 -14
5 -14 101 1 106 5 2 10 9 10 16 0 26 38 48 84 48 25 0 49 -3 53 -5 4 -3 6 15
4 39 -4 62 2 74 43 74 29 0 37 -4 41 -22z m-577 -111 c20 -18 22 -30 22 -112
l0 -92 -85 -1 c-75 -1 -88 2 -105 21 -25 26 -26 79 -2 99 22 19 67 38 95 40
12 1 -2 4 -32 7 -35 4 -58 12 -65 23 -14 23 -4 30 47 38 57 9 97 1 125 -23z
m277 0 c11 -15 15 -49 15 -114 l0 -93 -40 0 -40 0 0 69 c0 78 -6 101 -26 101
-22 0 -34 -35 -34 -105 l0 -66 -42 3 -43 3 -3 113 -3 112 41 0 c23 0 40 -5 40
-11 0 -8 4 -8 13 -1 31 25 101 19 122 -11z"/>
<path d="M6910 6186 c-6 -6 -10 -27 -10 -48 0 -36 -2 -38 -32 -38 -35 0 -75
-22 -106 -58 l-20 -22 -5 22 c-10 40 -53 56 -151 56 -92 1 -117 -8 -108 -40 6
-26 -5 -22 -40 12 -26 26 -37 30 -84 30 -45 0 -100 -16 -122 -36 -2 -1 1 -18
7 -37 9 -27 9 -39 -4 -63 -31 -59 -14 -112 43 -138 28 -13 50 -16 69 -11 15 4
76 7 135 7 74 -1 109 3 117 11 5 7 12 44 14 82 l3 70 2 -71 c2 -85 12 -96 79
-92 41 3 48 6 51 26 3 21 22 32 22 12 0 -18 81 -52 109 -45 14 4 48 6 74 5 77
-2 77 -2 77 196 0 161 -1 173 -19 179 -27 8 -89 3 -101 -9z m98 -178 l2 -168
-35 0 c-22 0 -38 6 -41 15 -5 13 -8 12 -22 -1 -19 -19 -93 -14 -115 7 -23 24
-39 85 -31 124 12 65 50 90 127 85 26 -1 27 0 27 48 0 27 3 52 7 56 4 4 23 6
43 4 l35 -3 3 -167z m-304 50 c0 -2 7 -13 14 -25 7 -13 12 -58 12 -108 l0 -85
-40 0 -40 0 0 71 c0 72 -12 99 -44 99 -13 0 -16 -13 -16 -69 0 -93 -4 -101
-51 -101 l-39 0 0 115 0 115 66 -1 c36 -1 67 1 70 4 5 5 65 -9 68 -15z m-289
4 c32 -22 45 -64 45 -141 l0 -79 -90 0 c-80 0 -93 2 -110 21 -22 23 -26 64 -7
88 17 22 75 49 105 49 14 0 22 3 19 7 -4 3 -32 5 -62 4 -52 -1 -55 0 -55 22 0
13 3 27 7 30 9 9 135 9 148 -1z"/>
<path d="M4695 6183 c-54 -8 -55 -13 -55 -183 0 -185 0 -184 94 -184 78 0 146
19 179 50 33 30 43 30 51 1 8 -32 74 -62 113 -52 15 4 76 7 135 7 73 -1 109 3
117 11 5 7 12 42 14 77 l3 65 2 -71 c2 -79 6 -84 67 -84 61 0 65 5 67 89 l2
76 3 -70 c2 -38 9 -75 15 -82 13 -16 82 -17 109 -2 16 8 29 7 56 -6 23 -11 44
-14 61 -9 15 4 79 7 142 8 l115 1 3 78 c2 45 7 77 13 77 7 0 9 -26 7 -69 -4
-80 4 -91 61 -91 70 0 71 2 71 102 0 73 -4 97 -20 122 -28 47 -54 56 -155 53
l-90 -2 -3 -27 c-3 -28 -32 -41 -32 -15 0 38 -108 60 -176 35 -40 -14 -45 -25
-34 -72 4 -21 4 -36 -1 -36 -5 0 -9 9 -9 20 0 73 -98 126 -160 88 -15 -10 -24
-10 -38 -1 -11 6 -60 11 -111 12 l-92 0 -6 -29 c-7 -35 -14 -37 -31 -10 -7 11
-19 20 -27 20 -8 0 -15 5 -15 10 0 15 -112 11 -140 -5 -31 -18 -40 -18 -40 -2
0 26 -65 75 -119 91 -53 16 -85 17 -146 9z m181 -45 c24 -12 47 -31 50 -42 4
-12 11 -24 17 -28 6 -3 10 -34 10 -69 0 -62 0 -63 -47 -105 -51 -47 -90 -58
-186 -52 l-55 3 -3 145 c-1 79 0 150 2 157 4 9 29 13 87 13 64 0 91 -5 125
-22z m282 -88 c2 -6 10 -17 18 -24 10 -10 14 -40 14 -99 l0 -85 -90 0 c-80 0
-93 2 -110 21 -22 23 -26 64 -7 88 17 21 75 49 106 50 23 0 24 1 6 8 -11 4
-34 5 -52 1 -36 -9 -57 7 -51 37 6 31 156 34 166 3z m258 14 c13 -3 24 -11 24
-18 0 -6 5 -3 11 7 7 12 23 17 57 17 72 0 86 -22 90 -137 l4 -93 -40 0 c-48 0
-52 8 -52 101 0 61 -2 69 -19 69 -25 0 -31 -19 -31 -101 l0 -69 -44 0 c-50 0
-53 4 -54 78 0 28 -1 61 -1 72 -1 13 -8 20 -20 20 -23 0 -33 -36 -31 -102 3
-68 3 -68 -40 -68 l-40 0 0 115 0 115 60 -2 c33 -1 63 2 67 6 4 3 13 4 21 1 8
-3 25 -8 38 -11z m402 -17 c20 -18 22 -30 22 -113 l0 -92 -82 0 c-71 0 -86 3
-105 21 -54 49 4 137 89 137 12 0 18 3 15 7 -4 3 -27 6 -51 5 -28 -1 -48 3
-56 13 -41 49 115 70 168 22z m275 5 c14 -12 17 -32 17 -114 l0 -99 -37 3 -38
3 -3 60 c-3 80 -9 105 -27 105 -23 0 -37 -37 -35 -93 3 -79 3 -77 -39 -77 -26
0 -41 5 -45 16 -3 9 -6 60 -6 115 l0 99 40 0 c23 0 40 -5 40 -11 0 -8 4 -8 13
-1 28 23 90 20 120 -6z"/>
<path d="M4750 6000 c0 -55 3 -100 6 -100 34 0 87 28 100 51 16 32 19 89 4 89
-5 0 -10 7 -10 15 0 14 -59 45 -86 45 -11 0 -14 -22 -14 -100z"/>
<path d="M7195 6183 c-72 -15 -65 5 -65 -183 0 -108 4 -171 11 -175 19 -12
143 -9 184 4 50 17 105 57 105 77 0 8 5 12 10 9 6 -3 10 -21 10 -38 0 -50 11
-59 65 -55 45 3 54 9 71 46 1 2 13 -8 27 -22 31 -31 71 -42 100 -29 12 6 37 8
54 6 18 -3 44 -2 58 1 l25 6 0 123 c0 82 -4 127 -12 135 -7 7 -33 12 -59 12
-56 0 -59 -5 -59 -100 0 -103 -19 -97 -22 7 l-3 88 -60 0 -61 0 4 28 c6 40
-22 67 -69 67 -44 0 -64 -24 -57 -71 6 -37 -1 -36 -32 1 -38 46 -153 79 -225
63z m158 -39 c60 -31 72 -51 75 -134 4 -69 2 -77 -21 -102 -46 -50 -94 -68
-178 -68 -61 0 -78 3 -83 16 -3 9 -6 73 -6 144 0 71 3 135 6 144 9 23 162 23
207 0z m197 -189 l0 -115 -40 0 -40 0 0 115 0 115 40 0 40 0 0 -115z m131 108
c1 -5 3 -33 4 -64 4 -81 12 -101 36 -89 16 9 19 22 19 85 l0 75 40 0 40 0 0
-115 0 -115 -30 0 c-21 0 -30 5 -30 17 0 15 -1 15 -18 0 -25 -23 -94 -22 -114
1 -28 34 -39 76 -37 144 l2 68 44 0 c23 0 44 -3 44 -7z"/>
<path d="M7236 6084 c-9 -22 -7 -157 2 -171 5 -9 18 -9 50 0 37 10 44 16 53
49 16 63 4 102 -40 121 -47 21 -57 21 -65 1z"/>
<path d="M5081 5116 c-8 -9 -11 -46 -9 -103 l3 -88 47 -3 c26 -2 57 2 68 8 16
9 25 8 35 0 9 -7 37 -10 70 -8 54 3 54 3 32 -14 -12 -10 -25 -18 -29 -18 -5 0
-8 -15 -8 -33 0 -56 50 -84 101 -57 24 13 26 74 4 97 -9 8 -14 17 -12 20 3 2
60 4 128 4 82 1 126 5 131 12 4 7 8 33 8 60 0 50 -23 86 -57 88 -10 1 -25 2
-33 3 -8 2 -29 3 -46 4 -22 1 -33 8 -37 22 -7 27 -86 29 -93 2 -7 -24 -52 -44
-75 -32 -10 6 -30 10 -46 10 -15 0 -41 9 -58 20 -35 23 -107 27 -124 6z m117
-35 c27 -23 30 -84 5 -111 -17 -17 -53 -25 -95 -22 -15 2 -18 13 -18 77 l0 75
43 0 c29 0 52 -7 65 -19z"/>
<path d="M5548 3550 c-21 -13 -13 -46 13 -53 16 -4 19 -14 19 -60 0 -65 17
-86 54 -69 19 8 30 6 55 -9 17 -10 31 -23 31 -29 0 -5 14 -10 30 -10 26 0 30
-4 30 -28 0 -38 28 -62 73 -62 39 0 57 19 57 63 0 25 -27 57 -51 58 -40 1 39
18 88 18 86 0 95 0 133 -3 60 -4 71 7 66 70 -6 85 -22 96 -126 94 -114 -3
-120 -2 -120 15 0 10 -10 15 -30 15 -18 0 -33 -6 -36 -15 -7 -18 -94 -21 -110
-5 -15 15 -54 21 -54 9 0 -5 8 -9 17 -7 10 2 19 -4 21 -15 3 -16 -2 -18 -37
-14 l-40 4 -3 -64 c-4 -82 -22 -87 -26 -5 -2 40 -7 62 -15 62 -7 0 -18 4 -26
9 -12 8 -12 12 -2 25 15 18 13 19 -11 6z"/>
</g>
</svg>
