<?xml version="1.0" standalone="no"?>
<!DOCTYPE svg PUBLIC "-//W3C//DTD SVG 20010904//EN"
 "http://www.w3.org/TR/2001/REC-SVG-20010904/DTD/svg10.dtd">
<svg version="1.0" xmlns="http://www.w3.org/2000/svg"
 width="1315.000000pt" height="1411.000000pt" viewBox="0 0 1315.000000 1411.000000"
 preserveAspectRatio="xMidYMid meet">
<metadata>
Created by potrace 1.16, written by Peter Selinger 2001-2019
</metadata>
<g transform="translate(0.000000,1411.000000) scale(0.100000,-0.100000)"
fill="#000000" stroke="none">
<path d="M6015 14093 c-13 -32 -44 -197 -45 -238 -1 -70 1 -69 -197 -75 -189
-6 -224 -14 -274 -61 -83 -78 -243 -386 -292 -562 -52 -184 -63 -218 -95 -287
-9 -19 -29 -50 -46 -67 -37 -40 -74 -42 -131 -8 -22 14 -49 29 -60 35 -11 6
-33 19 -50 30 -16 11 -37 23 -45 26 -8 4 -22 12 -30 19 -19 15 -149 68 -219
91 -51 16 -61 16 -165 0 -61 -9 -136 -23 -166 -31 -129 -32 -186 -48 -205 -55
-67 -27 -133 -61 -142 -72 -12 -16 -43 -138 -43 -171 0 -46 -33 -132 -64 -164
-56 -60 -141 -41 -226 52 -67 73 -190 132 -190 91 0 -8 -6 -30 -14 -48 -8 -18
-24 -58 -36 -88 -43 -106 -88 -196 -116 -229 -24 -29 -31 -32 -63 -26 -20 4
-41 11 -48 17 -7 5 -34 15 -60 22 -84 22 -120 -5 -158 -123 -10 -30 -28 -69
-40 -87 -40 -59 -65 -162 -65 -269 0 -96 0 -97 33 -129 18 -17 49 -44 70 -61
l38 -30 5 -102 c5 -102 5 -104 -27 -160 -62 -112 -69 -127 -69 -153 0 -30 32
-94 66 -130 66 -70 85 -97 100 -136 30 -78 -8 -154 -118 -237 -20 -16 -51 -50
-68 -77 l-31 -48 23 -46 c12 -25 26 -46 30 -46 4 0 8 -4 8 -9 0 -6 12 -23 26
-38 15 -15 58 -64 97 -108 39 -44 74 -81 79 -83 4 -2 8 -8 8 -13 0 -9 38 -68
51 -79 3 -3 11 -25 18 -50 36 -127 49 -286 31 -372 -16 -77 -68 -190 -102
-221 -43 -40 -85 -104 -98 -152 -22 -79 18 -162 115 -235 29 -22 126 -67 160
-76 79 -18 123 -73 112 -140 -7 -43 -77 -185 -94 -191 -7 -3 -13 -9 -13 -14 0
-6 -9 -20 -21 -32 -11 -12 -39 -46 -62 -76 l-42 -54 0 -206 c0 -113 -2 -213
-3 -221 -10 -58 -81 -77 -327 -89 -185 -8 -233 -19 -273 -58 -30 -29 -106
-133 -148 -203 -21 -36 -41 -67 -44 -70 -24 -24 -40 -76 -40 -131 0 -52 5 -72
35 -125 19 -34 53 -81 75 -104 22 -23 40 -46 40 -51 0 -5 4 -9 8 -9 5 0 29
-19 53 -43 24 -23 80 -72 124 -107 130 -106 165 -144 165 -178 0 -25 -18 -75
-48 -134 -2 -5 8 -8 21 -8 27 0 101 -75 91 -92 -3 -4 -9 -6 -13 -3 -5 2 -13
-7 -19 -20 -13 -27 -23 -30 -53 -15 -23 13 -25 52 -4 70 21 18 19 40 -5 40
-12 0 -24 -9 -29 -22 -5 -15 -10 -18 -15 -9 -6 9 -12 8 -27 -5 -18 -16 -17
-18 26 -67 55 -63 50 -76 -8 -19 -44 43 -62 51 -70 30 -6 -17 9 -47 41 -80 14
-15 22 -31 18 -35 -4 -5 -24 11 -44 35 -39 45 -72 55 -72 22 0 -10 13 -35 30
-53 16 -19 30 -41 30 -48 0 -16 -66 46 -88 84 -9 15 -22 27 -30 27 -52 0 -183
103 -228 180 -10 16 -22 30 -26 30 -4 0 -8 4 -8 10 0 13 -33 54 -97 117 -47
48 -57 53 -96 53 -38 0 -48 -5 -90 -48 -26 -26 -47 -51 -47 -55 0 -10 -17 -32
-58 -73 -60 -61 -136 -58 -265 9 -165 85 -227 78 -284 -35 -54 -107 -83 -175
-83 -193 0 -27 -42 -154 -77 -235 -9 -19 -22 -48 -29 -65 -7 -16 -46 -100 -88
-185 -114 -238 -147 -314 -166 -387 -11 -44 -41 -94 -65 -107 -11 -6 -22 -14
-25 -18 -3 -3 -37 -14 -75 -23 -58 -14 -105 -16 -275 -11 -253 7 -268 4 -287
-69 -38 -147 8 -524 93 -769 23 -66 85 -127 167 -165 37 -17 73 -31 81 -31 7
0 39 -11 70 -25 99 -44 192 -148 246 -275 45 -108 106 -172 222 -232 22 -12
67 -46 99 -76 124 -114 167 -207 144 -307 -6 -27 -16 -59 -22 -70 -48 -85 -57
-201 -22 -280 72 -164 150 -215 215 -142 17 17 33 39 37 47 4 8 16 29 27 45
11 17 24 39 30 50 31 58 71 116 102 148 38 39 128 68 216 69 83 1 96 -7 132
-78 13 -25 39 -58 57 -75 29 -25 42 -29 94 -29 33 0 76 7 96 15 19 8 44 15 54
15 21 0 25 15 9 25 -8 5 -8 11 -1 19 11 14 5 26 -13 26 -6 0 -5 -4 2 -9 10 -6
5 -11 -17 -20 -16 -7 -35 -10 -42 -5 -7 4 -10 3 -5 -4 8 -14 -25 -32 -60 -32
-23 0 -25 2 -14 15 10 13 11 18 1 28 -10 9 -11 8 -6 -4 4 -10 0 -19 -11 -23
-15 -6 -15 -4 -3 11 12 15 12 16 -2 11 -27 -10 -46 35 -29 67 7 14 19 25 26
25 7 0 16 5 20 12 4 7 3 8 -4 4 -7 -4 -12 -5 -12 -3 0 3 18 14 40 25 40 19 41
19 51 1 6 -12 6 -19 0 -19 -5 0 -12 6 -14 13 -4 9 -6 9 -6 -1 -1 -7 -14 -25
-31 -39 -32 -26 -39 -57 -17 -70 8 -4 19 -17 26 -28 9 -14 11 -15 7 -3 -3 10
-1 20 4 23 6 4 10 -2 11 -12 0 -12 4 -9 11 10 5 15 15 28 21 28 7 1 26 3 42 5
22 2 36 -3 53 -21 13 -14 20 -25 15 -25 -4 0 2 -7 13 -15 10 -8 31 -15 46 -15
15 0 76 -25 135 -56 171 -89 204 -99 313 -99 93 0 97 1 157 38 35 21 63 43 63
48 0 5 7 9 15 9 8 0 15 4 15 8 0 4 12 15 28 24 15 10 41 29 57 43 17 15 58 48
93 73 34 25 62 49 62 54 0 4 6 8 14 8 8 0 16 4 18 9 2 5 43 39 91 75 120 90
155 89 256 -1 48 -43 138 -84 190 -86 42 -2 55 3 90 31 75 60 99 66 213 47 60
-10 135 -16 192 -13 84 3 96 6 130 32 38 28 38 30 34 84 -3 31 -10 58 -16 60
-7 2 -12 10 -12 18 0 8 -6 14 -14 14 -8 0 -16 4 -18 9 -1 4 -46 27 -99 50
-149 65 -171 102 -149 248 14 96 34 145 75 183 24 22 35 25 98 24 61 -1 83 -7
147 -38 41 -21 89 -46 105 -56 17 -11 37 -23 45 -27 8 -4 21 -12 30 -19 8 -7
56 -43 105 -79 50 -37 92 -71 93 -76 2 -5 10 -9 18 -9 8 0 14 -4 14 -8 0 -5
27 -28 60 -52 33 -24 60 -47 60 -52 0 -4 7 -8 15 -8 8 0 15 -3 15 -7 0 -5 29
-27 63 -51 64 -42 117 -93 117 -112 0 -5 4 -10 8 -10 4 0 20 -27 36 -61 15
-33 45 -78 65 -98 43 -43 144 -94 241 -123 60 -17 68 -17 105 -3 27 10 54 32
78 63 20 26 53 66 74 89 38 43 39 43 108 43 65 0 120 -7 363 -47 119 -20 140
-39 165 -144 9 -41 17 -86 17 -100 0 -42 31 -121 62 -155 31 -34 74 -49 243
-83 160 -32 206 -60 245 -149 25 -56 27 -181 4 -261 -38 -135 -45 -161 -72
-246 -39 -122 -62 -230 -62 -288 0 -42 30 -132 49 -147 3 -3 12 -17 20 -32 8
-15 22 -37 33 -47 10 -11 18 -23 18 -27 0 -3 13 -23 28 -43 31 -39 64 -106 80
-161 21 -71 35 -126 42 -165 18 -97 63 -228 88 -255 27 -29 112 -72 162 -82
25 -5 135 -12 245 -16 225 -8 234 -11 269 -86 11 -23 22 -43 25 -46 7 -6 40
-52 96 -135 62 -92 105 -213 105 -298 0 -20 5 -48 11 -64 6 -15 14 -46 19 -68
11 -54 27 -98 63 -170 34 -71 60 -101 93 -109 33 -9 48 1 30 19 -8 9 -12 24
-8 37 l5 22 8 -22 c5 -12 13 -22 19 -22 6 0 9 -4 6 -8 -7 -11 36 -13 49 -2 5
5 28 10 50 12 34 3 43 8 57 37 10 20 26 36 38 38 22 3 28 -12 8 -21 -7 -2 -2
-3 12 -1 14 2 68 4 121 4 l95 1 -1 28 c-1 15 -5 33 -9 40 -4 7 -3 12 2 12 13
0 26 -29 30 -67 2 -9 21 -13 62 -13 47 0 64 4 80 20 11 11 15 20 8 20 -15 0
-1 13 17 16 18 3 20 -17 3 -35 -8 -9 -8 -11 -2 -8 7 4 15 -1 18 -10 6 -14 24
-15 178 -9 165 6 254 20 343 54 63 23 185 86 185 94 0 5 5 8 11 8 5 0 45 26
87 58 93 70 140 99 301 185 42 22 78 44 79 49 2 4 9 8 16 8 20 0 101 92 119
135 10 22 21 74 25 115 9 87 -8 317 -28 370 -32 87 -106 174 -278 330 -109 99
-152 168 -152 244 0 68 22 107 116 207 35 38 64 72 64 77 0 13 126 142 139
142 6 0 11 4 11 9 0 8 161 116 215 143 76 38 183 91 210 103 72 33 144 64 195
85 30 12 69 27 85 34 17 8 50 21 75 31 25 9 59 23 75 30 17 7 50 21 75 30 25
10 73 31 107 46 64 29 131 38 191 25 17 -4 32 -12 32 -17 0 -5 4 -9 9 -9 4 0
44 -34 87 -75 43 -41 87 -78 96 -81 10 -3 18 -10 18 -15 0 -5 5 -9 10 -9 12 0
73 -41 78 -52 2 -5 10 -8 18 -8 8 0 14 -3 14 -7 0 -8 29 -26 100 -66 50 -27
170 -29 230 -2 174 76 384 316 528 600 8 17 19 38 24 49 22 43 68 183 68 206
0 35 -25 103 -55 150 -14 22 -25 42 -25 45 0 3 -4 11 -10 18 -5 7 -42 55 -82
107 -39 52 -82 105 -95 117 -13 12 -23 24 -23 26 0 12 -158 176 -409 428 -281
281 -311 312 -311 328 0 5 -3 11 -8 13 -30 13 -156 233 -187 328 -10 30 -24
72 -31 93 -26 70 -15 161 33 292 8 22 19 47 24 55 5 8 12 22 16 30 20 47 209
250 231 250 6 0 12 3 14 8 11 26 201 139 323 192 52 23 60 26 135 55 86 34
250 118 275 141 14 13 28 24 31 24 8 0 44 40 44 50 0 6 4 10 8 10 4 0 18 20
30 45 17 36 22 63 22 128 0 77 -2 86 -37 145 -34 57 -40 63 -63 57 -72 -18
-83 -14 -152 53 -39 38 -45 48 -35 61 10 12 9 14 -4 9 -9 -3 -25 4 -39 19
l-23 24 25 -3 c16 -2 44 -24 72 -55 50 -55 55 -66 29 -56 -11 4 -14 3 -9 -5 4
-7 13 -12 21 -12 7 0 16 -6 18 -12 3 -8 6 -9 6 -2 1 6 11 9 24 7 12 -2 29 1
37 7 20 14 -38 68 -241 221 -253 190 -328 270 -363 386 -17 57 -17 63 -2 118
17 57 50 117 81 148 9 9 18 34 21 54 65 516 81 570 218 713 69 72 83 113 61
180 -9 28 -21 50 -26 50 -5 0 -9 7 -9 15 0 8 -4 15 -8 15 -13 0 -106 131 -124
175 -31 74 -29 146 6 260 59 191 67 243 42 264 -8 7 -92 14 -232 18 -188 5
-228 4 -279 -11 -72 -20 -155 -56 -155 -68 0 -4 -5 -8 -11 -8 -13 0 -61 -52
-97 -105 -15 -22 -30 -41 -34 -43 -5 -2 -8 -8 -8 -13 0 -16 -38 -48 -64 -55
-56 -14 -99 81 -130 287 -9 59 -16 131 -16 160 -1 30 -7 90 -15 133 -12 71
-18 83 -57 123 -40 41 -149 102 -208 117 -14 4 -70 18 -125 31 -208 52 -254
70 -320 121 -58 46 -85 105 -85 191 0 38 7 92 15 119 19 62 19 104 0 140 -8
16 -15 36 -15 45 0 18 -16 27 -70 40 -82 19 -127 32 -152 45 -30 16 -64 18
-72 5 -4 -5 2 -7 13 -4 21 5 37 -12 21 -22 -5 -3 -10 -11 -10 -17 0 -7 4 -7
13 0 9 8 19 4 36 -14 13 -13 27 -21 32 -18 11 7 39 -14 39 -28 0 -6 -7 -8 -15
-5 -8 4 -17 2 -20 -3 -4 -6 -18 -4 -35 5 -20 10 -27 20 -23 34 4 14 0 19 -14
18 -13 -2 -17 4 -15 22 1 16 -2 22 -12 18 -16 -6 -51 27 -42 41 3 5 -7 8 -22
8 -36 -2 -51 10 -45 35 3 12 -2 29 -14 42 -11 12 -23 31 -26 42 -3 11 -19 59
-36 108 -18 51 -33 119 -37 165 -4 49 -13 85 -23 98 -21 26 -102 54 -156 54
-22 0 -46 5 -53 12 -16 16 -15 75 3 134 42 140 -2 177 -230 189 -155 8 -159 9
-180 42 -16 24 -55 184 -55 225 0 33 -42 112 -79 149 -40 40 -53 58 -77 109
-21 42 -24 122 -6 128 6 2 12 9 12 16 0 24 58 45 151 56 217 25 225 27 282 63
60 38 83 67 116 142 21 45 22 60 16 155 -12 186 -42 246 -150 300 -29 14 -73
22 -160 28 -169 12 -199 29 -234 132 -14 41 -36 167 -46 257 -7 62 -8 63 -43
73 -21 5 -46 10 -58 10 -39 0 -83 77 -91 158 -7 70 -16 88 -56 112 -73 45
-224 4 -354 -95 -26 -20 -120 -108 -210 -195 -90 -88 -165 -160 -168 -160 -3
0 -16 -10 -28 -23 -12 -13 -51 -43 -87 -69 -134 -94 -215 -111 -286 -60 -72
52 -94 140 -94 368 0 234 -29 332 -107 369 -50 24 -113 16 -159 -21 -103 -83
-104 -84 -165 -84 -34 0 -74 7 -96 17 -40 19 -162 130 -163 149 0 22 -79 101
-117 117 -21 9 -90 20 -155 25 -107 9 -122 13 -165 41 -25 17 -50 31 -55 31
-5 0 -13 10 -19 23 -21 47 -67 116 -103 155 l-30 32 -132 0 c-116 0 -133 -2
-139 -17z m-475 -1886 c0 -13 5 -28 12 -35 9 -9 7 -19 -12 -43 l-23 -32 24 7
c61 19 67 18 84 -8 21 -32 12 -62 -26 -81 -34 -18 -69 -6 -69 24 0 10 -18 37
-41 59 -46 46 -49 79 -11 98 13 6 29 17 35 23 17 17 27 13 27 -12z m-274 -372
c-1 -5 -8 -10 -14 -10 -6 0 -19 -10 -27 -22 -23 -33 -48 -28 -89 17 -42 47
-44 63 -11 94 22 20 23 24 8 38 -9 10 -12 21 -7 29 5 9 27 -9 76 -62 37 -41
66 -78 64 -84z m-362 -216 c32 -37 33 -72 4 -99 -30 -28 -49 -25 -86 11 -37
36 -41 70 -12 99 29 29 64 25 94 -11z m-414 -308 c0 -11 5 -23 10 -26 17 -10
11 -37 -12 -62 -25 -27 -12 -30 30 -6 29 17 31 17 51 -1 29 -26 26 -50 -10
-80 -45 -38 -89 -30 -89 16 0 10 -4 18 -10 18 -5 0 -10 6 -10 14 0 8 -9 17
-19 21 -41 13 -35 67 10 91 16 8 29 19 29 24 0 6 5 10 10 10 6 0 10 -9 10 -19z
m-192 -225 c53 -74 39 -92 -19 -25 -55 64 -83 33 -34 -39 28 -42 31 -52 11
-52 -7 0 -25 18 -40 40 -14 22 -33 40 -41 40 -29 0 -27 -30 4 -71 28 -39 32
-59 11 -59 -12 0 -80 100 -80 117 0 7 6 13 13 13 7 0 21 9 30 21 10 11 24 18
31 16 8 -3 18 5 25 19 17 39 52 31 89 -20z m5738 -661 c-3 -8 -1 -15 5 -15 6
0 7 -5 4 -10 -4 -6 -11 -8 -16 -5 -5 4 -9 1 -9 -5 0 -7 -6 -8 -19 0 -15 7 -23
6 -35 -6 -20 -19 -20 -25 -1 -18 8 4 15 10 15 16 0 5 4 7 10 3 5 -3 1 -14 -10
-25 -11 -11 -20 -25 -20 -31 0 -5 -6 -7 -12 -3 -7 5 -3 -5 10 -20 12 -16 20
-31 18 -35 -3 -4 5 -7 17 -8 12 0 16 1 10 4 -7 3 -13 9 -13 14 0 4 7 6 15 3 8
-3 26 3 40 14 15 12 33 18 41 15 8 -3 14 0 14 6 0 20 28 12 49 -15 11 -14 17
-32 14 -41 -4 -11 -2 -14 5 -9 15 9 16 -37 2 -64 -9 -17 -90 -70 -107 -70 -4
0 -2 4 6 9 8 5 16 17 17 25 1 9 -2 14 -7 10 -5 -3 -7 -10 -4 -15 4 -5 -1 -9
-9 -9 -10 0 -13 6 -10 15 6 15 17 19 44 15 8 -1 12 2 7 6 -4 4 1 17 11 28 24
27 34 54 22 61 -5 3 -7 12 -3 20 4 11 -2 15 -23 14 -25 0 -26 -1 -9 -9 17 -7
15 -9 -12 -9 -18 -1 -33 -5 -33 -10 0 -5 -16 -15 -35 -21 -30 -10 -40 -9 -60
4 -23 15 -37 35 -15 21 6 -3 10 1 10 9 0 9 -6 13 -14 10 -19 -7 -15 68 4 91
14 17 59 40 73 37 4 -1 7 3 7 8 0 6 3 10 6 10 3 0 4 -7 0 -15z m-479 -460 c0
-8 -8 -17 -17 -20 -10 -3 -17 -16 -17 -30 0 -14 3 -22 8 -19 12 7 62 -44 55
-55 -3 -5 3 -11 14 -14 11 -3 20 -11 20 -17 0 -10 -4 -10 -15 0 -9 7 -17 11
-20 8 -2 -2 9 -12 25 -22 26 -14 29 -15 24 -1 -5 12 -1 14 17 11 13 -2 29 1
36 6 14 11 33 2 33 -15 0 -7 -4 -6 -10 3 -7 11 -10 11 -10 2 0 -7 -5 -10 -11
-7 -6 4 -9 0 -7 -11 2 -15 -4 -19 -26 -19 -34 -1 -71 26 -93 68 -9 19 -18 27
-21 19 -3 -10 -7 -9 -16 4 -13 17 -75 27 -77 12 -1 -4 -2 -12 -3 -17 0 -5 -5
-13 -9 -18 -5 -4 -7 -3 -5 2 2 6 -1 10 -7 10 -5 0 -9 -4 -7 -8 5 -15 -19 -47
-36 -48 -10 0 -12 -3 -4 -6 6 -2 12 -9 12 -14 0 -6 -8 -6 -19 1 -14 7 -21 6
-23 -2 -3 -7 -7 -5 -11 6 -4 9 -3 15 2 12 5 -3 11 1 14 9 4 8 15 12 28 10 21
-4 22 -4 6 12 -16 16 -18 16 -30 -1 -11 -15 -15 -16 -19 -5 -3 8 -2 23 3 34 6
17 8 17 8 3 1 -20 29 -14 48 11 7 9 13 12 13 7 0 -5 10 3 21 18 12 15 23 25
26 22 3 -2 13 3 23 12 37 34 48 41 54 35 3 -4 6 -1 6 5 0 5 -6 13 -12 15 -7 3
-4 6 8 6 12 1 21 -5 21 -14z m-265 -253 c-2 -12 2 -22 8 -22 6 0 8 5 5 10 -11
18 0 10 30 -21 29 -31 29 -32 5 -25 -19 6 -21 5 -10 -3 8 -6 24 -11 34 -11 11
0 17 -3 13 -6 -8 -8 34 -54 45 -48 5 3 7 0 6 -8 -2 -7 3 -12 10 -10 6 1 12 -2
12 -8 0 -5 -5 -10 -11 -10 -5 0 -7 -4 -4 -10 3 -5 -12 -28 -34 -51 -32 -31
-46 -39 -62 -34 -15 5 -19 4 -15 -4 5 -7 -1 -11 -14 -11 -14 0 -19 4 -14 12 5
8 2 9 -9 5 -10 -3 -17 -2 -17 4 0 6 -4 8 -9 5 -13 -8 -44 43 -38 64 3 12 -1
17 -16 16 -11 -1 -32 14 -50 36 -25 31 -28 40 -17 53 11 13 27 15 18 2 -1 -3
9 -15 25 -27 15 -12 27 -27 27 -35 0 -7 6 -15 14 -18 19 -8 59 -66 44 -63 -7
1 -20 5 -28 10 -12 7 -11 5 1 -8 9 -10 34 -19 55 -20 22 -1 46 -6 53 -11 11
-6 13 -4 8 8 -4 11 -1 17 8 17 7 0 19 15 26 34 9 24 17 33 28 29 14 -4 14 -3
1 5 -8 6 -17 9 -21 6 -11 -6 -31 24 -24 36 3 5 1 10 -6 10 -19 0 -108 102
-102 117 8 21 28 9 25 -15z m-5335 -1928 c-3 -4 0 -19 9 -35 13 -26 13 -30 -6
-49 -18 -18 -27 -40 -16 -40 2 0 20 7 39 15 32 13 37 13 51 -1 9 -8 16 -24 16
-34 0 -26 -38 -60 -67 -60 -19 0 -28 10 -45 50 -11 28 -27 50 -34 50 -8 0 -17
12 -20 27 -6 22 -2 31 27 55 18 15 38 28 43 28 5 0 7 -3 3 -6z m-358 -304 c55
-76 57 -80 40 -80 -7 0 -22 -11 -35 -25 -30 -33 -47 -32 -78 6 -34 40 -33 72
2 98 24 17 25 22 15 40 -15 24 -16 31 -4 31 5 0 32 -32 60 -70z m-759 -653 c0
-6 -7 -19 -17 -29 -23 -26 -7 -35 27 -15 39 24 70 9 70 -33 0 -53 -81 -84 -96
-37 -10 31 -37 66 -51 67 -11 0 -33 30 -33 45 0 4 17 23 37 41 l37 34 13 -31
c7 -17 13 -36 13 -42z m9549 -223 c17 -4 31 -13 31 -21 0 -8 4 -12 9 -9 5 3
14 -1 21 -9 11 -13 10 -14 -6 -8 -17 6 -17 5 -5 -11 8 -9 20 -15 28 -12 17 7
17 -8 0 -23 -11 -8 -18 -7 -30 7 -8 9 -16 22 -16 27 -1 6 -21 10 -46 11 -25 1
-48 4 -52 8 -13 12 -25 6 -14 -8 9 -11 5 -15 -19 -19 -16 -4 -30 -11 -30 -17
0 -6 5 -8 10 -5 6 3 10 -1 10 -9 0 -9 5 -16 11 -16 5 0 7 6 3 13 -5 8 -2 7 9
-2 23 -19 86 -97 70 -88 -7 5 -13 4 -13 -2 0 -6 6 -11 13 -11 21 0 60 -47 51
-61 -5 -9 -2 -10 9 -6 20 7 24 -18 5 -29 -11 -7 -87 71 -88 92 0 5 -13 20 -30
32 -16 13 -30 27 -30 33 0 5 -11 21 -25 35 -29 29 -31 42 -7 51 9 4 32 19 50
35 36 31 36 31 81 22z m-3481 -321 c16 -36 15 -62 -3 -69 -8 -4 -15 -12 -15
-20 0 -18 4 -17 40 1 35 18 54 12 68 -20 15 -32 8 -47 -27 -68 -39 -23 -52
-16 -80 43 -13 28 -29 50 -35 50 -17 0 -38 39 -32 58 5 14 49 48 66 51 3 0 11
-11 18 -26z m-341 -269 c56 -72 61 -84 40 -84 -7 0 -20 -9 -30 -20 -22 -26
-49 -25 -74 3 -46 50 -47 98 -3 112 20 6 20 8 6 31 -19 28 -20 37 -4 32 7 -3
36 -36 65 -74z m-779 -626 c11 -29 10 -36 -8 -60 -27 -37 -25 -41 11 -23 43
23 73 16 77 -16 2 -19 -5 -33 -28 -53 -17 -14 -38 -26 -45 -26 -14 0 -33 26
-33 44 1 5 -14 24 -32 42 -26 27 -31 39 -26 59 4 15 17 30 31 35 14 5 25 14
25 20 0 21 16 9 28 -22z m-3707 -277 c-10 -6 -11 -13 -2 -29 14 -26 15 -136 1
-127 -5 3 -10 2 -10 -3 0 -14 28 -23 32 -11 2 5 17 7 36 3 26 -5 30 -9 21 -21
-10 -11 -8 -12 16 -3 31 12 48 4 25 -11 -11 -7 -8 -8 12 -3 15 3 35 1 45 -4
16 -9 15 -11 -10 -17 -17 -5 -39 -2 -55 5 -15 7 -36 14 -47 15 -11 2 -28 6
-37 10 -13 5 -18 2 -18 -10 0 -9 -4 -14 -9 -11 -14 9 -42 -5 -35 -16 4 -6 9
-6 14 2 6 9 14 5 31 -14 13 -15 24 -33 24 -39 1 -7 6 -11 12 -10 18 4 24 -27
7 -34 -22 -8 -52 23 -36 39 9 9 8 16 -5 30 -9 10 -21 18 -26 18 -6 0 -2 -9 8
-20 10 -11 13 -20 8 -20 -6 0 -23 17 -39 37 -15 20 -22 33 -16 29 7 -4 12 -2
12 3 0 6 -6 11 -14 11 -8 0 -16 7 -20 15 -3 8 -1 15 5 15 6 0 7 5 4 10 -5 8
-12 7 -23 -2 -14 -11 -15 -10 -9 6 6 14 4 17 -8 12 -9 -3 -14 -2 -11 3 3 5 -1
11 -9 15 -9 3 -12 12 -8 22 5 13 2 16 -10 11 -12 -4 -14 -2 -10 10 4 11 2 14
-5 9 -7 -4 -12 -3 -12 3 0 5 6 12 13 15 6 4 2 4 -10 2 -13 -2 -29 4 -38 14
-16 17 -15 19 3 29 15 8 23 7 32 -4 7 -8 9 -15 5 -15 -4 0 4 -9 19 -21 14 -11
24 -24 21 -29 -3 -4 2 -11 11 -14 8 -3 12 -11 8 -17 -4 -7 -3 -9 3 -6 6 4 23
-9 38 -29 l28 -37 18 24 c23 29 24 40 4 33 -8 -4 -15 -1 -15 5 0 6 7 11 15 11
13 0 11 5 -5 23 -18 18 -19 23 -6 25 9 2 16 8 16 14 0 5 -6 8 -14 5 -8 -3 -13
0 -12 8 3 18 26 45 40 45 6 0 5 -4 -3 -9z m6527 -55 c12 -14 18 -27 13 -30 -5
-4 -14 2 -20 11 -6 10 -11 13 -11 7 0 -15 25 -36 33 -27 11 10 70 -55 64 -71
-3 -8 2 -20 11 -28 16 -12 16 -11 2 6 -13 17 -13 19 0 14 8 -3 15 -17 15 -31
-1 -15 5 -27 12 -27 7 0 10 7 6 17 -4 11 -3 14 5 9 7 -4 12 -1 12 8 0 9 6 16
13 17 10 0 10 2 0 6 -16 6 -17 23 -2 23 5 0 15 -13 20 -30 11 -29 23 -38 32
-22 2 4 2 1 1 -5 -4 -17 13 -17 18 -1 3 9 15 9 49 -2 24 -7 47 -13 52 -12 4 1
7 -5 7 -13 0 -20 -9 -19 -33 3 -19 16 -20 16 -14 0 4 -10 2 -18 -3 -18 -6 0
-10 5 -10 10 0 6 -7 10 -16 10 -8 0 -12 5 -9 10 3 6 1 10 -4 10 -6 0 -11 -7
-11 -16 0 -8 -4 -13 -9 -10 -5 3 -26 8 -46 11 -35 4 -36 3 -22 -13 8 -9 17
-28 19 -42 1 -14 8 -25 14 -25 6 0 18 -8 27 -17 19 -18 23 -33 7 -23 -5 3 -10
-2 -11 -12 0 -14 -2 -15 -6 -3 -4 8 -13 20 -21 26 -14 10 -21 28 -24 59 -1 6
-8 17 -17 25 -13 13 -14 12 -7 -5 4 -11 10 -27 13 -35 3 -8 -14 12 -38 45 -24
33 -50 66 -59 73 -8 8 -10 11 -4 8 7 -3 15 1 18 10 3 8 2 13 -2 11 -10 -6 -42
30 -34 39 4 4 1 4 -7 -1 -12 -7 -11 -10 4 -21 10 -8 16 -16 13 -19 -8 -8 -73
69 -70 83 2 8 -1 11 -7 7 -7 -3 -8 0 -5 9 8 21 15 20 42 -8z m-531 -533 c-4
-3 -2 -12 3 -18 13 -16 -32 -49 -47 -34 -6 6 -14 4 -23 -6 -11 -13 -10 -15 6
-9 18 5 18 5 2 -9 -10 -8 -15 -17 -11 -20 3 -4 1 -7 -5 -7 -7 0 -12 5 -12 12
0 6 -3 8 -7 4 -4 -4 3 -16 17 -26 19 -15 22 -21 12 -33 -10 -11 -9 -17 5 -28
16 -13 17 -12 4 4 -11 14 -11 17 0 18 28 2 35 5 82 28 43 21 51 22 73 10 34
-18 56 -62 48 -95 -5 -19 -9 -22 -15 -12 -6 9 -9 7 -9 -8 0 -12 -7 -27 -15
-34 -12 -10 -15 -10 -15 4 0 9 5 16 11 16 5 0 7 5 3 12 -5 8 -14 -2 -25 -28
-10 -21 -18 -35 -18 -30 -1 5 -10 1 -22 -10 -17 -16 -22 -16 -29 -4 -12 19 -8
32 11 39 12 3 12 1 -1 -14 -13 -16 -13 -18 0 -12 8 4 23 10 33 13 9 4 17 10
17 15 0 5 -8 6 -17 3 -14 -4 -13 -2 2 7 11 7 24 18 28 26 5 7 12 11 18 8 11
-8 11 2 0 43 -8 27 -7 32 7 32 14 0 14 2 3 9 -17 11 -43 3 -35 -10 3 -5 -4 -9
-15 -9 -11 0 -39 -10 -62 -22 -38 -20 -44 -20 -68 -7 -16 9 -25 22 -23 33 2
10 0 16 -5 13 -15 -10 -7 59 10 84 9 13 17 19 17 14 0 -6 3 -5 8 1 4 5 18 18
32 27 25 17 39 23 27 10z m-337 -323 c5 0 7 6 4 13 -3 9 5 13 25 12 16 0 29
-4 28 -10 -1 -5 4 -9 11 -7 6 1 12 -2 12 -7 0 -5 7 -16 15 -25 13 -13 12 -18
-11 -46 -15 -17 -29 -29 -31 -26 -3 2 -18 -11 -35 -29 -24 -29 -27 -37 -18
-55 7 -14 8 -26 1 -38 -7 -10 -11 -12 -11 -4 0 7 -4 10 -10 7 -6 -3 -7 1 -4 9
4 10 -1 18 -11 22 -9 4 -14 13 -11 21 3 8 2 12 -3 9 -18 -11 -42 21 -46 59 -3
46 16 85 54 108 22 14 26 14 29 1 2 -7 7 -14 12 -14z m-6672 0 c15 0 15 2 2
11 -12 8 -10 9 8 4 12 -4 37 -19 54 -35 36 -34 35 -38 -43 -97 -44 -34 -65
-73 -38 -73 5 0 7 -4 4 -10 -3 -5 3 -10 14 -10 11 0 23 -5 27 -11 4 -8 -1 -9
-17 -5 -20 6 -21 5 -6 -4 21 -13 38 -5 30 15 -3 9 1 15 8 16 51 3 83 30 73 62
-3 9 -1 17 5 17 17 0 13 -47 -5 -64 -8 -9 -20 -16 -25 -16 -6 0 -8 -4 -5 -8 3
-5 -8 -16 -24 -25 -27 -17 -54 -17 -91 -2 -16 6 -86 95 -74 95 3 0 -1 10 -9
23 -20 31 -10 70 27 104 17 15 25 20 18 10 -12 -15 -12 -17 3 -11 9 3 16 1 16
-5 0 -10 -14 -15 -34 -12 -5 1 -6 -5 -3 -14 4 -8 2 -15 -3 -15 -12 0 -4 -38
12 -58 10 -12 10 -16 1 -19 -7 -3 -13 -9 -13 -14 0 -12 55 16 81 42 11 11 24
17 29 14 6 -4 10 1 10 9 0 8 5 18 12 22 8 5 9 2 5 -10 -4 -10 -3 -15 3 -11 6
3 10 13 10 21 0 8 5 12 10 9 6 -3 10 -1 10 5 0 6 -10 8 -25 4 -25 -6 -30 1
-26 34 1 6 -3 12 -9 12 -5 0 -10 -4 -10 -9 0 -8 -37 -9 -59 -2 -2 0 3 8 10 17
8 10 15 12 17 5 2 -6 11 -11 20 -11z m6431 -146 c31 -15 32 -17 16 -40 -9 -14
-13 -29 -10 -34 3 -6 -4 -10 -17 -10 -27 -1 -61 -24 -50 -35 4 -5 1 -5 -6 -1
-7 4 -15 1 -18 -8 -3 -9 -12 -16 -20 -16 -13 0 -15 -18 -4 -30 39 -40 72 -81
61 -75 -9 5 -12 3 -9 -6 3 -8 13 -13 22 -13 9 1 16 -2 16 -7 0 -9 44 -5 73 6
12 5 17 2 17 -9 0 -17 -35 -35 -85 -42 l-30 -4 30 14 c17 8 34 12 39 8 5 -3 6
0 2 6 -5 8 -15 8 -32 2 -33 -13 -68 -13 -39 0 19 8 19 9 -3 9 -13 1 -20 5 -17
11 3 6 0 10 -8 10 -20 0 -28 25 -14 39 9 9 8 11 -7 5 -13 -5 -23 -2 -32 10 -6
10 -20 16 -30 14 -9 -2 -19 3 -21 10 -4 9 3 11 23 8 21 -4 24 -2 16 6 -17 17
-15 33 3 18 20 -17 19 -6 -1 14 -21 22 -37 10 -23 -17 13 -25 2 -15 -29 26
-11 16 -19 34 -16 42 7 17 36 13 43 -6 9 -29 61 -53 61 -28 0 5 -5 7 -12 3 -7
-4 -8 -3 -4 4 4 6 13 9 21 5 11 -4 13 -1 9 11 -5 12 -2 15 10 10 11 -4 16 -2
14 7 -2 10 5 13 22 11 19 -2 21 -1 11 7 -12 8 -12 12 -2 25 12 15 8 20 -11 17
-10 -1 -10 23 -1 32 8 9 5 10 42 -9z"/>
</g>
</svg>
