<?xml version="1.0" standalone="no"?>
<!DOCTYPE svg PUBLIC "-//W3C//DTD SVG 20010904//EN"
 "http://www.w3.org/TR/2001/REC-SVG-20010904/DTD/svg10.dtd">
<svg version="1.0" xmlns="http://www.w3.org/2000/svg"
 width="981.000000pt" height="1301.000000pt" viewBox="0 0 981.000000 1301.000000"
 preserveAspectRatio="xMidYMid meet">
<metadata>
Created by potrace 1.16, written by Peter Selinger 2001-2019
</metadata>
<g transform="translate(0.000000,1301.000000) scale(0.100000,-0.100000)"
fill="#000000" stroke="none">
<path d="M2680 12668 c-1 -40 -7 -86 -14 -103 -8 -17 -10 -39 -5 -51 7 -20 12
-67 10 -90 -1 -7 -12 -14 -25 -18 -24 -6 -56 -70 -56 -112 0 -12 -9 -33 -20
-47 -24 -30 -26 -79 -5 -100 13 -13 13 -16 -1 -21 -9 -3 -25 -6 -37 -6 -38 -1
-57 -24 -64 -79 -3 -28 -10 -51 -14 -51 -5 0 -9 -11 -9 -25 0 -20 -9 -29 -47
-47 -68 -31 -73 -38 -55 -65 8 -13 15 -47 16 -76 1 -43 -5 -61 -31 -105 -18
-29 -33 -61 -33 -72 0 -32 -33 -42 -93 -30 -28 6 -64 14 -80 17 -21 4 -32 0
-48 -21 -52 -66 -82 -87 -117 -81 -18 3 -53 3 -77 -1 l-44 -6 -12 -57 c-7 -31
-17 -59 -21 -62 -21 -14 -164 18 -211 47 -102 62 -117 67 -159 53 -25 -8 -67
-10 -126 -6 -108 7 -143 -6 -221 -82 -29 -28 -57 -51 -62 -51 -28 0 -64 -19
-54 -28 4 -4 21 -7 38 -8 18 0 52 -4 77 -8 42 -7 44 -6 25 8 -47 36 -46 36
-19 61 35 33 54 32 24 0 l-23 -25 24 0 c21 0 69 -37 69 -54 0 -3 -12 -6 -27
-6 -32 -1 -55 -16 -71 -47 -14 -26 -67 -54 -88 -46 -8 3 -24 23 -35 45 l-20
40 -85 -4 c-59 -2 -87 -7 -93 -17 -5 -8 -26 -17 -47 -20 -30 -5 -40 -11 -42
-28 -3 -17 -12 -23 -46 -28 -23 -4 -51 -5 -62 -3 -16 2 -19 -2 -17 -27 1 -16
7 -31 13 -33 5 -2 10 -15 10 -29 0 -14 9 -41 21 -59 12 -21 18 -41 14 -54 -4
-14 3 -28 25 -50 23 -22 29 -36 25 -53 -5 -19 1 -29 30 -51 29 -22 35 -33 31
-51 -5 -21 36 -166 54 -190 4 -5 11 -27 14 -49 4 -21 19 -57 33 -78 13 -22 27
-55 30 -74 7 -40 33 -47 33 -9 0 15 6 25 15 25 11 0 14 -15 12 -77 -2 -63 1
-80 15 -92 10 -9 18 -21 18 -28 0 -7 13 -34 29 -60 16 -27 37 -71 46 -100 12
-36 24 -54 39 -59 40 -13 66 -46 66 -88 0 -31 6 -45 32 -68 41 -37 58 -36 58
2 0 23 11 42 46 75 25 25 52 45 60 45 16 0 19 16 4 25 -18 11 10 35 41 35 25
0 29 4 29 26 0 32 25 53 63 54 15 0 35 9 44 20 10 11 21 20 26 20 5 0 22 11
39 25 16 14 38 25 49 25 13 0 19 7 19 24 0 14 5 28 10 31 12 7 14 55 3 55 -5
0 -17 7 -28 16 -17 12 -18 16 -6 24 10 6 24 1 45 -17 l29 -25 13 24 c7 13 13
37 14 54 0 30 2 32 50 38 28 4 50 11 50 16 0 6 11 10 25 10 20 0 25 -5 25 -26
0 -17 6 -28 20 -31 11 -3 20 -9 20 -14 0 -5 7 -9 15 -9 8 0 23 -9 32 -20 24
-27 53 -25 83 7 36 38 106 66 147 60 29 -5 35 -3 43 19 5 13 28 42 51 62 l40
38 -18 32 c-10 17 -21 32 -25 32 -12 0 -9 48 3 56 6 3 33 -17 59 -45 42 -45
52 -51 69 -42 50 27 84 -2 39 -33 -17 -12 -35 -14 -70 -10 l-48 7 0 -38 c0
-22 -7 -46 -17 -57 -18 -20 -14 -21 43 -18 17 1 38 -6 47 -14 9 -9 33 -16 56
-16 22 0 44 -6 48 -13 4 -7 20 -18 36 -24 l27 -13 0 129 0 129 31 11 c18 6 42
11 55 11 30 0 64 45 64 85 0 32 21 52 40 40 11 -7 60 16 83 38 10 10 30 17 45
16 15 -1 55 -1 90 -1 50 2 66 6 85 25 12 12 26 21 31 19 5 -2 6 6 2 18 -20 65
-20 64 -3 57 14 -5 17 1 17 36 0 35 5 46 31 67 47 38 73 64 85 86 11 18 21 20
89 11 12 -1 38 -17 60 -34 43 -36 55 -40 55 -20 0 7 -10 17 -22 22 -35 15 -34
50 1 85 42 43 91 36 91 -12 0 -11 7 -18 20 -18 11 0 27 -11 35 -24 15 -22 15
-27 0 -56 -9 -17 -32 -38 -51 -47 -46 -22 -42 -47 9 -51 28 -2 39 1 44 15 10
26 25 39 55 46 15 4 36 22 48 41 20 33 55 55 67 42 3 -3 -1 -22 -10 -43 -11
-27 -22 -39 -41 -43 -14 -3 -38 -15 -54 -27 -80 -66 -92 -72 -125 -60 -18 6
-38 17 -46 25 -12 12 -16 9 -27 -17 -16 -39 -84 -69 -84 -38 0 7 14 18 30 24
19 7 30 18 30 30 0 31 -9 33 -35 7 -13 -13 -33 -24 -45 -24 -32 0 -60 35 -60
75 0 29 6 39 33 55 l32 20 -41 0 c-31 0 -46 -6 -62 -25 -12 -14 -22 -29 -22
-35 0 -5 -6 -13 -12 -17 -31 -19 -51 -53 -40 -66 7 -8 7 -18 2 -27 -18 -28
-10 -59 30 -109 57 -72 39 -89 -21 -20 -55 62 -64 50 -27 -38 30 -73 16 -84
-46 -37 -39 30 -106 61 -106 49 0 -1 18 -21 40 -43 45 -44 51 -79 20 -107 -28
-25 -65 -12 -100 37 -17 22 -30 45 -30 50 0 5 12 20 26 35 28 27 27 32 -2 34
-34 4 -59 -1 -77 -16 -17 -13 -15 -19 47 -97 68 -86 75 -98 53 -98 -7 0 -18
-9 -25 -20 -19 -30 -51 -24 -88 17 -40 44 -45 84 -12 107 21 15 21 16 3 36
-20 22 -57 26 -73 8 -5 -7 -13 -24 -17 -38 -9 -32 -44 -70 -63 -70 -8 0 -30
-12 -49 -26 -34 -26 -34 -27 -33 -102 3 -179 4 -172 -35 -172 -19 0 -35 4 -35
9 0 5 -25 13 -55 16 -44 6 -59 4 -74 -9 -25 -23 -33 -21 -74 20 -33 34 -40 36
-81 32 -25 -3 -58 -16 -77 -31 -65 -48 -131 -67 -167 -47 -66 37 -176 51 -186
25 -3 -9 -11 -15 -18 -14 -29 3 -38 -2 -38 -23 -1 -13 -7 -34 -15 -48 -8 -14
-15 -41 -15 -60 -1 -49 -50 -92 -138 -120 -33 -10 -48 -11 -67 -2 -51 24 -70
16 -98 -41 -34 -66 -35 -112 -5 -128 40 -21 50 -56 24 -82 -8 -7 -16 -25 -18
-38 -2 -17 -10 -25 -29 -27 -15 -2 -45 -19 -68 -38 -48 -41 -76 -39 -86 6 -4
17 -11 30 -16 30 -5 0 -9 7 -9 15 0 25 -49 30 -72 7 -19 -19 -20 -22 -4 -37 9
-9 16 -26 16 -39 0 -12 5 -27 12 -34 9 -9 9 -23 -1 -62 -13 -50 -13 -51 18
-85 17 -20 31 -42 31 -50 0 -8 4 -15 9 -15 5 0 12 -11 15 -25 4 -14 27 -59 52
-100 42 -69 45 -78 31 -93 -21 -24 -4 -45 52 -63 42 -13 45 -17 66 -79 12 -36
27 -78 33 -93 7 -16 12 -34 12 -42 0 -8 4 -16 9 -19 5 -4 12 -25 16 -49 4 -23
14 -51 21 -62 8 -11 14 -27 14 -36 0 -9 7 -30 15 -45 8 -16 15 -43 15 -60 0
-18 7 -45 15 -60 8 -16 15 -37 15 -46 0 -10 14 -43 30 -73 17 -30 30 -63 30
-73 0 -10 4 -22 10 -28 12 -12 15 -78 6 -121 -10 -44 17 -97 45 -88 14 5 21 0
27 -15 8 -22 9 -21 47 14 36 35 39 36 62 21 31 -20 102 -16 116 6 8 13 6 21
-7 34 -27 28 -16 50 27 53 21 2 45 -2 52 -8 20 -17 135 -50 173 -50 54 0 67
22 67 113 0 74 2 80 28 103 32 27 84 32 93 9 4 -8 11 -15 16 -15 6 0 24 -11
40 -25 23 -20 38 -24 58 -20 16 3 31 1 35 -4 10 -18 68 -12 93 9 13 11 26 34
29 52 3 18 10 36 16 40 6 3 13 33 15 66 4 53 7 61 36 78 40 24 124 46 147 39
10 -3 21 0 26 7 13 20 74 61 94 62 18 1 69 40 69 53 0 13 -14 28 -42 46 -19
12 -28 26 -28 45 0 15 -9 40 -19 56 -18 27 -18 33 -5 64 16 40 19 118 4 127
-5 3 -10 24 -10 45 0 49 27 71 77 63 27 -5 37 -2 49 16 10 13 26 21 45 21 25
0 29 4 29 28 0 21 -7 30 -29 38 -22 9 -30 20 -35 48 -5 24 -20 50 -43 72 -32
31 -34 38 -29 72 4 20 10 56 14 80 5 31 14 47 36 61 29 19 29 20 27 107 -1 49
-7 91 -12 95 -15 9 -62 -2 -74 -17 -5 -7 -21 -14 -35 -16 -23 -3 -25 -7 -30
-73 -4 -61 -8 -71 -30 -83 -16 -8 -39 -10 -65 -6 -22 4 -72 8 -110 9 -75 3
-155 34 -155 61 0 10 10 8 43 -9 32 -17 59 -22 117 -22 41 -1 85 -6 97 -13 54
-30 84 -3 76 70 -4 46 -2 57 19 81 28 32 100 57 172 59 38 0 50 5 53 19 8 27
42 28 78 2 19 -13 17 -14 -17 -8 -31 6 -38 4 -38 -9 0 -9 5 -16 10 -16 6 0 29
-12 51 -27 39 -26 41 -26 69 -10 42 25 55 20 23 -9 -23 -21 -33 -24 -63 -19
-19 4 -42 12 -50 19 -21 17 -89 36 -106 29 -16 -6 -18 -19 -4 -28 6 -3 10 -48
10 -101 0 -75 -3 -94 -14 -94 -33 0 -46 -30 -46 -105 0 -71 1 -75 35 -108 21
-21 35 -44 35 -59 0 -16 9 -29 24 -37 16 -9 26 -25 29 -48 4 -20 14 -44 23
-54 20 -22 15 -23 -37 -7 -35 10 -42 9 -77 -15 -21 -15 -49 -27 -63 -27 -18 0
-29 -8 -37 -25 -15 -32 -16 -85 -2 -85 6 0 10 -22 10 -50 0 -27 -4 -50 -10
-50 -15 0 -12 -40 5 -56 8 -9 15 -24 15 -35 0 -10 5 -19 10 -19 6 0 10 -6 10
-14 0 -8 13 -25 29 -38 16 -13 34 -33 40 -45 17 -33 -30 -80 -88 -89 -26 -4
-56 -18 -75 -34 -27 -24 -40 -28 -95 -28 -51 0 -68 -4 -84 -21 -17 -16 -19
-23 -9 -33 7 -7 12 -31 12 -55 l0 -43 43 1 c23 1 53 -4 66 -10 39 -21 150 19
209 75 26 25 59 53 74 61 22 14 68 86 68 108 0 4 17 24 38 44 64 63 79 87 74
120 -2 17 -8 31 -13 31 -14 0 -10 18 8 40 13 15 30 20 70 20 29 0 53 4 53 8 0
15 37 52 51 52 8 0 20 -9 27 -21 7 -11 21 -19 31 -17 30 5 69 -22 75 -53 4
-24 11 -29 34 -29 15 0 37 -7 48 -15 28 -21 41 -18 71 15 14 17 32 30 39 30 6
0 14 7 18 15 3 8 14 15 24 15 11 0 30 13 44 30 32 38 89 62 149 62 39 -1 49 3
54 19 8 26 -3 60 -29 84 -28 28 -66 82 -66 95 0 11 58 14 84 4 11 -4 16 -19
16 -44 0 -22 5 -40 13 -42 8 -3 13 -31 14 -84 1 -43 2 -82 2 -86 1 -5 7 -8 15
-8 7 0 19 -7 26 -16 8 -8 28 -21 47 -29 18 -8 33 -21 33 -29 0 -9 4 -16 9 -16
5 0 12 -14 16 -31 4 -17 13 -42 21 -57 8 -15 14 -33 14 -39 0 -7 4 -13 9 -13
5 0 11 -9 14 -20 3 -13 14 -20 31 -20 14 0 42 -7 63 -16 21 -9 53 -23 71 -30
82 -35 109 -50 140 -78 17 -16 32 -36 32 -43 0 -7 4 -13 9 -13 4 0 11 -16 14
-35 11 -65 74 -105 187 -120 25 -3 52 -11 61 -18 22 -17 59 -87 59 -112 0 -12
4 -25 9 -30 5 -6 11 -21 13 -35 3 -21 10 -26 57 -35 30 -6 56 -16 59 -23 2 -7
-3 -31 -12 -53 -21 -53 -21 -58 12 -70 34 -12 62 -64 62 -117 0 -31 8 -45 50
-86 28 -27 50 -52 50 -57 0 -9 57 -29 64 -22 3 4 3 24 0 45 -5 28 -2 48 12 73
17 33 22 35 67 35 43 0 48 -2 37 -15 -7 -8 -17 -15 -23 -15 -28 0 -51 -80 -27
-95 14 -9 13 -58 -2 -73 -21 -21 -73 -14 -116 18 -23 17 -42 34 -42 39 0 12
-42 56 -72 76 -16 9 -28 26 -28 36 0 10 -6 40 -12 65 -9 34 -20 50 -38 57 -61
26 -81 79 -40 105 32 20 14 42 -36 42 -42 0 -43 1 -50 38 -4 20 -10 42 -14 47
-4 6 -10 24 -14 40 -21 90 -53 115 -149 115 -60 0 -67 3 -106 36 -22 20 -41
42 -41 48 0 13 -35 80 -53 103 -60 73 -111 99 -176 87 -17 -3 -40 4 -66 20
-22 14 -52 31 -68 37 -15 6 -30 22 -33 35 -3 13 -10 24 -15 24 -5 0 -9 4 -9
10 0 5 -10 32 -22 60 -15 35 -31 54 -54 65 -32 15 -94 72 -124 114 -8 12 -25
21 -38 21 -28 0 -72 -28 -72 -45 0 -17 -79 -98 -110 -112 -14 -6 -42 -14 -63
-18 -34 -5 -38 -9 -35 -33 2 -21 9 -28 30 -30 39 -5 48 -45 19 -76 -11 -12
-21 -26 -21 -30 0 -5 -18 -25 -40 -46 -34 -32 -40 -44 -40 -79 0 -30 -4 -41
-15 -41 -9 0 -18 -7 -21 -15 -4 -8 -11 -15 -17 -15 -6 0 -39 -18 -73 -41 -39
-25 -79 -43 -106 -46 -24 -3 -56 -14 -73 -23 -22 -14 -61 -20 -155 -25 -117
-6 -130 -5 -204 19 -97 32 -100 32 -157 2 -39 -21 -55 -24 -102 -19 -35 4 -62
2 -70 -5 -18 -15 -123 -42 -164 -42 -19 0 -36 6 -41 17 -7 12 -18 15 -45 10
-45 -7 -68 -29 -97 -87 -12 -25 -25 -52 -29 -60 -4 -8 -19 -20 -32 -27 -13 -7
-42 -29 -64 -50 l-41 -38 8 -100 c9 -121 5 -148 -33 -186 -23 -23 -37 -29 -73
-29 -36 0 -47 5 -60 26 -13 18 -24 24 -44 22 -43 -5 -37 -30 13 -60 25 -15 45
-31 44 -35 -4 -24 4 -33 31 -33 23 0 33 -7 45 -30 9 -16 20 -30 25 -30 6 0 13
0 18 0 4 1 5 13 4 27 -5 31 13 44 50 36 17 -3 37 1 54 11 19 13 29 15 39 6 8
-6 33 -10 57 -9 24 1 53 -3 65 -9 12 -7 51 -12 87 -12 37 0 66 -4 66 -10 0 -5
7 -10 15 -10 8 0 15 -4 15 -10 0 -5 11 -10 25 -10 17 0 28 7 34 23 27 69 99
59 185 -27 53 -54 54 -56 54 -111 -1 -76 25 -105 94 -105 34 0 50 5 54 15 8
19 54 19 80 0 10 -8 30 -15 44 -15 25 0 68 -23 82 -44 4 -6 8 1 8 15 0 33 -36
59 -84 59 -33 0 -47 13 -39 38 5 14 33 17 33 3 0 -5 14 -12 30 -16 17 -4 30
-11 30 -16 0 -5 7 -9 15 -9 8 0 15 -3 15 -7 0 -5 16 -26 35 -48 20 -22 45 -59
56 -82 19 -39 66 -73 101 -73 8 0 23 -7 34 -15 26 -20 54 -19 107 4 33 14 46
26 49 45 5 26 -17 56 -40 56 -17 0 -15 47 3 54 8 3 21 -2 30 -10 9 -9 22 -13
30 -10 8 3 22 -6 33 -21 l19 -26 20 29 c11 16 24 51 28 78 9 63 50 105 125
131 57 19 80 35 80 55 0 23 32 80 45 80 16 0 28 -60 19 -94 -5 -22 -70 -62
-144 -90 -52 -20 -70 -41 -70 -83 0 -18 -4 -33 -9 -33 -5 0 -12 -12 -16 -27
-3 -15 -11 -31 -17 -34 -17 -11 -23 -106 -8 -124 28 -34 78 -48 149 -42 56 5
74 2 100 -14 17 -10 47 -19 67 -19 24 0 36 -5 40 -17 3 -10 10 -27 14 -38 5
-11 11 -29 15 -41 3 -11 16 -27 30 -34 31 -17 38 -39 37 -120 0 -35 3 -69 7
-75 5 -5 11 -29 14 -53 8 -68 55 -93 141 -75 59 12 121 -6 131 -38 4 -10 10
-19 14 -19 12 0 67 -53 80 -77 6 -13 21 -23 31 -23 11 0 37 -9 57 -20 50 -27
59 -25 72 10 7 21 22 36 45 45 48 20 58 19 54 -7 -2 -15 -13 -24 -35 -30 -26
-7 -33 -14 -33 -32 0 -34 10 -56 25 -56 8 0 24 -14 38 -31 27 -35 43 -26 49
26 2 19 9 31 20 33 14 3 18 -4 18 -31 0 -49 -8 -66 -41 -83 -24 -12 -29 -21
-29 -54 0 -21 4 -41 9 -44 4 -3 11 -32 13 -64 3 -32 11 -67 16 -78 36 -63 44
-94 31 -110 -10 -12 -10 -22 -1 -47 6 -18 14 -50 18 -73 8 -51 27 -63 108 -71
58 -5 69 -3 122 26 35 19 72 31 95 31 36 0 69 -20 69 -42 0 -14 40 -48 56 -48
7 0 23 4 36 9 25 9 153 -10 188 -29 10 -5 37 -10 59 -10 35 0 40 -3 45 -27 3
-16 5 -54 4 -86 -1 -32 3 -62 9 -65 20 -13 34 -77 23 -106 -12 -33 -34 -30
-38 5 -2 13 -10 43 -18 67 -8 23 -14 67 -14 96 0 56 -8 66 -52 66 -11 0 -32 8
-46 19 -42 29 -71 35 -90 18 -27 -23 -45 -25 -66 -5 -11 10 -30 18 -43 18 -13
0 -36 9 -52 21 -15 11 -46 23 -68 26 -38 5 -44 2 -78 -36 -45 -49 -65 -51
-128 -11 -26 16 -59 30 -73 30 -15 0 -41 15 -67 39 -37 36 -41 42 -29 60 14
25 16 51 2 51 -5 0 -13 12 -16 28 -4 15 -10 32 -14 37 -4 6 -11 29 -15 52 -4
24 -10 45 -15 48 -4 3 -11 25 -14 50 -4 24 -11 47 -17 50 -12 8 -12 95 1 95 6
0 10 16 10 35 0 48 -38 85 -89 85 -22 0 -44 6 -51 15 -7 8 -19 15 -26 15 -8 0
-32 18 -54 40 -22 22 -49 40 -60 40 -14 0 -20 7 -20 24 0 18 -8 27 -30 35 -17
5 -30 17 -30 26 0 21 -27 48 -40 40 -39 -24 -70 -22 -127 6 -32 16 -65 29 -73
29 -29 0 -50 38 -50 88 0 26 -7 60 -15 76 -8 15 -15 36 -15 46 0 9 -8 26 -17
38 -10 11 -25 30 -33 42 -8 12 -20 28 -26 34 -6 7 -15 23 -19 36 -17 54 -33
60 -146 59 -77 -1 -114 2 -143 15 -21 9 -51 16 -67 16 -26 0 -29 -4 -29 -30 0
-34 0 -34 91 -31 49 2 68 -1 78 -13 9 -11 30 -16 65 -16 44 0 57 -5 90 -34 21
-19 37 -39 34 -46 -3 -10 -7 -9 -18 1 -32 30 -66 42 -89 30 -11 -7 -21 -8 -21
-3 0 13 -88 52 -120 52 -16 0 -40 -5 -54 -11 -32 -15 -83 6 -90 37 -9 33 -74
94 -102 94 -20 0 -24 -5 -24 -30 0 -27 -3 -30 -32 -32 -56 -3 -102 3 -109 14
-4 5 -16 7 -28 3 -13 -4 -28 -1 -37 6 -13 11 -19 9 -35 -11 -10 -14 -19 -35
-19 -47 0 -18 -6 -23 -25 -23 -14 0 -44 -12 -66 -26 -50 -31 -74 -27 -125 21
-44 42 -80 45 -118 10 -32 -30 -25 -29 -65 -9 -43 22 -81 12 -81 -21 0 -33
-29 -33 -66 -2 -23 20 -25 26 -15 44 19 37 14 69 -14 81 -32 15 -55 15 -55 2
0 -5 -6 -10 -13 -10 -13 0 -47 -35 -47 -49 0 -10 -78 -41 -102 -41 -18 0 -28
20 -28 56 0 31 -29 64 -55 64 -53 0 -81 -53 -50 -94 12 -16 11 -21 -13 -43
-33 -30 -62 -25 -113 22 -21 19 -56 39 -78 46 -23 7 -50 25 -62 40 -12 16 -26
29 -31 29 -5 0 -16 7 -24 15 -19 19 -104 21 -104 3 0 -7 -3 -23 -6 -35 -4 -16
3 -30 30 -56 20 -20 36 -44 36 -54 0 -10 7 -27 15 -37 8 -11 15 -26 15 -34 0
-30 28 -42 100 -42 79 0 125 -18 134 -54 3 -12 6 -50 6 -86 1 -83 13 -100 74
-100 33 0 46 -4 46 -14 0 -19 18 -24 57 -18 26 4 38 -1 63 -27 33 -32 74 -40
110 -21 15 8 23 4 44 -21 14 -17 26 -35 26 -40 0 -6 6 -17 13 -24 6 -8 18 -21
25 -30 11 -12 30 -15 90 -13 l77 3 3 48 3 48 35 -7 c31 -6 39 -3 63 23 33 37
103 56 152 43 32 -9 79 -61 79 -87 0 -6 3 -13 8 -15 9 -4 52 -91 52 -107 0 -6
4 -11 9 -11 5 0 13 -15 16 -32 4 -18 10 -35 14 -38 3 -3 15 -22 25 -42 10 -21
32 -52 48 -70 15 -17 28 -36 28 -42 0 -6 7 -24 15 -39 8 -15 17 -43 21 -62 3
-19 10 -35 14 -35 4 0 11 -11 14 -25 4 -14 11 -25 16 -25 5 0 12 -17 16 -37 4
-21 10 -42 14 -48 5 -5 11 -27 15 -47 4 -21 11 -38 16 -38 5 0 9 -5 9 -11 0
-6 13 -39 29 -73 21 -43 31 -82 34 -131 3 -38 10 -71 16 -73 6 -2 11 -9 11
-15 0 -7 6 -24 14 -39 8 -15 17 -42 21 -60 14 -68 39 -136 81 -223 24 -50 44
-96 44 -103 0 -7 4 -12 9 -12 5 0 12 -12 16 -27 3 -15 12 -31 18 -35 7 -4 13
-40 15 -85 2 -43 7 -87 12 -98 49 -110 67 -166 80 -250 15 -99 30 -163 45
-192 8 -15 15 -36 15 -45 0 -10 4 -18 8 -18 4 0 18 -35 31 -77 14 -43 28 -82
33 -87 4 -6 8 -16 8 -24 0 -18 41 -104 55 -114 15 -11 95 2 130 21 17 9 41 28
55 43 22 24 25 36 25 108 0 75 2 83 25 100 14 11 37 22 53 25 19 5 27 13 27
27 0 19 -5 20 -47 15 -30 -3 -61 0 -82 9 -29 12 -32 17 -27 40 4 14 18 38 31
52 14 15 25 29 25 33 0 13 53 30 63 20 16 -16 -2 -59 -31 -73 -34 -17 -37 -52
-4 -56 15 -2 33 6 49 22 30 31 31 31 62 7 20 -15 23 -24 17 -55 -4 -20 -11
-36 -16 -36 -6 0 -10 -7 -10 -15 0 -17 -18 -19 -39 -6 -9 6 -20 2 -35 -13 -16
-16 -21 -33 -20 -73 0 -29 3 -56 8 -60 4 -4 29 5 55 20 39 22 50 24 54 13 6
-14 -31 -46 -53 -46 -5 0 -10 -5 -10 -12 0 -6 -14 -24 -32 -40 -26 -23 -32
-35 -30 -64 4 -47 -18 -67 -66 -62 -20 3 -45 8 -54 12 -14 6 -18 3 -18 -14 0
-12 7 -28 15 -36 8 -9 15 -30 15 -49 0 -18 6 -35 12 -37 9 -3 12 -25 10 -70
-3 -56 0 -68 15 -77 15 -8 16 -13 6 -30 -16 -26 -17 -103 -1 -119 25 -25 -3
-24 -36 2 -19 14 -40 26 -46 26 -16 0 -60 -31 -60 -42 0 -14 -32 -43 -62 -56
-22 -9 -28 -18 -28 -42 0 -25 5 -33 30 -41 33 -12 36 -20 18 -49 -10 -16 -9
-25 5 -49 17 -29 17 -30 -2 -41 -11 -5 -27 -10 -35 -10 -12 0 -15 -9 -14 -32
3 -35 -10 -40 -59 -24 -18 6 -29 1 -50 -22 -23 -24 -39 -31 -88 -36 -82 -10
-95 -14 -95 -36 0 -23 40 -31 86 -17 41 12 60 0 66 -44 4 -22 -1 -36 -18 -52
-17 -15 -24 -33 -24 -59 0 -33 -3 -38 -22 -38 -35 0 -119 -43 -116 -59 4 -20
57 -49 91 -50 18 -1 36 8 51 24 28 30 52 32 59 4 5 -18 11 -20 36 -14 29 6 31
5 31 -22 0 -18 11 -42 28 -61 29 -33 43 -35 232 -45 30 -2 35 -6 38 -30 3 -24
7 -27 43 -27 39 0 69 -17 69 -39 0 -6 7 -11 16 -11 16 0 44 -23 44 -37 0 -4 9
-14 20 -21 11 -7 20 -21 20 -31 0 -11 4 -22 9 -25 4 -3 11 -19 14 -36 4 -20
12 -30 24 -30 24 1 63 34 63 54 0 20 20 32 30 16 4 -7 12 -10 18 -6 6 3 17 3
26 0 12 -5 13 -9 3 -18 -6 -7 -20 -15 -29 -19 -28 -10 -21 -42 17 -84 19 -21
35 -42 35 -46 0 -4 12 -19 26 -32 19 -17 28 -38 32 -70 4 -43 3 -46 -27 -56
-40 -14 -60 -46 -34 -56 23 -8 53 -39 53 -54 0 -20 31 -48 46 -42 8 3 14 16
14 29 0 27 27 34 36 9 4 -10 20 -15 45 -15 27 0 39 -4 39 -14 0 -24 30 -46 61
-46 17 0 37 -7 45 -15 25 -25 54 -19 54 11 0 24 32 64 50 64 15 0 34 -31 23
-38 -18 -12 -33 -50 -27 -66 3 -9 14 -16 25 -16 23 0 69 -49 69 -73 0 -10 12
-22 28 -28 l27 -11 -24 -19 c-13 -10 -29 -19 -37 -19 -8 0 -14 -7 -14 -15 0
-18 70 -21 87 -4 8 8 17 7 31 -2 17 -11 22 -25 24 -74 l3 -60 50 3 c28 1 74
-3 102 -9 44 -10 61 -9 104 4 64 21 69 21 69 -1 0 -32 -92 -57 -160 -44 -57
11 -80 4 -80 -24 0 -10 -13 -14 -45 -14 -43 0 -45 -1 -45 -29 l0 -30 35 15
c20 8 40 12 44 10 5 -3 11 -24 15 -46 3 -22 10 -40 15 -40 5 0 12 -11 15 -25
8 -31 36 -65 53 -65 9 0 11 -8 7 -25 -8 -31 19 -65 50 -65 19 0 17 -4 -12 -29
-21 -19 -35 -42 -39 -64 -4 -27 -11 -37 -30 -42 -20 -5 -24 -10 -18 -28 4 -12
10 -43 14 -70 4 -26 13 -53 19 -59 20 -20 14 -62 -10 -73 -24 -10 -39 -65 -19
-65 16 0 13 -21 -4 -41 -24 -25 -10 -65 28 -80 18 -8 62 -13 100 -12 81 3 109
-7 148 -49 l29 -33 34 19 c24 12 43 16 65 11 23 -5 40 -1 64 13 27 17 34 18
45 7 6 -8 12 -25 12 -39 0 -13 6 -31 13 -38 8 -7 20 -27 28 -43 20 -42 64 -46
95 -9 18 20 24 39 24 76 0 26 5 48 10 48 6 0 10 6 10 13 0 8 8 21 18 30 19 18
52 23 52 9 0 -4 14 -16 31 -26 39 -23 68 -15 94 27 18 28 26 32 69 35 27 2 53
-1 59 -7 7 -7 16 -7 29 0 13 7 18 21 18 53 0 29 6 48 18 59 21 19 53 22 69 6
17 -17 106 -37 128 -28 35 13 43 10 50 -20 6 -26 11 -29 62 -36 69 -8 83 -14
83 -30 0 -19 45 -45 77 -45 39 0 95 17 105 32 4 7 8 30 8 51 0 30 -7 44 -36
73 -20 19 -50 38 -66 41 -45 9 -78 60 -89 140 -13 89 -5 117 37 143 30 19 34
26 34 64 0 39 3 45 36 62 l35 19 30 -32 c35 -40 44 -41 65 -8 20 31 34 32 34
4 0 -12 15 -36 34 -55 34 -34 58 -40 127 -36 25 2 26 0 22 -35 -4 -25 -1 -40
9 -47 26 -20 50 -83 45 -120 -4 -29 -2 -36 12 -36 10 0 28 -12 42 -26 54 -58
94 -52 105 16 4 22 10 40 15 40 5 0 9 7 9 15 0 8 9 15 19 15 32 0 51 28 51 73
0 62 10 71 77 73 73 3 126 25 141 59 7 14 12 49 12 78 1 72 35 132 76 132 21
0 32 -7 44 -30 8 -16 20 -34 25 -40 16 -17 74 -35 116 -35 48 0 58 24 34 87
-18 48 -16 56 27 77 12 6 29 24 36 38 7 15 30 35 52 45 46 21 51 38 14 47 -34
9 -54 29 -54 54 0 38 -12 50 -71 73 -52 19 -60 25 -55 43 3 12 6 38 6 58 0 36
2 38 52 53 28 8 73 15 98 15 33 0 52 6 63 18 19 21 22 57 7 67 -20 12 -9 41
26 75 20 18 47 51 61 72 14 21 30 38 34 38 5 0 9 5 9 11 0 7 7 17 16 24 10 7
19 32 22 64 4 42 11 58 34 79 16 15 44 42 63 59 18 18 42 33 54 33 25 0 51 22
50 42 -1 23 -43 91 -64 102 -39 22 -45 34 -45 95 0 62 -15 91 -47 91 -39 0
-73 82 -79 190 -8 146 -33 230 -68 230 -15 0 -46 36 -46 53 0 15 51 67 66 67
31 0 67 89 84 210 12 80 11 87 -8 119 -18 30 -19 36 -6 67 19 46 19 47 -25 39
-37 -6 -43 -3 -85 35 -25 24 -43 47 -39 54 3 6 2 8 -2 3 -5 -4 -19 3 -31 14
-19 18 -26 20 -38 10 -17 -15 -32 3 -28 34 1 11 -8 31 -21 45 -16 18 -21 32
-17 50 6 24 6 24 15 5 4 -11 7 -24 6 -30 -2 -5 1 -7 5 -3 8 9 36 -11 30 -21
-2 -3 6 -6 19 -6 13 0 23 5 22 10 -1 6 4 9 11 7 8 -1 11 2 8 7 -11 17 11 21
25 5 10 -12 9 -18 -6 -32 -13 -13 -16 -13 -10 -2 5 8 4 12 0 7 -22 -20 -9 -50
42 -97 39 -36 63 -50 83 -50 36 0 46 15 26 36 -9 8 -16 30 -16 47 0 22 -11 44
-36 72 -26 30 -34 48 -32 70 2 17 8 30 15 30 6 0 15 4 20 9 5 5 3 6 -4 2 -22
-12 -14 9 8 22 18 12 24 11 36 -1 14 -13 13 -16 -6 -26 -25 -14 -28 -53 -6
-71 21 -18 19 -35 -2 -19 -16 13 -17 12 -4 -4 8 -9 16 -16 18 -13 3 2 23 -4
46 -14 39 -18 43 -18 70 -2 34 20 52 48 37 57 -6 4 -7 12 -4 18 4 7 4 9 -1 5
-4 -4 -14 -3 -21 3 -10 8 -11 14 -1 24 17 18 47 0 42 -25 -2 -12 0 -18 6 -15
5 4 6 11 3 17 -5 7 -1 9 9 5 11 -4 18 3 26 24 6 16 6 27 1 24 -11 -7 -90 91
-90 111 0 8 7 31 15 50 10 25 20 34 30 30 8 -3 14 0 12 6 -3 17 46 32 77 24
21 -5 25 -10 18 -23 -8 -14 -23 -18 -89 -25 -7 -1 -10 -5 -7 -9 2 -4 0 -10 -6
-14 -21 -13 -9 -55 24 -90 33 -33 66 -46 66 -25 0 5 20 36 45 69 32 42 45 69
45 92 0 18 -3 29 -7 26 -5 -6 -48 53 -45 60 1 2 -10 14 -24 28 -14 15 -22 30
-18 38 4 6 4 9 0 5 -14 -12 -35 15 -24 29 18 23 35 14 67 -34 33 -51 80 -108
84 -102 2 2 8 20 15 40 21 62 16 88 -27 128 -21 20 -42 47 -46 61 -4 14 -11
30 -15 35 -4 6 -11 30 -15 55 -4 25 -14 58 -22 74 -11 21 -14 46 -10 83 l6 53
-33 0 c-42 0 -52 12 -59 75 -8 59 -40 92 -109 113 -24 7 -61 21 -83 31 -99 45
-132 53 -240 58 -133 5 -164 15 -172 54 -3 16 -9 29 -14 29 -5 0 -9 6 -9 13 0
7 -9 29 -20 50 -21 38 -26 83 -11 105 4 7 36 17 70 22 34 5 70 15 79 22 25 19
51 52 52 63 0 6 6 22 14 36 8 15 17 60 21 100 4 41 12 80 17 87 15 18 112 16
128 -3 17 -21 46 -19 70 5 11 11 29 20 40 20 36 0 69 22 75 51 8 34 29 43 50
22 20 -19 80 -32 158 -33 31 0 57 -3 57 -8 0 -4 9 -13 21 -20 18 -12 24 -11
44 8 19 18 27 20 43 11 49 -26 108 3 142 69 31 61 26 85 -29 143 -27 29 -62
68 -77 87 -16 19 -34 39 -41 43 -7 4 -13 15 -13 22 0 8 -3 15 -7 15 -11 0 -42
57 -60 109 -20 61 -13 133 21 205 35 73 31 128 -13 214 -16 31 -31 68 -34 81
-7 27 6 66 29 88 9 9 14 28 12 47 -3 29 -6 31 -48 34 -24 2 -47 7 -50 13 -3 5
-24 15 -45 22 -25 9 -49 27 -63 47 -42 63 -64 71 -183 68 l-105 -3 -43 40 -43
40 5 85 c3 47 10 96 15 110 15 39 -9 76 -105 162 -33 29 -30 84 8 155 17 32
36 64 43 72 6 8 11 53 11 110 0 106 -7 120 -97 235 -21 27 -51 74 -66 105 -15
31 -30 58 -34 61 -3 3 -10 18 -13 33 -4 15 -11 27 -15 27 -5 0 -12 10 -16 23
-9 29 -88 134 -125 164 -36 31 -36 50 -1 93 98 121 150 161 224 173 49 8 75
33 83 82 12 77 28 125 41 125 7 0 22 12 33 26 17 21 20 35 15 68 -4 22 -10 46
-14 51 -4 6 -10 26 -14 45 -7 38 -36 100 -47 100 -4 0 -17 17 -30 38 -41 68
-49 74 -75 57 -21 -13 -24 -12 -61 28 -21 24 -48 55 -60 70 -16 19 -32 27 -53
27 -21 0 -38 9 -54 27 -18 21 -32 27 -67 27 -51 1 -63 22 -29 56 25 25 41 65
34 84 -7 18 20 60 68 107 20 19 40 48 43 62 4 15 11 30 16 33 5 3 9 53 9 112
0 104 4 121 40 179 21 33 3 76 -38 88 -17 5 -32 15 -32 23 0 7 -7 26 -15 42
-17 33 -45 39 -65 15 -16 -20 -35 -19 -81 3 -34 15 -39 21 -39 53 0 20 3 39 7
43 4 4 14 33 21 64 7 31 20 86 28 122 9 36 17 80 18 99 1 31 -3 37 -39 55 -47
25 -55 33 -55 64 0 19 -4 21 -24 16 -21 -5 -24 -1 -30 28 -3 19 -12 43 -20 53
-12 17 -16 15 -55 -26 -22 -24 -41 -50 -41 -56 0 -21 -21 -15 -42 12 -13 16
-29 25 -48 25 -24 0 -29 -5 -32 -27 -2 -22 -9 -29 -30 -31 -16 -2 -28 -9 -28
-16 0 -15 32 -46 47 -46 5 0 18 -8 27 -19 16 -17 16 -20 1 -35 -11 -10 -25
-14 -40 -10 -24 6 -95 -28 -95 -46 0 -13 -47 -21 -72 -11 -13 5 -36 21 -52 34
-29 23 -29 26 -18 63 23 79 -19 122 -100 100 -32 -9 -42 -8 -45 2 -3 6 -9 12
-15 12 -15 0 -47 42 -48 63 0 9 13 38 29 64 27 43 31 73 10 73 -5 0 -19 10
-31 22 -34 34 -103 27 -146 -15 -19 -17 -40 -44 -48 -59 -8 -16 -23 -28 -33
-28 -39 0 -49 -29 -53 -153 -3 -124 -11 -143 -51 -131 -30 9 -67 -22 -67 -57
0 -36 -23 -48 -46 -24 -26 26 -60 35 -127 35 -55 0 -66 -4 -97 -31 -30 -27
-40 -30 -80 -26 -25 3 -64 10 -86 17 -36 10 -47 9 -78 -5 -20 -10 -36 -21 -36
-26 0 -24 -37 -49 -72 -49 -28 0 -51 -10 -90 -40 -35 -26 -59 -38 -73 -34 -23
6 -95 -21 -95 -36 0 -6 -7 -10 -15 -10 -8 0 -15 -3 -15 -8 0 -10 -58 -40 -95
-48 -36 -8 -74 -34 -75 -50 0 -18 -37 -24 -104 -18 -55 5 -67 3 -118 -25 -34
-18 -72 -31 -93 -31 -20 0 -52 -7 -72 -15 -19 -8 -64 -15 -98 -15 -86 0 -110
-20 -119 -98 -10 -87 -37 -111 -124 -114 -104 -3 -110 -1 -143 31 -34 35 -77
40 -119 16 -14 -8 -46 -14 -71 -15 -43 0 -50 4 -83 43 -45 53 -47 55 -70 92
-40 63 -58 74 -127 77 -63 3 -64 4 -74 36 -5 17 -13 32 -17 32 -4 0 -8 7 -8
15 0 8 -21 36 -46 61 -37 38 -45 52 -40 73 3 14 9 50 15 79 5 29 17 60 26 69
41 40 48 62 41 125 -8 63 -29 108 -51 108 -30 0 -47 31 -40 74 4 22 12 47 18
54 5 7 10 32 11 55 1 42 -3 49 -71 125 -13 14 -23 29 -23 33 0 16 -49 21 -104
9 -40 -8 -61 -8 -76 0 -28 15 -25 27 9 45 50 25 61 43 61 96 0 27 5 49 10 49
6 0 10 16 10 35 0 19 -4 35 -9 35 -25 0 -69 61 -75 104 -4 25 -11 48 -16 51
-4 3 -11 23 -15 45 -4 22 -11 40 -16 40 -5 0 -11 11 -15 25 -3 14 -10 25 -14
25 -5 0 -11 14 -15 30 -4 17 -11 30 -16 30 -5 0 -9 7 -9 16 0 14 -19 16 -163
13 -145 -4 -165 -2 -181 14 -24 24 -46 21 -86 -13 -43 -37 -61 -37 -113 -1
-59 40 -80 45 -177 43 -82 -2 -86 -1 -118 27 -27 25 -32 37 -32 74 0 29 6 49
16 58 12 10 15 24 10 55 -5 41 -5 43 27 50 40 8 47 20 35 54 -6 20 -24 33 -64
50 -45 19 -56 29 -61 52 -3 15 -11 28 -18 28 -30 0 -58 36 -61 82 -3 26 0 49
6 53 5 3 10 19 10 36 0 25 -4 29 -27 29 -34 0 -43 6 -67 44 -14 21 -18 47 -17
108 0 44 4 84 7 90 12 19 -7 118 -22 118 -11 0 -14 -17 -14 -72z m5385 -3308
c4 -6 -1 -7 -12 -4 -14 5 -15 4 -4 -4 8 -6 20 -8 28 -5 7 3 13 0 13 -6 0 -6 7
-8 17 -4 10 4 14 2 10 -4 -4 -6 -4 -13 0 -15 5 -2 19 -16 33 -32 20 -23 21
-28 7 -23 -10 4 -16 3 -12 -2 3 -5 -14 -24 -37 -42 -24 -18 -47 -36 -51 -40
-16 -13 32 -49 63 -49 24 0 35 7 48 30 16 28 40 46 49 36 2 -2 -1 -22 -6 -44
-10 -36 -32 -58 -53 -54 -5 1 -8 -2 -8 -8 0 -15 -53 -12 -77 5 -33 23 -121
138 -128 167 -9 34 8 64 48 88 35 22 62 25 72 10z m-225 -125 c16 -1 27 3 24
6 -2 4 1 11 8 15 7 4 10 4 6 -1 -4 -4 0 -13 9 -20 18 -13 9 -39 -11 -32 -24
10 -13 -29 22 -73 59 -75 82 -92 118 -85 21 4 35 1 44 -10 27 -33 -36 -57 -85
-32 -30 15 -75 68 -68 80 3 6 1 7 -4 4 -6 -4 -25 9 -42 28 -17 19 -33 35 -36
35 -10 0 -75 -54 -75 -62 0 -5 16 -26 36 -48 20 -22 32 -40 28 -40 -22 -1 74
-50 98 -50 34 0 46 -19 23 -37 -40 -28 -67 -16 -143 65 -48 50 -81 77 -95 77
-17 0 -23 7 -25 30 -2 16 -12 35 -23 43 -20 14 -26 47 -10 57 9 5 37 -33 34
-46 -3 -10 58 -3 65 8 4 5 18 17 31 26 27 18 38 49 15 40 -8 -3 -14 0 -14 7 0
7 -7 18 -15 24 -9 7 -12 19 -9 34 6 22 7 22 36 -10 20 -22 38 -33 58 -33z
m-164 -252 c27 -31 60 -66 72 -77 13 -12 33 -33 43 -48 19 -26 19 -29 3 -53
-20 -30 -92 -75 -120 -75 -25 0 -96 58 -88 72 4 6 3 8 -3 5 -5 -3 -31 18 -56
47 -40 47 -44 56 -31 66 12 11 19 9 39 -10 13 -13 22 -26 20 -31 -3 -4 0 -11
6 -15 8 -5 10 -2 5 7 -5 8 13 -10 39 -38 26 -29 54 -53 61 -53 8 0 14 -5 14
-11 0 -8 4 -8 15 1 8 6 20 8 27 4 7 -4 10 -4 6 1 -4 4 1 19 12 32 19 25 19 25
-5 57 -14 18 -22 36 -17 41 4 5 2 5 -4 2 -16 -9 -48 29 -38 45 4 7 3 10 -1 5
-10 -9 -47 22 -39 34 3 5 -2 9 -10 9 -18 0 -29 16 -21 30 11 18 22 11 71 -47z
m-192 -174 c-3 -5 -1 -9 5 -9 10 0 83 -74 109 -111 13 -18 13 -23 0 -35 -13
-13 -20 -8 -61 39 -25 30 -43 58 -39 62 4 5 2 5 -4 2 -6 -3 -18 3 -27 14 -21
24 -48 24 -79 -1 -14 -10 -27 -18 -29 -16 -2 3 -5 -8 -6 -22 -1 -18 9 -38 29
-59 19 -19 27 -36 23 -44 -5 -7 -4 -10 3 -5 5 3 24 -11 41 -33 28 -35 29 -40
15 -52 -14 -11 -22 -6 -62 41 -26 30 -73 82 -104 116 -32 33 -58 66 -58 73 0
7 -4 10 -9 7 -11 -7 -9 13 3 32 6 11 18 5 48 -25 38 -37 40 -37 53 -18 26 37
49 55 79 64 32 8 79 -5 70 -20z m-234 -173 c0 -7 -16 -20 -35 -29 -59 -28 -74
-97 -22 -97 14 0 35 8 48 19 53 41 108 39 127 -4 10 -21 9 -32 -3 -55 -9 -17
-20 -30 -26 -30 -6 0 -8 -4 -4 -10 7 -11 -94 -81 -107 -74 -19 12 -6 33 27 44
19 6 33 16 29 21 -3 5 0 8 7 7 7 -2 14 2 14 7 1 6 7 23 13 38 22 53 -12 63
-68 22 -37 -27 -97 -34 -118 -13 -7 7 -12 27 -12 46 0 25 9 43 38 71 56 57 92
72 92 37z m-420 -3423 c8 -18 20 -33 27 -33 16 0 53 -49 53 -70 0 -25 -35 -52
-67 -52 -27 0 -63 32 -63 57 0 8 -13 27 -30 43 -36 36 -37 45 -8 72 33 30 69
23 88 -17z m-134 -61 c25 -17 84 -105 84 -126 0 -30 -32 -58 -61 -54 -35 5
-36 28 -1 28 17 0 32 6 36 15 6 17 -2 45 -14 45 -4 0 -13 -7 -20 -15 -19 -22
-58 -18 -85 10 -27 26 -33 73 -13 93 13 13 57 16 74 4z m-456 -433 c48 -57 57
-78 36 -82 -5 -1 -22 -14 -37 -29 -34 -34 -43 -35 -74 -3 -34 33 -33 77 2 103
27 19 27 21 10 39 -16 18 -14 33 4 33 5 0 31 -27 59 -61z m2183 -1009 c4 -14
-4 -24 -28 -39 -36 -21 -58 -52 -47 -67 24 -33 39 -34 83 -9 56 32 89 32 124
0 30 -29 29 -59 -4 -105 -21 -30 -81 -72 -95 -67 -23 8 -15 28 17 43 40 19 60
50 55 85 -4 32 -42 37 -77 11 -43 -31 -68 -35 -101 -15 -21 12 -30 24 -26 35
2 10 1 16 -3 13 -5 -2 -8 9 -9 24 0 21 10 40 35 65 20 19 40 33 44 30 5 -3 9
0 9 5 0 19 17 12 23 -9z m-246 -296 c45 -55 46 -60 8 -88 -19 -15 -36 -25 -37
-24 -9 8 -47 -41 -46 -58 4 -44 118 -22 118 23 0 7 11 13 26 13 18 0 23 -4 17
-12 -4 -7 -8 -15 -8 -18 0 -11 -32 -47 -55 -63 -54 -37 -119 -10 -152 64 -7
16 -16 29 -19 29 -9 0 -27 51 -27 80 -1 31 23 68 51 80 42 17 99 5 124 -26z
m-317 -95 c0 -4 7 -10 16 -13 8 -3 13 -2 10 3 -3 4 6 13 19 19 21 10 26 8 34
-6 7 -14 4 -22 -19 -37 l-28 -19 36 -50 c57 -83 63 -88 98 -82 37 7 69 -18 44
-34 -8 -5 -18 -6 -22 -4 -4 3 -8 0 -8 -5 0 -18 -46 -12 -72 9 -14 11 -43 46
-64 79 -21 33 -47 62 -56 65 -10 2 -16 0 -13 -4 6 -9 -49 -52 -57 -45 -12 13
-5 -42 8 -57 9 -9 13 -22 8 -29 -4 -7 -3 -10 3 -6 12 8 26 -20 17 -34 -3 -5
-2 -8 3 -7 4 1 19 -4 32 -11 13 -7 34 -11 47 -8 18 3 28 -2 36 -17 6 -11 7
-18 3 -14 -4 4 -14 1 -22 -7 -8 -8 -23 -15 -33 -15 -28 0 -71 22 -68 34 2 6
-2 13 -7 16 -19 9 -55 71 -49 82 4 7 2 8 -5 4 -6 -4 -14 -1 -17 8 -3 8 -12 17
-20 20 -10 4 -12 2 -8 -5 4 -7 1 -10 -7 -7 -8 3 -13 16 -11 31 1 15 -4 37 -12
49 -10 17 -11 29 -4 48 l10 25 16 -32 c21 -43 36 -47 80 -19 20 12 43 25 50
27 8 3 4 15 -14 41 -23 32 -25 40 -13 54 12 15 15 13 36 -12 13 -16 23 -32 23
-35z m-175 -266 c76 -117 80 -126 60 -157 -10 -14 -21 -26 -26 -26 -4 0 -25
-12 -46 -26 -39 -26 -80 -27 -110 -3 -16 14 -18 33 -1 23 7 -4 8 -3 4 4 -4 7
-14 12 -22 12 -8 0 -14 7 -14 15 0 8 -4 15 -8 15 -5 0 -24 21 -42 47 -24 33
-29 45 -16 40 9 -4 15 -3 11 2 -11 18 12 20 28 3 34 -37 75 -107 70 -117 -4
-5 -3 -7 2 -3 4 4 13 4 19 -1 28 -21 61 -20 93 5 37 28 36 37 -13 105 -19 25
-31 49 -27 53 3 3 2 6 -3 6 -5 0 -18 14 -28 31 -15 26 -16 33 -5 40 8 5 16 9
19 9 3 0 28 -35 55 -77z m-259 -141 c26 -16 84 -95 77 -104 -3 -6 -2 -8 4 -5
5 3 17 -7 26 -22 15 -25 15 -30 2 -41 -12 -10 -18 -8 -34 11 -10 13 -33 40
-50 59 -17 19 -31 38 -31 42 0 4 -9 12 -19 18 -27 14 -60 -2 -88 -42 -18 -26
-20 -35 -10 -52 6 -12 10 -25 9 -29 -1 -5 1 -6 6 -3 13 8 54 -43 46 -56 -4 -6
-3 -8 3 -5 6 4 21 -5 34 -19 23 -24 23 -26 6 -39 -21 -15 -25 -13 -89 65 -20
25 -55 65 -77 90 -22 25 -41 50 -41 57 0 6 -7 18 -15 26 -13 13 -13 16 0 27
13 11 21 7 47 -24 l31 -37 41 39 c52 50 92 64 122 44z m-236 -187 c0 -8 -13
-21 -28 -29 -16 -8 -34 -22 -41 -30 -7 -9 -17 -14 -21 -11 -4 2 -5 -7 -2 -21
8 -44 34 -47 100 -13 52 26 64 29 84 18 31 -16 38 -28 38 -65 0 -34 -35 -88
-51 -78 -5 3 -8 0 -7 -7 2 -7 -12 -23 -31 -36 -31 -21 -36 -22 -44 -7 -7 12
-2 22 19 39 16 13 33 21 39 17 5 -3 7 -1 2 3 -4 5 -1 15 7 24 14 16 20 35 17
57 -2 24 -33 23 -71 -2 -54 -36 -97 -36 -122 -3 -18 24 -19 31 -8 64 18 55
120 123 120 80z"/>
<path d="M667 11514 c-3 -3 -4 -19 -1 -34 4 -16 0 -32 -8 -41 -13 -12 -11 -18
14 -39 28 -24 37 -49 18 -51 -5 -1 -18 -2 -27 -3 -36 -3 -54 -23 -60 -64 -6
-48 -17 -52 -45 -17 -40 51 -108 68 -176 44 -44 -15 -31 -29 16 -16 52 14 79
5 131 -43 24 -23 51 -40 59 -38 10 2 19 19 24 42 10 49 24 66 53 66 13 0 30 3
39 6 19 7 21 45 4 62 -6 6 -9 15 -5 18 13 13 65 -18 93 -55 38 -51 89 -83 122
-78 l27 4 -32 14 c-18 7 -33 19 -33 25 0 14 -66 74 -80 74 -6 0 -10 15 -10 34
0 37 -21 62 -45 52 -8 -3 -15 -15 -15 -26 0 -21 -29 -29 -31 -7 0 6 -2 25 -2
41 -2 28 -17 43 -30 30z"/>
<path d="M3490 8900 c-19 -16 -40 -29 -46 -30 -15 0 -24 -24 -24 -61 0 -16 -4
-29 -9 -29 -5 0 -11 -10 -15 -23 -3 -13 -31 -50 -62 -83 -31 -32 -73 -81 -92
-109 -20 -27 -55 -69 -79 -93 -24 -24 -43 -50 -43 -57 0 -7 15 -23 34 -34 28
-18 49 -21 137 -21 72 0 111 4 124 14 11 7 45 21 74 31 30 10 63 26 73 35 10
9 31 23 46 31 38 20 50 33 57 62 4 14 13 28 21 31 8 3 14 12 14 21 0 8 4 15 9
15 5 0 13 10 17 22 3 12 13 28 20 36 20 20 17 55 -6 75 -11 9 -20 25 -20 34 0
10 -18 35 -40 56 -21 22 -42 47 -45 56 -4 14 -82 51 -105 51 -3 0 -21 -13 -40
-30z"/>
</g>
</svg>
