<?xml version="1.0" standalone="no"?>
<!DOCTYPE svg PUBLIC "-//W3C//DTD SVG 20010904//EN"
 "http://www.w3.org/TR/2001/REC-SVG-20010904/DTD/svg10.dtd">
<svg version="1.0" xmlns="http://www.w3.org/2000/svg"
 width="1309.000000pt" height="985.000000pt" viewBox="0 0 1309.000000 985.000000"
 preserveAspectRatio="xMidYMid meet">
<metadata>
Created by potrace 1.16, written by Peter Selinger 2001-2019
</metadata>
<g transform="translate(0.000000,985.000000) scale(0.100000,-0.100000)"
fill="#000000" stroke="none">
<path d="M6100 9336 c-43 -23 -100 -46 -115 -46 -28 0 -89 -36 -137 -81 -27
-26 -61 -53 -76 -60 -56 -29 -62 -39 -62 -111 0 -44 4 -70 13 -75 29 -18 35
-56 16 -101 -38 -88 -22 -103 106 -106 70 -1 99 -6 110 -17 19 -19 10 -46 -16
-54 -10 -4 -19 -11 -19 -16 0 -5 -5 -9 -10 -9 -6 0 -27 -11 -48 -24 -23 -14
-58 -25 -93 -28 -60 -5 -152 -45 -195 -84 -29 -28 -30 -56 -4 -100 l21 -33
-30 -15 c-17 -9 -37 -16 -46 -16 -8 0 -15 -4 -15 -9 0 -21 -223 -67 -274 -57
-44 9 -190 68 -198 80 -4 6 -8 59 -8 117 0 77 4 110 15 125 8 10 15 31 15 46
0 22 -5 27 -32 33 -18 3 -44 12 -57 18 -19 9 -25 9 -28 0 -6 -16 -35 -17 -50
-2 -8 8 -16 7 -31 -2 -18 -11 -24 -10 -40 4 -28 25 -45 22 -38 -8 5 -18 2 -25
-9 -25 -8 0 -15 -4 -15 -9 0 -16 -64 -60 -97 -67 -21 -4 -35 -1 -46 11 -18 18
-37 12 -37 -10 0 -9 -6 -12 -15 -9 -8 4 -15 15 -15 25 0 10 -7 19 -15 19 -8 0
-15 -9 -15 -19 0 -28 -10 -51 -23 -51 -6 0 -18 -7 -28 -16 -15 -13 -23 -14
-54 -4 -20 7 -37 10 -39 8 -28 -44 -61 -78 -76 -78 -11 0 -27 12 -37 26 l-17
26 -17 -21 c-18 -21 -39 -28 -39 -12 0 5 -8 12 -17 15 -22 9 -43 -18 -43 -56
0 -26 -2 -28 -44 -28 -48 0 -76 -19 -76 -49 0 -10 -7 -24 -15 -31 -30 -25 -5
-73 28 -53 6 4 26 6 44 5 18 -2 42 2 53 8 16 8 22 8 26 -3 7 -18 -26 -77 -51
-91 -11 -6 -25 -17 -33 -23 -32 -30 -533 -1 -558 32 -6 8 -14 15 -17 15 -4 0
-46 41 -95 90 -97 98 -120 107 -183 75 -34 -18 -68 -20 -229 -10 -224 14 -217
15 -350 -60 -32 -19 -85 -10 -126 22 -22 16 -44 23 -78 23 -50 0 -73 -10 -118
-52 -50 -48 -81 -33 -116 57 -36 92 -67 87 -121 -18 -49 -95 -88 -91 -106 11
-10 63 -33 86 -76 78 -66 -12 -69 -26 -69 -350 l0 -286 -85 0 c-47 0 -153 -7
-236 -16 -84 -8 -206 -14 -271 -12 l-119 3 1 -30 c4 -63 6 -61 -80 -40 -21 5
-28 2 -40 -21 -25 -48 -47 -64 -88 -64 -63 0 -77 -24 -77 -133 -1 -51 -5 -119
-9 -152 -7 -54 -6 -62 13 -82 17 -18 33 -23 71 -23 45 0 50 -2 50 -22 -1 -13
-10 -34 -21 -47 -16 -20 -29 -24 -59 -23 -31 2 -45 -3 -72 -27 -28 -26 -31
-32 -18 -41 8 -5 35 -10 60 -11 25 0 68 -4 95 -7 72 -10 92 -5 100 25 6 25 44
85 58 91 4 2 7 8 7 13 0 22 68 98 105 118 23 12 46 34 53 51 15 32 31 37 61
19 25 -16 72 -3 78 22 4 13 17 21 45 25 22 4 41 12 43 18 1 6 8 30 14 54 7 25
18 42 26 42 8 0 42 14 74 32 l59 32 52 -17 c29 -9 59 -17 67 -17 33 0 3 -25
-42 -35 -26 -5 -51 -17 -55 -25 -34 -73 -44 -90 -52 -90 -5 0 -21 -13 -36 -29
-28 -30 -81 -61 -104 -61 -19 0 -88 -59 -88 -75 0 -18 -16 -28 -60 -35 l-35
-6 3 -57 c5 -67 -10 -75 -33 -20 -15 34 -17 36 -32 20 -15 -15 -16 -24 -5 -75
16 -75 15 -123 -2 -145 -11 -14 -11 -24 -3 -47 10 -27 8 -33 -18 -60 -24 -25
-27 -34 -19 -48 16 -25 66 -26 108 -2 20 12 36 25 36 28 0 15 79 43 111 40 32
-3 34 -5 37 -46 3 -37 -1 -46 -27 -70 -29 -25 -42 -62 -22 -62 13 0 51 -68 51
-91 0 -11 5 -17 10 -14 5 3 10 17 10 31 0 23 3 24 35 18 l35 -6 -15 35 c-11
27 -12 36 -2 40 29 10 92 -41 113 -93 14 -33 14 -36 -7 -52 -11 -10 -31 -18
-43 -18 -57 0 -61 -59 -8 -129 21 -29 44 -75 52 -108 16 -60 16 -60 75 -51 14
2 21 -3 23 -19 3 -17 14 -25 43 -33 44 -12 49 -27 18 -53 -26 -23 -15 -39 55
-73 28 -14 69 -35 91 -48 22 -12 63 -35 90 -50 28 -16 93 -57 146 -92 54 -35
102 -64 107 -64 6 0 12 -3 14 -8 8 -20 242 -142 272 -142 7 0 29 -7 48 -15 27
-11 44 -12 73 -4 27 8 45 8 62 0 13 -6 48 -11 78 -11 53 0 125 -29 125 -51 0
-5 7 -9 15 -9 8 0 15 -4 15 -9 0 -5 12 -12 27 -15 30 -8 43 6 35 37 -5 21 -5
21 21 4 84 -54 75 -52 88 -23 17 37 54 59 78 46 25 -13 81 -13 81 0 0 22 25 7
77 -46 30 -30 64 -59 77 -63 34 -14 56 9 56 57 0 60 7 69 61 87 34 12 52 25
61 43 11 22 21 28 55 30 27 2 51 -3 67 -14 33 -21 52 -13 61 26 9 40 26 46 87
31 42 -11 52 -11 73 3 13 9 37 16 52 16 15 0 35 4 42 9 12 8 11 13 -10 30 -13
11 -28 21 -34 21 -5 0 -2 5 7 11 11 6 24 6 35 0 10 -5 34 -11 53 -13 l35 -3
10 70 c12 84 24 90 90 45 50 -35 54 -44 25 -62 -24 -15 -25 -24 -6 -31 8 -3
26 3 40 14 l26 20 68 -25 c49 -17 93 -25 153 -27 75 -2 88 -5 121 -30 20 -16
41 -29 46 -29 5 0 15 -7 22 -15 15 -19 -8 -76 -30 -74 -32 3 -40 -2 -40 -25 0
-16 -7 -27 -20 -31 -17 -5 -20 -14 -18 -46 1 -23 -3 -44 -10 -48 -8 -5 -11
-30 -10 -72 3 -53 0 -63 -12 -60 -8 2 -24 5 -35 6 -23 2 -44 50 -44 103 -1 40
-12 40 -73 2 -40 -25 -48 -35 -48 -60 0 -17 7 -42 16 -55 15 -23 14 -26 -20
-61 -20 -20 -36 -45 -36 -55 0 -26 -11 -49 -23 -49 -15 0 -75 -67 -83 -93 -4
-13 -12 -17 -25 -14 -17 5 -19 1 -13 -27 4 -25 2 -35 -10 -39 -9 -4 -16 -16
-16 -27 0 -35 -32 -20 -43 19 -6 25 -11 31 -20 22 -14 -14 -27 -14 -27 0 0 17
-32 38 -56 39 -12 0 -28 -10 -37 -23 -14 -22 -15 -22 -36 -3 -21 19 -21 19
-21 -2 0 -13 -6 -22 -15 -22 -8 0 -15 5 -15 10 0 20 -29 9 -32 -12 l-3 -23
-20 21 c-24 26 -65 48 -65 36 0 -5 -11 -15 -25 -22 l-24 -13 21 -19 c11 -10
29 -18 40 -18 23 0 23 -16 1 -38 -15 -16 -15 -17 0 -20 18 -4 32 -36 22 -52
-4 -6 -17 -4 -36 5 -28 15 -29 15 -49 -17 -19 -32 -20 -32 -26 -10 -10 37 -52
29 -70 -13 -8 -19 -18 -35 -22 -35 -4 0 -12 -15 -17 -32 -13 -43 -25 -41 -51
7 -13 25 -28 41 -42 43 -25 4 -28 28 -7 56 34 45 0 50 -45 6 -20 -19 -30 -39
-30 -58 0 -33 -11 -45 -55 -59 -27 -9 -30 -14 -29 -49 0 -21 4 -47 8 -57 13
-27 -26 -22 -54 8 -18 19 -26 22 -37 14 -7 -6 -13 -20 -13 -29 0 -18 -43 -60
-61 -60 -10 0 -30 72 -34 125 -2 22 -4 43 -4 48 -1 4 -8 7 -16 7 -8 0 -19 9
-26 21 -7 14 -14 18 -21 11 -7 -7 -4 -20 8 -41 22 -37 14 -49 -18 -27 -25 18
-58 21 -58 6 0 -6 7 -13 16 -17 11 -4 13 -13 8 -37 -9 -42 -32 -66 -63 -66
l-26 0 36 -33 c35 -32 41 -57 14 -57 -8 0 -22 14 -32 30 -17 30 -33 39 -33 19
0 -19 -44 -48 -72 -49 -16 0 -28 4 -28 9 0 5 -9 13 -20 16 -14 4 -20 15 -20
36 0 16 -4 29 -9 29 -5 0 -17 3 -26 6 -30 12 -11 -45 33 -96 44 -51 49 -60 31
-60 -6 0 -20 -11 -31 -25 -24 -31 -58 -32 -85 -2 -27 29 -32 47 -22 75 11 28
2 28 -20 1 -14 -18 -28 -22 -74 -22 -39 0 -63 5 -75 17 -10 9 -25 16 -34 16
-8 0 -23 9 -33 20 -17 18 -17 21 1 72 11 29 24 59 31 65 6 7 9 22 6 33 -3 12
-2 20 3 19 23 -4 35 2 27 14 -7 12 -9 16 -12 36 0 5 -12 11 -25 13 -18 4 -31
-2 -46 -19 -15 -17 -27 -22 -44 -17 -16 4 -32 -2 -51 -19 -26 -22 -31 -23 -64
-11 -27 9 -37 18 -39 38 -2 14 1 26 7 26 6 0 11 12 11 28 0 19 10 33 31 48 24
17 27 23 15 27 -9 4 -16 2 -16 -3 0 -6 -8 -10 -17 -10 -22 -1 -93 -64 -119
-105 -10 -16 -26 -36 -35 -42 -10 -7 -20 -34 -24 -63 -5 -34 -13 -54 -26 -61
-25 -13 -24 -29 3 -75 12 -21 23 -51 24 -66 2 -35 38 -89 73 -113 15 -9 35
-35 46 -58 11 -23 59 -81 107 -129 48 -49 96 -103 107 -121 11 -18 38 -49 61
-69 22 -20 40 -39 40 -42 0 -13 199 -202 270 -256 50 -38 75 -60 158 -139 31
-30 89 -81 127 -114 39 -33 72 -64 73 -69 2 -4 10 -8 17 -8 7 0 15 -7 19 -15
3 -8 12 -15 20 -15 16 0 280 -260 341 -335 22 -28 70 -79 107 -114 38 -35 68
-72 68 -82 0 -10 13 -32 29 -48 16 -16 41 -47 57 -68 35 -47 105 -116 112
-109 2 3 4 35 3 71 -1 51 3 70 17 85 18 20 19 19 15 -37 -2 -32 -5 -70 -6 -84
-3 -20 0 -26 12 -21 9 3 12 1 7 -6 -5 -8 -2 -10 9 -6 8 4 51 0 95 -7 75 -12
79 -14 64 -30 -9 -10 -25 -16 -37 -13 -12 3 -39 5 -60 5 -20 1 -40 5 -43 10
-3 5 -10 7 -15 4 -20 -13 -7 -41 39 -85 27 -26 59 -67 72 -93 15 -29 33 -50
51 -58 16 -6 29 -14 29 -18 0 -3 12 -12 28 -19 15 -6 39 -29 54 -50 28 -40
126 -122 146 -122 6 0 19 -11 29 -24 23 -29 131 -106 149 -106 7 0 27 -14 44
-30 21 -21 41 -30 63 -30 39 0 59 -12 52 -31 -2 -8 -1 -19 3 -24 12 -18 59
-44 87 -49 15 -3 36 -14 47 -26 17 -18 89 -60 103 -60 3 0 5 11 5 25 0 35 29
33 36 -3 10 -48 78 -76 124 -52 16 9 21 6 26 -15 4 -16 13 -25 25 -25 10 0 28
-9 38 -19 10 -10 49 -26 85 -34 37 -8 82 -27 101 -41 18 -14 43 -26 54 -26 24
0 28 25 6 34 -8 3 -15 15 -15 27 0 18 4 20 26 15 24 -6 26 -5 19 16 -17 57
-17 68 -2 68 30 0 47 -13 47 -35 0 -13 5 -27 10 -30 7 -4 7 -12 0 -24 -20 -38
31 -44 56 -6 21 33 30 32 43 -6 10 -28 13 -30 53 -27 36 3 44 7 46 26 5 31 44
44 106 37 46 -6 53 -4 72 18 16 18 37 27 73 32 32 4 51 12 51 20 0 13 23 27
50 31 43 5 122 39 131 55 6 12 21 19 37 19 28 0 60 18 94 52 22 22 23 34 3 42
-29 11 -17 44 20 56 45 15 55 7 55 -41 0 -43 18 -51 54 -24 10 8 43 20 72 26
49 11 54 15 54 40 0 20 7 30 28 40 16 7 35 24 44 38 12 23 26 28 92 40 89 14
136 29 136 42 0 13 60 41 76 35 21 -8 44 4 44 24 0 13 11 20 38 25 46 8 132
56 132 73 0 6 4 12 10 12 5 0 22 13 36 29 18 21 35 29 55 29 16 -1 39 8 52 19
32 28 72 43 117 43 29 0 40 4 40 15 0 15 10 19 43 16 9 -1 17 4 17 12 0 14 56
47 78 47 6 0 16 13 24 30 8 19 20 30 33 30 11 0 25 4 31 8 10 6 22 77 27 152
2 28 37 88 74 128 13 14 28 43 34 66 16 60 31 88 61 116 23 22 70 124 85 187
3 14 -11 46 -46 101 -28 43 -51 82 -51 85 0 20 20 -1 60 -63 25 -38 50 -68 55
-67 6 2 10 18 11 35 1 18 8 40 18 50 20 23 21 52 2 52 -8 0 -22 -10 -30 -22
-11 -16 -16 -18 -16 -7 0 20 20 39 42 39 21 0 21 2 7 55 -7 25 -33 63 -70 103
-33 35 -57 67 -54 72 3 5 22 2 42 -6 50 -21 61 -7 39 49 -10 27 -14 55 -10 75
4 22 2 38 -8 50 -22 27 -38 70 -38 105 -1 18 -9 50 -20 72 -20 42 -29 185 -11
185 18 0 78 66 85 92 3 16 11 28 16 28 6 0 10 6 10 14 0 8 7 16 15 20 19 7 20
56 1 56 -15 0 -32 53 -22 68 3 5 28 12 55 16 53 7 67 18 73 56 2 14 14 30 27
37 22 10 27 9 39 -8 7 -10 19 -19 26 -19 8 0 16 -7 20 -15 3 -9 0 -15 -9 -15
-20 0 -40 -39 -26 -53 7 -7 16 -6 29 6 10 9 23 17 29 17 5 0 22 13 36 30 20
22 36 30 60 30 17 0 48 4 67 9 19 5 47 12 63 15 15 4 27 12 27 20 0 17 32 46
51 46 26 0 86 -35 81 -48 -2 -7 -22 -12 -47 -12 -37 0 -47 -5 -65 -30 -12 -16
-26 -30 -31 -30 -23 0 -49 -42 -49 -78 0 -29 5 -39 22 -47 13 -6 24 -18 26
-27 4 -19 -26 -58 -45 -58 -6 0 -18 -7 -27 -15 -15 -15 -14 -26 4 -70 19 -46
28 -113 21 -163 -9 -66 1 -73 62 -43 24 12 48 21 53 21 15 0 51 41 63 70 6 15
10 19 10 9 1 -9 7 -22 15 -28 11 -9 20 -6 44 14 20 17 42 25 66 25 35 0 47
-12 26 -25 -6 -4 -10 -14 -9 -23 4 -40 -2 -51 -31 -57 -32 -7 -41 -32 -15 -41
18 -7 19 -26 4 -41 -9 -9 -17 -7 -31 7 -24 22 -48 16 -48 -11 0 -10 -7 -19
-15 -19 -9 0 -18 -7 -21 -15 -4 -10 -20 -15 -45 -15 -28 0 -39 -4 -39 -15 0
-17 30 -35 59 -35 27 0 37 -18 18 -33 -8 -7 -17 -21 -19 -32 -3 -16 -12 -20
-47 -22 -24 -1 -45 -4 -48 -6 -2 -3 2 -18 11 -34 13 -27 13 -31 -2 -46 -15
-16 -14 -17 11 -17 30 0 38 -25 9 -32 -9 -3 -26 -24 -37 -46 -24 -49 -46 -53
-80 -14 l-24 27 -1 -57 c0 -32 4 -58 10 -58 5 0 12 -11 16 -25 3 -14 10 -25
16 -25 11 0 71 30 78 39 38 48 378 98 393 57 4 -9 -9 -19 -36 -31 -23 -9 -57
-23 -75 -31 -18 -8 -39 -14 -47 -14 -8 0 -29 -6 -47 -14 -18 -8 -65 -24 -105
-36 -40 -12 -78 -29 -84 -37 -11 -12 -9 -13 13 -8 23 6 26 3 38 -39 16 -59 30
-70 66 -54 16 7 31 15 34 18 3 3 14 5 25 5 14 0 27 14 42 45 20 42 23 44 58
42 24 -3 43 2 55 13 13 12 28 15 44 11 16 -4 30 -1 40 9 17 17 66 20 66 4 0
-11 -100 -109 -112 -109 -5 0 -8 -7 -8 -15 0 -8 -6 -15 -14 -15 -8 0 -17 -11
-20 -25 -4 -14 -22 -35 -42 -48 -21 -13 -37 -33 -41 -49 -3 -16 -11 -28 -17
-28 -14 0 -46 -52 -46 -74 0 -9 7 -16 15 -16 8 0 15 -7 15 -15 0 -8 -7 -15
-15 -15 -8 0 -15 -7 -15 -15 0 -9 -6 -18 -14 -21 -21 -8 -28 -34 -15 -51 10
-11 8 -15 -9 -20 -15 -3 -22 -14 -24 -37 -2 -23 -8 -32 -25 -34 -29 -4 -29
-13 2 -42 31 -29 31 -36 1 -44 -22 -5 -23 -8 -13 -36 10 -27 12 -28 29 -13 16
14 19 14 43 -8 35 -34 32 -51 -7 -49 -18 1 -39 2 -45 1 -20 -2 -15 -45 7 -59
11 -7 20 -21 20 -32 0 -12 6 -36 14 -55 12 -28 12 -36 1 -45 -23 -19 -6 -40
32 -40 33 0 34 2 32 33 -1 17 1 47 6 64 7 29 10 32 34 26 14 -3 27 -7 28 -8 2
-1 -2 -28 -8 -59 -6 -32 -8 -64 -5 -72 3 -7 24 -17 46 -20 39 -6 66 -24 36
-24 -8 0 -16 -5 -18 -12 -6 -16 7 -83 27 -143 28 -85 34 -95 48 -89 10 4 19
-12 31 -54 9 -33 23 -65 31 -72 9 -8 15 -30 15 -55 0 -32 7 -52 25 -73 14 -17
32 -50 40 -74 27 -77 25 -74 34 -59 6 9 14 5 29 -17 12 -16 19 -32 15 -36 -3
-3 5 -6 19 -6 40 0 93 41 93 72 1 15 -2 25 -6 22 -4 -2 -12 3 -19 10 -9 11 -9
20 0 37 12 22 13 21 33 -14 24 -42 41 -51 69 -36 15 8 23 8 32 -1 8 -8 5 -16
-14 -30 l-25 -19 24 -46 c37 -69 65 -95 104 -95 52 0 64 -22 25 -45 -22 -13
-33 -15 -36 -7 -2 7 -8 10 -13 6 -5 -3 -19 2 -30 10 -29 20 -79 97 -72 109 3
6 1 7 -4 4 -16 -10 -23 18 -10 34 10 11 9 11 -4 1 -9 -6 -19 -9 -22 -5 -8 7
-97 -39 -97 -50 0 -18 85 -137 97 -137 7 0 10 -7 7 -17 -4 -11 -3 -14 3 -7 4
7 19 14 33 15 19 3 25 0 25 -16 0 -22 -43 -42 -68 -32 -21 8 -105 114 -123
155 -8 17 -16 32 -17 32 -5 0 12 -122 17 -128 2 -2 0 -17 -4 -33 -5 -18 -5
-27 1 -24 9 6 13 -7 10 -35 -2 -12 0 -13 8 -1 7 11 11 10 20 -8 9 -16 8 -26
-5 -46 -9 -14 -21 -22 -27 -18 -5 3 -7 1 -3 -5 3 -5 -12 -25 -34 -42 -22 -17
-40 -37 -40 -43 -1 -7 -14 -28 -30 -47 -30 -35 -39 -77 -20 -96 17 -17 0 -44
-30 -50 -23 -5 -34 -20 -65 -87 -35 -76 -38 -89 -37 -167 0 -56 -5 -96 -15
-118 -19 -44 -10 -82 20 -82 12 0 35 -7 51 -15 38 -20 49 -19 43 4 -7 28 9 49
25 33 22 -22 31 -13 24 28 -6 36 -4 41 18 50 18 7 23 14 19 29 -4 16 -1 21 13
21 11 0 25 9 32 21 12 19 19 20 92 13 90 -7 99 0 45 37 -45 31 -55 64 -27 92
l21 21 21 -27 c26 -32 41 -34 58 -7 7 11 19 20 27 20 9 0 15 9 15 21 0 19 1
19 16 4 20 -19 38 -15 43 11 4 23 19 34 49 34 12 0 22 3 23 8 3 27 9 46 19 56
16 15 43 -22 37 -51 -6 -35 5 -43 45 -34 47 11 79 -8 62 -36 -6 -10 -19 -20
-29 -22 -20 -3 -66 -53 -77 -83 -5 -12 -17 -18 -36 -18 -45 0 -83 -56 -51 -76
6 -3 9 -15 6 -25 -6 -23 14 -41 33 -29 10 6 21 3 33 -8 18 -16 20 -15 40 12
14 19 20 41 18 63 -2 27 1 33 17 33 11 0 23 -7 26 -16 4 -11 17 -15 43 -14 64
3 73 1 73 -18 0 -10 -11 -28 -25 -40 -30 -27 -32 -65 -5 -92 18 -18 23 -19 35
-7 8 9 25 12 40 9 44 -8 75 37 75 108 0 34 5 61 13 67 16 13 157 9 183 -5 32
-17 41 -2 40 64 0 34 5 68 11 75 8 10 9 20 3 29 -6 8 -10 47 -10 86 0 72 -10
94 -41 94 -9 0 -19 6 -22 14 -6 15 6 29 36 39 9 4 20 15 23 24 3 10 12 30 20
45 8 14 14 32 14 40 0 7 9 19 20 26 12 7 20 23 20 40 0 21 8 33 32 47 l32 18
-22 15 c-16 11 -22 24 -22 52 0 41 -11 50 -61 50 -21 0 -29 5 -29 18 0 10 -11
25 -25 32 -32 17 -32 35 0 56 14 9 25 23 25 30 0 8 5 14 11 14 7 0 9 10 5 26
-5 18 -2 32 10 45 21 23 34 24 34 4 0 -9 7 -18 15 -21 17 -7 20 -35 4 -51 -8
-8 -4 -15 12 -27 21 -14 25 -14 52 3 l29 18 33 -32 c24 -25 38 -32 58 -28 35
7 60 -20 81 -83 15 -47 20 -53 52 -59 26 -4 41 -2 53 9 20 18 82 21 98 5 11
-11 53 7 53 23 0 17 42 48 65 48 16 0 25 6 25 15 0 10 10 15 31 15 28 0 31 3
25 23 -4 12 -9 33 -12 47 -2 14 -14 31 -24 39 -24 16 -26 56 -5 65 8 3 15 1
15 -4 0 -15 37 -31 55 -24 11 5 15 16 13 37 -4 38 22 58 52 39 53 -33 93 11
70 75 -6 18 -10 57 -9 88 2 46 -1 59 -19 76 -13 12 -22 32 -22 50 0 34 -16 68
-39 86 -14 10 -14 16 -3 47 19 53 9 76 -33 74 -39 -1 -72 23 -77 56 -2 16 -9
20 -29 18 -15 -2 -32 4 -39 14 -12 14 -12 18 3 29 21 15 23 65 3 65 -7 0 -19
-7 -26 -15 -14 -17 -46 -20 -55 -5 -3 6 -24 10 -46 10 -24 0 -38 4 -34 10 3 6
1 10 -5 10 -7 0 -10 6 -7 14 4 11 -4 13 -36 10 -50 -4 -130 24 -135 48 -2 10
8 19 27 26 17 6 31 16 31 22 0 7 -29 48 -65 93 -49 61 -62 84 -54 94 9 10 16
7 33 -14 11 -15 20 -31 18 -36 -1 -5 2 -6 8 -2 5 3 13 -2 17 -12 4 -9 18 -28
31 -40 14 -13 21 -23 16 -23 -5 0 2 -8 15 -17 23 -16 23 -17 5 -24 -14 -6 -12
-7 11 -6 l30 2 -5 77 c-4 63 -2 81 12 98 17 20 17 18 20 -62 l3 -83 30 -1 c17
0 41 -4 54 -9 19 -6 28 -2 41 15 11 15 19 19 24 11 4 -6 18 -11 32 -11 29 0
33 28 9 64 -15 23 -11 56 7 56 5 0 8 12 7 28 -2 15 0 33 4 40 10 15 51 16 77
2 15 -8 26 -4 52 19 18 15 44 32 56 36 23 7 24 10 20 106 -3 91 -1 99 15 99
11 0 30 9 44 20 21 17 35 19 75 14 l48 -7 0 35 c0 52 22 66 65 42 29 -15 37
-16 59 -5 13 7 29 10 35 6 7 -4 18 -1 26 5 9 8 28 10 46 6 24 -4 35 -2 45 11
11 16 16 16 35 4 20 -12 24 -11 34 3 7 9 17 16 23 16 6 0 26 8 45 17 25 13 39
32 56 71 21 51 21 79 0 66 -6 -3 -21 4 -35 17 l-24 22 -14 -35 c-19 -44 -38
-52 -66 -28 -22 19 -22 19 -45 -6 -30 -32 -38 -31 -61 11 -24 46 -36 49 -59
15 -25 -37 -46 -42 -81 -19 -25 16 -30 16 -56 3 -20 -10 -34 -12 -47 -5 -12 7
-22 6 -29 -1 -8 -8 -15 -8 -27 2 -12 10 -19 10 -27 2 -7 -7 -28 -12 -48 -12
-27 0 -38 -5 -45 -23 -8 -17 -17 -21 -43 -19 -17 1 -32 -2 -32 -8 0 -5 -18
-10 -39 -10 -22 0 -43 -5 -46 -10 -12 -20 -32 9 -55 80 -12 38 -33 81 -46 95
-41 44 -23 85 36 85 12 0 35 9 51 21 22 15 29 28 29 52 -1 33 -20 67 -37 67
-13 0 -83 76 -83 90 0 6 9 18 20 27 27 24 25 43 -7 69 -28 22 -28 23 -8 38 14
12 32 15 61 11 31 -4 45 -1 64 15 13 11 36 20 52 20 32 0 129 59 153 93 20 29
66 57 95 57 14 0 38 7 54 15 15 8 37 15 47 15 21 0 26 8 32 56 5 29 2 33 -34
47 -38 15 -55 47 -25 47 21 0 73 47 91 82 24 49 20 68 -15 68 -32 0 -35 9 -30
83 1 17 -4 29 -14 33 -10 4 -16 18 -16 39 0 28 -5 35 -30 44 -32 11 -36 21
-19 52 8 16 4 28 -20 61 -28 38 -30 47 -25 97 9 91 48 156 80 132 5 -3 18 -23
28 -43 18 -35 22 -38 64 -38 35 0 45 4 49 20 3 10 16 26 29 35 13 8 24 24 24
35 0 15 7 20 25 20 14 0 28 7 31 15 4 8 15 15 25 15 10 0 19 3 19 8 0 15 -51
62 -68 62 -9 0 -34 5 -54 11 -27 7 -38 15 -38 29 0 11 -7 20 -15 20 -10 0 -15
-10 -15 -29 0 -39 -18 -49 -37 -21 -14 20 -16 20 -34 4 -10 -9 -19 -25 -19
-36 0 -19 -25 -24 -49 -9 -10 6 -12 19 -7 45 6 32 5 36 -14 36 -21 0 -26 16
-10 40 5 9 5 19 -2 27 -8 10 -15 9 -35 -7 -31 -24 -39 -25 -47 -3 -7 18 41
123 57 123 11 0 67 -31 85 -47 7 -7 28 -13 47 -13 18 0 40 -3 49 -6 12 -5 16
0 16 20 0 15 8 30 20 36 28 15 100 87 100 100 0 13 46 79 68 97 10 8 22 9 43
1 24 -8 34 -7 47 6 12 10 29 14 52 10 49 -7 67 7 53 39 -10 21 -9 28 7 42 14
12 17 26 13 55 -5 32 -1 46 21 74 18 25 26 47 26 76 0 31 6 46 25 63 33 28 44
89 21 112 -9 9 -16 22 -16 28 -1 21 -37 57 -57 57 -11 0 -33 -13 -49 -30 -16
-16 -36 -29 -44 -29 -17 0 -87 78 -90 100 -5 31 1 49 15 49 19 0 19 24 1 40
-8 6 -16 23 -18 37 -2 14 -12 31 -23 37 -28 15 -35 27 -35 59 0 15 -6 27 -12
27 -7 0 -19 4 -27 9 -12 8 -12 12 -2 24 10 12 8 19 -8 34 -10 10 -21 29 -23
43 -3 25 -35 46 -106 68 -27 9 -34 8 -42 -8 -6 -10 -10 -30 -10 -44 0 -19 -5
-26 -20 -26 -11 0 -20 5 -20 11 0 5 -16 17 -36 25 -32 13 -35 18 -30 42 14 57
18 130 8 149 -6 11 -31 30 -56 43 -43 24 -45 24 -65 6 -21 -19 -41 -14 -41 10
0 8 -4 14 -10 14 -5 0 -10 7 -10 15 0 15 -31 26 -65 22 -15 -1 -21 5 -23 23
-7 52 -55 77 -83 44 -10 -12 -10 -20 -1 -35 11 -17 9 -21 -13 -29 -37 -14 -55
-12 -55 5 0 8 -6 15 -14 15 -8 0 -22 20 -33 45 -10 25 -22 45 -27 45 -21 0
-53 49 -49 74 6 31 -11 34 -46 9 -20 -14 -29 -14 -58 -4 -38 14 -44 11 -67
-33 l-15 -29 -15 38 c-14 33 -19 37 -43 32 -16 -2 -43 -11 -60 -18 -26 -11
-35 -11 -45 -1 -18 18 -14 93 7 125 12 19 15 37 11 59 -7 37 -7 35 0 106 7 60
-8 83 -59 96 -15 3 -27 11 -27 16 0 6 -10 10 -23 10 -23 0 -48 -22 -60 -53 -3
-9 -10 -17 -15 -17 -23 0 -32 31 -30 101 l3 74 -53 25 c-29 14 -55 34 -58 45
-4 11 -20 37 -37 58 -26 34 -34 38 -61 33 -51 -9 -60 3 -52 75 4 35 12 69 17
76 6 6 12 31 14 55 3 35 1 39 -7 21 -13 -27 -60 -28 -84 -2 -27 30 -14 119 17
119 6 0 7 -5 3 -12 -4 -7 -3 -8 4 -4 6 4 9 12 7 19 -4 10 26 34 66 55 4 1 9
-6 12 -18 4 -15 -2 -24 -22 -35 -15 -7 -33 -21 -40 -29 -7 -9 -16 -14 -20 -11
-4 2 -5 -10 -3 -26 6 -39 26 -47 63 -25 16 9 34 14 41 10 6 -4 8 -3 5 3 -7 12
20 26 33 18 9 -5 21 90 14 109 -3 7 -16 18 -29 24 -17 8 -22 16 -18 32 3 13
-2 29 -14 43 -11 12 -25 41 -32 65 -16 56 -41 81 -75 75 -24 -5 -26 -9 -20
-38 3 -19 1 -35 -5 -39 -6 -4 -11 -15 -11 -25 0 -10 -17 -30 -37 -43 -21 -14
-54 -39 -73 -57 -19 -17 -37 -31 -40 -31 -3 0 -20 23 -38 50 -22 33 -32 60
-30 78 2 22 -1 27 -22 30 -52 6 -70 13 -70 27 0 8 -5 15 -11 15 -25 0 -156
116 -178 158 -11 20 -8 26 27 60 22 20 49 62 62 92 12 30 28 63 35 73 11 16
13 16 38 -3 33 -26 57 -26 57 1 0 18 4 20 30 14 23 -5 30 -3 30 9 0 9 -4 16
-10 16 -5 0 -10 15 -10 33 0 46 -8 50 -42 22 -39 -33 -61 -31 -98 5 -35 34
-38 63 -11 82 17 12 19 23 15 83 -4 71 -15 95 -43 95 -24 0 -41 -20 -41 -49
l-1 -26 -20 24 c-18 22 -23 23 -41 12 -18 -11 -22 -11 -30 3 -18 32 -67 19
-114 -28 -42 -43 -43 -44 -23 -62 31 -28 24 -44 -21 -44 -29 0 -40 -4 -40 -15
0 -8 4 -15 9 -15 19 0 23 -58 6 -89 -14 -28 -20 -31 -64 -31 -34 0 -51 5 -55
15 -7 20 -35 19 -57 -1 -17 -15 -21 -15 -41 -2 -44 28 -77 30 -125 7 l-45 -22
-43 49 c-40 44 -44 54 -45 100 0 58 -11 68 -59 54 -16 -4 -32 -6 -35 -2 -4 3
-32 11 -64 17 -50 10 -59 15 -72 43 -17 36 -52 41 -58 9 -2 -11 -14 -34 -27
-53 -19 -28 -22 -40 -14 -71 5 -21 9 -40 9 -43 0 -10 -61 -32 -74 -27 -7 3
-16 22 -20 41 -4 20 -11 36 -16 36 -16 0 -23 47 -10 69 8 16 8 27 -1 42 -9 18
-17 21 -54 16 -33 -5 -46 -2 -59 12 -9 10 -16 22 -16 28 0 15 -34 43 -52 43
-9 0 -18 -6 -21 -14 -9 -23 -56 -26 -68 -4 -8 14 -17 18 -34 14 -23 -6 -35 8
-35 39 0 20 50 49 63 36 18 -18 104 -14 111 5 20 51 -20 80 -60 43 -21 -19
-21 -19 -57 5 -30 21 -38 22 -48 10 -16 -19 -39 -18 -39 4 -1 14 -5 12 -23 -9
-20 -24 -57 -49 -71 -49 -3 0 -18 14 -34 32 -18 19 -41 32 -58 33 -16 1 -41 6
-56 10 -25 6 -27 10 -23 44 7 46 -3 61 -47 67 -30 3 -39 0 -53 -22 -10 -16
-24 -25 -38 -24 -12 1 -28 2 -34 1 -15 -1 -17 -37 -3 -46 15 -9 12 -25 -4 -25
-7 0 -19 -7 -26 -15 -7 -9 -18 -14 -24 -12 -6 3 -18 -2 -27 -9 -23 -21 -58 15
-51 52 4 24 2 26 -18 21 -12 -3 -30 -1 -40 5 -14 9 -22 8 -34 -5 -18 -18 -21
-43 -6 -52 13 -8 13 -75 0 -75 -6 0 -13 7 -16 15 -4 9 -19 15 -35 15 -27 0
-29 3 -29 40 0 30 -5 42 -21 51 -15 8 -24 8 -32 0 -6 -6 -18 -11 -27 -11 -9 0
-21 -5 -28 -12 -7 -7 -32 -11 -57 -9 -34 2 -45 -1 -45 -12 0 -11 -14 -16 -46
-19 -41 -3 -47 -1 -64 27 l-19 30 -130 2 c-103 1 -131 -2 -135 -13 -3 -8 -16
-14 -28 -14 -13 0 -31 -9 -41 -20 -9 -11 -24 -20 -32 -20 -8 0 -15 -3 -15 -8
0 -12 -56 -33 -74 -26 -20 8 -20 15 1 59 9 19 14 37 12 40 -3 3 -29 6 -59 7
-48 2 -55 0 -80 -30 -29 -35 -51 -40 -70 -17 -17 20 -7 91 16 116 16 18 16 19
-2 19 -10 0 -30 -7 -44 -14z m3604 -1547 c-3 -5 1 -6 9 -3 9 3 27 -10 45 -34
l31 -39 -42 -35 c-23 -20 -53 -45 -67 -56 -21 -17 -23 -22 -11 -36 10 -12 26
-16 50 -14 28 2 40 10 56 35 24 38 60 46 49 11 -4 -13 -11 -26 -16 -29 -5 -3
-8 -10 -6 -15 4 -12 -61 -54 -84 -54 -42 0 -96 44 -90 73 1 4 -4 6 -10 5 -7
-2 -12 5 -12 14 1 10 -2 16 -6 13 -10 -6 -21 21 -27 68 -5 41 5 60 48 86 28
17 92 25 83 10z m-296 -94 c16 -25 30 -35 48 -35 14 0 23 4 19 10 -3 6 1 10 9
10 26 0 31 -23 8 -38 -31 -20 -28 -36 19 -103 40 -57 53 -64 100 -60 9 1 21
-5 28 -13 10 -12 7 -17 -18 -31 -28 -14 -34 -14 -61 0 -36 19 -114 121 -104
137 4 6 3 8 -4 4 -5 -3 -12 -1 -14 6 -3 9 -15 8 -46 -6 -59 -27 -68 -40 -48
-72 15 -21 15 -28 4 -42 -11 -15 -11 -15 3 -5 13 11 21 7 48 -27 26 -32 38
-40 66 -40 19 0 37 -5 40 -10 11 -18 -15 -39 -43 -35 -15 1 -33 3 -40 4 -7 0
-10 5 -7 11 3 5 0 8 -7 5 -16 -6 -81 91 -72 107 5 7 3 8 -5 4 -8 -5 -14 -1
-17 11 -4 15 -12 19 -30 15 -24 -4 -30 7 -25 45 1 7 -6 24 -14 37 -17 26 -12
72 6 60 6 -3 8 -13 4 -22 -3 -9 -3 -13 1 -9 10 10 35 -13 27 -26 -3 -5 -1 -7
5 -3 6 3 13 2 17 -3 6 -12 34 -3 53 16 7 7 20 17 29 22 15 8 14 12 -5 45 -19
32 -21 66 -3 66 3 0 16 -16 29 -35z m-90 -358 c32 -48 41 -74 22 -62 -5 3 -7
0 -5 -7 6 -16 -37 -60 -63 -65 -76 -15 -82 -13 -133 40 -26 28 -47 52 -45 54
2 2 -13 20 -32 39 -35 35 -36 37 -17 51 22 16 16 21 108 -96 52 -66 76 -75
122 -45 31 21 31 37 0 78 -14 18 -25 37 -25 42 0 5 -11 22 -25 37 -14 15 -23
27 -19 27 4 0 -3 12 -17 27 -13 14 -19 23 -13 20 7 -4 15 0 18 9 6 16 43 -28
124 -149z m-277 -68 c45 -48 69 -85 61 -94 -4 -5 -2 -5 5 -1 6 3 20 -6 32 -23
18 -25 19 -30 6 -41 -19 -15 -32 -6 -71 53 -16 23 -36 47 -44 54 -13 11 -13
12 0 13 8 0 0 8 -18 17 -31 15 -36 15 -68 0 -19 -9 -39 -28 -46 -41 -10 -23
-5 -31 50 -92 34 -37 59 -71 56 -76 -3 -5 -2 -7 3 -6 4 2 9 0 11 -4 6 -19 1
-26 -15 -23 -10 1 -17 8 -15 14 1 6 -1 10 -5 9 -10 -3 -52 38 -146 143 -74 83
-76 87 -58 103 16 14 20 15 30 2 7 -8 9 -21 5 -27 -4 -7 -3 -9 3 -6 6 4 16 0
23 -8 13 -16 55 -21 46 -6 -3 5 6 20 20 35 15 14 30 23 35 20 5 -3 9 0 9 5 0
6 14 11 31 11 22 0 40 -9 60 -31z m-241 -173 c0 -5 -3 -6 -7 -3 -10 11 -83
-69 -83 -91 0 -40 40 -37 99 6 29 21 39 24 69 16 66 -17 65 -92 -1 -156 -16
-15 -34 -25 -39 -22 -4 3 -7 0 -6 -7 2 -7 -5 -15 -16 -17 -11 -2 -16 0 -12 6
3 6 1 12 -5 14 -6 2 13 24 43 48 48 40 54 48 47 72 -4 15 -5 29 -2 32 13 13
-60 -15 -84 -32 -44 -31 -86 -36 -106 -14 -32 35 -29 77 6 117 52 58 96 72 97
31z m1769 -4472 c2 -2 1 -10 -3 -19 -4 -11 -13 -14 -29 -10 -17 5 -32 -1 -52
-18 -34 -29 -30 -63 13 -102 15 -14 23 -25 17 -25 -5 0 6 -11 25 -25 19 -14
43 -25 54 -25 27 0 56 29 56 57 0 16 6 23 20 23 28 0 27 -49 -3 -83 -29 -35
-86 -55 -98 -36 -5 8 -9 10 -9 4 0 -13 -76 61 -111 109 -16 21 -29 51 -29 65
0 35 34 84 61 88 13 2 25 6 27 8 5 4 53 -4 61 -11z m-502 -297 c30 -38 42 -41
68 -17 21 19 27 21 40 10 14 -12 13 -16 -10 -40 l-26 -27 53 -56 c51 -54 55
-56 85 -48 39 11 64 -9 43 -34 -7 -8 -16 -12 -21 -9 -5 3 -9 0 -9 -5 0 -6 -13
-11 -30 -11 -24 0 -42 13 -92 65 -43 46 -67 64 -79 60 -24 -8 -31 8 -18 41 5
16 7 25 3 21 -12 -12 -44 24 -44 50 0 29 13 29 37 0z m-44 -182 c-46 -29 -71
-58 -75 -83 -3 -24 0 -28 21 -30 14 -1 41 8 60 21 57 38 84 41 111 12 44 -47
5 -124 -90 -179 -28 -16 -32 -17 -27 -3 3 9 2 17 -4 19 -5 2 7 12 28 23 56 29
80 57 73 85 -4 18 -15 26 -38 31 -18 4 -31 4 -28 2 9 -10 -41 -43 -73 -49 -35
-7 -76 19 -66 43 3 9 0 11 -7 7 -8 -5 -9 -2 -5 10 4 10 7 23 7 30 0 19 61 77
73 69 6 -3 7 -1 3 6 -4 7 2 15 16 20 28 10 46 -18 21 -34z m-277 -286 c13 -12
20 -27 17 -37 -4 -9 -2 -13 4 -9 16 10 10 -20 -7 -36 -10 -10 -12 -9 -6 3 4 8
-2 3 -14 -12 -12 -16 -27 -28 -34 -28 -21 0 -46 -35 -44 -61 2 -21 7 -24 35
-23 18 0 41 8 51 17 10 10 22 14 26 10 4 -5 7 -3 6 2 -1 6 -2 18 -1 28 1 22
41 23 41 1 0 -9 -5 -12 -12 -8 -7 4 -8 3 -4 -4 9 -15 -12 -54 -25 -47 -5 4 -8
3 -7 -2 2 -4 0 -8 -3 -8 -3 0 -13 -8 -23 -17 -20 -20 -82 -25 -70 -6 4 7 3 8
-4 4 -25 -15 -112 107 -112 157 0 38 18 70 36 63 7 -3 13 0 11 6 -3 15 61 38
92 33 13 -2 34 -14 47 -26z"/>
<path d="M5407 9043 c-12 -11 -8 -21 18 -49 14 -15 25 -35 25 -45 0 -13 12
-21 40 -29 21 -6 42 -15 45 -20 3 -6 16 -10 27 -10 23 0 74 -50 84 -83 7 -22
51 -67 66 -67 7 0 2 97 -8 128 -2 8 -12 10 -26 7 -20 -5 -26 1 -40 37 -10 24
-18 48 -18 54 0 7 -12 20 -27 29 -22 15 -31 16 -60 6 -38 -14 -50 -9 -63 25
-9 23 -47 34 -63 17z"/>
<path d="M8193 4209 c-7 -7 -13 -17 -13 -22 0 -5 -16 -29 -37 -53 -36 -45 -36
-45 -24 -92 7 -26 16 -67 20 -92 5 -25 14 -61 21 -80 13 -36 66 -100 84 -100
5 0 24 11 42 25 25 19 33 34 37 67 8 70 23 114 51 150 18 25 26 47 26 77 0 36
-6 47 -42 81 -23 22 -51 40 -62 40 -12 0 -37 3 -56 6 -22 3 -40 1 -47 -7z"/>
</g>
</svg>
