<?xml version="1.0" standalone="no"?>
<!DOCTYPE svg PUBLIC "-//W3C//DTD SVG 20010904//EN"
 "http://www.w3.org/TR/2001/REC-SVG-20010904/DTD/svg10.dtd">
<svg version="1.0" xmlns="http://www.w3.org/2000/svg"
 width="1103.000000pt" height="1263.000000pt" viewBox="0 0 1103.000000 1263.000000"
 preserveAspectRatio="xMidYMid meet">
<metadata>
Created by potrace 1.16, written by Peter Selinger 2001-2019
</metadata>
<g transform="translate(0.000000,1263.000000) scale(0.100000,-0.100000)"
fill="#000000" stroke="none">
<path d="M8135 12372 c-27 -27 -30 -28 -55 -14 -24 14 -28 13 -48 -4 -18 -15
-22 -29 -22 -78 0 -57 2 -61 45 -103 25 -24 52 -43 60 -43 7 0 20 -9 28 -20
11 -16 21 -19 39 -15 18 5 27 2 31 -9 4 -9 13 -16 22 -16 11 0 15 -11 15 -45
0 -33 -4 -45 -15 -45 -29 0 -17 -41 15 -53 38 -14 40 -48 5 -71 -19 -12 -25
-26 -26 -54 -1 -20 -4 -48 -8 -62 -9 -32 -2 -60 15 -60 28 0 13 -51 -32 -110
-33 -43 -44 -66 -39 -80 7 -21 12 -23 55 -24 20 -1 26 -7 28 -28 4 -34 21 -36
46 -6 l19 21 14 -28 c12 -22 13 -33 4 -53 -15 -31 0 -52 24 -32 13 11 15 8 15
-19 0 -25 5 -32 28 -37 15 -3 33 -7 40 -10 19 -5 27 -35 12 -44 -9 -6 -7 -11
9 -20 18 -9 20 -14 10 -26 -6 -8 -17 -14 -24 -14 -19 0 -25 -37 -9 -51 20 -17
13 -44 -11 -44 -34 0 -30 -34 6 -49 38 -16 22 -32 -28 -27 -23 2 -33 -2 -33
-11 0 -20 58 -68 102 -84 38 -14 33 -94 -6 -94 -53 0 -66 -11 -66 -51 0 -28 4
-39 15 -39 10 0 15 -10 15 -30 0 -16 -5 -30 -10 -30 -6 0 -15 -11 -20 -25 -5
-14 -14 -25 -20 -25 -21 0 -9 -30 15 -36 34 -8 48 -38 41 -85 l-6 -38 42 -3
c39 -3 43 -6 46 -30 3 -22 -1 -28 -15 -28 -10 0 -27 -13 -36 -30 -11 -17 -27
-30 -38 -30 -11 0 -22 -7 -25 -15 -11 -28 -34 4 -34 46 0 26 -4 39 -14 39 -21
0 -36 23 -26 40 15 24 -19 70 -52 70 -23 0 -28 5 -34 35 -9 47 -26 60 -49 35
-9 -10 -15 -25 -12 -33 3 -7 -3 -19 -13 -25 -14 -9 -23 -7 -41 9 -13 11 -29
17 -37 14 -7 -3 -16 -5 -18 -5 -2 0 -4 -9 -4 -19 0 -26 -20 -31 -42 -12 -22
19 -24 57 -3 65 26 10 16 31 -20 42 -31 10 -34 9 -37 -9 -2 -14 -18 -24 -53
-35 -56 -18 -70 -31 -51 -50 7 -7 10 -26 8 -42 -4 -28 -7 -30 -43 -27 l-39 3
0 -57 c0 -95 16 -110 64 -62 26 25 27 26 41 7 17 -22 30 -63 22 -70 -3 -3 -25
-8 -49 -11 -31 -4 -53 -15 -78 -40 -25 -24 -40 -33 -56 -29 -18 5 -24 -2 -40
-39 -12 -30 -24 -45 -36 -45 -10 0 -18 -4 -18 -10 0 -5 -6 -10 -14 -10 -7 0
-19 -7 -26 -15 -7 -8 -28 -15 -46 -15 -31 0 -34 -3 -34 -29 0 -36 -11 -45 -36
-27 -22 16 -45 10 -37 -10 8 -22 -28 -30 -43 -9 -11 15 -16 16 -28 6 -8 -7
-20 -10 -25 -7 -5 4 -12 2 -16 -4 -3 -5 -18 -7 -32 -4 -25 7 -26 6 -20 -29 3
-23 1 -42 -8 -54 -8 -10 -15 -24 -15 -32 0 -8 -7 -19 -16 -26 -15 -10 -15 -13
-2 -18 9 -3 27 6 44 21 16 15 32 28 36 28 5 1 13 2 20 3 6 0 9 4 6 7 -3 3 4
15 16 28 27 28 57 18 73 -25 8 -19 18 -29 32 -29 25 0 29 -41 6 -60 -26 -21
-17 -27 45 -32 69 -5 79 -11 62 -38 -7 -12 -8 -20 -2 -20 5 0 10 -8 10 -18 0
-20 -55 -72 -76 -72 -18 0 -18 -18 1 -36 8 -9 15 -24 15 -35 0 -14 -7 -19 -30
-19 -27 0 -30 -3 -30 -30 0 -16 -4 -30 -9 -30 -5 0 -12 -13 -16 -29 -7 -33
-26 -44 -61 -35 -17 4 -26 1 -30 -10 -3 -9 -12 -16 -19 -16 -7 0 -15 -7 -19
-15 -3 -8 -12 -15 -21 -15 -17 0 -64 -48 -65 -66 0 -14 -33 -24 -82 -24 l-38
0 0 45 c0 44 0 44 -42 55 -24 6 -52 14 -63 18 -11 3 -25 5 -32 4 -8 -2 -13 15
-15 45 -3 44 -5 48 -30 51 -24 3 -28 8 -28 33 0 18 -5 29 -14 29 -16 0 -29 27
-20 41 3 5 12 9 20 9 10 0 14 14 14 55 0 54 -1 56 -30 62 -16 3 -30 9 -30 14
0 5 -9 9 -19 9 -22 0 -51 -35 -51 -62 0 -10 -7 -18 -16 -18 -21 0 -10 -48 17
-73 24 -22 24 -21 -7 -54 -21 -22 -24 -34 -19 -61 l6 -33 -38 7 c-52 9 -53 10
-53 52 0 20 -9 48 -19 61 l-18 24 -22 -22 c-11 -11 -30 -21 -41 -21 -24 0 -18
-23 16 -60 12 -14 24 -41 26 -60 3 -34 2 -35 -30 -32 -24 3 -32 -1 -32 -13 0
-15 -3 -14 -30 2 -16 9 -30 22 -30 28 0 6 -7 21 -16 33 -15 21 -17 22 -34 7
-15 -13 -19 -13 -29 -1 -6 7 -24 16 -40 19 -16 3 -45 22 -66 42 -21 19 -42 35
-46 35 -5 0 -9 7 -9 15 0 18 -16 20 -24 3 -3 -9 -11 -6 -24 10 -24 26 -29 27
-48 8 -16 -17 -19 -52 -4 -61 16 -10 12 -25 -5 -19 -8 4 -15 1 -15 -5 0 -6 -7
-11 -16 -11 -8 0 -12 -4 -9 -10 3 -5 17 -10 30 -10 13 0 48 -14 77 -32 29 -17
63 -31 76 -30 16 1 22 -4 22 -18 0 -11 -7 -20 -15 -20 -8 0 -15 -8 -15 -17 0
-9 -14 -31 -30 -48 -23 -23 -31 -41 -32 -71 0 -24 -8 -48 -21 -61 -22 -24 -17
-73 7 -73 24 0 38 -26 22 -39 -8 -6 -18 -11 -22 -10 -28 5 -44 -3 -44 -21 0
-12 -7 -20 -16 -20 -12 0 -14 -7 -9 -32 4 -18 12 -38 17 -45 5 -7 7 -17 3 -23
-4 -6 0 -21 8 -33 7 -12 12 -28 10 -34 -6 -16 -57 -17 -84 -2 -17 8 -24 6 -40
-12 -20 -24 -18 -51 7 -80 8 -9 14 -38 14 -72 0 -58 6 -65 39 -47 15 7 20 4
30 -16 10 -22 17 -25 57 -23 49 3 64 -8 64 -49 0 -22 -23 -50 -83 -99 -32 -27
-35 -28 -58 -8 -15 15 -17 14 -23 -8 -7 -31 -45 -47 -111 -47 -46 0 -55 -3
-55 -17 0 -10 -9 -33 -21 -52 l-20 -34 -38 37 c-40 39 -58 45 -67 21 -4 -8
-15 -15 -25 -15 -11 0 -20 -8 -21 -17 -1 -10 -2 -25 -3 -33 -4 -37 -18 -61
-34 -58 -21 4 -56 -29 -66 -62 -4 -14 -16 -36 -26 -49 -15 -19 -19 -20 -19 -7
0 32 -19 54 -40 49 -11 -3 -20 -9 -20 -14 0 -5 -9 -18 -20 -29 -16 -16 -22
-17 -32 -6 -11 12 -17 11 -40 -2 -16 -9 -28 -22 -28 -29 0 -9 -18 -13 -62 -13
-62 0 -64 1 -112 50 -54 55 -61 58 -87 35 -15 -14 -20 -14 -50 3 -21 12 -36
29 -41 49 -6 23 -15 32 -38 36 -25 6 -30 11 -30 36 0 15 -7 34 -15 41 -9 8
-15 30 -15 56 0 36 -3 44 -19 44 -10 0 -24 -7 -31 -15 -17 -21 -59 -19 -97 5
l-33 20 -36 -25 c-20 -14 -41 -25 -46 -25 -5 0 -7 -4 -3 -10 3 -5 -7 -5 -25 1
-16 6 -33 15 -36 20 -3 5 -18 9 -34 9 -40 0 -44 -10 -56 -167 l-6 -73 -34 0
c-29 0 -34 3 -34 23 0 13 -7 38 -16 56 -16 32 -17 32 -82 29 -63 -3 -66 -4
-67 -28 -3 -67 -6 -80 -19 -80 -7 0 -19 -7 -26 -15 -12 -14 -15 -14 -36 0 -27
17 -60 20 -69 5 -8 -13 -35 -13 -35 0 0 5 -12 26 -26 47 -21 32 -33 39 -71 45
-26 4 -54 3 -63 -2 -13 -7 -20 -3 -29 16 -7 17 -18 24 -31 22 -14 -2 -25 5
-33 22 -8 15 -20 24 -30 22 -9 -2 -17 2 -17 8 0 5 -6 10 -13 10 -14 0 -47 35
-47 50 0 14 -22 12 -44 -5 -16 -12 -17 -15 -4 -15 9 0 18 -6 21 -14 8 -21 -4
-56 -19 -56 -8 0 -14 -6 -14 -13 0 -7 -9 -18 -20 -24 -16 -10 -22 -10 -36 5
-17 16 -17 16 -11 -6 5 -20 2 -23 -13 -19 -11 3 -29 -3 -40 -13 -17 -15 -19
-25 -14 -59 6 -38 5 -41 -18 -41 -16 0 -29 -10 -41 -30 -10 -16 -18 -32 -17
-35 1 -15 -1 -16 -13 -6 -11 8 -23 1 -56 -35 -45 -50 -48 -78 -15 -115 14 -15
11 -17 -31 -23 -35 -6 -49 -13 -57 -32 -6 -13 -17 -24 -25 -24 -10 0 -11 -5
-3 -19 7 -14 6 -23 -3 -33 -7 -7 -16 -21 -20 -30 -3 -10 -15 -18 -26 -18 -33
0 -51 -11 -51 -31 0 -10 -4 -19 -9 -19 -5 0 -7 -8 -4 -19 3 -11 11 -17 21 -15
10 2 29 -6 45 -19 27 -23 27 -23 12 -66 -8 -24 -12 -47 -9 -52 3 -5 -18 -9
-45 -9 -42 0 -51 -3 -51 -18 0 -29 -21 -42 -71 -42 -48 0 -59 9 -59 49 0 10
-9 29 -21 42 -11 13 -16 25 -10 27 7 2 6 10 -1 22 -9 14 -9 25 0 45 10 21 9
29 -2 41 -8 8 -22 14 -31 14 -8 0 -18 7 -21 15 -4 8 -15 15 -25 15 -10 0 -19
7 -19 15 0 8 -7 15 -15 15 -14 0 -35 29 -35 49 0 6 9 20 20 31 20 20 20 20 -4
20 -26 0 -56 33 -56 62 0 18 33 33 50 23 6 -3 13 1 16 9 3 9 16 16 29 16 22 0
35 17 35 46 0 8 -6 14 -14 14 -13 0 -26 48 -26 103 0 27 2 28 38 21 20 -3 42
-12 48 -20 15 -19 24 -18 24 4 0 10 11 28 25 40 32 28 31 42 -2 70 -22 18 -28
31 -27 60 1 20 6 37 13 37 6 0 10 5 9 10 -2 6 -18 10 -36 10 -29 0 -33 3 -38
35 -3 19 -7 40 -8 45 -2 6 0 17 5 26 5 10 3 27 -4 43 -9 20 -19 26 -44 26 -18
0 -33 -4 -33 -9 0 -5 -13 -11 -29 -14 -25 -5 -31 -13 -37 -42 -3 -19 -10 -38
-15 -41 -13 -8 -11 -58 3 -72 9 -9 9 -12 0 -12 -7 0 -12 -11 -12 -25 0 -16 -6
-25 -15 -25 -8 0 -15 6 -15 14 0 7 -13 23 -30 36 -24 18 -28 28 -23 48 6 24 5
25 -16 10 -21 -15 -83 -12 -81 5 0 4 0 18 0 32 0 14 5 25 11 25 33 0 54 80 22
80 -21 1 -53 23 -53 37 0 20 26 63 38 63 6 0 12 6 12 14 0 8 7 16 15 20 27 10
8 126 -20 126 -8 0 -15 7 -15 16 0 28 -35 11 -38 -19 -2 -15 -8 -27 -13 -27
-21 0 -45 -36 -38 -60 3 -14 1 -31 -4 -37 -15 -20 -37 -15 -37 7 0 19 -14 25
-50 20 -8 -1 -28 -15 -43 -31 -32 -33 -52 -37 -116 -23 -17 4 -22 10 -18 24 3
11 -2 28 -12 39 -9 12 -24 32 -33 45 -12 17 -24 23 -38 19 -11 -3 -27 0 -36 8
-27 22 -57 92 -57 132 0 45 -10 55 -31 26 -8 -12 -20 -19 -28 -16 -7 2 -20 0
-30 -4 -14 -8 -16 -3 -16 35 2 69 -22 86 -63 45 -12 -12 -28 -19 -37 -15 -74
23 -112 40 -112 47 0 5 -7 9 -15 9 -10 0 -15 11 -15 35 0 41 -20 46 -60 15
-14 -11 -31 -20 -39 -20 -8 0 -22 -7 -31 -15 -11 -10 -41 -16 -93 -17 -57 -1
-77 -5 -77 -15 0 -24 -52 -7 -77 26 -11 14 -12 14 -13 -2 0 -10 -7 -20 -15
-23 -8 -4 -15 -11 -15 -17 0 -12 -65 -77 -78 -77 -5 0 -17 -9 -27 -20 -10 -11
-24 -20 -30 -20 -15 0 -29 -46 -19 -62 5 -8 -18 -9 -80 -6 -78 5 -91 9 -117
34 -16 15 -41 28 -55 29 -14 0 -32 9 -39 19 -27 36 -86 96 -95 96 -6 0 -10
-11 -10 -24 0 -13 -7 -29 -15 -36 -8 -7 -13 -16 -10 -20 3 -4 -2 -13 -10 -20
-8 -7 -15 -25 -15 -41 0 -31 23 -49 63 -49 26 0 57 -28 57 -51 0 -8 9 -20 20
-27 25 -15 25 -34 0 -57 -10 -9 -19 -20 -18 -24 2 -21 -6 -31 -37 -45 -19 -9
-35 -20 -35 -24 0 -5 -17 -9 -37 -9 -21 -1 -39 -6 -41 -12 -2 -6 -8 -11 -14
-11 -16 0 -37 -26 -44 -54 -3 -14 -9 -26 -13 -26 -13 0 -31 -82 -31 -142 0
-35 -4 -70 -10 -78 -13 -21 6 -30 70 -30 30 0 66 -7 80 -15 27 -14 50 -5 50
22 0 8 5 11 10 8 6 -3 14 5 20 19 5 14 16 27 25 27 8 1 21 2 28 4 6 1 22 -4
34 -12 32 -19 43 -16 43 11 0 31 13 39 50 31 23 -5 30 -12 30 -31 0 -15 6 -24
15 -24 23 0 18 -24 -8 -35 -19 -9 -22 -16 -19 -62 2 -29 -1 -54 -7 -58 -6 -3
-11 -24 -11 -46 0 -28 -4 -39 -15 -39 -9 0 -15 -9 -15 -23 0 -13 -6 -37 -14
-53 -9 -18 -14 -55 -13 -96 1 -38 -1 -68 -5 -68 -14 0 -17 -37 -8 -95 8 -50 7
-62 -5 -71 -23 -17 -19 -71 5 -79 11 -3 27 -14 36 -23 10 -9 26 -17 38 -18 39
-3 56 -14 46 -32 -5 -10 -11 -28 -14 -42 -3 -14 -19 -40 -36 -58 -16 -18 -30
-38 -30 -43 0 -6 -7 -17 -15 -26 -9 -9 -13 -23 -10 -34 4 -11 4 -32 0 -48 -6
-29 -6 -29 -36 -13 -16 9 -29 22 -29 28 0 15 -97 14 -110 -1 -5 -6 -9 -48 -7
-91 2 -85 4 -87 62 -70 30 9 45 -6 52 -50 3 -21 14 -48 25 -60 15 -17 17 -26
8 -48 -13 -36 -13 -36 9 -36 11 0 32 -11 47 -25 15 -14 31 -25 35 -25 5 0 9
-7 9 -15 0 -8 -8 -15 -17 -15 -15 0 -18 -10 -20 -49 l-1 -49 41 6 c23 3 43 9
45 13 2 5 10 9 18 9 8 0 14 5 14 11 0 7 10 9 25 5 23 -6 24 -4 14 11 -8 14 -8
29 0 59 10 38 13 40 43 37 62 -7 140 -2 160 10 17 10 24 7 54 -25 l34 -38 83
0 83 0 28 53 c49 95 61 104 144 110 69 6 73 5 88 -19 13 -19 25 -24 61 -24 41
0 46 -3 56 -30 12 -31 13 -32 62 -34 38 -1 57 -36 43 -77 -12 -34 -1 -52 41
-72 36 -17 39 -51 7 -72 -14 -9 -28 -26 -32 -37 -9 -29 39 -68 83 -68 21 0 33
-5 33 -13 0 -19 37 -50 49 -42 6 3 11 13 11 21 0 8 7 14 15 14 7 0 18 7 23 16
7 13 21 16 71 12 45 -3 61 -1 61 9 0 21 47 46 75 39 35 -9 98 -105 93 -142 -3
-32 -44 -59 -72 -48 -22 8 -20 24 2 24 23 0 42 19 42 42 0 22 -13 23 -31 2 -8
-9 -25 -14 -45 -12 -18 1 -36 0 -39 -4 -4 -4 5 -27 20 -52 24 -42 25 -51 2
-47 -4 0 -7 -8 -7 -20 0 -19 4 -20 50 -14 39 5 56 3 76 -10 29 -19 51 -8 56
28 3 19 8 22 45 19 52 -4 103 16 103 40 0 10 4 18 9 18 5 0 14 14 20 30 15 44
31 37 31 -15 0 -30 4 -45 13 -45 7 0 22 -8 33 -18 27 -25 102 -63 108 -54 2 4
7 24 11 45 5 26 12 37 21 33 8 -3 36 -8 64 -12 l50 -7 0 40 c0 39 1 40 35 41
38 2 57 9 52 20 -7 14 41 50 55 41 7 -5 23 -9 35 -9 29 0 40 -20 20 -35 -11
-8 -17 -31 -19 -70 -2 -50 -7 -61 -25 -71 -38 -18 -6 -34 69 -34 61 0 68 2 60
16 -12 22 7 72 30 80 10 3 27 17 39 32 19 25 22 26 33 9 7 -9 18 -17 25 -17 6
0 11 -10 11 -22 0 -13 3 -33 6 -45 5 -19 2 -23 -15 -23 -12 0 -21 -6 -21 -15
0 -8 -7 -15 -15 -15 -8 0 -15 -7 -15 -15 0 -8 4 -15 8 -15 13 0 44 -60 38 -75
-2 -7 1 -18 8 -24 11 -9 10 -18 -3 -46 -15 -32 -20 -34 -61 -35 l-46 0 3 -42
c1 -25 -4 -49 -12 -58 -20 -22 5 -52 52 -59 25 -4 39 -12 41 -24 4 -21 -24
-57 -45 -57 -10 0 -13 -19 -13 -75 l0 -75 50 0 c36 0 52 -4 56 -15 4 -10 14
-13 29 -9 17 4 25 1 30 -15 3 -11 14 -23 24 -26 39 -12 24 -85 -17 -85 -15 0
-16 -76 -2 -85 6 -3 10 1 10 9 0 9 7 16 15 16 8 0 19 8 24 18 15 28 146 25
179 -3 12 -11 22 -24 22 -29 0 -5 7 -18 16 -28 13 -14 14 -21 5 -32 -9 -11 -6
-19 14 -37 30 -29 31 -39 5 -39 -11 0 -23 -7 -26 -15 -4 -8 -15 -15 -25 -15
-15 0 -19 -7 -19 -31 0 -41 -24 -58 -77 -59 -41 0 -43 -2 -43 -29 0 -16 7 -34
15 -41 8 -7 15 -21 15 -31 0 -10 7 -22 16 -27 11 -6 16 -28 17 -91 l2 -82 38
-16 c33 -15 37 -21 39 -57 2 -65 -1 -78 -22 -93 -11 -8 -18 -19 -15 -24 4 -5
-5 -20 -19 -33 -24 -22 -37 -54 -17 -42 14 9 41 -4 41 -19 0 -7 7 -18 15 -25
10 -8 15 -25 13 -43 -2 -23 1 -30 15 -33 36 -5 58 -35 51 -68 -3 -17 -12 -36
-20 -42 -21 -16 -17 -68 6 -89 26 -23 25 -53 -1 -81 l-21 -22 31 -16 c17 -9
33 -27 37 -40 3 -14 12 -27 20 -30 15 -6 20 -36 5 -36 -5 0 -12 -14 -16 -31
-9 -38 8 -52 41 -37 20 9 28 7 50 -15 23 -23 31 -25 73 -20 31 3 51 1 55 -6 4
-6 2 -11 -3 -11 -6 0 -11 -13 -11 -30 0 -16 5 -30 11 -30 6 0 8 -8 4 -19 -3
-11 -1 -22 5 -26 7 -4 9 -18 6 -31 -5 -17 -1 -27 14 -36 11 -7 20 -21 20 -30
0 -26 36 -40 81 -33 37 6 39 5 39 -18 0 -14 -7 -28 -17 -31 -14 -6 -11 -10 14
-29 18 -12 39 -34 48 -49 14 -25 21 -27 71 -27 62 1 99 -20 76 -43 -7 -7 -12
-21 -12 -33 0 -18 5 -20 40 -17 27 3 47 -1 58 -11 9 -8 31 -17 47 -19 25 -2
31 -8 33 -33 2 -16 8 -34 13 -39 16 -17 10 -26 -30 -43 -53 -23 -67 -49 -49
-93 13 -31 18 -34 56 -35 34 -1 42 2 42 16 0 15 9 18 58 18 50 -1 59 -4 68
-22 5 -13 17 -21 29 -20 10 1 25 -7 32 -17 11 -15 19 -17 44 -10 18 5 39 16
49 25 15 14 19 14 29 1 7 -8 12 -30 11 -48 -3 -58 -3 -59 33 -53 39 8 59 -10
62 -53 1 -15 3 -32 3 -39 1 -6 17 -13 35 -15 28 -3 33 -8 41 -40 8 -30 14 -38
33 -38 15 0 28 -10 38 -30 9 -16 19 -30 24 -30 5 0 11 -9 14 -20 3 -11 22 -27
43 -36 20 -8 43 -22 50 -29 16 -16 18 -35 4 -35 -5 0 -10 -7 -10 -15 0 -8 -6
-24 -12 -35 -11 -17 -7 -25 37 -70 27 -27 54 -50 60 -50 6 0 21 -7 33 -16 22
-15 22 -17 6 -35 -16 -18 -16 -19 5 -19 16 0 27 -11 42 -46 11 -26 17 -54 15
-63 -4 -11 9 -26 39 -46 36 -24 45 -36 45 -58 0 -25 -3 -28 -29 -25 -16 1 -35
-3 -43 -10 -12 -9 -19 -7 -37 9 -18 17 -22 30 -19 59 l3 38 -47 4 c-60 4 -68
1 -68 -23 0 -24 -46 -26 -72 -2 -21 19 -21 19 -19 -74 l2 -63 -46 0 c-26 0
-45 -5 -45 -11 0 -7 -12 -10 -30 -7 -19 3 -30 0 -30 -8 0 -6 -6 -14 -14 -17
-9 -4 -12 -14 -9 -26 3 -12 1 -21 -6 -21 -17 0 -13 -20 7 -27 9 -4 20 -11 24
-17 4 -6 23 -9 42 -8 26 2 38 -2 45 -17 14 -26 7 -42 -29 -66 -43 -29 -38 -43
15 -41 27 1 45 6 45 13 0 23 21 24 56 3 28 -18 34 -28 32 -49 -2 -20 -9 -27
-29 -29 -14 -2 -31 3 -38 11 -9 12 -17 12 -49 2 -51 -18 -53 -44 -7 -79 52
-40 29 -62 -45 -45 -11 3 -16 -6 -18 -34 l-3 -37 50 0 c54 0 66 -15 35 -41
-24 -20 -33 -51 -21 -76 16 -35 -8 -56 -52 -48 -20 4 -43 13 -52 21 -14 12
-19 11 -39 -11 l-23 -25 23 -25 c13 -14 31 -25 40 -24 20 3 72 -11 87 -23 9
-7 7 -18 -8 -44 l-19 -35 32 -13 32 -14 -37 -37 c-40 -40 -46 -55 -22 -55 8 0
15 -5 15 -10 0 -14 66 -80 80 -80 5 0 10 7 10 15 0 12 13 15 56 15 30 0 64 -5
74 -10 16 -9 21 -6 26 15 7 29 44 35 64 10 16 -19 30 -10 30 18 0 34 16 53 32
39 8 -6 34 -14 58 -18 50 -8 81 -35 73 -64 -3 -11 -1 -20 4 -20 19 0 54 -39
51 -57 -2 -13 2 -17 18 -15 14 2 24 -6 35 -29 22 -50 55 -48 50 3 -1 10 3 18
10 18 6 0 17 7 24 17 10 14 17 14 45 4 36 -12 44 -8 55 27 5 19 2 25 -14 29
-21 5 -25 14 -22 41 1 8 -7 16 -18 19 -35 9 -53 90 -26 113 23 19 18 40 -9 40
-13 0 -29 7 -36 15 -7 8 -25 15 -41 15 -16 0 -29 3 -29 6 0 17 37 110 47 119
6 6 13 35 15 65 3 51 2 55 -18 52 -12 -2 -24 4 -27 13 -4 8 -2 15 4 15 6 0 -1
14 -15 31 -14 17 -26 36 -26 42 1 7 21 32 45 57 35 36 47 42 57 32 18 -18 32
-15 43 10 6 13 21 28 34 34 22 12 23 12 3 18 -11 4 -31 4 -44 1 -17 -4 -28 2
-41 21 -25 33 -16 51 29 60 27 5 46 2 70 -11 31 -17 33 -17 76 9 54 31 88 33
111 6 9 -11 26 -20 37 -20 20 0 24 -9 21 -42 -3 -29 17 -55 60 -77 38 -20 74
-21 89 -2 3 3 14 11 25 17 13 8 20 22 20 42 0 17 3 34 8 38 4 4 7 19 7 34 0
19 -7 30 -25 38 -17 8 -25 20 -25 37 0 15 -6 25 -14 25 -24 0 -85 44 -86 61 0
23 39 31 72 14 25 -12 29 -12 42 7 8 12 27 29 42 39 l27 17 -38 16 c-20 9 -41
16 -46 16 -5 0 -9 5 -9 10 0 23 -42 52 -69 47 -40 -8 -57 6 -44 35 9 19 8 26
-3 34 -9 5 -12 18 -8 32 9 30 69 32 79 2 9 -29 42 -43 81 -35 27 5 33 3 28 -9
-6 -17 39 -81 68 -97 14 -8 25 -5 45 10 31 25 75 27 107 5 22 -14 25 -14 38 4
8 13 31 22 65 27 43 5 53 4 61 -11 5 -9 7 -25 5 -35 -4 -16 0 -19 26 -19 18 0
31 -5 31 -13 0 -7 12 -29 26 -50 14 -21 23 -44 21 -51 -8 -21 -74 -25 -90 -5
-23 27 -61 13 -73 -25 l-10 -33 48 -13 c60 -15 108 -53 108 -86 0 -21 -5 -24
-35 -24 -22 0 -38 6 -41 15 -4 9 -19 15 -40 15 -32 0 -34 -2 -34 -35 0 -21 5
-35 13 -36 6 0 26 -2 42 -3 17 -1 45 -3 63 -4 21 -1 32 -7 32 -17 0 -21 29
-19 69 6 33 20 35 20 48 3 21 -29 17 -91 -7 -104 -11 -6 -20 -15 -20 -20 0 -6
9 -10 20 -10 13 0 20 -7 20 -19 0 -10 -9 -30 -20 -44 -26 -33 -25 -39 11 -78
l30 -32 25 26 c14 15 29 27 34 27 6 0 10 7 10 16 0 9 11 25 25 36 14 11 25 26
25 34 0 9 11 14 29 14 17 0 31 6 35 16 5 13 16 15 64 9 49 -5 61 -3 84 14 14
12 33 21 42 21 21 0 22 66 1 77 -11 6 -15 33 -17 108 -3 95 -2 100 17 99 11
-1 27 -4 36 -8 9 -4 22 -1 30 6 8 8 22 17 32 21 9 3 17 16 17 27 0 11 7 23 15
26 8 4 15 16 15 28 0 12 9 32 21 45 19 21 22 21 45 7 33 -22 77 -20 92 4 7 11
20 20 30 20 10 0 28 11 40 25 12 14 30 25 41 25 31 0 42 71 15 101 -12 14 -13
22 -4 38 6 12 17 21 25 21 8 0 15 12 17 28 3 24 7 27 46 30 43 3 52 12 29 30
-13 12 -57 12 -57 1 0 -12 -53 -29 -74 -23 -36 11 -66 45 -66 76 0 52 35 89
102 109 27 7 30 6 25 -11 -3 -11 -1 -18 4 -14 5 3 9 1 9 -4 0 -5 -18 -15 -40
-22 -22 -7 -42 -21 -46 -32 -3 -10 -9 -16 -14 -13 -4 3 -6 -4 -3 -15 3 -11 13
-21 22 -22 9 0 23 -2 31 -3 8 -1 27 5 42 12 43 21 77 16 115 -17 38 -34 48
-36 69 -15 14 13 14 15 -1 15 -10 0 -13 5 -9 12 4 6 3 8 -4 4 -6 -3 -19 5 -29
19 -10 14 -28 38 -40 53 -13 15 -24 30 -24 35 -1 4 -2 11 -3 16 0 5 -5 13 -10
18 -5 5 -6 2 -2 -7 4 -8 -2 -4 -13 9 -12 12 -18 28 -14 35 3 6 3 8 -2 4 -4 -4
-23 11 -41 34 -24 32 -30 46 -22 55 15 19 20 17 52 -27 17 -22 34 -40 39 -40
5 0 25 14 44 30 50 44 83 40 139 -15 25 -24 43 -49 39 -55 -4 -6 -1 -9 5 -8 6
2 28 -17 48 -41 20 -25 32 -42 26 -38 -7 4 -15 0 -18 -9 -9 -22 -19 -16 -61
40 -20 26 -31 45 -23 40 7 -4 -7 13 -32 38 -31 30 -50 42 -60 37 -21 -10 -53
-22 -64 -23 -5 -1 -10 -13 -10 -28 -1 -15 0 -25 3 -23 4 5 68 -77 64 -82 -2
-2 5 -11 15 -21 28 -30 47 -57 50 -73 2 -7 7 -16 11 -19 4 -3 11 -17 15 -32 6
-25 11 -28 52 -28 l46 0 -31 -26 -31 -26 27 -29 c16 -16 36 -29 45 -29 10 0
24 -13 33 -30 12 -23 22 -30 44 -30 21 0 35 -8 48 -28 10 -15 24 -27 32 -27
25 0 35 -52 17 -89 -9 -19 -16 -43 -16 -54 0 -11 -7 -36 -16 -57 -8 -21 -13
-49 -9 -62 4 -17 -1 -33 -20 -54 -14 -17 -25 -36 -25 -44 0 -7 -7 -18 -15 -25
-8 -7 -15 -27 -15 -44 0 -18 -7 -41 -15 -52 -19 -25 -19 -48 1 -65 12 -10 14
-24 10 -63 -3 -28 -7 -84 -8 -125 l-3 -75 31 -8 c52 -13 54 -68 3 -68 -26 0
-29 -3 -29 -34 0 -18 7 -47 15 -62 8 -16 15 -55 15 -86 l0 -58 -43 0 c-42 0
-45 -2 -62 -40 -18 -40 -18 -41 3 -56 17 -12 20 -19 13 -33 -7 -12 -6 -24 4
-38 12 -17 12 -23 -1 -41 -8 -13 -26 -22 -40 -22 -27 0 -31 -20 -14 -66 13
-34 4 -64 -21 -64 -29 0 -23 -26 11 -40 17 -7 30 -16 30 -20 0 -5 6 -15 14
-23 14 -14 19 -30 17 -55 -1 -9 -8 -9 -32 3 -39 21 -45 15 -19 -16 20 -22 20
-24 3 -30 -16 -6 -14 -8 10 -20 15 -7 27 -20 26 -28 -3 -31 2 -36 36 -38 32
-1 35 1 35 27 0 47 19 45 74 -9 54 -53 91 -71 62 -29 -21 30 -20 55 4 85 11
14 19 39 18 56 -1 43 49 125 82 133 14 4 32 12 40 19 30 25 58 27 72 6 7 -12
20 -21 30 -21 9 0 24 -8 33 -17 14 -13 21 -14 36 -5 10 7 28 12 39 12 27 0 25
18 -6 47 -21 19 -25 30 -20 54 5 27 3 29 -24 29 -16 0 -32 5 -35 10 -3 6 -19
10 -35 10 -57 0 -63 9 -35 46 16 20 25 46 25 68 0 43 10 49 60 41 31 -5 52
-19 92 -61 45 -47 56 -54 91 -54 30 0 40 -4 44 -19 5 -19 33 -19 33 0 0 5 17
32 38 59 45 59 77 66 87 19 8 -35 29 -34 33 3 6 49 72 46 87 -3 4 -12 19 -22
36 -26 16 -3 29 -11 29 -18 0 -18 30 -27 46 -14 8 6 14 21 14 33 0 23 33 66
50 66 6 0 19 -9 30 -20 11 -11 25 -20 31 -20 17 0 38 32 39 56 0 24 18 34 59
34 34 0 61 28 61 63 0 26 2 27 59 27 37 0 61 4 63 12 3 9 11 9 34 1 16 -6 50
-14 77 -18 53 -7 56 -2 31 47 -28 54 17 105 58 65 31 -30 65 -47 95 -47 27 0
34 4 39 28 3 15 12 46 20 70 18 54 18 52 -10 52 -13 0 -26 7 -30 15 -3 8 -1
15 4 15 5 0 10 12 12 28 3 23 8 28 37 30 28 3 38 -2 58 -27 21 -26 27 -29 45
-20 14 7 23 8 30 1 18 -18 38 -1 38 32 0 17 7 40 15 50 8 11 15 29 15 39 0 18
-5 19 -45 14 l-45 -7 0 35 c0 28 4 35 20 35 11 0 20 4 20 9 0 5 10 13 23 17
48 15 43 44 -7 44 -38 0 -47 8 -84 81 -23 47 -31 54 -59 57 -35 3 -43 21 -18
42 24 20 17 62 -15 94 -43 42 -39 106 5 106 18 0 24 6 27 28 2 20 9 28 28 30
30 4 60 29 60 50 0 10 -7 12 -24 8 -14 -3 -32 -3 -40 0 -17 7 -22 34 -7 34 6
0 14 19 18 43 l9 42 69 3 c75 3 94 16 95 65 0 17 -5 27 -15 27 -8 0 -15 -4
-15 -9 0 -13 -31 -18 -60 -10 -14 4 -37 10 -52 13 -31 7 -35 22 -14 51 12 17
14 17 37 2 29 -21 75 -22 82 -3 6 15 -22 46 -41 46 -7 0 -12 8 -12 19 0 19 17
38 52 56 31 15 27 30 -11 33 -19 2 -41 10 -49 19 -11 10 -25 13 -49 8 -36 -6
-55 5 -67 42 -10 33 3 53 35 53 31 0 36 10 17 39 -9 15 -8 22 5 36 16 16 15
19 -21 54 -22 21 -51 41 -66 45 -52 13 -23 75 36 76 45 0 77 82 43 110 -8 7
-15 21 -15 31 0 14 -9 21 -30 26 -24 4 -30 11 -30 30 0 18 -8 28 -30 36 -17 6
-30 19 -30 28 0 24 -26 42 -49 34 -14 -4 -23 0 -32 17 -7 13 -12 24 -11 26 1
1 2 13 2 27 0 25 -1 25 -57 19 l-56 -7 6 33 c6 26 3 36 -14 51 -21 18 -23 18
-35 1 -13 -16 -15 -16 -29 2 -8 11 -15 31 -15 45 0 29 -12 53 -26 50 -28 -5
-35 2 -29 30 4 17 2 32 -5 36 -16 10 -40 -14 -40 -41 0 -14 -10 -30 -23 -39
-13 -8 -30 -26 -37 -40 -17 -32 -33 -32 -51 3 -23 45 -38 51 -64 25 -10 -9
-31 -18 -49 -19 -17 -1 -48 -8 -68 -16 -32 -11 -38 -18 -38 -41 0 -15 -7 -30
-15 -33 -27 -11 -17 -34 15 -34 25 0 30 -4 36 -35 10 -56 -1 -85 -35 -85 -16
0 -34 -7 -41 -15 -7 -8 -23 -15 -36 -15 -12 0 -29 -7 -38 -15 -19 -19 -26 -19
-42 3 -13 16 -15 16 -25 0 -5 -10 -18 -18 -29 -18 -14 0 -20 10 -25 42 -11 64
-59 96 -95 63 -15 -14 -22 -9 -73 52 -31 36 -53 71 -50 76 3 6 1 7 -5 3 -8 -4
-16 3 -22 19 -14 37 -13 45 11 85 20 32 22 33 35 15 8 -10 14 -14 14 -8 0 7
-5 15 -10 18 -6 4 -8 10 -5 14 2 5 -3 15 -13 24 -13 12 -38 15 -96 15 -73 -1
-81 1 -101 24 -25 29 -107 72 -125 66 -10 -3 -9 -7 2 -18 18 -19 36 -71 31
-87 -4 -10 -10 -9 -26 2 -29 20 -77 20 -77 -1 0 -13 -8 -15 -35 -12 -22 2 -36
-1 -39 -9 -9 -21 -48 -15 -77 13 l-26 25 -21 -25 c-20 -26 -42 -34 -42 -16 0
6 -13 10 -30 10 -16 0 -30 4 -30 9 0 6 -24 38 -52 72 -59 69 -106 145 -107
172 -1 13 7 17 32 17 38 0 67 25 67 58 0 11 4 24 10 27 5 3 15 25 21 48 6 23
16 45 23 49 17 11 120 -3 129 -18 12 -22 24 -17 35 15 8 24 6 33 -14 56 -25
29 -30 45 -16 45 5 0 14 11 20 25 9 20 19 25 47 25 21 0 35 5 36 13 2 21 5 31
14 51 6 14 2 23 -15 36 -40 30 -24 110 21 110 30 0 22 16 -17 39 -33 20 -36
25 -29 54 15 73 17 108 5 136 -9 24 -9 35 2 57 7 16 16 26 19 24 4 -3 16 3 28
14 13 12 29 17 45 14 19 -4 32 2 51 23 20 23 34 29 67 29 25 0 49 -7 61 -18
16 -13 21 -14 25 -4 2 8 17 27 33 43 17 18 29 41 29 57 0 32 7 43 39 60 17 10
26 11 34 3 6 -6 18 -11 27 -11 9 0 25 -9 35 -20 14 -15 26 -18 59 -14 32 5 47
2 59 -11 19 -18 22 -41 7 -50 -18 -11 -11 -30 18 -47 34 -19 52 -13 52 18 0
19 5 24 24 24 18 0 25 6 28 22 3 21 8 23 51 20 29 -3 47 0 47 7 0 6 -6 11 -14
11 -8 0 -16 7 -20 15 -3 8 -12 15 -21 15 -26 0 -17 30 13 41 22 8 35 6 70 -10
l43 -21 9 26 c6 14 10 44 10 67 0 36 -6 46 -52 89 -29 26 -58 48 -66 48 -10 0
-12 8 -7 29 4 18 1 38 -7 50 -11 18 -10 24 14 47 l26 26 -26 51 c-23 48 -24
55 -14 106 7 30 10 56 8 58 -1 2 -15 -6 -29 -17 -26 -20 -26 -20 -36 -1 -6 11
-11 48 -11 83 0 97 -5 108 -51 108 -36 0 -38 2 -45 37 -5 28 -3 39 10 48 21
16 22 88 1 105 -19 16 -19 49 0 74 19 25 21 158 3 178 -17 19 -38 56 -38 67 0
6 18 15 40 21 35 9 40 14 40 40 0 20 -7 33 -21 41 -19 10 -21 17 -16 66 3 30
12 62 20 72 22 26 41 124 30 156 -8 26 -13 28 -64 29 l-54 1 -3 36 c-4 49 13
87 45 102 33 14 63 38 63 50 0 4 -13 13 -29 18 -31 11 -55 46 -49 75 2 10 17
25 33 34 17 8 32 16 34 17 2 1 -2 16 -9 33 -8 20 -19 30 -34 30 -33 0 -66 28
-66 56 0 20 5 24 30 24 34 0 38 13 16 57 -8 15 -17 36 -20 46 -3 9 -15 17 -27
17 -31 0 -79 32 -85 57 -11 42 -1 58 41 63 l40 5 3 51 c2 38 -3 63 -23 101
-33 67 -33 110 0 125 20 9 22 14 14 31 -9 16 -6 24 15 44 14 13 26 28 26 32 0
5 14 14 30 21 33 14 39 40 14 65 -9 8 -18 32 -21 53 -4 30 -1 39 16 50 13 7
21 8 21 2 0 -5 7 -10 15 -10 11 0 15 11 15 43 0 34 -4 44 -22 52 -14 6 -25 23
-29 43 -4 18 -14 41 -24 52 -17 19 -15 50 5 50 5 0 10 14 10 30 0 26 9 36 25
28 2 -2 11 7 20 19 8 12 29 24 45 28 34 8 36 12 14 36 -14 16 -14 20 1 43 10
14 21 26 26 26 14 0 49 33 49 46 0 6 -7 17 -15 24 -21 18 -19 62 5 83 11 9 20
26 20 37 0 11 4 20 9 20 15 0 23 54 12 83 -12 31 -5 57 15 57 8 0 18 8 21 17
4 9 15 26 24 38 10 11 27 31 38 44 12 13 21 27 21 31 0 4 11 19 25 34 15 16
25 39 25 57 0 27 3 29 35 29 33 0 35 2 35 34 0 19 7 42 17 51 18 18 20 66 4
107 -10 27 1 48 26 48 7 0 13 6 13 14 0 20 23 26 96 26 56 0 68 3 88 25 13 14
33 25 45 25 11 0 21 4 21 8 0 4 15 24 34 44 31 33 40 36 81 35 29 -1 49 3 54
12 10 15 3 51 -9 51 -22 0 -18 36 7 62 25 26 26 31 15 60 -9 26 -9 36 5 59 14
24 24 29 55 29 20 0 40 -5 44 -11 11 -19 84 69 84 102 0 25 6 32 40 45 29 12
42 24 47 43 8 36 52 121 61 121 5 0 14 24 21 53 7 28 15 60 18 70 2 10 14 17
27 17 15 0 32 12 47 35 19 28 31 35 57 35 37 0 44 22 12 42 -25 16 -27 64 -2
77 9 5 24 26 31 47 8 21 20 45 28 52 12 12 12 17 -3 33 -9 11 -25 19 -35 19
-10 0 -21 5 -25 11 -3 6 -25 19 -49 29 -33 14 -43 25 -48 49 -4 17 -12 31 -18
31 -14 0 -48 41 -49 58 0 7 -7 27 -16 44 l-16 31 -24 -24 c-22 -22 -23 -27
-12 -62 14 -46 4 -57 -53 -57 -20 0 -42 -7 -49 -15 -15 -18 -120 -21 -151 -5
-31 17 -22 30 22 30 64 0 82 14 74 60 -6 33 -3 41 14 52 27 16 26 26 -1 50
-21 18 -22 18 -49 -8 -15 -14 -29 -38 -32 -54 -5 -24 -12 -29 -47 -35 -43 -7
-44 -6 -82 49 -4 6 -27 11 -52 10 -40 -1 -46 2 -56 27 -14 33 -53 61 -74 53
-8 -3 -22 -17 -31 -30 -13 -20 -24 -24 -65 -24 -28 0 -50 4 -50 9 0 5 -16 19
-35 31 -20 12 -42 35 -50 50 -16 31 -21 32 -108 31 l-58 0 6 33 c4 19 2 36 -3
40 -6 3 -20 26 -32 51 -24 49 -54 64 -88 46 -35 -18 -67 -12 -102 19 -33 30
-70 98 -70 130 0 23 24 42 44 34 29 -11 65 5 72 32 3 13 19 31 35 40 27 14 29
18 29 76 0 44 -5 67 -17 81 -14 15 -17 34 -15 86 3 76 -11 111 -44 111 -22 0
-74 42 -74 60 0 5 -12 22 -27 38 -16 17 -37 43 -49 58 -15 20 -33 29 -70 35
-27 5 -64 11 -82 15 -24 5 -36 2 -45 -10 -7 -9 -29 -17 -52 -19 -35 -2 -40 0
-37 19 1 12 -4 27 -13 34 -8 7 -15 20 -15 30 0 10 -7 20 -15 24 -23 8 -19 46
5 46 26 0 40 29 40 84 0 33 -5 48 -17 54 -26 13 -43 4 -43 -23 0 -19 -6 -24
-36 -27 -53 -6 -78 10 -78 52 -1 26 -8 40 -28 56 -19 14 -24 24 -17 35 16 26
9 47 -21 61 -32 14 -36 27 -20 58 7 13 5 24 -10 43 -11 14 -20 32 -20 41 0 9
-8 16 -20 16 -11 0 -20 -7 -20 -15 0 -8 -7 -15 -15 -15 -8 0 -15 -7 -15 -15 0
-8 -6 -12 -14 -9 -7 3 -20 -1 -27 -9 -8 -7 -29 -20 -46 -29 -32 -16 -33 -16
-55 10 -13 14 -41 44 -63 66 -22 22 -40 47 -41 56 -3 43 -5 50 -12 50 -5 0
-21 -13 -37 -28z m1770 -2249 c-2 -10 -6 -46 -9 -79 l-5 -61 60 -13 c44 -9 59
-17 55 -27 -4 -11 -1 -11 14 -3 13 7 26 8 37 1 16 -8 14 -11 -9 -22 -23 -10
-37 -9 -85 8 -32 11 -64 18 -71 15 -20 -6 -14 -38 14 -72 25 -29 26 -33 11
-48 -9 -9 -18 -14 -20 -11 -53 63 -107 145 -103 155 3 8 0 11 -10 7 -8 -3 -14
1 -14 10 0 8 -4 17 -9 19 -5 2 -26 27 -46 57 -27 41 -33 56 -23 62 7 5 15 9
18 9 9 0 110 -137 110 -149 0 -17 30 -13 31 4 1 8 3 20 4 25 1 6 3 17 4 26 0
8 6 12 12 8 8 -5 9 -2 2 11 -11 19 -6 52 10 73 14 18 26 15 22 -5z m-200 -167
c18 7 28 -11 12 -24 -7 -6 -29 -12 -49 -14 -20 -1 -34 -6 -32 -10 3 -4 1 -8
-5 -8 -6 0 -13 -11 -17 -25 -4 -18 3 -37 28 -72 18 -26 38 -51 45 -56 7 -4 11
-13 9 -20 -1 -6 -1 -9 1 -4 3 4 15 7 27 7 26 0 62 35 68 65 2 11 11 21 21 23
13 3 17 -4 17 -30 0 -18 -7 -43 -15 -54 -20 -30 -79 -56 -109 -48 -23 5 -88
64 -72 64 5 0 -3 9 -18 21 -57 45 -69 115 -26 154 24 21 94 46 98 35 2 -5 9
-7 17 -4z m-469 -315 c2 -3 15 6 29 19 24 22 26 23 42 7 16 -16 16 -18 -5 -33
-12 -8 -22 -21 -22 -28 0 -14 43 -68 82 -104 15 -14 26 -28 23 -31 -2 -4 5 -7
15 -7 10 0 17 3 14 7 -8 13 33 16 50 3 22 -16 15 -29 -22 -42 -46 -16 -69 1
-186 132 -14 16 -26 24 -26 17 0 -12 -29 -16 -31 -3 0 4 -2 19 -3 34 -1 15
-10 33 -20 41 -13 9 -16 20 -11 40 l7 27 30 -37 c16 -21 32 -40 34 -42z m-69
-111 c11 -17 10 -21 -8 -31 -17 -9 -20 -8 -14 3 3 7 -5 0 -19 -15 -27 -29 -32
-52 -17 -76 8 -12 17 -11 61 7 66 27 91 28 121 1 19 -16 24 -31 24 -65 0 -37
-5 -48 -30 -69 -43 -36 -76 -49 -87 -33 -12 20 -9 31 8 24 8 -3 12 -2 9 3 -3
5 4 12 15 16 51 16 66 105 17 105 -12 0 -40 -10 -63 -22 -58 -30 -90 -20 -115
37 -18 42 -19 46 -4 69 15 22 71 65 85 66 3 0 11 -9 17 -20z m-269 -279 c14
-1 72 -57 72 -69 0 -4 -23 -27 -51 -51 -46 -41 -81 -84 -62 -79 4 1 17 -3 29
-9 37 -21 63 -12 82 29 13 29 23 38 42 38 14 0 21 -4 15 -8 -5 -4 -11 -18 -13
-32 -6 -58 -83 -95 -139 -68 -15 8 -27 20 -25 27 1 7 -2 10 -6 7 -14 -9 -45
31 -36 46 4 7 3 10 -1 5 -18 -16 -45 26 -45 69 0 57 45 106 93 100 18 -2 38
-4 45 -5z m-256 -157 c7 3 21 12 31 18 14 11 19 10 27 -2 6 -10 5 -17 -5 -23
-8 -4 -19 -16 -24 -26 -8 -15 0 -28 44 -74 29 -30 51 -57 48 -61 -3 -3 7 -2
23 3 16 5 35 10 43 12 18 5 22 -27 5 -42 -11 -9 -14 -9 -14 0 0 7 -5 9 -10 6
-6 -4 -8 -11 -5 -16 4 -5 -6 -9 -21 -9 -22 0 -43 16 -94 70 -63 68 -66 70 -84
53 -13 -13 -16 -13 -11 -3 4 8 -6 -1 -23 -20 -37 -42 -34 -58 20 -116 39 -42
92 -62 103 -40 3 7 7 7 11 -1 7 -15 6 -23 -2 -22 -4 0 -10 -4 -13 -10 -9 -14
-63 -24 -76 -14 -8 6 -102 117 -112 132 -1 2 -9 -1 -16 -8 -11 -9 -17 -7 -28
6 -10 12 -11 17 -2 20 14 5 7 30 -15 55 -9 11 -12 27 -8 43 l7 27 30 -39 c17
-21 33 -40 35 -42 6 -7 84 71 84 84 0 6 -9 21 -19 32 -13 13 -18 29 -14 43 6
21 7 20 39 -11 18 -18 38 -29 46 -25z m-226 -222 c6 -4 30 -34 55 -67 24 -33
48 -63 54 -67 5 -4 7 -8 3 -8 -5 0 1 -9 12 -20 l21 -21 -42 -43 c-22 -25 -53
-49 -69 -56 -34 -14 -86 -10 -82 8 1 6 -2 11 -7 10 -5 -2 -34 31 -64 73 -51
71 -53 77 -36 87 20 13 26 6 99 -101 14 -20 29 -37 33 -37 5 0 6 -4 3 -8 -2
-4 11 -6 29 -4 30 4 85 43 85 61 0 3 -30 46 -65 94 -36 48 -63 92 -60 98 7 11
16 11 31 1z m-394 -199 c12 -21 22 -41 21 -44 -4 -14 39 4 44 18 7 19 57 43
89 43 30 0 99 -64 88 -82 -4 -7 -2 -8 4 -4 13 8 35 -28 24 -39 -4 -5 -2 -5 5
-1 8 4 18 -5 28 -24 16 -32 13 -50 -9 -50 -17 0 -79 87 -71 100 3 5 0 10 -8
10 -7 0 -20 11 -27 25 -10 19 -21 25 -46 25 -19 0 -34 -6 -38 -15 -3 -8 -13
-15 -22 -15 -10 0 -14 -3 -11 -6 3 -4 2 -15 -3 -25 -6 -9 -6 -19 -2 -21 16 -6
113 -159 107 -168 -3 -6 -13 -10 -20 -10 -17 0 -37 34 -27 46 4 5 3 6 -2 2
-15 -12 -152 184 -141 202 3 5 0 12 -6 16 -8 5 -10 2 -5 -7 4 -8 -2 -3 -13 11
-19 23 -19 26 -4 38 22 16 18 18 45 -25z m-44 -141 c3 -18 -4 -23 -40 -32 -34
-9 -44 -16 -46 -33 -3 -31 18 -69 32 -57 26 21 129 32 151 16 20 -14 32 -86
15 -86 -6 0 -9 -4 -6 -9 6 -9 -50 -58 -93 -81 -19 -10 -25 -10 -32 1 -15 24
-10 36 20 42 16 3 36 14 46 23 13 13 19 14 24 5 5 -7 7 3 6 22 -3 44 -11 57
-36 57 -13 0 -18 4 -13 12 4 7 3 8 -5 4 -6 -4 -9 -11 -6 -16 7 -12 -47 -31
-83 -28 -59 4 -81 71 -40 123 24 31 78 67 93 62 6 -2 11 -13 13 -25z m-5366
-1939 c10 -9 18 -23 18 -32 0 -9 14 -24 30 -33 23 -13 30 -24 30 -47 0 -32
-39 -71 -71 -71 -20 0 -59 45 -59 67 0 9 -11 24 -25 35 -32 25 -32 51 1 77 32
25 51 26 76 4z m4978 -1460 c8 -17 23 -34 32 -36 10 -3 23 -17 29 -31 11 -23
10 -31 -8 -54 -36 -48 -113 -39 -113 13 0 13 -11 30 -25 39 -33 22 -33 59 2
86 36 28 65 22 83 -17z m-149 -74 c31 -16 79 -89 79 -120 0 -17 -8 -34 -22
-43 -29 -20 -68 -21 -68 -1 0 9 9 15 25 15 27 0 48 29 35 49 -6 10 -12 9 -29
-8 -27 -27 -59 -27 -88 1 -43 40 -19 105 45 117 2 1 12 -4 23 -10z m-357 -365
c9 -3 25 -22 37 -41 18 -29 20 -38 9 -58 -16 -30 -56 -48 -78 -36 -55 29 -71
91 -32 123 23 19 38 22 64 12z m-103 -106 c59 -64 71 -88 44 -88 -8 0 -15 -4
-15 -9 0 -17 -31 -41 -52 -41 -25 0 -78 55 -78 82 0 10 11 29 25 42 22 21 23
25 10 42 -17 23 -19 34 -4 34 6 0 38 -28 70 -62z m1931 -1278 l40 -40 -53 -42
c-30 -24 -55 -46 -57 -50 -2 -4 -11 -4 -20 -1 -10 4 -6 -4 11 -22 15 -17 27
-32 27 -35 0 -3 13 -5 29 -5 16 0 27 3 25 6 -2 4 3 13 12 20 9 7 20 23 24 35
5 12 18 24 30 27 19 5 21 3 15 -21 -4 -15 -11 -30 -17 -33 -5 -3 -10 -10 -11
-15 -1 -5 -6 -8 -10 -6 -5 1 -6 -2 -3 -7 9 -14 -39 -41 -72 -41 -32 0 -86 36
-76 51 3 5 2 8 -3 7 -5 -2 -23 13 -40 32 -25 28 -31 44 -30 75 2 27 6 39 15
37 8 -1 11 1 8 6 -12 20 46 62 87 62 21 0 41 -12 69 -40z m-346 -106 c-3 -7
-2 -13 2 -12 4 1 15 -2 25 -7 10 -4 26 -1 40 8 15 10 29 12 38 7 11 -8 10 -13
-9 -30 -12 -11 -22 -26 -22 -33 0 -26 89 -115 120 -119 16 -2 27 -1 25 3 -3 4
1 9 9 12 25 10 29 -26 6 -45 -37 -30 -66 -22 -118 31 -26 27 -53 56 -60 65 -7
9 -19 16 -26 16 -17 0 -86 -59 -86 -74 0 -7 16 -27 35 -46 20 -19 33 -40 30
-48 -3 -7 0 -10 6 -7 5 4 16 1 24 -5 8 -6 31 -10 52 -8 29 2 38 -1 38 -12 0
-8 -8 -14 -17 -14 -10 1 -16 -2 -13 -6 7 -12 -25 -21 -54 -15 -31 6 -73 45
-66 63 2 7 1 11 -4 8 -5 -3 -21 10 -35 29 -18 23 -34 34 -49 32 -17 -2 -22 3
-22 25 -1 15 -9 35 -18 46 -18 20 -22 47 -9 56 5 3 19 -8 32 -25 32 -38 47
-37 93 7 l37 35 -23 32 c-29 39 -26 73 5 56 11 -6 17 -17 14 -25z m-166 -249
c6 -8 9 -19 5 -24 -4 -7 1 -8 12 -4 10 3 15 3 12 -1 -4 -4 10 -24 30 -44 42
-42 81 -95 81 -110 0 -17 -85 -98 -108 -104 -12 -4 -22 -2 -22 3 0 5 -5 9 -11
9 -5 0 -7 -5 -4 -10 4 -6 -2 -6 -17 0 -25 12 -75 78 -70 93 1 5 -2 6 -7 3 -5
-3 -21 11 -37 31 -15 20 -21 33 -13 29 8 -4 6 -1 -4 7 -15 12 -15 16 -3 26 11
9 20 3 47 -31 99 -127 134 -144 184 -91 14 15 25 30 25 34 0 5 -12 20 -87 102
-24 26 -41 52 -38 57 4 6 3 10 -2 9 -20 -3 -25 2 -13 16 16 19 24 19 40 0z"/>
</g>
</svg>
