<?xml version="1.0" standalone="no"?>
<!DOCTYPE svg PUBLIC "-//W3C//DTD SVG 20010904//EN"
 "http://www.w3.org/TR/2001/REC-SVG-20010904/DTD/svg10.dtd">
<svg version="1.0" xmlns="http://www.w3.org/2000/svg"
 width="1398.000000pt" height="1416.000000pt" viewBox="0 0 1398.000000 1416.000000"
 preserveAspectRatio="xMidYMid meet">
<metadata>
Created by potrace 1.16, written by Peter Selinger 2001-2019
</metadata>
<g transform="translate(0.000000,1416.000000) scale(0.100000,-0.100000)"
fill="#000000" stroke="none">
<path d="M4717 14076 c-17 -13 -14 -46 4 -46 15 0 9 -83 -9 -121 -25 -51 -135
-198 -149 -199 -6 0 -19 10 -27 22 -14 20 -18 20 -56 9 -42 -12 -51 -25 -25
-35 8 -3 12 -12 9 -20 -3 -8 -1 -17 5 -21 6 -3 9 0 5 8 -3 8 0 18 7 23 7 4 14
3 17 -4 2 -6 9 -9 17 -6 7 3 16 0 20 -5 3 -6 11 -8 17 -5 7 4 8 2 4 -4 -9 -15
-36 -15 -36 0 0 6 -3 8 -7 5 -3 -4 -12 -2 -20 4 -7 6 -13 9 -13 5 0 -3 15 -15
33 -26 28 -17 29 -20 10 -20 -12 0 -24 4 -28 10 -3 5 -12 7 -19 4 -8 -3 -17 3
-20 14 -4 11 -14 23 -23 26 -13 6 -14 4 -3 -9 12 -14 10 -15 -12 -10 -20 5
-29 2 -37 -13 -14 -26 -14 -35 -1 -27 12 7 24 -39 15 -57 -3 -7 -1 -6 7 2 12
14 15 14 29 -1 15 -15 15 -17 -2 -27 -15 -10 -21 -7 -36 14 -10 14 -29 37 -42
52 -13 15 -28 34 -35 44 -16 23 -36 25 -76 6 -38 -18 -102 -29 -94 -17 2 4 -1
11 -7 15 -7 4 -9 3 -6 -2 3 -6 3 -14 -1 -19 -10 -15 -52 -36 -52 -28 0 13 20
39 20 28 0 -5 5 -3 10 7 12 20 -20 112 -60 173 -24 38 -29 40 -90 47 -35 4
-69 9 -77 12 -7 3 -22 -3 -32 -13 -11 -11 -47 -22 -97 -30 -76 -12 -154 -48
-154 -71 0 -14 -43 -13 -74 1 -19 9 -29 9 -39 1 -9 -8 -30 -5 -80 13 -38 14
-77 25 -88 25 -27 0 -112 -60 -168 -120 -26 -27 -54 -50 -63 -50 -13 0 -133
-80 -148 -99 -8 -11 -94 -75 -115 -87 -28 -16 -54 -66 -91 -182 -66 -200 -69
-202 -305 -221 -63 -5 -131 -16 -150 -24 -19 -8 -61 -22 -94 -32 -124 -36
-129 -39 -142 -86 -7 -24 -15 -57 -18 -74 -4 -16 -22 -43 -42 -60 -39 -32 -66
-59 -99 -97 -12 -13 -47 -32 -78 -41 -51 -17 -56 -20 -56 -48 0 -17 -8 -36
-20 -47 -23 -19 -122 -77 -160 -93 -14 -6 -51 -24 -82 -40 -49 -26 -60 -28
-77 -17 -12 7 -21 18 -21 24 0 14 -66 101 -102 134 -33 31 -107 61 -209 85
-72 17 -79 17 -127 1 -59 -20 -80 -46 -89 -112 -3 -25 -12 -48 -19 -51 -16 -6
-19 -98 -5 -136 11 -29 114 -137 130 -137 6 0 11 -4 11 -9 0 -5 9 -12 19 -16
10 -3 52 -38 93 -78 68 -65 77 -79 98 -147 13 -41 37 -91 52 -111 15 -20 28
-41 28 -47 0 -6 5 -12 11 -14 19 -6 23 -86 5 -128 -9 -22 -24 -59 -33 -82 -34
-82 -16 -192 41 -251 15 -16 17 -28 12 -67 -8 -61 -61 -147 -96 -156 -38 -10
-81 -35 -117 -68 -38 -35 -43 -80 -17 -145 14 -36 14 -42 0 -70 -9 -16 -16
-39 -16 -51 0 -20 -3 -29 -28 -77 -17 -32 -27 -103 -15 -103 6 0 26 -24 46
-52 19 -29 60 -79 91 -112 31 -32 56 -62 56 -67 0 -5 4 -9 9 -9 5 0 19 -16 32
-35 13 -19 28 -35 33 -35 20 0 35 -38 36 -86 0 -61 -10 -72 -76 -80 -62 -8
-169 -39 -191 -56 -43 -34 -163 -162 -163 -174 0 -2 -31 -34 -68 -71 -70 -70
-158 -181 -202 -253 -13 -22 -38 -49 -55 -58 -38 -23 -141 -52 -183 -52 -52 0
-194 -31 -236 -52 -54 -28 -83 -65 -96 -123 -14 -69 -15 -182 -1 -198 6 -8 40
-22 75 -31 57 -16 66 -21 71 -46 8 -36 -3 -97 -23 -130 -9 -14 -51 -62 -94
-106 l-78 -82 0 -84 0 -85 37 7 c21 5 53 11 70 15 35 8 92 -9 106 -32 4 -7 14
-13 21 -13 20 0 96 -58 96 -74 0 -26 48 -66 80 -66 61 0 95 -25 164 -117 99
-133 112 -143 220 -169 33 -8 83 -30 112 -49 29 -19 59 -35 68 -35 9 0 30 -9
48 -20 30 -18 34 -18 50 -3 22 20 35 11 14 -10 -14 -13 -14 -16 -1 -21 8 -3
15 -17 15 -32 0 -40 35 -82 75 -90 23 -4 35 -12 35 -23 0 -11 3 -12 8 -4 4 7
17 10 30 6 18 -4 20 -8 10 -20 -8 -10 -22 -12 -50 -8 -21 4 -38 4 -38 0 0 -3
16 -40 35 -81 19 -41 35 -80 35 -87 0 -7 4 -17 9 -23 4 -5 20 -43 34 -84 35
-102 56 -150 73 -167 22 -22 17 -30 -16 -25 -18 2 -40 -2 -55 -12 -13 -9 -40
-16 -60 -16 -19 0 -35 -4 -35 -9 0 -6 11 -31 25 -57 14 -26 25 -58 25 -71 0
-13 11 -34 24 -46 31 -28 66 -128 66 -184 0 -24 4 -51 9 -61 33 -62 51 -105
51 -123 0 -35 29 -84 60 -103 24 -14 30 -24 30 -51 0 -19 5 -37 10 -40 6 -3
10 -31 10 -60 0 -60 22 -135 51 -177 11 -15 37 -34 58 -44 33 -14 39 -22 44
-55 4 -35 50 -132 110 -239 61 -107 114 -227 124 -283 3 -15 9 -30 14 -33 5
-3 9 -22 9 -43 0 -41 31 -91 56 -91 9 0 14 -11 14 -34 0 -22 8 -41 24 -58 56
-56 82 -208 38 -223 -40 -13 -54 -34 -58 -87 -6 -70 18 -112 70 -122 38 -7 46
-23 62 -126 7 -44 13 -54 48 -90 34 -35 121 -20 174 28 7 6 37 12 65 12 44 0
54 -4 72 -27 21 -26 23 -26 67 -13 26 8 64 26 85 40 35 24 38 30 38 74 0 35 5
51 19 62 24 17 53 18 58 3 3 -8 10 -8 26 2 19 12 22 22 22 86 0 57 -3 73 -15
73 -20 0 -37 35 -33 73 3 30 6 32 56 42 67 13 106 52 99 99 -5 36 11 89 24 80
14 -8 39 -73 39 -100 0 -14 13 -35 30 -51 29 -25 40 -53 21 -53 -25 0 -19 -68
8 -90 3 -3 15 -23 26 -45 11 -22 23 -42 26 -45 10 -8 59 -104 59 -116 0 -6 11
-21 25 -34 14 -13 25 -29 25 -35 0 -6 11 -22 25 -35 32 -30 32 -47 0 -72 -19
-15 -25 -29 -25 -59 0 -21 4 -39 9 -39 4 0 38 27 74 61 37 33 71 58 77 54 5
-3 10 -19 10 -35 0 -16 6 -35 13 -42 6 -7 21 -30 32 -50 23 -44 43 -48 75 -13
31 33 38 32 45 -12 4 -21 8 -44 10 -50 7 -22 33 -3 54 40 l21 42 0 -57 c0 -45
3 -58 15 -58 15 0 104 64 117 83 7 12 117 -90 118 -109 0 -6 -9 -19 -21 -30
-13 -12 -18 -25 -15 -40 4 -13 2 -26 -4 -29 -5 -3 -10 -11 -10 -16 0 -6 7 -3
16 6 19 18 32 12 16 -7 -8 -10 1 -13 41 -14 66 -2 79 -6 94 -24 22 -27 15 -58
-17 -75 -16 -8 -35 -15 -42 -15 -15 -1 -58 -34 -58 -46 0 -4 -7 -12 -15 -18
-8 -6 -20 -36 -25 -67 -8 -44 -7 -63 4 -91 15 -36 12 -70 -13 -116 -9 -17 -6
-22 26 -37 20 -10 53 -20 74 -22 52 -7 52 -33 -1 -97 -38 -46 -40 -51 -40
-120 0 -49 -5 -79 -16 -94 -14 -20 -14 -28 -3 -55 7 -18 18 -39 26 -48 16 -19
17 -65 2 -107 -9 -26 -8 -34 8 -50 24 -24 117 -82 131 -82 7 0 12 -5 12 -10 0
-11 13 -28 44 -60 16 -16 34 -20 88 -20 52 0 70 -4 74 -15 4 -8 14 -15 23 -15
31 0 60 -30 67 -68 8 -42 38 -78 80 -92 21 -7 36 -25 54 -62 32 -67 50 -78 80
-50 13 12 42 34 64 49 23 16 43 31 44 36 2 4 15 7 29 7 22 0 24 -3 18 -22 -20
-63 -18 -88 11 -126 80 -105 143 -144 174 -107 7 8 17 15 22 15 6 0 27 13 47
28 36 28 83 52 101 52 6 0 10 -11 10 -25 0 -30 -1 -29 38 -10 37 19 85 11 80
-14 -2 -9 -11 -15 -21 -13 -9 2 -26 -2 -37 -8 -23 -12 -20 -33 12 -108 16 -38
21 -43 45 -40 23 2 29 8 31 35 2 25 8 33 23 33 15 0 19 -7 19 -38 0 -47 -24
-72 -68 -72 -42 0 -43 -28 -2 -58 17 -13 30 -28 30 -35 1 -15 35 -57 47 -57 6
0 23 -13 39 -30 16 -16 34 -30 39 -30 13 0 45 52 45 73 0 8 6 17 14 20 11 4
18 -8 27 -48 13 -61 1 -108 -32 -126 -11 -5 -19 -14 -19 -20 0 -14 41 -48 58
-49 7 0 12 -15 12 -41 0 -52 27 -99 56 -99 21 0 57 35 66 62 3 8 19 5 49 -10
24 -11 62 -24 84 -28 56 -9 91 -32 112 -72 10 -19 33 -41 52 -50 19 -10 39
-26 45 -36 16 -29 66 -74 108 -98 28 -16 36 -27 33 -42 -15 -79 -15 -149 1
-173 21 -34 21 -206 -1 -240 -24 -36 -77 -81 -137 -115 -32 -18 -58 -39 -58
-46 0 -25 52 -82 84 -91 127 -38 195 -75 240 -129 34 -41 36 -48 36 -113 0
-78 12 -92 57 -68 31 17 100 17 140 0 15 -6 38 -29 50 -50 14 -24 34 -43 55
-50 18 -7 48 -20 66 -29 42 -20 102 -19 118 2 6 9 25 19 43 22 37 8 65 -13 86
-63 13 -31 17 -33 60 -33 39 0 51 -5 76 -32 16 -18 32 -43 35 -56 4 -12 13
-22 20 -22 16 0 104 85 149 144 52 68 57 72 67 45 22 -59 -24 -143 -107 -196
-58 -36 -58 -55 0 -71 63 -17 96 -15 150 8 26 11 61 20 79 20 41 0 56 16 56
60 0 40 40 115 48 90 3 -8 8 -17 12 -20 8 -6 66 -107 100 -175 20 -39 36 -55
75 -75 28 -14 52 -28 53 -33 2 -4 7 -5 12 -2 4 3 1 24 -7 47 -17 50 -12 112
12 138 26 28 74 48 147 59 80 13 173 54 437 191 16 8 45 31 63 50 37 38 119
70 179 70 46 0 88 30 116 82 19 35 23 58 23 130 l0 88 -84 0 c-62 0 -89 4
-100 15 -8 8 -19 15 -24 15 -5 0 -13 8 -16 18 -7 20 -27 54 -43 73 -14 18 -26
76 -18 89 4 6 16 5 35 -5 50 -26 63 -21 58 26 l-4 40 51 -3 50 -3 -2 40 c-2
22 -4 73 -5 114 -3 73 -4 74 -33 84 -16 5 -44 22 -60 38 -17 16 -39 29 -50 29
-10 0 -26 7 -35 15 -16 15 -16 19 3 71 17 47 18 60 8 95 -12 40 -82 119 -106
119 -6 0 -28 16 -49 35 -41 37 -42 59 -5 99 11 11 19 24 19 29 0 6 16 34 35
63 19 29 35 55 35 58 0 8 48 63 88 100 40 39 41 68 2 96 -35 25 -37 33 -10 60
11 11 20 29 20 41 0 23 18 61 33 71 13 8 32 -11 41 -40 11 -34 54 -72 80 -72
41 0 51 23 37 85 -13 59 -9 75 35 128 29 35 31 80 4 107 -26 26 -42 25 -90 -2
-31 -18 -44 -21 -67 -12 -24 8 -28 14 -25 42 3 24 -1 34 -15 39 -29 11 -42 35
-43 78 0 37 4 43 49 73 62 40 84 40 130 0 102 -91 126 -103 150 -74 18 21 3
43 -35 50 -29 6 -34 11 -34 35 0 16 7 34 15 41 8 7 15 21 15 31 0 11 6 28 13
39 10 17 9 22 -2 29 -9 6 -12 18 -7 35 4 15 2 26 -3 26 -15 0 -52 42 -48 55 2
5 17 12 33 15 26 5 29 9 28 40 0 19 -4 54 -9 77 -7 40 -6 43 13 43 12 0 29 11
37 24 9 13 30 30 48 37 51 20 63 36 87 110 13 40 30 73 39 76 20 7 71 54 71
65 0 5 11 26 25 46 14 20 25 44 25 54 0 27 28 48 58 42 19 -4 52 8 116 40 l88
46 20 -25 c16 -21 28 -25 69 -25 46 0 106 -27 117 -52 2 -5 10 -8 17 -8 8 0
16 21 21 58 8 48 12 57 32 60 12 2 22 7 22 12 0 19 80 50 127 50 26 0 56 7 66
14 10 8 28 12 40 9 17 -4 19 -2 8 5 -12 9 -10 12 10 17 14 3 39 5 55 3 24 -2
31 2 44 29 8 18 22 33 30 33 12 1 12 3 -2 8 -15 6 -15 10 -2 40 11 28 17 32
35 27 16 -5 19 -4 14 5 -5 8 -4 11 3 6 14 -8 0 -48 -19 -55 -12 -3 -12 -2 -1
11 9 12 10 18 2 23 -6 4 -14 4 -17 1 -4 -3 -1 -6 6 -6 7 0 9 -5 6 -10 -4 -6
-11 -8 -16 -4 -6 3 -5 -3 3 -15 7 -12 20 -21 29 -21 28 0 59 43 59 83 0 28 8
44 35 72 35 34 62 47 50 23 -4 -7 0 -5 7 4 13 15 15 15 28 -5 12 -21 12 -21
-5 -7 -17 14 -18 13 -12 -4 6 -15 4 -17 -14 -13 -11 3 -18 3 -15 0 3 -4 -3
-12 -14 -20 -44 -31 -13 -79 45 -70 24 4 33 2 29 -5 -4 -7 -2 -8 4 -4 7 4 17
4 23 0 8 -4 7 -9 -2 -15 -10 -6 -11 -11 -3 -19 13 -13 40 -4 48 15 3 9 0 12
-10 8 -17 -6 -18 3 -2 21 10 10 15 10 23 2 5 -6 9 -9 8 -7 -5 9 33 30 54 31
22 0 22 1 5 20 -21 25 -25 61 -6 53 8 -3 14 -9 14 -15 0 -5 -4 -6 -10 -3 -5 3
-10 4 -10 1 0 -2 13 -11 28 -19 53 -26 110 -4 161 63 23 30 41 45 56 45 16 -1
21 4 17 14 -3 8 -1 12 5 8 6 -4 17 1 24 10 12 15 12 16 -6 9 -11 -4 -16 -4
-12 0 3 4 -5 20 -18 36 -20 23 -22 32 -12 43 10 11 13 9 19 -7 5 -12 13 -16
20 -12 7 4 10 4 6 -1 -4 -4 1 -18 11 -31 18 -23 18 -80 0 -68 -5 3 -6 -2 -3
-11 6 -14 8 -14 25 1 11 9 19 25 19 34 0 35 103 70 206 70 76 0 84 -2 84 -19
0 -12 12 -25 30 -33 17 -7 30 -18 30 -25 0 -6 5 -13 11 -15 6 -2 14 -22 18
-43 6 -38 8 -40 47 -43 28 -2 45 2 54 13 18 21 34 19 45 -7 6 -13 21 -28 34
-35 27 -13 81 -67 81 -80 0 -4 8 -33 17 -64 l18 -56 143 0 143 0 53 54 c30 29
70 60 90 68 45 19 100 19 120 0 8 -8 19 -15 24 -15 6 0 12 -5 14 -11 2 -5 22
-13 44 -16 37 -5 43 -9 53 -42 6 -20 20 -47 30 -61 19 -24 20 -24 83 -12 54
11 69 11 108 -3 27 -10 95 -19 168 -22 111 -6 129 -4 192 17 39 13 73 20 77
17 3 -4 5 -34 4 -66 -1 -42 2 -62 12 -68 8 -4 22 -33 31 -64 20 -64 96 -159
127 -159 11 0 24 -11 31 -25 6 -14 15 -25 20 -25 4 0 8 -6 8 -12 1 -20 48 -50
88 -55 30 -4 44 1 75 26 l39 30 37 -25 c59 -38 98 -41 159 -9 42 22 62 26 107
23 52 -3 55 -2 55 20 0 21 -21 72 -55 132 -8 14 -15 50 -15 80 -1 30 -7 69
-14 85 l-13 30 -16 -31 c-17 -34 -34 -44 -73 -44 -36 0 -33 38 4 42 22 2 28 8
30 35 2 21 -1 33 -9 33 -14 0 -69 59 -69 74 0 24 -20 -21 -20 -46 0 -22 -5
-28 -21 -28 -19 0 -20 4 -14 43 4 26 16 50 31 64 13 12 24 25 24 28 0 3 -18 5
-40 5 -60 0 -80 27 -80 112 0 54 -3 66 -14 62 -31 -12 -74 25 -105 91 -17 36
-31 71 -31 78 0 7 -4 17 -9 22 -5 6 -14 27 -20 47 -14 42 -81 108 -111 108
-18 0 -18 3 -7 27 6 16 17 34 24 41 19 20 16 97 -5 131 -24 39 -54 62 -127 95
-33 16 -75 35 -93 43 l-33 16 30 21 c17 11 31 26 31 33 0 6 5 13 12 15 7 3 14
32 16 75 l4 70 -48 56 c-27 30 -57 58 -67 62 -25 9 -58 45 -69 78 -12 32 -22
33 -71 7 -58 -32 -67 -28 -67 30 0 36 -6 59 -22 80 -18 25 -20 33 -10 55 6 14
16 25 22 25 5 0 10 5 10 10 0 20 39 48 91 65 38 12 67 30 96 61 23 24 50 44
58 44 24 0 96 40 125 69 75 77 102 120 102 165 1 50 -8 63 -92 126 -90 68
-122 121 -102 173 15 39 1 57 -44 57 -38 0 -51 -14 -33 -36 17 -21 -8 -38 -28
-19 -20 21 -16 27 10 14 16 -8 19 -8 11 0 -6 6 -21 13 -33 16 -12 2 -31 7 -42
10 -20 7 -58 72 -60 102 0 11 -3 13 -6 6 -2 -7 -9 -13 -14 -13 -6 0 -7 5 -4
10 3 6 1 10 -4 10 -6 0 -11 -6 -11 -14 0 -24 -15 -26 -29 -4 -11 18 -11 20 2
15 9 -3 18 1 21 10 4 9 9 13 12 10 8 -8 34 18 34 33 0 6 -11 32 -24 58 -22 43
-23 51 -11 79 7 17 18 34 24 37 21 13 11 36 -23 50 -43 18 -72 50 -97 105 -29
67 -25 109 16 154 18 20 38 37 43 37 4 0 23 13 40 28 l32 29 0 104 c1 76 5
109 15 123 8 11 15 40 15 66 0 25 6 54 14 65 51 73 156 350 156 411 0 22 -4
24 -56 24 -66 0 -100 17 -134 68 -14 21 -81 93 -150 162 -127 126 -152 163
-165 243 -7 46 -28 60 -120 84 -54 14 -71 23 -74 38 -2 11 -16 39 -32 63 -16
24 -29 47 -29 53 0 5 -4 9 -9 9 -5 0 -13 9 -16 21 -5 16 0 28 21 48 16 15 35
38 43 51 20 34 22 178 4 208 -19 31 -51 62 -63 62 -5 0 -10 3 -10 8 0 4 -15
16 -33 26 -112 67 -95 65 -340 45 -98 -7 -161 -9 -167 -3 -6 6 8 28 36 59 65
73 87 119 80 169 -4 23 -9 95 -12 161 l-6 120 51 38 c28 20 54 37 59 37 10 0
32 67 32 97 0 10 9 29 20 41 11 12 20 23 20 26 0 3 11 17 25 32 30 33 31 44 5
72 -16 17 -32 22 -70 22 -56 0 -80 7 -80 24 0 21 -84 94 -116 101 -31 6 -44
25 -44 67 0 10 14 33 31 53 29 33 31 37 19 68 -22 54 -57 84 -105 89 -42 5
-75 25 -75 46 0 5 -7 15 -15 22 -8 7 -12 17 -9 22 11 17 -79 -2 -97 -21 -9 -9
-29 -27 -45 -41 -154 -133 -190 -164 -195 -173 -11 -16 -38 0 -45 28 -3 14 -9
25 -13 25 -4 0 -22 20 -40 45 -18 25 -28 45 -23 45 15 0 31 54 21 71 -6 12 -2
15 22 13 l29 -2 0 113 c0 90 3 117 16 129 8 9 20 14 25 10 5 -3 8 0 7 8 -2 8
5 12 20 10 38 -6 49 12 46 75 -3 62 11 102 28 85 12 -12 1 -35 -13 -27 -5 3
-6 -1 -3 -10 5 -13 9 -13 22 -3 13 12 14 10 3 -10 -7 -13 -10 -28 -8 -35 2 -7
0 -20 -5 -29 -10 -21 -10 -21 31 -7 17 6 31 15 31 20 0 5 5 9 11 9 12 0 129
87 146 110 12 16 0 40 -19 40 -26 0 -47 46 -48 101 0 31 -5 80 -10 109 -7 36
-7 66 0 94 13 51 42 116 53 116 14 0 6 45 -13 70 -15 19 -20 41 -20 98 l0 72
-50 0 c-53 0 -128 -32 -177 -76 -6 -7 -33 -20 -57 -30 -48 -20 -56 -33 -31
-54 18 -15 20 -84 3 -97 -23 -17 -92 -41 -158 -55 -62 -13 -66 -16 -86 -56
-27 -57 -72 -83 -145 -85 -43 -2 -61 2 -71 14 -74 92 -179 44 -207 -94 -5 -23
-13 -33 -30 -35 -22 -4 -61 22 -61 40 0 5 -9 18 -19 30 l-20 20 -50 -43 c-48
-41 -51 -47 -51 -91 0 -45 -2 -48 -26 -48 -14 0 -46 14 -71 30 -24 17 -47 30
-52 30 -7 0 -1 -67 14 -155 6 -33 3 -44 -13 -58 -29 -26 -109 -32 -173 -13
l-54 15 -42 91 c-24 49 -43 101 -43 114 0 23 -33 66 -50 66 -8 0 -66 89 -91
140 -22 44 -49 136 -49 168 0 30 30 82 47 82 18 0 16 20 -3 41 -14 16 -14 20
0 48 9 16 16 37 16 46 0 27 -33 75 -50 75 -9 0 -40 7 -68 15 -60 18 -82 49
-82 115 0 63 -26 107 -93 156 -53 39 -65 44 -113 44 -49 0 -55 3 -68 28 -13
26 -36 39 -123 73 -13 5 -23 16 -23 24 0 21 41 85 80 124 41 41 36 66 -30 133
-28 28 -50 52 -50 54 0 7 -47 60 -107 121 -35 34 -63 67 -63 73 0 7 -12 9 -34
5 -30 -6 -35 -4 -47 24 -9 20 -21 31 -34 31 -11 0 -32 11 -46 24 -15 14 -31
21 -38 16 -7 -4 -23 -36 -35 -70 -21 -58 -27 -65 -62 -77 -22 -7 -43 -19 -49
-27 -16 -21 -83 -39 -120 -32 -48 9 -86 -13 -113 -66 -26 -54 -46 -72 -97 -94
-22 -9 -60 -38 -84 -65 -45 -52 -92 -78 -138 -77 -34 0 -123 -20 -138 -31 -5
-5 -29 -12 -53 -16 -41 -7 -43 -6 -57 29 -16 37 -32 44 -66 26 -15 -9 -26 -6
-54 15 -19 15 -42 25 -52 23 -10 -2 -29 -26 -43 -55 -18 -40 -31 -54 -52 -58
-32 -7 -37 -25 -25 -82 10 -50 -4 -86 -44 -116 -24 -17 -31 -18 -63 -7 -46 15
-66 44 -66 95 0 53 -13 65 -74 65 -60 0 -65 3 -91 53 -35 67 -46 72 -90 37
-21 -16 -41 -30 -44 -30 -3 0 -17 21 -31 47 -17 33 -21 48 -12 51 6 2 12 17
12 33 0 25 -4 29 -28 29 -17 0 -41 11 -58 26 -16 14 -41 30 -56 36 -16 5 -28
14 -28 19 0 5 -6 9 -13 9 -8 0 -20 18 -27 39 -12 36 -14 39 -36 29 -13 -6 -29
-24 -36 -39 -13 -30 -36 -45 -49 -32 -4 4 -3 46 2 92 8 73 7 86 -7 102 -10 11
-23 19 -31 19 -9 0 -13 15 -13 54 0 57 -7 66 -55 66 -13 0 -27 5 -30 10 -11
18 -42 10 -59 -14 -8 -13 -29 -27 -45 -31 -27 -6 -36 -1 -79 42 -39 39 -60 52
-105 62 -52 13 -57 13 -87 -9 -28 -20 -34 -21 -63 -9 -38 15 -102 63 -137 101
-13 16 -34 28 -46 28 -12 0 -33 9 -47 20 -14 11 -41 27 -60 35 -28 12 -35 21
-41 53 -3 21 -24 74 -46 117 -30 58 -40 90 -40 125 0 39 -4 49 -25 60 -13 7
-31 28 -40 47 l-17 35 -70 -7 -71 -7 6 28 c5 28 -11 63 -29 65 -8 0 -98 111
-116 143 -12 22 30 178 53 194 21 15 26 68 7 74 -13 5 7 43 44 82 26 28 23 55
-8 66 -28 11 -42 6 -63 -23 -13 -18 -15 -17 -51 22 -34 37 -42 41 -86 41 -27
0 -57 -7 -67 -14z m-1668 -1213 c-11 -12 -10 -14 2 -11 8 1 24 -7 37 -20 24
-24 58 -31 46 -9 -4 6 -4 9 1 5 4 -4 15 -2 24 5 14 11 15 10 1 -7 -14 -18 -13
-19 5 -13 17 6 17 4 -2 -9 -13 -9 -23 -23 -23 -31 0 -10 -6 -13 -17 -8 -15 5
-15 3 2 -13 11 -11 25 -19 30 -18 6 0 9 -10 7 -23 -2 -13 1 -21 6 -17 13 8 43
-28 39 -45 -2 -8 -2 -11 0 -6 8 14 22 7 17 -8 -6 -15 11 -22 19 -7 2 4 2 2 1
-5 -4 -17 21 -34 40 -27 12 5 14 10 6 19 -8 9 -8 15 0 20 5 3 10 -1 10 -10 0
-12 5 -15 18 -11 10 4 7 -2 -8 -14 -32 -26 -54 -25 -80 2 -11 12 -20 18 -20
13 0 -5 -6 0 -14 10 -8 11 -11 26 -8 34 3 9 1 12 -6 7 -8 -5 -10 -1 -5 10 4
11 3 15 -5 10 -6 -3 -16 2 -22 13 -11 21 -57 71 -65 71 -2 0 -2 -6 1 -14 3 -8
1 -17 -5 -21 -6 -3 -11 -1 -11 4 0 6 -4 11 -9 11 -5 0 -8 -8 -7 -17 0 -10 -6
-18 -14 -18 -25 0 -29 -28 -9 -63 10 -18 15 -30 9 -27 -5 3 -10 1 -10 -6 0 -6
8 -9 20 -6 17 4 18 2 9 -14 -5 -11 -6 -19 -2 -18 4 1 17 1 28 0 17 -1 18 -3 5
-11 -13 -8 -13 -10 2 -10 10 0 22 -10 29 -21 8 -16 13 -18 19 -9 5 7 16 9 30
5 17 -5 21 -4 15 5 -5 9 -4 11 3 6 20 -12 13 -36 -9 -36 -11 0 -17 5 -14 10 3
6 1 10 -5 10 -7 0 -9 -8 -5 -20 4 -11 2 -20 -4 -20 -6 0 -11 5 -11 11 0 5 -4
7 -10 4 -5 -3 -10 -1 -10 5 0 6 -4 9 -9 5 -10 -5 -94 95 -94 111 0 15 -37 36
-52 30 -15 -5 -39 17 -28 27 11 12 43 8 43 -5 0 -6 2 -9 5 -7 2 3 2 15 -2 27
-4 17 -9 20 -18 12 -10 -8 -18 -4 -34 16 -21 27 -28 64 -12 64 5 0 7 -10 4
-22 -4 -19 -3 -21 7 -8 10 13 11 12 6 -4 -5 -13 -2 -17 9 -13 9 4 24 -6 40
-26 21 -28 25 -29 26 -12 1 11 1 25 -1 30 -1 6 4 4 11 -2 7 -7 18 -13 24 -13
5 0 3 5 -5 10 -13 9 -12 13 9 30 13 11 36 20 52 20 15 0 30 4 33 8 2 4 -10 6
-28 4 -28 -3 -37 1 -55 26 -21 30 -26 53 -15 65 13 13 25 -5 13 -20z m-528
-417 c5 3 16 -10 24 -28 8 -18 14 -29 15 -23 0 5 5 4 11 -2 14 -14 49 -5 43
12 -12 30 94 73 111 45 4 -6 11 -7 17 -4 6 4 8 2 5 -3 -4 -6 0 -14 9 -17 9 -4
14 -9 10 -13 -3 -3 3 -12 14 -20 11 -8 17 -20 14 -28 -4 -9 0 -15 10 -15 16 0
18 -6 19 -47 0 -12 5 -19 12 -17 6 3 18 -3 26 -12 9 -12 10 -15 2 -10 -7 4
-13 2 -13 -3 0 -20 -16 -11 -33 18 -9 15 -13 31 -9 35 4 4 0 6 -8 4 -9 -2 -15
5 -15 17 -1 12 -7 19 -15 17 -11 -3 -11 0 -1 12 9 11 9 16 0 22 -8 4 -9 3 -5
-4 14 -22 -6 -12 -26 13 -32 41 -101 31 -118 -18 -9 -28 -7 -34 22 -64 17 -18
28 -33 22 -33 -5 0 -3 -4 5 -9 9 -6 10 -11 2 -15 -6 -4 -11 -2 -11 3 0 6 -5
11 -11 11 -8 0 -8 -5 1 -15 7 -8 16 -12 21 -10 12 8 31 -33 23 -48 -4 -6 -4
-9 1 -5 4 4 15 2 23 -5 11 -8 10 -4 -3 16 -10 15 -16 30 -13 32 3 3 11 -6 18
-20 7 -14 17 -25 22 -25 5 0 2 -8 -8 -17 -16 -16 -18 -15 -40 11 -14 15 -21
32 -18 38 4 6 3 8 -3 5 -12 -7 -56 50 -48 62 10 17 -7 42 -25 36 -10 -3 -21
-1 -25 5 -3 5 2 10 12 10 11 0 2 10 -24 26 -24 14 -43 27 -43 30 0 3 5 2 10
-1 6 -3 10 1 10 10 0 10 -5 13 -12 9 -7 -5 -9 -2 -6 7 4 10 -1 15 -16 16 -11
0 -15 -1 -8 -4 6 -3 12 -11 12 -20 0 -12 -2 -12 -16 2 -13 13 -14 18 -3 31 8
10 15 12 17 5 2 -6 8 -9 13 -5z m3286 -381 c-4 -8 -2 -17 3 -20 17 -10 11 -51
-10 -70 -28 -25 -19 -29 23 -9 30 14 39 15 52 4 24 -20 18 -56 -16 -84 -35
-30 -67 -34 -75 -8 -17 50 -30 71 -46 75 -30 8 -24 63 10 84 15 10 31 23 35
30 11 18 30 16 24 -2z m-365 -318 c62 -89 61 -86 42 -94 -10 -3 -26 -15 -36
-25 -25 -25 -45 -23 -74 9 -42 46 -44 100 -4 110 22 6 26 23 9 40 -12 12 -3
36 11 28 5 -3 28 -33 52 -68z m-333 -256 c11 -11 27 -31 37 -46 15 -22 15 -29
4 -51 -15 -28 -55 -42 -79 -27 -18 11 -61 71 -61 85 0 15 48 58 65 58 8 0 24
-9 34 -19z m-369 -301 c0 -11 4 -20 9 -20 19 0 22 -39 5 -65 -19 -29 -14 -31
25 -11 58 31 96 -37 47 -83 -29 -28 -57 -24 -73 9 -11 24 -19 32 -70 80 -30
26 -29 34 10 75 37 39 47 42 47 15z m4502 -1751 c12 -6 32 -23 44 -38 13 -14
31 -35 41 -45 10 -11 12 -16 6 -12 -7 4 -13 2 -13 -3 0 -10 14 -15 33 -12 4 1
2 -9 -4 -21 -12 -22 -11 -22 6 -8 11 9 16 10 11 3 -4 -8 -2 -13 8 -13 8 0 17
-4 20 -9 11 -17 -44 -8 -60 10 -9 11 -14 19 -11 19 3 0 -7 14 -23 32 -16 17
-27 35 -24 40 3 4 -2 8 -10 8 -8 0 -18 5 -22 12 -4 7 -3 8 4 4 8 -5 10 -2 6 9
-5 12 -10 13 -20 4 -7 -6 -17 -8 -22 -5 -6 3 -15 -1 -22 -9 -7 -8 -15 -13 -19
-11 -3 2 -17 -2 -31 -10 l-25 -15 24 7 c16 4 21 3 17 -5 -4 -6 -14 -11 -22
-11 -11 0 -12 -4 -5 -12 50 -61 62 -79 56 -88 -3 -5 -1 -10 5 -10 5 0 18 -13
29 -30 10 -16 21 -27 24 -23 6 6 11 -11 8 -29 0 -5 4 -8 9 -8 6 0 5 -6 -2 -14
-15 -17 -32 -10 -24 10 3 8 -2 20 -10 26 -41 34 -54 50 -49 58 4 6 -1 10 -9
10 -20 0 -52 48 -48 73 2 10 -8 29 -22 42 -14 13 -26 30 -25 37 0 10 2 10 6
-1 5 -11 7 -11 15 0 8 11 9 10 4 -3 -3 -10 -2 -20 3 -22 10 -7 51 31 51 46 0
6 3 8 6 5 4 -3 16 0 28 8 25 18 31 18 58 4z m-5035 -1786 c-4 -3 0 -17 9 -31
15 -23 15 -26 -5 -53 -25 -34 -13 -45 27 -25 26 13 31 13 51 0 29 -20 27 -48
-6 -74 -33 -26 -54 -23 -70 11 -7 14 -28 42 -48 63 -19 21 -35 42 -35 47 0 8
9 18 55 59 11 10 32 13 22 3z m-267 -391 c0 -7 -4 -11 -9 -7 -5 3 -12 -4 -16
-15 -7 -21 -45 -36 -70 -26 -17 6 -55 64 -55 84 0 7 14 21 30 31 30 18 30 18
10 36 -11 10 -17 22 -13 28 8 13 123 -111 123 -131z m4039 -2058 c-29 -31 -20
-39 26 -24 28 9 39 9 50 0 23 -19 18 -58 -9 -76 -37 -23 -70 -15 -74 19 -2 15
-8 27 -13 27 -5 0 -9 6 -9 13 0 8 -9 22 -20 32 -26 24 -22 56 8 71 13 6 29 17
35 23 9 9 14 3 21 -24 7 -31 5 -40 -15 -61z m2921 -295 c0 -38 -4 -58 -10 -54
-6 4 -7 12 -4 18 4 7 3 9 -1 4 -14 -12 -17 -49 -3 -41 6 4 8 3 5 -3 -6 -9 20
-27 32 -23 5 2 21 -23 21 -32 0 -5 -3 -7 -7 -7 -31 5 -52 -2 -46 -16 3 -9 -2
-22 -13 -29 -17 -13 -16 -13 9 -11 20 3 32 -4 48 -27 15 -20 18 -33 11 -40
-16 -16 -36 0 -21 18 14 17 -2 19 -21 2 -11 -10 -11 -9 0 6 13 18 13 19 -2 13
-17 -6 -95 59 -90 75 1 5 -11 20 -28 34 -16 14 -27 30 -24 36 3 5 -11 25 -33
43 -31 28 -35 36 -23 44 19 13 71 -34 63 -57 -4 -9 -2 -13 4 -9 6 4 24 -11 41
-31 23 -30 28 -42 20 -56 -5 -10 -8 -20 -5 -23 3 -2 8 5 12 16 8 27 19 27 34
-1 9 -18 10 -18 5 -3 -3 11 -8 46 -9 77 -3 42 0 58 11 62 8 3 14 11 13 18 0
10 -2 10 -6 1 -8 -22 -23 -14 -19 10 2 12 9 21 15 20 6 -2 11 4 11 12 0 8 2
15 5 15 3 0 5 -27 5 -61z"/>
</g>
</svg>
