<?xml version="1.0" standalone="no"?>
<!DOCTYPE svg PUBLIC "-//W3C//DTD SVG 20010904//EN"
 "http://www.w3.org/TR/2001/REC-SVG-20010904/DTD/svg10.dtd">
<svg version="1.0" xmlns="http://www.w3.org/2000/svg"
 width="1327.000000pt" height="953.000000pt" viewBox="0 0 1327.000000 953.000000"
 preserveAspectRatio="xMidYMid meet">
<metadata>
Created by potrace 1.16, written by Peter Selinger 2001-2019
</metadata>
<g transform="translate(0.000000,953.000000) scale(0.100000,-0.100000)"
fill="#000000" stroke="none">
<path d="M11472 9363 c-6 -21 -14 -54 -19 -73 -10 -40 -43 -52 -71 -27 -22 19
-54 28 -67 19 -6 -4 -18 -26 -27 -49 -14 -36 -14 -44 -2 -54 19 -15 18 -39 -2
-54 -13 -9 -14 -16 -5 -33 9 -17 8 -23 -11 -36 -12 -9 -41 -16 -63 -16 -23 0
-46 -5 -51 -10 -7 -7 -18 -2 -34 15 -18 19 -34 25 -65 25 -22 0 -46 -5 -51
-10 -7 -7 -21 -5 -42 6 -36 18 -83 12 -103 -13 -8 -9 -13 -45 -14 -92 0 -65
-3 -79 -22 -98 -12 -12 -25 -38 -28 -57 -4 -19 -14 -41 -22 -48 -8 -6 -58 -14
-114 -17 l-100 -6 -22 -39 c-12 -22 -34 -52 -49 -68 -44 -46 -56 -68 -73 -146
-24 -107 -24 -190 0 -235 19 -37 35 -48 35 -25 0 6 9 3 21 -8 l21 -19 -26 -22
c-17 -14 -25 -31 -24 -47 1 -13 6 -23 10 -20 4 3 12 -5 18 -16 9 -16 8 -25 -1
-36 -10 -13 -15 -12 -35 7 -13 12 -22 25 -20 28 2 3 -4 14 -13 23 -15 15 -19
14 -52 -23 l-37 -40 39 -50 c22 -27 36 -49 32 -49 -4 0 3 -7 16 -16 14 -10 33
-14 51 -11 37 8 58 -14 35 -37 -16 -16 -75 -22 -88 -9 -4 3 -1 13 6 22 11 14
10 14 -6 2 -15 -12 -20 -11 -37 11 -87 111 -95 116 -119 71 -17 -32 -14 -48
14 -74 13 -13 25 -33 26 -44 0 -11 3 -14 6 -7 6 17 23 15 23 -2 0 -8 5 -16 11
-18 18 -6 13 -67 -7 -89 -10 -12 -38 -32 -61 -46 -25 -15 -43 -33 -45 -46 -2
-12 -13 -26 -25 -32 -19 -8 -22 -17 -21 -52 2 -33 -3 -47 -20 -63 -28 -26 -82
-36 -111 -20 -19 10 -27 7 -62 -24 -40 -37 -68 -43 -113 -26 -30 11 -40 -8
-27 -55 6 -25 4 -33 -18 -52 -33 -29 -36 -29 -68 5 -15 15 -22 20 -18 12 8
-13 6 -13 -8 -1 -14 11 -22 11 -51 -3 -19 -9 -39 -16 -45 -16 -6 0 -31 20 -55
45 -66 67 -65 37 1 -40 55 -65 58 -67 95 -62 21 3 41 1 44 -5 10 -15 -19 -39
-53 -44 -25 -4 -36 1 -61 28 -67 74 -92 103 -92 110 0 4 -12 6 -27 5 -27 -2
-40 20 -20 34 5 3 1 13 -7 22 -19 18 -21 31 -4 21 6 -4 8 -3 5 2 -3 5 -18 11
-34 12 -24 2 -37 -7 -72 -47 -38 -43 -46 -48 -67 -41 -19 7 -26 5 -34 -9 -6
-13 -19 -18 -40 -16 -17 1 -33 5 -37 9 -3 3 -17 6 -30 6 -13 0 -23 6 -23 14 0
8 -7 16 -15 20 -8 3 -15 12 -15 20 0 17 -24 28 -45 20 -8 -4 -21 -1 -28 5 -14
11 -19 6 -84 -64 -15 -17 -35 -29 -44 -27 -9 1 -30 -10 -46 -25 -17 -15 -40
-35 -52 -43 -12 -8 -21 -22 -21 -31 0 -9 -9 -26 -19 -38 -11 -13 -17 -29 -14
-36 2 -8 -2 -24 -11 -37 -10 -13 -16 -43 -16 -75 0 -28 -5 -55 -10 -58 -14 -9
-50 -85 -50 -106 0 -12 -6 -16 -19 -12 -12 3 -24 -3 -33 -16 l-14 -20 -18 21
c-14 16 -26 19 -56 15 -32 -4 -44 0 -74 25 -20 16 -36 38 -36 48 0 10 -5 22
-11 25 -5 4 -15 18 -20 32 -8 21 -14 24 -36 18 -15 -3 -32 -14 -39 -23 -11
-15 -14 -15 -38 1 -14 10 -26 22 -26 27 0 5 -10 18 -22 29 -20 19 -20 22 -5
39 9 10 17 26 17 34 0 9 7 21 16 29 10 8 13 21 9 36 -3 13 -1 32 5 42 6 13 6
21 0 23 -6 2 -12 12 -14 23 -2 11 -7 27 -11 36 -5 12 2 19 24 27 32 11 36 18
25 46 -5 12 -20 16 -63 16 -52 0 -93 16 -112 43 -8 11 -89 5 -91 -8 0 -5 -9
-16 -19 -23 -11 -7 -19 -20 -19 -28 0 -8 -9 -14 -19 -14 -11 0 -26 -3 -34 -6
-9 -3 -28 7 -45 24 -17 17 -40 33 -51 37 -20 6 -21 14 -21 136 0 106 -3 131
-15 135 -8 4 -15 16 -15 28 -1 44 -71 96 -132 96 -22 0 -38 8 -53 25 -18 22
-24 24 -53 16 -18 -6 -39 -8 -47 -5 -7 3 -36 -17 -65 -45 -49 -48 -56 -51
-104 -51 -61 0 -96 25 -96 68 0 18 -13 41 -41 70 -23 23 -46 42 -51 42 -5 0
-16 7 -24 15 -21 20 -98 19 -130 -2 -24 -16 -28 -15 -59 1 -19 10 -36 25 -39
32 -7 18 -70 18 -84 2 -6 -7 -13 -31 -17 -53 -11 -66 -15 -74 -43 -87 -20 -10
-28 -22 -30 -47 -2 -18 1 -38 7 -44 21 -21 12 -45 -18 -52 -27 -6 -43 -24 -45
-50 -2 -18 -36 -17 -36 1 0 16 -1 16 -20 -1 -25 -23 -25 -40 0 -72 13 -17 18
-33 14 -50 -4 -15 -1 -28 9 -36 25 -20 27 -67 5 -89 -21 -21 -29 -21 -134 1
-39 9 -59 8 -90 -2 l-39 -14 -5 -67 c-6 -84 -22 -100 -90 -90 -25 4 -53 11
-63 16 -10 5 -36 7 -58 3 -31 -5 -40 -3 -45 9 -8 21 -60 21 -68 0 -4 -11 -14
-15 -31 -12 -16 3 -25 1 -25 -7 0 -27 -75 -35 -94 -11 -7 10 -31 15 -66 16
-89 3 -93 1 -135 -38 -22 -20 -51 -43 -65 -50 -14 -7 -30 -23 -35 -35 -6 -14
-21 -23 -39 -25 -15 -2 -48 -15 -72 -28 -24 -14 -52 -24 -61 -22 -21 4 -24
-30 -5 -50 6 -7 12 -22 12 -33 0 -14 -7 -19 -29 -19 -23 0 -30 -5 -33 -22 -3
-20 -9 -23 -63 -24 -58 -2 -61 -1 -96 38 -36 38 -38 39 -100 36 -55 -3 -65 -6
-75 -27 -17 -33 -32 -40 -67 -30 -37 10 -43 7 -50 -30 -3 -15 -13 -31 -21 -34
-21 -8 -46 2 -46 18 0 7 -16 20 -34 29 -39 18 -82 72 -78 97 2 9 -4 19 -13 22
-9 4 -15 19 -15 42 0 29 -4 35 -20 35 -11 0 -23 7 -26 15 -4 8 -10 15 -15 15
-6 0 -23 10 -39 22 -24 17 -30 29 -30 60 0 38 0 38 -40 38 -28 0 -43 -5 -47
-16 -4 -12 -14 -14 -35 -10 -22 4 -33 0 -51 -20 -12 -14 -32 -30 -44 -35 -13
-5 -23 -14 -23 -21 0 -7 -19 -22 -43 -33 -47 -22 -67 -43 -60 -62 3 -7 0 -27
-7 -43 l-12 -30 -100 0 c-78 0 -100 -3 -104 -15 -4 -9 -19 -15 -35 -15 -23 0
-30 -5 -35 -27 -9 -34 -23 -48 -48 -48 -10 0 -24 -8 -30 -18 -9 -14 -7 -20 6
-28 27 -15 21 -39 -12 -50 -22 -8 -30 -17 -30 -35 0 -13 -6 -24 -13 -24 -7 0
-18 -9 -25 -20 -17 -28 -54 -25 -81 6 -17 19 -25 23 -31 14 -5 -9 -13 -6 -29
11 -11 12 -21 26 -21 31 0 4 -12 8 -26 8 -19 0 -25 4 -20 15 9 25 -42 75 -77
75 -26 0 -41 11 -82 56 -27 30 -59 66 -71 79 -26 29 -36 53 -24 60 11 7 3 33
-17 57 -10 11 -11 18 -4 23 6 3 11 24 11 46 0 27 4 39 14 39 8 0 17 12 21 27
5 22 2 31 -14 42 -12 7 -21 22 -21 32 0 16 -8 19 -49 19 -32 0 -53 -5 -62 -16
-9 -12 -22 -14 -48 -9 -20 3 -59 9 -86 11 -47 5 -52 4 -65 -20 -11 -21 -21
-26 -51 -26 -44 0 -89 -37 -89 -73 0 -27 -17 -47 -40 -47 -20 0 -42 36 -44 73
-1 16 -10 36 -20 43 -10 7 -16 20 -13 28 3 8 -5 26 -19 41 -13 14 -24 33 -24
41 0 7 -4 14 -10 14 -5 0 -10 13 -10 28 0 27 -25 61 -46 62 -5 1 -20 14 -34
30 -13 17 -28 30 -32 30 -9 0 -63 36 -86 58 -18 17 -21 16 -32 -13 -5 -14 -16
-25 -25 -25 -8 0 -15 -4 -15 -10 0 -5 -6 -10 -14 -10 -7 0 -16 -13 -19 -30 -4
-18 -13 -30 -22 -30 -10 0 -15 -10 -15 -30 0 -25 -4 -30 -24 -30 -13 0 -26 -7
-30 -15 -3 -8 -15 -15 -26 -15 -12 0 -24 -9 -30 -24 -17 -47 -61 -59 -240 -68
-194 -9 -210 -11 -210 -20 0 -5 -5 -8 -11 -8 -7 0 -18 -8 -25 -17 -13 -17 -15
-17 -28 0 -7 10 -27 17 -45 17 -17 0 -31 5 -31 10 0 6 -9 10 -19 10 -11 0 -23
5 -26 10 -9 14 -56 12 -85 -5 -44 -25 -164 -11 -177 21 -3 9 -19 14 -44 14
-28 0 -39 4 -39 15 0 8 -7 15 -16 15 -8 0 -22 7 -31 15 -14 14 -18 14 -40 -1
-17 -10 -37 -14 -58 -11 -26 4 -38 -1 -68 -28 -21 -19 -37 -38 -37 -44 0 -5
-13 -18 -30 -28 -24 -14 -30 -24 -30 -51 0 -18 -5 -42 -11 -53 -17 -33 -20
-97 -3 -103 8 -3 14 -18 14 -34 0 -16 7 -35 15 -42 8 -7 15 -20 15 -30 0 -10
7 -23 15 -30 25 -21 18 -40 -15 -40 -20 0 -30 -5 -30 -15 0 -8 -20 -29 -45
-47 -35 -26 -44 -39 -45 -64 0 -23 6 -34 25 -44 27 -14 31 -25 15 -35 -15 -10
-12 -50 8 -84 20 -36 9 -64 -27 -69 -29 -5 -48 -47 -46 -107 1 -32 -5 -61 -16
-80 -16 -28 -22 -69 -20 -142 1 -32 3 -33 42 -33 32 0 42 -4 46 -19 8 -31 63
-36 63 -6 0 21 27 25 44 6 19 -21 21 -54 4 -80 -10 -16 -7 -24 14 -49 14 -17
29 -28 33 -24 4 4 12 -1 20 -11 11 -15 14 -16 25 -2 9 11 22 14 42 10 21 -5
28 -3 28 9 0 22 29 20 36 -1 3 -10 10 -26 15 -35 5 -10 9 -30 9 -46 0 -18 9
-37 25 -50 20 -18 23 -26 16 -41 -7 -13 -6 -24 5 -40 11 -16 14 -35 9 -74 -9
-68 6 -108 37 -103 30 4 50 -29 37 -61 -9 -25 -9 -26 56 -27 42 -1 44 -5 29
-54 -7 -24 -6 -24 67 -20 l74 3 3 -42 c2 -24 6 -43 10 -44 53 -6 108 -56 123
-112 9 -34 8 -42 -14 -70 -65 -86 -69 -130 -16 -169 17 -13 42 -45 55 -73 47
-97 85 -125 169 -125 61 0 85 -10 135 -58 32 -30 106 -32 115 -2 4 11 17 28
30 36 15 10 25 27 27 47 2 25 8 33 28 35 14 2 29 10 33 18 21 37 117 2 117
-44 0 -13 8 -31 18 -38 16 -12 16 -14 -1 -44 -11 -22 -17 -53 -17 -100 0 -74
-8 -88 -60 -112 -30 -13 -34 -21 -30 -71 1 -16 -6 -37 -16 -48 -16 -17 -17
-37 -15 -162 1 -78 4 -143 6 -145 1 -2 19 -6 40 -9 32 -5 40 -2 56 18 10 13
19 32 19 42 0 31 27 18 74 -35 37 -42 46 -61 52 -104 9 -78 -10 -171 -41 -200
-19 -17 -25 -33 -25 -64 0 -22 -4 -40 -9 -40 -16 0 -41 -105 -41 -172 0 -72 7
-85 68 -122 23 -14 42 -30 42 -36 0 -5 20 -23 44 -41 63 -45 76 -78 76 -194 0
-109 -6 -104 82 -73 33 11 38 17 38 43 0 41 13 57 41 53 19 -2 25 -10 27 -38
6 -73 49 -104 90 -64 14 15 17 15 29 -2 7 -10 13 -23 13 -29 0 -8 35 -17 91
-25 81 -11 92 -10 108 4 17 16 21 14 61 -31 58 -66 60 -76 35 -152 -17 -50
-31 -72 -57 -91 -18 -14 -45 -35 -58 -47 -13 -13 -28 -23 -32 -23 -5 0 -42
-34 -82 -75 -50 -52 -76 -86 -80 -108 -4 -20 -17 -39 -36 -52 -25 -17 -30 -27
-30 -62 0 -31 -8 -52 -33 -85 -28 -37 -40 -44 -81 -50 -32 -4 -58 -16 -75 -32
-25 -24 -34 -26 -112 -26 l-85 0 -32 -36 c-18 -20 -32 -39 -32 -43 0 -5 -19
-16 -41 -27 -28 -12 -45 -28 -51 -46 -6 -15 -13 -28 -18 -28 -14 0 -32 -89
-26 -125 7 -36 8 -36 46 -30 37 6 41 5 52 -22 25 -55 38 -63 102 -63 61 0 85
-14 86 -51 0 -9 16 -24 35 -33 l35 -17 -6 -57 c-5 -47 -3 -61 12 -78 38 -43
101 -60 89 -25 -3 10 -3 26 1 35 6 15 8 14 23 -6 9 -13 14 -27 13 -33 -2 -5 0
-7 3 -3 11 11 67 -21 59 -34 -4 -7 -3 -8 5 -4 8 6 9 12 2 20 -8 9 -1 22 24 46
l34 33 -23 31 c-12 17 -21 39 -18 50 3 16 8 14 38 -15 29 -28 37 -32 52 -21
31 22 44 25 53 11 6 -9 2 -19 -10 -29 -28 -23 -31 -45 -9 -59 17 -10 18 -15 6
-29 -11 -15 -11 -16 3 -4 14 11 21 8 45 -20 30 -34 76 -48 89 -28 5 8 13 6 26
-6 10 -9 16 -21 13 -26 -8 -12 52 -68 72 -68 8 0 17 7 20 15 4 8 18 15 34 15
34 0 90 27 90 45 0 13 37 27 80 29 16 1 29 11 40 31 20 40 28 45 78 45 23 0
42 3 42 8 0 11 51 32 80 32 15 0 35 -9 45 -20 14 -15 31 -20 72 -20 47 0 55 3
62 23 8 21 18 25 87 30 70 6 80 5 100 -14 24 -22 44 -19 44 7 0 12 10 15 40
13 22 -2 45 2 52 9 15 15 138 16 138 2 0 -5 7 -10 15 -10 8 0 12 -6 9 -14 -9
-22 11 -27 36 -9 32 23 109 27 117 8 3 -8 18 -15 33 -15 15 0 33 -7 40 -15 16
-19 50 -20 50 -1 0 19 44 46 76 46 23 0 25 3 20 26 -6 22 -5 24 13 15 31 -17
71 -14 71 5 0 11 6 15 20 11 14 -3 24 1 31 15 6 11 17 17 24 14 7 -2 19 1 25
9 6 8 18 11 25 9 7 -3 24 0 36 7 20 10 26 8 62 -30 31 -33 38 -47 33 -67 -4
-15 0 -34 10 -49 9 -13 12 -30 8 -37 -17 -27 -22 -102 -8 -116 8 -7 14 -31 14
-52 0 -21 5 -42 10 -45 6 -3 10 -17 10 -30 0 -15 10 -31 25 -41 32 -21 32 -37
0 -54 -14 -7 -25 -19 -25 -27 0 -7 -3 -13 -7 -13 -15 0 -41 -57 -32 -71 5 -8
9 -29 9 -46 0 -31 -2 -33 -35 -33 -42 0 -65 -33 -46 -67 8 -16 6 -25 -9 -41
-11 -12 -20 -28 -20 -36 0 -21 -22 -66 -32 -66 -16 0 -41 -67 -34 -94 l7 -27
103 2 c90 2 107 0 129 -17 18 -15 23 -24 16 -36 -7 -13 -2 -22 22 -39 26 -19
40 -21 96 -16 l65 5 66 -67 c78 -78 93 -86 131 -66 38 19 47 55 21 77 -18 15
-19 18 -4 32 8 9 20 16 26 16 5 0 7 12 3 29 -4 18 -2 32 5 36 7 4 19 23 27 42
14 35 15 35 60 29 64 -9 83 0 126 55 l37 49 75 0 c80 0 125 -12 125 -33 0 -19
89 -108 129 -129 19 -11 42 -16 57 -12 14 4 24 2 24 -4 0 -15 101 -35 114 -22
5 5 29 10 52 10 36 0 48 -6 81 -40 l38 -41 105 3 c98 3 106 5 115 26 5 12 15
22 21 22 6 0 19 9 29 20 10 12 25 18 33 15 8 -3 21 0 28 6 10 8 17 7 28 -4 17
-17 33 -69 20 -66 -22 4 -33 -2 -28 -16 4 -10 0 -15 -14 -15 -12 0 -25 -6 -29
-14 -4 -8 -17 -16 -28 -18 -17 -3 -20 -11 -17 -52 2 -53 16 -78 37 -70 7 3 16
-3 20 -15 6 -21 15 -25 46 -22 9 1 22 -5 29 -14 10 -12 23 -14 57 -9 36 5 43
4 43 -10 0 -13 11 -16 58 -16 l59 0 105 107 c140 145 139 142 137 247 -1 65 2
90 13 99 8 7 24 28 36 47 16 28 19 43 12 75 -12 65 -26 89 -64 119 -20 15 -36
33 -36 40 0 19 61 72 95 83 27 9 30 13 27 44 -2 19 -8 36 -13 37 -5 2 -9 16
-9 32 0 16 -7 30 -15 34 -19 7 -19 56 0 120 22 71 19 92 -15 123 -17 14 -30
32 -30 40 0 7 -9 13 -20 13 -11 0 -23 7 -26 15 -3 8 -14 17 -25 20 -14 5 -19
16 -19 43 0 42 18 62 69 80 49 17 81 52 81 89 0 24 8 37 30 53 29 20 33 21 68
7 44 -17 48 -25 59 -102 7 -53 10 -60 31 -59 12 0 22 -5 22 -12 0 -26 47 -47
87 -38 21 4 43 6 48 4 6 -1 30 -7 55 -11 29 -6 52 -18 65 -34 14 -17 31 -25
51 -25 21 0 40 -10 64 -35 27 -28 42 -35 71 -35 39 0 52 -14 38 -41 -6 -11 -2
-25 10 -40 10 -13 18 -39 17 -57 -1 -17 1 -32 4 -32 3 0 19 -12 36 -27 17 -16
40 -33 50 -39 11 -6 23 -20 29 -32 5 -12 15 -22 21 -22 6 0 17 -7 24 -15 7 -8
16 -13 20 -10 5 3 15 -1 23 -9 8 -8 17 -12 21 -9 3 3 11 1 18 -5 20 -16 88
-13 88 4 0 8 9 14 19 14 11 0 28 12 38 26 l20 26 46 -20 c26 -12 47 -27 47
-35 0 -8 9 -22 20 -32 11 -10 20 -25 20 -34 0 -9 14 -22 30 -28 20 -8 30 -18
30 -32 0 -24 18 -27 46 -7 16 12 23 12 39 2 11 -7 42 -15 69 -18 27 -3 43 -2
36 2 -8 5 -1 14 23 29 41 25 53 26 61 5 8 -20 10 -17 -31 -38 -35 -18 -40 -31
-20 -57 17 -21 43 -29 55 -17 16 16 82 20 98 7 8 -6 19 -29 24 -50 12 -43 36
-72 52 -63 6 4 14 0 19 -7 9 -16 49 -21 49 -7 0 4 11 13 25 18 14 5 25 14 25
20 0 5 11 10 25 10 36 0 67 34 59 65 -7 28 -13 26 101 29 86 1 115 21 115 76
0 29 -7 43 -36 68 -42 38 -45 38 -69 12 -26 -28 -79 -36 -110 -16 -14 9 -23
21 -20 27 4 5 3 8 -2 7 -12 -4 -94 88 -85 97 4 5 2 5 -5 1 -7 -4 -18 5 -28 23
-17 35 -19 45 -5 36 6 -3 10 -1 10 5 0 7 16 -7 35 -30 19 -23 32 -46 29 -51
-3 -5 -1 -8 4 -7 5 2 28 -16 51 -39 44 -47 64 -52 100 -27 l23 16 -31 32 c-17
18 -28 35 -25 39 4 4 1 13 -6 22 -7 8 -10 22 -6 30 3 9 2 14 -3 11 -5 -3 -14
1 -21 9 -7 8 -10 15 -6 15 3 0 -8 13 -26 30 -28 25 -31 31 -18 40 21 13 36 7
32 -15 -3 -16 -2 -17 12 -2 17 16 21 37 8 37 -4 0 -13 14 -19 30 -6 17 -15 30
-20 29 -4 -1 -20 -1 -35 0 -23 1 -27 5 -26 34 0 17 -1 41 -3 52 -3 13 4 23 19
30 23 10 28 19 36 68 3 18 0 27 -9 27 -16 0 -26 25 -19 45 4 8 -7 27 -25 46
-17 17 -31 36 -31 44 0 17 -20 24 -52 18 -19 -4 -37 3 -62 22 -20 15 -36 22
-36 16 0 -14 -83 -9 -102 6 -7 5 -21 13 -30 16 -10 4 -18 16 -18 29 0 12 -10
32 -22 45 -17 18 -22 35 -21 68 1 25 -3 47 -8 50 -5 4 -9 21 -9 39 0 19 -7 39
-15 46 -13 10 -15 9 -15 -9 0 -12 -6 -21 -15 -21 -8 0 -15 7 -15 15 0 8 -14
18 -32 23 -31 8 -33 11 -30 49 3 36 -1 44 -30 66 -28 21 -40 25 -76 20 -33 -4
-42 -2 -42 9 0 20 -29 45 -62 53 -16 4 -28 11 -28 16 0 5 -6 9 -14 9 -9 0 -16
17 -21 45 -3 25 -12 60 -19 78 -20 47 -7 184 19 203 10 8 24 14 30 14 6 0 22
11 35 25 18 20 21 28 12 37 -20 20 -13 69 14 105 23 31 29 33 83 33 70 0 92
17 61 45 -11 10 -20 24 -20 32 0 9 -18 13 -67 13 -61 0 -69 2 -89 27 -22 28
-22 28 -43 9 -19 -17 -29 -18 -103 -11 -115 12 -191 11 -196 -3 -6 -19 -33
-14 -68 13 -31 24 -74 34 -74 18 0 -5 9 -19 20 -33 22 -28 26 -73 8 -87 -37
-29 -69 -20 -101 27 -21 30 -22 58 -2 81 15 15 14 17 -10 23 -14 4 -25 11 -25
16 0 5 -15 6 -34 3 -29 -4 -40 0 -75 32 -22 21 -41 46 -41 56 0 10 -14 32 -31
48 -17 17 -28 34 -25 40 3 5 -8 21 -24 35 -24 20 -37 24 -61 19 -21 -4 -34 -1
-39 8 -5 8 -23 12 -42 11 -28 -2 -39 4 -62 33 -15 19 -52 49 -82 66 -30 17
-54 35 -54 40 0 5 -24 9 -54 9 -39 0 -55 -4 -60 -15 -8 -21 -66 -20 -66 1 0
11 -9 15 -32 14 -18 -1 -38 -2 -45 -1 -16 1 -73 88 -73 111 0 11 -9 24 -21 30
-16 9 -19 17 -14 40 5 21 0 37 -15 58 -12 16 -24 47 -27 69 -4 34 -2 43 21 60
14 12 26 28 26 36 0 8 7 20 15 27 8 7 15 22 15 35 0 12 9 30 20 40 13 11 18
25 15 37 -4 10 1 28 9 40 21 29 21 87 1 94 -8 4 -15 13 -15 21 0 27 42 113 56
113 7 0 19 6 26 14 23 23 58 29 177 30 109 1 116 2 127 23 6 13 19 32 29 43
16 18 17 22 3 38 -19 21 -33 82 -21 91 4 3 13 19 18 35 6 16 22 38 36 48 23
17 31 18 68 8 23 -6 45 -18 48 -26 4 -11 16 -13 55 -8 63 9 68 2 68 -93 0 -57
4 -74 17 -81 12 -7 16 -22 15 -59 -2 -45 1 -51 30 -73 18 -14 36 -24 40 -23
12 4 65 -52 73 -76 6 -19 12 -22 36 -19 19 3 34 -1 45 -13 9 -10 22 -15 30
-12 8 3 23 -2 33 -11 18 -16 21 -16 58 2 21 11 44 17 52 14 19 -6 41 25 41 60
0 20 5 28 18 28 20 1 52 27 70 58 16 28 15 32 -3 32 -12 0 -15 13 -15 60 0 36
4 60 11 60 6 0 8 9 4 20 -4 11 -1 36 5 56 10 30 9 38 -5 54 -16 18 -16 20 -1
26 9 3 22 4 30 1 8 -3 20 1 26 9 7 8 21 14 31 14 10 0 28 14 41 30 12 17 30
30 40 30 11 0 31 6 46 14 22 11 37 12 75 3 41 -9 53 -8 77 6 15 9 41 17 57 17
19 0 38 9 53 25 13 14 27 25 32 25 4 0 17 9 27 19 11 11 28 17 38 15 11 -3 25
2 32 10 9 11 30 16 66 16 35 0 57 5 65 15 7 8 28 15 47 15 21 0 36 6 39 15 9
23 80 20 86 -3 4 -15 12 -18 37 -14 24 3 31 1 31 -12 0 -19 22 -21 53 -3 27
15 37 28 31 39 -3 4 1 8 9 8 8 0 26 17 40 38 24 34 25 43 20 117 -5 67 -3 83
11 94 9 7 16 20 16 28 0 22 60 71 94 78 36 7 98 36 108 50 4 6 8 24 8 41 0 44
23 61 58 43 14 -8 34 -22 44 -31 24 -24 63 -23 80 3 10 16 24 22 55 22 48 1
123 -30 123 -50 0 -7 5 -13 11 -13 8 0 7 -5 -1 -15 -20 -24 42 -74 91 -75 23
0 39 -6 43 -15 3 -9 18 -15 35 -15 16 0 31 -6 35 -15 8 -22 44 -18 56 6 7 11
18 18 25 15 9 -3 20 7 29 26 17 34 10 57 -25 82 -16 11 -20 21 -15 39 5 22 11
24 68 24 41 1 66 -4 76 -14 8 -8 23 -12 33 -10 13 3 19 0 19 -10 0 -23 31 -43
51 -33 17 10 38 8 57 -3 24 -16 12 34 -14 57 -23 20 -26 26 -17 52 11 33 43
43 66 20 20 -20 30 -20 49 2 22 25 28 58 13 79 -15 22 -17 71 -3 97 7 12 7 26
0 40 -6 11 -13 33 -16 49 -4 15 -13 27 -20 27 -8 0 -21 11 -30 24 -14 22 -14
28 -1 54 8 16 23 37 34 46 18 16 20 16 38 -3 10 -11 35 -27 56 -36 20 -8 37
-22 37 -30 0 -8 6 -15 14 -15 7 0 19 -6 26 -14 8 -10 28 -14 66 -12 45 2 55 0
60 -16 3 -10 14 -18 24 -18 10 0 20 -9 23 -21 5 -19 11 -21 43 -16 21 4 40 10
43 15 15 23 103 82 124 82 40 0 55 106 23 159 -10 15 22 79 44 86 22 7 51 -3
70 -26 8 -9 32 -19 54 -21 32 -2 42 1 58 22 10 14 21 43 25 65 9 59 17 65 89
65 43 0 66 4 71 14 4 8 16 15 26 17 10 2 25 16 34 30 15 24 14 28 -8 60 -34
48 -42 56 -67 63 -12 4 -22 13 -22 19 1 32 70 77 119 77 36 0 81 38 81 68 0
11 13 34 29 51 24 26 37 31 73 31 59 0 84 25 67 64 -11 23 -9 29 11 52 21 21
23 28 11 45 -10 18 -10 24 3 38 21 23 20 60 -1 83 -16 18 -16 21 0 48 16 27
14 60 -3 60 -14 0 -20 30 -9 56 5 15 21 35 34 46 30 24 33 64 5 73 -12 4 -24
22 -32 46 -6 22 -19 44 -27 49 -46 27 -47 28 -26 44 12 9 42 15 77 16 54 0 58
-2 88 -40 27 -34 37 -40 68 -39 70 2 86 11 101 59 8 25 19 48 25 52 6 4 4 18
-8 40 -17 32 -17 34 3 81 27 62 27 92 0 111 -18 12 -20 21 -14 55 6 39 6 40
-33 60 -39 20 -112 97 -112 119 0 6 14 26 30 44 17 18 30 38 30 44 0 6 18 14
40 17 55 7 70 22 70 68 0 21 4 48 9 62 11 30 4 42 -32 51 -15 3 -36 15 -47 26
-16 16 -18 24 -8 52 6 18 15 39 21 46 5 7 11 56 12 110 2 78 -1 104 -16 134
-11 21 -19 46 -19 56 0 14 -9 21 -30 26 -20 3 -30 12 -30 23 0 24 -57 84 -103
108 -54 28 -77 70 -77 140 0 37 -5 64 -14 74 -8 9 -19 35 -24 58 -8 35 -6 51
15 103 23 56 24 63 9 79 -9 10 -16 25 -16 34 0 26 -30 49 -57 42 -19 -4 -31 1
-53 25 -15 16 -36 30 -47 30 -19 0 -53 32 -53 50 0 6 -19 10 -43 10 -24 0 -52
7 -63 15 -11 8 -42 15 -74 15 -30 0 -73 7 -95 15 -66 23 -80 20 -93 -22z
m-551 -851 c-4 -40 -4 -76 -1 -81 5 -9 90 -31 128 -34 12 -1 22 -5 22 -9 0 -4
8 -5 18 -2 14 5 14 3 -2 -10 -24 -19 -26 -19 -101 -2 -53 13 -60 13 -71 -2
-10 -14 -7 -24 22 -59 30 -36 32 -43 18 -51 -13 -7 -29 5 -75 54 -54 58 -64
74 -60 97 1 5 -2 6 -7 3 -5 -3 -24 16 -43 42 -18 26 -41 56 -51 66 -10 11 -18
23 -18 27 0 7 31 22 35 17 1 -2 19 -25 40 -53 104 -138 105 -138 109 2 1 18
10 41 21 51 11 11 21 19 21 18 1 0 -1 -34 -5 -74z m-187 -118 c24 -9 6 -34
-25 -34 -16 0 -38 -9 -49 -20 -31 -31 -25 -66 15 -101 33 -29 49 -59 23 -43
-7 4 -8 3 -4 -5 4 -6 11 -9 16 -6 4 3 13 -2 20 -10 7 -8 20 -15 29 -15 23 0
59 35 67 65 9 37 32 39 39 3 8 -35 -21 -84 -49 -82 -9 1 -13 -2 -10 -7 3 -5 2
-9 -3 -10 -4 0 -17 -2 -28 -5 -11 -2 -32 1 -47 7 -33 14 -117 118 -123 156 -6
32 15 79 34 75 7 -1 10 2 7 7 -13 21 51 39 88 25z m-1292 -1100 c24 -31 53
-68 65 -82 13 -13 20 -29 16 -35 -3 -5 -1 -7 4 -4 6 4 16 0 23 -8 26 -31 -61
-125 -116 -125 -25 0 -97 57 -89 70 3 4 -2 11 -11 14 -8 3 -12 11 -8 17 4 7 3
9 -3 6 -12 -8 -54 38 -50 55 1 7 -5 12 -13 13 -20 0 -19 29 1 33 10 2 37 -25
72 -71 64 -84 103 -108 141 -87 28 14 50 56 35 65 -5 4 -7 11 -3 16 3 5 2 8
-3 7 -15 -5 -85 80 -77 93 4 8 3 9 -4 5 -13 -8 -54 52 -46 66 10 16 24 7 66
-48z m-431 -126 c1 -7 0 -17 -1 -23 -1 -5 2 -7 6 -2 4 4 20 -5 36 -20 l28 -27
30 31 c68 69 118 46 234 -110 25 -34 27 -41 14 -53 -13 -13 -23 -4 -79 66 -35
44 -63 84 -62 89 4 16 -78 -7 -92 -25 -17 -22 -19 -50 -5 -59 6 -4 8 -11 4
-16 -3 -5 -1 -8 4 -7 5 2 32 -28 61 -65 42 -55 50 -71 41 -82 -14 -16 -34 -10
-24 7 4 6 2 8 -3 5 -11 -7 -66 69 -66 90 0 7 -4 10 -9 7 -4 -3 -12 5 -17 18
-6 13 -10 19 -10 15 -1 -13 -111 116 -111 130 0 7 -5 13 -11 13 -8 0 -8 5 1
15 15 18 30 19 31 3z m-3 -173 c3 -10 0 -15 -7 -11 -6 4 -11 3 -11 -3 0 -9
-37 -27 -50 -24 -3 1 -6 -13 -7 -30 -2 -30 25 -75 36 -60 12 16 74 43 99 43
14 0 36 -10 49 -22 23 -22 32 -68 12 -68 -5 0 -8 -4 -4 -9 10 -17 -84 -96
-114 -96 -9 0 -17 8 -19 18 -2 9 2 17 8 17 7 0 29 12 51 28 34 24 39 32 37 63
-2 34 -3 36 -27 29 -14 -4 -39 -15 -56 -24 -119 -63 -169 83 -53 154 37 23 51
21 56 -5z m-5377 -1960 c12 -19 27 -35 35 -35 8 0 22 -15 30 -34 15 -31 15
-35 -1 -60 -20 -30 -60 -44 -84 -29 -9 5 -24 24 -33 42 -9 18 -26 40 -37 48
-29 20 -26 57 5 82 38 30 62 26 85 -14z m-96 -117 c39 -44 46 -57 43 -87 -2
-27 -9 -39 -30 -48 -28 -14 -61 -8 -55 11 2 6 14 12 26 14 25 4 36 24 27 49
-6 14 -8 14 -22 -5 -22 -31 -68 -29 -99 4 -30 33 -32 67 -5 94 34 34 63 25
115 -32z m-339 -334 c19 -19 34 -42 34 -50 0 -45 -48 -79 -85 -62 -23 10 -65
67 -65 88 0 21 41 60 63 60 11 0 35 -16 53 -36z m-66 -156 c0 -10 -4 -18 -10
-18 -5 0 -19 -9 -30 -20 -30 -30 -65 -25 -94 13 -15 19 -26 43 -26 55 0 22 24
52 42 52 6 0 3 9 -7 20 -11 12 -15 26 -11 37 6 15 18 6 71 -52 35 -38 64 -78
65 -87z m4864 -1395 c26 -36 49 -71 51 -77 2 -6 -9 -22 -26 -35 -38 -30 -70
-22 -98 23 -27 43 -27 72 2 87 12 6 23 13 25 14 2 2 -4 15 -13 29 -14 21 -14
26 -4 26 8 0 36 -30 63 -67z m-3754 -407 l0 -73 85 -18 c47 -10 88 -22 90 -26
3 -3 -2 -12 -10 -19 -12 -10 -25 -10 -58 -2 -110 29 -133 13 -76 -53 26 -29
29 -38 19 -51 -14 -16 -11 -18 -153 136 -28 30 -66 72 -85 92 -30 32 -33 39
-22 53 12 15 20 9 76 -52 34 -37 60 -72 57 -77 -3 -5 -1 -6 5 -2 5 3 12 1 14
-6 2 -6 9 -9 15 -5 6 4 9 33 5 76 -3 50 -1 73 9 85 24 27 29 18 29 -58z m-160
-141 c0 -8 -9 -15 -21 -15 -23 0 -60 -18 -71 -34 -15 -22 -8 -60 17 -92 14
-18 25 -38 25 -45 0 -7 3 -10 6 -6 4 3 13 0 21 -8 8 -8 22 -15 32 -15 23 0 60
40 64 70 3 16 11 26 25 28 18 3 22 -2 22 -22 0 -14 -5 -26 -11 -26 -5 0 -7 -5
-4 -10 8 -14 -50 -68 -81 -76 -14 -4 -37 -1 -52 6 -29 12 -109 104 -104 120 1
6 -2 10 -6 10 -5 0 -8 16 -7 36 1 48 53 93 108 94 26 0 37 -4 37 -15z m-517
-289 c-3 -6 -3 -8 2 -4 4 4 14 3 22 -3 10 -9 17 -8 30 2 11 9 14 10 9 2 -5 -9
-2 -11 8 -7 9 3 13 10 10 15 -9 15 13 10 25 -5 9 -11 6 -18 -17 -35 -16 -11
-33 -17 -37 -13 -11 11 29 -61 42 -76 7 -7 19 -22 27 -33 16 -23 86 -44 86
-26 0 6 8 4 17 -6 16 -16 16 -18 -2 -32 -30 -22 -114 -17 -99 6 3 5 1 9 -5 9
-6 0 -29 27 -53 60 -30 43 -47 59 -59 55 -9 -3 -22 1 -29 10 -8 10 -9 15 -2
15 6 0 10 13 9 29 -1 16 -5 27 -9 25 -12 -8 -20 17 -13 44 l7 27 19 -24 c10
-12 16 -28 12 -35z m-59 -131 c4 -11 -6 -20 -35 -32 -42 -16 -64 -49 -52 -79
6 -16 37 -16 77 1 15 7 17 5 11 -6 -6 -10 -3 -9 11 2 24 21 69 36 60 20 -4 -7
-1 -9 8 -5 35 14 48 -89 16 -126 -11 -13 -20 -20 -20 -16 0 4 -14 -4 -31 -19
-18 -14 -38 -24 -46 -21 -8 3 -11 1 -8 -4 3 -6 1 -10 -4 -10 -6 0 -11 2 -11 4
0 2 -3 11 -6 20 -4 11 3 19 22 27 16 6 30 10 32 9 2 -1 14 10 28 25 47 51 22
89 -44 65 -65 -23 -99 -23 -121 -1 -30 30 -26 66 12 107 45 51 90 68 101 39z
m-299 -281 c14 -15 22 -31 18 -37 -3 -5 -1 -7 5 -3 6 3 14 1 17 -5 8 -12 -33
-59 -52 -59 -7 0 -13 -5 -13 -10 0 -6 -14 -19 -30 -29 -30 -18 -30 -18 -11
-39 29 -35 111 -14 111 27 0 6 6 11 13 11 8 0 7 4 -3 10 -12 8 -11 10 8 10 27
0 29 -27 7 -70 -31 -60 -91 -77 -140 -39 -53 43 -105 119 -105 155 0 20 4 33
9 30 5 -3 8 2 7 11 -2 24 61 63 101 63 24 0 41 -8 58 -26z m5815 -537 c0 -7
-4 -6 -11 3 -9 13 -10 13 -6 0 2 -8 12 -15 23 -15 12 0 19 -6 18 -17 -1 -10 1
-17 5 -16 3 1 14 -2 24 -7 13 -6 26 1 49 24 53 54 117 37 179 -48 16 -21 25
-42 21 -46 -4 -5 -2 -5 5 -2 6 4 22 -7 36 -25 23 -29 24 -33 9 -44 -14 -11
-20 -8 -39 14 -11 15 -19 30 -16 35 2 4 0 6 -5 5 -5 -2 -28 21 -51 50 -39 49
-45 53 -81 50 -22 -1 -37 -4 -35 -7 3 -2 -4 -14 -14 -25 -22 -23 -30 -10 99
-166 25 -30 27 -37 15 -49 -13 -13 -18 -12 -39 9 -14 12 -23 27 -20 31 3 5 1
9 -5 9 -15 0 -82 92 -77 106 2 6 -1 11 -8 10 -7 0 -36 26 -64 59 -38 44 -48
63 -40 72 11 14 28 8 28 -10z"/>
</g>
</svg>
