<?xml version="1.0" standalone="no"?>
<!DOCTYPE svg PUBLIC "-//W3C//DTD SVG 20010904//EN"
 "http://www.w3.org/TR/2001/REC-SVG-20010904/DTD/svg10.dtd">
<svg version="1.0" xmlns="http://www.w3.org/2000/svg"
 width="1165.000000pt" height="865.000000pt" viewBox="0 0 1165.000000 865.000000"
 preserveAspectRatio="xMidYMid meet">
<metadata>
Created by potrace 1.16, written by Peter Selinger 2001-2019
</metadata>
<g transform="translate(0.000000,865.000000) scale(0.100000,-0.100000)"
fill="#000000" stroke="none">
<path d="M3581 8372 c-8 -15 -22 -20 -57 -20 -26 -1 -51 -5 -55 -9 -4 -4 -12
-42 -18 -83 -7 -41 -14 -76 -16 -78 -10 -10 -36 9 -45 32 -9 25 -47 52 -57 42
-3 -3 -14 -1 -24 4 -21 12 -49 3 -49 -16 0 -9 -12 -14 -34 -14 -19 0 -41 -6
-48 -13 -7 -6 -32 -24 -55 -40 -24 -15 -43 -32 -43 -37 0 -5 -12 -13 -27 -16
-16 -4 -33 -10 -38 -15 -6 -4 -29 -4 -50 1 -22 5 -48 10 -57 10 -21 0 -59 -39
-57 -60 3 -35 -2 -40 -38 -40 -24 0 -45 -8 -59 -21 -22 -21 -64 -20 -64 2 0 5
-11 7 -25 3 -23 -6 -55 13 -55 32 0 4 -7 16 -17 26 -9 11 -11 18 -5 18 7 0 12
7 12 16 0 13 -7 15 -38 9 -30 -5 -44 -2 -64 14 -31 25 -36 26 -59 5 -16 -14
-20 -14 -42 1 -14 9 -42 18 -62 21 -20 2 -49 11 -65 19 -15 8 -30 11 -34 8
-14 -14 -5 -72 12 -85 10 -7 27 -25 36 -40 10 -16 25 -28 32 -28 8 0 14 -5 14
-11 0 -5 8 -9 18 -8 33 3 42 -1 42 -21 0 -20 12 -24 56 -21 16 2 27 -9 44 -43
42 -89 11 -128 -73 -90 -37 17 -40 17 -52 1 -15 -21 -34 -22 -63 -1 -21 15
-25 15 -43 -2 -10 -9 -19 -23 -19 -31 0 -11 -4 -11 -20 -3 -11 6 -25 8 -30 5
-6 -3 -10 -1 -10 6 0 8 -10 9 -31 5 -25 -5 -32 -2 -36 14 -5 18 -26 25 -61 21
-7 -1 -20 6 -29 15 -11 11 -18 13 -21 5 -5 -14 -32 -15 -32 -1 0 6 -7 10 -16
10 -9 0 -27 9 -40 19 -24 19 -56 18 -81 -2 -9 -6 -13 -6 -13 2 0 18 -21 13
-40 -11 -15 -19 -27 -23 -79 -21 -34 0 -64 -3 -67 -8 -10 -16 -49 -9 -62 11
-9 15 -17 18 -30 12 -9 -5 -25 -8 -34 -7 -10 2 -18 -3 -18 -11 0 -16 -65 -20
-75 -4 -12 19 -26 0 -15 -20 6 -11 8 -31 4 -45 -3 -14 -1 -38 6 -54 10 -24 9
-33 -5 -55 -9 -14 -14 -29 -11 -34 8 -13 -61 -71 -97 -80 -27 -7 -33 -14 -40
-51 -7 -34 -12 -41 -26 -36 -10 3 -24 -1 -31 -10 -9 -11 -16 -12 -25 -5 -9 8
-15 8 -20 0 -3 -5 -17 -10 -30 -10 -22 0 -24 -3 -20 -50 4 -55 -14 -85 -46
-77 -18 5 -71 -43 -82 -74 -3 -10 -23 -23 -44 -29 -21 -7 -42 -19 -46 -26 -4
-8 -17 -14 -28 -14 -12 0 -23 -8 -26 -20 -6 -24 -12 -25 -38 -6 -31 21 -84 30
-100 16 -8 -7 -15 -25 -15 -41 0 -16 -7 -32 -17 -37 -13 -8 -15 -20 -10 -64 5
-52 4 -56 -29 -88 -30 -29 -34 -38 -28 -64 9 -43 22 -56 55 -56 25 0 29 -4 29
-30 0 -21 -8 -36 -30 -52 -16 -12 -30 -30 -30 -40 0 -10 -6 -21 -14 -24 -36
-14 -25 -94 13 -94 10 0 28 -13 41 -30 13 -16 28 -30 35 -30 6 0 22 -12 36
-26 42 -46 77 -58 120 -44 21 7 44 10 53 7 9 -4 25 6 42 26 22 27 34 32 73 33
42 2 47 0 61 -29 18 -38 51 -45 104 -23 21 9 38 11 41 5 8 -12 55 -12 55 1 0
5 9 14 19 19 16 9 26 3 61 -30 l42 -41 -12 -61 c-7 -34 -14 -74 -17 -88 -3
-16 1 -32 11 -42 9 -8 16 -18 16 -21 0 -9 39 -46 49 -46 4 0 37 -27 73 -59 43
-40 78 -63 107 -71 40 -11 91 -51 91 -72 0 -5 30 -9 68 -9 90 1 130 -5 147
-19 10 -9 34 -11 70 -7 45 4 59 2 80 -15 21 -16 28 -18 41 -7 12 10 19 8 42
-14 15 -14 36 -27 47 -29 17 -3 20 -12 23 -60 l3 -56 -43 -29 c-24 -16 -45
-37 -47 -48 -2 -11 -10 -24 -17 -30 -8 -5 -18 -32 -23 -59 -7 -39 -5 -57 8
-90 11 -26 15 -50 10 -66 -4 -14 -7 -35 -8 -48 -1 -21 2 -23 32 -17 17 4 38
12 46 19 19 15 58 8 100 -19 20 -13 48 -27 63 -30 15 -4 41 -21 58 -38 25 -25
34 -29 48 -21 20 12 42 8 42 -9 0 -21 51 -57 69 -48 20 10 83 2 75 -10 -2 -5
3 -20 12 -34 15 -24 15 -25 -3 -25 -21 0 -42 -22 -60 -63 -11 -24 -10 -30 8
-48 24 -24 18 -53 -17 -75 -20 -14 -24 -24 -24 -65 0 -37 -4 -49 -15 -49 -9 0
-18 -12 -22 -30 -6 -33 -36 -60 -65 -60 -9 0 -24 -13 -34 -28 -21 -36 -64 -55
-132 -57 -32 -1 -57 -7 -62 -15 -4 -7 -29 -13 -58 -14 -51 -2 -92 -25 -92 -51
0 -7 -7 -18 -15 -25 -8 -7 -15 -21 -15 -31 0 -11 -7 -19 -15 -19 -8 0 -15 -7
-15 -15 0 -8 -6 -15 -13 -15 -7 0 -18 -5 -25 -12 -10 -10 -5 -17 20 -33 36
-22 47 -45 22 -45 -8 0 -22 -15 -30 -32 -39 -85 -49 -95 -71 -77 -31 25 -92
42 -107 29 -8 -6 -41 -12 -75 -15 -33 -2 -65 -6 -71 -10 -5 -3 -10 -25 -10
-49 0 -23 -3 -46 -7 -50 -5 -4 -9 -24 -9 -44 -3 -58 -20 -121 -39 -142 -18
-20 -18 -21 3 -50 12 -16 22 -34 22 -40 0 -6 12 -29 27 -52 29 -47 31 -61 37
-224 2 -61 9 -121 15 -133 8 -13 10 -38 6 -60 -10 -57 12 -172 39 -201 12 -14
31 -42 41 -62 15 -30 16 -39 6 -52 -7 -8 -19 -42 -26 -75 -13 -52 -13 -64 0
-95 9 -20 20 -36 25 -36 6 0 10 -18 10 -39 0 -34 -5 -43 -30 -58 -27 -15 -30
-23 -30 -65 0 -39 4 -50 24 -63 25 -17 53 -71 48 -93 -2 -8 2 -20 9 -29 11
-12 10 -17 -1 -24 -45 -27 -46 -27 -32 -50 11 -18 11 -26 -3 -55 -9 -19 -19
-34 -24 -34 -4 0 -7 -10 -7 -22 1 -15 -7 -27 -21 -33 -18 -8 -22 -17 -21 -56
0 -31 5 -49 14 -53 8 -3 14 -15 14 -26 0 -11 4 -20 9 -20 4 0 11 -19 13 -42 3
-25 18 -62 37 -89 36 -55 39 -90 10 -130 -22 -31 -37 -98 -23 -100 5 -1 28 -2
52 -4 34 -2 49 -9 72 -35 17 -19 30 -39 30 -46 0 -7 6 -19 13 -26 29 -30 45
-65 37 -78 -5 -9 -4 -20 2 -27 15 -19 48 12 48 44 0 18 5 23 24 23 14 0 28 -4
31 -10 3 -5 16 -10 28 -10 13 0 33 -7 45 -16 12 -8 31 -14 41 -12 23 4 70 -44
67 -69 -1 -13 10 -21 44 -29 25 -6 46 -17 48 -25 3 -17 55 -39 93 -39 13 0 33
-7 43 -15 27 -20 36 -19 36 5 0 30 28 80 44 80 19 0 25 -21 14 -44 -6 -10 -7
-32 -4 -50 4 -17 7 -37 8 -44 1 -7 23 -23 50 -35 29 -13 48 -28 48 -38 0 -9 7
-22 15 -29 9 -7 14 -19 11 -27 -3 -8 2 -13 13 -13 10 0 24 -7 31 -15 16 -19
39 -19 64 0 34 26 91 19 124 -15 31 -30 56 -37 81 -21 9 6 19 5 26 -3 17 -16
95 -8 95 10 0 8 5 14 10 14 7 0 9 13 5 33 -7 42 2 53 53 61 l43 6 -14 -27
c-19 -36 -41 -93 -62 -163 l-17 -54 26 -23 c14 -12 26 -25 26 -29 0 -3 -17
-23 -38 -43 -41 -40 -48 -75 -21 -108 30 -38 40 -65 34 -96 -6 -29 -3 -34 27
-49 43 -21 145 -23 165 -2 9 8 22 13 30 10 8 -3 25 -6 38 -6 15 0 25 -7 28
-21 3 -13 13 -20 24 -18 26 3 53 -11 53 -27 0 -8 7 -14 15 -14 8 0 15 5 15 10
0 6 14 9 32 8 30 -3 45 10 60 55 4 9 58 -15 58 -25 0 -5 11 -8 25 -8 19 0 28
-8 40 -36 8 -20 15 -45 15 -56 0 -15 4 -18 18 -13 20 8 20 8 55 6 22 -1 27 -6
27 -25 0 -19 4 -23 20 -19 20 5 65 -23 115 -73 27 -27 37 -29 66 -13 16 8 25
7 39 -6 12 -11 37 -16 84 -16 50 -1 66 -4 66 -15 0 -8 6 -14 14 -14 8 0 16
-12 18 -27 4 -37 26 -41 33 -6 21 95 64 139 145 148 102 12 180 58 180 105 0
24 24 42 45 34 11 -5 26 3 45 24 31 35 90 119 90 130 0 4 16 23 35 41 49 46
59 66 40 85 -24 23 -29 71 -12 105 13 27 13 36 0 81 -15 50 -42 84 -118 144
-35 28 -37 33 -32 72 5 44 25 74 50 74 28 0 104 -39 138 -72 14 -13 25 -15 61
-7 23 6 45 14 46 20 2 5 9 9 15 9 7 0 17 10 22 22 6 12 24 29 40 38 17 9 35
26 40 37 19 37 37 53 60 53 13 0 35 6 50 14 16 8 41 12 60 9 35 -6 75 10 75
30 0 33 65 126 89 127 3 0 28 21 56 47 l49 47 83 -3 c48 -1 83 2 83 8 0 5 18
12 40 16 46 8 100 -18 100 -48 0 -16 5 -18 33 -14 17 3 54 9 80 13 42 6 51 12
77 49 17 25 27 50 24 59 -8 22 22 32 41 13 8 -8 24 -13 35 -10 23 6 26 -4 6
-26 -7 -9 -16 -42 -20 -73 -6 -53 -4 -58 24 -86 19 -19 37 -28 48 -25 14 3 23
-4 34 -28 9 -18 14 -38 12 -44 -3 -6 2 -18 11 -25 8 -7 15 -21 15 -31 0 -11
14 -25 35 -35 19 -9 35 -20 35 -24 0 -9 80 -34 99 -31 8 1 17 -3 22 -10 5 -9
26 -13 59 -11 41 2 52 -1 56 -15 3 -10 10 -27 16 -39 5 -11 8 -24 7 -30 -4
-24 2 -35 19 -30 24 8 82 -29 82 -53 0 -23 28 -35 46 -20 11 9 14 8 14 -5 0
-9 11 -21 24 -26 14 -5 30 -19 36 -30 15 -29 54 -23 58 8 2 13 10 26 18 29 8
3 14 11 14 18 0 7 5 15 12 17 22 8 58 -4 58 -18 0 -19 39 -18 61 2 10 9 30 16
44 16 16 0 43 17 75 46 40 36 57 46 87 46 29 1 39 6 52 30 9 16 21 28 26 27
46 -8 67 -21 112 -69 49 -52 59 -82 27 -82 -8 0 -14 -6 -14 -14 0 -25 12 -46
25 -46 7 0 18 -7 25 -15 7 -8 22 -15 34 -15 26 0 50 -26 60 -64 4 -15 20 -35
36 -44 27 -16 29 -20 25 -70 -2 -28 -6 -56 -10 -61 -3 -5 2 -16 10 -24 8 -9
15 -22 15 -31 0 -8 9 -21 19 -28 11 -8 23 -26 26 -41 9 -34 29 -50 66 -51 33
-1 58 17 39 29 -19 12 -10 25 18 25 21 0 32 7 40 25 12 26 26 32 37 15 11 -18
34 -10 47 17 15 32 47 42 60 19 15 -26 55 -19 80 14 14 20 31 30 47 30 33 0
56 14 47 29 -12 19 12 47 53 63 37 15 41 15 45 0 13 -48 16 -91 6 -97 -15 -9
-13 -85 3 -86 6 -1 23 0 36 1 16 1 21 -2 16 -11 -5 -7 -4 -10 3 -6 19 12 39
-3 57 -44 14 -30 23 -39 39 -37 24 3 34 42 16 63 -6 8 -8 20 -4 27 4 7 4 10
-1 6 -6 -6 -55 53 -55 67 0 2 10 9 21 16 15 8 19 8 15 0 -4 -6 -4 -11 1 -11 4
0 25 -26 47 -58 30 -45 47 -60 77 -70 55 -17 68 -15 80 12 12 26 9 32 -60 141
-28 43 -36 64 -29 72 6 7 14 13 18 13 14 0 71 -100 64 -112 -4 -7 -4 -10 0 -7
4 4 20 -6 36 -22 30 -31 59 -36 89 -17 18 11 18 13 -7 45 -15 18 -26 35 -24
38 2 3 -8 20 -22 36 -15 17 -26 35 -26 40 0 5 -11 9 -24 9 -29 0 -38 10 -26
30 5 9 0 24 -15 44 -21 27 -22 34 -10 55 l13 25 15 -30 c28 -55 40 -58 86 -27
22 15 40 34 41 41 0 7 5 10 12 6 7 -4 8 -3 4 5 -4 6 -11 9 -15 7 -13 -8 -39
48 -32 68 6 17 11 15 43 -19 35 -37 35 -37 62 -20 20 14 30 15 39 6 8 -8 8
-11 -3 -11 -7 0 -10 -3 -7 -7 4 -3 -2 -16 -14 -29 l-20 -22 23 -24 c20 -21 29
-32 56 -74 8 -13 75 -37 67 -24 -9 15 11 20 30 7 16 -13 16 -14 0 -30 -27 -27
-83 -22 -111 10 -12 15 -21 31 -18 35 3 5 2 7 -3 6 -4 -2 -9 0 -11 4 -8 21
-62 64 -80 64 -11 0 -19 -3 -16 -7 5 -8 -51 -51 -58 -44 -2 2 -4 -6 -4 -20 0
-13 3 -22 8 -19 4 3 14 -8 22 -23 9 -15 27 -41 40 -57 21 -25 28 -28 59 -22
46 9 59 -17 17 -34 -16 -7 -32 -20 -35 -30 -7 -21 8 -61 29 -79 16 -13 13 -64
-6 -88 -6 -7 -5 -19 1 -32 6 -11 11 -31 11 -45 0 -23 10 -52 43 -124 7 -15 17
-22 29 -19 11 3 24 -5 35 -23 19 -29 106 -100 123 -100 6 0 10 -6 10 -14 0
-24 24 -24 42 0 10 12 18 26 18 32 0 17 85 35 108 23 32 -17 42 -13 42 14 0
14 7 28 15 31 10 4 15 21 15 54 0 27 4 51 9 54 5 3 32 7 60 9 56 5 81 19 81
48 0 12 10 21 27 25 33 9 45 20 67 62 18 35 23 37 59 23 35 -14 57 -39 57 -67
0 -22 4 -24 45 -24 41 0 45 2 45 25 0 35 26 72 55 79 16 4 30 19 39 41 8 19
19 35 25 35 14 0 78 91 86 122 4 15 13 32 20 38 23 19 4 56 -27 51 -11 -1 -48
37 -48 49 0 6 -4 10 -9 10 -9 0 -28 29 -50 77 -6 12 -22 29 -36 39 -15 10 -25
26 -25 40 0 13 -5 24 -10 24 -6 0 -25 20 -42 45 -18 25 -40 45 -50 45 -10 0
-18 7 -18 15 0 8 -9 15 -20 15 -21 0 -45 34 -35 50 3 6 17 10 31 10 32 0 54
42 34 65 -22 27 -13 103 18 143 25 33 29 43 37 89 2 12 6 26 9 31 3 5 -3 21
-14 34 -11 14 -16 28 -13 32 3 3 -1 6 -11 6 -9 0 -15 4 -12 9 9 14 -43 21 -93
13 -31 -5 -48 -14 -60 -32 -9 -13 -11 -21 -5 -17 6 3 22 -5 34 -19 21 -21 22
-26 9 -39 -11 -11 -17 -11 -29 -2 -29 22 -50 61 -50 94 0 40 -22 55 -62 41
-16 -6 -62 -8 -102 -6 -66 3 -79 7 -115 36 -22 17 -48 32 -58 32 -25 0 -53 34
-53 64 0 13 -7 29 -14 36 -24 19 -56 94 -56 131 0 19 7 47 15 63 19 37 19 48
-5 93 -14 28 -18 49 -13 81 6 45 17 51 49 27 26 -19 89 -19 120 1 23 16 27 16
59 -2 36 -19 62 -11 32 10 -11 8 -17 26 -17 49 0 40 -12 53 -36 39 -25 -14
-54 16 -54 54 0 22 8 37 25 50 31 23 31 27 0 44 -14 7 -35 29 -48 49 -12 19
-27 42 -32 50 -64 98 -66 101 -55 122 12 22 9 29 -39 82 l-26 29 26 22 c14 12
29 35 33 50 4 15 14 29 24 32 9 3 33 13 52 23 33 17 36 17 53 1 24 -23 100
-44 131 -36 17 4 26 15 31 36 5 25 12 30 35 30 16 0 30 -5 32 -11 4 -12 72
-28 143 -34 79 -7 127 -18 132 -31 6 -16 39 -19 48 -4 4 6 2 17 -5 25 -15 18
-16 71 -1 89 7 8 33 25 57 36 l44 22 0 55 c0 76 13 97 55 89 28 -6 36 -2 54
20 17 21 20 35 14 68 -3 22 -12 50 -19 61 -9 12 -14 48 -14 97 0 63 -3 78 -15
78 -9 0 -15 9 -15 23 0 13 -9 34 -20 47 -25 29 -19 37 33 51 23 6 45 16 49 22
5 8 16 8 41 -1 18 -7 45 -12 60 -12 14 0 38 -5 54 -11 43 -17 134 -12 150 9
20 26 12 75 -15 88 -41 20 -47 32 -29 52 12 13 15 28 11 50 -5 24 -2 34 17 49
40 32 66 59 70 72 6 18 100 27 127 12 24 -13 90 -1 160 30 l42 19 0 108 c0
103 1 109 29 142 31 38 61 92 61 110 0 7 14 41 30 77 29 61 30 71 30 196 0
131 0 133 29 167 19 24 30 50 33 85 5 44 20 89 47 135 26 46 41 96 41 141 0
36 6 58 21 77 19 24 20 35 14 102 -10 115 -15 137 -41 165 -32 35 -54 33 -54
-5 0 -41 -39 -80 -80 -80 -23 0 -30 4 -30 20 0 14 7 20 23 20 31 0 47 18 47
51 0 18 6 29 18 31 11 2 -3 13 -40 31 -76 36 -88 35 -88 -8 0 -29 -4 -35 -21
-35 -20 0 -21 4 -17 45 6 50 -28 137 -61 155 -11 5 -27 33 -37 62 -24 74 -65
106 -105 83 -13 -8 -34 -19 -46 -24 -12 -6 -29 -21 -38 -35 -16 -23 -20 -24
-88 -19 -52 4 -92 14 -142 38 -143 66 -166 75 -200 75 -18 0 -40 7 -49 15 -8
8 -19 15 -25 15 -6 0 -11 7 -11 15 0 8 -6 15 -12 16 -7 0 -32 2 -55 3 -62 4
-93 28 -93 74 0 20 -9 51 -19 68 l-19 31 -83 -4 c-46 -3 -96 -9 -111 -15 -27
-10 -28 -13 -28 -84 0 -73 -1 -75 -42 -120 -37 -40 -46 -45 -73 -39 -16 3 -56
10 -87 15 -46 7 -64 15 -87 41 l-30 32 -58 -12 c-32 -7 -78 -22 -103 -33 -41
-19 -46 -19 -75 -5 -46 23 -72 26 -92 11 -10 -7 -37 -14 -60 -14 -36 0 -44 -4
-60 -30 -17 -30 -24 -34 -55 -31 -9 1 -21 -7 -27 -18 -6 -10 -27 -29 -46 -41
-32 -20 -38 -20 -48 -7 -7 8 -33 17 -58 20 -37 5 -50 3 -63 -12 -9 -10 -16
-22 -16 -28 0 -18 -69 -73 -91 -73 -11 0 -28 -4 -38 -10 -14 -7 -24 -4 -40 11
-28 26 -44 16 -29 -17 9 -19 9 -30 0 -45 -7 -10 -12 -25 -12 -33 0 -7 -6 -19
-14 -25 -11 -9 -20 -7 -41 13 -32 30 -40 27 -49 -15 -5 -25 -10 -30 -26 -26
-29 7 -43 -24 -34 -78 5 -40 4 -45 -12 -45 -11 0 -28 7 -38 15 -11 8 -34 15
-50 15 -17 0 -40 7 -50 15 -11 8 -32 15 -47 15 -14 0 -32 7 -39 15 -21 26 -30
17 -24 -24 3 -21 1 -47 -4 -58 -9 -15 -6 -25 14 -48 13 -16 24 -41 24 -57 0
-28 0 -28 -30 -13 -16 9 -30 20 -30 25 0 6 -7 10 -15 10 -8 0 -15 -7 -15 -15
0 -8 -6 -15 -14 -15 -7 0 -19 7 -26 15 -7 8 -18 15 -25 15 -8 0 -27 8 -43 17
-28 16 -31 16 -46 0 -24 -24 -38 -21 -68 13 -28 32 -43 26 -33 -13 6 -22 3
-25 -31 -30 -20 -3 -44 -2 -53 2 -19 10 -117 6 -221 -8 -63 -9 -84 -9 -128 5
-30 9 -56 23 -59 30 -3 8 -11 14 -18 14 -18 0 -45 34 -45 57 0 40 73 46 105 9
14 -17 35 -26 68 -30 42 -5 47 -3 47 14 0 10 -10 26 -21 34 -16 11 -20 22 -17
41 4 18 -1 32 -15 45 -15 15 -18 27 -14 54 5 31 2 37 -29 58 -19 13 -37 34
-41 48 -14 54 -61 67 -89 25 -16 -24 -18 -25 -35 -9 -11 10 -34 17 -54 16 -29
-1 -38 3 -47 23 -7 15 -20 25 -33 25 -26 0 -45 18 -45 42 0 25 -29 55 -60 63
-18 4 -34 0 -52 -14 -31 -25 -93 -28 -145 -6 -19 8 -42 15 -51 15 -9 0 -25 9
-36 19 -23 21 -82 58 -107 67 -18 6 -49 55 -49 78 0 9 -4 16 -8 16 -5 0 -23
21 -41 47 l-33 47 25 20 c15 12 27 34 29 51 3 26 7 30 31 30 25 -1 28 2 25 29
-2 22 -12 34 -38 49 -58 32 -80 57 -80 93 0 26 -7 39 -31 56 -17 13 -35 33
-40 46 -10 25 -34 29 -55 7 -23 -22 -48 -18 -78 12 -15 14 -35 27 -45 28 -11
1 -40 23 -66 49 -38 39 -46 54 -42 75 4 19 -2 34 -23 56 -15 16 -44 47 -63 67
l-34 37 -43 -15 c-54 -19 -91 -11 -118 25 -11 15 -40 37 -64 48 -32 16 -48 31
-61 62 -10 23 -23 41 -28 41 -6 0 -21 11 -34 24 -19 19 -40 27 -87 32 -62 6
-138 31 -138 45 0 4 -12 10 -27 14 -15 3 -33 15 -41 26 -7 10 -19 19 -26 19
-20 0 -80 32 -90 48 -4 8 -17 21 -28 31 -19 16 -58 90 -58 110 0 6 -4 11 -8
11 -5 0 -26 33 -47 73 -42 81 -62 107 -82 107 -7 0 -13 4 -13 10 0 5 -11 12
-25 16 -28 7 -77 31 -117 58 -23 15 -28 28 -34 77 -6 58 -11 63 -46 60 -22 -3
-24 36 -3 63 8 11 15 33 15 49 0 28 -2 29 -34 23 -24 -5 -39 -2 -50 9 -15 16
-18 30 -20 105 l-1 34 -58 1 c-36 0 -63 -5 -69 -12 -6 -7 -18 -13 -27 -13 -20
0 -60 -42 -81 -83 -20 -41 -110 -88 -110 -57 0 5 -20 19 -45 31 l-44 21 -26
-20 c-14 -12 -34 -18 -45 -15 -12 3 -20 0 -20 -6 0 -7 -11 -24 -24 -38 l-25
-27 -20 25 c-11 13 -20 30 -21 37 0 6 -7 12 -15 12 -8 0 -15 9 -15 19 0 10 -7
21 -15 25 -9 3 -15 19 -15 41 0 30 -3 35 -23 35 -13 0 -28 5 -35 12 -9 9 -17
7 -34 -10 -22 -20 -24 -20 -45 -4 -15 11 -23 30 -25 57 -2 32 -7 41 -25 43
-13 2 -26 -4 -32 -16z m-631 -3739 c8 -17 23 -34 32 -36 10 -3 23 -17 29 -31
11 -23 10 -31 -7 -53 -29 -38 -70 -50 -94 -28 -11 10 -22 27 -26 39 -4 11 -17
31 -30 43 -31 29 -30 38 6 74 38 39 70 36 90 -8z m-108 -115 c52 -64 55 -82
19 -119 -30 -30 -66 -36 -66 -11 0 6 2 11 5 10 14 -5 50 25 50 42 0 25 -6 25
-37 0 -32 -25 -44 -25 -77 1 -50 39 -22 119 43 119 22 0 37 -10 63 -42z m-368
-349 c33 -39 33 -72 -1 -98 -31 -25 -58 -20 -90 18 -27 31 -29 68 -6 93 25 28
67 23 97 -13z m-130 -76 c56 -68 68 -93 42 -93 -8 0 -16 -7 -20 -15 -8 -22
-47 -35 -69 -23 -20 10 -57 66 -57 86 0 7 12 24 26 39 23 23 24 27 10 42 -15
16 -12 31 5 31 4 0 33 -30 63 -67z m5553 -934 c3 -11 16 -22 29 -25 46 -12 57
-64 22 -101 -38 -40 -108 -22 -108 28 0 10 -7 19 -15 19 -8 0 -22 11 -31 25
-15 23 -15 27 0 51 31 47 91 49 103 3z m-90 -126 c23 -26 43 -57 43 -69 0 -29
-30 -62 -59 -66 -35 -4 -36 16 -1 29 19 7 30 18 30 30 0 32 -12 34 -36 8 -29
-32 -54 -32 -88 0 -31 29 -34 67 -6 95 34 34 68 26 117 -27z m-358 -348 c36
-41 36 -43 15 -73 -37 -53 -76 -49 -113 12 -26 41 -26 51 -1 76 30 30 63 25
99 -15z m-131 -69 c49 -65 66 -102 40 -94 -6 2 -22 -7 -35 -20 -30 -30 -49
-26 -86 20 -35 43 -32 80 9 101 23 12 24 15 10 26 -19 16 -21 44 -3 39 6 -3
36 -35 65 -72z m-3808 -401 c-5 -39 -6 -73 -2 -76 7 -5 38 -15 131 -39 38 -10
41 -13 26 -24 -19 -13 -110 -5 -145 14 -14 8 -19 5 -22 -15 -3 -14 1 -34 9
-45 8 -11 11 -20 7 -20 -4 0 1 -7 12 -15 16 -13 17 -16 4 -25 -21 -14 -30 -12
-37 8 -4 9 -17 28 -29 41 -13 14 -21 28 -18 33 3 5 2 7 -3 6 -4 -2 -10 2 -12
7 -2 6 -12 16 -23 24 -11 7 -17 19 -14 27 3 8 2 13 -2 11 -4 -1 -8 2 -9 7 -1
5 -6 12 -12 15 -21 13 -60 74 -54 84 3 6 1 7 -4 4 -12 -7 -25 17 -16 27 4 3
15 6 25 6 18 0 22 -9 19 -40 -2 -12 0 -12 7 -2 7 10 19 -2 48 -46 22 -34 44
-63 50 -66 8 -3 16 23 25 75 9 58 16 78 26 75 7 -3 12 -2 12 2 -2 13 1 25 5
21 3 -2 1 -36 -4 -74z m-175 -115 c7 -12 -19 -53 -28 -43 -4 3 -21 7 -38 8
-18 2 -27 0 -20 -4 8 -5 5 -13 -9 -26 -27 -24 -25 -57 5 -85 13 -12 22 -26 20
-30 -3 -5 2 -11 11 -14 8 -3 13 -10 10 -15 -3 -5 10 -11 30 -13 44 -5 84 22
84 57 0 14 7 25 20 28 46 12 13 -85 -40 -116 -15 -9 -30 -14 -34 -10 -3 3 -6
0 -6 -7 0 -10 -3 -11 -11 -3 -6 6 -17 9 -24 7 -13 -5 -92 85 -87 99 1 5 -2 6
-8 2 -5 -3 -17 10 -27 30 -13 27 -14 42 -7 63 6 15 16 26 22 25 7 -2 9 4 5 14
-5 13 -2 15 11 10 9 -4 15 -3 11 2 -3 6 3 14 12 20 23 13 90 14 98 1z m-516
-296 l33 -36 24 23 c23 22 25 22 41 6 14 -14 15 -17 3 -18 -8 -1 -19 -1 -23 0
-5 1 -5 -4 -1 -10 4 -7 0 -18 -10 -24 -15 -11 -15 -13 -1 -19 10 -3 13 -11 9
-18 -4 -7 -3 -10 1 -5 11 9 86 -63 79 -75 -3 -5 -2 -8 3 -7 19 3 34 -2 29 -10
-7 -11 34 -2 50 11 7 5 16 2 24 -7 11 -13 11 -19 -3 -32 -25 -25 -107 -17 -91
9 4 7 2 8 -4 4 -14 -9 -74 43 -65 57 3 6 1 7 -5 3 -5 -3 -19 6 -30 21 -10 14
-28 27 -38 28 -30 2 -43 13 -37 34 3 12 -3 26 -16 37 -20 18 -30 64 -13 64 5
0 23 -16 41 -36z m6736 -22 c13 1 22 5 19 9 -2 4 2 12 10 18 10 9 17 7 27 -5
11 -14 10 -19 -9 -34 -12 -10 -22 -23 -22 -28 0 -14 100 -103 129 -113 15 -6
28 -6 36 1 20 16 42 -15 25 -35 -7 -9 -19 -14 -27 -11 -8 3 -11 1 -8 -4 9 -15
-57 -4 -70 11 -6 8 -37 39 -68 69 -47 45 -59 52 -67 40 -9 -13 -11 -13 -20 0
-14 21 -12 43 3 34 6 -4 -2 8 -20 27 -24 25 -31 40 -27 56 6 22 7 22 36 -7 18
-19 38 -29 53 -28z m-6780 -112 c-3 -4 1 -11 7 -13 18 -7 -12 -29 -30 -22 -8
3 -10 0 -6 -7 5 -8 1 -9 -12 -4 -10 4 -15 4 -11 0 4 -4 3 -12 -2 -18 -17 -22
-20 -56 -4 -56 8 0 12 -4 9 -9 -7 -11 28 -4 71 15 17 8 45 14 62 14 35 0 76
-34 67 -56 -3 -9 -1 -12 4 -9 16 10 12 -38 -6 -63 -8 -12 -20 -19 -26 -16 -7
4 -8 2 -4 -4 9 -14 -39 -46 -55 -36 -8 4 -9 3 -5 -4 4 -7 3 -12 -2 -12 -5 0
-12 9 -15 20 -3 13 1 21 14 25 25 8 69 62 69 86 0 12 -9 21 -27 25 -16 3 -39
10 -53 15 -22 8 -23 8 -8 -4 15 -12 15 -14 -1 -24 -9 -6 -31 -14 -49 -18 -27
-6 -36 -2 -62 23 -16 17 -30 39 -30 50 0 28 11 53 20 47 4 -3 7 3 6 12 -1 18
61 66 75 57 5 -3 7 -9 4 -14z m6709 -32 c-3 -5 -11 -8 -18 -8 -19 0 -53 -41
-58 -71 -8 -43 22 -54 67 -23 20 13 41 21 47 18 6 -4 8 -2 5 3 -4 6 0 14 9 17
23 9 36 7 29 -4 -3 -5 0 -7 8 -4 23 9 66 -55 60 -88 -3 -16 -10 -28 -15 -28
-5 0 -7 -4 -4 -9 6 -10 -33 -48 -54 -53 -8 -2 -20 -10 -27 -18 -8 -9 -12 -11
-13 -3 0 6 -3 18 -6 27 -4 10 5 20 26 31 39 20 64 72 45 92 -19 18 -28 17 -85
-13 -40 -21 -55 -24 -77 -17 -36 12 -55 49 -49 92 6 37 40 76 58 65 7 -4 8 -3
4 4 -4 7 -1 12 8 12 9 0 16 5 16 12 0 6 6 3 14 -7 8 -11 12 -23 10 -27z m-238
-300 l45 -41 -28 -30 c-33 -35 -90 -77 -78 -57 5 8 4 11 -3 6 -11 -6 -9 -36 3
-56 3 -6 21 -10 40 -10 36 0 65 28 65 62 0 13 7 17 26 16 21 -2 24 -6 19 -28
-4 -14 -11 -29 -17 -35 -8 -7 -8 -5 -3 5 5 9 4 12 -1 7 -5 -5 -10 -13 -10 -18
-1 -5 -2 -13 -3 -19 -2 -14 -56 -40 -84 -40 -28 0 -80 37 -71 51 3 5 1 8 -4 7
-19 -6 -72 74 -72 107 0 36 35 89 52 79 7 -4 8 -2 4 4 -8 13 21 31 52 32 13 0
42 -18 68 -42z"/>
</g>
</svg>
