<?xml version="1.0" standalone="no"?>
<!DOCTYPE svg PUBLIC "-//W3C//DTD SVG 20010904//EN"
 "http://www.w3.org/TR/2001/REC-SVG-20010904/DTD/svg10.dtd">
<svg version="1.0" xmlns="http://www.w3.org/2000/svg"
 width="847.000000pt" height="1181.000000pt" viewBox="0 0 847.000000 1181.000000"
 preserveAspectRatio="xMidYMid meet">
<metadata>
Created by potrace 1.16, written by Peter Selinger 2001-2019
</metadata>
<g transform="translate(0.000000,1181.000000) scale(0.100000,-0.100000)"
fill="#000000" stroke="none">
<path d="M6326 11770 c-12 -13 -30 -19 -50 -17 -27 2 -31 -1 -29 -20 2 -13 -2
-23 -8 -23 -15 0 -39 -26 -39 -43 0 -8 -11 -22 -24 -30 -13 -9 -29 -31 -35
-49 -7 -22 -26 -42 -56 -61 -41 -26 -45 -32 -45 -68 0 -34 -3 -39 -23 -39 -13
0 -32 -9 -42 -20 -10 -11 -24 -20 -30 -20 -7 0 -15 -6 -18 -14 -8 -21 -34 -14
-63 17 -19 21 -35 27 -67 28 -23 0 -51 4 -62 8 -29 12 -45 2 -45 -28 0 -15 -9
-34 -20 -44 -17 -14 -19 -24 -14 -60 4 -23 13 -49 20 -58 8 -8 14 -37 14 -62
0 -38 -3 -47 -17 -48 -10 -1 -22 -2 -28 -4 -5 -1 -18 -3 -27 -3 -12 -2 -19
-14 -23 -39 -8 -49 -20 -72 -56 -111 -25 -26 -37 -32 -73 -32 -30 0 -46 -5
-50 -15 -3 -10 -16 -14 -37 -13 l-32 3 2 -56 c1 -32 -2 -60 -8 -64 -6 -3 -11
-20 -11 -36 0 -25 -3 -29 -19 -24 -10 3 -24 -1 -31 -10 -7 -8 -21 -15 -32 -15
-10 0 -17 -4 -14 -9 12 -19 -7 -69 -30 -82 -13 -7 -24 -18 -24 -26 0 -7 -7
-13 -15 -13 -8 0 -15 -7 -15 -16 0 -9 -7 -14 -17 -12 -12 2 -25 24 -37 63 -23
70 -35 85 -70 85 -25 0 -31 -8 -27 -37 1 -7 -7 -13 -19 -13 -14 0 -20 6 -20
24 0 13 -7 29 -15 36 -19 16 -64 5 -72 -18 -9 -22 -23 -36 -45 -45 -10 -3 -18
-13 -18 -21 0 -7 -7 -16 -15 -20 -8 -3 -15 -14 -15 -24 0 -10 -14 -26 -30 -36
-17 -9 -46 -34 -66 -54 -35 -36 -38 -37 -100 -34 -52 2 -64 0 -64 -13 0 -8 4
-15 9 -15 5 0 12 -13 16 -30 4 -16 11 -32 16 -35 5 -4 9 -25 9 -48 0 -34 -4
-44 -22 -52 -17 -7 -24 -20 -26 -45 -2 -30 4 -41 38 -74 31 -30 40 -46 40 -72
0 -19 -4 -34 -10 -34 -5 0 -10 -7 -10 -15 0 -8 -4 -15 -9 -15 -5 0 -16 -3 -24
-6 -8 -3 -23 3 -33 14 -13 14 -33 20 -62 20 -24 1 -49 6 -56 12 -23 19 -120
43 -124 31 -2 -6 -15 -11 -28 -11 -14 0 -27 -7 -30 -15 -8 -21 -22 -19 -56 10
-23 19 -34 23 -48 15 -27 -14 -57 -12 -84 5 -21 14 -25 14 -39 0 -21 -20 -95
-20 -119 2 -17 15 -18 15 -18 0 0 -21 -6 -21 -61 -2 -49 18 -60 31 -53 60 9
35 -37 75 -85 75 -21 0 -41 -5 -43 -11 -3 -8 -26 -7 -83 2 -65 10 -85 18 -107
41 -15 15 -31 28 -36 28 -4 0 -24 14 -42 30 -38 34 -46 36 -66 15 -9 -8 -12
-15 -7 -15 5 0 14 -13 20 -30 10 -26 9 -30 -8 -35 -12 -4 -19 -16 -19 -31 0
-19 -8 -28 -30 -35 -25 -9 -30 -16 -30 -44 0 -18 5 -35 11 -37 6 -2 14 -22 18
-43 5 -33 11 -41 31 -43 14 -2 31 -9 38 -14 27 -23 3 -159 -30 -170 -9 -3 -12
-22 -11 -57 1 -41 6 -57 26 -75 34 -32 37 -46 14 -89 -13 -25 -18 -50 -14 -75
2 -21 -2 -49 -9 -64 -9 -17 -10 -29 -4 -33 6 -3 10 -17 10 -31 0 -18 -5 -24
-23 -24 -23 0 -39 12 -75 57 -13 15 -34 23 -75 28 -60 8 -64 6 -45 -25 10 -16
7 -23 -26 -54 -39 -38 -69 -46 -83 -22 -11 17 -47 36 -71 36 -10 0 -27 -9 -37
-20 -23 -26 -38 -25 -71 3 l-27 24 -24 -21 c-30 -26 -55 -34 -110 -35 -31 -1
-43 -5 -43 -16 0 -8 5 -15 10 -15 6 0 10 -9 10 -20 0 -11 -4 -20 -9 -20 -6 0
-33 -22 -61 -49 -37 -35 -61 -50 -90 -55 -32 -5 -40 -3 -40 9 0 11 -12 15 -48
15 -41 0 -51 4 -62 25 -7 13 -26 29 -41 34 -31 11 -38 28 -14 33 10 2 12 7 5
18 -7 11 -29 16 -77 17 -37 1 -83 5 -101 8 -28 6 -32 5 -32 -14 0 -11 -10 -26
-22 -32 -31 -16 -68 -56 -70 -77 -1 -9 -2 -51 -3 -92 l0 -75 -80 -5 c-53 -4
-95 -13 -126 -28 -25 -12 -60 -22 -78 -22 -49 0 -148 -56 -160 -90 -7 -23 -6
-32 9 -48 19 -20 11 -42 -16 -42 -7 0 -15 -8 -19 -18 -5 -19 -44 -42 -69 -42
-8 0 -16 -8 -19 -19 -6 -24 -68 -37 -96 -19 -11 7 -23 25 -26 40 -4 15 -11 28
-16 28 -5 0 -9 6 -9 14 0 21 -45 46 -85 46 -28 0 -35 -4 -35 -20 0 -15 -8 -22
-29 -26 -16 -3 -46 -21 -67 -40 -22 -18 -42 -34 -46 -34 -5 0 -8 -15 -8 -34 0
-41 -18 -50 -51 -25 -31 24 -41 24 -59 0 -12 -18 -16 -18 -41 -5 -42 21 -59
18 -59 -11 0 -20 5 -25 26 -25 30 0 51 -18 60 -54 4 -18 13 -26 29 -26 16 0
25 -7 29 -25 4 -14 13 -25 22 -25 11 0 14 -8 12 -27 -2 -21 -11 -31 -33 -38
-29 -10 -30 -13 -29 -65 0 -30 1 -63 2 -72 3 -23 38 -24 50 -2 9 16 13 15 50
-2 22 -10 43 -26 45 -35 5 -20 62 -47 122 -58 25 -5 48 -11 51 -13 6 -7 -22
-59 -37 -69 -10 -6 -10 -13 -1 -34 16 -36 15 -80 -3 -95 -8 -7 -15 -28 -15
-47 l0 -34 -69 7 c-71 7 -87 0 -75 -30 4 -11 13 -14 24 -11 10 3 30 3 44 -1
22 -5 26 -12 26 -43 0 -20 4 -42 9 -50 5 -8 4 -22 -3 -35 -24 -45 -41 -66 -52
-66 -21 0 -43 -46 -46 -96 -3 -46 -5 -49 -32 -52 -25 -3 -27 -7 -22 -30 3 -16
-4 -53 -16 -89 l-22 -63 -85 -2 c-47 -2 -113 -3 -146 -3 -33 0 -70 -6 -82 -12
-12 -7 -31 -13 -42 -13 -26 0 -43 -32 -35 -65 5 -20 12 -25 39 -25 17 0 47 -7
64 -16 23 -11 46 -15 76 -11 39 6 42 5 38 -13 -4 -14 0 -20 12 -20 12 0 15 -5
10 -20 -3 -10 -1 -37 5 -60 9 -32 19 -44 45 -57 34 -16 48 -43 22 -43 -19 0
-107 -85 -107 -103 0 -9 9 -21 20 -27 24 -13 26 -38 5 -46 -8 -4 -15 -17 -15
-30 0 -18 7 -25 32 -32 35 -9 40 -16 62 -89 22 -72 21 -93 -5 -93 -11 0 -35
-7 -52 -16 -18 -9 -38 -20 -46 -24 -22 -10 -39 -42 -24 -47 19 -7 48 -37 61
-63 6 -14 17 -33 24 -42 10 -14 10 -24 -4 -50 -24 -49 -26 -61 -16 -88 6 -14
11 -51 12 -84 2 -52 0 -59 -21 -69 -14 -6 -23 -19 -23 -32 0 -27 -18 -44 -57
-54 -18 -5 -29 -15 -31 -28 -7 -48 -62 -53 -62 -7 0 32 -22 40 -73 24 -23 -7
-53 -14 -67 -15 -14 -1 -28 -3 -32 -4 -5 0 -8 -13 -8 -28 0 -35 53 -82 102
-90 44 -7 49 -11 41 -41 -4 -18 -13 -22 -47 -22 -45 0 -78 -15 -61 -27 6 -5
15 -17 21 -28 6 -11 27 -24 48 -28 20 -5 36 -13 36 -18 0 -5 4 -9 10 -9 5 0 7
13 4 29 -5 24 -1 33 25 52 29 21 30 24 15 40 -16 18 -11 44 7 33 13 -8 109
-135 109 -144 0 -4 -9 -10 -20 -13 -24 -6 -25 -25 -5 -63 8 -16 15 -51 15 -77
0 -26 7 -58 16 -72 8 -13 17 -52 19 -86 3 -34 7 -64 10 -67 9 -9 40 27 40 46
0 9 6 17 13 16 6 -1 21 -2 32 -2 13 -2 22 -13 30 -39 5 -21 19 -51 30 -68 24
-36 26 -53 4 -31 -19 19 -48 21 -62 3 -9 -10 -4 -22 19 -50 24 -30 31 -47 31
-85 1 -26 7 -56 14 -67 8 -11 14 -35 14 -53 0 -32 21 -67 33 -56 14 14 45 -10
61 -47 17 -39 17 -41 0 -53 -17 -13 -17 -16 0 -59 9 -25 20 -77 23 -116 3 -39
10 -71 14 -71 5 0 9 -15 9 -33 0 -22 8 -41 21 -53 12 -11 18 -26 15 -37 -7
-27 3 -47 25 -47 34 0 78 -57 134 -174 58 -121 69 -177 38 -194 -20 -12 -10
-42 17 -49 13 -4 20 -15 22 -42 l3 -36 22 22 c30 30 43 29 43 -2 0 -30 25 -72
57 -98 29 -23 29 -31 0 -44 -17 -8 -32 -7 -55 2 -28 12 -32 12 -37 -6 -10 -30
6 -182 21 -206 8 -12 14 -29 14 -38 0 -10 10 -15 29 -15 35 0 46 -13 26 -30
-8 -7 -15 -27 -15 -44 0 -41 -11 -58 -30 -46 -30 19 -40 11 -40 -30 0 -37 3
-41 29 -46 l29 -6 -2 -84 c-1 -70 2 -85 17 -96 20 -15 47 -111 47 -168 0 -27
7 -41 30 -60 22 -18 30 -33 30 -57 0 -17 5 -33 12 -35 16 -6 1 -27 -28 -38
-31 -12 -30 -30 5 -82 21 -31 27 -47 20 -60 -20 -37 -3 -98 28 -98 4 0 19 -12
32 -25 25 -27 45 -31 85 -15 19 7 33 5 56 -8 40 -23 39 -42 -4 -42 -19 0 -41
-7 -50 -15 -8 -8 -25 -15 -38 -15 -13 0 -31 -7 -42 -15 -17 -13 -17 -15 -3
-30 11 -10 14 -25 11 -44 -4 -19 0 -33 11 -45 15 -14 34 -16 159 -11 140 6
142 6 162 -18 12 -14 23 -44 26 -71 3 -26 8 -49 10 -52 3 -2 17 0 32 5 21 9
26 8 26 -4 0 -8 8 -15 19 -15 16 0 18 -6 13 -45 -5 -45 -4 -45 27 -45 17 0 31
5 31 10 0 18 68 11 104 -11 30 -17 36 -27 36 -54 0 -29 4 -34 27 -37 22 -2 30
-10 37 -35 10 -31 68 -75 81 -61 4 4 9 25 12 47 6 44 10 47 33 28 16 -13 56
-86 49 -90 -2 -1 -13 -7 -24 -13 -25 -14 -33 -54 -11 -54 9 0 16 -3 16 -7 0
-16 58 -73 73 -73 9 0 19 -4 22 -10 11 -18 25 -10 25 15 0 14 3 25 8 26 4 0
32 2 63 4 31 1 67 6 80 10 l24 8 -20 -24 c-11 -13 -26 -29 -32 -37 -7 -7 -13
-18 -13 -23 0 -5 -7 -9 -15 -9 -11 0 -15 -12 -15 -45 0 -41 4 -48 30 -63 17
-9 33 -28 36 -42 3 -14 10 -33 15 -43 7 -13 7 -23 -1 -32 -19 -23 -2 -36 36
-29 32 6 38 3 70 -32 18 -22 34 -47 34 -56 0 -10 6 -18 14 -18 7 0 21 -16 31
-36 28 -59 55 -84 90 -84 22 0 38 -7 51 -24 10 -14 29 -28 43 -31 23 -6 46
-23 91 -68 15 -16 27 -18 74 -12 39 5 56 4 56 -4 0 -6 6 -11 14 -11 13 0 46
-56 46 -80 0 -15 20 -34 44 -43 13 -5 17 -13 12 -32 -5 -21 -3 -25 16 -24 44
0 123 -14 137 -25 19 -15 178 -8 213 10 35 18 58 18 58 -1 0 -10 10 -15 28
-15 38 0 55 -18 36 -37 -8 -8 -14 -23 -14 -34 0 -10 -4 -19 -10 -19 -15 0 -12
-50 3 -51 6 -1 30 -3 51 -4 23 -1 44 -9 51 -19 7 -9 19 -16 27 -16 8 0 18 -3
21 -7 4 -3 17 -8 30 -9 106 -14 121 -22 133 -68 6 -27 15 -30 109 -31 l40 0 1
-50 c1 -27 2 -56 3 -62 1 -8 17 -13 45 -13 35 0 49 -6 76 -32 30 -28 33 -36
31 -81 l-1 -50 75 6 c54 4 79 2 88 -7 9 -9 53 -14 145 -15 73 -1 145 -6 159
-12 41 -15 63 -3 63 36 0 19 -4 36 -9 39 -4 3 -11 20 -15 38 -5 25 -2 36 13
48 28 22 81 126 78 152 -1 17 4 24 22 26 15 2 28 -3 33 -12 13 -24 58 -21 58
4 0 21 2 21 104 24 22 1 41 7 43 14 7 18 27 15 48 -8 11 -12 31 -20 52 -20 29
0 33 -3 33 -28 0 -37 52 -69 56 -34 5 39 19 62 38 62 12 0 31 7 43 15 24 17
66 21 106 10 22 -6 27 -4 27 10 0 31 25 46 66 37 31 -6 39 -13 46 -39 8 -31
10 -32 59 -31 44 0 51 3 60 25 9 23 12 24 64 18 42 -6 56 -4 58 6 2 8 10 30
16 49 7 19 16 47 19 62 4 15 17 38 29 51 11 14 20 33 20 43 -2 15 4 18 31 16
21 -2 32 1 32 10 0 16 66 38 114 38 23 0 41 -8 57 -25 27 -28 57 -32 65 -10 4
8 12 15 19 15 15 0 25 22 25 58 1 32 15 52 53 71 21 11 27 21 27 48 0 18 -4
33 -10 33 -5 0 -10 14 -10 30 0 17 5 30 10 30 15 0 12 36 -5 50 -8 7 -15 18
-15 25 0 18 -23 25 -80 25 -26 0 -61 7 -76 15 -16 8 -48 15 -71 15 -23 0 -44
4 -47 9 -3 4 -29 11 -58 13 -29 3 -54 11 -56 17 -2 6 -8 11 -14 11 -5 0 -17 7
-26 16 -15 15 -14 18 3 30 10 8 22 14 26 14 4 0 11 9 14 20 4 12 18 23 35 26
21 5 26 10 23 25 -4 12 0 19 9 19 8 0 20 11 26 24 6 14 29 35 51 48 21 12 47
35 56 50 9 16 20 28 26 28 5 0 9 14 9 30 0 20 -5 30 -15 30 -10 0 -15 10 -15
31 0 23 -4 30 -17 28 -23 -4 -63 10 -63 21 0 5 -13 24 -30 42 -17 18 -30 43
-30 58 1 26 21 60 36 60 17 0 44 40 44 65 0 14 3 25 8 25 4 0 23 14 42 31 34
31 36 31 111 25 74 -6 77 -5 95 20 10 14 25 32 32 39 6 8 12 22 12 32 0 15
-12 8 -51 -29 -51 -50 -81 -58 -87 -24 -3 14 0 17 13 13 9 -4 14 -3 11 2 -7
11 22 23 35 15 5 -3 8 0 7 8 -2 7 3 12 10 10 6 -1 11 1 10 5 0 5 2 16 6 26 5
9 5 28 2 41 -7 30 -32 28 -87 -9 -45 -29 -80 -32 -101 -7 -21 23 -32 62 -19
62 6 0 8 6 6 12 -6 18 53 81 67 72 6 -4 8 -3 4 4 -3 6 3 14 15 17 13 5 25 2
30 -6 10 -17 1 -32 -18 -25 -8 3 -11 1 -8 -4 3 -6 1 -10 -5 -10 -18 0 -49 -42
-50 -67 0 -35 35 -39 80 -8 46 32 95 36 115 9 15 -19 15 -19 28 1 20 33 14 48
-41 99 -40 38 -51 54 -46 70 3 14 2 17 -4 8 -6 -10 -18 -2 -46 32 -32 40 -34
46 -20 54 13 7 22 3 39 -17 12 -14 24 -33 27 -41 4 -11 15 -4 44 26 44 47 91
69 120 57 31 -12 97 -90 88 -104 -5 -8 -3 -9 6 -4 7 4 16 2 20 -5 5 -7 22 -13
39 -12 28 1 31 -2 31 -31 0 -49 13 -63 44 -49 20 9 28 9 38 -2 16 -17 47 -7
81 28 28 28 50 32 92 16 31 -12 91 -72 112 -113 13 -27 16 -28 81 -25 63 3 67
5 71 28 1 14 7 28 13 31 5 3 9 25 10 47 l0 42 48 0 c40 0 49 3 53 21 3 11 15
23 26 26 13 3 21 14 21 27 0 43 12 48 75 37 31 -6 61 -8 66 -5 5 3 9 21 9 39
0 28 6 37 30 50 31 16 33 21 30 67 -2 37 40 77 75 70 27 -5 32 7 14 39 -13 25
-2 79 16 79 18 0 75 73 75 96 0 11 -7 28 -15 38 -19 26 -19 72 0 80 8 3 15 13
15 22 0 14 -7 15 -41 10 -27 -4 -51 -1 -74 10 -32 15 -34 15 -54 -5 -12 -12
-26 -21 -32 -21 -5 0 -8 -4 -5 -9 7 -10 -54 -42 -66 -35 -18 12 -5 33 37 60
25 15 42 31 38 35 -5 4 -44 10 -88 13 -89 6 -115 24 -115 77 0 32 19 79 32 79
4 0 8 34 8 75 0 49 4 75 11 75 6 0 9 9 6 20 -3 11 -1 23 4 26 5 3 9 25 9 48
l0 43 -52 7 c-40 6 -55 4 -63 -7 -12 -17 -80 -16 -97 1 -17 17 -36 15 -47 -7
-6 -10 -18 -22 -28 -25 -35 -14 -59 58 -28 84 26 22 19 50 -13 50 -16 0 -37 7
-48 15 -11 8 -41 15 -70 15 -45 0 -52 3 -58 23 -9 34 -8 36 27 45 l32 8 -2
130 c-2 71 -3 135 -3 142 0 19 -76 16 -84 -4 -4 -11 -14 -14 -34 -9 -20 4 -33
1 -42 -10 -7 -8 -19 -15 -26 -15 -8 0 -14 -9 -14 -20 0 -33 -24 -22 -42 19
-23 49 -23 57 7 77 20 13 25 25 25 55 0 35 -3 39 -25 39 -15 0 -25 -6 -25 -14
0 -17 -11 -25 -41 -31 -27 -5 -59 11 -59 30 0 11 -12 15 -45 15 -42 0 -45 -2
-46 -27 -2 -35 -2 -35 6 -54 3 -9 -1 -23 -10 -32 -8 -9 -14 -22 -13 -29 2 -7
-8 -14 -22 -16 -36 -4 -70 -23 -70 -39 0 -7 -10 -12 -22 -11 -27 2 -78 -29
-78 -47 0 -19 -28 -26 -67 -19 -31 6 -38 3 -64 -27 -28 -31 -31 -33 -43 -16
-16 21 -39 22 -57 1 -9 -11 -26 -14 -58 -13 -39 3 -46 0 -43 -15 5 -26 -17
-46 -50 -46 -16 0 -36 -7 -45 -16 -19 -18 -52 -15 -66 7 -7 11 -5 23 8 43 30
46 24 89 -18 129 -35 33 -48 69 -28 82 5 3 7 21 4 40 -4 23 -2 35 6 35 15 0
14 27 -1 33 -10 4 -10 6 0 6 7 1 12 15 12 35 0 25 -6 38 -25 50 -17 11 -27 29
-31 56 -6 34 -10 40 -30 40 -18 0 -24 5 -24 23 1 30 33 67 59 67 12 0 21 6 21
15 0 11 -11 15 -40 15 -44 0 -45 2 -29 31 6 12 8 28 4 37 -5 13 -8 12 -21 -6
-18 -27 -36 -28 -57 -4 -22 24 -21 38 4 63 20 20 20 22 5 38 -16 15 -18 14
-36 -9 -19 -24 -20 -24 -20 -4 0 13 10 25 26 33 25 11 29 9 70 -36 24 -26 44
-51 44 -56 0 -13 44 4 53 20 5 8 22 13 43 11 20 -1 38 2 42 7 4 6 27 10 52 10
44 0 45 1 42 30 -4 39 -14 47 -54 51 -18 1 -41 5 -50 9 -15 6 -18 2 -18 -27 0
-21 -7 -42 -18 -51 -20 -19 -72 -23 -72 -7 0 6 6 10 13 8 7 -2 14 0 15 5 6 20
-1 27 -27 27 -37 0 -81 35 -81 65 0 16 -9 26 -30 35 -19 8 -30 20 -30 33 0 19
-4 20 -71 14 l-71 -6 -11 29 c-11 30 -27 40 -27 19 0 -6 -9 -9 -20 -6 -24 6
-78 -37 -60 -48 12 -7 14 -65 2 -65 -4 0 -12 -15 -17 -32 -9 -31 -13 -33 -62
-36 -44 -3 -52 0 -58 18 -5 17 -15 20 -68 20 -81 0 -111 -8 -94 -24 20 -20 54
-36 76 -36 12 0 21 -4 21 -9 0 -5 6 -16 13 -23 23 -24 36 -66 31 -100 -9 -53
14 -73 77 -71 29 1 55 6 58 11 3 5 16 14 29 21 20 11 27 8 57 -22 34 -34 45
-70 25 -82 -6 -4 -8 -10 -5 -15 3 -5 15 0 25 10 11 11 26 20 34 20 7 0 19 7
27 16 9 11 20 13 38 8 14 -4 37 -6 51 -5 26 1 90 -58 90 -83 0 -8 7 -16 15
-20 8 -3 15 -15 15 -27 0 -13 7 -30 16 -40 17 -19 12 -79 -7 -79 -5 0 -9 -19
-9 -41 l0 -42 -42 7 c-24 4 -75 10 -114 14 -39 4 -79 14 -89 22 -15 12 -18 12
-26 -3 -12 -21 -62 -22 -83 -1 -9 8 -20 12 -26 9 -13 -8 -13 -52 0 -57 13 -4
20 -112 9 -129 -8 -14 -172 -6 -231 11 -37 11 -38 13 -38 56 0 30 5 46 15 50
8 3 17 14 20 24 3 10 18 23 34 28 24 9 27 14 23 43 -3 23 0 36 13 45 16 12 15
15 -10 38 -16 15 -27 36 -27 51 0 20 -5 25 -27 25 -44 1 -98 63 -86 101 4 10
15 19 26 19 24 0 24 20 -1 47 -12 14 -27 19 -40 16 -18 -5 -20 -1 -20 42 0 43
-2 47 -21 42 -11 -3 -27 -3 -35 0 -19 7 -18 33 1 33 9 0 20 11 25 24 5 13 18
27 29 31 12 3 21 12 21 19 0 8 7 19 15 26 8 7 15 21 15 31 0 14 -7 19 -29 19
-32 0 -61 24 -39 33 10 4 10 6 1 6 -18 1 -16 38 2 45 18 7 20 26 3 27 -15 0
-78 92 -78 114 0 8 5 15 10 15 6 0 10 6 10 14 0 8 15 24 33 35 44 28 87 66 87
78 0 13 -57 23 -127 23 -51 0 -53 1 -53 28 0 33 -25 65 -65 85 -50 25 -72 58
-74 113 -4 160 -3 208 8 212 6 2 11 16 11 32 0 18 8 33 23 43 45 30 64 53 71
85 4 17 12 32 17 32 16 0 10 77 -7 91 -12 9 -15 24 -11 51 6 46 -9 58 -77 58
-51 0 -60 16 -30 58 9 13 13 30 10 39 -3 8 -2 32 4 53 8 28 17 40 35 44 26 7
65 -8 65 -23 0 -5 11 -12 25 -15 14 -4 30 -17 35 -30 7 -20 20 -26 79 -36 75
-13 137 -2 154 26 11 19 32 17 53 -3 19 -19 66 -21 106 -5 19 8 32 25 45 62
10 27 21 50 25 50 5 0 8 11 8 25 0 14 -5 25 -10 25 -19 0 -23 30 -7 48 24 27
31 77 13 95 -22 21 -20 28 11 55 38 33 25 53 -55 82 -20 8 -34 21 -38 37 -6
22 -8 23 -23 8 -32 -28 -41 -18 -41 41 0 48 -4 60 -25 80 -19 18 -25 33 -25
67 0 30 -7 51 -21 68 l-20 24 28 7 c51 15 60 28 65 103 5 70 32 135 55 135 6
0 21 12 32 26 19 24 19 28 5 56 -8 16 -31 39 -50 50 -35 20 -42 36 -24 54 5 5
13 50 16 99 4 49 12 95 18 103 25 29 32 39 42 57 6 11 35 32 65 48 44 22 62
26 97 21 30 -5 49 -2 67 10 31 20 54 20 83 0 16 -11 53 -17 125 -19 65 -2 113
-9 132 -19 17 -8 56 -16 89 -17 47 -2 61 1 72 16 18 24 17 60 -1 110 -19 53
-19 136 0 161 17 22 20 54 5 54 -6 0 -15 10 -20 23 -6 12 -15 30 -22 39 -11
15 -8 23 20 51 27 27 32 41 32 79 0 59 7 78 30 78 12 0 22 12 30 35 7 20 25
46 42 58 l30 22 -44 8 c-87 16 -194 29 -227 28 -19 -1 -44 5 -55 12 -12 8 -55
16 -97 20 -77 5 -119 21 -119 44 0 7 -6 13 -14 13 -16 0 -26 21 -26 58 0 29
34 52 76 52 12 0 33 9 48 21 23 18 27 18 32 5 8 -20 54 -21 54 -2 0 24 29 46
61 46 17 0 29 5 29 13 0 7 20 31 44 54 39 37 62 85 49 105 -2 5 -22 8 -44 8
-34 0 -39 3 -39 23 0 14 11 28 30 39 33 19 39 48 15 72 -10 10 -15 35 -15 75
l0 61 35 0 c37 0 59 25 35 40 -7 4 -15 31 -18 59 -2 28 -8 51 -13 51 -17 0 -9
27 16 50 16 15 25 34 25 53 0 19 9 38 24 52 23 22 25 28 20 97 -9 134 -11 140
-43 133 -23 -5 -29 -2 -34 14 -3 14 -13 21 -30 21 -30 0 -45 17 -53 59 -7 33
-4 38 59 98 15 14 27 37 27 50 0 19 5 23 28 23 31 0 58 23 64 55 2 10 22 33
45 50 29 21 42 38 43 55 1 31 7 40 50 70 41 29 70 57 70 68 1 23 18 34 38 23
16 -9 23 -8 29 2 15 25 58 47 90 47 75 0 16 45 -82 63 -43 8 -75 21 -90 35
-27 26 -57 28 -96 5 -27 -16 -29 -16 -51 4 -13 11 -39 24 -58 28 -19 4 -38 9
-42 11 -13 8 4 34 23 34 21 0 43 35 35 55 -3 8 8 27 24 43 16 16 32 41 36 55
5 21 14 28 43 33 20 4 45 13 56 20 11 8 27 14 37 14 9 0 19 4 22 9 10 16 -5
41 -24 41 -10 0 -20 6 -23 13 -6 15 9 57 21 57 5 0 17 17 27 38 10 20 32 44
49 53 22 11 32 24 34 44 4 35 30 62 62 67 23 3 25 8 28 55 3 55 1 57 -75 92
-13 6 -23 19 -23 31 0 12 -4 30 -10 40 -8 15 -5 20 20 29 17 5 30 17 30 26 0
9 7 23 15 31 28 28 15 115 -20 134 -37 20 -39 50 -4 63 22 9 29 18 29 38 0 16
9 33 23 43 21 15 22 16 3 31 -11 8 -29 12 -42 9 -13 -3 -32 1 -45 10 -20 14
-25 14 -53 -2 -17 -9 -34 -21 -37 -26 -12 -16 -40 3 -52 33 -8 23 -19 30 -47
35 -20 3 -45 15 -54 25 -17 18 -17 22 -3 36 9 8 22 15 29 15 7 0 19 10 27 21
22 36 -9 89 -68 116 -72 33 -93 35 -115 13z m-5109 -5458 c6 -4 16 -20 22 -35
7 -17 18 -27 30 -27 22 0 41 -27 41 -59 0 -25 -45 -61 -76 -61 -24 0 -54 33
-54 60 0 8 -10 20 -22 25 -34 15 -35 58 -2 84 28 22 42 25 61 13z m-78 -147
c45 -49 53 -86 24 -117 -17 -19 -73 -25 -73 -8 0 6 9 10 19 10 19 0 51 24 51
38 0 4 -4 14 -9 21 -8 12 -13 11 -28 -8 -54 -67 -147 16 -97 87 26 37 65 29
113 -23z m672 -2224 c-6 -10 -7 -21 -4 -25 3 -3 2 -6 -3 -6 -5 0 -7 -25 -6
-56 3 -45 8 -57 23 -61 10 -3 16 -10 12 -16 -3 -6 -1 -7 5 -3 6 4 41 -3 77
-15 62 -20 66 -23 51 -37 -15 -15 -21 -15 -79 0 -34 9 -70 19 -79 23 -15 6
-16 3 -8 -26 5 -18 15 -36 22 -41 7 -4 9 -8 3 -8 -5 0 1 -7 13 -16 24 -16 20
-39 -5 -30 -8 3 -11 1 -8 -4 3 -6 2 -10 -3 -10 -11 0 -47 51 -44 63 1 4 -2 7
-7 7 -5 0 -19 16 -32 36 -12 20 -39 54 -61 76 -21 21 -38 45 -38 52 0 8 -7 19
-15 26 -8 7 -12 17 -8 23 3 5 1 7 -5 3 -18 -11 -25 15 -9 31 14 14 17 13 31
-13 8 -16 42 -58 76 -94 34 -36 59 -59 55 -52 -3 6 0 12 7 13 10 0 10 2 1 6
-20 8 -5 123 20 151 25 27 31 28 18 3z m-171 -185 c0 -23 -15 -35 -36 -30 -27
7 -74 -33 -74 -63 0 -28 58 -112 84 -125 40 -18 72 -3 90 42 18 46 46 54 46
14 0 -33 -18 -66 -32 -58 -7 4 -8 3 -4 -4 9 -15 -39 -45 -73 -45 -32 0 -58 20
-117 91 -40 49 -61 104 -32 86 7 -4 8 -3 4 4 -13 21 35 89 54 77 5 -3 10 -1
10 4 0 6 18 11 40 11 22 0 40 -2 40 -4z m5844 -747 c21 -17 24 -24 15 -35 -9
-12 -9 -13 3 -9 8 3 23 -3 33 -15 16 -18 16 -21 -1 -19 -3 0 -13 -8 -22 -18
-25 -28 -88 -64 -97 -55 -4 4 0 -5 9 -19 9 -14 14 -29 11 -32 -3 -4 -2 -5 1
-3 3 3 18 0 32 -5 25 -10 82 4 80 20 -3 26 5 41 22 41 24 0 24 -15 1 -55 -19
-32 -54 -55 -86 -55 -28 0 -98 59 -91 77 3 8 2 12 -3 9 -13 -9 -61 67 -67 106
-5 30 -2 38 24 60 39 33 99 36 136 7z m-338 -56 c-3 -8 -2 -12 3 -9 5 3 16 -5
25 -19 19 -29 33 -31 58 -8 17 15 20 15 28 3 14 -23 12 -31 -10 -37 -30 -8
-25 -28 30 -100 28 -36 50 -62 50 -57 0 4 5 3 11 -3 8 -8 20 -8 34 -3 17 6 27
5 35 -6 18 -21 -2 -40 -48 -42 -33 -2 -43 2 -73 37 -19 22 -47 58 -62 80 -21
31 -34 40 -53 39 -13 -1 -24 -8 -24 -15 0 -12 -34 -36 -41 -28 -2 2 -4 -7 -4
-20 0 -13 3 -21 6 -19 10 6 50 -56 43 -68 -4 -6 -3 -8 3 -5 14 9 43 -29 31
-41 -6 -6 7 -7 38 -1 46 9 63 2 64 -24 0 -13 -53 -28 -76 -23 -34 9 -86 57
-80 73 3 8 2 12 -3 8 -5 -3 -22 12 -38 33 -15 22 -34 37 -41 34 -21 -7 -44 18
-31 34 8 10 6 21 -10 43 -20 27 -20 61 0 61 4 0 19 -16 32 -35 17 -26 26 -32
35 -23 8 8 15 8 26 -1 10 -8 16 -9 21 -1 4 6 2 9 -3 8 -6 -2 -9 2 -8 7 0 6 7
9 13 9 7 -1 10 2 7 7 -3 5 2 12 10 15 21 8 20 26 -4 54 -20 23 -26 51 -14 63
11 11 26 -4 20 -20z m-116 -295 c0 -5 -4 -6 -10 -3 -16 10 -11 -1 7 -16 14
-12 16 -12 9 1 -4 8 2 4 14 -10 61 -72 82 -108 75 -129 -8 -25 -54 -66 -92
-81 -44 -17 -77 -6 -105 33 -12 17 -44 54 -71 81 -42 44 -46 51 -32 65 13 13
17 12 40 -9 14 -13 23 -30 20 -38 -2 -7 -1 -11 4 -8 4 3 25 -15 46 -39 31 -37
43 -45 71 -45 24 0 43 8 60 26 29 28 31 25 -44 106 -21 22 -31 41 -27 49 5 7
4 10 -3 5 -6 -3 -20 6 -32 21 -20 26 -20 28 -4 40 15 11 22 9 46 -14 15 -15
28 -31 28 -35z"/>
</g>
</svg>
