<?xml version="1.0" standalone="no"?>
<!DOCTYPE svg PUBLIC "-//W3C//DTD SVG 20010904//EN"
 "http://www.w3.org/TR/2001/REC-SVG-20010904/DTD/svg10.dtd">
<svg version="1.0" xmlns="http://www.w3.org/2000/svg"
 width="999.000000pt" height="1433.000000pt" viewBox="0 0 999.000000 1433.000000"
 preserveAspectRatio="xMidYMid meet">
<metadata>
Created by potrace 1.16, written by Peter Selinger 2001-2019
</metadata>
<g transform="translate(0.000000,1433.000000) scale(0.100000,-0.100000)"
fill="#000000" stroke="none">
<path d="M847 14194 c-4 -4 -36 -6 -72 -6 -56 1 -78 -4 -143 -35 -42 -19 -78
-39 -80 -44 -2 -5 -10 -9 -17 -9 -21 0 -24 -23 -8 -65 8 -22 18 -52 22 -66 5
-14 27 -60 50 -102 22 -42 41 -82 41 -90 0 -18 64 -165 79 -180 6 -6 11 -19
11 -30 0 -10 5 -28 11 -39 7 -12 20 -58 31 -102 16 -68 25 -86 53 -111 24 -21
38 -45 47 -80 7 -27 24 -72 39 -100 24 -45 30 -51 68 -56 23 -3 47 -11 54 -19
9 -10 9 -11 0 -6 -7 4 -13 3 -13 -2 0 -16 13 -22 25 -12 9 7 17 3 30 -16 16
-25 16 -27 -3 -40 -21 -15 -35 -63 -22 -79 4 -5 9 -18 11 -28 4 -16 6 -16 27
-2 12 9 22 25 22 36 0 12 7 19 20 19 11 0 20 -5 20 -10 0 -21 -29 -80 -39 -80
-6 0 -13 -11 -17 -24 -5 -23 12 -69 51 -136 8 -14 15 -40 15 -59 0 -68 20
-110 61 -128 37 -16 38 -17 21 -36 -29 -32 -22 -93 21 -175 22 -45 37 -88 37
-110 0 -19 13 -63 29 -96 16 -34 37 -79 46 -101 9 -22 21 -49 26 -60 4 -11 14
-36 22 -55 8 -20 22 -44 32 -54 17 -17 19 -16 42 33 14 28 29 51 34 51 5 0 19
-16 30 -35 23 -38 39 -44 59 -20 7 8 27 15 45 15 18 0 38 6 44 14 12 14 71 39
71 30 0 -3 -8 -16 -17 -30 -14 -22 -14 -27 -2 -35 8 -5 22 -9 32 -9 9 0 17 -7
17 -15 0 -21 -26 -19 -95 9 -94 39 -99 23 -20 -62 30 -33 55 -69 55 -80 0 -14
14 -30 43 -46 23 -14 48 -34 55 -46 7 -11 22 -20 35 -20 12 0 33 -7 45 -16 26
-18 52 -5 52 26 0 20 69 114 78 106 3 -3 -9 -26 -26 -50 -18 -24 -32 -48 -32
-52 0 -5 17 -26 38 -48 24 -25 30 -36 17 -31 -11 5 -38 10 -61 11 -22 1 -63
12 -89 24 -54 25 -125 38 -125 23 0 -5 27 -37 60 -72 33 -35 60 -65 60 -68 0
-2 5 -9 10 -16 6 -7 19 -24 30 -39 15 -19 33 -29 66 -34 49 -7 74 -32 74 -74
0 -24 29 -60 49 -60 4 0 19 -21 33 -47 19 -37 30 -48 48 -48 17 0 26 -7 30
-24 8 -36 30 -38 30 -3 0 16 9 37 20 47 27 24 25 45 -3 45 -15 0 -28 -9 -35
-22 -7 -16 -11 -18 -11 -7 -1 19 30 49 50 49 14 0 46 -29 78 -72 12 -16 11
-18 -8 -18 -12 0 -21 6 -21 14 0 22 -19 30 -35 16 -19 -16 -19 -31 0 -24 10 4
15 0 15 -11 0 -9 4 -13 10 -10 5 3 10 2 10 -4 0 -6 -9 -15 -20 -21 -32 -17
-24 -54 20 -100 22 -23 40 -46 40 -51 0 -5 4 -9 8 -9 13 0 108 -148 138 -215
28 -63 63 -193 64 -235 l1 -25 20 24 c16 20 24 23 37 14 25 -15 26 -49 3 -65
-19 -13 -19 -16 -5 -58 49 -143 97 -212 161 -236 27 -10 60 -26 75 -36 39 -27
88 -102 95 -145 3 -20 14 -44 23 -53 9 -9 23 -31 31 -48 7 -17 20 -33 28 -34
12 -3 12 -6 -2 -20 -26 -25 -21 -54 16 -95 41 -46 57 -90 57 -155 0 -45 23
-108 42 -116 4 -2 13 -22 19 -44 6 -22 21 -65 35 -94 13 -29 24 -58 24 -63 0
-26 40 -7 71 33 33 43 79 76 79 56 0 -5 -25 -36 -56 -70 l-57 -61 12 -39 c13
-44 22 -47 76 -24 42 17 59 14 75 -15 10 -20 8 -21 -43 -18 -38 1 -58 -3 -69
-14 -14 -14 -14 -20 7 -65 23 -51 41 -115 71 -249 9 -44 28 -107 42 -140 18
-44 27 -90 32 -170 5 -60 15 -137 24 -170 8 -33 19 -95 25 -139 8 -69 13 -82
40 -107 19 -17 31 -38 31 -53 0 -14 4 -27 10 -31 5 -3 14 -20 19 -38 17 -56
36 -104 47 -118 6 -8 28 -54 49 -104 89 -211 195 -431 233 -482 29 -40 62 -44
62 -9 0 13 7 26 15 30 8 3 15 2 15 -3 0 -4 25 -25 55 -47 50 -36 54 -42 55
-81 0 -54 -13 -61 -38 -21 -27 43 -60 78 -74 78 -10 0 -8 -20 8 -80 7 -23 5
-23 -22 8 -15 17 -34 32 -41 32 -19 0 -1 -48 92 -233 47 -95 85 -179 85 -187
0 -8 6 -32 14 -55 8 -22 22 -69 31 -105 10 -36 28 -99 42 -140 13 -41 31 -106
39 -145 22 -108 23 -112 38 -118 8 -3 29 3 48 13 19 10 53 24 76 31 45 13 48
19 30 52 -12 21 -58 146 -55 148 1 1 18 2 38 3 l35 3 -4 -59 c-5 -61 -3 -62
43 -59 14 1 25 -8 34 -31 8 -18 16 -36 18 -40 2 -3 -6 -8 -19 -10 -37 -5 -27
-31 22 -56 25 -13 62 -40 83 -60 35 -35 41 -37 90 -33 87 6 109 4 118 -10 6
-11 1 -15 -24 -17 -17 -1 -47 -10 -64 -20 -31 -16 -35 -16 -65 1 -18 10 -51
34 -73 54 -69 62 -110 84 -168 90 -60 6 -78 -5 -50 -33 32 -31 53 -68 53 -94
0 -14 11 -41 24 -61 13 -19 29 -53 35 -75 6 -22 19 -49 29 -60 11 -11 22 -37
26 -58 4 -20 13 -39 21 -42 8 -3 17 -19 20 -35 4 -16 11 -31 16 -34 12 -8 12
-72 0 -80 -5 -3 -7 -31 -4 -62 5 -43 14 -68 40 -103 60 -81 57 -80 63 -30 l5
45 30 -40 c17 -22 51 -61 78 -86 26 -25 47 -53 47 -63 0 -10 9 -30 19 -45 11
-14 22 -48 26 -74 4 -26 11 -50 16 -53 28 -17 28 -43 3 -74 -23 -26 -26 -37
-20 -73 4 -23 14 -61 22 -85 8 -24 13 -67 12 -97 -2 -46 1 -56 22 -74 14 -11
28 -20 33 -21 4 0 7 -25 7 -55 0 -39 4 -57 14 -61 22 -8 42 -137 28 -169 -7
-14 -12 -50 -12 -80 0 -69 21 -85 81 -61 60 24 78 20 121 -26 41 -45 49 -85
23 -112 -8 -8 -15 -19 -15 -25 0 -13 -60 -14 -93 -2 -21 8 -26 6 -37 -15 -17
-31 -36 -30 -54 3 -12 24 -20 28 -69 29 -87 3 -166 49 -167 97 0 11 6 33 14
50 15 37 46 139 46 155 0 6 14 40 30 75 37 81 38 101 2 122 -15 9 -34 30 -41
46 -20 46 -39 61 -62 49 -18 -10 -19 -7 -19 53 0 36 -7 81 -15 100 -8 20 -15
61 -15 90 0 34 -5 59 -14 66 -7 6 -16 39 -20 74 -8 75 -23 125 -45 148 -15 17
-16 12 -16 -69 l0 -87 -27 -3 c-39 -5 -50 39 -18 73 23 25 23 25 5 65 -32 71
-42 69 -50 -9 -8 -80 1 -160 21 -199 9 -17 14 -60 14 -119 0 -53 6 -109 14
-130 36 -102 46 -160 57 -323 21 -338 32 -420 68 -531 65 -202 84 -255 92
-263 5 -6 9 -16 9 -23 0 -7 13 -41 29 -76 16 -34 37 -82 46 -107 32 -81 46
-114 70 -160 48 -91 123 -246 140 -287 14 -33 21 -41 31 -32 11 9 5 27 -30 92
-45 84 -69 132 -93 179 -7 14 -13 37 -13 51 0 27 23 52 40 42 20 -12 50 -95
50 -138 0 -56 56 -188 76 -180 8 3 14 11 14 19 0 8 7 14 15 14 18 0 18 -7 4
-48 -9 -27 -8 -36 12 -63 18 -26 20 -35 11 -50 -16 -25 -15 -54 1 -71 17 -17
77 -145 77 -164 0 -19 28 -30 43 -15 14 14 47 -33 47 -66 0 -30 -11 -29 -44 2
-15 14 -30 25 -34 25 -10 0 -36 41 -44 70 -29 108 -71 162 -61 78 6 -46 34
-100 68 -133 18 -17 23 -40 31 -125 6 -60 18 -121 28 -142 10 -20 15 -41 13
-45 -3 -5 -2 -15 3 -23 7 -11 12 -11 30 1 16 11 23 27 26 62 2 26 -1 47 -6 47
-16 0 -11 26 8 43 25 23 35 21 22 -2 -15 -28 -13 -101 3 -101 6 0 21 20 31 43
11 23 31 58 46 77 15 19 30 46 33 60 17 70 103 158 129 132 9 -9 9 -12 0 -12
-7 0 -33 -19 -57 -41 -36 -33 -43 -45 -34 -56 9 -10 9 -20 1 -39 -11 -23 -10
-24 7 -14 27 14 33 13 30 -7 -3 -32 1 -33 26 -8 13 14 31 25 40 25 14 0 14 -4
0 -36 -19 -47 -20 -43 16 -56 28 -10 30 -12 13 -21 -11 -5 -28 -21 -40 -35
l-20 -25 -27 29 c-15 16 -27 32 -27 36 0 12 -45 9 -57 -3 -8 -8 -9 -20 -2 -37
10 -26 4 -62 -11 -62 -12 0 -40 -29 -40 -42 0 -10 37 -7 88 8 18 5 22 2 22
-14 0 -43 -99 -40 -140 4 -24 24 -45 29 -74 18 -24 -9 -20 -30 16 -82 39 -57
53 -69 96 -77 18 -3 36 -13 39 -21 3 -7 9 -14 15 -14 5 0 37 -27 70 -60 34
-33 64 -60 67 -60 15 1 32 20 49 54 l19 38 21 -33 c25 -40 19 -50 -42 -68 -25
-7 -46 -15 -46 -18 0 -10 55 -80 85 -108 18 -16 60 -68 94 -115 34 -47 69 -93
77 -103 8 -9 14 -20 14 -23 0 -8 44 -69 53 -72 4 -2 7 -8 7 -14 0 -6 13 -27
30 -48 16 -21 30 -41 30 -44 0 -4 37 -45 83 -92 45 -47 86 -95 92 -107 5 -12
12 -24 15 -27 3 -3 18 -24 34 -47 16 -24 33 -43 37 -43 5 0 9 -7 9 -15 0 -8 4
-15 9 -15 5 0 22 -20 38 -45 15 -25 31 -45 36 -45 4 0 7 -7 7 -15 0 -8 3 -15
8 -15 4 0 20 -20 35 -45 16 -25 33 -45 38 -45 5 0 9 -5 9 -11 0 -9 53 -81 87
-116 6 -7 23 -17 37 -23 20 -7 26 -17 26 -39 0 -29 27 -56 84 -86 10 -5 24
-19 30 -29 13 -22 44 -56 51 -56 3 0 24 -12 46 -26 41 -26 62 -26 40 0 -9 11
-8 15 5 20 9 4 19 4 22 1 3 -3 0 -5 -6 -5 -7 0 -12 -4 -12 -10 0 -5 8 -7 18
-3 14 5 15 3 5 -8 -16 -16 -17 -29 -2 -29 5 0 8 4 5 9 -3 5 1 11 9 15 16 6 40
-28 30 -44 -7 -12 25 -44 65 -65 l31 -16 14 35 c8 20 15 42 15 51 0 23 25 29
73 15 87 -25 93 -24 109 7 18 36 8 80 -32 135 -32 43 -28 68 10 68 22 0 50 57
50 102 0 43 22 75 59 83 16 3 36 14 46 25 15 17 15 21 1 49 -9 16 -16 39 -16
51 0 11 -4 20 -9 20 -13 0 -21 27 -15 45 9 21 29 19 81 -11 76 -42 101 -26
129 84 19 71 6 130 -36 162 -16 12 -31 33 -35 47 -7 28 -24 48 -77 87 -38 29
-68 87 -68 135 0 16 -6 36 -12 43 -36 39 -70 115 -63 139 4 10 22 26 41 35 25
12 37 25 41 46 3 16 13 32 22 35 45 14 61 28 61 52 0 14 7 39 15 55 8 15 15
33 15 38 0 5 11 24 24 41 58 75 55 124 -10 192 -24 26 -49 63 -56 83 -7 20
-39 64 -71 97 -65 66 -127 178 -127 229 0 37 43 80 101 102 24 9 49 58 49 97
0 30 8 43 45 78 25 24 59 52 75 63 38 28 50 56 61 146 10 88 22 141 55 230 27
73 30 100 12 118 -9 9 -7 17 10 35 12 13 22 31 22 40 0 10 7 33 14 52 11 26
21 35 38 35 13 0 29 4 35 8 20 13 43 102 43 167 0 121 4 127 85 174 82 46 106
75 113 137 4 37 1 45 -24 66 -80 67 -101 90 -118 134 -16 39 -17 52 -8 77 18
48 3 52 -22 5 -32 -60 -46 -60 -46 1 0 43 -3 51 -18 51 -21 0 -102 -55 -102
-69 0 -5 11 -16 25 -25 14 -9 23 -21 19 -27 -4 -6 -14 -4 -27 8 -22 17 -22 17
-4 -2 10 -11 25 -20 35 -20 9 0 17 -7 17 -16 0 -9 7 -24 15 -34 13 -16 13 -18
0 -13 -8 2 -19 13 -24 24 -5 10 -27 34 -49 51 -32 27 -48 33 -89 33 -54 0 -99
19 -141 60 -17 17 -45 30 -70 34 -22 4 -47 12 -54 18 -20 17 -15 69 12 113 39
65 56 107 65 163 5 29 18 68 28 85 11 18 23 59 27 92 7 58 26 95 50 95 7 0 20
9 30 20 18 20 18 21 -1 38 -10 9 -31 25 -47 35 -25 16 -27 23 -26 75 0 31 0
85 0 119 -2 83 42 171 105 211 24 15 46 33 49 41 6 15 -12 91 -23 91 -7 0 -23
34 -87 187 -10 23 -29 50 -43 60 -73 52 -83 99 -31 149 27 26 36 29 88 26 77
-3 90 12 97 109 3 41 14 104 25 142 11 37 19 73 16 80 -2 7 -18 11 -39 9 l-36
-3 -7 53 c-8 60 -16 78 -56 129 -16 20 -29 49 -29 63 0 72 -57 126 -133 126
-33 0 -107 -29 -107 -42 0 -4 -5 -8 -10 -8 -6 0 -29 -12 -53 -27 -61 -39 -115
-63 -146 -63 -48 0 -121 -67 -121 -112 0 -9 -16 -33 -35 -54 -33 -35 -34 -38
-18 -56 12 -14 14 -21 5 -30 -8 -8 -16 -5 -31 13 -18 22 -21 23 -36 8 -14 -14
-15 -21 -5 -39 17 -32 -3 -48 -24 -19 -12 18 -18 21 -28 11 -7 -7 -20 -12 -29
-12 -9 0 -22 -7 -30 -16 -11 -14 -9 -15 25 -9 40 8 76 -13 76 -45 0 -25 -43
-60 -73 -60 -23 0 -31 7 -46 44 -11 24 -31 55 -46 70 -18 18 -24 32 -20 46 6
17 2 20 -29 20 -27 0 -34 -3 -30 -15 4 -9 0 -15 -10 -15 -9 0 -16 8 -16 20 0
11 -10 26 -23 35 -40 26 -66 85 -60 133 7 51 -10 61 -57 37 -17 -9 -43 -15
-58 -13 -26 3 -27 5 -30 79 -2 59 1 80 13 92 32 33 30 73 -8 129 -55 83 -63
114 -48 200 7 40 19 99 28 130 10 36 13 72 9 98 -5 32 -2 49 13 73 31 51 32
127 3 127 -21 0 -58 30 -57 45 1 6 9 27 18 49 9 21 17 47 17 57 0 27 13 30 70
17 50 -11 53 -11 71 11 23 28 24 78 4 105 -19 26 -19 80 0 100 8 8 15 19 15
25 0 6 4 11 10 11 14 0 27 65 35 173 7 109 9 106 -69 88 -55 -13 -69 -5 -62
35 5 25 2 37 -12 51 -11 10 -23 29 -27 43 -9 32 -34 60 -52 60 -8 0 -35 6 -61
14 -26 7 -83 21 -127 31 -90 20 -146 38 -222 71 -29 13 -64 26 -77 30 -13 3
-32 14 -41 24 -15 17 -14 19 14 40 25 17 31 29 31 58 0 20 9 51 20 67 11 17
20 37 20 46 0 28 27 71 66 106 21 18 42 33 46 33 20 0 104 -23 113 -31 5 -5
25 -9 45 -9 26 0 45 9 73 35 20 18 37 39 37 44 0 7 -23 11 -54 11 -107 0 -148
32 -117 91 18 33 18 34 0 59 -15 20 -17 33 -10 62 9 40 0 58 -32 58 -24 0 -78
30 -95 53 -8 10 -19 23 -26 29 -9 9 -10 19 -2 40 12 33 32 39 68 21 31 -15 43
-4 34 32 -3 13 -2 27 4 30 5 3 14 14 20 24 10 20 -11 50 -59 83 -23 17 -25 16
-70 -31 -51 -53 -106 -90 -163 -109 -31 -11 -45 -11 -75 -1 -21 7 -42 17 -47
21 -18 15 -58 8 -108 -17 -27 -14 -56 -25 -63 -25 -7 0 -40 13 -73 30 -77 38
-104 38 -144 0 -17 -16 -32 -30 -33 -30 -2 0 -19 7 -40 16 -36 14 -36 16 -21
37 9 12 21 32 28 45 6 12 15 22 20 22 4 0 8 7 8 15 0 8 7 15 15 15 8 0 15 4
15 9 0 5 10 13 23 16 12 4 45 18 73 31 43 20 54 30 68 68 9 24 23 47 31 50 22
8 45 61 47 107 1 35 -3 46 -28 67 -16 13 -48 42 -70 63 -50 46 -69 54 -154 64
-86 10 -125 34 -149 92 -12 29 -17 32 -54 31 -28 0 -45 5 -54 18 -9 13 -25 18
-52 17 -24 -1 -44 4 -51 12 -9 11 -17 12 -30 5 -23 -12 -50 -3 -50 17 0 11 -7
13 -25 9 -26 -7 -65 11 -65 29 0 20 -55 36 -84 25 -60 -22 -71 -15 -84 51 -11
59 -10 64 15 106 26 45 26 46 10 92 -23 61 -21 97 4 122 32 32 92 8 112 -44
10 -25 72 -22 99 5 18 18 32 21 86 20 72 -2 90 8 109 63 8 24 15 29 36 27 19
-2 30 5 43 28 16 27 24 30 65 30 53 0 59 8 59 72 0 34 -6 46 -32 70 -17 15
-35 28 -40 28 -4 0 -8 25 -8 55 0 41 6 63 21 84 14 20 18 35 13 55 -11 46 -37
51 -119 22 -101 -36 -156 -35 -205 4 -23 18 -41 43 -45 60 -4 16 -30 53 -61
84 l-55 55 -35 -15 c-29 -12 -43 -13 -71 -3 -57 19 -73 38 -73 89 0 52 -20 81
-67 100 -38 14 -69 9 -141 -27 -28 -15 -55 -23 -60 -19 -4 4 -8 91 -10 192 -3
153 -6 184 -18 184 -14 0 -58 -19 -229 -100 -112 -53 -113 -53 -191 -26 -46
15 -106 26 -175 30 -139 9 -197 24 -218 55 -9 14 -33 41 -53 59 -31 28 -38 41
-38 71 0 20 -9 53 -20 74 -11 20 -20 55 -20 77 0 34 -4 42 -25 50 -14 5 -25
14 -25 20 0 12 -180 9 -215 -4 -18 -6 -22 1 -39 54 -25 76 -35 86 -75 66 l-30
-16 -45 59 c-45 59 -94 91 -138 91 -42 1 -111 40 -160 92 -26 28 -48 57 -48
63 0 31 -98 194 -146 242 -19 18 -34 38 -34 43 0 25 -79 12 -105 -17 -38 -45
-97 -13 -66 36 6 10 4 25 -5 42 -8 16 -14 51 -14 79 0 28 -5 71 -11 95 -10 40
-16 46 -56 61 -53 21 -73 56 -73 132 0 68 20 84 97 81 79 -3 86 2 77 59 -10
71 -19 82 -65 82 -56 0 -79 -15 -79 -50 0 -39 -25 -62 -64 -58 -27 3 -31 7
-34 38 -5 44 -18 60 -51 60 -19 0 -30 9 -41 32 -19 37 -46 49 -80 35 -36 -14
-51 -17 -44 -6 3 5 -1 9 -8 9 -8 1 -6 6 6 15 17 13 17 19 7 59 -13 54 -14 69
-2 62 5 -3 12 1 15 10 4 9 9 14 13 11 11 -11 43 13 43 33 0 10 -8 25 -18 32
-10 7 -22 20 -27 28 -8 13 -7 13 8 1 15 -12 17 -11 14 7 -2 12 -7 25 -12 29
-4 5 -5 2 -1 -4 5 -9 0 -13 -16 -13 -22 0 -119 -70 -126 -91 -2 -5 -21 -18
-42 -29 -21 -11 -42 -25 -46 -32 -5 -8 -1 -7 11 2 17 14 17 13 11 -8 -5 -15
-4 -22 4 -20 6 2 18 -6 26 -18 13 -18 13 -23 0 -33 -11 -9 -19 -3 -40 33 -31
54 -31 51 -5 88 l21 29 -21 23 c-19 20 -21 30 -15 73 l6 51 -37 4 c-28 3 -43
-1 -63 -19 -15 -13 -31 -23 -37 -23 -15 1 -45 26 -45 39 0 6 -4 11 -10 11 -20
0 -10 27 15 40 36 19 36 77 0 86 -14 3 -40 3 -59 0 -30 -6 -35 -4 -46 24 -13
33 -45 60 -69 60 -11 0 -13 -12 -8 -61 l5 -61 -31 5 c-18 3 -49 13 -71 22 -37
16 -38 17 -30 53 4 20 8 51 8 67 1 27 -2 30 -35 33 -23 2 -42 -3 -52 -12 -25
-25 -47 -19 -62 17 -8 19 -21 39 -29 47 -26 21 -20 58 13 75 39 20 44 30 25
49 -16 17 -36 21 -47 10z m5629 -8201 c68 -91 68 -92 48 -100 -10 -3 -26 -15
-36 -25 -10 -10 -24 -18 -31 -18 -41 0 -96 84 -77 119 5 11 19 23 31 26 19 6
19 8 5 24 -19 21 -21 41 -3 41 7 0 35 -30 63 -67z m-312 -304 c38 -45 33 -80
-15 -105 -34 -17 -56 -9 -88 32 -26 33 -26 45 0 78 29 37 70 35 103 -5z m-414
-318 c0 -11 5 -23 10 -26 15 -10 12 -46 -7 -67 -19 -22 -6 -23 21 -3 27 21 52
19 69 -6 19 -26 11 -54 -21 -80 -37 -29 -64 -21 -87 27 -11 23 -29 45 -40 50
-34 15 -31 53 7 90 39 38 48 41 48 15z m-176 -235 c20 -23 36 -48 36 -55 0
-23 -28 -10 -59 29 -17 22 -36 40 -42 40 -23 0 -19 -33 10 -72 17 -23 31 -46
31 -50 0 -20 -30 -4 -59 32 -17 22 -36 40 -42 40 -22 0 -20 -33 5 -68 14 -21
26 -43 26 -50 0 -25 -21 -10 -61 43 -39 52 -44 75 -14 75 7 0 15 7 19 15 3 8
14 15 24 15 10 0 24 11 30 25 18 40 54 33 96 -19z m1816 -1102 c0 -8 4 -12 10
-9 5 3 15 -3 22 -15 14 -21 38 -27 38 -9 0 8 5 7 15 -1 13 -11 14 -10 10 2 -7
18 21 33 31 17 3 -6 3 -13 0 -16 -3 -4 -6 0 -7 8 0 8 -5 3 -10 -10 -6 -14 -15
-21 -24 -18 -21 8 20 -62 52 -90 15 -13 21 -23 15 -23 -7 0 -12 -4 -12 -9 0
-4 12 -6 28 -3 24 4 25 3 9 -9 -16 -13 -16 -14 7 -14 13 0 22 2 20 4 -10 10
61 27 74 18 17 -13 -4 -38 -25 -30 -12 5 -14 3 -8 -7 6 -10 4 -12 -8 -7 -10 3
-17 2 -17 -3 0 -6 -8 -10 -17 -10 -15 0 -16 2 -3 10 12 8 10 10 -10 10 -29 0
-91 57 -83 76 4 10 0 12 -13 7 -17 -6 -18 -5 -4 12 13 16 13 18 0 13 -8 -3
-25 -2 -37 3 -20 8 -50 -10 -38 -23 3 -3 -1 -11 -9 -17 -10 -8 -16 -9 -21 -1
-3 5 -1 10 5 10 7 0 10 7 6 15 -3 8 0 14 7 12 7 -1 11 4 9 11 -1 8 2 11 8 7
21 -13 9 13 -20 40 -28 27 -38 54 -24 68 10 10 24 -2 24 -19z m-533 -443 c4
-14 6 -33 5 -41 -3 -13 -2 -13 8 0 9 13 13 11 32 -10 20 -24 20 -24 14 -2 -4
12 -4 22 1 21 19 -3 33 2 33 12 0 5 -5 7 -12 3 -7 -4 -8 -3 -4 5 4 6 11 9 16
6 5 -3 11 -1 14 4 3 5 16 7 29 4 18 -4 19 -3 7 6 -21 15 -5 14 35 -3 29 -12
33 -18 29 -41 -3 -16 -1 -24 5 -21 11 7 61 -36 61 -53 0 -6 5 -11 11 -11 5 0
7 -5 4 -10 -4 -6 4 -20 17 -31 16 -14 18 -19 6 -15 -9 3 -19 2 -21 -2 -2 -4
-2 -1 0 7 2 8 -2 11 -12 7 -9 -3 -13 -2 -10 4 3 5 -9 23 -26 41 -17 18 -37 46
-44 63 -13 29 -16 31 -59 28 -54 -5 -84 -38 -66 -72 6 -11 7 -20 3 -20 -4 0 0
-6 9 -12 31 -26 96 -136 86 -146 -12 -12 -40 -4 -32 9 3 5 10 6 16 3 7 -4 8
-2 4 5 -4 6 -12 9 -17 5 -15 -9 -37 26 -34 53 2 17 -1 21 -10 13 -9 -8 -16 -2
-25 21 -7 17 -20 38 -29 46 -14 14 -13 15 9 9 14 -3 19 -3 12 0 -6 3 -10 9 -7
14 3 4 -2 13 -9 19 -11 9 -16 9 -22 0 -4 -7 -3 -9 4 -5 6 3 13 2 17 -4 3 -5
-1 -10 -9 -10 -19 0 -59 57 -50 71 4 7 3 9 -3 6 -5 -3 -20 8 -33 25 -12 17
-18 28 -11 24 6 -4 11 -3 11 2 0 21 41 -2 47 -27z m46 -3031 c21 -27 39 -53
40 -57 1 -4 14 -19 30 -32 15 -13 26 -30 23 -37 -3 -8 0 -14 6 -14 6 0 8 -3 5
-7 -10 -9 13 -33 32 -32 10 0 8 3 -7 10 -13 5 -20 14 -16 20 3 6 7 49 7 95 0
72 3 86 19 95 17 9 18 5 18 -51 0 -35 -4 -59 -9 -55 -5 3 -13 0 -17 -6 -4 -8
-3 -9 5 -5 12 8 30 -29 25 -54 -1 -8 -3 -25 -3 -36 -1 -33 -31 -39 -57 -10
-13 13 -20 27 -17 30 4 3 -1 6 -10 6 -10 0 -14 5 -11 15 4 8 1 15 -5 15 -13 0
-61 51 -61 66 0 6 -11 20 -25 30 -25 18 -36 42 -14 28 7 -4 10 -1 7 7 -3 8
-11 13 -17 11 -7 -1 -10 2 -6 8 10 17 18 11 58 -40z"/>
<path d="M4390 6056 c0 -8 14 -41 30 -74 17 -34 30 -67 30 -74 0 -7 7 -22 15
-32 20 -27 19 -43 -5 -51 -24 -8 -26 -28 -5 -45 18 -15 55 -95 55 -119 0 -10
7 -26 15 -37 8 -10 15 -32 15 -47 0 -34 29 -87 47 -87 8 0 12 25 12 83 1 45 2
96 3 112 1 22 -11 47 -45 94 -28 37 -47 74 -47 90 0 14 -6 38 -14 52 -7 14
-16 37 -20 52 -3 15 -11 27 -16 27 -6 0 -10 6 -10 13 0 16 -37 57 -50 57 -6 0
-10 -6 -10 -14z"/>
<path d="M4550 5420 c0 -5 7 -33 15 -62 36 -134 58 -169 93 -147 16 10 26 10
47 1 48 -22 60 9 25 66 -11 18 -28 32 -39 32 -14 0 -23 12 -33 43 -9 30 -19
43 -35 45 -12 2 -27 10 -33 18 -14 16 -40 19 -40 4z"/>
<path d="M4792 5287 c-23 -27 -18 -67 12 -102 28 -32 36 -65 36 -142 0 -29 7
-70 15 -90 8 -19 15 -55 15 -78 0 -26 6 -48 15 -55 9 -7 15 -29 15 -54 0 -48
17 -116 29 -116 29 0 41 137 16 180 -20 34 -19 89 2 112 23 25 22 82 -2 108
-10 11 -22 20 -27 20 -14 0 -9 -54 8 -78 17 -25 3 -30 -20 -7 -23 23 -37 86
-35 158 2 58 -1 67 -34 110 -26 34 -38 43 -45 34z"/>
</g>
</svg>
