<?xml version="1.0" standalone="no"?>
<!DOCTYPE svg PUBLIC "-//W3C//DTD SVG 20010904//EN"
 "http://www.w3.org/TR/2001/REC-SVG-20010904/DTD/svg10.dtd">
<svg version="1.0" xmlns="http://www.w3.org/2000/svg"
 width="1500.000000pt" height="1600.000000pt" viewBox="0 0 1500.000000 1600.000000"
 preserveAspectRatio="xMidYMid meet">
<metadata>
Created by potrace 1.16, written by Peter Selinger 2001-2019
</metadata>
<g transform="translate(0.000000,1600.000000) scale(0.100000,-0.100000)"
fill="#000000" stroke="none">
<path d="M7610 10363 c-22 -9 -30 -24 -30 -63 0 -76 37 -138 147 -244 24 -23
43 -46 43 -52 0 -6 6 -17 14 -23 8 -7 17 -28 20 -49 11 -64 29 -96 74 -137 37
-34 45 -47 46 -80 l1 -40 -55 -5 -55 -5 -5 -50 c-6 -55 -8 -56 -72 -28 -37 15
-38 15 -105 -18 -68 -34 -68 -34 -66 -73 2 -28 -5 -53 -23 -83 -25 -43 -25
-43 -83 -43 -40 0 -63 5 -71 15 -20 24 -67 18 -112 -15 -22 -16 -52 -30 -65
-30 -14 0 -38 -13 -55 -30 -16 -17 -40 -33 -54 -36 -13 -3 -27 -10 -30 -15 -9
-15 -60 -10 -92 8 -28 16 -32 16 -49 1 -10 -8 -37 -25 -61 -37 -24 -12 -68
-39 -99 -59 -116 -78 -103 -73 -157 -57 -29 9 -91 15 -150 15 -94 0 -105 2
-154 31 -36 20 -57 40 -64 60 -5 16 -16 29 -24 29 -8 0 -14 5 -14 12 0 9 -3 9
-12 0 -18 -18 -217 -16 -242 3 -14 11 -45 15 -103 15 -91 0 -151 19 -188 60
-59 65 -288 93 -337 40 -10 -11 -24 -20 -31 -20 -7 0 -27 -13 -45 -30 -43 -39
-73 -45 -139 -29 l-56 13 -24 -29 c-21 -24 -24 -36 -20 -74 4 -38 1 -50 -19
-74 -13 -16 -24 -36 -24 -46 0 -9 -25 -39 -55 -65 -50 -43 -55 -51 -55 -88 l0
-41 35 6 c19 3 37 1 41 -5 3 -5 17 -8 30 -5 18 3 30 -4 50 -30 41 -54 42 -90
1 -150 -43 -63 -57 -137 -30 -151 30 -16 111 -22 140 -11 15 5 54 10 87 10 51
1 62 -3 78 -23 26 -34 24 -99 -4 -130 -34 -36 -74 -58 -106 -58 -32 0 -82 -34
-82 -55 0 -7 -13 -19 -30 -27 -34 -15 -39 -46 -15 -88 8 -14 14 -36 15 -49 0
-41 38 -91 69 -91 30 0 73 -42 89 -89 14 -40 0 -135 -24 -163 -40 -48 -54 -58
-79 -58 -19 0 -28 -7 -36 -27 -16 -42 -4 -73 29 -73 26 0 102 -58 102 -78 0
-6 7 -12 15 -16 8 -3 15 -17 15 -31 0 -23 4 -25 45 -25 25 0 45 -4 45 -10 0
-5 9 -10 20 -10 28 0 33 -19 17 -65 -18 -50 -12 -65 22 -65 40 0 58 -18 84
-84 26 -69 67 -107 95 -89 10 6 32 14 50 18 25 5 32 12 32 30 0 26 24 55 46
55 20 0 18 -29 -6 -78 -21 -44 -27 -92 -10 -92 15 0 12 -33 -5 -56 -18 -24
-19 -54 -1 -79 7 -11 16 -32 20 -47 6 -27 9 -28 64 -28 32 0 63 5 68 10 7 7
17 4 31 -10 31 -29 104 -52 120 -38 7 6 13 17 13 24 0 17 49 18 71 1 8 -7 24
-25 34 -40 11 -17 24 -26 33 -22 8 3 42 -14 76 -36 51 -36 71 -43 121 -46 103
-7 107 -9 100 -47 -7 -36 3 -50 29 -40 10 4 16 18 16 40 0 28 6 38 40 59 22
14 52 25 68 25 34 0 72 25 72 49 0 11 18 27 47 42 38 19 54 36 77 79 15 30 35
59 42 63 16 9 19 73 5 82 -5 3 -7 21 -4 40 6 36 -21 125 -37 125 -4 0 -11 11
-14 25 -4 14 -18 31 -31 37 -35 16 -32 45 5 53 23 5 37 1 63 -19 42 -32 52
-32 93 -1 18 14 35 25 38 25 9 0 46 39 46 48 0 18 37 42 64 42 54 0 116 48
116 90 0 23 10 32 62 60 l61 33 130 -13 c127 -13 131 -13 168 8 41 24 41 24
73 -40 10 -21 34 -48 53 -60 18 -13 39 -35 46 -50 6 -16 18 -28 24 -28 7 0 13
-4 13 -9 0 -5 10 -13 22 -17 11 -3 40 -26 62 -49 40 -42 73 -57 149 -70 20 -3
37 -10 37 -14 0 -4 18 -16 40 -26 40 -18 41 -18 56 3 8 12 20 20 25 17 13 -8
119 26 149 47 14 10 47 35 73 54 48 35 77 39 77 11 0 -8 15 -26 33 -39 18 -14
39 -38 47 -54 8 -16 19 -36 26 -44 6 -8 14 -28 18 -44 4 -16 15 -30 28 -34 17
-4 19 -11 15 -45 -5 -35 -2 -44 29 -75 19 -20 33 -41 30 -48 -5 -13 24 -44 40
-44 14 0 64 53 64 68 0 6 7 9 15 5 9 -3 24 2 34 11 12 11 27 14 48 10 25 -5
33 -2 42 15 7 12 18 21 27 21 8 0 19 11 23 24 11 28 50 41 58 20 3 -8 3 -41 1
-73 -3 -46 -11 -66 -35 -97 -41 -53 -54 -145 -19 -143 14 0 76 84 76 103 0 19
20 34 55 40 15 3 31 9 34 14 15 22 130 92 150 92 13 0 37 7 54 16 62 32 68 35
77 29 6 -4 10 -31 10 -61 0 -30 2 -54 5 -54 3 0 17 7 30 16 14 9 25 12 25 6 0
-15 -68 -63 -84 -60 -18 4 -20 -5 -11 -57 6 -42 43 -105 60 -105 6 0 27 -18
49 -40 43 -44 51 -47 92 -25 16 8 43 15 61 15 29 0 33 3 38 38 11 63 15 70 51
91 41 25 86 27 104 6 17 -21 29 -19 52 10 25 32 102 77 153 90 39 10 40 11 43
59 4 69 -4 94 -45 133 -24 24 -37 46 -40 73 -4 28 -17 50 -49 81 -42 41 -44
46 -44 100 0 43 7 69 30 112 41 78 31 87 -99 87 -143 0 -201 26 -201 90 0 18
-8 33 -22 43 -13 8 -62 52 -109 98 -90 88 -147 168 -180 251 l-19 49 30 31
c45 45 47 73 10 147 -42 83 -44 132 -7 161 28 23 36 50 14 50 -7 0 -22 6 -32
14 -18 13 -18 15 -2 39 9 14 40 37 69 52 105 52 139 79 164 127 35 67 9 112
-93 163 -52 27 -123 88 -123 108 0 4 -7 7 -16 7 -14 0 -30 14 -107 98 -20 21
-28 23 -83 18 -74 -7 -94 -1 -94 29 0 19 -7 23 -50 28 -85 10 -119 53 -139
175 -6 35 -26 97 -46 138 -19 41 -35 79 -35 85 0 5 -7 23 -15 39 -14 28 -14
31 5 47 27 23 25 36 -9 70 -41 41 -71 113 -78 188 -6 63 -5 64 28 94 18 17 42
34 51 37 10 3 18 15 18 26 0 19 -4 20 -57 13 -120 -15 -164 -14 -176 6 -15 24
-53 24 -99 0 -37 -20 -102 -26 -170 -15 -25 4 -52 0 -78 -10 -49 -20 -76 -11
-114 38 -26 35 -29 36 -91 36 -65 0 -111 18 -159 62 -13 12 -36 18 -63 18 -27
0 -50 6 -61 18 -43 41 -59 51 -92 56 -19 3 -42 2 -50 -1z"/>
<path d="M0 500 l0 -500 7500 0 7500 0 0 500 0 500 -7500 0 -7500 0 0 -500z
m860 144 l0 -56 34 6 c41 8 92 -11 121 -44 17 -19 21 -39 24 -141 l3 -119 -36
0 -36 0 0 104 c0 121 -9 139 -69 134 l-36 -3 -3 -117 -3 -118 -34 0 -35 0 0
205 0 205 35 0 35 0 0 -56z m630 -54 l49 0 3 37 c2 30 9 41 36 56 l32 19 0
-56 0 -56 41 0 c39 0 40 -1 37 -32 -3 -30 -6 -33 -40 -36 l-38 -3 0 -66 c0
-71 16 -103 52 -103 13 0 18 -8 18 -30 0 -28 -3 -30 -36 -30 -75 0 -104 44
-104 160 l0 70 -50 0 -50 0 0 -69 c0 -74 14 -101 51 -101 14 0 19 -7 19 -30 0
-28 -2 -30 -39 -30 -28 0 -49 7 -68 24 -26 23 -28 30 -31 115 -3 70 -7 91 -18
91 -9 0 -14 12 -14 35 0 24 5 35 15 35 11 0 15 11 15 38 0 33 4 40 33 54 l32
15 3 -53 3 -54 49 0z m1010 55 l0 -55 35 0 c33 0 35 -2 35 -35 0 -33 -2 -35
-35 -35 l-35 0 0 -76 c0 -75 0 -76 30 -87 23 -9 30 -17 30 -39 0 -26 -3 -28
-37 -28 -71 1 -93 37 -93 148 0 71 -2 80 -20 85 -15 4 -20 14 -20 36 0 24 4
31 20 31 16 0 20 7 20 38 0 30 5 40 28 54 15 9 30 17 35 17 4 1 7 -24 7 -54z
m710 -56 l0 -111 47 56 c44 53 50 56 92 56 l45 0 -30 -32 c-16 -18 -31 -35
-34 -38 -3 -3 -17 -19 -33 -36 l-28 -31 61 -78 c33 -43 60 -79 60 -81 0 -2
-17 -4 -39 -4 -35 0 -42 5 -80 55 -23 31 -46 53 -52 50 -5 -4 -9 -28 -9 -56
l0 -49 -35 0 -35 0 0 205 0 205 35 0 35 0 0 -111z m-2468 -10 c14 -8 15 -14 7
-39 -9 -26 -13 -28 -35 -19 -38 14 -80 11 -95 -7 -11 -14 -11 -18 4 -29 10 -7
35 -15 57 -19 96 -15 119 -117 38 -166 -37 -22 -107 -26 -157 -9 -33 12 -34
13 -22 44 7 17 17 20 82 20 67 0 74 2 74 20 0 19 -16 27 -76 40 -48 9 -74 39
-74 83 0 47 24 78 69 91 33 10 100 5 128 -10z m1131 10 c51 -14 77 -57 77
-126 l0 -53 -85 0 c-75 0 -85 -2 -85 -18 0 -10 5 -23 12 -30 15 -15 64 -16 73
-2 9 14 37 12 60 -5 19 -15 19 -16 -8 -43 -24 -23 -35 -27 -88 -27 -56 0 -63
3 -90 33 -27 31 -29 37 -29 121 0 100 16 133 73 150 43 12 46 12 90 0z m265
-26 c3 -31 1 -33 -27 -33 -49 0 -61 -29 -61 -142 l0 -98 -30 0 -30 0 0 123 c0
115 2 125 23 145 28 27 65 42 97 39 20 -2 26 -8 28 -34z m182 26 c54 -11 56
-15 39 -53 -10 -21 -15 -23 -36 -15 -37 14 -79 11 -94 -7 -11 -14 -11 -18 4
-29 10 -7 35 -15 56 -19 52 -8 80 -33 87 -77 12 -74 -74 -125 -178 -105 -52
10 -61 19 -48 48 11 23 16 24 83 24 60 -1 72 2 75 16 4 19 -12 28 -86 48 -34
9 -46 18 -60 46 -16 34 -15 37 3 72 14 25 31 41 55 49 44 15 40 15 100 2z
m724 -3 c30 -12 66 -49 66 -67 0 -4 -13 -12 -29 -17 -23 -8 -31 -7 -45 9 -19
23 -59 25 -80 3 -19 -19 -22 -134 -4 -152 19 -19 76 -15 89 7 10 15 16 16 41
7 34 -13 36 -29 4 -61 -46 -45 -144 -45 -187 1 -20 21 -24 38 -27 99 -2 40 1
89 7 108 22 64 95 92 165 63z m-1904 -111 c0 -105 2 -115 20 -125 12 -6 33
-10 48 -8 l27 3 3 123 3 122 34 0 35 0 0 -143 0 -144 -39 -11 c-82 -25 -162
-8 -186 39 -11 20 -15 61 -15 144 l0 115 35 0 35 0 0 -115z m1610 81 c0 -34
-1 -35 -42 -38 -43 -3 -43 -3 -46 -45 -3 -42 -4 -43 -39 -43 l-35 0 4 57 c6
75 36 103 109 103 l49 0 0 -34z m95 -163 c-1 -75 -29 -103 -102 -103 l-54 0 3
33 c3 29 6 32 43 37 39 5 40 6 43 48 3 42 4 43 35 40 32 -3 32 -4 32 -55z"/>
</g>
</svg>
