<?xml version="1.0" standalone="no"?>
<!DOCTYPE svg PUBLIC "-//W3C//DTD SVG 20010904//EN"
 "http://www.w3.org/TR/2001/REC-SVG-20010904/DTD/svg10.dtd">
<svg version="1.0" xmlns="http://www.w3.org/2000/svg"
 width="1066.000000pt" height="1380.000000pt" viewBox="0 0 1066.000000 1380.000000"
 preserveAspectRatio="xMidYMid meet">
<metadata>
Created by potrace 1.16, written by Peter Selinger 2001-2019
</metadata>
<g transform="translate(0.000000,1380.000000) scale(0.100000,-0.100000)"
fill="#000000" stroke="none">
<path d="M4718 13710 c-19 -17 -25 -46 -9 -35 5 3 13 0 17 -7 4 -7 3 -10 -1
-5 -5 4 -17 -5 -27 -20 -10 -16 -18 -23 -18 -17 0 5 5 15 12 22 6 6 9 14 5 18
-11 11 -58 -49 -53 -69 4 -15 2 -16 -10 -6 -8 6 -14 7 -14 2 0 -6 -11 -22 -25
-37 -14 -15 -23 -32 -19 -37 3 -5 1 -15 -4 -22 -6 -7 -12 -65 -13 -129 -2 -64
-7 -114 -12 -111 -4 2 -19 -7 -33 -21 -18 -18 -24 -32 -20 -48 3 -13 3 -17 0
-10 -8 17 -27 15 -20 -3 3 -8 2 -14 -2 -14 -20 3 -30 -3 -42 -28 -7 -16 -12
-32 -11 -38 2 -5 0 -7 -4 -3 -7 7 -28 -11 -54 -44 -11 -15 -11 -21 0 -35 12
-16 12 -17 -2 -5 -13 10 -21 8 -43 -13 -14 -13 -26 -28 -26 -32 0 -5 -16 -25
-36 -46 -23 -23 -34 -43 -30 -52 3 -9 2 -13 -4 -10 -14 9 -81 -67 -74 -85 3
-8 2 -11 -2 -7 -6 6 -35 -22 -81 -77 -17 -20 -16 -29 3 -22 9 3 12 2 9 -4 -4
-6 -12 -10 -18 -9 -29 4 -37 -3 -37 -31 0 -16 4 -30 9 -30 4 0 12 -36 15 -80
4 -44 12 -80 17 -80 5 0 9 -11 9 -25 0 -18 5 -25 19 -25 11 0 21 4 23 10 2 5
29 10 60 11 48 2 60 6 75 26 10 14 26 34 36 45 9 12 17 24 17 27 0 3 14 22 30
41 37 44 41 49 61 80 9 14 26 36 38 50 29 35 31 38 75 103 22 31 43 57 48 57
4 0 8 6 8 14 0 7 10 25 23 39 52 60 66 78 72 96 3 11 12 22 20 25 8 3 15 12
15 21 0 8 4 15 9 15 5 0 13 9 16 20 4 11 10 18 15 15 18 -11 21 67 13 356 -8
281 -9 295 -25 279z"/>
<path d="M1916 13534 c-4 -10 -2 -12 6 -8 7 4 8 3 4 -4 -4 -6 -14 -8 -22 -5
-11 4 -15 0 -12 -13 2 -11 -3 -19 -13 -19 -20 0 -50 -30 -47 -47 2 -8 -4 -12
-16 -10 -14 3 -17 -1 -12 -13 3 -9 2 -13 -4 -10 -18 11 -11 -21 10 -45 11 -13
20 -30 20 -38 0 -8 6 -12 13 -9 9 3 13 -3 13 -17 -1 -13 5 -21 15 -20 11 1 15
-5 12 -16 -3 -9 3 -24 11 -33 9 -8 16 -20 16 -25 0 -8 11 -23 50 -69 5 -7 10
-17 10 -23 0 -17 47 -11 82 10 43 26 56 25 70 -5 8 -18 19 -25 40 -25 15 0 28
-4 28 -10 0 -5 12 -10 27 -10 l27 0 -29 30 c-19 19 -35 28 -46 25 -21 -7 -55
37 -44 55 4 6 -3 22 -15 35 -20 21 -22 29 -14 57 6 18 16 33 24 33 8 0 22 5
30 10 13 8 13 7 1 -9 -13 -15 -11 -20 12 -44 l26 -26 24 22 23 22 24 -25 23
-25 -22 -24 -23 -25 21 -30 c30 -42 70 -71 97 -71 25 0 71 38 99 83 17 27 17
28 -5 47 -26 23 -40 25 -40 8 0 -7 -11 -20 -23 -29 -18 -13 -26 -14 -38 -5
-33 25 -59 70 -59 102 0 22 -5 34 -14 34 -8 0 -16 7 -20 15 -3 8 -12 15 -21
15 -8 0 -15 4 -15 10 0 5 -11 12 -25 16 -14 3 -25 10 -25 15 0 5 -20 9 -45 9
-35 0 -52 6 -76 28 -17 15 -35 26 -40 25 -4 -2 -6 4 -3 12 6 14 -6 20 -29 16
-4 -1 -18 5 -30 14 -12 8 -16 15 -10 15 7 0 15 -4 18 -10 3 -5 11 -10 16 -10
12 0 -21 47 -38 54 -6 3 -14 -2 -17 -10z"/>
<path d="M6152 12253 c-1 -6 -18 -21 -38 -33 -20 -13 -33 -28 -30 -36 3 -9 0
-11 -12 -7 -15 6 -16 5 -2 -12 14 -17 14 -17 -6 -5 -19 12 -24 11 -47 -13 -13
-15 -30 -27 -36 -27 -6 0 -14 -7 -17 -15 -3 -8 -15 -17 -26 -21 -12 -3 -31
-16 -42 -29 -12 -12 -29 -26 -38 -31 -15 -8 -15 -13 -3 -39 36 -79 55 -125 55
-134 0 -6 4 -11 10 -11 5 0 12 -16 16 -35 3 -19 10 -35 15 -35 5 0 9 -6 9 -12
1 -7 9 -31 20 -53 11 -22 19 -48 20 -57 0 -10 4 -18 9 -18 12 0 22 -45 15 -64
-3 -8 -14 -18 -25 -21 -24 -8 -89 -69 -89 -84 0 -18 18 -13 22 7 2 9 3 -11 3
-46 0 -37 5 -66 12 -70 6 -4 15 -31 19 -60 3 -28 10 -52 14 -52 4 0 11 -20 14
-44 l7 -45 193 192 c107 106 190 194 186 197 -4 3 -11 26 -15 52 -4 26 -11 46
-15 43 -4 -3 -10 18 -14 45 -4 28 -11 50 -15 50 -5 0 -12 23 -16 50 -4 28 -11
50 -15 50 -5 0 -12 20 -16 45 -3 25 -10 45 -14 45 -5 0 -11 23 -15 50 -4 28
-11 48 -15 45 -4 -3 -11 17 -15 45 -4 27 -10 50 -15 50 -4 0 -11 20 -14 45 -4
25 -11 45 -16 45 -5 0 -11 15 -13 33 -2 17 -5 27 -5 20z"/>
<path d="M4716 11769 c-15 -12 -57 -51 -92 -86 -56 -56 -63 -67 -52 -81 11
-15 11 -15 -3 -4 -14 11 -21 8 -47 -18 -20 -19 -29 -37 -26 -48 5 -13 4 -14
-4 -3 -8 11 -14 9 -32 -9 -18 -18 -20 -24 -9 -31 12 -7 11 -9 -1 -10 -32 -3
-37 -5 -53 -21 -18 -17 -23 -33 -8 -24 5 3 12 -93 16 -214 4 -121 11 -222 15
-225 4 -3 11 -104 15 -225 4 -121 11 -217 16 -214 5 3 9 -38 9 -90 l0 -96 34
0 33 0 6 83 c4 45 7 124 7 175 0 50 4 92 8 92 5 0 12 74 15 165 4 131 9 168
21 181 9 9 14 20 11 25 -4 5 2 6 11 2 13 -5 16 -3 11 10 -3 9 -3 16 1 16 19
-3 32 2 32 12 0 6 -7 9 -15 5 -22 -8 -18 2 6 15 15 8 19 8 15 0 -4 -6 -2 -11
5 -11 19 0 80 68 68 76 -8 4 -8 9 -1 13 7 4 12 104 14 284 2 152 2 277 2 277
-1 0 -14 -10 -28 -21z"/>
<path d="M4229 10238 c-1 -7 -1 -16 0 -20 0 -4 -6 -5 -14 -2 -19 8 -59 -31
-49 -48 6 -10 5 -11 -7 -1 -11 9 -18 8 -33 -2 -10 -8 -16 -18 -12 -23 3 -4 -5
-8 -17 -8 -14 1 -22 -5 -21 -15 1 -11 -5 -15 -16 -12 -19 5 -53 -23 -45 -37 3
-4 -5 -6 -17 -2 -17 4 -20 2 -15 -11 3 -9 1 -19 -5 -23 -7 -5 -8 -2 -3 6 6 10
4 12 -9 7 -10 -4 -22 -7 -27 -7 -6 0 -7 -4 -4 -10 3 -5 1 -10 -5 -10 -6 0 -8
-4 -5 -10 3 -6 -1 -7 -9 -4 -9 3 -16 1 -16 -5 0 -6 -5 -11 -10 -11 -12 0 -73
-41 -78 -52 -2 -5 -9 -8 -16 -8 -6 0 -19 -9 -29 -20 -9 -11 -23 -20 -31 -20
-8 0 -16 -7 -20 -15 -3 -8 -12 -15 -21 -15 -8 0 -15 -4 -15 -9 0 -5 -12 -14
-27 -19 -18 -7 -22 -11 -10 -11 9 -1 17 -5 17 -10 0 -5 25 -12 55 -16 30 -3
55 -11 55 -16 0 -5 14 -9 30 -9 29 0 30 -2 30 -46 0 -25 -4 -43 -9 -40 -5 4
-11 -25 -13 -64 -2 -49 1 -70 9 -70 6 0 13 -4 15 -10 2 -5 18 -13 37 -16 24
-5 32 -4 27 4 -5 8 -1 10 10 5 10 -4 20 0 26 10 5 10 16 17 23 17 8 0 15 4 15
9 0 5 10 13 22 17 12 3 26 10 32 15 50 42 61 49 73 49 7 0 13 4 13 9 0 5 10
11 21 14 14 4 20 11 16 20 -4 10 0 13 12 10 10 -2 24 2 32 9 8 8 22 17 32 21
9 3 17 11 17 17 0 6 -4 9 -9 5 -5 -3 -12 -1 -16 4 -3 6 5 8 20 5 26 -5 111 37
100 48 -3 3 6 9 20 12 17 4 25 12 22 20 -4 10 0 12 14 9 12 -4 21 1 26 13 3
11 11 22 17 26 8 5 7 14 -3 30 -9 16 -9 19 -1 11 10 -9 16 -9 26 2 8 7 14 17
14 20 0 4 9 19 21 33 14 18 18 34 14 52 -4 19 -3 21 5 10 9 -13 11 -13 19 -1
10 15 -4 27 -61 53 -16 7 -28 16 -28 20 0 4 -6 8 -14 8 -8 0 -22 7 -31 16 -9
10 -29 17 -44 18 -19 1 -27 5 -23 14 2 8 -4 16 -17 19 -11 3 -21 9 -21 14 0 5
-6 9 -14 9 -8 0 -22 7 -30 16 -12 12 -16 12 -17 2z"/>
<path d="M2407 10215 c-9 -8 -19 -15 -24 -15 -13 0 -42 -37 -35 -45 4 -3 -2
-3 -13 1 -17 7 -18 6 -7 -8 11 -14 11 -16 -5 -12 -25 7 -69 -35 -69 -66 0 -43
37 -53 76 -20 13 11 27 20 32 20 13 0 38 26 32 33 -3 3 4 3 17 0 18 -5 21 -3
16 10 -3 9 -1 19 5 23 7 4 8 3 4 -4 -11 -18 20 -15 38 4 14 14 13 17 -9 38
-14 13 -25 28 -25 34 0 19 -18 23 -33 7z"/>
<path d="M1960 10190 c-13 -17 -28 -30 -33 -30 -5 0 -28 -19 -52 -42 -51 -50
-86 -78 -97 -78 -5 0 -20 -10 -33 -23 -14 -12 -46 -33 -72 -47 -26 -14 -53
-29 -59 -35 -6 -5 -21 -17 -33 -25 -15 -10 -17 -16 -8 -22 7 -5 0 -6 -15 -2
-17 4 -28 2 -28 -4 0 -6 -9 -14 -21 -17 -20 -7 -20 -8 6 -21 15 -8 45 -17 66
-20 22 -4 39 -10 39 -14 0 -4 20 -11 45 -14 25 -4 45 -11 45 -17 0 -5 10 -9
23 -9 12 0 34 -6 48 -14 23 -12 30 -11 65 10 21 13 59 33 84 46 25 13 47 26
50 29 3 3 33 22 68 43 l62 37 1 52 c1 29 0 67 -1 85 -1 18 3 32 10 32 7 0 10
17 8 48 l-3 47 -57 9 c-32 4 -58 12 -58 17 0 18 -26 7 -50 -21z"/>
<path d="M1058 9563 c-21 -5 -23 -19 -5 -27 6 -3 2 -3 -10 0 -12 3 -44 -5 -72
-18 l-51 -23 0 -67 c0 -38 -4 -68 -9 -68 -5 0 -11 -58 -12 -129 -2 -71 -7
-133 -12 -137 -4 -4 -32 -9 -62 -12 -45 -4 -55 -8 -55 -22 0 -10 -5 -20 -12
-22 -8 -3 -13 -46 -16 -139 -2 -74 -9 -139 -14 -146 -5 -7 -6 -18 -2 -24 4 -7
3 -9 -4 -5 -12 7 -35 -13 -60 -53 -9 -14 -22 -30 -29 -34 -7 -4 -13 -13 -13
-18 0 -6 -14 -24 -31 -41 -20 -20 -29 -38 -26 -50 4 -15 3 -17 -8 -8 -10 8
-15 6 -20 -9 -3 -10 -12 -22 -20 -25 -8 -3 -15 -13 -15 -21 0 -10 5 -13 12 -9
7 4 8 3 4 -5 -4 -6 -11 -9 -16 -6 -13 8 -52 -34 -46 -50 4 -11 -1 -12 -24 -4
-16 6 -31 17 -34 25 -3 8 -13 14 -21 14 -10 0 -13 -5 -9 -12 4 -7 3 -8 -5 -4
-6 4 -8 12 -5 18 4 6 1 14 -6 18 -9 5 -25 -3 -46 -23 -34 -32 -39 -51 -7 -26
16 13 17 12 4 -4 -7 -9 -19 -16 -25 -15 -26 5 -102 -55 -91 -73 4 -5 3 -9 -2
-8 -19 3 -32 -3 -67 -35 -25 -22 -36 -38 -31 -46 5 -9 4 -11 -4 -6 -16 10 -51
-3 -51 -20 0 -8 4 -14 8 -14 5 0 19 -9 32 -20 13 -12 29 -18 36 -16 7 3 12 0
10 -7 -1 -7 -1 -9 1 -4 3 4 12 7 21 7 10 0 30 7 45 15 15 8 43 17 62 21 19 3
35 10 35 15 0 5 10 9 23 9 12 1 40 9 62 20 22 11 50 19 63 20 12 0 22 4 22 9
0 5 18 12 40 16 22 4 40 10 40 15 0 4 16 11 35 14 29 6 35 12 41 41 3 19 10
33 14 30 5 -3 11 8 15 25 4 16 10 30 15 30 5 0 11 14 15 30 4 17 10 30 15 30
5 0 11 14 15 30 4 17 11 30 16 30 5 0 9 6 9 14 0 18 42 62 68 71 12 3 22 11
22 16 0 5 7 9 15 9 9 0 18 6 21 14 3 8 16 17 30 20 13 4 24 11 24 16 0 6 4 10
9 10 5 0 25 10 45 23 26 16 36 31 41 60 4 20 11 37 15 37 5 0 12 16 16 35 3
19 10 35 15 35 4 0 11 16 15 35 3 19 10 35 15 35 5 0 9 8 9 18 1 9 9 35 20 57
11 22 19 45 20 52 0 6 5 13 11 15 7 2 12 25 13 51 1 26 3 42 4 37 7 -21 21 -8
28 25 3 19 10 35 14 35 5 0 11 14 15 30 4 17 10 30 15 30 4 0 10 18 14 39 3
22 12 41 18 44 16 6 -154 170 -172 166 -3 -1 -13 -3 -22 -6z"/>
<path d="M8844 9113 c3 -7 -1 -10 -9 -7 -8 4 -15 -5 -20 -25 -4 -17 -10 -31
-15 -31 -5 0 -11 -13 -15 -30 -4 -16 -11 -30 -16 -30 -5 0 -9 -5 -9 -10 0 -6
-12 -37 -27 -70 l-26 -60 -115 0 c-100 0 -113 -2 -108 -16 3 -9 6 -25 6 -35 0
-11 4 -18 9 -15 5 4 12 -12 16 -34 4 -22 10 -40 15 -40 4 0 10 -18 14 -40 3
-22 10 -40 15 -40 5 0 12 -20 16 -45 3 -25 10 -43 14 -40 5 2 11 -13 15 -34 3
-21 13 -51 21 -67 8 -16 15 -35 15 -42 0 -8 14 -27 30 -44 17 -16 30 -25 30
-20 0 5 20 13 45 16 25 4 45 11 45 16 0 5 20 12 45 16 25 3 45 10 45 14 0 4
12 10 28 12 24 3 27 0 28 -23 1 -15 8 -35 18 -44 9 -9 16 -23 16 -32 0 -10 6
-13 16 -9 9 3 12 2 9 -5 -8 -11 63 -2 80 11 6 4 29 11 53 15 48 8 95 29 86 38
-3 3 3 3 15 0 12 -3 21 -1 21 3 0 5 25 20 55 34 30 14 53 30 51 35 -2 6 10 11
26 11 17 1 33 6 37 13 4 6 49 14 107 18 54 3 104 9 109 13 6 4 72 11 148 15
75 4 137 11 137 16 0 5 30 9 68 10 61 1 189 14 169 18 -5 0 6 14 23 29 24 22
30 35 26 56 -3 15 -1 24 5 21 5 -4 7 -11 4 -16 -13 -19 7 -8 30 19 48 54 47
52 34 70 -11 14 -11 15 0 5 10 -8 18 -7 32 5 10 9 19 22 19 29 0 7 5 13 11 13
21 0 -21 30 -50 36 -17 4 -31 10 -31 14 0 5 -13 11 -30 15 -16 4 -30 10 -30
15 0 4 -11 11 -25 14 -17 4 -31 20 -45 51 -11 24 -20 47 -20 50 0 4 -7 13 -15
21 -8 9 -15 24 -15 35 0 10 -7 19 -15 19 -8 0 -15 -4 -15 -9 0 -5 -31 -12 -70
-16 -38 -4 -70 -11 -70 -15 0 -4 -30 -11 -67 -15 -38 -4 -72 -11 -78 -15 -5
-4 -38 -11 -72 -15 l-63 -7 0 31 c0 17 -4 31 -10 31 -5 0 -10 10 -10 21 0 21
-3 22 -96 17 -53 -3 -99 -10 -103 -16 -3 -5 -27 -13 -54 -17 -26 -4 -50 -11
-52 -16 -3 -4 -26 -11 -50 -15 -25 -3 -45 -10 -45 -15 0 -5 -10 -9 -23 -9 -16
0 -30 12 -47 40 -14 22 -28 40 -32 40 -5 0 -8 6 -8 13 0 7 -10 21 -22 31 -17
15 -45 20 -130 25 -82 5 -107 3 -104 -6z"/>
<path d="M4137 8063 c-4 -3 -7 -17 -7 -30 0 -12 -4 -23 -9 -23 -5 0 -12 -18
-16 -40 -4 -22 -10 -40 -15 -40 -4 0 -11 -20 -14 -45 -4 -25 -11 -45 -16 -45
-4 0 -11 -18 -15 -40 -4 -22 -10 -40 -15 -40 -4 0 -10 -13 -13 -30 -4 -18 -13
-30 -22 -30 -8 0 -15 -4 -15 -10 0 -5 -7 -10 -16 -10 -9 0 -12 -5 -8 -12 5 -7
3 -8 -5 -3 -18 11 -61 -15 -61 -37 0 -10 -4 -18 -9 -18 -4 0 -11 -18 -14 -40
-7 -55 -21 -68 -78 -76 -27 -4 -47 -10 -44 -14 3 -4 -24 -11 -60 -15 -36 -3
-65 -10 -65 -15 0 -4 -27 -11 -60 -15 -33 -4 -63 -11 -66 -16 -3 -5 -15 -9
-28 -9 -13 0 -32 -8 -44 -17 -11 -10 -29 -24 -41 -32 -11 -8 -17 -19 -14 -24
3 -6 1 -7 -6 -3 -6 4 -18 1 -26 -6 -32 -29 -45 -38 -52 -38 -5 0 -16 -9 -26
-20 -9 -11 -24 -20 -32 -20 -8 0 -15 -4 -15 -8 0 -5 -26 -26 -57 -48 -32 -21
-64 -44 -70 -51 -7 -6 -17 -13 -22 -15 -15 -5 -1 -88 15 -88 8 0 14 4 14 9 0
5 20 12 45 15 25 4 45 11 45 16 0 5 20 12 45 16 25 3 45 10 45 14 0 5 18 11
40 15 22 4 40 10 40 15 0 4 23 11 50 15 28 4 50 11 50 15 0 5 20 12 45 16 25
3 45 10 45 14 0 4 20 11 45 14 24 4 47 11 50 16 3 4 23 11 45 15 22 4 40 11
40 15 0 5 20 12 45 16 25 3 45 10 45 14 0 5 18 11 40 15 22 4 40 10 40 15 0 4
21 11 46 15 33 5 43 10 36 18 -8 9 2 12 35 13 25 1 48 6 52 12 3 5 25 13 49
17 23 4 42 10 42 15 0 4 18 10 40 14 22 3 40 10 40 15 0 5 17 11 39 15 21 3
51 13 67 21 16 8 39 15 52 15 12 0 22 4 22 9 0 5 14 11 31 15 l30 6 -3 104
c-2 57 0 102 5 99 4 -2 7 5 7 16 0 12 4 21 9 21 5 0 12 20 15 45 4 25 11 45
15 45 5 0 12 20 15 45 4 25 11 45 15 45 5 0 12 20 15 45 4 25 11 45 17 45 5 0
9 9 9 20 0 19 -7 20 -223 20 -123 0 -227 -3 -230 -7z"/>
<path d="M8244 6767 c-3 -9 -19 -19 -35 -22 -16 -4 -29 -11 -29 -16 0 -5 -11
-11 -25 -15 -14 -3 -25 -10 -25 -15 0 -5 -6 -9 -14 -9 -16 0 -26 -69 -26 -177
0 -40 -4 -73 -8 -73 -10 0 -24 -234 -15 -256 3 -9 13 -14 24 -11 11 3 17 2 14
-3 -6 -10 51 -60 69 -60 12 0 25 24 30 55 1 6 9 9 19 7 9 -2 18 2 18 8 1 5 2
14 3 19 0 5 5 13 10 18 6 5 6 2 1 -7 -5 -9 0 -8 14 4 12 11 20 25 17 32 -3 7
0 11 7 8 16 -6 90 72 82 86 -3 6 0 7 9 4 20 -8 20 6 1 42 -8 16 -15 37 -15 48
0 12 -5 16 -14 13 -10 -4 -13 -1 -9 9 4 11 -5 14 -41 14 l-46 0 0 64 c0 60 21
125 43 134 4 2 7 10 7 18 0 9 -4 13 -9 10 -5 -3 -12 9 -15 28 -8 41 -33 67
-42 43z"/>
<path d="M1823 6387 c-18 -5 -33 -13 -33 -18 0 -4 -13 -10 -29 -14 -43 -9 -49
-21 -52 -112 -4 -75 -6 -83 -32 -103 -15 -12 -25 -26 -22 -31 4 -5 0 -6 -8 -3
-17 6 -120 -92 -112 -107 3 -5 0 -6 -8 -3 -18 6 -102 -70 -93 -85 5 -7 1 -8
-10 -4 -12 4 -15 3 -10 -5 5 -8 2 -10 -8 -6 -9 3 -16 1 -16 -4 0 -6 -9 -14
-20 -17 -11 -3 -20 -13 -20 -21 0 -19 25 -45 35 -36 4 4 5 2 4 -3 -4 -13 17
-51 42 -76 16 -16 34 -19 120 -19 l100 0 -3 124 c-2 94 0 122 9 119 16 -6 65
46 56 60 -3 6 -1 7 5 3 12 -7 18 -3 76 49 l33 30 8 135 c4 79 12 138 18 142
20 12 3 15 -30 5z"/>
<path d="M8194 5827 c-6 -7 -21 -19 -34 -27 -41 -28 -60 -47 -53 -54 4 -4 1
-5 -7 -2 -18 7 -64 -30 -55 -44 4 -6 0 -7 -10 -4 -10 4 -24 -2 -36 -15 -11
-11 -26 -21 -33 -21 -18 0 -28 -27 -13 -34 7 -3 -1 -2 -18 1 -26 6 -28 4 -17
-9 10 -13 10 -18 1 -24 -8 -4 -9 -3 -5 4 4 7 1 12 -9 12 -8 0 -18 -7 -21 -15
-4 -8 -12 -15 -19 -15 -6 0 -23 -9 -36 -20 -41 -34 -43 -35 -79 -60 -19 -14
-40 -29 -46 -35 -6 -5 -21 -16 -32 -24 -12 -8 -19 -18 -16 -22 2 -4 -6 -5 -18
-1 -14 3 -19 2 -14 -6 4 -7 4 -12 -1 -12 -4 0 -15 -5 -23 -10 -13 -8 -12 -11
3 -22 17 -13 17 -14 -2 -14 -11 0 -17 4 -15 8 11 17 -23 7 -39 -12 -9 -11 -23
-20 -31 -20 -15 0 -29 -26 -18 -33 4 -2 1 -2 -7 0 -7 2 -20 -2 -28 -9 -8 -6
-36 -13 -61 -13 -26 -1 -41 0 -34 2 21 8 13 20 -15 28 -15 3 -30 10 -33 13 -3
4 -41 25 -85 47 -44 22 -83 44 -86 48 -9 12 -50 -43 -42 -56 3 -6 1 -7 -5 -3
-12 7 -69 -46 -105 -99 -13 -19 -26 -32 -29 -29 -4 3 -9 -3 -12 -14 -4 -11
-13 -23 -21 -26 -8 -3 -15 -12 -15 -21 0 -14 16 -19 50 -16 13 2 13 1 1 -8
-12 -8 -11 -13 10 -30 13 -11 27 -20 31 -21 3 0 20 -14 37 -31 17 -17 38 -29
45 -26 11 5 14 -4 12 -39 -1 -25 -9 -49 -16 -54 -7 -4 -13 -21 -14 -38 -1 -17
-6 -28 -12 -25 -18 7 -24 -33 -24 -155 0 -98 2 -113 18 -118 9 -3 30 -12 47
-19 32 -15 49 -10 41 10 -2 7 3 12 12 11 10 0 17 6 17 16 0 9 4 20 9 25 5 5 6
2 1 -6 -5 -9 -3 -12 6 -9 8 3 14 17 13 31 -1 15 3 24 8 21 4 -3 6 -10 3 -15
-12 -18 11 -8 33 16 13 14 20 30 16 36 -4 8 -3 9 5 5 14 -9 96 69 87 83 -3 5
2 8 12 7 10 0 17 6 16 15 -1 9 6 16 15 15 11 -1 16 7 15 26 -1 15 3 25 8 22 4
-3 5 -10 2 -16 -4 -6 -1 -9 7 -6 8 3 13 12 13 20 -1 9 6 15 15 14 9 -1 15 6
15 16 -1 9 4 14 11 12 20 -8 28 15 13 34 -11 15 -11 16 3 4 17 -13 79 -6 79 8
0 5 14 11 30 15 17 4 28 11 24 16 -3 5 2 9 12 9 14 0 15 2 3 18 -10 13 -8 12
10 -3 l24 -20 -6 23 c-3 13 -3 21 0 18 10 -10 44 38 40 55 -3 11 0 16 7 13 7
-3 18 6 24 18 7 13 18 31 24 41 11 14 10 19 -2 28 -12 8 -11 9 6 5 15 -5 24 0
32 16 14 27 35 61 42 68 14 14 50 70 50 79 0 5 3 11 8 13 16 7 53 70 48 83 -3
9 0 12 10 8 7 -3 14 0 14 6 0 6 6 11 13 11 23 0 60 37 45 44 -7 3 -3 3 10 0
13 -3 28 1 38 10 8 9 22 16 30 16 16 0 18 12 4 26 -7 7 -6 11 4 11 8 0 12 -5
9 -10 -4 -6 3 -8 18 -4 13 4 28 7 32 7 5 0 5 4 2 10 -3 5 6 12 20 16 14 3 25
10 25 14 0 4 11 11 25 14 14 4 25 10 25 15 0 5 14 12 30 16 17 4 30 11 30 15
0 5 -16 26 -36 46 -29 28 -39 33 -46 22 -8 -10 -9 -9 -4 4 3 11 -4 28 -18 43
-26 28 -27 29 -42 12z"/>
<path d="M1878 3270 l3 -290 24 0 25 0 0 113 c0 106 1 114 25 140 28 30 55 36
55 11 0 -8 5 -12 10 -9 6 3 10 1 10 -5 0 -6 4 -8 10 -5 6 3 7 -1 4 -9 -3 -9
-1 -16 5 -16 6 0 11 -5 11 -11 0 -17 36 -59 44 -51 4 3 4 -2 0 -13 -6 -15 -4
-17 10 -12 10 4 15 3 11 -3 -4 -6 -3 -19 0 -31 5 -15 10 -17 20 -9 11 9 12 7
8 -8 -2 -10 2 -25 9 -33 8 -8 17 -22 21 -31 4 -13 17 -18 41 -18 30 0 34 3 29
18 -4 9 -12 22 -17 28 -6 6 -17 21 -25 32 -8 12 -18 19 -22 16 -4 -2 -5 5 -2
16 5 18 -4 25 -29 21 -4 0 -5 6 -2 14 8 19 -22 50 -30 32 -3 -6 -3 -1 0 12 7
28 -14 45 -35 28 -12 -10 -12 -9 -1 9 12 19 11 24 -2 37 -12 12 -18 13 -28 4
-8 -8 -8 -5 1 11 12 20 12 24 -3 33 -23 13 -23 21 5 51 55 61 67 80 61 90 -4
6 -3 8 4 4 6 -3 16 -1 22 6 42 50 50 63 46 75 -3 7 0 15 6 19 7 4 8 3 4 -4
-12 -20 8 -13 27 8 16 20 16 20 -28 20 -31 0 -45 -4 -45 -13 0 -8 -9 -22 -20
-32 -12 -10 -19 -24 -16 -31 3 -8 -1 -11 -10 -7 -10 4 -17 -2 -21 -16 -3 -11
-10 -21 -15 -21 -6 0 -7 -7 -4 -16 3 -8 2 -13 -3 -9 -10 6 -28 -10 -51 -45 -8
-13 -23 -30 -32 -39 -10 -8 -18 -24 -18 -34 0 -10 -4 -15 -10 -12 -5 3 -10 1
-10 -4 0 -6 -4 -11 -10 -11 -6 0 -10 55 -10 145 l0 145 -27 0 -28 0 3 -290z"/>
<path d="M2405 3542 c-41 -23 -66 -54 -61 -75 2 -10 0 -14 -6 -11 -7 5 -9 -12
-6 -49 5 -59 30 -102 54 -93 8 3 11 -1 7 -10 -4 -10 2 -17 16 -21 11 -3 21 -9
21 -13 0 -5 18 -11 40 -15 22 -4 40 -11 40 -17 0 -6 9 -8 20 -5 11 3 18 1 15
-4 -3 -5 3 -16 15 -26 11 -10 20 -24 20 -31 0 -11 3 -12 13 -4 10 9 12 3 9
-26 -3 -20 -9 -40 -14 -43 -6 -4 -11 -18 -11 -31 -2 -19 -6 -24 -21 -20 -12 3
-17 1 -12 -6 9 -15 -72 -26 -129 -18 -24 4 -47 11 -50 17 -9 14 -35 11 -35 -5
0 -8 -6 -17 -12 -20 -7 -3 1 -4 17 -1 27 5 28 4 10 -7 -19 -12 -19 -12 5 -19
36 -10 182 -11 176 0 -3 4 6 6 20 3 18 -3 31 3 49 22 14 15 23 32 20 37 -3 5
0 6 8 3 9 -3 17 3 21 18 9 34 7 110 -3 104 -4 -3 -6 6 -3 21 4 21 2 25 -11 20
-10 -4 -14 -2 -12 6 8 21 -12 40 -43 41 -18 1 -28 6 -25 13 2 6 -9 14 -26 18
-17 4 -31 10 -31 15 0 5 -13 11 -30 15 -16 4 -30 11 -30 17 0 6 -6 8 -13 5 -8
-3 -14 4 -15 16 0 12 -6 23 -12 25 -12 4 -14 62 -1 62 5 0 12 8 15 18 9 28 63
52 116 52 27 0 52 -4 55 -10 10 -17 42 -11 47 8 8 30 -25 42 -109 41 -53 -1
-88 -6 -108 -17z"/>
<path d="M2780 3270 l0 -290 25 0 25 0 0 140 0 140 155 0 155 0 0 -140 0 -140
25 0 25 0 0 290 0 290 -25 0 -25 0 0 -114 c0 -63 -3 -121 -6 -130 -5 -14 -28
-16 -155 -16 l-149 0 0 130 0 130 -25 0 -25 0 0 -290z"/>
<path d="M3493 3540 c-7 -10 -16 -37 -19 -59 -4 -23 -10 -39 -14 -36 -4 3 -10
-13 -14 -34 -3 -21 -13 -51 -21 -67 -8 -16 -15 -39 -15 -51 0 -13 -4 -23 -9
-23 -6 0 -13 -20 -17 -45 -3 -25 -10 -45 -14 -45 -5 0 -11 -18 -15 -40 -4 -22
-11 -42 -15 -45 -5 -3 -12 -26 -16 -50 -3 -25 -10 -45 -15 -45 -5 0 -9 -4 -9
-10 0 -18 60 -11 66 8 3 9 10 25 15 34 5 9 12 35 15 58 4 22 10 40 15 40 5 0
9 9 9 19 0 18 9 20 118 23 l117 3 2 -34 c1 -19 6 -37 11 -40 6 -3 13 -27 17
-53 4 -26 11 -45 16 -42 5 3 9 -2 9 -10 0 -12 10 -16 38 -16 21 0 32 4 25 8
-7 4 -15 27 -19 50 -4 23 -10 42 -15 42 -4 0 -11 16 -15 37 -4 20 -13 48 -20
62 -8 14 -14 36 -14 49 0 12 -4 22 -9 22 -6 0 -13 20 -17 45 -3 25 -10 45 -14
45 -5 0 -11 18 -15 40 -4 22 -10 40 -15 40 -4 0 -11 20 -14 45 -4 25 -11 45
-17 45 -5 0 -9 11 -9 25 0 22 -4 25 -38 25 -26 0 -41 -6 -49 -20z m70 -115 c4
-27 11 -51 16 -54 4 -4 11 -23 15 -44 4 -24 12 -37 19 -34 8 3 12 -10 13 -39
l1 -44 -93 0 c-51 0 -96 4 -99 10 -3 6 -2 10 4 10 5 0 13 20 17 45 3 25 10 45
14 45 5 0 11 18 15 40 4 22 11 42 16 46 5 3 9 14 9 24 0 10 5 31 10 45 8 22
12 24 23 13 8 -7 17 -35 20 -63z"/>
<path d="M3893 3548 l-23 -11 0 -280 0 -280 138 5 c94 4 146 10 164 20 15 8
25 18 22 21 -3 3 3 3 15 0 20 -5 26 5 22 30 -1 5 3 6 9 2 12 -7 60 42 60 61 0
8 4 14 10 14 5 0 12 23 16 50 4 28 11 53 15 56 12 7 12 84 0 84 -4 0 -11 21
-14 47 -3 26 -10 49 -16 51 -6 2 -11 9 -11 15 0 7 -4 18 -9 26 -8 12 -12 12
-25 2 -13 -11 -14 -9 -10 13 2 14 0 26 -5 26 -5 0 -17 7 -25 15 -9 9 -38 19
-65 22 -28 3 -48 10 -45 14 8 13 -197 10 -223 -3z m211 -36 c9 -15 76 -24 90
-13 9 7 12 4 13 -12 2 -15 0 -18 -6 -8 -6 9 -11 10 -15 2 -4 -6 -3 -11 2 -11
17 0 61 -48 68 -74 3 -14 10 -26 15 -26 5 0 9 -40 9 -90 0 -49 -4 -90 -9 -90
-5 0 -11 -13 -14 -30 -7 -31 -80 -110 -102 -110 -8 0 -15 -5 -17 -11 -2 -7
-40 -12 -98 -13 l-95 -1 -2 246 -2 246 79 2 c43 1 81 -2 84 -7z"/>
<path d="M4410 3535 c0 -14 4 -25 9 -25 5 0 12 -27 16 -60 4 -33 11 -62 15
-65 4 -3 11 -29 15 -58 4 -28 11 -54 14 -57 4 -3 12 -30 18 -60 22 -109 34
-155 43 -172 6 -10 10 -27 10 -38 0 -16 7 -20 34 -20 37 0 46 12 46 61 0 17 4
28 9 24 5 -3 13 20 16 50 4 30 11 55 15 55 5 0 12 25 15 55 4 30 11 55 15 55
4 0 11 27 15 60 4 33 11 60 16 60 5 0 9 16 9 35 0 24 5 35 15 35 11 0 15 -11
15 -40 0 -22 4 -40 9 -40 5 0 12 -29 16 -65 3 -36 10 -65 15 -65 4 0 10 -27
14 -60 4 -33 11 -62 15 -65 5 -3 12 -32 16 -65 4 -33 11 -60 16 -60 5 0 9 -6
9 -13 0 -8 14 -14 34 -15 34 -2 34 -2 41 48 4 27 10 50 15 50 4 0 11 25 15 55
3 30 10 55 15 55 4 0 11 23 15 50 4 28 11 50 15 50 4 0 11 27 15 60 4 33 11
58 15 55 5 -3 12 19 15 50 4 30 11 52 16 49 5 -3 9 9 9 25 0 28 -3 31 -30 31
-28 0 -30 -3 -36 -50 -4 -27 -10 -50 -14 -50 -4 0 -11 -25 -15 -55 -3 -30 -10
-57 -15 -60 -5 -3 -12 -30 -15 -60 -4 -30 -11 -55 -15 -55 -4 0 -11 -27 -15
-60 -4 -33 -11 -63 -16 -66 -5 -3 -9 -14 -9 -25 0 -10 -4 -19 -10 -19 -5 0
-12 27 -16 60 -4 33 -10 60 -14 60 -4 0 -11 29 -15 65 -3 36 -10 67 -15 70 -5
3 -12 30 -15 60 -4 31 -11 57 -15 60 -5 3 -11 32 -15 65 l-7 60 -34 0 c-24 0
-34 -5 -34 -15 0 -8 -5 -15 -11 -15 -7 0 -10 -13 -7 -34 2 -19 0 -32 -4 -30
-4 3 -8 -6 -8 -20 0 -14 -4 -26 -9 -26 -5 0 -12 -25 -16 -55 -3 -30 -10 -57
-15 -60 -4 -3 -11 -28 -15 -55 -4 -27 -11 -52 -15 -55 -5 -3 -12 -35 -15 -71
-6 -52 -11 -64 -24 -62 -12 2 -18 22 -25 81 -5 42 -12 77 -17 77 -4 0 -10 27
-14 60 -4 33 -11 62 -15 65 -4 3 -11 32 -15 65 -4 33 -11 60 -16 60 -5 0 -9
10 -9 23 0 49 -11 67 -41 67 -24 0 -29 -4 -29 -25z"/>
<path d="M5190 3270 l0 -290 165 0 165 0 -3 23 c-2 21 -6 22 -132 27 l-130 5
-3 88 c-6 144 -12 137 123 137 108 0 115 1 115 20 0 19 -7 20 -114 20 -134 0
-131 -2 -120 110 4 44 3 74 -4 82 -8 10 16 12 119 10 l129 -3 0 30 0 31 -155
0 -155 0 0 -290z"/>
<path d="M5630 3270 l0 -290 155 0 155 0 0 25 0 25 -130 0 -131 0 3 113 3 112
111 3 c102 2 112 4 117 22 5 19 0 20 -114 20 l-119 0 0 100 0 100 120 0 120 0
0 30 0 30 -145 0 -145 0 0 -290z"/>
<path d="M6067 3553 c-4 -3 -7 -134 -7 -290 l0 -283 30 0 30 0 0 119 0 119 91
4 c50 2 94 9 97 15 4 6 16 13 27 17 35 10 60 72 60 147 0 65 -1 68 -38 103
-22 21 -49 36 -63 36 -13 0 -24 5 -24 10 0 11 -192 14 -203 3z m178 -43 c3 -5
13 -10 22 -10 21 0 63 -41 63 -62 0 -10 5 -18 10 -18 12 0 14 -57 2 -62 -5 -1
-12 -16 -16 -31 -4 -16 -3 -26 2 -23 4 2 14 0 22 -5 11 -6 5 -8 -17 -4 -23 4
-34 1 -41 -12 -7 -12 -29 -17 -90 -21 l-81 -5 -3 130 -3 130 62 2 c34 1 64 -3
68 -9z"/>
<path d="M1466 3486 c-5 -24 -2 -43 9 -59 14 -22 13 -26 -30 -76 -25 -29 -45
-61 -45 -72 0 -10 -4 -19 -9 -19 -6 0 -13 -20 -17 -45 -3 -25 -10 -45 -15 -45
-4 0 -11 -20 -15 -45 -3 -25 -10 -45 -14 -45 -4 0 -11 -17 -15 -37 -4 -21 -11
-43 -16 -49 -6 -7 2 -11 26 -12 29 -1 35 2 35 18 0 11 4 20 9 20 5 0 12 20 15
45 4 25 11 45 16 45 5 0 10 12 12 28 l3 27 112 3 112 3 7 -28 c4 -15 10 -32
14 -38 5 -5 11 -27 15 -47 4 -21 11 -38 16 -38 5 0 9 -9 9 -20 0 -16 7 -20 35
-20 19 0 35 5 35 10 0 6 -4 10 -9 10 -5 0 -12 18 -16 40 -4 22 -10 40 -15 40
-4 0 -11 20 -14 45 -4 25 -11 45 -15 45 -5 0 -12 20 -15 45 -4 25 -11 45 -16
45 -5 0 -12 20 -16 45 -3 25 -10 45 -14 45 -5 0 -11 18 -15 40 -4 22 -11 42
-16 46 -5 3 -9 13 -9 23 0 14 -6 17 -26 13 -24 -4 -25 -7 -18 -46 3 -22 10
-43 14 -46 5 -3 11 -23 16 -45 4 -22 10 -42 15 -45 4 -3 10 -22 14 -43 l7 -37
-92 0 -93 0 7 42 c4 23 11 47 16 53 4 5 11 27 15 48 4 20 11 37 15 37 4 0 11
20 14 45 6 36 4 48 -12 65 l-20 21 -6 -35z"/>
<path d="M5984 1662 c-12 -9 -32 -24 -44 -32 -12 -8 -36 -27 -54 -42 -17 -15
-39 -30 -48 -34 -17 -5 -22 -17 -19 -37 1 -5 -3 -6 -9 -2 -5 3 -31 -9 -58 -27
-52 -37 -63 -48 -56 -60 3 -4 -3 -5 -12 -1 -13 5 -16 2 -12 -8 4 -11 0 -15
-14 -15 -12 1 -23 -5 -26 -13 -2 -8 0 -11 5 -8 5 3 10 0 10 -8 0 -10 -4 -12
-12 -5 -15 13 -43 3 -70 -25 -11 -12 -28 -24 -37 -28 -10 -3 -18 -16 -18 -27
0 -11 -4 -20 -10 -20 -5 0 -10 -15 -10 -32 -1 -18 -7 -51 -15 -73 -8 -22 -15
-50 -15 -61 0 -12 -11 -29 -25 -38 -13 -9 -37 -28 -53 -44 -15 -15 -50 -45
-77 -67 -27 -22 -63 -53 -80 -70 -99 -94 -209 -191 -226 -199 -11 -5 -18 -15
-15 -23 3 -7 2 -12 -2 -12 -23 4 -34 -3 -28 -17 3 -8 2 -13 -3 -9 -5 3 -15 -1
-23 -8 -7 -7 -21 -16 -31 -20 -10 -4 -15 -11 -12 -17 4 -7 -82 -10 -256 -10
l-261 0 3 -73 c3 -40 10 -79 17 -87 41 -48 52 -65 52 -77 0 -8 5 -11 10 -8 6
3 10 0 10 -8 0 -15 35 -59 45 -57 4 1 10 -2 13 -6 4 -4 1 -4 -5 0 -8 4 -13 1
-13 -8 0 -9 4 -16 9 -16 5 0 13 -9 16 -21 4 -11 13 -18 20 -16 7 3 12 -1 11
-11 -1 -14 16 -15 144 -13 108 2 155 7 183 19 20 9 37 19 37 24 0 4 5 8 11 8
14 0 102 42 109 52 3 3 18 10 33 13 15 4 27 11 27 15 0 5 14 11 31 15 17 4 28
12 26 18 -3 7 7 12 25 13 17 1 33 6 37 12 3 6 19 14 34 17 15 4 27 11 27 16 0
5 6 9 14 9 9 0 15 19 20 58 5 50 30 118 47 132 4 3 10 16 14 30 4 13 14 30 21
38 8 7 14 20 14 28 0 8 4 14 9 14 5 0 12 11 15 25 4 14 11 23 16 20 6 -3 10
-1 10 6 0 6 13 34 30 60 16 27 32 60 36 74 3 14 9 25 13 25 3 0 18 21 31 48
14 26 28 48 33 50 4 2 7 8 7 14 0 6 13 32 29 58 16 27 27 51 23 56 -4 4 -2 4
5 0 7 -4 25 1 40 11 39 24 39 23 25 32 -6 4 4 7 24 7 19 0 38 5 42 11 4 6 17
13 29 17 13 4 26 18 29 31 3 13 12 26 20 29 8 3 14 12 14 20 0 8 3 16 8 18 4
2 18 25 32 53 25 50 34 64 59 91 8 9 14 28 15 43 1 17 6 27 13 24 6 -2 14 6
18 18 4 13 13 29 19 36 30 34 36 43 36 58 0 8 -6 15 -14 15 -8 0 -16 4 -18 9
-6 19 -53 21 -74 3z"/>
</g>
</svg>
