<?xml version="1.0" standalone="no"?>
<!DOCTYPE svg PUBLIC "-//W3C//DTD SVG 20010904//EN"
 "http://www.w3.org/TR/2001/REC-SVG-20010904/DTD/svg10.dtd">
<svg version="1.0" xmlns="http://www.w3.org/2000/svg"
 width="1247.000000pt" height="873.000000pt" viewBox="0 0 1247.000000 873.000000"
 preserveAspectRatio="xMidYMid meet">
<metadata>
Created by potrace 1.16, written by Peter Selinger 2001-2019
</metadata>
<g transform="translate(0.000000,873.000000) scale(0.100000,-0.100000)"
fill="#000000" stroke="none">
<path d="M6104 8329 c-14 -16 -26 -19 -52 -14 -49 9 -69 -1 -76 -39 -4 -19
-20 -51 -37 -72 -18 -23 -27 -44 -23 -53 27 -65 10 -77 -121 -86 -118 -9 -136
-14 -154 -49 -8 -14 -24 -29 -35 -32 -34 -10 -55 -34 -62 -71 -7 -39 -24 -50
-78 -51 -55 -2 -71 -9 -84 -37 -10 -21 -19 -25 -54 -25 -33 0 -47 -6 -65 -27
-13 -14 -23 -32 -23 -38 0 -28 -48 -45 -105 -39 -54 7 -105 -7 -105 -28 0 -20
-37 -48 -63 -48 -46 0 -87 -29 -87 -63 0 -58 -129 -147 -214 -147 -21 0 -39
-12 -70 -44 -33 -35 -54 -48 -104 -62 -36 -10 -62 -23 -62 -31 0 -7 -4 -13 -9
-13 -5 0 -12 -8 -16 -19 -8 -25 -32 -51 -80 -86 -66 -49 -85 -73 -85 -110 0
-43 -11 -49 -88 -50 -49 0 -67 -4 -76 -17 -7 -10 -18 -18 -25 -18 -6 0 -11 -4
-11 -10 0 -5 -16 -10 -35 -10 -31 0 -47 -11 -120 -82 -47 -45 -85 -88 -85 -94
0 -7 12 -26 26 -43 27 -33 25 -44 -13 -74 -18 -14 -21 -24 -16 -50 3 -18 14
-42 23 -54 13 -17 16 -34 13 -67 -5 -42 -4 -46 23 -58 51 -23 59 -35 45 -74
-11 -32 -10 -36 20 -74 36 -44 55 -54 92 -45 27 7 87 -18 87 -37 0 -7 15 -9
42 -5 25 3 55 0 75 -8 25 -11 39 -11 62 -2 27 10 32 8 56 -17 22 -24 28 -26
43 -14 9 7 20 18 24 23 5 6 23 1 50 -14 l42 -24 21 27 c11 14 28 26 36 26 25
0 113 -33 128 -47 29 -30 53 -4 97 104 24 60 46 77 90 70 20 -3 39 -9 43 -12
3 -4 5 -33 4 -64 -2 -53 0 -59 22 -69 28 -13 30 -23 14 -55 -11 -19 -7 -25 25
-53 l37 -32 -22 -21 c-19 -17 -21 -27 -16 -70 6 -47 4 -52 -24 -76 -33 -27
-40 -29 -54 -16 -6 5 -37 16 -69 26 -58 16 -60 16 -85 -4 -54 -43 -71 -53 -93
-52 -13 1 -57 4 -99 7 -72 5 -78 4 -124 -25 -27 -17 -56 -31 -65 -31 -20 0
-80 -57 -80 -76 0 -8 8 -14 18 -14 25 0 64 -30 58 -45 -2 -7 6 -18 19 -25 19
-10 23 -19 18 -40 -3 -15 0 -37 6 -49 11 -19 9 -21 -21 -21 -41 0 -116 -34
-125 -56 -4 -11 8 -28 38 -55 47 -41 87 -50 109 -24 18 22 35 18 51 -12 15
-27 73 -58 90 -47 23 14 40 -19 38 -78 -2 -47 2 -61 17 -73 18 -13 18 -15 -13
-45 -29 -28 -31 -34 -20 -57 9 -21 8 -27 -7 -39 -28 -20 -104 -29 -131 -14
-12 7 -27 26 -32 44 -7 25 -14 32 -40 34 -22 2 -38 -3 -52 -17 -24 -24 -26
-48 -6 -75 19 -25 19 -50 0 -66 -20 -16 -19 -40 1 -55 15 -11 15 -14 1 -36
-18 -27 -12 -43 21 -53 18 -6 22 -15 22 -48 0 -31 6 -45 25 -60 14 -11 32 -33
40 -49 14 -27 14 -29 -8 -44 -13 -8 -29 -27 -36 -41 -11 -24 -15 -26 -59 -20
-26 4 -68 9 -94 12 -35 4 -48 10 -48 22 0 12 -3 13 -12 4 -21 -21 -65 -14 -87
14 -22 28 -27 78 -12 104 15 22 4 29 -32 19 -40 -11 -67 -43 -67 -79 0 -40
-19 -52 -63 -39 -37 10 -62 28 -69 51 -5 15 -29 4 -122 -61 -47 -32 -50 -33
-63 -16 -7 11 -13 33 -13 51 0 40 -18 57 -43 40 -9 -7 -17 -18 -17 -25 0 -6
-4 -11 -10 -11 -19 0 -10 -25 13 -35 34 -15 35 -67 1 -94 -30 -23 -73 -28 -92
-9 -7 7 -12 24 -12 39 0 18 -6 28 -20 32 -31 8 -26 50 10 80 26 22 30 32 30
76 0 36 -4 51 -13 51 -23 0 -57 -45 -57 -74 0 -15 -9 -39 -20 -54 -20 -27 -20
-30 -4 -67 9 -21 27 -55 40 -74 29 -44 30 -61 3 -95 -14 -17 -30 -26 -50 -26
-38 0 -37 16 1 24 33 6 46 26 35 54 -6 15 -8 15 -18 1 -15 -20 -51 -39 -74
-39 -10 0 -24 -4 -32 -9 -12 -8 -9 -15 13 -41 25 -30 31 -52 13 -51 -3 0 -17
-10 -31 -24 -27 -27 -62 -24 -71 5 -6 19 13 60 27 60 5 0 8 7 8 15 0 21 -14
19 -35 -5 -10 -12 -25 -18 -32 -16 -25 10 -16 -58 11 -83 26 -25 24 -53 -3
-50 -29 4 -51 -13 -51 -37 0 -24 -2 -24 -52 -18 -29 4 -59 11 -65 17 -20 15
-15 -1 9 -33 18 -25 20 -33 10 -55 -7 -14 -23 -30 -36 -37 -35 -15 -67 8 -103
73 -29 55 -46 64 -51 29 -2 -13 14 -41 47 -79 28 -32 51 -61 51 -64 0 -17 -51
-57 -72 -57 -25 0 -70 40 -81 73 -6 15 -13 17 -42 11 -31 -5 -35 -4 -35 14 0
27 -17 37 -60 37 -32 0 -36 3 -50 43 -12 36 -19 43 -40 41 -46 -2 -58 1 -64
19 -3 9 -11 24 -17 33 -10 13 -7 27 14 71 35 73 49 84 87 68 16 -7 37 -23 46
-37 l16 -26 20 32 c23 35 31 37 73 15 65 -34 113 -45 135 -32 11 7 20 16 20
21 0 4 20 28 45 53 53 53 52 66 -5 106 -48 33 -52 62 -14 104 22 25 24 35 20
73 -4 25 -15 54 -26 66 -11 12 -20 31 -20 42 0 12 -6 23 -13 26 -7 2 -21 21
-32 41 l-19 36 54 50 c30 27 57 50 60 50 3 0 11 -14 18 -30 18 -39 41 -38 69
3 42 61 48 95 27 136 -21 41 -72 91 -91 91 -17 0 -16 19 2 50 8 14 14 43 15
66 0 56 -24 78 -82 72 -90 -10 -205 -49 -215 -75 -7 -18 -33 -16 -33 2 0 21
-13 19 -28 -5 -7 -11 -17 -20 -22 -20 -6 0 -18 9 -27 20 -21 24 -39 26 -47 5
-3 -9 -18 -15 -39 -15 -19 0 -40 7 -47 15 -7 8 -18 15 -25 15 -7 0 -18 -7 -25
-15 -7 -8 -23 -15 -36 -15 -19 0 -26 7 -30 30 -7 32 -28 40 -38 15 -7 -19
-106 -21 -124 -3 -16 16 -15 73 1 99 10 17 9 22 -7 34 -23 17 -15 65 11 65 17
0 83 -66 83 -82 0 -5 10 -2 22 6 12 9 35 16 50 16 17 0 28 5 28 14 0 8 15 19
33 26 31 11 31 11 12 26 -15 12 -34 14 -79 10 -63 -6 -86 3 -86 35 0 13 9 19
33 21 30 3 32 5 29 38 -2 19 -9 41 -15 49 -6 7 -16 22 -22 34 -9 18 -18 20
-75 18 -57 -2 -69 -6 -97 -33 -31 -30 -63 -101 -63 -139 0 -10 -13 -28 -30
-41 -16 -12 -30 -28 -30 -35 0 -37 -73 -32 -85 6 -5 16 -16 21 -53 23 -48 3
-47 2 -82 78 -4 8 -23 16 -43 18 -28 3 -37 -1 -42 -17 -7 -24 2 -61 15 -61 25
0 39 -32 33 -79 l-5 -48 46 -17 c25 -9 66 -23 91 -32 53 -18 56 -32 14 -59
-16 -11 -39 -34 -49 -51 -20 -31 -20 -31 -67 -20 -27 6 -53 14 -60 18 -6 5
-14 35 -18 68 -7 63 -23 77 -43 38 -22 -46 -23 -81 -5 -130 12 -34 14 -51 7
-56 -6 -4 -19 -32 -27 -62 -12 -40 -25 -60 -47 -75 -46 -31 -40 -49 15 -42 42
6 45 5 45 -17 0 -30 23 -50 48 -41 12 3 26 -1 36 -10 15 -15 13 -20 -19 -58
-19 -22 -35 -46 -35 -52 0 -7 -13 -30 -28 -51 -50 -70 -49 -103 2 -63 l26 20
27 -21 c14 -11 31 -31 37 -43 8 -15 22 -23 44 -25 44 -4 49 -24 21 -76 -19
-37 -21 -47 -10 -60 8 -9 24 -16 36 -16 15 0 24 -7 28 -22 3 -13 13 -43 22
-67 19 -51 13 -75 -28 -112 l-31 -28 13 -73 c13 -72 14 -102 8 -248 -3 -87 -9
-98 -60 -124 -27 -14 -40 -28 -44 -49 -3 -16 -11 -30 -17 -32 -6 -2 -32 -9
-58 -15 -27 -7 -48 -18 -48 -26 0 -7 -11 -21 -25 -32 -22 -17 -36 -19 -104
-15 l-78 6 -12 -33 c-6 -18 -11 -48 -11 -66 0 -23 -8 -41 -27 -59 -15 -14 -31
-25 -35 -25 -17 0 -28 -39 -17 -63 10 -22 14 -23 49 -13 37 9 40 8 74 -27 36
-39 60 -41 69 -6 3 10 9 19 14 19 11 -1 103 -126 103 -140 0 -7 -20 -11 -52
-10 -54 2 -135 -21 -153 -43 -5 -7 -30 -28 -53 -46 -43 -33 -45 -34 -94 -23
-64 15 -103 15 -156 -1 -48 -15 -62 -29 -62 -68 0 -38 37 -173 49 -177 6 -2
11 -10 11 -18 0 -9 11 -14 30 -14 17 0 30 4 30 10 0 5 7 7 15 4 8 -4 15 -12
15 -18 0 -7 11 -23 25 -36 25 -23 25 -24 6 -44 -10 -12 -21 -37 -25 -57 -4
-21 -13 -42 -21 -49 -8 -7 -15 -27 -15 -44 0 -23 -7 -36 -30 -51 -16 -11 -30
-25 -30 -31 0 -19 -34 -42 -62 -42 -45 1 -156 -62 -173 -98 -15 -31 -62 -84
-75 -84 -4 0 -24 7 -45 16 -34 14 -39 14 -63 -2 -35 -23 -53 -47 -42 -57 4 -5
17 -4 27 2 25 13 58 -8 67 -44 6 -23 9 -25 49 -19 57 9 74 19 81 49 5 19 13
25 35 25 34 0 71 -30 71 -57 0 -77 -66 -133 -155 -133 -73 0 -95 -21 -95 -90
0 -49 22 -110 39 -110 12 0 31 -73 25 -98 -5 -18 -2 -22 19 -22 14 0 27 -6 30
-14 6 -14 -32 -76 -47 -76 -5 0 -14 -8 -21 -17 -10 -13 -10 -23 -1 -42 27 -58
52 -92 74 -98 35 -9 156 44 192 83 24 27 38 34 69 34 41 0 97 -31 115 -65 6
-11 28 -41 50 -68 36 -44 37 -49 26 -77 -7 -16 -18 -35 -26 -41 -22 -18 -18
-102 8 -146 27 -47 35 -53 75 -53 19 0 43 -10 61 -25 36 -31 50 -33 230 -44
101 -7 150 -14 167 -25 13 -9 31 -16 39 -16 15 0 86 -30 96 -40 3 -3 22 -16
42 -30 39 -26 65 -73 70 -125 3 -26 9 -31 43 -40 22 -5 51 -18 65 -28 37 -26
52 -20 23 9 -26 26 -26 27 -8 40 17 13 22 11 42 -13 13 -15 22 -32 20 -37 -3
-6 8 -12 24 -13 16 -1 28 3 26 8 -4 19 52 53 88 53 36 0 69 -25 94 -72 11 -21
67 -43 106 -41 l20 0 -20 9 c-11 5 -16 9 -11 9 5 1 0 9 -10 18 -32 28 -64 80
-56 88 4 5 2 5 -4 2 -6 -3 -21 8 -33 24 -21 28 -22 33 -7 47 14 14 17 14 35
-3 11 -9 18 -21 16 -25 -3 -4 2 -11 11 -14 9 -4 14 -9 11 -13 -12 -11 63 -91
90 -96 63 -12 101 40 67 89 -11 15 -24 35 -30 45 -6 10 -18 27 -27 37 -10 10
-17 24 -17 30 0 7 -5 12 -11 12 -5 0 -7 4 -4 10 3 5 1 10 -4 10 -6 0 -11 5
-11 11 0 6 7 8 16 5 8 -3 12 -2 9 4 -3 6 -2 10 2 10 5 0 17 -14 27 -31 10 -18
26 -40 35 -49 24 -27 52 -69 49 -74 -2 -2 7 -15 20 -29 l22 -24 -50 -47 c-27
-25 -63 -49 -80 -52 -33 -7 -39 -18 -14 -28 31 -12 60 -6 99 22 36 24 51 27
137 30 92 4 99 3 132 -23 l35 -27 61 31 60 31 42 -41 c42 -40 44 -41 95 -35
30 3 54 2 58 -4 3 -5 21 -17 40 -26 30 -14 34 -20 33 -50 -1 -28 7 -43 40 -77
23 -24 42 -47 42 -52 0 -6 -14 -22 -31 -36 -26 -21 -31 -31 -25 -52 5 -20 16
-29 49 -37 23 -7 66 -23 95 -36 46 -22 58 -24 87 -14 19 6 37 16 40 21 4 5 35
9 71 9 64 0 65 0 71 30 3 17 14 35 24 41 11 5 19 21 19 34 0 15 10 31 25 41
25 17 42 16 199 -8 17 -3 18 5 17 101 -1 58 -4 108 -7 113 -11 17 17 45 58 57
97 29 155 82 137 126 -4 11 -8 37 -8 57 -1 31 3 37 22 40 15 2 21 9 20 23 -2
11 3 30 9 42 10 20 18 23 74 21 l63 -2 58 61 c47 49 69 63 118 79 33 10 83 18
110 17 28 -1 56 3 62 9 9 7 25 5 54 -6 52 -21 75 -14 120 38 21 23 53 50 72
61 l36 19 27 -27 c21 -21 36 -27 69 -27 50 0 59 -9 111 -109 22 -40 50 -85 63
-99 30 -33 35 -94 8 -100 -10 -2 -24 4 -31 14 -13 17 -15 17 -50 0 -36 -17
-38 -17 -81 4 -55 27 -85 20 -85 -19 0 -19 8 -32 26 -41 19 -11 24 -19 20 -36
-4 -13 0 -28 8 -36 55 -53 135 -108 157 -108 9 0 28 10 43 21 36 29 138 27
157 -3 10 -15 76 -12 115 7 30 14 53 17 114 12 55 -4 84 -2 102 8 15 7 40 16
57 20 19 4 37 18 48 36 15 25 23 29 63 29 25 0 50 4 56 8 19 13 44 56 44 77 0
27 40 65 67 65 11 0 28 9 38 20 16 18 26 19 89 14 79 -7 90 -13 112 -59 24
-51 92 -60 169 -23 l45 22 33 -32 c36 -35 52 -39 81 -17 17 13 22 13 39 -3 27
-24 146 -24 171 1 21 21 30 21 46 2 7 -8 23 -15 36 -15 30 0 53 43 61 113 10
91 48 119 113 82 34 -19 114 -19 130 0 7 8 22 15 34 15 11 0 41 14 65 30 24
17 50 30 56 30 16 0 25 23 25 61 0 21 5 29 18 29 38 -1 109 -22 134 -41 23
-16 42 -19 106 -18 85 3 132 -16 132 -53 0 -22 28 -80 43 -89 5 -4 23 -2 39 3
16 6 42 8 58 4 16 -3 45 1 64 9 33 14 36 14 60 -8 14 -13 50 -29 80 -36 30 -7
60 -19 66 -27 15 -17 54 -18 83 -2 12 7 54 13 92 14 145 4 185 11 210 39 13
14 29 25 35 25 5 0 10 4 10 10 0 5 19 14 42 20 80 22 172 -19 220 -96 15 -25
38 -48 51 -53 28 -11 39 -25 57 -71 8 -19 19 -38 24 -42 7 -5 5 -8 -4 -8 -25
0 57 -39 120 -57 46 -12 63 -14 72 -5 9 9 7 17 -7 32 -11 12 -41 54 -67 93
-42 65 -46 73 -31 84 14 11 19 9 34 -14 10 -15 16 -31 13 -35 -3 -5 -1 -7 4
-6 15 4 93 -104 88 -119 -3 -7 -2 -12 2 -12 21 3 23 -4 7 -27 -20 -30 -9 -44
36 -44 28 0 48 14 73 50 16 24 23 91 9 89 -38 -6 -55 6 -100 71 -34 49 -53 69
-65 66 -23 -5 -40 15 -28 34 6 10 2 23 -16 41 -22 23 -24 30 -14 49 11 21 12
21 45 -17 l33 -38 24 23 c26 23 44 30 32 10 -4 -7 -3 -8 5 -4 6 4 9 12 6 17
-4 5 1 12 9 15 12 4 13 11 6 24 -5 9 -6 21 -2 25 4 5 2 5 -4 2 -17 -10 -37 19
-29 43 5 17 10 19 21 9 8 -6 14 -17 14 -23 0 -6 11 -19 24 -28 24 -17 24 -17
36 28 14 49 88 133 117 134 12 1 39 41 54 83 11 30 11 50 1 107 -19 111 -16
166 11 203 13 18 28 48 33 67 13 46 50 65 99 51 33 -9 37 -8 46 15 5 14 9 28
9 32 0 3 11 16 23 27 13 11 26 36 30 57 3 20 16 51 29 68 18 25 24 49 29 115
5 81 7 86 46 132 23 26 47 46 55 44 49 -13 85 -12 97 3 7 9 20 16 28 16 8 0
35 14 59 32 48 34 75 32 83 -8 4 -25 20 -44 36 -44 8 0 37 23 65 51 50 49 53
51 95 45 41 -7 45 -5 108 49 36 30 70 55 74 55 13 0 73 60 73 73 0 6 14 26 31
43 29 30 31 35 20 65 -14 40 -14 108 0 163 11 44 47 76 86 76 30 0 70 41 78
80 4 19 18 51 31 72 13 21 24 43 24 49 0 57 116 129 209 129 79 0 93 17 57 64
-34 46 -33 85 3 127 66 75 50 177 -24 149 -39 -15 -49 -13 -60 13 -8 19 -18
22 -60 22 -42 0 -52 3 -60 23 -5 12 -15 22 -22 22 -6 0 -39 27 -72 60 -55 55
-65 60 -104 60 -33 0 -51 7 -77 30 -19 16 -43 29 -53 30 -11 0 -46 -20 -78
-45 -33 -25 -66 -45 -75 -45 -19 0 -76 29 -87 44 -16 23 12 176 32 176 4 0 24
15 44 33 34 30 38 38 40 93 2 59 2 60 -45 105 -44 42 -48 49 -48 93 0 47 0 48
28 41 42 -10 113 -46 153 -77 44 -34 110 -38 186 -11 64 22 217 21 242 -1 24
-22 67 -20 102 5 23 16 38 20 64 15 19 -4 35 -10 35 -15 0 -9 113 -34 150 -33
14 1 42 -6 64 -14 53 -20 177 -22 207 -2 13 8 38 18 54 22 28 7 145 116 145
136 0 19 33 40 62 40 33 0 118 38 118 52 0 18 -56 57 -81 58 -28 0 -39 16 -39
55 0 16 -12 30 -37 47 -40 25 -60 38 -82 52 -19 12 4 26 45 26 39 0 54 16 54
56 0 18 7 39 15 48 8 8 15 19 15 25 0 6 4 11 9 11 31 0 20 108 -15 143 -36 36
-47 74 -50 172 -2 71 0 93 13 107 9 10 22 18 29 18 19 0 27 18 20 46 -6 21
-12 24 -49 24 -37 0 -44 4 -58 33 -23 47 -60 49 -101 3 -17 -20 -37 -36 -42
-36 -6 0 -24 12 -39 26 -36 33 -104 64 -144 64 -37 0 -53 -21 -53 -70 0 -25
-6 -33 -31 -44 -40 -17 -63 -11 -80 20 -9 18 -31 30 -81 45 -64 19 -84 38 -58
54 22 13 9 52 -27 84 -37 33 -37 33 -69 16 -41 -22 -71 -13 -79 25 -9 40 -19
44 -71 30 -52 -15 -63 -9 -73 41 -5 25 -14 35 -36 42 -46 15 -55 26 -55 67 0
38 -11 50 -50 50 -9 0 -23 7 -30 15 -8 10 -31 15 -70 15 -60 0 -145 29 -152
52 -4 10 -10 10 -31 1 -26 -12 -28 -11 -47 27 -11 21 -24 41 -30 45 -5 3 -10
16 -10 29 0 24 -18 43 -62 65 -29 15 -48 8 -48 -15 0 -9 -7 -23 -16 -31 -12
-12 -14 -27 -10 -55 5 -30 3 -40 -10 -45 -22 -8 -58 13 -78 48 -13 23 -24 29
-50 29 -18 0 -41 7 -52 15 -25 19 -49 19 -71 0 -10 -8 -26 -21 -37 -28 -10 -8
-18 -26 -18 -40 0 -15 -4 -30 -9 -33 -18 -11 -10 -89 11 -112 23 -24 28 -96 8
-108 -7 -5 -33 -9 -58 -10 -25 -1 -57 -5 -72 -9 -29 -8 -77 19 -78 44 0 8 -7
11 -20 8 -15 -4 -20 0 -20 13 0 32 -52 36 -64 4 -7 -18 -40 -18 -56 1 -16 19
-87 19 -120 0 -14 -8 -40 -14 -57 -15 -26 0 -34 5 -39 24 -7 28 12 96 27 96 5
0 9 20 9 45 0 38 4 48 30 67 40 29 42 68 2 68 -15 0 -37 -6 -48 -14 -11 -8
-40 -16 -65 -18 -39 -3 -44 -5 -41 -26 1 -13 9 -30 17 -38 21 -21 19 -51 -4
-59 -21 -6 -66 8 -76 24 -3 6 -15 11 -25 11 -13 0 -27 15 -41 41 l-21 42 -24
-27 c-14 -14 -28 -26 -32 -26 -21 0 -62 -53 -62 -80 0 -24 -8 -34 -45 -56 -25
-14 -45 -29 -45 -33 0 -4 -7 -8 -15 -8 -18 0 -18 5 -4 46 13 37 -4 91 -28 91
-8 0 -48 -16 -88 -37 -67 -33 -75 -35 -104 -23 -46 19 -41 49 14 88 33 23 45
38 45 57 0 14 7 28 15 31 21 8 84 105 78 120 -2 6 -13 10 -23 7 -11 -3 -31 -2
-46 1 -24 6 -26 11 -22 51 3 40 2 42 -14 28 -16 -14 -17 -11 -16 35 0 28 -3
56 -7 61 -3 6 -26 11 -51 11 -24 0 -53 5 -64 12 -16 11 -23 9 -47 -14 -38 -35
-66 -48 -91 -41 -40 10 -89 -16 -119 -63 -24 -38 -36 -47 -80 -60 -29 -8 -53
-20 -53 -25 0 -5 -12 -9 -26 -9 -48 0 -64 -16 -64 -67 0 -29 6 -53 17 -65 15
-17 15 -20 -5 -38 -25 -24 -45 -25 -62 -5 -8 10 -30 14 -74 13 -33 0 -86 0
-116 1 -31 1 -72 -5 -92 -13 -32 -14 -38 -14 -72 4 -28 14 -44 16 -68 9 -31
-8 -37 -14 -59 -52 -10 -17 -12 -17 -45 2 -19 12 -43 21 -54 21 -24 0 -39 46
-29 85 5 17 27 52 49 79 22 27 39 51 36 53 -2 3 -21 -3 -41 -13 l-36 -17 -31
29 c-17 16 -41 40 -53 53 -19 21 -23 22 -43 10 -26 -17 -29 -57 -4 -66 29 -11
32 -26 11 -59 -10 -17 -19 -42 -19 -55 -1 -66 -6 -70 -88 -68 -50 1 -77 -2
-80 -9 -6 -18 -26 -14 -50 8 -21 20 -21 20 -51 -5 l-30 -26 -21 23 c-30 33
-36 66 -16 99 16 26 15 28 -5 34 -14 5 -27 0 -40 -14 -11 -12 -31 -21 -44 -21
-24 0 -36 -10 -83 -70 l-20 -24 -10 37 c-16 57 -3 89 46 112 60 30 68 39 54
70 -10 21 -18 25 -57 25 -41 0 -48 -4 -63 -30 -37 -65 -101 -17 -68 52 24 50
61 68 145 68 69 0 71 1 71 24 0 17 -9 29 -27 38 -25 12 -28 20 -31 66 -3 44
-6 52 -23 52 -34 0 -98 -48 -114 -87 -14 -34 -16 -35 -33 -19 -28 25 -38 20
-58 -27 -14 -35 -26 -47 -61 -61 -48 -20 -73 -11 -73 25 0 11 -2 19 -5 19 -10
0 -77 -50 -94 -71 -9 -12 -33 -27 -51 -33 -25 -8 -39 -23 -56 -56 l-23 -45 48
-21 c50 -23 91 -75 91 -118 0 -33 30 -129 46 -147 9 -10 14 -40 14 -86 0 -64
3 -74 29 -102 16 -17 36 -31 45 -31 10 0 40 -23 68 -51 l51 -51 -6 -149 c-7
-158 -5 -167 39 -134 54 41 160 -9 206 -98 18 -36 18 -41 4 -62 -30 -45 -17
-88 35 -115 10 -6 19 -16 19 -22 0 -23 -65 -140 -96 -174 -19 -19 -37 -46 -40
-60 -8 -30 -40 -54 -74 -54 -14 0 -51 9 -82 20 -32 11 -75 19 -96 18 -38 -1
-102 31 -102 52 0 5 -6 15 -12 22 -7 7 -22 31 -33 53 -41 82 -67 83 -145 9
-57 -54 -59 -55 -111 -52 l-54 3 -21 59 c-25 71 -70 116 -115 116 l-31 0 7 48
c3 26 8 93 10 150 2 57 7 112 10 122 10 32 -43 190 -64 190 -4 0 -14 13 -23
28 -16 26 -15 30 1 67 10 22 30 51 45 64 14 14 26 30 26 36 0 7 26 41 59 76
42 47 63 80 76 120 16 50 22 57 62 75 l45 20 -43 27 c-37 24 -47 37 -62 85 -9
31 -17 64 -17 73 0 8 -13 28 -30 44 -41 40 -38 66 15 119 25 26 45 51 45 56 0
6 4 10 8 10 15 0 52 90 52 125 0 46 25 52 148 36 80 -11 96 -10 110 2 9 8 35
17 58 19 41 6 145 50 177 77 21 17 22 64 2 121 -24 69 -20 98 21 135 35 32 35
34 15 44 -49 27 2 141 72 159 27 7 32 13 29 35 -1 15 1 27 6 27 4 0 16 6 26
13 15 11 16 17 5 40 -10 23 -10 30 6 47 10 11 23 20 30 20 6 0 19 6 29 13 15
11 16 17 5 40 -23 50 21 180 67 197 13 5 28 21 34 34 5 13 19 31 32 40 l23 16
-23 41 -23 40 20 35 c22 37 22 37 -30 48 -28 6 -39 28 -39 84 0 28 -5 34 -40
48 -44 18 -45 21 -29 58 26 57 -38 128 -132 146 -29 6 -58 15 -63 20 -6 6 -38
10 -73 10 -35 0 -80 7 -100 15 -52 22 -83 19 -133 -15 -67 -44 -124 -42 -171
6 -18 19 -58 47 -88 61 -49 23 -91 55 -91 68 0 10 -39 43 -57 49 -13 4 -26 -1
-39 -15z m2364 -5191 c7 -7 12 -22 12 -34 0 -16 7 -24 22 -26 14 -2 26 -14 32
-31 12 -33 -16 -77 -59 -92 -23 -8 -30 -6 -51 18 -13 15 -21 33 -18 41 3 7 -6
21 -20 30 -33 21 -33 51 0 81 29 27 63 32 82 13z m-142 -96 c26 -17 74 -97 74
-123 0 -33 -36 -62 -70 -57 -31 5 -26 22 9 31 20 5 31 14 31 26 0 28 -10 31
-31 10 -40 -40 -109 -7 -109 52 0 44 62 84 96 61z m-337 -377 c37 -43 39 -58
6 -90 -32 -33 -51 -31 -85 6 -42 44 -46 66 -19 95 32 34 61 30 98 -11z m-130
-71 c59 -65 74 -94 48 -94 -7 0 -18 -9 -25 -20 -19 -31 -65 -26 -96 11 -33 39
-33 72 -1 97 21 17 23 21 10 32 -16 14 -20 40 -6 40 5 0 37 -30 70 -66z
m-3757 -442 l-4 -78 54 -13 c116 -25 130 -31 117 -47 -15 -19 -35 -18 -102 5
-30 11 -58 17 -61 14 -16 -16 8 -83 37 -104 4 -3 0 -12 -9 -20 -14 -12 -19
-10 -40 16 -12 16 -20 33 -18 37 3 5 0 7 -8 6 -7 -2 -12 5 -12 14 1 10 -3 16
-10 15 -6 -1 -10 4 -8 11 1 8 -1 11 -6 8 -5 -3 -28 22 -53 55 -24 33 -54 72
-66 87 -25 30 -29 47 -12 58 14 8 51 -36 44 -53 -2 -7 2 -10 9 -7 17 7 60 -52
50 -68 -4 -7 -4 -10 1 -6 9 9 37 -11 31 -21 -3 -4 3 -7 12 -8 14 -1 17 10 19
73 1 67 13 104 32 104 4 0 5 -35 3 -78z m-174 -111 c9 -1 10 -6 3 -20 -7 -12
-18 -17 -33 -14 -27 5 -78 -30 -78 -54 0 -18 34 -76 64 -108 24 -25 73 -54 62
-36 -4 6 -2 11 4 11 15 0 33 19 47 53 7 15 20 27 29 27 22 0 15 -58 -10 -87
-19 -22 -43 -22 -30 -1 4 7 2 8 -4 4 -6 -4 -9 -13 -5 -21 3 -9 -1 -15 -8 -15
-8 0 -25 -3 -38 -7 -17 -4 -22 -3 -17 5 4 7 2 10 -7 6 -7 -2 -24 4 -38 14 -21
18 -22 22 -9 38 14 17 13 18 -1 6 -13 -10 -19 -10 -29 2 -6 9 -8 21 -4 27 4 8
3 9 -4 5 -15 -9 -42 45 -42 82 0 43 59 93 103 88 17 -2 38 -4 45 -5z m-565
-423 c5 -17 -4 -22 -40 -21 -6 0 -9 -6 -6 -14 4 -10 0 -13 -13 -11 -15 2 -19
-3 -19 -25 -1 -52 13 -59 75 -37 71 26 92 25 120 -5 34 -36 24 -125 -14 -125
-8 0 -17 -7 -20 -16 -4 -9 -13 -14 -22 -10 -8 3 -13 2 -10 -3 7 -11 -22 -23
-35 -15 -17 10 -9 31 19 44 15 7 31 13 35 11 5 -1 6 3 3 8 -3 5 1 14 9 21 8 7
15 24 15 39 0 23 -5 27 -31 29 -17 1 -38 -3 -47 -10 -34 -29 -66 -36 -94 -21
-60 30 -64 89 -10 144 41 40 77 48 85 17z m-292 -280 c3 -5 10 -9 15 -7 5 1
14 -8 20 -20 6 -12 15 -25 19 -29 5 -4 5 0 0 8 -6 11 -3 10 10 -2 18 -17 17
-18 -10 -40 -16 -13 -31 -22 -32 -21 -1 1 -19 -15 -40 -35 l-38 -37 38 -19
c37 -20 37 -20 65 0 15 11 31 30 37 42 13 30 35 28 35 -4 0 -16 -4 -23 -12
-18 -7 5 -8 3 -3 -5 11 -19 -33 -60 -72 -67 -19 -4 -45 -2 -59 4 -30 14 -117
131 -110 149 3 8 1 11 -4 8 -15 -9 -12 12 5 46 30 56 113 85 136 47z m-260
-141 c8 -2 21 -7 29 -12 13 -7 13 -6 2 7 -10 12 -10 18 2 27 10 9 16 8 26 -4
11 -14 9 -20 -13 -43 l-27 -26 27 -22 c18 -14 24 -25 17 -35 -10 -17 -15 -43
-6 -34 4 4 8 11 8 16 1 5 2 12 3 17 1 4 12 -6 25 -23 20 -25 31 -30 67 -30 33
0 45 -4 47 -17 3 -18 -16 -31 -61 -42 -24 -6 -33 -1 -65 36 -20 23 -52 57 -71
75 l-34 34 -19 -21 c-11 -11 -23 -18 -28 -15 -5 3 -12 0 -16 -6 -5 -8 -3 -9 6
-4 9 6 11 4 6 -4 -5 -7 -14 -10 -22 -7 -20 8 -6 -22 38 -80 21 -29 49 -54 61
-58 17 -4 19 -8 9 -18 -6 -6 -12 -16 -12 -22 0 -5 6 -1 14 9 8 11 12 24 9 29
-4 5 4 7 15 4 12 -4 20 -2 16 3 -3 5 -1 9 3 9 5 0 14 -9 20 -19 10 -16 8 -22
-12 -35 -13 -9 -37 -16 -54 -16 -31 0 -67 34 -118 111 -18 28 -31 38 -43 34
-24 -8 -47 20 -25 32 13 8 11 13 -14 37 -24 23 -27 31 -18 50 l11 23 18 -22
c10 -13 18 -28 18 -33 0 -25 23 -20 70 15 27 20 50 40 50 44 0 3 -9 14 -20 24
-12 11 -20 31 -20 49 l0 30 34 -33 c18 -18 40 -33 47 -34z"/>
<path d="M9444 1079 c-22 -17 -41 -32 -43 -34 -2 -2 10 -23 27 -46 17 -23 29
-47 25 -53 -3 -6 -3 -8 1 -4 8 7 36 -13 31 -22 -2 -3 8 -11 22 -17 14 -7 23
-10 20 -7 -3 4 0 13 8 21 19 19 19 100 0 136 -10 19 -10 26 -2 21 7 -3 1 4
-13 15 -14 11 -28 21 -31 21 -3 0 -24 -14 -45 -31z"/>
</g>
</svg>
