<?xml version="1.0" standalone="no"?>
<!DOCTYPE svg PUBLIC "-//W3C//DTD SVG 20010904//EN"
 "http://www.w3.org/TR/2001/REC-SVG-20010904/DTD/svg10.dtd">
<svg version="1.0" xmlns="http://www.w3.org/2000/svg"
 width="1221.000000pt" height="939.000000pt" viewBox="0 0 1221.000000 939.000000"
 preserveAspectRatio="xMidYMid meet">
<metadata>
Created by potrace 1.16, written by Peter Selinger 2001-2019
</metadata>
<g transform="translate(0.000000,939.000000) scale(0.100000,-0.100000)"
fill="#000000" stroke="none">
<path d="M3180 8907 c-14 -7 -30 -27 -35 -44 -6 -18 -21 -46 -33 -63 l-23 -30
-102 0 c-74 1 -107 5 -121 15 -28 21 -34 19 -38 -12 -3 -27 -6 -28 -66 -33
-46 -4 -66 -10 -73 -23 -7 -12 -22 -17 -49 -17 -27 0 -40 -4 -40 -14 0 -25
-29 -41 -50 -28 -15 9 -22 9 -32 -2 -8 -8 -38 -13 -76 -13 -95 0 -99 -20 -22
-104 23 -26 30 -41 27 -62 -3 -23 1 -31 19 -37 12 -5 24 -15 26 -22 8 -23 -19
-73 -44 -78 -14 -4 -24 -14 -26 -29 -4 -24 23 -61 44 -61 13 0 28 -43 39 -112
7 -45 22 -42 85 15 41 37 91 50 105 27 10 -16 38 -12 96 16 50 25 64 27 184
27 105 1 136 -2 163 -16 33 -18 44 -47 17 -47 -8 0 -15 -4 -15 -10 0 -5 -12
-13 -27 -16 -16 -4 -33 -14 -39 -22 -6 -8 -21 -15 -35 -16 -19 -1 -24 -6 -24
-29 1 -30 -15 -34 -62 -16 -54 22 -80 17 -114 -23 -35 -42 -43 -45 -66 -22
-14 14 -19 12 -47 -15 -22 -21 -42 -31 -63 -31 -48 0 -63 -22 -63 -94 0 -58
-2 -64 -25 -74 -14 -7 -51 -12 -81 -12 l-56 0 3 -66 c5 -86 -5 -94 -87 -70
-33 9 -67 21 -76 27 -32 17 -68 11 -68 -11 0 -25 29 -40 76 -40 26 0 46 -8 71
-30 20 -18 45 -30 62 -30 26 0 29 -4 34 -42 3 -24 11 -44 16 -46 6 -2 11 -8
11 -14 0 -18 33 -37 63 -38 26 0 27 -2 27 -54 0 -30 5 -58 10 -61 6 -3 9 -26
8 -50 -1 -27 5 -54 16 -70 15 -23 16 -31 5 -58 -13 -32 -79 -107 -95 -107 -26
-1 -54 -40 -54 -75 0 -56 -15 -75 -58 -75 -20 0 -50 9 -67 20 -38 25 -55 25
-55 0 0 -14 -7 -20 -23 -20 -15 0 -29 -9 -37 -25 -16 -30 -31 -32 -50 -4 -8
11 -23 30 -32 41 -12 15 -15 25 -8 33 13 16 2 25 -30 25 -17 0 -41 13 -64 35
-31 29 -41 33 -57 25 -10 -6 -19 -15 -19 -20 0 -6 -9 -10 -20 -10 -11 0 -23
-7 -27 -15 -6 -18 23 -55 44 -55 7 0 13 -4 13 -9 0 -5 9 -11 20 -14 16 -4 20
-13 20 -49 -1 -58 -33 -128 -59 -128 -23 0 -36 -20 -46 -73 -5 -28 -2 -46 14
-77 29 -56 28 -141 -3 -195 -22 -39 -25 -40 -87 -46 -46 -4 -76 -13 -109 -34
-27 -17 -45 -24 -48 -16 -2 6 -9 11 -16 11 -24 0 -47 40 -41 71 8 34 -3 37
-35 9 -18 -15 -37 -20 -86 -20 -54 0 -65 3 -78 22 -26 37 -21 68 13 74 17 4
32 12 35 20 3 8 17 14 31 14 30 0 32 13 5 40 -25 25 -27 25 -71 1 -43 -23 -52
-18 -64 34 -6 25 -16 40 -25 40 -12 0 -14 -15 -12 -87 5 -117 -3 -131 -71
-122 -29 4 -56 10 -61 15 -16 15 -73 10 -80 -6 -4 -11 1 -15 19 -15 14 0 25
-3 25 -6 0 -3 -18 -23 -40 -45 -22 -22 -40 -44 -40 -50 0 -15 -43 -28 -62 -18
-20 11 -30 -2 -38 -51 -5 -31 -9 -35 -39 -38 -33 -3 -33 -4 -26 -40 10 -53 8
-70 -9 -87 -21 -21 -10 -43 22 -47 34 -4 40 -30 12 -56 -16 -15 -20 -26 -15
-43 9 -27 29 -49 44 -49 15 0 14 -27 -1 -37 -33 -21 -41 -42 -28 -73 10 -24
10 -36 0 -61 -15 -35 -4 -49 38 -49 16 0 22 6 22 21 0 19 4 21 32 15 18 -4 40
-13 48 -22 13 -14 12 -18 -12 -38 -16 -12 -28 -30 -28 -40 0 -10 -7 -17 -17
-15 -50 5 -59 -20 -31 -83 17 -36 20 -69 22 -215 3 -167 4 -172 28 -195 27
-26 59 -102 52 -123 -3 -8 -19 -17 -36 -20 -27 -6 -30 -10 -24 -38 3 -17 13
-39 22 -48 9 -10 13 -22 10 -28 -4 -5 2 -18 13 -28 12 -11 21 -35 23 -61 l3
-43 27 22 c22 17 25 27 21 54 -6 38 31 103 62 107 16 2 20 10 19 43 -2 59 30
76 47 25 6 -16 15 -30 20 -30 16 0 10 -64 -9 -91 -22 -33 -48 -59 -60 -59 -17
0 -42 -37 -42 -64 0 -21 6 -28 30 -32 41 -9 38 -18 -15 -38 -25 -10 -45 -24
-45 -32 0 -8 -6 -14 -13 -14 -9 0 -20 -29 -31 -80 -17 -78 -16 -81 3 -125 11
-25 24 -45 28 -45 13 0 43 -55 43 -78 0 -11 -6 -25 -14 -31 -8 -6 -16 -28 -18
-49 -6 -43 26 -153 47 -165 8 -4 15 -15 15 -23 0 -8 14 -28 30 -44 33 -32 39
-60 14 -60 -21 0 -56 -39 -47 -54 4 -6 18 -26 32 -45 24 -32 26 -42 26 -147 0
-104 2 -114 22 -133 13 -13 20 -28 16 -37 -4 -10 6 -26 26 -44 27 -25 31 -36
31 -79 0 -27 4 -52 9 -55 5 -3 12 -18 15 -32 4 -15 14 -33 22 -42 8 -8 15 -29
14 -46 -1 -17 -1 -53 0 -81 1 -41 3 -46 10 -28 5 13 17 23 26 23 13 0 15 -8
11 -43 -2 -23 -10 -56 -17 -73 -16 -38 -4 -74 41 -123 34 -38 37 -57 9 -66
-31 -10 -26 -55 10 -87 32 -28 41 -68 15 -68 -21 0 -21 -76 0 -84 10 -3 15
-19 15 -46 0 -37 3 -41 30 -46 30 -6 30 -7 28 -69 -1 -47 3 -67 15 -80 20 -20
21 -32 2 -65 -19 -33 -19 -151 0 -214 8 -27 15 -88 15 -136 0 -75 3 -91 22
-116 12 -16 26 -31 30 -34 12 -9 32 -96 26 -112 -4 -8 -22 -23 -42 -32 -33
-16 -36 -20 -36 -62 0 -39 4 -47 29 -61 42 -25 53 -49 53 -117 0 -66 16 -96
51 -96 18 0 19 -5 13 -67 -7 -81 0 -111 37 -152 31 -35 34 -70 11 -106 -15
-23 -15 -27 15 -67 19 -26 31 -54 31 -74 0 -26 7 -36 36 -53 19 -12 40 -21 46
-21 6 0 19 -7 28 -15 19 -17 64 -29 55 -16 -2 5 11 19 30 32 38 26 44 49 19
74 -17 16 -35 14 -84 -10 -51 -25 -120 17 -120 72 0 26 36 67 50 58 5 -3 7 0
4 8 -3 8 6 18 21 25 36 17 52 15 58 -7 3 -15 -4 -21 -34 -30 -21 -7 -44 -21
-50 -32 -9 -17 -13 -18 -27 -8 -9 7 -3 -1 13 -17 27 -27 83 -54 70 -34 -5 9
43 20 86 20 33 0 69 -41 69 -79 0 -34 -28 -74 -47 -67 -9 4 -11 2 -7 -6 5 -8
1 -9 -12 -4 -10 4 -15 4 -12 0 4 -3 -3 -15 -15 -25 -13 -11 -18 -22 -12 -26
22 -17 45 -73 45 -108 0 -53 15 -75 51 -75 16 0 46 -7 66 -15 19 -8 54 -15 77
-15 34 0 44 5 61 30 25 37 43 38 51 3 4 -16 14 -36 22 -45 16 -19 72 -25 72
-8 0 20 20 9 34 -18 8 -15 26 -34 40 -41 21 -12 23 -17 15 -34 -13 -24 -4 -33
42 -41 42 -7 53 2 63 57 4 23 13 37 21 37 8 0 15 4 15 9 0 5 12 12 28 15 15 4
36 20 47 36 25 37 45 42 125 28 l67 -11 42 42 c40 40 42 43 30 75 -12 32 -11
35 32 77 58 56 75 85 84 136 l7 42 -68 3 c-51 2 -70 7 -78 21 -9 15 -4 24 33
58 42 39 46 41 90 34 25 -4 51 -11 58 -16 16 -14 22 10 10 44 -5 15 -13 27
-18 27 -5 0 -9 24 -9 53 l0 52 -48 22 c-26 12 -68 25 -92 29 -78 12 -86 30
-40 83 34 38 39 78 15 115 -9 13 -14 30 -13 37 2 8 -11 15 -33 19 -29 5 -36 3
-35 -9 1 -12 -10 -17 -38 -19 -35 -3 -43 1 -102 61 -35 35 -64 72 -64 83 0 28
38 86 52 78 7 -4 8 -3 4 4 -12 20 40 45 79 38 47 -9 98 -62 84 -89 -7 -12 -17
-16 -27 -12 -9 3 -13 3 -9 -1 4 -4 -11 -24 -34 -45 -36 -33 -40 -39 -29 -59 9
-16 19 -20 43 -18 27 3 32 7 31 28 -1 14 -5 35 -9 48 -6 19 -4 22 21 22 16 0
43 -4 59 -9 40 -11 62 -2 80 33 12 22 12 26 1 17 -10 -9 -20 -3 -44 26 -17 21
-44 53 -61 72 -40 44 -40 81 -2 123 24 26 32 30 42 21 10 -10 8 -17 -9 -36
-14 -15 -21 -33 -19 -54 1 -17 5 -29 8 -27 3 2 29 -21 56 -51 46 -49 54 -54
98 -56 38 -2 51 1 59 15 32 52 32 52 66 33 44 -24 71 -21 137 14 65 35 73 43
73 80 0 28 27 59 52 59 9 0 29 -7 44 -15 55 -28 114 -13 114 30 0 14 6 25 13
26 12 1 52 -1 72 -4 15 -3 6 35 -13 56 -15 17 -15 21 2 52 13 24 27 35 52 39
l33 7 -16 34 c-18 39 -13 50 27 60 18 4 32 0 50 -17 20 -19 36 -23 89 -23 65
0 65 0 74 -32 9 -29 14 -33 43 -33 19 0 34 -4 34 -9 0 -22 42 -23 61 -2 11 12
26 21 34 21 18 0 28 39 23 86 l-4 36 40 -8 c78 -15 178 -3 205 24 13 13 17 12
32 -7 10 -12 19 -26 21 -33 3 -7 12 -6 30 6 14 9 33 14 42 10 15 -6 17 -1 14
32 -3 34 -1 39 17 36 30 -6 45 -22 45 -47 0 -12 7 -28 15 -35 13 -11 18 -10
30 6 8 10 15 29 15 40 0 24 39 54 70 54 11 0 20 7 20 15 0 10 -10 15 -30 15
-19 0 -30 5 -30 14 0 16 -24 28 -44 20 -20 -8 -46 23 -46 54 0 15 -3 44 -6 65
-6 33 -4 37 14 37 11 0 22 6 25 14 8 20 -33 94 -55 99 -15 4 -17 11 -12 31 4
19 2 28 -10 32 -25 10 -22 80 4 87 16 4 20 14 20 47 0 32 6 48 22 62 23 19 23
19 36 -1 31 -46 60 -68 97 -74 21 -4 43 -13 47 -22 5 -8 18 -15 29 -15 15 0
19 6 17 28 -3 43 8 54 40 39 38 -17 58 -39 72 -82 15 -44 31 -52 84 -37 48 12
73 2 82 -34 7 -29 42 -30 55 -1 5 9 13 25 18 35 4 9 20 21 35 26 21 8 30 6 46
-12 19 -20 50 -21 50 -1 0 20 41 31 71 19 16 -7 29 -16 29 -20 0 -5 14 -11 30
-15 17 -4 30 -12 30 -18 0 -7 11 1 25 16 l26 27 27 -25 c15 -14 30 -25 34 -25
18 0 6 28 -22 55 -19 19 -30 39 -30 57 0 15 -4 28 -9 28 -15 0 -43 32 -34 39
14 10 33 50 33 69 0 10 -11 25 -25 32 -36 19 -34 60 3 82 20 12 32 14 39 7 6
-6 26 -9 44 -7 28 2 35 7 37 30 2 18 12 31 32 40 20 9 30 22 35 45 3 18 17 41
30 52 14 10 25 23 25 29 0 21 29 21 36 -1 16 -50 54 -55 54 -7 0 16 7 30 15
34 8 3 15 0 15 -6 0 -11 38 -48 49 -48 4 0 12 -13 18 -30 12 -32 40 -40 49
-15 4 8 -1 33 -10 55 -9 22 -16 49 -16 60 0 24 40 36 68 21 30 -16 52 -3 52
30 0 26 -4 29 -30 29 -29 0 -30 1 -30 50 0 38 4 50 15 50 8 0 15 -6 15 -12 0
-13 53 -48 71 -48 6 0 20 11 33 25 13 14 34 25 49 25 42 0 57 10 57 39 0 15 7
36 15 49 12 16 14 34 9 71 -5 41 -3 56 16 85 18 30 19 36 6 36 -18 0 -21 26
-6 64 11 31 38 33 71 8 14 -11 37 -17 54 -16 17 1 46 3 66 3 33 1 37 4 42 35
9 56 37 106 63 112 21 5 24 12 24 53 0 39 5 52 30 76 17 16 30 32 30 37 0 21
37 48 67 48 17 0 35 4 38 10 10 16 63 12 85 -7 13 -12 20 -30 20 -54 0 -31 -4
-38 -26 -43 -18 -5 -24 -12 -20 -22 3 -9 6 -23 6 -31 0 -12 8 -15 41 -10 35 5
44 1 70 -24 19 -19 40 -29 59 -29 28 0 29 2 23 31 -4 21 -1 34 8 39 7 5 16 6
19 2 8 -12 58 -42 70 -42 20 0 10 49 -15 68 -14 11 -25 27 -25 36 0 9 -4 16
-9 16 -5 0 -11 6 -14 14 -5 13 4 26 64 92 10 12 19 37 19 55 1 44 22 71 59 74
38 3 91 55 91 88 0 14 7 27 15 31 10 3 15 19 15 46 0 46 12 63 53 74 47 11 67
36 67 82 0 46 22 74 58 74 13 0 22 6 22 15 0 11 -11 15 -40 15 l-40 0 0 40 c0
22 -5 40 -11 40 -5 0 -9 8 -8 18 3 38 0 43 -20 30 -15 -9 -23 -9 -35 1 -11 9
-16 10 -16 2 0 -18 -29 -12 -29 7 -1 9 -4 33 -7 54 -6 34 -4 37 32 54 22 11
41 29 48 45 5 16 19 29 30 31 27 4 42 53 25 84 -11 21 -10 27 7 42 10 10 27
21 37 25 22 8 23 64 0 89 -9 10 -14 20 -12 23 10 9 145 24 169 18 14 -3 33
-13 42 -22 9 -9 23 -21 30 -27 17 -14 135 -28 141 -17 3 5 1 33 -5 63 -5 30
-7 73 -3 96 5 34 11 43 31 48 13 4 30 18 36 32 11 24 26 31 83 36 38 4 40 28
3 46 -23 11 -28 20 -28 51 0 30 6 43 30 61 24 19 30 30 30 61 0 22 -4 39 -10
39 -20 0 -5 70 19 90 16 13 51 71 51 84 0 8 -6 21 -13 28 -7 7 -16 21 -20 31
-5 13 -13 16 -32 11 -21 -5 -27 -1 -39 27 -13 30 -13 37 1 59 20 32 49 60 62
60 5 0 30 -9 55 -20 46 -19 46 -19 46 -70 l0 -50 38 0 c21 0 47 -7 58 -15 20
-15 84 -21 84 -7 0 31 154 29 185 -2 10 -10 33 -16 61 -16 27 0 52 -6 60 -15
9 -8 23 -15 33 -15 34 0 103 -85 99 -124 -3 -31 -4 -31 52 -21 76 13 98 -12
63 -73 -16 -28 -16 -31 1 -57 17 -25 20 -26 75 -20 45 5 60 3 70 -9 7 -8 28
-18 47 -22 19 -3 34 -10 34 -15 0 -5 6 -9 13 -9 6 0 26 -13 43 -29 35 -33 54
-26 54 20 0 15 5 31 11 35 7 4 9 21 5 46 -7 41 2 58 38 71 12 5 35 -3 67 -23
27 -16 58 -30 69 -30 10 0 23 -8 29 -17 14 -26 129 -27 154 -2 24 26 31 24 65
-12 29 -31 30 -31 56 -14 14 10 26 26 26 36 0 23 63 55 128 64 45 6 49 5 80
-29 18 -20 36 -36 40 -36 4 0 19 -11 33 -24 14 -13 42 -31 62 -41 20 -9 46
-32 58 -51 11 -18 31 -42 43 -52 38 -29 46 -55 40 -124 -4 -35 -11 -68 -16
-75 -5 -6 -27 -14 -49 -18 -43 -7 -46 -11 -24 -34 72 -78 91 -121 52 -121 -26
0 -74 -30 -87 -55 -7 -14 -17 -25 -22 -25 -4 0 -8 -8 -8 -18 0 -17 31 -34 80
-46 14 -3 34 -19 44 -37 18 -31 18 -33 1 -45 -10 -7 -22 -15 -26 -16 -5 -2
-12 -31 -15 -65 -6 -53 -4 -65 15 -91 29 -42 27 -52 -14 -52 -19 0 -35 -4 -35
-9 0 -13 33 -23 84 -26 53 -4 93 -22 134 -61 58 -56 105 -84 130 -78 12 4 22
10 22 15 0 5 6 9 14 9 7 0 25 9 39 20 14 11 35 20 46 20 12 0 21 6 21 15 0 8
-7 15 -15 15 -27 0 -16 24 30 65 25 22 45 45 45 53 0 7 -14 37 -30 67 -16 30
-30 61 -30 69 0 9 -5 16 -11 16 -38 0 -51 77 -18 100 46 33 59 48 59 73 0 13
7 27 15 31 10 3 15 19 15 46 0 26 5 43 14 46 8 3 23 26 33 50 10 24 21 44 25
44 12 0 48 34 48 45 0 5 8 28 17 51 13 31 32 52 75 80 32 22 58 42 58 47 0 15
22 6 43 -17 13 -13 39 -27 59 -31 108 -20 121 -33 103 -99 -8 -29 -8 -29 26
-22 19 3 35 11 37 16 2 6 15 10 28 10 19 0 29 10 45 45 12 25 25 45 30 45 5 0
6 7 3 15 -4 9 -19 15 -40 15 -45 0 -48 32 -4 52 17 7 30 18 30 24 0 20 26 23
55 8 25 -13 30 -13 47 3 11 10 18 27 16 42 -2 20 -9 27 -32 29 -33 4 -56 23
-56 47 0 13 -8 16 -42 13 -40 -3 -42 -1 -62 39 -23 47 -31 50 -72 28 -50 -26
-83 -20 -99 17 -8 21 -10 39 -4 50 5 9 9 34 9 56 0 45 -10 52 -74 52 -35 0
-44 4 -57 28 -9 15 -19 40 -23 56 -7 31 -28 56 -45 56 -14 0 -14 -45 -1 -70 7
-14 6 -23 -6 -34 -20 -21 -26 -20 -54 4 -13 11 -33 20 -45 20 -34 0 -50 25
-37 55 9 19 19 25 41 25 27 0 81 41 81 62 0 3 -24 4 -53 1 -49 -5 -53 -3 -66
20 -13 24 -12 28 24 61 42 40 50 43 58 21 5 -10 20 -14 59 -12 53 2 53 2 52
35 -2 144 -5 172 -17 172 -7 0 -18 10 -25 21 -12 19 -20 21 -72 15 -37 -4 -61
-3 -65 4 -12 20 -8 169 6 186 9 11 31 15 88 14 104 -2 101 -2 101 20 0 17 7
20 44 20 55 0 70 26 36 60 -18 18 -20 28 -15 75 4 30 2 86 -5 127 -20 123 -36
142 -78 93 -20 -23 -23 -23 -54 -11 -21 9 -35 24 -40 41 -10 38 39 83 96 87
36 3 41 6 41 28 0 21 -6 26 -35 30 l-35 5 -1 135 -1 135 -47 0 c-25 0 -50 5
-54 11 -4 6 -17 16 -29 23 -14 7 -23 22 -25 43 -2 25 -9 34 -28 38 -18 4 -27
15 -33 42 -8 33 -5 41 23 77 22 27 34 54 37 85 l6 46 51 0 c29 0 59 7 70 15
11 8 32 15 48 15 28 0 68 26 68 45 0 6 9 16 20 23 11 7 20 21 20 32 0 11 6 20
14 20 22 0 28 17 16 40 -13 24 -39 26 -66 5 -30 -23 -47 -17 -74 25 l-24 40
-73 0 c-71 0 -73 1 -79 28 -4 15 -18 39 -32 54 -14 15 -23 31 -19 34 22 22
-60 66 -143 76 -34 4 -37 -22 -6 -70 20 -31 22 -43 13 -51 -15 -12 -21 -8 -75
52 -24 26 -40 52 -36 59 4 6 3 8 -3 5 -11 -7 -49 41 -45 56 5 15 -57 6 -81
-13 -30 -24 -55 -25 -104 -5 -19 8 -44 15 -55 15 -24 0 -81 -29 -91 -46 -9
-16 -37 -19 -37 -4 0 5 -15 16 -32 23 -18 8 -42 24 -52 36 -11 11 -28 21 -38
21 -10 0 -21 7 -24 15 -7 16 -49 21 -59 6 -3 -5 -19 -12 -35 -16 -17 -4 -30
-10 -30 -14 0 -16 -69 -43 -91 -35 -13 4 -42 8 -64 8 -36 1 -40 4 -45 31 -9
45 -39 105 -53 105 -7 0 -17 -4 -22 -9 -12 -11 -104 4 -119 19 -6 6 -19 10
-29 10 -11 0 -32 11 -49 25 -16 14 -34 25 -39 25 -17 0 -44 -54 -44 -90 0 -33
-2 -35 -30 -33 -50 3 -74 -6 -102 -37 -30 -34 -64 -38 -130 -15 -51 18 -62 14
-91 -31 -19 -28 -22 -46 -20 -92 l3 -57 -86 3 c-76 3 -92 1 -139 -22 -62 -30
-131 -34 -178 -10 -18 8 -32 19 -32 23 0 4 -16 15 -37 25 -30 14 -41 15 -67 5
-17 -7 -40 -24 -52 -37 -13 -16 -27 -23 -37 -19 -24 9 -57 85 -57 131 0 23 -4
47 -9 55 -14 22 -50 3 -69 -36 -20 -42 -33 -46 -47 -15 -13 29 -43 28 -57 -3
-14 -30 -22 -31 -50 -6 -27 25 -43 18 -61 -28 -9 -20 -22 -43 -31 -50 -9 -8
-16 -20 -16 -27 0 -8 -10 -14 -24 -14 -13 0 -29 -7 -36 -15 -7 -8 -22 -15 -34
-15 -13 0 -28 -11 -39 -30 -18 -31 -25 -34 -64 -30 -13 1 -23 -3 -23 -9 0 -5
-16 -15 -35 -21 -31 -10 -39 -9 -70 10 -23 14 -47 20 -71 18 -32 -3 -41 -9
-60 -43 -18 -32 -28 -40 -48 -38 -27 2 -56 24 -56 42 0 32 -67 20 -72 -12 -2
-16 -11 -23 -30 -25 -16 -2 -28 0 -28 5 0 22 -53 63 -81 63 -43 0 -69 17 -69
45 0 16 -11 30 -35 45 -20 13 -35 30 -35 41 0 10 -9 28 -20 39 -40 40 -28 50
65 50 47 0 85 -4 85 -8 0 -11 72 -42 98 -42 31 0 27 24 -5 40 -52 26 -63 40
-52 67 7 20 5 28 -18 47 -22 19 -27 31 -25 61 2 30 -1 36 -15 35 -37 -4 -43 0
-43 34 0 28 -5 36 -31 47 -18 7 -43 23 -57 36 -25 23 -56 27 -117 14 -28 -6
-30 -10 -35 -61 l-5 -55 -40 3 c-30 2 -47 -3 -64 -18 -36 -31 -90 -30 -130 1
-18 15 -33 18 -55 13 -17 -4 -33 -9 -36 -13 -3 -4 -17 -14 -32 -24 -16 -10
-28 -24 -28 -33 0 -17 -27 -64 -48 -81 -9 -7 -33 -9 -68 -6 -70 7 -94 -11 -94
-73 0 -36 -9 -54 -65 -130 -76 -102 -103 -127 -127 -120 -10 2 -25 -2 -33 -11
-24 -24 -18 -57 15 -81 23 -18 30 -30 30 -57 0 -31 -3 -35 -25 -35 -19 0 -26
-7 -31 -27 -4 -15 -13 -34 -21 -41 -7 -7 -13 -27 -13 -43 0 -29 0 -29 -25 -13
-19 13 -37 15 -76 10 -56 -8 -79 -24 -79 -55 0 -26 -28 -41 -78 -41 -34 0 -41
-4 -46 -25 -4 -14 -11 -25 -17 -25 -5 0 -22 11 -37 25 -24 23 -82 34 -126 26
-6 -1 -29 5 -52 14 -32 12 -48 14 -63 6 -44 -24 -75 -11 -98 40 -10 23 -8 30
18 59 26 28 35 32 65 27 57 -10 65 -2 48 44 -7 22 -22 52 -33 67 -10 15 -29
51 -41 80 l-22 52 -57 0 c-31 -1 -76 5 -101 13 -39 12 -52 12 -95 0 -39 -12
-81 -14 -195 -9 -80 4 -224 11 -320 15 -101 4 -188 12 -205 20 -16 7 -55 13
-86 15 -60 3 -106 25 -167 80 -25 23 -32 36 -30 62 1 20 -5 41 -15 52 -9 10
-17 23 -17 29 0 16 -25 23 -78 23 -30 0 -58 7 -77 20 -16 11 -43 20 -58 20
-16 0 -44 12 -63 26 -29 22 -40 25 -76 20 -101 -16 -142 -17 -162 -8 -11 6
-34 13 -49 17 -16 3 -38 15 -50 26 -12 12 -40 30 -63 40 -49 24 -59 50 -70
184 -6 85 -28 154 -54 170 -15 9 -12 58 6 95 18 36 13 53 -22 76 -15 11 -24
11 -44 1z m7300 -725 c0 -11 -8 -18 -21 -19 -32 -3 -89 -51 -89 -76 0 -12 20
-42 45 -68 24 -26 42 -49 38 -52 -10 -11 58 12 72 23 7 6 21 26 30 45 19 41
35 45 35 9 0 -34 -31 -86 -48 -79 -7 2 -11 1 -8 -4 7 -11 -39 -31 -73 -31 -17
0 -37 10 -53 28 -68 74 -91 136 -63 175 39 55 135 90 135 49z m-538 -311 c-1
-7 2 -10 7 -6 6 3 15 -4 21 -15 14 -25 32 -26 55 0 16 17 19 18 33 3 14 -14
13 -17 -11 -35 -34 -25 -34 -31 1 -70 58 -67 62 -70 103 -67 57 5 70 -15 28
-40 -54 -33 -73 -27 -124 35 -25 31 -49 63 -54 71 -5 10 -16 14 -30 10 -21 -5
-25 1 -21 37 1 10 -8 28 -19 40 -14 14 -19 29 -15 40 7 19 31 16 26 -3z m-71
-186 c-20 -10 -38 -18 -41 -18 -5 1 -6 -31 -2 -64 3 -19 37 -16 82 7 51 26 76
25 103 -4 52 -56 15 -131 -85 -173 -23 -10 -27 -9 -31 8 -4 16 2 24 28 35 19
7 37 18 40 24 4 6 11 7 17 4 6 -4 8 -2 4 4 -3 6 -2 13 3 16 13 8 8 33 -12 56
-16 19 -17 19 -59 -5 -24 -14 -53 -25 -64 -25 -34 0 -74 37 -74 69 0 54 106
142 121 102 5 -11 -4 -22 -30 -36z m-247 -235 c40 -42 46 -53 36 -65 -18 -21
-35 -19 -19 3 13 15 12 16 -3 3 -10 -7 -16 -17 -13 -21 6 -9 -65 -56 -78 -52
-10 3 10 -35 23 -43 6 -4 8 -10 6 -14 -3 -4 11 -7 31 -6 35 1 63 24 63 52 0 7
9 13 21 13 18 0 20 -4 14 -27 -11 -47 -48 -76 -96 -77 -41 -1 -44 1 -100 74
-81 104 -80 151 6 198 36 20 59 12 109 -38z m-358 -36 c-3 -8 -2 -13 3 -10 5
3 16 -5 25 -19 9 -14 23 -25 32 -25 9 0 12 -5 8 -12 -4 -7 -3 -8 5 -4 6 4 9
11 6 16 -3 4 2 14 11 21 14 11 18 10 30 -6 13 -17 12 -21 -11 -34 -30 -19 -31
-30 -4 -60 11 -12 18 -29 15 -37 -3 -9 -1 -12 4 -9 6 4 28 -13 50 -36 22 -24
40 -38 40 -32 0 17 38 22 51 7 16 -20 -15 -43 -58 -44 -35 0 -79 33 -68 51 4
5 1 8 -7 7 -7 -2 -12 5 -12 14 1 10 -2 15 -7 13 -4 -3 -20 12 -35 34 -25 39
-27 40 -53 27 -14 -8 -35 -23 -45 -35 -17 -19 -18 -24 -6 -46 7 -14 17 -25 21
-25 5 0 6 -7 2 -15 -3 -10 -1 -15 7 -13 6 2 17 -6 23 -17 21 -35 38 -43 70
-33 23 9 30 7 42 -8 12 -17 11 -20 -8 -31 -27 -15 -77 -17 -77 -2 0 5 -5 7
-10 4 -10 -6 -84 64 -76 72 2 2 -9 16 -23 32 -18 20 -31 26 -42 21 -19 -11
-43 22 -27 38 7 7 5 19 -9 39 -11 15 -18 36 -15 46 4 22 28 17 26 -6 -1 -9 4
-13 12 -10 8 3 14 0 14 -6 0 -26 32 -21 70 9 29 23 39 37 34 49 -3 9 -7 21 -7
28 0 7 -4 10 -8 7 -12 -7 -21 15 -14 36 4 11 11 20 17 20 5 0 7 -7 4 -16z
m-167 -271 c-13 -16 -12 -17 3 -5 14 12 21 7 50 -33 18 -25 48 -64 66 -86 37
-48 37 -46 14 -81 -43 -65 -125 -97 -162 -63 -11 10 -17 22 -13 28 3 5 1 7 -5
3 -13 -8 -73 64 -65 77 3 6 1 7 -4 4 -13 -8 -36 17 -25 28 4 5 2 5 -5 1 -20
-11 -23 10 -4 28 17 15 19 15 32 -1 12 -15 12 -16 -1 -9 -8 4 -6 0 5 -9 11 -9
19 -21 17 -26 -1 -6 2 -8 7 -4 6 3 15 -5 22 -17 7 -12 24 -32 38 -43 28 -22
101 -38 98 -21 -1 6 3 10 8 9 6 -1 15 9 21 22 9 19 7 27 -17 53 -15 16 -25 33
-22 36 4 3 2 6 -4 6 -6 0 -30 23 -53 50 -41 49 -42 51 -24 71 22 25 44 9 23
-18z m-160 -219 c17 -14 31 -31 31 -37 0 -7 9 -18 20 -25 12 -7 18 -18 14 -25
-4 -7 -4 -9 0 -5 7 6 56 -30 56 -41 0 -4 -10 -12 -21 -20 -19 -11 -21 -11 -16
4 4 9 3 13 -2 10 -5 -3 -35 24 -67 60 -69 78 -98 85 -137 33 -26 -35 -42 -72
-28 -64 12 7 53 -39 44 -49 -5 -4 -3 -5 3 -2 12 7 71 -61 67 -75 -2 -4 4 -5
12 -2 19 8 20 -19 2 -35 -11 -8 -24 2 -62 47 -27 31 -54 60 -60 64 -6 4 -39
39 -74 78 -52 58 -61 73 -51 85 7 8 17 15 23 15 6 0 8 -2 5 -5 -7 -7 50 -65
63 -65 4 0 16 11 25 25 37 57 105 70 153 29z m-249 -158 c0 -7 -16 -26 -35
-40 -19 -15 -38 -39 -41 -54 -4 -15 -12 -34 -17 -42 -9 -12 -9 -13 3 -2 17 14
34 16 25 2 -8 -13 40 5 82 31 18 12 33 18 33 14 0 -3 9 -1 19 4 15 8 25 6 46
-11 24 -18 27 -26 22 -60 -5 -41 -33 -82 -48 -72 -5 3 -7 -1 -4 -8 3 -8 -11
-22 -34 -35 -35 -20 -40 -21 -45 -6 -6 14 8 32 24 33 3 0 20 14 38 31 29 28
45 79 24 79 -5 0 -9 7 -9 15 0 10 6 14 16 10 12 -5 13 -3 4 6 -13 13 -37 3
-28 -12 4 -5 -2 -9 -12 -9 -10 0 -34 -11 -53 -24 -46 -31 -72 -35 -88 -16 -11
13 -12 13 -6 0 5 -9 -1 -8 -15 5 -36 31 -24 89 28 137 41 39 71 49 71 24z
m-5332 -1902 c12 -8 22 -22 22 -30 0 -8 10 -18 23 -23 48 -18 63 -60 35 -96
-16 -21 -27 -25 -57 -23 -31 3 -37 8 -45 34 -5 17 -22 38 -38 47 -37 21 -37
58 -2 86 32 25 33 25 62 5z m-103 -112 c40 -34 75 -84 75 -107 0 -26 -42 -65
-71 -65 -11 0 -19 7 -19 15 0 8 9 15 19 15 31 0 53 28 40 51 -10 19 -11 19
-30 -5 -25 -31 -61 -34 -89 -6 -57 57 15 154 75 102z m-482 -487 c48 -65 56
-85 36 -85 -7 0 -22 -11 -35 -25 -30 -32 -57 -32 -83 1 -30 38 -27 78 7 102
22 17 25 23 15 33 -7 7 -13 19 -13 26 0 29 27 9 73 -52z m1162 -1867 c0 -78 1
-82 25 -89 14 -4 51 -15 83 -25 56 -16 70 -36 31 -42 -10 -1 -45 6 -76 16 -82
27 -95 7 -41 -64 19 -26 21 -33 10 -43 -11 -8 -20 -4 -40 19 -15 17 -25 30
-23 30 3 0 -8 13 -22 28 -30 31 -43 48 -87 107 -16 22 -40 52 -53 67 -14 16
-21 31 -17 39 5 8 4 10 -3 5 -7 -4 -12 -3 -12 2 0 6 7 13 16 16 16 6 44 -15
44 -32 0 -6 7 -13 16 -16 9 -4 14 -13 10 -21 -3 -8 -2 -14 2 -12 4 1 8 -1 10
-5 1 -4 14 -19 27 -32 14 -14 25 -30 25 -36 0 -5 7 -10 15 -10 16 0 20 29 16
103 -2 29 3 42 21 57 12 11 23 19 23 20 0 0 0 -37 0 -82z m-172 -104 c3 -4 2
-15 -3 -25 -8 -14 -16 -16 -41 -9 -18 5 -29 7 -25 3 3 -3 -3 -12 -14 -20 -32
-23 -26 -69 15 -115 20 -21 33 -44 29 -50 -4 -7 -3 -8 4 -4 6 4 20 1 31 -5 26
-17 70 12 78 51 4 21 11 30 26 30 32 0 16 -68 -24 -102 -18 -15 -35 -25 -39
-23 -3 2 -12 0 -20 -5 -21 -13 -66 18 -109 75 -73 97 -77 121 -27 171 27 27
42 34 73 34 22 0 43 -3 46 -6z m-461 -301 c9 0 15 4 12 9 -3 4 -3 8 0 8 2 0
12 3 22 7 13 5 16 3 11 -10 -4 -12 -2 -14 11 -10 9 3 5 -4 -10 -16 -16 -12
-28 -27 -28 -33 0 -21 93 -128 111 -128 5 0 6 -7 2 -16 -3 -9 6 -5 22 10 26
24 29 25 41 8 20 -27 -9 -53 -55 -47 -29 4 -47 17 -97 71 -33 37 -65 65 -71
61 -15 -9 -48 18 -39 32 6 9 12 9 24 -1 14 -11 14 -9 -1 8 -9 11 -15 23 -12
26 3 3 -3 11 -12 19 -17 13 -17 13 -4 -6 14 -19 13 -19 -8 1 -17 16 -21 27
-15 48 l7 28 36 -35 c20 -19 44 -34 53 -34z m-105 -123 c-3 -11 -1 -18 4 -14
5 3 9 2 9 -3 0 -4 -15 -15 -33 -23 -38 -18 -61 -58 -45 -77 13 -16 54 -17 63
-2 4 6 14 8 22 5 8 -3 12 -2 9 3 -3 4 6 13 20 20 44 20 93 -19 94 -75 0 -41
-59 -111 -79 -91 -10 9 -11 9 -6 -5 4 -11 0 -20 -14 -27 -27 -15 -34 -14 -27
5 4 9 2 13 -5 8 -7 -4 -10 -1 -7 7 3 8 13 13 22 13 10 -1 15 1 12 4 -8 7 36
38 49 34 5 -2 7 0 3 4 -4 4 -3 13 3 21 6 7 9 22 6 32 -3 11 0 22 7 25 6 2 -7
2 -29 -1 -22 -3 -48 -10 -58 -15 -9 -5 -23 -6 -29 -2 -6 4 -8 3 -4 -4 9 -16
-27 -24 -57 -13 -57 22 -59 87 -4 138 28 26 64 52 76 53 2 0 1 -9 -2 -20z
m-577 -476 c0 -10 10 -6 33 15 29 28 33 30 44 14 11 -14 10 -20 -7 -38 -18
-19 -25 -69 -8 -59 8 5 54 -55 51 -67 -2 -5 0 -8 5 -7 4 1 19 -2 35 -6 18 -6
33 -4 43 4 21 18 43 -3 28 -27 -33 -53 -80 -41 -158 43 l-61 65 -43 -36 c-23
-20 -42 -40 -42 -44 0 -4 15 -25 34 -46 19 -21 32 -43 29 -48 -3 -6 -1 -7 5
-3 7 4 12 2 12 -3 0 -6 7 -11 15 -11 8 0 15 -4 15 -9 0 -6 12 -4 27 4 28 15
69 3 58 -16 -4 -5 -12 -6 -18 -3 -7 4 -9 4 -5 -1 13 -14 -13 -35 -44 -35 -31
0 -67 30 -131 109 -16 19 -38 34 -49 35 -12 1 -23 7 -26 15 -3 8 0 11 6 7 20
-12 6 29 -17 49 -17 16 -22 27 -17 43 7 20 8 20 38 -13 16 -19 34 -35 39 -35
4 0 25 14 44 32 26 22 35 37 31 51 -3 11 0 30 5 41 9 19 9 19 -4 4 -10 -13
-16 -15 -25 -6 -18 18 -14 31 6 23 14 -5 15 -4 5 6 -7 7 -13 18 -13 24 1 16
60 -54 60 -71z m-165 -236 c22 -27 59 -74 82 -102 l42 -53 -20 -32 c-10 -17
-27 -35 -37 -38 -9 -4 -20 -10 -23 -15 -3 -5 -22 -11 -42 -15 -31 -5 -40 -1
-72 30 -24 23 -34 41 -29 49 4 7 4 10 -1 6 -11 -11 -97 104 -86 115 12 12 41
2 41 -13 0 -6 -5 -8 -12 -4 -7 4 -8 3 -4 -5 4 -6 11 -9 16 -6 4 3 24 -16 43
-42 56 -77 79 -94 119 -91 20 2 34 6 32 9 -2 4 3 12 11 19 21 17 19 30 -15 74
-17 22 -30 46 -30 53 0 8 -4 12 -9 9 -5 -4 -25 13 -44 36 -26 32 -33 46 -25
55 15 19 19 17 63 -39z m-421 -130 c-3 -5 -2 -8 3 -7 20 3 25 -2 13 -16 -11
-13 -10 -14 4 -9 9 3 16 2 16 -4 0 -14 49 -22 57 -9 3 6 1 7 -5 3 -7 -4 -12
-3 -12 2 0 16 34 39 64 45 32 5 79 -11 70 -24 -3 -5 2 -9 10 -9 19 0 20 -11 4
-30 -11 -12 -10 -12 3 -2 14 11 24 3 69 -58 43 -58 50 -73 40 -85 -10 -13 -18
-8 -48 33 -20 26 -48 62 -64 80 -16 18 -26 37 -24 41 3 4 -13 8 -36 10 -63 3
-102 -46 -63 -79 9 -7 14 -19 11 -26 -3 -8 -2 -13 3 -11 14 4 63 -62 55 -74
-4 -8 -3 -9 4 -5 6 4 18 -6 26 -23 13 -24 13 -31 2 -40 -11 -9 -23 1 -58 51
-56 79 -71 106 -63 118 3 6 -1 7 -9 4 -11 -4 -16 0 -16 12 0 9 -3 15 -6 11 -3
-3 -28 22 -54 56 -43 56 -46 63 -32 75 14 11 19 10 29 -4 7 -9 10 -21 7 -26z"/>
</g>
</svg>
