<?xml version="1.0" standalone="no"?>
<!DOCTYPE svg PUBLIC "-//W3C//DTD SVG 20010904//EN"
 "http://www.w3.org/TR/2001/REC-SVG-20010904/DTD/svg10.dtd">
<svg version="1.0" xmlns="http://www.w3.org/2000/svg"
 width="1043.000000pt" height="1237.000000pt" viewBox="0 0 1043.000000 1237.000000"
 preserveAspectRatio="xMidYMid meet">
<metadata>
Created by potrace 1.16, written by Peter Selinger 2001-2019
</metadata>
<g transform="translate(0.000000,1237.000000) scale(0.100000,-0.100000)"
fill="#000000" stroke="none">
<path d="M9190 11548 c-1 -7 -20 -22 -43 -34 -31 -15 -43 -28 -47 -49 -5 -27
-16 -38 -53 -49 -10 -3 -24 -20 -32 -38 -7 -18 -25 -44 -39 -57 -14 -14 -26
-31 -26 -38 0 -7 -10 -17 -22 -22 -13 -5 -36 -21 -51 -35 -15 -14 -31 -26 -36
-26 -12 0 -57 -53 -72 -84 -19 -40 -67 -53 -115 -30 -30 14 -39 15 -60 4 -13
-7 -24 -17 -24 -22 0 -14 -92 -101 -120 -114 -14 -7 -38 -17 -55 -24 -16 -7
-45 -30 -64 -51 -31 -37 -33 -42 -21 -65 11 -19 11 -27 2 -36 -7 -7 -12 -38
-12 -69 0 -49 -4 -62 -32 -98 l-33 -41 -61 6 c-64 6 -94 -8 -94 -42 0 -15 -35
-54 -48 -54 -5 0 -28 -13 -50 -30 -23 -16 -48 -30 -55 -30 -7 0 -18 -5 -25
-12 -6 -6 -59 -15 -118 -19 -90 -7 -112 -6 -141 8 -27 12 -39 13 -59 4 -14 -6
-40 -11 -58 -11 -19 0 -39 -7 -46 -15 -8 -9 -30 -15 -60 -15 -37 0 -53 -6 -75
-26 -22 -21 -34 -25 -61 -20 -18 4 -35 2 -39 -4 -9 -15 -43 -12 -52 4 -4 8
-17 15 -28 18 -11 2 -26 16 -33 31 -7 15 -18 27 -23 27 -16 0 -39 27 -39 44 0
9 -5 16 -12 16 -19 0 -58 50 -58 74 0 12 7 34 15 50 12 23 13 32 3 43 -22 26
-58 34 -94 21 -27 -9 -42 -10 -66 0 -36 13 -68 1 -68 -27 0 -21 -43 -71 -61
-71 -6 0 -18 -8 -25 -17 -10 -15 -25 -17 -80 -15 -90 4 -164 46 -164 94 0 10
-4 18 -10 18 -5 0 -10 6 -10 13 0 22 -34 47 -63 47 -37 0 -75 16 -101 44 -12
14 -42 29 -65 35 -32 7 -55 22 -92 62 l-49 53 -53 -18 c-38 -13 -60 -28 -76
-52 -21 -31 -68 -54 -110 -54 -7 0 -32 -13 -55 -28 -74 -50 -100 -57 -146 -38
-22 9 -68 16 -101 16 -49 0 -67 5 -93 25 -42 32 -86 32 -134 0 -71 -47 -160
-64 -287 -54 -25 2 -41 -3 -60 -21 -14 -13 -25 -27 -25 -32 0 -4 -8 -17 -17
-28 -13 -15 -30 -20 -64 -20 -53 0 -106 -15 -133 -39 -10 -9 -27 -15 -38 -13
-43 7 -67 -7 -74 -44 -4 -20 -17 -47 -30 -61 -18 -20 -24 -37 -24 -72 0 -26 5
-52 12 -59 17 -17 70 -15 94 3 10 8 29 15 41 15 26 0 115 -44 134 -66 19 -24
19 -134 -1 -157 -20 -23 -63 -68 -86 -89 -35 -31 -41 -44 -46 -96 -3 -28 -11
-58 -18 -67 -7 -9 -47 -32 -87 -52 -108 -53 -139 -91 -142 -173 -1 -28 -8 -39
-36 -57 -19 -13 -39 -23 -43 -23 -5 0 -15 -12 -22 -27 -26 -52 -41 -63 -84
-63 -47 -1 -69 -22 -80 -80 -14 -67 -34 -97 -81 -119 -48 -22 -56 -42 -31 -76
12 -17 10 -22 -15 -48 -25 -24 -29 -36 -29 -83 0 -47 -4 -58 -27 -79 -16 -13
-34 -25 -40 -25 -8 0 -13 -14 -13 -34 0 -26 -9 -43 -45 -78 -40 -41 -45 -50
-45 -91 0 -38 -6 -51 -35 -83 -25 -27 -35 -46 -35 -70 0 -23 -7 -38 -25 -52
-14 -11 -25 -27 -25 -36 0 -8 -9 -20 -20 -26 -16 -8 -25 -5 -50 20 -16 16 -30
38 -30 48 0 25 -44 72 -68 72 -24 0 -68 40 -77 71 -25 86 -39 94 -97 54 -20
-14 -42 -25 -48 -25 -15 0 -54 23 -63 38 -11 17 -54 15 -61 -3 -8 -21 -53 -19
-60 3 -3 9 -2 33 4 51 13 48 3 77 -32 92 -23 9 -37 10 -62 1 -44 -16 -66 -15
-66 3 0 8 -4 15 -10 15 -6 0 -10 32 -10 75 0 65 -2 75 -17 75 -20 0 -58 -24
-94 -59 -27 -26 -95 -60 -121 -61 -17 0 -68 -58 -68 -77 0 -15 -45 -43 -68
-43 -10 0 -29 -13 -42 -30 -14 -16 -29 -29 -33 -30 -4 0 -21 -10 -37 -22 -29
-21 -30 -25 -30 -104 l0 -82 -42 -36 c-53 -47 -76 -84 -80 -133 -2 -29 -10
-42 -34 -58 -17 -11 -36 -31 -42 -44 -14 -29 -16 -95 -3 -119 18 -36 22 -90 7
-105 -8 -8 -18 -45 -21 -85 -6 -56 -12 -75 -31 -93 -17 -16 -24 -33 -24 -59 0
-39 -27 -80 -53 -80 -8 0 -28 -16 -43 -36 -16 -19 -35 -41 -41 -49 -7 -7 -13
-33 -13 -57 0 -44 -13 -68 -37 -68 -7 0 -22 -9 -34 -21 -20 -20 -31 -21 -90
-3 -18 5 -89 -59 -89 -81 0 -8 -4 -15 -9 -15 -4 0 -11 -19 -14 -42 -3 -24 -11
-44 -16 -46 -6 -2 -11 -10 -11 -17 0 -7 -7 -15 -14 -18 -17 -7 -31 -66 -22
-95 4 -11 23 -24 47 -31 35 -10 39 -14 28 -27 -17 -21 -19 -166 -1 -171 18 -7
15 -23 -12 -48 -13 -12 -31 -34 -41 -48 -16 -26 -16 -29 -1 -46 20 -22 20 -35
1 -51 -8 -7 -15 -26 -15 -42 0 -16 7 -36 15 -44 22 -22 19 -33 -13 -46 -51
-23 -92 -59 -92 -84 0 -12 5 -26 10 -29 6 -3 10 -20 10 -36 0 -21 -6 -32 -22
-38 -34 -13 -55 -41 -62 -83 -4 -21 -11 -38 -16 -38 -6 0 -10 -7 -10 -15 0 -8
-14 -18 -32 -23 -30 -7 -34 -13 -38 -53 -6 -43 -27 -89 -42 -89 -5 0 -8 -19
-8 -42 0 -30 7 -52 24 -73 l24 -30 -24 -22 c-20 -19 -28 -20 -54 -12 -17 6
-33 15 -36 20 -9 15 -41 10 -76 -11 l-32 -19 -24 21 c-21 21 -24 21 -49 6 -25
-15 -27 -14 -54 13 -16 16 -34 29 -42 29 -26 0 -57 -40 -57 -74 0 -25 -7 -38
-26 -50 -24 -17 -25 -20 -23 -122 2 -84 -1 -108 -13 -121 -15 -14 -14 -18 3
-47 l19 -32 -52 -52 c-47 -48 -50 -54 -40 -77 11 -24 11 -25 -27 -25 -34 0
-51 -12 -51 -35 0 -2 21 -24 46 -50 l47 -46 -13 -40 c-17 -51 -4 -69 36 -50
40 18 46 -3 17 -60 -15 -32 -30 -49 -42 -49 -24 0 -30 -25 -24 -104 l6 -66
-32 -11 c-23 -8 -31 -17 -31 -34 0 -13 7 -25 15 -29 19 -7 20 -56 1 -56 -18 0
-39 -53 -31 -79 13 -42 30 -49 100 -44 78 7 84 -5 30 -57 -33 -32 -37 -33
-105 -31 l-70 2 0 -35 c0 -19 4 -38 10 -41 5 -3 10 -20 10 -36 0 -22 -6 -32
-23 -38 -12 -5 -39 -30 -60 -57 -29 -37 -37 -56 -37 -89 0 -27 -6 -48 -16 -56
-10 -8 -14 -22 -10 -40 3 -15 -1 -34 -9 -45 -26 -34 -18 -86 26 -166 12 -24
11 -66 -2 -70 -6 -2 -15 -21 -19 -43 -4 -22 -13 -64 -19 -94 -6 -30 -8 -75 -5
-101 6 -49 -3 -62 -66 -93 -32 -16 -37 -54 -14 -102 16 -34 16 -41 0 -122 -17
-84 -16 -86 5 -130 12 -25 35 -58 50 -74 40 -41 39 -99 -1 -186 -16 -35 -30
-67 -30 -71 0 -4 -18 -27 -40 -52 -45 -51 -43 -45 -31 -87 7 -24 6 -35 -5 -44
-9 -8 -14 -32 -14 -73 1 -63 15 -96 42 -96 31 0 43 -28 29 -67 -11 -29 -11
-40 0 -59 11 -22 9 -27 -34 -67 -51 -49 -66 -93 -47 -142 7 -17 11 -59 11 -94
-1 -62 -2 -65 -46 -103 -36 -31 -45 -47 -51 -84 -3 -24 -19 -63 -35 -87 -16
-23 -29 -49 -29 -58 0 -20 37 -31 78 -23 21 4 33 1 43 -11 40 -49 60 -65 83
-65 23 0 76 -44 76 -62 0 -5 47 -8 103 -8 102 0 104 0 130 30 17 18 33 27 42
24 18 -7 39 -45 49 -86 4 -17 13 -28 24 -28 9 -1 28 -10 41 -20 19 -17 22 -26
17 -56 -4 -19 -2 -50 4 -68 9 -27 17 -35 45 -39 47 -8 72 1 79 28 4 14 23 33
46 46 32 18 41 30 48 63 9 50 33 57 86 25 37 -22 52 -53 42 -87 -8 -25 26 -55
61 -54 187 7 222 10 234 21 8 6 23 18 33 25 18 12 18 17 6 45 -12 29 -11 33
10 51 36 31 90 26 142 -13 50 -38 64 -90 31 -114 -14 -11 -18 -28 -18 -86 0
-81 3 -84 80 -73 35 6 45 12 55 36 7 17 20 30 30 30 9 0 25 9 35 20 13 14 25
17 46 13 21 -4 36 0 49 12 20 18 74 17 138 -1 19 -5 22 -3 22 21 0 14 7 33 15
41 8 9 15 30 15 47 0 18 4 38 9 46 5 8 3 24 -5 40 -19 37 -17 54 9 79 26 25
61 28 94 9 85 -47 112 -59 173 -76 112 -31 183 -116 193 -229 3 -40 11 -60 31
-81 14 -15 26 -34 26 -43 0 -27 29 -48 65 -48 28 0 35 -5 50 -36 9 -20 25 -44
36 -55 15 -15 17 -26 12 -47 -4 -15 -8 -47 -8 -72 0 -43 1 -44 45 -60 29 -10
52 -27 65 -47 26 -40 79 -76 113 -76 34 0 180 13 207 18 11 2 35 17 53 33 28
25 32 35 32 79 0 51 9 63 46 63 20 0 64 -48 64 -70 0 -9 11 -27 24 -39 23 -22
26 -22 48 -7 12 9 37 16 54 16 23 0 43 11 78 43 46 43 54 68 48 137 -6 59 25
90 90 90 46 0 54 -4 96 -45 25 -25 49 -45 54 -45 5 0 28 12 51 28 44 29 111
62 127 62 5 0 23 -13 39 -29 50 -48 74 -61 118 -61 24 0 60 9 83 21 22 11 57
23 78 26 50 7 72 -14 72 -67 0 -32 7 -47 40 -81 34 -36 40 -49 40 -85 0 -40 2
-43 32 -49 17 -4 37 -13 43 -19 16 -16 42 -71 50 -105 11 -50 60 -89 120 -96
68 -9 83 -4 140 50 51 49 67 53 122 30 35 -15 38 -14 62 7 14 13 34 33 44 46
14 17 29 22 62 22 35 0 45 4 50 21 6 17 12 19 33 13 45 -12 70 -7 94 19 19 20
25 22 36 11 6 -7 12 -18 12 -24 0 -6 17 -18 38 -27 35 -14 85 -61 119 -110 23
-34 49 -37 98 -13 l45 22 20 -24 c11 -12 19 -26 20 -30 0 -5 32 -8 70 -8 l70
0 0 -29 c0 -36 20 -57 62 -66 45 -10 58 -22 58 -55 0 -40 28 -60 87 -60 28 0
70 -7 94 -16 36 -12 51 -13 80 -3 54 17 83 -1 76 -47 -5 -28 -1 -39 21 -59 15
-14 30 -25 33 -25 13 0 17 -42 7 -71 -5 -16 -8 -39 -4 -52 12 -50 117 -75 163
-39 13 10 23 31 25 52 3 32 5 34 38 35 29 0 36 4 38 22 2 13 -1 23 -7 23 -16
0 -13 52 4 74 9 12 15 42 15 72 0 29 4 55 9 58 5 3 12 26 15 50 14 88 84 195
147 223 24 10 27 18 31 83 3 40 9 75 14 79 13 9 42 71 50 106 7 30 39 64 61
65 7 0 20 11 29 25 14 21 15 34 6 85 -6 33 -8 68 -5 77 10 25 36 53 49 53 24
0 46 38 39 69 -4 17 -11 31 -16 31 -6 0 -9 15 -7 33 3 30 5 32 41 32 46 0 59
17 52 66 -5 27 0 48 19 84 25 47 35 115 17 115 -5 0 -13 10 -17 23 -4 12 -11
25 -17 28 -14 10 -14 144 1 161 7 8 15 36 18 62 4 25 10 46 14 46 5 0 18 20
30 45 12 25 26 45 32 45 18 0 68 58 68 79 0 12 -5 30 -12 40 -9 15 -8 22 5 35
8 9 20 16 25 16 14 0 22 26 22 69 0 21 3 41 6 44 11 11 43 111 44 134 0 16 10
27 33 37 49 21 65 38 70 72 3 17 10 41 17 54 6 12 9 32 6 43 -3 12 -1 40 5 62
5 22 14 91 19 153 10 124 21 144 85 157 49 9 65 28 72 82 5 44 10 52 44 73 21
13 40 33 43 44 12 44 17 163 9 201 -5 22 -7 47 -6 56 4 18 64 39 110 39 39 0
60 25 68 83 4 26 11 47 15 47 5 0 11 13 15 30 4 16 11 32 16 35 12 8 12 55 -1
55 -5 0 -10 6 -10 14 0 8 -8 22 -17 32 -14 13 -18 34 -18 85 0 81 17 102 75
95 47 -7 70 13 77 63 3 23 10 44 14 47 5 3 9 15 9 28 0 12 7 31 15 42 16 22
20 100 5 138 -12 34 10 87 44 106 18 9 26 22 26 40 0 25 29 74 55 92 5 4 23 8
38 8 36 0 67 16 67 35 0 8 5 15 10 15 6 0 10 11 10 25 0 23 3 24 54 23 75 -2
118 28 140 95 9 27 16 56 16 64 0 8 8 25 18 38 9 12 24 33 32 45 8 12 21 28
28 36 7 7 12 38 12 71 0 51 4 62 31 91 28 30 30 37 20 58 -14 31 -14 101 -1
109 6 3 10 32 10 64 0 67 18 91 68 91 31 0 39 6 66 44 17 25 46 14 46 -18 0
-29 17 -43 33 -27 6 6 28 11 49 11 32 0 40 5 54 32 9 17 17 59 18 92 2 65 11
81 84 152 36 35 39 46 17 64 -11 9 -15 35 -15 101 0 53 -4 89 -10 89 -15 0
-12 64 4 95 8 15 12 34 9 41 -3 8 2 25 11 39 9 13 16 41 16 61 0 29 7 43 39
73 21 20 49 59 61 86 28 59 38 67 110 95 52 19 57 24 87 88 18 37 35 91 39
120 6 45 9 52 29 52 23 0 35 22 35 67 0 18 7 22 38 25 31 3 37 7 40 29 2 19
-4 31 -22 43 -18 11 -26 25 -26 45 0 15 -9 36 -20 46 -26 24 -28 123 -3 166
10 16 20 29 24 29 4 0 25 15 46 34 21 19 54 45 73 58 62 42 97 132 68 177 -9
14 -8 27 5 60 23 57 22 116 -4 158 -20 33 -21 36 -5 76 24 65 21 122 -10 163
-21 27 -25 40 -19 66 3 18 9 56 11 83 5 49 5 50 -29 69 -25 13 -55 18 -100 17
-60 -1 -66 1 -73 22 -17 56 -49 68 -119 42 -56 -20 -59 -19 -78 20 -17 36 -31
42 -56 26 -18 -12 -41 -3 -41 15 0 21 -39 36 -75 30 -33 -6 -33 -6 -46 43 -10
40 -18 52 -46 65 -28 13 -42 14 -75 5 -55 -14 -83 1 -104 58 -10 24 -25 49
-34 56 -30 22 -31 35 -5 63 23 25 25 34 25 119 0 77 -3 96 -20 118 -31 39 -27
91 10 119 20 15 35 39 45 72 20 66 19 73 -10 80 -31 8 -32 17 -4 35 15 9 24
10 28 2 14 -23 41 15 54 74 9 45 21 68 46 93 27 26 31 35 21 47 -6 8 -9 19 -5
25 4 6 1 9 -5 8 -7 -2 -17 6 -23 17 -7 11 -29 41 -50 67 -36 45 -36 48 -18 58
28 14 26 15 61 -42 38 -61 70 -90 86 -77 6 5 14 38 16 72 3 35 11 73 19 84 10
17 10 32 2 68 -10 44 -9 47 20 73 16 15 37 35 45 45 9 9 22 17 29 17 18 0 63
22 63 31 0 4 14 28 30 52 17 25 30 55 30 67 0 20 -27 79 -41 90 -4 3 -9 16
-10 30 -4 22 -10 26 -56 31 -28 4 -66 17 -83 29 -25 18 -39 21 -75 16 -54 -9
-85 8 -85 45 0 35 -21 51 -67 52 -32 2 -40 7 -54 35 -25 50 -106 120 -143 124
-31 3 -31 3 -34 67 -2 36 2 69 7 74 6 6 11 19 11 29 0 11 7 33 16 50 15 29 15
34 0 59 -9 15 -16 43 -16 62 0 19 -7 48 -15 63 -22 42 -19 70 16 141 20 41 29
73 26 90 -6 30 10 93 23 93 6 0 10 7 10 15 0 8 21 35 48 61 l47 46 -33 -4
c-40 -6 -58 12 -43 41 6 11 11 42 11 70 0 27 4 52 9 55 14 9 41 95 34 111 -3
8 -12 15 -19 15 -8 0 -17 7 -20 15 -7 18 -34 20 -34 3z m-369 -2418 c1 -5 2
-14 3 -19 0 -5 5 -13 10 -18 5 -5 6 -2 2 7 -4 8 0 6 8 -4 9 -11 16 -24 16 -29
0 -5 8 -6 18 -2 9 4 23 8 30 8 6 0 12 5 12 11 0 6 8 3 17 -7 16 -16 16 -18 -2
-31 -14 -10 -24 -11 -32 -4 -33 27 26 -61 76 -114 53 -57 58 -60 79 -47 19 12
24 11 39 -5 17 -18 17 -19 0 -13 -11 4 -16 3 -12 -3 10 -16 -37 -29 -64 -18
-14 5 -35 21 -49 36 -57 63 -66 75 -53 67 10 -5 12 -4 7 4 -4 6 -11 9 -16 6
-5 -3 -15 4 -24 16 -9 14 -21 19 -31 15 -12 -4 -16 -2 -12 8 4 11 1 13 -10 9
-12 -5 -14 -1 -8 15 4 15 0 32 -14 50 -12 18 -18 37 -14 50 5 22 22 30 24 12z
m-54 -201 c-16 -9 -35 -27 -42 -40 -11 -20 -10 -26 8 -41 26 -23 39 -23 87 2
23 12 40 16 40 10 0 -6 4 -8 10 -5 10 6 24 -3 61 -40 41 -40 3 -129 -64 -151
-17 -5 -47 11 -47 25 0 8 71 47 80 44 3 -1 7 13 8 32 2 26 -2 35 -17 40 -23 7
-91 3 -91 -5 0 -3 -13 -7 -29 -8 -19 -1 -36 6 -54 23 -53 54 -43 115 25 145
40 18 43 18 49 2 5 -12 -2 -22 -24 -33z m-205 -248 c20 -22 24 -31 15 -40 -9
-9 -8 -11 6 -6 9 4 17 3 17 -2 0 -16 -66 -74 -75 -66 -4 5 -5 3 -1 -4 3 -6 -2
-16 -11 -22 -10 -5 -14 -13 -10 -17 4 -4 0 -15 -9 -25 -10 -11 -12 -19 -4 -24
6 -3 9 -1 8 6 -2 6 3 14 11 17 8 2 11 0 8 -5 -4 -6 8 -9 29 -7 37 3 63 26 64
57 0 11 8 17 25 17 21 0 25 -5 25 -29 0 -30 -21 -56 -35 -43 -5 4 -5 2 -1 -5
8 -15 -43 -43 -78 -43 -17 0 -45 19 -87 59 -55 52 -62 63 -66 106 -5 44 -3 49
32 82 33 31 41 34 74 28 20 -3 48 -18 63 -34z m-341 -102 c12 -6 18 -17 15
-25 -3 -8 -2 -13 2 -10 4 2 14 1 21 -4 9 -5 21 0 35 16 15 17 25 21 35 15 14
-9 13 -14 -14 -61 -8 -15 -10 -26 -5 -28 6 -2 7 -9 4 -14 -4 -6 -3 -8 2 -5 6
3 25 -10 43 -29 19 -19 38 -34 43 -34 5 0 7 -4 3 -9 -3 -6 7 -6 27 -1 46 14
66 -5 33 -32 -43 -33 -78 -21 -144 52 l-58 63 -30 -27 c-16 -14 -38 -33 -48
-40 -18 -13 -18 -15 -3 -37 46 -66 77 -93 112 -94 19 -1 33 2 30 7 -9 14 13 9
25 -6 15 -17 0 -28 -26 -20 -13 4 -15 3 -4 -4 10 -7 10 -11 1 -17 -6 -4 -17
-2 -23 4 -6 6 -16 11 -21 11 -6 0 -4 -5 4 -10 12 -8 9 -10 -11 -10 -26 0 -39
11 -102 89 -10 12 -15 26 -12 31 4 6 -5 6 -21 0 -20 -8 -29 -8 -34 1 -10 16 0
50 13 42 6 -3 7 -1 3 6 -4 6 -11 9 -15 6 -11 -6 -38 26 -35 43 1 6 2 20 3 29
1 13 7 11 31 -12 16 -15 29 -31 28 -34 -3 -28 4 -33 18 -13 11 16 22 21 37 17
17 -5 18 -4 8 4 -12 8 -12 12 -2 25 7 9 16 14 20 12 16 -10 8 39 -9 61 -10 13
-16 31 -13 39 6 17 9 17 34 3z m-152 -283 c14 -15 20 -30 15 -38 -4 -7 -4 -10
1 -6 9 8 94 -91 95 -110 0 -25 -63 -92 -106 -112 -37 -18 -46 -19 -66 -8 -29
17 -48 40 -41 52 4 5 1 6 -5 2 -6 -3 -20 7 -32 24 -12 16 -18 30 -14 30 4 0
-1 7 -12 15 -10 8 -14 15 -9 15 6 0 4 4 -4 9 -14 9 -9 41 7 41 5 0 35 -34 66
-75 67 -89 94 -97 145 -43 30 32 30 46 -1 82 -4 6 -20 25 -34 41 -55 65 -64
81 -52 93 17 17 21 15 47 -12z m-414 -192 l27 -45 34 26 c41 31 106 44 129 25
8 -7 12 -17 8 -23 -3 -5 -1 -7 4 -4 15 9 46 -29 39 -48 -3 -9 -2 -13 3 -10 6
3 24 -15 41 -40 30 -44 31 -47 14 -59 -15 -12 -21 -10 -41 18 -12 17 -28 41
-34 54 -7 12 -17 22 -22 22 -5 0 -4 6 2 14 9 11 9 16 0 22 -8 4 -9 3 -5 -4 11
-19 -2 -14 -24 8 -12 12 -18 25 -15 30 8 13 -56 -20 -86 -45 l-26 -21 58 -84
c32 -46 55 -88 52 -94 -3 -5 -1 -6 5 -2 6 3 13 3 16 -2 2 -4 -4 -13 -14 -20
-17 -10 -23 -7 -44 25 -14 20 -22 41 -19 46 3 6 2 7 -4 4 -5 -3 -44 46 -86
109 -62 94 -74 118 -64 129 18 21 23 19 52 -31z m-47 -138 c3 -15 0 -18 -17
-13 -12 3 -21 2 -21 -2 0 -4 -11 -13 -25 -19 -28 -13 -34 -52 -10 -72 11 -9
25 -8 64 5 51 17 92 13 112 -11 19 -24 20 -74 1 -106 -21 -36 -101 -75 -114
-56 -4 7 -8 16 -8 19 0 7 72 44 85 43 6 -1 11 6 12 15 0 9 3 26 6 38 4 13 -1
27 -11 35 -12 10 -14 10 -8 0 6 -10 2 -11 -16 -7 -13 3 -37 -1 -53 -9 -32 -17
-80 -22 -71 -7 3 5 -2 8 -12 7 -9 0 -16 5 -14 12 1 6 -4 11 -10 10 -8 -2 -14
10 -16 32 -2 26 4 42 23 63 15 15 31 24 37 21 6 -4 8 -3 4 4 -3 5 0 13 6 16
25 10 53 1 56 -18z m-5330 -1898 c7 -7 12 -20 12 -30 0 -10 10 -20 24 -24 13
-3 29 -16 36 -29 11 -20 10 -28 -4 -50 -39 -60 -116 -48 -116 17 0 17 -3 28
-6 25 -12 -12 -44 14 -44 35 0 48 68 86 98 56z m-94 -140 c44 -51 47 -88 10
-117 -28 -22 -64 -28 -64 -11 0 6 8 10 17 10 19 0 53 28 53 44 0 6 -4 18 -10
26 -7 12 -13 9 -30 -13 -26 -32 -62 -35 -90 -7 -27 27 -25 56 5 85 36 37 67
32 109 -17z m-504 -480 c44 -51 47 -58 26 -58 -7 0 -16 -9 -19 -20 -3 -10 -17
-22 -32 -26 -21 -5 -33 -1 -56 22 -37 36 -39 77 -4 100 24 16 25 18 9 35 -9
10 -13 23 -8 30 5 9 13 5 26 -12 10 -13 37 -45 58 -71z m5548 -850 c7 -7 12
-20 12 -30 0 -10 5 -18 12 -18 19 0 48 -32 48 -52 0 -28 -54 -78 -83 -78 -29
0 -62 33 -53 55 4 11 -2 19 -19 25 -33 13 -33 50 1 84 28 28 62 34 82 14z
m-103 -144 c43 -57 44 -77 6 -115 -31 -31 -71 -39 -71 -14 0 8 8 15 18 15 26
0 54 33 46 54 -5 14 -9 13 -30 -9 -51 -55 -132 -12 -104 55 13 31 51 59 82 60
9 0 33 -21 53 -46z m-394 -376 c33 -36 37 -72 12 -100 -24 -27 -58 -22 -92 15
-37 38 -39 62 -9 94 29 31 54 29 89 -9z m-124 -77 c63 -69 78 -95 57 -96 -7 0
-20 -11 -31 -24 -27 -33 -62 -23 -97 27 -31 46 -33 68 -6 84 24 15 25 31 5 48
-14 12 -12 30 3 30 4 0 35 -31 69 -69z m-3724 -414 c-1 -59 2 -84 10 -84 7 -1
41 -7 77 -15 36 -8 76 -14 88 -13 l23 2 -20 -21 c-20 -20 -23 -20 -96 -5 l-75
15 0 -33 c0 -18 5 -33 11 -33 5 0 8 -4 5 -9 -3 -5 1 -11 9 -15 21 -8 19 -23
-4 -36 -17 -9 -28 2 -85 81 -37 49 -64 94 -61 100 4 5 2 8 -3 7 -14 -5 -64 60
-56 73 4 7 3 9 -3 6 -14 -9 -37 19 -28 33 11 18 21 11 89 -70 37 -44 71 -80
76 -80 6 0 10 32 10 72 0 52 4 76 17 90 9 10 17 18 17 18 1 0 0 -37 -1 -83z
m-158 -116 c7 -13 -15 -26 -40 -23 -11 2 -29 -4 -40 -12 -17 -12 -21 -12 -33
3 -12 14 -12 14 -3 -4 5 -11 7 -31 4 -45 -4 -24 44 -113 72 -132 29 -21 90 8
97 47 2 11 8 23 13 27 15 11 35 10 35 -3 0 -5 -4 -8 -8 -5 -4 3 -8 -10 -8 -27
1 -19 -4 -31 -10 -30 -7 1 -11 -5 -10 -15 0 -10 -6 -16 -16 -16 -10 1 -16 -2
-13 -6 8 -13 -72 -23 -93 -11 -24 13 -55 49 -32 37 8 -4 6 0 -4 8 -11 9 -16
16 -11 16 5 0 0 6 -10 14 -17 12 -18 16 -5 32 14 17 13 18 -1 6 -13 -10 -19
-9 -30 4 -11 13 -11 19 1 37 12 20 12 21 -3 8 -15 -11 -17 -11 -17 2 0 25 28
70 52 84 27 14 104 17 113 4z m-521 -283 c-11 -18 9 -6 29 17 20 24 24 25 42
12 19 -14 18 -16 -14 -42 -18 -16 -28 -31 -23 -34 5 -3 16 -19 25 -36 9 -16
27 -42 41 -57 22 -23 30 -25 56 -18 25 7 32 5 40 -10 11 -21 -1 -32 -52 -44
-35 -8 -95 38 -77 60 9 12 9 13 -3 9 -10 -4 -24 8 -42 35 -20 30 -32 40 -45
35 -26 -8 -46 18 -26 35 12 10 12 15 -6 40 -18 24 -19 30 -7 49 13 21 13 21
40 -11 14 -18 24 -36 22 -40z m-187 -209 c6 -33 43 -56 55 -35 12 21 85 49
111 42 24 -6 47 -42 47 -76 0 -44 -84 -130 -127 -130 -27 0 -10 36 29 65 53
39 66 60 52 83 -13 20 -46 18 -80 -5 -13 -8 -28 -12 -34 -8 -6 4 -9 1 -8 -6 5
-22 -27 -21 -55 1 -26 21 -34 51 -21 84 10 26 24 19 31 -15z m-233 -211 c-4
-7 -3 -8 5 -4 16 10 86 -58 76 -74 -4 -6 -13 -9 -21 -6 -8 3 -13 2 -12 -2 3
-7 -19 -36 -54 -73 -26 -27 -13 -54 27 -56 37 -3 75 26 75 58 0 9 9 19 20 22
25 6 27 -21 5 -63 -20 -39 -53 -60 -94 -60 -29 0 -44 10 -98 63 -55 55 -63 69
-63 101 0 26 4 35 12 30 7 -4 8 -3 4 4 -8 14 42 64 55 56 5 -3 9 0 9 5 0 6 14
11 31 11 20 0 28 -4 23 -12z m-275 -132 l35 -28 16 23 c18 23 40 19 40 -7 0
-8 -9 -23 -20 -34 -18 -18 -19 -23 -7 -40 8 -11 17 -17 20 -13 7 6 11 -13 7
-32 -1 -5 2 -7 6 -2 10 9 45 -23 38 -35 -3 -4 -2 -7 3 -6 4 1 19 -4 32 -11 19
-11 28 -11 47 0 18 9 27 10 36 1 15 -15 2 -46 -18 -38 -8 3 -12 2 -9 -4 3 -5
-5 -9 -17 -8 -38 1 -77 19 -83 39 -4 11 -10 17 -15 14 -10 -6 -36 34 -32 48 1
5 -2 6 -6 3 -5 -3 -17 3 -27 14 -24 26 -27 26 -69 -11 -27 -25 -33 -36 -26
-49 5 -10 6 -21 2 -25 -4 -5 -1 -5 6 -1 15 9 49 -31 44 -49 -2 -5 0 -7 4 -2 4
4 18 -3 31 -15 15 -14 35 -22 58 -21 69 2 63 -44 -8 -54 -28 -3 -38 2 -70 37
-23 24 -35 45 -31 53 4 6 4 9 -1 5 -11 -10 -37 11 -29 23 3 5 0 8 -8 7 -7 -2
-12 2 -11 7 1 6 -10 12 -24 13 -38 3 -52 19 -49 57 2 24 -1 32 -10 28 -16 -6
-36 31 -27 53 5 14 12 10 39 -21 18 -21 30 -43 27 -49 -4 -6 2 -4 13 4 86 65
90 74 53 113 -10 11 -19 26 -19 32 0 16 12 27 19 17 3 -4 21 -20 40 -36z
m-103 -288 c43 -51 78 -97 76 -101 -1 -5 2 -6 7 -3 5 3 13 0 19 -7 15 -17 -25
-80 -45 -73 -8 3 -11 2 -8 -4 10 -16 -54 -42 -86 -35 -34 8 -105 88 -93 106 4
7 3 9 -4 6 -13 -9 -64 51 -56 65 4 6 2 8 -4 4 -15 -9 -27 13 -13 27 18 18 53
-22 46 -53 -4 -21 -3 -22 5 -8 10 17 12 17 29 0 24 -23 66 -85 66 -97 0 -5 17
-9 37 -8 39 0 97 36 78 48 -6 4 -8 16 -5 28 4 14 3 17 -2 9 -12 -15 -57 43
-47 60 4 6 3 8 -3 5 -6 -4 -18 2 -28 13 -10 11 -15 20 -11 20 4 0 -9 14 -29
31 -28 25 -33 34 -24 45 6 8 13 14 14 14 1 0 38 -42 81 -92z m-366 -133 c11
10 20 16 21 14 0 -2 2 -13 4 -23 2 -11 1 -25 -3 -30 -8 -14 -10 -45 -3 -43 3
1 7 -1 8 -6 2 -4 15 -21 30 -38 16 -17 40 -49 56 -72 24 -36 26 -42 12 -56 -8
-8 -18 -11 -22 -7 -4 4 -1 12 7 17 13 9 12 10 -2 6 -10 -4 -22 3 -32 19 -9 13
-13 24 -9 24 5 0 3 4 -2 8 -6 4 -50 56 -99 115 -74 91 -86 110 -75 123 11 13
18 10 51 -27 37 -41 39 -41 58 -24z m-87 -114 c4 -15 -2 -22 -22 -29 -38 -13
-61 -39 -61 -68 0 -35 25 -40 76 -15 53 25 72 26 102 5 24 -16 30 -70 12 -104
-11 -21 -103 -80 -125 -80 -27 0 -16 28 19 48 26 15 37 17 46 9 9 -9 11 -9 7
-1 -4 7 2 22 12 35 23 30 13 64 -23 71 -14 3 -23 2 -21 -2 7 -11 -63 -40 -95
-40 -43 0 -66 38 -51 82 14 39 50 80 64 71 6 -3 7 -1 3 5 -6 11 19 31 40 32 7
0 14 -9 17 -19z"/>
</g>
</svg>
