<?xml version="1.0" standalone="no"?>
<!DOCTYPE svg PUBLIC "-//W3C//DTD SVG 20010904//EN"
 "http://www.w3.org/TR/2001/REC-SVG-20010904/DTD/svg10.dtd">
<svg version="1.0" xmlns="http://www.w3.org/2000/svg"
 width="1361.000000pt" height="747.000000pt" viewBox="0 0 1361.000000 747.000000"
 preserveAspectRatio="xMidYMid meet">
<metadata>
Created by potrace 1.16, written by Peter Selinger 2001-2019
</metadata>
<g transform="translate(0.000000,747.000000) scale(0.100000,-0.100000)"
fill="#000000" stroke="none">
<path d="M9203 6896 c-36 -36 -53 -62 -53 -78 0 -15 -10 -33 -24 -44 -14 -10
-27 -28 -30 -40 -5 -19 -14 -23 -54 -26 l-47 -3 3 -49 c3 -57 -6 -66 -60 -66
-32 0 -41 -6 -63 -37 -14 -21 -25 -45 -25 -53 0 -25 -21 -40 -55 -40 -17 0
-36 -5 -42 -11 -16 -16 -5 -71 19 -90 28 -22 31 -157 4 -188 -15 -16 -17 -29
-12 -58 8 -42 8 -44 0 -94 -4 -24 0 -47 11 -69 16 -31 16 -33 -10 -72 -21 -32
-25 -47 -21 -74 8 -39 -16 -70 -61 -79 -61 -13 -71 -22 -88 -80 -15 -52 -18
-56 -38 -50 -12 4 -39 8 -59 9 -29 1 -44 9 -71 39 -19 20 -40 37 -46 37 -6 0
-11 9 -11 20 0 11 -13 32 -30 47 -46 40 -39 113 11 113 9 0 19 6 22 13 3 8 8
99 12 204 9 216 5 233 -50 233 -18 0 -45 -4 -60 -10 -22 -8 -30 -5 -64 26 -35
31 -42 34 -60 23 -23 -15 -31 -38 -31 -92 0 -39 -24 -97 -39 -97 -5 0 -12 -21
-16 -46 -3 -26 -9 -52 -12 -59 -6 -16 -69 -59 -102 -70 -54 -17 -83 -77 -63
-134 9 -25 7 -34 -7 -53 -15 -19 -34 -98 -24 -98 2 0 26 12 53 26 27 14 53 23
58 20 11 -6 1 -71 -15 -101 -7 -12 -23 -27 -38 -35 -15 -8 -33 -29 -40 -47
-12 -28 -23 -35 -74 -50 -63 -19 -78 -35 -66 -73 7 -24 54 -50 88 -50 19 0 78
33 133 75 22 16 26 -1 10 -34 -9 -16 -16 -40 -16 -53 0 -13 -10 -32 -22 -43
-20 -17 -37 -19 -129 -18 -105 2 -106 2 -136 -27 -50 -49 -90 -60 -212 -60
-117 0 -160 -12 -211 -56 -14 -12 -46 -33 -71 -47 -26 -13 -56 -31 -68 -39
-23 -16 -74 -107 -85 -151 -4 -16 -18 -46 -33 -68 -14 -21 -34 -69 -44 -105
-10 -37 -29 -81 -43 -98 -13 -18 -28 -49 -31 -70 -6 -27 -17 -43 -44 -61 -19
-14 -40 -25 -46 -25 -5 0 -28 -16 -49 -36 -36 -33 -44 -36 -84 -31 -31 3 -52
13 -71 33 -15 16 -36 34 -46 40 -14 8 -20 28 -26 82 -4 40 -15 82 -23 94 -25
36 -20 109 10 154 25 36 26 42 17 94 -10 53 3 123 25 140 35 26 41 91 12 137
-21 35 -27 35 -95 -1 -16 -8 -52 -18 -79 -21 -49 -7 -96 -41 -96 -71 0 -16 3
-15 -105 -18 -44 -2 -92 -6 -108 -10 -39 -12 -57 7 -57 59 0 48 12 62 59 71
35 7 50 29 32 47 -22 22 -112 -18 -175 -78 -31 -30 -63 -55 -70 -55 -7 0 -26
-14 -43 -31 -27 -26 -34 -28 -51 -18 -28 17 -59 131 -44 156 4 6 24 18 46 27
34 14 38 19 33 43 -8 45 -38 117 -50 125 -21 13 -62 9 -102 -12 -52 -26 -63
-25 -78 8 -6 15 -15 30 -20 33 -5 3 -17 37 -27 75 -10 38 -25 86 -34 106 -9
21 -16 48 -16 60 -1 13 -11 35 -23 50 -22 27 -23 27 -70 13 -25 -8 -55 -22
-66 -32 -26 -25 -51 -77 -51 -108 0 -37 -28 -32 -46 10 -7 19 -14 44 -14 55 0
12 -18 39 -42 61 -37 35 -43 37 -58 24 -9 -8 -28 -15 -41 -15 -16 0 -33 -11
-47 -30 -27 -36 -35 -37 -63 -9 -14 14 -28 19 -45 15 -14 -4 -34 0 -48 9 -23
15 -25 15 -34 -2 -5 -10 -12 -29 -15 -43 -4 -16 -21 -34 -47 -49 -22 -12 -40
-26 -40 -30 0 -5 -11 -20 -24 -34 -21 -23 -29 -25 -51 -17 -15 6 -33 10 -40
10 -20 0 -65 -48 -65 -69 0 -26 -25 -33 -43 -13 -19 23 -39 129 -28 151 5 9
19 25 30 35 29 26 26 39 -11 58 -53 26 -77 28 -96 8 -13 -14 -35 -20 -82 -22
l-65 -3 -3 -40 c-2 -35 -7 -43 -32 -52 -16 -6 -37 -25 -48 -42 -27 -45 -63
-69 -118 -78 l-49 -8 -6 -58 c-4 -32 -9 -61 -13 -64 -3 -3 -19 9 -36 28 -33
38 -41 95 -15 105 11 5 15 22 15 65 0 33 -4 59 -10 59 -5 0 -19 9 -29 19 -12
12 -27 17 -40 14 -13 -3 -34 5 -59 26 l-40 31 -24 -38 c-14 -20 -27 -57 -30
-82 -8 -72 -35 -120 -67 -120 -23 0 -29 -7 -46 -57 -25 -73 -52 -82 -84 -28
-28 49 -27 67 9 93 l30 23 0 125 c0 131 -5 150 -47 196 -14 15 -27 41 -29 59
-7 61 -42 116 -94 148 l-49 30 -43 -35 c-67 -55 -72 -59 -95 -87 -19 -23 -31
-27 -72 -27 -64 0 -98 14 -112 44 -12 26 -73 56 -114 56 -13 0 -44 -13 -68
-30 -25 -16 -49 -30 -54 -30 -15 0 -57 -40 -84 -80 -13 -19 -35 -47 -49 -61
-14 -14 -44 -49 -68 -77 -43 -50 -44 -50 -101 -49 -39 1 -66 -4 -84 -16 -17
-11 -46 -17 -82 -17 -46 0 -59 4 -77 25 -28 32 -53 32 -74 0 -15 -24 -21 -25
-109 -25 -70 0 -97 4 -109 15 -8 8 -23 15 -33 15 -10 0 -26 9 -35 19 -22 26
-47 18 -94 -30 -29 -29 -46 -39 -70 -39 -34 0 -49 -15 -88 -92 -11 -21 -23
-38 -28 -38 -16 0 -67 -63 -73 -90 -7 -32 -77 -80 -117 -80 -15 0 -36 -9 -47
-21 -12 -13 -37 -23 -65 -26 l-46 -6 0 -44 c0 -25 -8 -55 -17 -70 -10 -15 -13
-28 -8 -30 48 -17 60 -30 57 -63 -4 -33 -29 -79 -45 -80 -13 0 -45 -37 -52
-62 -11 -33 -43 -58 -76 -58 -24 0 -30 -6 -40 -37 -13 -44 -24 -251 -15 -288
4 -14 11 -23 16 -20 6 3 10 2 10 -3 0 -5 22 -31 49 -57 28 -27 48 -51 47 -54
-2 -3 8 -16 23 -27 l26 -21 -3 79 c-2 53 1 84 9 94 19 23 29 -1 29 -76 l0 -65
90 -24 c87 -22 90 -24 69 -39 -20 -14 -28 -13 -86 7 -36 11 -69 19 -74 15 -16
-10 -9 -45 16 -78 l24 -32 -22 -13 c-12 -8 -19 -11 -16 -7 4 4 -5 19 -20 35
-68 72 -123 149 -115 163 4 6 3 8 -4 5 -5 -4 -22 7 -36 24 -25 30 -46 32 -46
3 0 -8 -5 -23 -12 -34 -19 -30 6 -68 39 -62 22 4 25 2 20 -12 -4 -10 -7 -19
-7 -22 0 -2 -12 1 -26 6 -19 7 -23 7 -18 -2 5 -8 2 -9 -12 -4 -10 4 -15 4 -12
0 8 -7 -16 -34 -30 -34 -5 0 -9 -14 -8 -31 1 -36 78 -129 107 -129 19 0 82 67
74 80 -4 7 16 20 31 20 2 0 4 -15 4 -32 0 -41 -62 -102 -97 -95 -14 2 -20 0
-16 -6 4 -6 -3 -8 -18 -4 -13 4 -28 7 -32 7 -5 0 -5 4 -2 10 3 5 0 7 -7 5 -16
-6 -88 108 -88 138 0 24 19 59 29 53 4 -3 8 2 8 10 0 11 -8 13 -31 9 -62 -12
-76 -25 -76 -70 0 -33 6 -47 30 -70 16 -16 30 -35 30 -42 0 -7 5 -13 10 -13 6
0 10 -8 10 -18 0 -10 10 -26 21 -36 17 -14 20 -25 16 -51 -4 -25 0 -40 14 -56
10 -12 19 -31 19 -43 0 -27 7 -35 53 -69 20 -15 37 -36 37 -47 0 -10 20 -42
45 -71 25 -29 45 -61 45 -72 0 -37 19 -57 54 -57 23 0 36 -5 40 -17 3 -10 10
-25 15 -33 20 -29 51 -109 51 -130 0 -11 -15 -36 -34 -54 -18 -19 -36 -47 -39
-64 -5 -23 -16 -34 -47 -48 -22 -10 -40 -24 -40 -32 0 -7 -13 -27 -29 -43
l-29 -29 -144 0 c-160 0 -143 7 -206 -82 -17 -25 -32 -53 -32 -62 0 -19 18
-52 41 -77 14 -14 15 -26 8 -67 -7 -39 -6 -60 6 -94 9 -23 19 -50 22 -60 3
-10 -7 -26 -26 -44 -17 -15 -31 -37 -31 -48 0 -33 -11 -66 -22 -66 -31 0 -139
-64 -164 -97 -26 -35 -29 -45 -34 -154 -4 -98 -8 -122 -26 -146 -22 -29 -37
-87 -37 -138 1 -38 24 -125 34 -125 4 0 10 -14 14 -31 4 -17 27 -53 51 -80 24
-27 45 -53 45 -57 7 -41 6 -133 -2 -137 -5 -4 -9 -18 -9 -32 0 -23 3 -25 30
-20 35 8 60 0 60 -18 0 -7 7 -16 16 -19 30 -12 58 -6 96 20 33 23 38 32 38 65
0 41 3 43 80 53 41 6 48 4 69 -19 19 -23 24 -25 38 -13 10 8 18 9 20 3 9 -26
29 -58 37 -59 5 0 14 8 20 18 32 56 79 73 108 39 17 -21 44 -85 53 -128 8 -36
20 -45 63 -45 32 0 63 -13 89 -37 8 -7 30 -15 51 -18 98 -16 124 -27 153 -69
15 -23 34 -49 41 -59 8 -11 27 -19 48 -20 30 -2 35 -6 38 -29 5 -44 20 -49
108 -34 43 8 91 17 105 21 21 5 30 2 42 -16 13 -17 22 -21 47 -15 26 5 33 2
37 -14 3 -11 14 -20 24 -20 10 0 21 -5 25 -11 4 -7 22 -9 50 -4 41 6 45 4 54
-20 9 -24 13 -25 59 -19 36 5 55 2 73 -10 14 -9 33 -14 42 -10 11 4 16 1 16
-10 0 -17 6 -19 65 -16 22 1 44 8 48 16 13 22 30 17 52 -16 17 -25 26 -30 63
-30 31 0 42 4 42 15 0 8 7 15 16 15 19 0 74 -50 74 -67 0 -6 14 -14 30 -18 17
-4 30 -12 30 -19 0 -17 37 -46 60 -46 12 0 20 -7 20 -16 0 -12 6 -15 24 -10
19 5 26 1 31 -15 7 -21 8 -21 80 -3 15 4 25 -2 35 -21 11 -21 19 -25 42 -20
20 5 30 2 34 -9 4 -9 18 -16 34 -16 16 0 30 -6 33 -12 3 -10 7 -10 17 -1 7 6
19 9 26 6 10 -4 14 4 14 30 0 45 19 61 54 47 35 -13 36 -13 36 5 0 8 8 15 19
15 10 0 24 7 31 15 9 11 23 14 45 9 28 -5 33 -3 39 19 6 24 11 25 98 32 65 5
96 12 104 23 8 11 15 12 29 5 13 -7 25 -6 44 3 27 14 44 3 34 -23 -4 -10 10
-13 60 -13 48 0 66 4 71 15 3 8 0 14 -7 12 -7 -1 -11 4 -9 11 1 8 -2 11 -7 8
-5 -4 -16 3 -24 15 -10 13 -16 16 -19 8 -3 -8 -11 -10 -22 -6 -13 5 -16 14
-12 31 4 16 -1 32 -15 50 -13 16 -18 33 -14 46 9 28 17 25 52 -20 26 -35 32
-38 43 -25 7 8 17 12 23 8 5 -3 7 -1 3 5 -11 19 15 25 28 6 11 -15 10 -20 -13
-40 -19 -16 -23 -25 -14 -35 6 -8 9 -21 8 -29 -2 -11 6 -17 24 -18 14 -1 31
-9 37 -17 17 -23 24 -18 24 15 0 20 5 30 15 30 23 0 18 27 -11 66 -21 28 -25
40 -20 69 8 42 49 74 74 59 25 -16 24 -29 -3 -44 -30 -16 -31 -24 -4 -61 13
-18 29 -29 44 -29 25 0 29 -8 40 -77 7 -46 30 -58 55 -27 11 12 10 18 -3 31
-14 15 -14 18 9 36 18 14 24 26 20 40 -3 12 0 28 7 36 10 14 10 14 -5 3 -14
-11 -18 -10 -27 6 -8 15 -7 23 5 33 14 11 20 8 45 -21 39 -48 38 -87 -3 -122
-29 -24 -32 -29 -20 -48 7 -11 10 -31 6 -45 -5 -18 -2 -25 9 -25 8 0 22 -3 31
-6 8 -3 22 3 33 15 26 31 86 29 107 -4 18 -28 46 -24 46 6 0 16 8 19 46 19 40
0 45 2 39 19 -4 14 0 21 14 26 13 4 17 12 13 27 -5 20 -3 21 59 14 35 -4 66
-12 67 -17 2 -5 17 -9 33 -9 19 0 29 -5 29 -15 0 -8 6 -15 14 -15 7 0 19 -7
26 -14 8 -11 18 -12 36 -5 36 13 42 12 46 -13 3 -21 9 -23 71 -26 63 -3 69 -1
74 18 5 17 12 21 34 18 18 -3 29 0 29 8 0 6 7 17 15 24 13 11 19 8 40 -14 31
-33 90 -36 125 -6 19 17 32 19 66 14 41 -6 43 -5 50 20 6 26 8 27 63 20 86
-10 91 -9 91 17 0 20 4 21 40 15 29 -4 42 -3 45 6 4 9 20 12 49 10 37 -3 44
-1 49 18 5 19 10 20 57 14 46 -6 53 -4 67 15 11 17 22 21 39 17 15 -4 24 -2
24 5 0 13 58 69 71 69 5 0 11 -11 15 -25 5 -21 12 -25 40 -25 22 0 37 -6 40
-15 8 -20 64 -20 64 -1 0 21 15 23 118 18 l92 -5 0 26 c0 33 20 39 111 32 55
-5 78 -11 91 -26 26 -30 56 -23 99 24 l39 42 17 -21 c10 -11 34 -28 54 -37 39
-18 52 -37 42 -63 -5 -15 1 -16 61 -9 l67 7 38 -41 c36 -38 41 -40 67 -31 16
6 35 16 42 23 11 9 19 6 38 -16 19 -22 31 -27 69 -27 31 0 47 -5 51 -15 7 -17
100 -22 106 -5 2 5 23 12 47 16 l43 7 -7 -31 c-6 -27 -3 -33 17 -41 13 -5 30
-21 37 -35 16 -29 33 -33 51 -11 9 10 17 12 30 5 9 -5 20 -7 23 -3 8 8 29 -46
22 -57 -8 -13 31 -31 49 -24 9 3 16 10 16 15 0 5 15 9 34 9 35 0 66 31 66 65
0 10 10 15 29 15 24 0 31 -6 41 -32 l12 -33 14 32 c12 28 17 31 37 24 28 -11
37 -5 56 31 9 17 24 28 40 30 19 2 25 8 23 22 -2 10 -1 29 2 42 6 21 12 24 50
24 27 0 48 6 56 15 24 28 47 18 54 -24 8 -54 0 -71 -36 -71 -20 0 -28 -4 -24
-12 3 -7 9 -21 12 -31 4 -9 11 -17 17 -17 5 0 15 -7 22 -16 7 -10 27 -17 46
-18 32 -1 34 -3 39 -41 l5 -40 54 -3 c41 -2 57 1 63 12 5 9 17 16 28 16 13 0
17 5 13 20 -4 16 0 20 20 20 14 0 37 -4 52 -10 20 -8 27 -7 31 5 4 8 15 15 25
15 14 0 19 7 19 29 0 45 17 81 42 90 32 12 48 3 48 -25 0 -20 5 -24 29 -24 20
0 30 -6 34 -20 4 -16 14 -20 46 -20 38 0 41 2 31 19 -5 11 -10 36 -10 55 0 22
-7 42 -20 54 -21 19 -19 49 4 64 22 15 66 8 88 -16 20 -20 36 -24 114 -30 88
-5 93 -5 118 19 15 14 38 25 52 25 15 0 24 6 24 15 0 10 10 15 30 15 20 0 30
-5 30 -15 0 -17 35 -20 46 -4 4 7 9 7 13 2 8 -13 63 -31 79 -26 6 3 12 13 12
24 0 15 7 19 32 19 17 0 40 8 51 17 15 14 41 19 123 21 100 4 104 3 104 -17 0
-19 6 -21 70 -21 61 0 70 2 70 18 0 24 35 56 53 49 8 -3 21 -19 28 -36 15 -34
30 -39 49 -16 7 8 26 15 42 15 16 0 36 7 44 15 20 19 70 19 78 0 3 -8 17 -15
31 -15 14 0 28 -7 31 -15 4 -8 16 -15 29 -15 12 0 28 -7 35 -15 8 -9 21 -13
32 -9 14 4 21 0 25 -15 3 -12 11 -21 18 -21 18 0 45 -34 45 -56 0 -11 8 -27
19 -35 16 -15 21 -15 54 1 31 15 37 16 41 3 10 -25 7 -33 -13 -33 -10 0 -21
-7 -25 -15 -4 -11 2 -15 20 -15 14 0 39 -8 57 -17 18 -9 41 -17 51 -18 20 -2
48 -33 41 -45 -3 -4 14 -11 38 -16 38 -7 55 -10 94 -13 7 -1 13 -21 15 -49 l3
-47 65 -3 c59 -3 68 -6 92 -34 23 -28 32 -31 75 -29 46 1 52 -2 85 -38 l35
-39 47 11 c36 8 51 17 62 39 8 15 19 28 25 28 5 0 26 -16 46 -36 32 -32 35
-39 28 -72 -15 -81 -18 -77 63 -74 l73 3 12 -30 c10 -27 16 -31 48 -29 24 1
46 -6 64 -20 37 -29 100 -30 115 -2 8 14 21 20 45 20 33 0 40 7 36 38 -4 27
40 70 86 86 62 21 83 42 83 83 0 20 8 41 20 53 25 25 25 26 -7 54 -21 18 -25
28 -19 50 7 28 67 96 85 96 6 0 36 -12 68 -26 44 -20 63 -24 82 -18 33 12 38
41 12 65 -26 24 -27 59 -2 87 24 29 42 28 71 -3 27 -29 45 -31 66 -10 18 17
114 21 143 5 10 -5 21 -22 24 -38 8 -39 32 -47 72 -22 18 11 46 20 63 20 39 0
47 13 47 78 0 29 5 56 11 60 5 4 18 18 27 32 30 44 171 180 187 180 8 0 29 9
45 20 17 11 40 20 53 20 12 0 42 18 67 42 44 40 46 41 84 30 55 -17 73 -15
111 13 19 14 41 25 50 25 17 0 48 31 51 52 3 29 -2 38 -23 38 -29 0 -78 32
-94 61 -9 18 -9 31 3 63 8 24 12 56 9 78 -6 35 -4 39 34 63 22 14 40 29 40 34
0 5 3 16 6 25 3 9 -5 24 -20 37 -20 17 -23 25 -14 36 6 8 9 37 6 77 -4 42 -1
74 8 96 14 33 6 60 -18 60 -6 0 -23 11 -40 25 -16 14 -39 25 -51 25 -35 0 -50
15 -45 43 3 16 -2 37 -13 54 -11 15 -19 36 -19 46 0 41 -29 76 -68 82 -56 9
-67 18 -72 65 -4 38 -9 45 -35 53 -16 5 -48 23 -69 38 -22 16 -50 29 -62 29
-47 0 -53 8 -47 61 6 51 -3 62 -27 34 -21 -26 -54 -14 -60 20 -3 17 -9 29 -13
28 -4 -2 -11 -3 -17 -3 -5 0 -10 -12 -10 -26 0 -21 3 -24 13 -16 10 8 16 6 25
-9 10 -16 10 -20 -3 -25 -9 -4 -19 -4 -22 0 -3 3 -11 -1 -17 -10 -7 -9 -18
-12 -29 -8 -22 8 -57 75 -57 109 0 14 -9 34 -21 46 -13 13 -20 32 -19 52 3 50
3 51 -49 76 -27 13 -52 29 -55 36 -6 16 51 75 72 75 5 0 20 20 33 45 13 25 27
45 31 45 5 0 8 7 8 15 0 8 4 15 9 15 5 0 21 20 35 45 19 31 33 45 49 45 41 1
87 58 87 110 0 16 12 53 27 80 l27 50 -24 74 c-20 65 -21 78 -10 106 7 17 11
33 8 35 -2 2 -27 -11 -56 -30 -28 -19 -57 -35 -64 -35 -7 0 -38 20 -68 45 -30
25 -61 45 -67 45 -9 0 -13 16 -13 49 0 47 -3 52 -50 93 -32 28 -50 51 -50 65
0 17 -11 27 -48 43 -33 14 -60 36 -84 69 -42 55 -119 105 -148 96 -11 -4 -29
1 -42 9 -12 9 -42 16 -65 16 -41 0 -42 1 -33 26 19 48 13 64 -33 83 -45 19
-59 40 -72 108 -3 17 -12 34 -19 36 -8 3 -21 37 -31 76 -9 39 -22 71 -29 71
-6 0 -20 20 -31 45 -12 25 -28 46 -40 49 -31 8 -228 9 -247 1 -9 -4 -29 -27
-43 -51 -27 -47 -45 -55 -109 -51 -32 2 -42 -2 -51 -19 -28 -55 -57 -64 -142
-41 -33 9 -47 9 -50 1 -14 -41 -31 -49 -104 -49 -70 0 -72 -1 -88 -31 -15 -29
-105 -103 -161 -132 -14 -7 -33 -20 -42 -29 -26 -23 -48 -1 -48 49 0 21 -8 50
-17 64 -16 24 -15 28 3 62 16 31 19 55 18 182 -1 103 -5 154 -15 171 -7 13
-19 44 -25 69 -14 52 -1 124 41 227 14 35 25 70 25 79 0 9 14 36 30 61 17 24
30 55 30 68 0 68 63 177 164 283 l40 42 -36 0 c-27 0 -44 9 -73 36 -34 32 -43
35 -77 30 -43 -7 -60 5 -93 66 -17 33 -18 42 -7 78 7 22 17 59 23 83 6 23 18
57 26 76 14 33 85 126 113 147 34 26 70 64 70 73 0 11 43 21 87 19 40 -1 60
14 68 53 4 16 11 29 16 29 5 0 9 7 9 15 0 8 5 15 10 15 11 0 50 36 50 46 0 3
7 12 15 20 8 9 15 32 15 52 1 20 12 68 25 107 13 38 22 72 19 74 -2 2 -30 -2
-61 -10 -60 -14 -87 -15 -235 -11 -76 2 -90 5 -116 27 -17 14 -40 25 -52 25
-56 0 -180 -127 -180 -183 0 -34 -18 -44 -36 -19 -21 30 -111 84 -134 80 l-22
-3 21 -24 c19 -22 20 -26 6 -40 -13 -13 -17 -13 -35 7 -19 20 -19 22 -2 32 16
11 16 11 -1 6 -11 -3 -29 -9 -42 -12 -12 -3 -28 -16 -35 -29 -13 -24 -6 -50
11 -39 7 4 9 -5 6 -24 -6 -38 -16 -54 -28 -46 -5 3 -8 0 -7 -6 4 -15 -39 -47
-74 -56 -23 -5 -35 1 -80 46 -29 29 -46 49 -38 45 10 -4 9 -2 -2 8 -10 8 -16
16 -13 18 2 3 -11 3 -30 1 -19 -2 -33 -7 -31 -11 3 -4 -11 -17 -30 -30 l-35
-24 36 -30 c21 -17 34 -35 31 -43 -3 -8 -2 -13 2 -12 4 2 20 -6 36 -17 23 -15
33 -17 57 -8 21 8 31 8 39 -2 21 -25 -62 -62 -103 -45 -12 5 -19 9 -16 9 8 1
-100 111 -109 111 -4 0 -24 -16 -46 -35 -28 -26 -36 -39 -30 -52 4 -10 6 -21
6 -25 -1 -5 2 -7 7 -5 4 1 27 -18 49 -41 41 -43 42 -44 78 -32 26 9 39 9 47 1
18 -18 -18 -48 -61 -49 -35 -2 -44 4 -100 62 -33 35 -58 67 -54 71 4 4 -3 2
-16 -4 -25 -14 -42 -7 -42 16 0 12 -8 14 -38 10 -68 -11 -94 3 -118 64 -22 53
-23 54 -64 55 -40 1 -43 3 -56 39 -7 21 -26 50 -42 65 -26 24 -30 34 -31 85 0
32 6 70 14 86 13 24 13 34 1 71 -7 24 -21 70 -31 104 -22 70 -46 92 -107 99
-41 4 -46 1 -95 -49z m551 -698 c14 -17 26 -36 26 -42 0 -5 3 -7 6 -4 3 4 30
-20 60 -53 61 -67 61 -70 -1 -132 -39 -39 -83 -54 -113 -38 -10 5 -44 41 -75
79 -55 67 -69 91 -45 76 7 -4 8 -3 4 5 -4 6 -11 9 -16 6 -4 -3 -13 1 -19 9 -8
10 -8 16 3 26 16 13 40 5 31 -11 -4 -5 0 -9 8 -9 15 0 60 -57 60 -77 0 -7 3
-11 5 -8 6 6 52 -47 47 -55 -2 -3 14 -4 36 -2 27 3 45 12 59 30 24 29 19 39
-49 110 -23 24 -38 48 -35 54 4 6 2 8 -4 4 -6 -3 -20 7 -31 23 -16 21 -18 31
-9 34 22 9 24 8 52 -25z m-411 -137 c-2 -6 1 -10 5 -8 5 1 20 -11 34 -27 l25
-29 35 26 c50 38 88 36 138 -10 37 -35 55 -63 28 -47 -7 4 -8 3 -4 -5 4 -6 11
-9 15 -6 13 8 54 -42 46 -56 -5 -7 -4 -10 3 -5 6 3 18 -3 26 -15 15 -23 12
-44 -5 -34 -5 4 -9 0 -9 -7 -1 -13 -20 13 -22 29 0 5 -11 17 -23 28 -12 11
-39 41 -59 68 -44 54 -79 62 -113 25 -22 -25 -37 -59 -24 -55 4 1 31 -28 60
-65 28 -38 48 -68 44 -68 -4 0 0 -5 10 -11 21 -12 22 -35 2 -43 -16 -6 -39 27
-27 39 4 3 0 5 -8 3 -9 -2 -14 4 -14 14 1 10 -2 16 -6 13 -10 -6 -105 124
-105 145 -1 8 -6 14 -12 13 -7 -2 -22 12 -34 29 -14 18 -17 28 -8 24 7 -4 3 1
-10 12 -14 11 -21 24 -17 31 9 15 32 8 29 -8z m-5385 -2083 c7 -7 12 -20 12
-30 0 -10 11 -23 24 -27 43 -17 48 -61 10 -96 -47 -43 -104 -26 -104 30 0 10
-11 26 -25 37 -32 25 -31 33 4 69 31 31 59 37 79 17z m-143 -94 c24 -10 75
-89 75 -118 0 -42 -75 -86 -87 -50 -2 6 9 14 25 17 31 6 49 34 33 50 -5 5 -21
0 -40 -14 -26 -19 -34 -21 -56 -11 -54 25 -56 100 -3 122 29 11 33 11 53 4z
m-439 -474 c54 -56 66 -80 39 -80 -8 0 -15 -6 -15 -14 0 -15 -21 -26 -50 -26
-23 0 -80 64 -80 90 0 11 11 27 25 36 l26 17 -21 22 c-22 24 -16 42 8 22 8 -6
39 -37 68 -67z m5535 -870 c11 -6 19 -21 19 -35 0 -18 5 -25 20 -25 25 0 45
-40 36 -73 -7 -28 -58 -57 -87 -50 -23 6 -43 39 -35 59 3 8 -1 14 -9 14 -8 0
-22 11 -30 24 -20 30 -8 58 33 80 33 19 29 18 53 6z m-125 -114 c11 -8 33 -33
49 -56 28 -40 28 -42 12 -75 -10 -22 -26 -37 -42 -41 -32 -8 -59 12 -29 21 37
12 49 22 52 44 4 27 -12 27 -39 0 -27 -27 -66 -21 -92 12 -17 24 -18 30 -6 55
8 16 25 34 39 41 31 16 31 16 56 -1z m-406 -568 c0 -5 -6 -8 -13 -8 -7 0 -17
-10 -22 -22 -16 -37 -66 -36 -99 2 -33 40 -33 63 0 89 26 20 26 22 9 40 -9 11
-14 25 -9 32 5 8 28 -10 70 -57 35 -38 63 -72 64 -76z m-3814 -332 c-8 -87 -6
-90 84 -106 95 -16 102 -19 88 -34 -7 -7 -19 -13 -28 -14 -23 -1 -114 20 -126
30 -24 18 -23 -45 1 -80 18 -27 21 -37 12 -48 -10 -10 -14 -10 -22 0 -5 7 -23
30 -40 51 -16 20 -29 41 -27 46 1 5 -3 8 -9 7 -6 -2 -16 6 -22 17 -7 11 -37
49 -68 85 -60 70 -79 98 -61 86 6 -3 15 1 20 9 7 13 15 8 45 -31 20 -26 34
-52 30 -58 -3 -6 -3 -8 1 -4 4 4 21 -9 38 -28 17 -19 35 -34 40 -34 6 0 9 25
6 64 -2 36 0 62 4 60 4 -3 5 2 2 11 -5 13 18 43 35 45 2 0 1 -33 -3 -74z
m6510 48 c-3 -8 -2 -12 4 -9 5 3 28 -23 51 -57 46 -68 77 -100 89 -93 4 3 6
33 5 67 -1 41 3 72 13 87 22 36 33 8 26 -69 -6 -64 -6 -65 22 -77 16 -7 60
-20 97 -29 65 -16 67 -17 46 -32 -20 -14 -29 -14 -88 1 -81 21 -78 21 -83 -1
-3 -10 7 -32 23 -52 25 -30 27 -36 14 -49 -12 -13 -17 -11 -34 10 -11 13 -20
29 -21 36 0 6 -3 13 -7 15 -5 2 -24 21 -43 42 -19 22 -28 36 -20 32 8 -4 4 1
-9 12 -15 12 -21 24 -16 32 5 8 4 11 -3 6 -6 -3 -23 12 -40 36 -16 24 -39 52
-51 62 l-22 20 23 13 c30 16 31 16 24 -3z m22 -168 c11 -12 -17 -29 -53 -32
-38 -3 -64 -26 -65 -56 0 -9 16 -36 36 -60 19 -23 42 -51 50 -60 21 -26 59
-22 83 8 11 15 18 30 15 35 -3 5 2 12 11 16 10 3 21 0 25 -7 21 -34 -19 -92
-77 -110 -28 -10 -38 -9 -69 10 -22 14 -33 28 -30 37 3 8 2 12 -3 8 -13 -7
-81 104 -81 133 0 14 15 39 35 59 32 32 40 35 76 30 22 -3 43 -8 47 -11z
m-6694 -5 c9 -13 -19 -32 -37 -25 -16 6 -57 -11 -69 -30 -15 -22 -7 -54 22
-91 16 -20 27 -41 25 -46 -3 -4 0 -11 6 -15 8 -5 9 -3 4 7 -8 12 -6 12 8 0 9
-7 15 -17 12 -21 -3 -4 12 -4 32 0 36 9 53 26 63 65 3 11 14 21 23 23 13 3 17
-4 17 -32 0 -36 -14 -56 -24 -34 -2 7 -4 2 -3 -12 1 -18 -3 -25 -15 -24 -10 1
-16 -3 -15 -8 1 -6 -11 -15 -26 -20 -34 -12 -83 5 -71 24 4 6 3 8 -3 5 -11 -7
-32 15 -71 71 -27 39 -43 110 -22 97 8 -5 11 -4 7 3 -11 16 3 41 32 57 29 16
97 20 105 6z m6188 -284 c-1 -5 2 -6 8 -2 5 3 10 1 10 -5 0 -6 11 2 24 17 23
26 26 27 42 11 15 -14 15 -20 4 -33 -7 -9 -19 -14 -26 -11 -7 3 -11 -2 -9 -12
2 -9 4 -20 4 -24 1 -4 7 -13 15 -21 8 -8 25 -30 38 -49 21 -31 29 -35 67 -35
49 0 69 -19 43 -40 -32 -23 -77 -16 -112 20 -41 41 -76 91 -70 97 3 3 -9 5
-25 6 -46 0 -56 10 -43 39 6 13 15 22 21 18 6 -3 7 -1 3 5 -4 6 -13 9 -20 6
-23 -9 -46 34 -34 61 l11 24 26 -32 c14 -17 25 -35 23 -40z"/>
</g>
</svg>
