<?xml version="1.0" standalone="no"?>
<!DOCTYPE svg PUBLIC "-//W3C//DTD SVG 20010904//EN"
 "http://www.w3.org/TR/2001/REC-SVG-20010904/DTD/svg10.dtd">
<svg version="1.0" xmlns="http://www.w3.org/2000/svg"
 width="689.000000pt" height="1327.000000pt" viewBox="0 0 689.000000 1327.000000"
 preserveAspectRatio="xMidYMid meet">
<metadata>
Created by potrace 1.16, written by Peter Selinger 2001-2019
</metadata>
<g transform="translate(0.000000,1327.000000) scale(0.100000,-0.100000)"
fill="#000000" stroke="none">
<path d="M2797 12808 c-9 -24 -23 -68 -33 -98 -23 -77 -55 -165 -90 -249 -13
-32 -15 -60 -10 -143 4 -57 3 -109 -2 -116 -5 -7 -28 -16 -53 -20 -42 -7 -45
-10 -58 -53 -10 -32 -23 -52 -44 -64 -26 -16 -29 -21 -23 -54 13 -81 15 -76
-34 -79 -67 -4 -87 -10 -115 -36 -47 -44 -54 -118 -16 -175 25 -39 22 -154 -6
-211 -30 -61 -70 -84 -131 -76 -26 4 -52 3 -58 -1 -16 -12 -34 -49 -34 -71 0
-11 -18 -34 -40 -53 -26 -23 -42 -45 -46 -68 -4 -20 -23 -50 -48 -75 -46 -47
-70 -91 -59 -109 4 -7 31 -45 61 -85 39 -51 52 -76 45 -83 -8 -8 -22 4 -50 41
-36 49 -38 50 -41 25 -2 -15 4 -45 12 -67 16 -38 14 -58 -5 -58 -16 0 -128 85
-129 98 0 16 -6 15 -35 -4 -34 -23 -32 -42 4 -36 25 3 33 -2 55 -34 14 -21 26
-46 26 -56 0 -20 -46 -58 -70 -58 -19 0 -70 53 -70 72 0 6 -6 6 -15 -2 -13
-10 -11 -18 15 -55 33 -47 37 -65 17 -65 -7 0 -20 -9 -30 -21 -28 -33 -74 -22
-101 23 l-21 37 24 32 c18 24 20 33 11 39 -14 8 -56 79 -86 140 -94 197 -109
246 -101 316 2 25 14 59 26 75 15 20 21 43 21 79 0 58 -3 59 -98 36 -204 -51
-206 -51 -328 -48 -136 3 -151 -4 -140 -58 6 -32 54 -141 66 -150 8 -6 40 -69
64 -123 9 -21 16 -51 16 -67 0 -16 7 -55 15 -87 20 -77 20 -262 -1 -350 -25
-105 -16 -156 48 -278 12 -22 23 -66 26 -97 4 -51 1 -63 -33 -125 -21 -37 -42
-71 -47 -74 -5 -3 -11 -28 -15 -56 -5 -42 -1 -60 21 -108 45 -95 63 -277 30
-309 -8 -9 -20 -16 -25 -16 -10 0 -49 -73 -49 -94 0 -8 -12 -38 -27 -67 -35
-70 -39 -124 -18 -250 12 -75 25 -119 48 -159 26 -47 30 -65 30 -125 0 -159
-11 -302 -26 -340 -22 -54 -21 -100 2 -122 10 -10 26 -40 35 -68 10 -32 30
-63 54 -85 83 -76 150 -261 167 -460 4 -41 13 -86 20 -100 8 -14 23 -51 34
-82 32 -91 56 -124 102 -145 22 -9 27 -20 33 -65 19 -153 44 -214 101 -239 22
-10 47 -19 56 -19 24 0 43 -43 30 -68 -21 -38 -13 -85 18 -114 16 -15 31 -40
34 -55 3 -16 11 -47 18 -70 12 -39 11 -43 -15 -77 -15 -20 -32 -36 -39 -36 -6
0 -22 -12 -34 -27 -19 -21 -23 -38 -23 -92 0 -36 5 -86 11 -111 6 -25 14 -85
19 -135 5 -49 14 -139 19 -200 11 -109 45 -245 62 -245 5 0 9 -6 9 -13 0 -8 9
-22 21 -33 59 -53 64 -69 71 -234 4 -85 11 -175 15 -200 6 -30 4 -69 -4 -115
-16 -81 -8 -231 13 -259 11 -16 22 -18 76 -12 35 3 79 8 99 12 33 5 37 4 52
-29 10 -19 17 -40 17 -47 0 -20 30 -70 43 -70 6 0 25 11 41 25 42 36 53 20 77
-106 11 -57 29 -122 40 -145 10 -22 25 -85 33 -140 23 -155 66 -245 140 -288
51 -30 154 -138 161 -169 3 -12 9 -67 14 -123 4 -60 15 -114 25 -135 9 -19 26
-79 37 -134 11 -55 26 -109 33 -120 29 -47 40 -104 28 -144 -14 -46 -16 -135
-3 -159 64 -118 110 -235 116 -292 4 -36 18 -87 31 -114 14 -27 29 -81 35
-120 6 -39 23 -93 37 -121 21 -40 26 -62 24 -107 -2 -35 2 -58 8 -58 5 0 10
-7 10 -15 0 -8 4 -15 8 -15 15 0 49 -94 56 -152 3 -32 13 -83 21 -115 8 -31
15 -72 15 -91 0 -19 17 -77 39 -130 32 -82 41 -120 56 -247 19 -163 27 -195
49 -195 8 0 30 -9 49 -20 30 -18 35 -27 41 -73 3 -28 9 -73 12 -100 l7 -47
-38 0 c-43 0 -74 30 -75 70 -1 71 -63 91 -120 39 -28 -26 -32 -34 -22 -48 7
-9 26 -44 44 -79 29 -60 70 -102 100 -102 7 -1 23 -9 36 -19 17 -15 22 -30 22
-65 0 -26 7 -57 16 -71 9 -14 18 -62 23 -125 8 -98 9 -102 44 -138 42 -43 57
-78 57 -131 0 -48 19 -65 63 -57 36 7 60 38 72 94 5 26 4 32 -10 32 -12 0 -15
5 -11 16 3 9 6 26 6 38 0 43 23 59 94 67 36 3 73 12 81 19 19 16 19 69 0 106
-8 16 -15 49 -15 74 0 30 -10 66 -30 105 -33 67 -36 92 -17 119 12 17 16 16
47 -17 18 -20 37 -34 42 -31 13 8 9 95 -7 139 -16 46 -19 128 -5 154 11 21 61
34 95 25 15 -4 25 -15 29 -34 7 -39 40 -70 73 -70 46 0 89 -34 115 -89 18 -41
28 -51 47 -51 14 0 32 7 42 16 10 9 35 18 57 21 35 5 44 1 81 -32 36 -32 46
-37 76 -32 32 5 36 3 50 -27 9 -18 31 -48 50 -66 33 -32 37 -33 68 -22 39 14
57 15 76 3 11 -7 8 -16 -14 -45 -19 -25 -24 -40 -18 -49 6 -6 18 -35 27 -64
20 -59 40 -72 84 -49 15 8 33 11 38 8 17 -11 36 -101 43 -198 9 -128 31 -151
89 -91 32 33 32 34 31 128 l-2 95 36 40 c20 21 46 49 57 62 16 18 24 21 39 13
22 -12 51 -69 52 -103 1 -45 35 -112 60 -119 33 -8 77 6 99 31 35 40 37 149 4
210 -39 72 -59 253 -33 301 5 11 13 38 17 60 l7 39 35 -25 c24 -17 42 -23 58
-18 23 6 24 9 17 62 -7 61 -25 121 -36 121 -4 0 -17 16 -30 36 -21 34 -21 38
-6 64 22 36 22 137 2 176 -38 73 -16 82 209 86 l180 3 6 -25 c5 -22 14 -26 66
-36 34 -6 68 -13 77 -17 18 -7 27 11 27 53 0 34 -23 60 -54 60 -33 0 -46 19
-46 66 0 25 -5 44 -13 47 -7 2 -21 21 -32 40 -19 35 -19 37 0 56 15 18 30 21
90 21 56 0 75 4 87 18 22 25 37 150 32 277 -5 165 -11 193 -53 252 -36 49 -38
57 -45 153 -5 86 -10 107 -33 143 -15 23 -32 55 -38 72 -15 44 -55 60 -160 62
l-90 2 2 38 c1 21 5 70 9 108 5 58 3 73 -10 84 -10 8 -16 29 -16 52 0 32 -7
46 -40 79 -22 22 -40 46 -40 53 0 6 11 31 24 54 14 24 28 64 32 90 4 27 17 69
30 94 25 49 24 53 -21 124 -30 46 -59 73 -106 98 -38 20 -50 35 -88 111 -24
49 -46 107 -48 130 -3 25 6 84 22 150 26 108 26 109 8 165 -24 76 -25 239 0
299 12 30 17 71 17 136 l0 94 -45 58 c-42 54 -58 90 -35 82 5 -1 27 -27 49
-56 37 -50 40 -52 50 -33 14 25 14 64 1 56 -18 -11 -10 36 10 62 11 14 20 36
20 49 0 22 23 54 39 54 15 0 38 61 33 86 -3 15 -15 29 -30 35 -56 21 -92 88
-92 170 0 31 -25 79 -51 99 -13 10 -29 112 -29 181 0 63 3 72 27 95 24 23 34
25 74 20 37 -5 51 -2 72 15 15 11 27 27 27 34 0 8 11 26 23 41 32 36 53 27 80
-36 l22 -50 50 0 c53 0 72 -13 110 -75 35 -55 63 -78 90 -73 18 4 36 -3 61
-23 l36 -28 39 24 c31 20 52 25 103 25 58 0 65 2 81 26 9 15 20 50 24 78 9 62
30 97 76 122 33 18 35 21 35 74 0 35 7 68 19 90 10 19 26 60 36 90 10 30 31
74 46 98 16 24 29 51 29 60 0 23 -29 66 -63 92 -30 24 -34 48 -13 88 31 61 39
129 26 215 -12 77 -52 180 -85 217 -26 30 -45 122 -45 224 0 89 -3 107 -26
153 -15 28 -24 58 -21 66 3 8 34 22 70 33 78 22 93 40 76 92 -7 20 -25 58 -42
85 l-29 48 -2 238 c-1 170 2 245 11 262 29 56 53 132 53 165 0 19 -7 61 -17
94 -14 53 -15 70 -3 144 7 46 10 103 7 125 -6 51 -72 151 -99 151 -10 0 -34
-15 -54 -33 l-36 -32 22 -28 c12 -15 19 -27 16 -27 -3 0 5 -10 17 -23 21 -22
40 -45 77 -92 14 -17 13 -18 -2 -12 -10 3 -17 3 -15 -1 1 -4 -1 -8 -5 -10 -5
-1 -8 0 -8 3 -1 2 -24 26 -51 53 -28 27 -52 58 -53 68 -2 11 -8 19 -15 19 -7
0 -32 27 -57 59 -39 53 -43 62 -29 75 13 13 18 10 48 -24 l34 -39 35 37 c33
34 82 56 95 44 11 -12 32 21 44 68 13 53 5 90 -36 155 -12 19 -32 67 -45 105
-43 130 -58 170 -91 234 -24 49 -34 85 -41 150 -5 47 -15 140 -23 206 -9 66
-15 136 -15 155 0 60 -32 214 -48 233 -10 11 -30 17 -59 17 -52 0 -81 26 -119
107 -14 29 -39 65 -56 80 -91 81 -91 81 -83 121 9 47 9 60 1 157 -5 58 -3 95
7 133 14 50 13 53 -6 64 -31 16 -192 2 -217 -20 -11 -9 -20 -23 -20 -30 0 -8
-6 -28 -14 -45 -8 -18 -16 -41 -18 -52 -2 -12 -12 -21 -26 -23 -41 -6 -52 14
-52 92 0 91 -6 110 -36 127 -33 17 -118 17 -139 -1 -14 -12 -16 -25 -11 -71
l7 -57 -37 -12 c-36 -12 -151 -8 -188 6 -9 3 -18 24 -22 50 -5 39 -9 44 -31
44 -36 0 -85 -33 -107 -72 -30 -52 -66 -79 -101 -76 -24 2 -34 11 -50 45 -14
31 -26 43 -45 45 -21 3 -27 11 -37 50 -6 26 -14 52 -18 58 -9 15 -82 12 -139
-5 -27 -8 -84 -15 -126 -15 -66 0 -81 3 -103 23 -26 22 -27 26 -27 138 0 115
13 183 45 246 9 18 15 57 15 107 0 70 -3 83 -29 121 -35 52 -51 121 -51 220 0
69 2 75 36 116 45 54 57 84 48 123 -8 36 -57 111 -82 125 -14 8 -17 25 -17
111 0 78 -3 103 -15 111 -18 12 -145 2 -174 -13 -11 -6 -52 -14 -92 -19 -40
-4 -88 -11 -107 -14 -27 -5 -39 -2 -63 18 l-30 25 -47 -43 c-38 -35 -54 -43
-83 -42 -39 1 -73 -30 -74 -68 -1 -28 -21 -52 -55 -65 -38 -14 -57 -6 -100 43
-48 56 -47 55 -69 107 -10 25 -25 59 -32 75 -7 17 -26 38 -42 47 -19 12 -43
43 -64 85 -19 38 -46 87 -61 110 -15 24 -27 47 -27 53 0 6 -4 18 -10 28 -5 9
-14 29 -20 45 -13 38 -26 34 -43 -15z m-545 -1525 c8 -10 18 -26 21 -35 4 -10
13 -18 20 -18 24 0 49 -36 45 -66 -2 -15 -15 -36 -31 -48 -26 -19 -30 -19 -55
-6 -15 9 -31 29 -37 48 -5 17 -15 32 -22 32 -14 0 -43 38 -43 57 0 21 38 53
63 53 13 0 31 -8 39 -17z m-83 -127 c38 -41 51 -62 51 -85 0 -34 -36 -65 -66
-59 -30 5 -26 25 6 31 24 5 30 12 30 32 0 28 -12 32 -30 10 -21 -26 -65 -18
-94 16 -30 35 -33 65 -9 91 28 31 57 22 112 -36z m3794 -2345 c3 -12 -4 -23
-22 -34 -64 -38 -76 -60 -49 -94 8 -10 21 -7 59 12 48 25 94 32 115 17 20 -13
36 -53 28 -70 -4 -9 -8 -19 -8 -22 -6 -22 -29 -49 -38 -44 -6 4 -8 3 -4 -4 10
-17 -53 -57 -72 -45 -25 15 -25 30 1 37 64 16 103 107 49 114 -13 2 -20 8 -16
14 4 7 2 8 -5 4 -6 -4 -9 -12 -6 -17 4 -5 0 -9 -7 -9 -7 0 -24 -9 -38 -20 -50
-39 -102 -17 -106 45 -4 48 7 69 58 105 48 35 54 36 61 11z m-1011 -3919 c15
-20 42 -54 59 -74 28 -35 29 -39 12 -45 -10 -4 -24 -15 -31 -25 -21 -28 -65
-23 -90 12 -30 40 -28 75 3 96 24 16 25 18 9 35 -15 16 -12 39 4 39 4 0 19
-17 34 -38z"/>
</g>
</svg>
