<?xml version="1.0" standalone="no"?>
<!DOCTYPE svg PUBLIC "-//W3C//DTD SVG 20010904//EN"
 "http://www.w3.org/TR/2001/REC-SVG-20010904/DTD/svg10.dtd">
<svg version="1.0" xmlns="http://www.w3.org/2000/svg"
 width="1275.000000pt" height="1061.000000pt" viewBox="0 0 1275.000000 1061.000000"
 preserveAspectRatio="xMidYMid meet">
<metadata>
Created by potrace 1.16, written by Peter Selinger 2001-2019
</metadata>
<g transform="translate(0.000000,1061.000000) scale(0.100000,-0.100000)"
fill="#000000" stroke="none">
<path d="M11315 10500 c-3 -5 -17 -10 -31 -10 -17 0 -24 -6 -24 -19 0 -13 -8
-21 -22 -23 -17 -2 -24 -11 -26 -30 -3 -24 -8 -28 -35 -28 -40 0 -53 -9 -66
-43 -8 -21 -17 -27 -42 -27 -22 0 -32 -5 -36 -20 -3 -12 -14 -20 -27 -20 -32
0 -48 -14 -40 -34 6 -17 2 -18 -54 -11 -52 6 -62 5 -62 -8 0 -9 5 -19 10 -22
18 -11 11 -47 -10 -52 -11 -3 -21 -9 -21 -14 -1 -5 -2 -15 -3 -21 -1 -15 -114
-31 -164 -24 -29 4 -32 3 -27 -15 6 -17 1 -19 -44 -19 -44 0 -51 -3 -51 -20 0
-14 -7 -20 -21 -20 -25 0 -81 -38 -74 -50 3 -5 -2 -16 -11 -24 -8 -9 -14 -22
-11 -29 2 -6 -8 -20 -22 -29 -36 -25 -331 -27 -351 -3 -7 8 -21 15 -31 15 -10
0 -23 9 -29 20 -9 16 -19 19 -61 17 -37 -3 -55 1 -71 15 -11 9 -25 15 -29 12
-15 -9 -49 6 -49 21 0 24 -30 45 -65 45 -28 0 -35 -5 -44 -31 -11 -32 -11 -32
-67 -25 -50 6 -56 4 -61 -14 -4 -14 -14 -20 -34 -20 -31 0 -54 -29 -45 -58 4
-12 -5 -24 -29 -41 -26 -17 -35 -31 -35 -51 0 -20 -6 -29 -21 -33 -17 -5 -20
-12 -17 -31 4 -18 0 -26 -15 -30 -15 -4 -18 -10 -13 -29 8 -33 -28 -57 -85
-57 l-41 0 6 -34 c6 -29 3 -34 -15 -39 -15 -4 -19 -11 -15 -24 4 -13 -1 -21
-17 -29 -12 -5 -21 -14 -20 -20 1 -5 5 -22 8 -37 6 -24 4 -27 -18 -27 -36 0
-51 -23 -43 -69 7 -46 0 -55 -28 -36 -11 8 -26 15 -33 15 -21 0 -15 -27 7 -33
51 -13 29 -84 -28 -89 -21 -2 -38 -10 -43 -20 -5 -10 -13 -26 -18 -35 -4 -10
-17 -19 -29 -21 -12 -2 -24 -12 -27 -23 -4 -11 -24 -27 -45 -35 -27 -11 -42
-25 -49 -45 -9 -26 -31 -41 -31 -21 0 9 -74 92 -82 92 -4 0 -5 -7 -1 -16 4
-10 -1 -22 -12 -30 -13 -9 -16 -20 -11 -39 6 -22 3 -28 -14 -32 -11 -3 -20
-14 -20 -24 0 -14 -7 -19 -27 -19 -16 0 -34 4 -42 9 -11 7 -18 4 -26 -12 -8
-16 -18 -21 -39 -19 -28 4 -28 3 -22 -32 l7 -36 -41 0 c-27 0 -43 -5 -46 -15
-5 -11 -22 -15 -65 -15 -32 0 -59 -4 -59 -9 0 -5 -10 -11 -22 -13 -17 -2 -24
-11 -26 -33 l-3 -31 -104 0 c-96 0 -106 -2 -126 -23 -18 -20 -23 -21 -42 -8
-11 7 -24 23 -28 35 -7 19 -4 22 27 28 48 9 50 20 7 35 -21 7 -51 26 -67 43
-27 30 -28 30 -43 11 -8 -11 -21 -19 -29 -17 -7 2 -24 -6 -35 -17 l-22 -20 37
-38 c39 -41 43 -54 22 -72 -8 -7 -13 -21 -11 -32 4 -17 -2 -19 -66 -19 l-69 0
0 -45 c0 -41 -2 -45 -24 -45 -28 0 -41 27 -31 61 5 15 2 22 -14 26 -12 3 -21
11 -21 18 0 15 -32 45 -48 45 -7 0 -12 -9 -12 -20 0 -13 -5 -18 -15 -14 -13 5
-19 -5 -17 -28 3 -19 -26 -26 -66 -16 -54 13 -77 6 -62 -21 16 -31 12 -45 -20
-66 -16 -11 -31 -29 -32 -40 -2 -11 -15 -26 -30 -33 -16 -7 -28 -17 -28 -23 0
-18 -28 -9 -33 11 -7 27 -32 35 -76 24 -27 -7 -35 -14 -33 -28 3 -16 -1 -17
-36 -11 l-39 6 5 -69 c4 -63 3 -71 -16 -81 -11 -6 -22 -21 -24 -33 -2 -17 -11
-24 -30 -26 -20 -2 -28 -9 -28 -23 0 -17 -8 -19 -85 -19 -77 0 -85 -2 -85 -19
0 -26 -15 -34 -40 -21 -20 11 -25 5 -21 -28 1 -8 -5 -22 -15 -33 -18 -20 -13
-49 9 -49 27 0 40 -252 13 -267 -7 -4 -18 -18 -25 -30 -6 -13 -18 -23 -26 -23
-10 0 -15 -10 -15 -29 0 -17 -6 -31 -16 -35 -10 -4 -13 -13 -9 -25 5 -15 1
-18 -20 -13 -18 3 -25 0 -25 -12 0 -11 -9 -16 -29 -16 -28 0 -30 -3 -33 -42
l-3 -43 -67 3 c-67 4 -68 3 -68 -21 0 -13 -7 -30 -15 -37 -8 -7 -15 -27 -15
-45 0 -41 -14 -53 -69 -57 -41 -3 -45 -6 -56 -38 -6 -19 -18 -36 -26 -38 -8
-1 -32 16 -54 38 -21 22 -47 40 -56 40 -18 0 -31 22 -33 58 -1 13 -7 27 -14
31 -7 4 -14 17 -17 29 -2 11 -8 30 -14 41 -15 28 -14 56 4 71 11 9 15 33 15
92 0 72 10 114 30 128 4 3 11 20 15 38 6 30 5 32 -23 32 -21 0 -31 -6 -35 -20
-3 -13 -14 -20 -30 -20 -14 0 -27 -7 -31 -15 -3 -9 -18 -15 -35 -15 -16 0 -31
-6 -35 -15 -3 -8 -17 -15 -31 -15 -16 0 -25 -6 -25 -15 0 -8 -5 -15 -11 -15
-7 0 -10 -12 -7 -30 4 -25 1 -30 -15 -30 -16 0 -19 -5 -14 -29 5 -24 2 -30
-15 -34 -16 -5 -19 -11 -14 -31 5 -22 3 -26 -14 -26 -17 0 -19 -3 -11 -19 13
-23 5 -31 -27 -31 -25 0 -83 -15 -112 -30 -10 -5 -14 -18 -12 -39 3 -23 -1
-31 -12 -31 -12 0 -16 -10 -16 -35 0 -24 -5 -35 -15 -35 -8 0 -31 -18 -52 -39
-27 -28 -48 -40 -73 -43 -38 -3 -36 1 -23 -81 4 -29 2 -41 -12 -50 -15 -12
-17 -31 -16 -166 2 -144 1 -154 -19 -168 -12 -9 -20 -25 -20 -43 0 -20 -8 -35
-25 -46 -33 -21 -32 -30 5 -37 18 -4 30 -13 30 -22 0 -10 10 -15 30 -15 25 0
30 -4 30 -25 0 -20 -6 -27 -30 -32 -17 -3 -33 -10 -36 -14 -3 -5 -36 -9 -75
-9 -67 0 -69 -1 -69 -25 0 -25 -1 -25 -80 -25 l-80 0 0 -28 c0 -30 -16 -52
-37 -52 -7 0 -13 8 -13 18 0 15 -50 72 -64 72 -13 0 -5 -47 14 -77 l19 -32
-29 -30 c-17 -16 -30 -36 -30 -44 0 -8 -9 -17 -19 -20 -14 -3 -18 -11 -14 -26
3 -13 1 -21 -7 -21 -7 0 -20 -11 -30 -23 -15 -19 -26 -23 -51 -19 l-32 5 5
-72 5 -72 -27 6 c-21 5 -31 2 -38 -11 -7 -13 -13 -14 -31 -5 -28 16 -39 7 -33
-24 3 -20 0 -25 -16 -25 -24 0 -37 -16 -22 -25 17 -10 11 -39 -11 -59 -19 -16
-21 -26 -18 -109 l4 -92 -27 -3 c-19 -2 -28 -9 -28 -22 0 -10 -7 -20 -15 -24
-8 -3 -15 -1 -15 4 0 20 -27 9 -38 -15 -12 -25 -36 -33 -47 -15 -10 15 -35 12
-35 -5 0 -10 -10 -15 -28 -15 -28 0 -28 -1 -27 -57 2 -48 6 -60 29 -78 25 -20
26 -23 12 -38 -9 -8 -16 -19 -16 -24 0 -4 -14 -17 -30 -28 -27 -18 -30 -25
-30 -73 0 -45 -3 -55 -20 -59 -23 -6 -26 -21 -6 -29 8 -3 17 -16 20 -30 4 -13
13 -24 22 -24 15 0 35 -39 27 -53 -3 -5 -13 -7 -23 -4 -11 3 -21 -2 -24 -10
-5 -11 -15 -14 -41 -9 -48 9 -46 -7 9 -69 25 -27 43 -52 40 -56 -2 -4 -18 -10
-34 -14 -24 -5 -30 -12 -30 -31 0 -24 -43 -74 -86 -100 -28 -16 -28 -31 0 -55
32 -28 34 -71 5 -100 -16 -16 -20 -29 -15 -50 5 -24 2 -29 -14 -29 -21 0 -23
-6 -20 -57 1 -29 -1 -33 -24 -33 -22 0 -26 -5 -26 -29 0 -43 20 -91 38 -91 10
0 30 -19 46 -42 27 -37 29 -48 28 -115 -2 -88 -16 -123 -57 -136 -16 -5 -37
-16 -46 -23 -8 -8 -28 -14 -42 -14 -17 0 -27 -5 -27 -14 0 -10 -14 -16 -43
-18 l-42 -3 -3 -47 -3 -47 -43 5 c-38 6 -45 3 -60 -17 -9 -13 -16 -34 -16 -46
0 -19 -5 -23 -33 -23 -24 0 -35 -6 -42 -22 -7 -15 -19 -23 -35 -23 -25 0 -27
-5 -15 -36 5 -13 -5 -20 -42 -32 -57 -19 -78 -10 -116 48 -19 30 -27 35 -63
35 -47 0 -74 -23 -74 -62 0 -35 -23 -53 -49 -39 -28 15 -86 14 -100 -3 -13
-16 -6 -42 15 -50 9 -3 14 -20 14 -45 0 -46 -13 -54 -71 -45 l-40 7 11 -28
c13 -34 1 -45 -47 -45 l-33 0 0 95 c0 97 -3 105 -40 85 -27 -14 -42 10 -38 62
2 35 7 44 25 46 20 3 21 7 16 53 -5 45 -4 49 15 49 19 0 20 3 11 26 -5 15 -7
35 -3 46 5 16 12 19 39 14 27 -5 35 -2 49 19 19 30 8 55 -24 55 -10 0 -29 6
-44 13 l-26 14 31 27 c29 27 31 46 3 46 -10 0 -14 12 -14 40 0 29 -4 40 -15
40 -10 0 -15 10 -15 28 0 18 -11 40 -32 61 l-31 32 21 38 c29 51 29 68 -1 47
-12 -9 -37 -22 -54 -30 -18 -8 -38 -26 -45 -40 -6 -15 -15 -26 -20 -26 -5 0
-20 -12 -35 -26 -15 -15 -43 -28 -67 -32 -38 -7 -41 -10 -42 -42 -1 -19 -6
-36 -12 -38 -7 -2 -12 -17 -12 -33 l0 -29 -89 0 -89 0 -7 -29 c-3 -16 -18 -37
-32 -46 -22 -15 -25 -22 -20 -57 3 -22 15 -51 28 -64 17 -19 21 -30 16 -61
-11 -68 22 -106 108 -122 l30 -6 -40 -19 c-22 -10 -44 -25 -48 -32 -4 -8 -21
-14 -37 -14 -18 0 -30 -5 -30 -13 0 -7 -20 -19 -45 -26 -40 -12 -45 -16 -45
-43 0 -59 -40 -89 -70 -53 -10 12 -10 18 -1 29 14 16 6 20 -66 31 -36 6 -44 4
-49 -12 -3 -10 -12 -30 -20 -45 -8 -14 -11 -33 -8 -41 7 -18 -32 -47 -62 -47
-12 0 -29 -3 -38 -6 -13 -5 -12 -10 9 -26 l26 -20 -26 -33 c-14 -19 -25 -42
-25 -53 0 -21 -18 -32 -51 -32 -11 0 -22 -7 -25 -15 -4 -8 -14 -15 -24 -15
-10 0 -20 -9 -23 -20 -7 -25 -27 -26 -27 -1 0 23 -25 34 -38 18 -5 -7 -13 -22
-16 -34 -8 -24 -12 -26 -63 -23 -25 1 -33 -3 -33 -15 0 -13 -7 -16 -30 -13
-29 4 -30 3 -30 -34 l0 -38 -45 7 c-53 7 -75 -7 -75 -47 0 -19 8 -33 26 -45
23 -15 26 -21 20 -58 -9 -52 -46 -91 -81 -84 -30 5 -55 -15 -55 -44 0 -13 -7
-19 -21 -19 -20 0 -21 -4 -18 -102 l4 -103 -37 0 c-20 0 -39 -3 -43 -7 -4 -4
-13 -4 -19 -2 -7 3 -21 -7 -30 -21 -9 -14 -21 -23 -27 -20 -5 4 -17 -3 -27
-14 -14 -18 -22 -20 -49 -12 -28 8 -34 6 -62 -26 -31 -35 -32 -35 -52 -17 -29
26 -148 34 -161 10 -5 -9 -17 -16 -27 -16 -10 0 -25 -10 -33 -21 -7 -12 -24
-22 -37 -23 -30 -1 -39 -17 -46 -89 -6 -57 -7 -59 -32 -52 -21 5 -33 -1 -59
-26 -29 -28 -34 -40 -34 -81 0 -56 -10 -61 -100 -56 l-55 3 3 -51 c4 -63 -15
-77 -47 -33 -23 31 -55 37 -83 15 -12 -9 -18 -29 -19 -66 -2 -53 9 -70 49 -76
35 -6 42 -15 42 -56 0 -33 6 -49 31 -74 16 -17 31 -41 32 -53 1 -14 10 -24 27
-28 14 -3 31 -15 39 -25 7 -11 21 -18 31 -15 36 9 50 -11 50 -71 0 -32 5 -63
11 -69 6 -6 17 -22 23 -35 10 -19 19 -23 59 -23 37 0 50 -5 63 -23 14 -21 21
-22 75 -16 52 6 63 4 82 -14 12 -11 33 -22 47 -24 19 -2 26 -10 28 -30 2 -15
17 -40 33 -56 33 -32 31 -48 -7 -87 -13 -13 -14 -21 -6 -38 6 -12 14 -37 17
-54 5 -24 12 -33 26 -33 10 0 19 -3 20 -7 0 -5 2 -21 5 -38 7 -54 5 -69 -11
-77 -10 -6 -15 -24 -15 -53 0 -44 0 -44 -27 -34 -34 13 -44 2 -50 -56 -6 -48
10 -95 33 -95 16 0 25 -25 12 -38 -19 -19 -4 -56 29 -72 38 -17 49 -54 39
-124 -4 -25 -3 -53 3 -63 5 -10 12 -26 15 -37 5 -14 9 -16 20 -6 21 17 119 25
144 11 25 -13 31 -74 9 -88 -7 -4 -18 -20 -24 -35 -12 -26 -11 -28 12 -28 14
0 25 -6 25 -12 0 -7 9 -24 20 -38 19 -24 20 -25 20 -3 0 24 29 38 60 28 11 -3
20 -15 20 -26 0 -27 70 -28 77 0 5 19 40 31 89 31 27 0 60 -32 79 -76 l13 -32
68 6 67 5 -6 -67 c-6 -64 -5 -67 13 -61 16 5 20 2 20 -14 0 -19 6 -21 60 -21
l60 0 0 33 c0 17 -5 51 -10 75 -11 45 2 82 27 82 8 0 13 13 13 30 0 19 5 30
14 30 8 0 17 13 21 29 3 16 15 37 26 47 10 9 19 29 19 43 0 15 8 31 20 39 13
8 20 23 20 42 0 32 22 50 63 50 31 0 40 21 32 75 -7 44 2 60 40 67 31 5 23 31
-12 42 -37 10 -43 30 -13 46 15 8 36 8 77 0 66 -14 84 -4 48 30 -28 27 -32 48
-10 56 11 5 15 22 15 69 0 44 4 64 14 68 16 6 36 -11 36 -30 0 -8 10 -13 27
-11 34 2 73 -10 73 -23 0 -5 9 -9 20 -9 18 0 19 3 10 20 -15 28 -6 51 38 94
32 32 42 37 70 32 l33 -5 -6 44 c-9 57 1 85 28 85 26 0 61 23 99 64 23 25 34
30 67 28 37 -3 40 -1 43 25 3 24 8 29 43 33 43 5 43 6 34 75 -3 25 0 30 16 30
14 0 19 6 17 20 -2 11 -5 25 -5 30 -1 6 11 9 27 8 15 -1 35 4 42 12 8 8 21 12
29 9 25 -10 20 81 -5 99 -13 9 -18 20 -14 30 11 31 -12 52 -58 52 -37 0 -43 3
-46 23 -2 14 -10 22 -23 22 -11 0 -22 7 -25 15 -4 8 -15 15 -25 15 -14 0 -19
-7 -19 -26 0 -24 -3 -26 -31 -20 -17 3 -38 6 -46 6 -11 0 -14 7 -10 26 3 18
-1 29 -14 37 -31 19 -24 47 11 47 27 0 30 3 30 30 0 20 5 30 15 30 8 0 15 7
15 15 0 8 -7 15 -15 15 -8 0 -15 7 -15 15 0 8 7 15 15 15 8 0 15 -6 15 -14 0
-25 43 -28 61 -4 14 18 23 20 67 15 45 -5 51 -4 55 15 6 21 14 22 91 2 25 -6
26 -4 26 31 0 28 3 36 14 32 9 -4 21 5 31 19 14 22 22 25 73 22 48 -3 57 -6
60 -23 3 -18 11 -20 95 -20 68 0 91 3 90 13 -11 54 -6 64 27 57 26 -6 30 -4
30 14 0 18 6 21 45 21 37 0 45 -3 45 -19 0 -35 24 -43 124 -39 98 3 111 -1
118 -37 3 -17 12 -20 61 -23 55 -3 57 -2 57 23 0 14 7 28 15 31 8 4 15 18 15
34 0 22 7 31 34 44 42 20 76 21 76 2 0 -7 7 -19 15 -26 9 -7 13 -15 10 -18 -8
-8 16 -32 32 -32 7 0 17 10 22 22 5 14 17 23 31 23 32 0 37 23 7 34 -30 11
-34 22 -29 67 4 31 7 34 38 34 24 0 34 5 34 15 0 29 37 15 78 -30 23 -25 41
-49 41 -53 -1 -4 23 -19 53 -34 29 -15 67 -44 84 -64 27 -32 34 -35 52 -25 20
11 22 9 22 -19 0 -30 2 -31 29 -25 36 8 91 -18 91 -42 0 -9 -8 -25 -18 -36
-17 -19 -16 -19 15 -12 29 6 33 4 33 -14 0 -16 6 -21 28 -21 15 0 34 4 42 9
10 7 18 4 28 -11 9 -12 22 -18 33 -15 15 4 19 0 19 -19 0 -20 5 -24 30 -24 23
0 30 4 30 20 0 11 5 21 10 21 6 1 16 2 23 3 8 1 12 18 12 50 0 47 2 50 40 72
55 32 65 30 65 -11 0 -19 5 -35 10 -35 6 0 10 5 10 10 0 6 9 10 20 10 13 0 24
10 30 25 11 28 19 29 72 15 35 -10 36 -12 43 -70 7 -64 3 -80 -23 -80 -11 0
-4 -9 18 -22 19 -12 39 -21 44 -20 30 9 63 -31 65 -78 1 -8 4 -32 7 -53 6 -33
9 -38 28 -33 11 3 58 6 103 6 77 0 82 1 85 22 3 21 9 23 76 26 52 2 72 7 72
16 0 15 42 26 71 19 10 -3 19 -14 19 -24 0 -11 6 -19 14 -19 15 0 29 -24 30
-50 1 -10 16 -17 51 -21 53 -6 66 1 58 32 -7 26 15 51 38 44 15 -5 19 -1 19
16 0 20 3 21 44 16 39 -6 46 -4 51 13 4 13 15 20 31 20 14 0 27 7 31 16 4 11
14 14 34 10 19 -3 29 -1 33 10 3 9 15 14 28 12 17 -2 24 3 26 17 1 11 16 29
32 40 17 11 30 26 30 34 0 11 15 12 83 6 129 -13 132 -13 129 9 -2 10 6 25 17
33 30 21 28 82 -4 117 -13 14 -29 26 -35 26 -5 0 -10 7 -10 15 0 8 4 15 9 15
5 0 13 10 17 23 12 39 51 67 93 67 23 0 44 6 52 16 8 10 23 14 42 11 20 -3 32
2 40 15 7 10 20 18 29 18 10 0 23 10 29 22 7 13 23 34 36 47 20 21 32 24 86
22 34 -1 63 -6 65 -10 1 -5 9 -17 17 -27 21 -29 41 -5 27 34 -9 27 -8 31 15
41 17 8 24 18 22 34 -4 29 8 47 31 47 11 0 24 9 30 19 6 13 16 17 31 14 25 -7
68 39 69 73 0 12 6 27 14 34 8 6 16 21 18 33 2 12 14 27 28 34 18 9 26 22 30
50 5 36 7 38 41 38 26 0 42 7 56 24 14 17 25 22 41 17 12 -4 22 -14 22 -22 0
-9 10 -14 28 -14 16 0 37 -9 47 -20 18 -20 18 -21 -4 -27 -19 -5 -22 -11 -19
-39 3 -28 1 -34 -14 -34 -10 0 -21 -7 -24 -15 -4 -10 -20 -15 -44 -15 -30 0
-40 -5 -45 -20 -8 -25 5 -93 19 -102 6 -4 39 -5 74 -1 53 5 62 3 62 -10 0 -9
-12 -25 -27 -34 -16 -10 -39 -30 -51 -46 -13 -15 -30 -27 -37 -27 -7 0 -19
-14 -27 -30 -10 -24 -19 -31 -38 -29 -49 3 -53 0 -47 -29 4 -21 1 -31 -14 -40
-15 -10 -17 -16 -9 -32 16 -29 12 -50 -9 -50 -11 0 -21 -5 -23 -12 -7 -20 16
-58 35 -58 12 0 17 -8 17 -30 0 -20 8 -35 25 -46 31 -20 35 -64 6 -64 -17 0
-19 -6 -18 -42 2 -42 1 -43 -30 -46 -31 -3 -33 -6 -33 -40 0 -20 3 -61 7 -90
5 -43 9 -52 22 -47 9 4 28 9 44 12 22 5 27 2 27 -15 0 -11 8 -22 20 -25 20 -5
24 -11 34 -59 8 -33 19 -35 47 -7 28 28 43 20 47 -24 3 -39 9 -42 59 -28 33
10 43 1 43 -36 0 -26 49 -65 72 -57 13 4 28 -2 43 -16 17 -16 31 -21 49 -16
19 5 28 1 35 -13 9 -15 24 -20 73 -23 35 -2 71 -8 81 -12 25 -12 22 18 -5 43
-39 37 -17 114 40 140 33 16 49 14 54 -7 4 -14 -3 -22 -27 -31 -18 -6 -36 -19
-39 -28 -10 -24 -2 -25 23 -2 18 17 29 19 76 14 29 -4 58 -4 64 -1 10 6 -69
123 -122 181 -16 17 -16 20 -3 23 9 2 16 8 16 14 0 6 14 -9 31 -33 18 -24 33
-46 35 -48 2 -2 11 0 21 4 10 5 21 8 25 7 4 -1 5 4 2 12 -3 9 6 18 26 24 45
16 102 -8 126 -54 11 -19 32 -42 48 -49 36 -18 37 -18 30 0 -4 8 -17 15 -30
15 -29 0 -32 20 -4 27 28 7 25 19 -13 67 -48 59 -52 67 -36 77 22 14 32 10 25
-8 -4 -10 -4 -14 0 -10 10 10 35 -13 27 -26 -3 -5 -2 -7 4 -4 13 8 56 -50 47
-65 -4 -6 -3 -8 3 -5 6 4 19 0 29 -8 27 -20 67 -18 91 4 12 11 23 18 25 15 3
-2 4 5 3 16 -1 12 -15 35 -31 53 -16 18 -47 54 -68 80 l-39 48 22 22 22 22 5
-23 c4 -12 9 -22 13 -22 10 0 76 -93 73 -103 -1 -5 2 -6 7 -3 5 3 14 -1 21 -9
10 -12 10 -19 -1 -32 -13 -16 -12 -17 3 -5 11 9 18 10 23 2 3 -5 1 -10 -4 -10
-6 0 -11 -7 -11 -15 0 -22 -56 -81 -96 -100 -48 -22 -32 -34 38 -28 44 4 57 9
61 24 4 16 15 19 64 19 l60 0 -5 30 c-3 22 0 30 11 30 9 0 16 14 20 41 7 54
30 78 57 61 28 -17 43 -15 63 8 22 26 21 32 -3 48 -16 10 -20 21 -18 50 2 27
-1 37 -12 38 -40 1 -70 22 -66 46 0 4 -9 15 -22 24 -13 9 -21 22 -18 30 3 8 2
13 -2 12 -4 -1 -15 2 -25 7 -12 5 -29 -2 -55 -21 -20 -16 -40 -28 -43 -27 -3
1 -5 -13 -5 -32 0 -18 4 -31 7 -29 4 2 22 -14 39 -36 32 -41 73 -53 96 -30 8
8 15 6 23 -4 10 -12 8 -18 -13 -31 -14 -9 -38 -18 -53 -20 -34 -4 -77 21 -69
40 3 8 0 12 -7 10 -7 -3 -23 11 -37 30 -20 28 -30 34 -49 29 -21 -5 -23 -3
-11 11 11 13 10 15 -5 9 -15 -6 -15 -5 -4 14 12 18 10 24 -9 45 -20 22 -21 24
-6 46 l17 23 19 -31 c24 -38 32 -38 70 -6 25 22 33 24 47 13 14 -11 14 -11 4
3 -7 9 -9 19 -5 23 9 10 10 56 1 50 -10 -6 -19 24 -13 41 9 21 19 19 38 -10
20 -30 47 -32 71 -5 17 19 20 19 28 4 8 -13 4 -22 -17 -36 -26 -20 -35 -48
-15 -48 6 0 8 -7 5 -16 -3 -8 -2 -12 4 -9 6 3 10 2 10 -3 0 -5 11 -21 25 -35
18 -18 22 -27 13 -30 -7 -3 5 -3 27 0 22 3 44 9 49 14 5 4 17 4 26 -1 13 -7
22 -5 30 5 7 8 26 15 42 15 16 0 31 6 34 14 4 12 25 14 91 13 70 -2 87 1 97
15 7 10 25 22 39 27 30 12 35 37 13 66 -8 11 -20 16 -33 13 -29 -8 -32 -4 -96
89 -71 103 -76 123 -46 168 29 43 46 50 59 26 7 -14 5 -23 -10 -36 -22 -19
-27 -60 -9 -70 6 -4 8 -14 5 -22 -3 -8 -2 -12 3 -9 5 3 21 -13 36 -35 21 -33
24 -43 13 -50 -20 -13 5 -11 39 2 15 7 38 11 51 10 17 -1 24 6 29 29 3 17 11
30 18 30 7 0 28 11 48 24 19 13 38 21 42 18 4 -4 3 6 -1 23 -4 16 -7 34 -7 40
0 11 -41 12 -67 1 -64 -25 -71 -26 -94 -11 -72 47 -41 155 51 177 16 4 23 0
27 -15 6 -25 6 -26 -24 -29 -29 -4 -60 -32 -60 -54 0 -9 10 -24 22 -33 20 -16
24 -17 52 -2 17 8 51 15 75 16 35 0 47 5 59 24 15 22 15 25 -5 41 -22 18 -32
48 -21 65 8 13 -34 15 -43 3 -3 -5 -14 1 -24 12 -10 11 -13 20 -7 20 19 0 14
23 -12 53 -15 17 -22 35 -19 48 5 18 7 19 23 4 10 -9 24 -29 30 -45 12 -30 29
-31 61 -3 14 12 18 11 30 -3 11 -14 10 -18 -11 -34 -27 -20 -27 -21 12 -38 26
-11 28 -10 34 16 3 15 9 36 12 47 3 11 5 32 3 46 -2 19 6 35 25 53 26 23 29
24 46 9 20 -18 15 -35 -10 -31 -13 2 -16 -3 -14 -27 5 -39 8 -41 31 -21 12 11
21 14 26 7 10 -18 25 -13 36 13 7 14 17 22 24 19 8 -2 19 5 25 17 8 15 17 19
31 15 31 -10 33 19 4 51 -14 15 -28 38 -31 50 -8 30 -1 60 14 57 6 -2 9 4 6
11 -7 18 40 51 57 40 7 -4 9 -3 5 4 -4 7 5 10 24 10 27 -1 57 -18 31 -18 -6 0
-10 -5 -9 -11 2 -6 -7 -13 -20 -15 -16 -3 -21 0 -17 8 4 7 -4 0 -19 -17 -32
-38 -32 -72 -1 -108 25 -28 65 -37 65 -13 0 7 14 19 30 26 25 10 30 18 30 48
0 19 6 40 14 46 18 14 26 62 9 59 -6 -1 -41 29 -77 68 -56 58 -65 73 -56 88 9
17 17 12 77 -51 38 -39 67 -73 66 -77 -1 -4 7 -7 17 -7 16 0 18 9 18 78 0 57
4 81 16 93 14 14 15 8 18 -62 3 -73 4 -78 26 -81 17 -3 22 -8 18 -20 -5 -15
-5 -15 6 -1 20 25 83 37 126 24 16 -6 22 -3 22 9 0 9 8 16 19 16 23 0 27 12
36 106 6 68 6 72 -19 92 -31 24 -33 38 -7 45 13 3 20 17 24 48 7 54 -3 73 -52
95 -25 11 -42 26 -46 41 -3 12 -12 23 -21 23 -12 0 -14 7 -9 30 5 23 3 30 -9
30 -22 0 -27 30 -16 90 6 29 8 56 5 59 -3 2 -24 4 -47 2 l-41 -2 6 104 c8 119
12 137 37 137 13 0 16 6 12 26 -3 19 0 26 16 31 11 3 23 11 26 19 3 8 12 14
19 14 10 0 13 8 10 24 -7 35 32 76 66 70 22 -5 30 0 41 21 14 27 20 28 78 10
16 -6 22 -3 22 9 0 12 10 16 43 16 34 0 44 4 52 22 6 12 19 26 30 32 11 6 24
17 28 24 4 6 18 12 30 12 20 0 67 52 67 74 0 4 7 14 15 22 8 9 15 24 15 34 0
12 14 25 39 37 31 14 44 28 56 61 9 23 22 42 29 42 22 0 49 38 55 78 5 28 11
38 29 40 18 3 22 10 22 43 0 33 4 40 25 45 24 6 25 9 25 93 0 47 4 92 9 100 7
10 22 12 64 7 30 -4 57 -3 60 1 9 14 -6 31 -35 42 -17 6 -30 21 -34 37 l-7 26
-119 -7 -119 -7 -32 34 c-18 19 -40 37 -50 41 -15 6 -17 14 -12 54 10 69 15
83 31 83 22 0 20 176 -2 188 -11 6 -18 27 -22 60 -4 43 -1 52 16 61 11 6 28 8
36 5 11 -4 16 -1 16 10 0 9 -4 16 -10 16 -5 0 -10 7 -10 15 0 8 5 15 10 15 6
0 10 14 10 30 0 20 5 30 15 30 15 0 19 11 16 38 -1 7 5 19 14 28 31 31 7 95
-30 80 -37 -14 -45 3 -45 95 0 72 -3 89 -15 89 -19 0 -29 41 -22 91 5 41 32
76 75 98 22 12 22 14 8 30 -9 10 -16 24 -16 33 0 8 -11 24 -25 34 -40 30 -26
121 24 156 14 10 17 24 15 66 -4 60 9 102 31 102 8 0 15 5 15 10 0 6 -10 10
-21 10 -20 0 -21 4 -14 55 5 46 4 55 -9 55 -9 0 -16 4 -16 10 0 5 -12 13 -27
16 -16 4 -35 12 -43 19 -8 7 -27 15 -41 19 -26 6 -27 7 -17 46 9 33 8 44 -5
58 -8 9 -17 31 -19 47 -2 22 -9 31 -25 33 -13 2 -23 9 -23 15 0 17 -55 67 -74
67 -8 0 -27 11 -43 24 -25 21 -26 26 -15 50 7 15 12 36 12 46 0 11 4 20 9 20
5 0 14 13 21 30 21 51 56 81 85 74 18 -4 25 -2 25 9 0 8 12 22 26 32 18 12 24
23 21 37 -3 11 2 27 12 37 13 13 20 40 23 90 4 46 11 78 22 90 9 9 16 27 16
39 0 11 12 34 28 50 15 16 33 37 39 45 9 11 23 14 48 10 27 -4 35 -2 35 9 0
26 27 43 45 28 8 -7 15 -11 16 -9 0 2 2 12 4 22 2 10 11 24 20 31 11 8 20 39
27 90 l11 79 -26 21 c-34 27 -34 46 -1 75 18 15 24 29 21 43 -5 19 -3 20 44
15 49 -6 49 -6 82 38 17 24 40 44 49 45 10 0 26 9 36 21 16 16 27 19 56 14 32
-6 36 -5 36 14 0 12 6 21 16 21 20 0 74 59 74 82 0 9 9 22 20 28 13 7 20 21
20 38 0 15 7 37 15 49 13 19 13 23 0 37 -8 8 -15 24 -15 35 0 12 -9 30 -20 41
-11 11 -20 31 -20 44 0 14 -4 28 -10 31 -5 3 -10 15 -10 25 0 10 -7 25 -15 33
-13 13 -13 16 0 27 8 7 15 20 15 30 0 10 6 23 14 29 7 6 16 25 19 41 5 22 12
29 34 32 26 3 28 7 31 50 3 39 -1 49 -17 60 -12 7 -21 20 -21 29 0 18 -41 69
-55 69 -12 0 -35 47 -35 72 0 11 -7 18 -20 18 -17 0 -20 7 -20 44 0 26 -6 48
-15 56 -19 16 -20 50 -1 50 8 0 17 4 21 10 9 15 -27 50 -53 50 -12 0 -25 7
-28 15 -4 8 -14 15 -24 15 -28 0 -50 11 -50 24 0 18 41 49 75 56 20 4 35 15
44 35 19 41 25 43 95 38 49 -4 64 -2 75 11 7 9 20 16 27 16 17 0 18 27 2 33
-8 2 -1 10 15 17 26 13 27 16 27 92 0 78 0 78 -26 78 -15 0 -32 7 -38 15 -6 8
-22 17 -36 20 -14 3 -27 10 -29 17 -2 6 -14 22 -27 35 -17 17 -24 36 -25 71
-3 53 4 72 27 72 28 0 13 41 -20 53 -15 6 -17 14 -13 41 7 41 -5 60 -32 53
-25 -6 -27 -4 -35 55 -7 45 -5 49 18 60 34 15 38 68 5 68 -17 0 -20 4 -16 22
10 36 -50 87 -68 58z m-1075 -1586 c80 -8 120 -16 120 -24 0 -5 8 -7 18 -3 11
4 10 0 -5 -11 -23 -17 -51 -17 -134 -1 -35 6 -37 5 -41 -24 -2 -16 -2 -29 2
-28 3 1 18 -8 33 -19 30 -24 35 -49 12 -58 -8 -3 -15 -2 -15 2 0 12 -108 120
-114 114 -3 -3 -6 2 -6 11 0 10 -4 16 -8 15 -4 -2 -36 25 -71 60 -61 60 -63
63 -47 81 17 18 19 17 64 -33 26 -28 50 -53 55 -54 4 -2 4 -9 1 -14 -4 -7 -2
-8 4 -4 6 4 17 -2 24 -14 22 -35 28 -23 28 57 0 59 4 81 18 96 16 19 17 16 22
-63 l5 -83 35 -3z m-200 -53 c0 -25 -14 -41 -37 -41 -30 0 -77 -45 -69 -66 3
-9 6 -20 6 -25 0 -6 4 -8 9 -5 9 6 47 -31 45 -43 -1 -3 2 -5 6 -4 4 1 16 -7
25 -17 10 -11 28 -20 41 -20 29 0 74 53 67 80 -4 15 -1 20 16 20 17 0 21 -6
21 -29 0 -16 -7 -36 -15 -45 -8 -8 -15 -19 -15 -24 0 -6 -15 -20 -34 -31 -29
-18 -38 -20 -62 -10 -16 7 -32 12 -36 11 -8 -2 -12 14 -9 31 1 5 -2 6 -7 3
-12 -7 -64 48 -55 59 5 4 3 5 -4 1 -7 -4 -19 4 -29 19 -15 22 -15 29 -1 62 8
21 29 48 47 61 33 22 90 30 90 13z m-507 -274 c-3 -5 -1 -7 4 -4 13 8 37 -18
29 -31 -3 -5 10 -9 29 -9 19 0 32 4 29 8 -9 16 19 21 34 6 14 -15 13 -19 -12
-42 l-27 -25 36 -31 c36 -32 89 -99 67 -85 -18 11 -14 0 5 -15 9 -8 14 -9 11
-4 -4 7 11 10 39 10 57 0 68 -20 22 -39 -23 -9 -41 -11 -59 -5 -34 12 -104 95
-94 112 4 6 3 9 -1 4 -5 -4 -19 3 -32 15 -12 12 -26 18 -30 15 -7 -8 -33 11
-33 25 0 5 4 7 9 4 20 -13 -3 36 -29 61 -18 16 -26 32 -23 44 4 15 8 17 19 8
8 -6 11 -16 7 -22z m-4 -167 c1 -4 -15 -12 -34 -19 -39 -14 -56 -51 -34 -77
13 -15 59 -16 70 0 10 13 84 13 82 0 -1 -7 5 -11 14 -10 9 0 18 -5 21 -13 3
-9 0 -11 -8 -6 -9 5 -11 4 -6 -4 4 -6 11 -9 16 -6 16 10 20 -32 5 -61 -26 -51
-119 -100 -131 -69 -7 18 -2 25 18 29 7 1 24 8 38 16 14 8 28 14 31 13 3 -1 6
15 5 35 -1 33 -4 37 -29 40 -16 2 -47 -4 -69 -13 -37 -14 -42 -14 -65 0 -26
18 -57 78 -43 83 5 2 7 9 4 16 -14 37 92 103 108 67 4 -9 7 -18 7 -21z m-306
-237 c-2 -7 3 -10 10 -8 6 2 22 -11 34 -30 l21 -34 -46 -36 c-25 -19 -52 -33
-60 -30 -7 2 -11 1 -8 -4 3 -5 -1 -14 -9 -21 -11 -9 -12 -16 -2 -31 15 -23 69
-26 87 -4 7 9 19 14 25 11 8 -3 10 4 7 20 -4 20 0 24 22 24 26 0 26 -1 12 -29
-19 -36 -69 -79 -103 -87 -39 -10 -70 11 -113 78 -49 75 -47 105 9 159 30 30
44 36 77 35 25 -1 38 -5 37 -13z m-289 -163 c6 0 19 9 31 20 19 18 24 19 34 6
10 -12 8 -18 -13 -31 -33 -22 -33 -36 4 -86 16 -23 27 -45 24 -50 -3 -5 3 -6
12 -2 11 4 15 3 10 -5 -6 -10 40 -2 63 12 5 3 15 -1 22 -10 11 -14 10 -18 -6
-30 -22 -16 -79 -28 -99 -21 -8 3 -33 33 -56 66 -38 57 -42 60 -63 49 -12 -7
-26 -11 -30 -10 -5 1 -6 -2 -3 -7 7 -11 -33 -43 -45 -36 -21 14 3 -49 34 -87
20 -25 34 -47 31 -51 -6 -6 59 8 72 16 5 3 15 -1 22 -9 10 -12 7 -17 -20 -34
-36 -22 -84 -28 -72 -8 4 7 3 8 -5 4 -13 -8 -49 27 -78 76 -17 27 -53 45 -53
26 0 -6 -6 -5 -15 2 -12 10 -13 16 -3 27 14 17 20 46 8 38 -4 -3 -13 1 -19 9
-9 10 -9 20 0 40 12 25 13 25 31 9 10 -9 16 -23 14 -30 -11 -27 14 -22 61 14
26 20 50 40 51 45 2 4 9 5 15 1 7 -3 4 3 -6 15 -11 11 -16 26 -12 32 3 6 2 9
-3 8 -12 -4 -14 10 -6 36 6 18 9 17 33 -12 14 -18 30 -32 35 -32z m-244 -236
c0 -8 -4 -13 -9 -9 -5 3 -12 1 -16 -4 -3 -6 3 -8 15 -6 21 4 50 -18 50 -38 0
-7 9 -18 21 -25 13 -9 18 -19 14 -30 -3 -9 -3 -13 1 -9 9 9 54 -32 54 -48 0
-7 -12 -24 -26 -39 -15 -14 -24 -26 -20 -26 11 0 -27 -36 -51 -49 -55 -28 -85
-10 -162 93 -55 75 -58 81 -37 89 9 4 36 -21 74 -67 52 -64 58 -74 43 -85 -13
-9 -12 -10 5 -2 12 6 40 12 62 13 22 2 40 5 39 8 -1 3 4 15 11 28 11 19 10 27
-10 55 -12 17 -26 35 -31 38 -5 4 -6 12 -3 18 4 7 2 10 -5 9 -19 -5 -69 74
-57 89 15 18 38 16 38 -3z m-373 -223 c10 -14 14 -14 35 6 51 48 117 46 158
-4 87 -106 106 -129 114 -135 6 -4 4 -13 -3 -22 -11 -13 -17 -14 -28 -5 -8 7
-12 18 -9 26 3 8 2 12 -3 9 -12 -8 -33 19 -23 29 4 5 2 5 -4 2 -12 -7 -67 56
-59 67 3 3 2 4 -2 1 -3 -3 -13 1 -22 9 -28 25 -64 23 -89 -3 -13 -14 -20 -31
-17 -41 7 -22 -19 -34 -34 -16 -6 7 -8 16 -4 19 3 4 -1 7 -11 7 -9 0 -20 8
-23 18 -4 9 -22 33 -40 52 -30 32 -31 36 -16 48 18 13 24 7 80 -67z m-54 -100
c4 -15 -2 -22 -24 -30 -58 -20 -67 -50 -26 -82 18 -15 25 -15 60 -3 46 16 91
18 82 4 -3 -5 0 -7 9 -4 10 4 22 -6 36 -28 24 -39 19 -81 -13 -116 -25 -27
-79 -44 -89 -28 -13 19 -9 24 32 47 33 19 40 28 40 54 0 46 -35 60 -84 34 -20
-10 -44 -19 -53 -19 -36 1 -83 58 -83 100 1 59 100 121 113 71z m-330 -3401
c7 -17 19 -30 29 -30 19 0 48 -36 48 -61 0 -20 -55 -69 -77 -69 -25 0 -53 30
-53 57 0 13 -6 23 -14 23 -21 0 -45 38 -39 61 7 25 41 49 71 49 17 0 27 -8 35
-30z m-96 -125 c52 -55 55 -83 12 -119 -34 -29 -69 -34 -69 -11 0 8 8 15 18
15 26 0 56 35 48 56 -5 14 -10 13 -33 -10 -33 -33 -66 -33 -92 1 -25 31 -20
58 15 91 36 32 52 28 101 -23z m-403 -378 c33 -43 33 -62 0 -92 -36 -33 -68
-32 -93 4 -33 46 -28 72 19 104 35 24 46 22 74 -16z m-134 -82 c45 -66 49 -76
33 -82 -10 -4 -24 -15 -31 -25 -7 -10 -26 -18 -42 -18 -22 0 -33 8 -50 35 -27
43 -20 82 15 95 26 10 32 24 15 35 -13 8 -13 35 0 35 5 0 32 -34 60 -75z
m-3934 -392 c26 -38 53 -71 58 -75 7 -6 6 -12 -4 -19 -12 -9 -12 -10 4 -5 10
4 25 1 32 -5 12 -10 14 2 14 69 0 70 3 83 19 92 19 10 20 7 14 -53 -8 -89 1
-101 89 -122 94 -23 104 -28 84 -44 -12 -10 -27 -10 -73 -1 -32 7 -61 17 -65
23 -4 6 -16 -5 -28 -26 -18 -30 -25 -35 -36 -26 -8 7 -13 13 -11 15 2 2 -16
25 -40 52 -24 26 -66 77 -93 114 -45 61 -48 74 -18 77 3 1 28 -29 54 -66z
m-22 -112 c3 -5 3 -16 0 -25 -4 -11 -11 -13 -29 -6 -17 7 -28 4 -45 -12 -26
-25 -21 -56 18 -108 49 -65 72 -80 113 -78 20 2 37 5 37 8 -3 48 4 70 22 70
15 0 20 -7 20 -25 0 -46 -27 -83 -69 -96 -36 -11 -42 -9 -73 15 -19 14 -40 37
-48 51 -7 14 -17 25 -22 25 -4 0 -8 7 -8 15 0 8 -5 15 -10 15 -14 0 -50 60
-50 83 0 33 51 73 97 75 23 2 44 -2 47 -7z m-482 -265 c7 -11 11 -24 10 -28
-3 -13 47 0 63 16 14 13 20 14 31 5 13 -10 11 -16 -10 -38 l-25 -26 55 -57
c39 -42 62 -58 81 -59 52 -2 58 -4 61 -20 3 -18 -37 -39 -64 -34 -11 2 -22 4
-25 4 -9 1 -53 41 -46 41 3 0 -16 20 -42 45 -29 27 -54 43 -63 40 -18 -7 -44
20 -28 30 12 7 -5 45 -26 58 -8 4 -14 19 -14 32 0 29 24 24 42 -9z m-32 -160
c0 -7 -18 -25 -40 -40 -27 -18 -40 -34 -40 -49 1 -51 24 -55 82 -15 16 11 32
16 38 13 5 -3 10 -1 10 4 0 20 41 11 65 -14 24 -23 36 -73 15 -60 -6 3 -7 -1
-4 -10 7 -18 -15 -46 -70 -86 -47 -35 -66 -37 -66 -7 0 12 3 19 6 15 4 -3 13
1 21 9 8 8 20 11 26 7 7 -3 9 -3 6 1 -4 4 4 19 17 33 40 43 25 91 -23 72 -14
-5 -29 -6 -35 -3 -7 4 -8 2 -4 -4 4 -7 -7 -18 -26 -28 -30 -15 -34 -15 -65 1
-26 14 -33 25 -33 47 0 47 15 69 81 120 23 18 39 16 39 -6z m6346 -268 c-15
25 36 11 66 -18 30 -30 30 -31 12 -53 -17 -19 -17 -20 -1 -8 9 8 20 12 23 9 2
-3 -25 -27 -60 -54 -36 -27 -65 -54 -66 -61 0 -7 10 -22 23 -34 l22 -22 -24 6
c-17 4 -21 3 -13 -5 14 -14 46 -2 36 13 -5 8 1 10 20 7 14 -3 29 -1 33 5 4 6
1 7 -8 2 -8 -5 -4 3 9 17 12 13 22 30 22 36 0 7 11 12 25 12 14 0 25 -5 25
-11 0 -5 -4 -7 -10 -4 -5 3 -7 0 -5 -8 7 -17 -32 -63 -69 -83 -27 -13 -52 -13
-87 1 -24 9 -61 64 -53 77 4 7 3 8 -4 4 -16 -10 -32 26 -32 72 0 29 7 46 28
67 35 35 63 46 81 31 11 -8 13 -8 7 2z m-6617 -64 l32 -36 -33 -28 c-18 -16
-37 -26 -42 -23 -5 3 -6 1 -2 -5 8 -13 -28 -35 -39 -24 -5 4 -5 2 -1 -5 3 -6
2 -14 -4 -18 -15 -9 -12 -27 11 -55 11 -14 17 -19 13 -11 -5 11 -2 13 15 8 13
-3 21 -4 18 -1 -4 5 80 94 88 94 3 0 5 -9 5 -20 0 -11 -20 -40 -44 -65 -38
-38 -51 -45 -84 -45 -41 0 -80 29 -67 50 3 6 1 9 -5 8 -21 -5 -62 83 -56 116
8 37 21 53 65 76 57 30 94 26 130 -16z m-360 -79 c22 -37 39 -43 71 -22 17 10
22 9 30 -3 7 -11 3 -21 -16 -38 l-27 -23 19 -36 c11 -19 31 -49 47 -65 23 -26
32 -29 61 -24 21 4 37 2 41 -5 11 -17 -17 -39 -57 -45 -30 -5 -39 -2 -62 22
-14 16 -24 35 -21 41 2 7 1 12 -3 10 -4 -1 -8 1 -10 6 -1 4 -10 15 -19 25 -10
10 -23 27 -29 37 -10 18 -13 17 -56 -11 -26 -16 -49 -37 -52 -47 -2 -11 -2
-16 1 -13 9 9 43 -46 36 -58 -3 -6 -3 -8 2 -4 5 5 17 -6 27 -23 17 -28 23 -31
57 -26 29 4 40 1 49 -14 13 -20 0 -35 -20 -23 -6 4 -8 3 -5 -3 5 -7 -6 -11
-29 -11 -43 0 -74 27 -130 115 -25 39 -38 52 -44 43 -6 -9 -11 -7 -20 10 -8
15 -8 20 -1 16 19 -12 12 23 -10 53 -20 27 -20 31 -6 51 15 22 16 22 36 -19
23 -43 49 -53 71 -26 7 8 16 13 20 10 4 -2 15 4 25 15 17 18 17 21 0 46 -14
22 -15 74 -1 74 2 0 13 -16 25 -35z m-197 -222 c10 -9 18 -20 18 -26 0 -5 21
-39 47 -76 25 -36 46 -71 46 -78 0 -7 3 -11 6 -10 8 3 10 -15 4 -31 -4 -9 -9
-10 -18 -2 -11 9 -12 6 -8 -11 5 -18 3 -21 -10 -16 -10 4 -16 2 -14 -5 4 -19
-47 -42 -78 -34 -30 8 -116 92 -142 141 -9 17 -23 35 -32 42 -14 11 -14 13 4
27 20 15 40 3 28 -18 -3 -5 -1 -6 5 -2 6 3 24 -13 40 -38 23 -33 27 -47 18
-56 -8 -8 -7 -10 6 -5 12 5 20 1 25 -11 10 -27 23 -34 69 -34 40 0 64 13 64
36 0 7 -13 33 -30 57 -34 51 -38 66 -12 46 15 -13 16 -12 3 3 -7 10 -17 15
-22 13 -4 -3 -22 15 -40 41 -25 37 -29 48 -18 55 19 12 20 11 41 -8z m-180
-196 c15 -18 28 -35 28 -39 0 -8 19 -33 63 -80 22 -25 25 -33 15 -45 -10 -13
-17 -8 -48 29 -19 23 -53 62 -76 85 -23 24 -38 45 -35 48 3 3 -3 3 -14 0 -46
-15 -68 -31 -82 -60 -9 -16 -12 -27 -8 -23 8 8 61 -51 58 -64 -2 -4 1 -7 6 -5
4 1 29 -21 55 -50 44 -48 46 -53 27 -62 -14 -8 -22 -7 -30 3 -6 7 -7 17 -3 21
4 5 2 5 -5 1 -12 -7 -40 31 -35 47 1 5 -1 6 -6 3 -5 -3 -47 36 -93 86 -93 101
-111 125 -86 115 11 -4 14 -2 10 9 -10 26 14 14 41 -21 31 -40 46 -44 64 -15
20 33 74 61 102 55 14 -3 37 -20 52 -38z m-242 -145 c0 -9 -16 -27 -35 -40
-19 -12 -35 -27 -35 -33 0 -5 -4 -8 -9 -5 -15 10 -7 -28 9 -41 17 -14 50 -17
50 -5 0 15 58 42 90 42 45 0 81 -41 75 -86 -5 -45 -7 -47 -62 -83 -55 -37 -59
-37 -66 -11 -3 13 0 20 10 20 16 0 83 62 83 77 0 18 -26 41 -55 48 -16 3 -27
4 -23 0 11 -12 -48 -55 -75 -55 -32 0 -77 36 -77 61 0 32 26 74 67 107 39 31
53 32 53 4z"/>
<path d="M8381 1624 c-15 -19 -18 -31 -11 -39 5 -6 6 -16 2 -20 -4 -5 -2 -5 4
-2 6 3 18 -7 28 -24 18 -30 56 -40 56 -14 0 11 11 15 39 15 30 0 40 4 44 20 3
11 1 18 -3 15 -11 -7 -51 50 -42 60 4 5 2 5 -5 1 -6 -3 -14 -2 -18 4 -3 5 -21
10 -40 10 -24 0 -39 -7 -54 -26z"/>
</g>
</svg>
