<?xml version="1.0" standalone="no"?>
<!DOCTYPE svg PUBLIC "-//W3C//DTD SVG 20010904//EN"
 "http://www.w3.org/TR/2001/REC-SVG-20010904/DTD/svg10.dtd">
<svg version="1.0" xmlns="http://www.w3.org/2000/svg"
 width="1373.000000pt" height="1315.000000pt" viewBox="0 0 1373.000000 1315.000000"
 preserveAspectRatio="xMidYMid meet">
<metadata>
Created by potrace 1.16, written by Peter Selinger 2001-2019
</metadata>
<g transform="translate(0.000000,1315.000000) scale(0.100000,-0.100000)"
fill="#000000" stroke="none">
<path d="M10340 12236 c0 -8 -35 -51 -77 -96 -69 -73 -78 -87 -78 -121 0 -26
8 -46 25 -65 30 -32 125 -100 183 -132 45 -24 55 -49 56 -134 1 -59 -17 -85
-93 -132 -147 -92 -229 -196 -230 -289 0 -43 4 -52 37 -81 35 -31 36 -34 30
-83 -5 -44 -2 -55 20 -84 21 -29 24 -37 14 -54 -22 -38 -58 -76 -173 -182 -32
-30 -42 -33 -94 -33 -134 0 -215 40 -227 112 -5 32 -1 41 31 72 20 20 36 39
36 41 0 2 11 16 25 31 27 29 30 41 16 63 -7 10 -20 5 -63 -28 -60 -45 -123
-71 -173 -71 -27 0 -40 9 -74 49 -50 60 -88 75 -191 75 -48 1 -84 6 -101 16
-55 32 -116 58 -174 75 -33 9 -79 24 -102 32 -69 24 -82 17 -122 -63 -20 -40
-43 -76 -52 -82 -11 -7 -35 -1 -88 25 -77 35 -101 34 -101 -8 0 -10 -6 -33
-14 -51 -65 -155 -73 -164 -101 -121 -20 30 -66 72 -79 73 -5 0 -17 6 -25 14
-9 7 -43 24 -76 37 -33 12 -64 27 -69 31 -6 4 -18 8 -28 8 -10 0 -29 7 -43 16
-28 18 -124 21 -156 4 -12 -7 -34 -16 -50 -20 -23 -7 -27 -6 -22 8 7 21 78
111 139 177 23 25 35 54 59 145 9 36 30 92 46 125 42 89 47 134 18 187 -13 23
-28 46 -34 50 -5 4 -12 67 -15 140 -4 92 -10 140 -20 156 -18 26 -25 26 -65 2
-16 -10 -63 -35 -102 -55 -40 -20 -93 -57 -118 -81 -25 -24 -55 -44 -66 -44
-12 0 -38 14 -59 30 -35 28 -44 30 -119 30 -46 0 -96 -6 -114 -14 -53 -22
-142 -29 -332 -27 -183 2 -308 -13 -340 -39 -8 -7 -15 -27 -15 -45 0 -53 -28
-78 -96 -86 -33 -4 -78 -13 -101 -20 -34 -11 -52 -11 -92 0 -42 11 -56 10 -97
-4 -59 -20 -101 -13 -133 21 -27 29 -72 54 -116 65 -89 23 -145 60 -145 97 0
8 -8 36 -17 63 -15 42 -22 50 -50 55 -44 8 -90 26 -143 54 -56 30 -135 57
-178 62 -27 2 -36 -2 -50 -24 -16 -26 -15 -28 5 -48 12 -11 26 -20 31 -20 5 0
41 -14 80 -31 86 -38 95 -55 54 -107 -16 -20 -34 -46 -40 -58 -6 -12 -26 -39
-44 -61 -18 -22 -42 -51 -53 -65 -33 -41 -160 -93 -249 -103 -80 -9 -95 -18
-137 -79 -42 -60 -93 -98 -170 -127 -54 -21 -72 -26 -186 -51 -35 -8 -66 -18
-71 -23 -5 -6 -16 -36 -26 -68 -19 -63 -53 -127 -67 -127 -5 0 -9 -5 -9 -10 0
-6 -9 -20 -20 -32 -25 -27 -26 -58 -2 -89 24 -32 42 -76 35 -83 -4 -3 -18 -6
-32 -6 -14 0 -43 -5 -63 -11 l-38 -10 15 -36 c21 -51 19 -89 -6 -107 -27 -18
-19 -42 18 -59 38 -17 123 -97 123 -115 0 -9 8 -24 17 -34 15 -17 15 -20 -12
-48 -22 -23 -26 -33 -17 -42 13 -13 42 6 42 28 0 16 16 19 25 5 3 -5 -5 -22
-18 -37 -17 -19 -35 -28 -68 -31 -24 -2 -51 -11 -59 -19 -13 -14 -12 -15 11
-9 30 7 59 -15 59 -45 0 -20 -53 -70 -75 -70 -18 0 -45 28 -45 46 0 10 -7 14
-18 12 -9 -2 -16 -10 -14 -16 1 -7 3 -17 5 -24 1 -7 -2 -12 -8 -13 -26 -1 -75
-50 -75 -74 -1 -34 -16 -60 -66 -113 -22 -23 -48 -55 -58 -70 l-18 -27 41 -29
c23 -16 57 -33 76 -36 33 -6 35 -9 35 -45 0 -35 -22 -71 -44 -71 -4 0 -34 14
-68 30 -33 17 -66 30 -74 30 -16 0 -54 -35 -54 -50 0 -5 -4 -10 -9 -10 -16 0
-19 -26 -9 -66 10 -36 8 -44 -16 -82 -14 -23 -26 -46 -26 -52 0 -5 -4 -10 -10
-10 -16 0 -33 -76 -26 -122 5 -34 22 -61 81 -133 41 -49 75 -95 75 -100 0 -14
-29 -57 -48 -72 -23 -18 -47 -16 -136 12 -146 46 -190 30 -201 -74 -9 -90 -23
-128 -54 -150 -24 -17 -30 -30 -35 -78 -10 -79 -34 -135 -84 -193 l-41 -48
-95 -7 c-53 -4 -110 -5 -128 -1 -33 6 -108 66 -108 85 0 6 -4 11 -9 11 -5 0
-13 10 -17 23 -8 27 -36 66 -47 67 -10 0 -71 -42 -75 -52 -2 -5 -8 -8 -13 -8
-6 0 -22 -11 -37 -25 -31 -29 -63 -31 -141 -10 -51 13 -91 8 -91 -13 0 -4 -9
-13 -20 -20 -18 -11 -26 -9 -58 13 -23 16 -50 25 -75 25 -21 0 -54 7 -75 16
-43 18 -115 20 -155 5 -27 -10 -27 -12 -13 -33 9 -13 16 -43 16 -71 0 -45 -4
-53 -45 -94 -48 -47 -54 -63 -30 -83 21 -17 19 -26 -15 -76 -16 -25 -44 -70
-61 -102 -35 -62 -52 -81 -119 -132 -68 -51 -87 -76 -100 -131 -8 -33 -20 -55
-36 -66 -23 -15 -26 -14 -71 21 -26 20 -67 55 -90 77 -60 56 -83 51 -99 -21
-7 -30 -16 -94 -20 -142 -7 -87 4 -155 41 -273 55 -172 55 -181 -1 -256 -19
-26 -34 -54 -34 -63 0 -36 42 -91 88 -115 12 -6 22 -16 22 -21 0 -16 62 -144
73 -152 13 -8 -7 -81 -44 -155 -37 -73 -36 -104 1 -165 33 -53 37 -83 15 -112
-19 -25 -19 -83 0 -116 8 -14 14 -39 15 -57 0 -33 -26 -100 -46 -118 -7 -5
-19 -22 -28 -36 -14 -23 -15 -29 -3 -40 13 -14 31 -88 42 -181 4 -30 12 -49
23 -54 51 -23 120 -36 228 -43 125 -9 165 -21 214 -67 14 -12 46 -28 72 -35
44 -12 50 -11 96 14 57 31 74 33 92 12 16 -19 50 -20 50 -1 0 7 9 25 20 39 25
32 25 37 -1 37 -12 0 -23 -8 -26 -20 -7 -25 -23 -26 -23 -2 0 23 30 52 53 52
17 0 45 -26 79 -73 l20 -28 -21 -6 c-11 -3 -21 -9 -21 -14 0 -5 -11 -14 -24
-20 -13 -6 -26 -21 -29 -33 -40 -177 -40 -176 -21 -254 20 -82 16 -92 -40 -92
-52 0 -102 -21 -122 -51 -10 -16 -25 -29 -31 -29 -7 0 -13 -4 -13 -10 0 -9
-62 -40 -81 -40 -19 0 -21 54 -5 121 23 92 17 109 -38 109 -37 0 -51 7 -100
50 -31 28 -67 50 -78 50 -11 0 -41 -19 -65 -41 -43 -40 -47 -41 -93 -35 -47 6
-48 6 -81 -36 -49 -63 -70 -77 -109 -78 -54 0 -122 55 -153 123 -6 15 -15 27
-18 27 -4 0 -12 12 -18 28 -6 15 -27 54 -46 87 -19 33 -37 67 -41 75 -21 42
-76 61 -138 48 -35 -7 -51 -6 -75 7 -17 8 -31 19 -31 23 0 14 -72 50 -114 58
-25 4 -55 21 -82 46 -45 41 -51 40 -79 -16 -14 -27 -49 -28 -53 -1 -9 58 -120
153 -180 155 -49 0 -152 -134 -152 -199 0 -21 -7 -58 -15 -81 -22 -62 -19 -93
17 -161 26 -49 41 -66 73 -80 22 -10 48 -19 58 -19 11 0 17 -8 17 -21 0 -11 9
-32 20 -46 18 -23 19 -29 7 -47 -20 -31 -30 -131 -14 -144 47 -37 112 -25 172
33 49 48 68 54 96 29 16 -14 16 -19 3 -49 -22 -53 -19 -241 5 -302 18 -48 16
-88 -8 -117 -6 -7 -9 -48 -7 -96 l3 -84 34 -18 c18 -10 43 -18 54 -18 26 0 42
-26 50 -85 12 -77 48 -109 163 -141 18 -5 15 -18 -13 -48 -14 -15 -25 -29 -25
-31 0 -2 -11 -16 -25 -31 -27 -29 -32 -65 -12 -83 8 -6 31 -14 53 -19 30 -6
40 -13 42 -30 2 -13 -1 -29 -7 -36 -7 -8 -18 -37 -25 -66 -11 -44 -11 -59 0
-97 8 -26 14 -69 14 -96 0 -28 5 -65 11 -82 11 -28 9 -35 -10 -54 -19 -19 -21
-29 -16 -74 10 -82 54 -187 95 -227 49 -47 60 -70 47 -97 -8 -18 -8 -32 1 -57
14 -38 16 -132 3 -140 -5 -4 -21 -2 -36 4 -39 15 -67 4 -95 -37 -18 -26 -25
-51 -26 -87 -3 -84 -19 -163 -38 -182 -12 -11 -31 -17 -51 -16 -23 2 -44 -7
-80 -35 -54 -41 -85 -70 -85 -79 0 -19 -50 -43 -90 -44 -70 0 -146 -36 -166
-78 -17 -36 -17 -42 2 -197 7 -60 -9 -80 -60 -77 -27 2 -36 -4 -69 -48 -21
-27 -44 -50 -51 -50 -8 0 -17 -13 -21 -30 -4 -17 -40 -66 -86 -117 -44 -48
-86 -99 -94 -113 -37 -68 -49 -99 -54 -145 l-6 -50 -101 3 c-100 3 -102 3
-123 -24 -27 -34 -75 -64 -102 -64 -25 0 -87 -31 -125 -63 -16 -13 -39 -27
-51 -31 l-23 -7 0 -538 0 -537 48 6 c26 4 55 11 66 15 11 5 21 3 25 -3 4 -7
20 -14 37 -18 37 -7 72 19 99 73 20 38 61 83 76 83 4 0 15 7 24 16 15 15 17
14 28 -15 8 -23 18 -31 36 -31 26 0 91 36 91 51 0 5 4 9 10 9 10 0 80 66 80
76 0 9 34 41 56 52 12 7 48 15 80 18 33 4 88 20 122 36 35 15 70 28 78 28 15
0 76 39 82 53 2 4 8 7 13 7 17 0 47 37 59 74 15 46 22 50 87 47 41 -2 53 1 53
13 0 18 58 31 92 22 13 -4 46 -36 73 -73 63 -83 148 -145 199 -145 38 0 51 10
78 62 7 14 38 51 68 83 63 68 80 96 109 192 26 85 26 85 0 85 -44 0 -65 124
-31 190 17 34 27 47 99 128 42 47 43 72 4 72 -48 0 -54 20 -20 70 26 38 30 51
24 86 -5 38 -3 45 34 83 40 42 65 100 77 181 8 49 23 79 63 123 32 35 48 34
56 -4 7 -32 30 -46 92 -56 l32 -5 0 -130 c-1 -114 1 -131 18 -143 10 -8 23
-15 28 -15 6 -1 25 -3 44 -5 43 -4 93 -52 92 -89 -1 -14 -2 -37 -2 -50 -1 -14
-11 -29 -25 -37 -17 -9 -21 -16 -14 -24 6 -7 9 -35 8 -63 -1 -28 0 -52 2 -54
3 -2 19 -13 37 -26 57 -39 71 -32 146 80 52 78 83 101 124 93 29 -5 35 -2 56
32 16 25 27 59 31 98 3 34 12 78 21 99 15 36 18 38 48 32 18 -4 54 -11 81 -15
56 -10 66 -21 66 -77 0 -58 17 -69 106 -69 45 0 78 -5 85 -12 17 -17 93 -16
153 2 27 8 66 15 87 15 46 0 115 26 123 46 4 10 -3 14 -28 14 -27 0 -39 7 -60
34 -42 56 -36 81 39 151 81 75 86 103 24 131 -47 21 -76 62 -102 144 -24 77
-25 110 -6 110 16 0 139 121 139 137 0 7 4 13 9 13 5 0 17 25 27 56 15 47 23
58 58 76 34 17 52 20 119 15 43 -3 94 -1 113 5 42 11 111 77 126 119 5 16 14
29 19 29 5 0 9 7 9 15 0 12 13 15 58 15 52 0 136 27 152 48 3 4 17 17 32 28
30 23 27 31 -22 61 -77 47 -90 74 -53 111 21 22 7 29 -45 24 l-48 -4 -32 52
c-18 28 -32 54 -32 58 0 4 20 22 44 39 68 52 120 44 217 -29 20 -16 40 -28 44
-28 3 0 13 -7 21 -15 9 -8 20 -15 25 -15 5 0 6 64 2 155 -5 138 -4 155 10 155
18 0 47 -26 47 -43 0 -22 62 -137 75 -137 6 0 20 18 30 40 10 22 22 40 27 40
5 0 24 14 42 30 31 28 34 36 39 109 8 108 23 137 66 131 23 -3 79 -72 97 -119
9 -26 22 -53 28 -61 11 -15 35 -64 64 -130 27 -62 45 -94 72 -130 29 -37 55
-84 64 -113 3 -9 14 -17 23 -17 17 0 19 10 19 109 0 109 7 141 25 109 5 -9 24
-31 41 -48 l32 -32 -16 -42 c-18 -48 -9 -82 24 -95 13 -5 31 -18 42 -29 15
-18 17 -26 7 -53 -16 -47 -14 -61 17 -94 36 -40 107 -95 121 -95 6 0 24 -15
40 -33 l29 -32 274 -1 c271 -2 273 -2 327 23 45 21 63 24 106 18 29 -3 61 -13
71 -20 11 -8 36 -15 56 -15 30 0 45 7 74 37 l37 37 -15 40 c-19 53 -15 63 32
76 22 6 54 24 72 40 18 17 36 30 40 30 5 0 17 9 28 20 18 18 20 33 20 140 0
132 1 134 63 83 16 -13 41 -23 55 -23 22 0 31 8 47 43 25 53 77 101 127 118
36 12 40 11 66 -14 28 -27 62 -36 62 -16 0 6 15 26 34 44 30 29 34 38 29 72
-5 35 -1 42 50 97 51 54 58 58 88 52 18 -3 39 -12 47 -19 16 -13 19 -13 95
-16 34 -1 47 -5 47 -16 0 -21 22 -19 43 5 9 11 17 23 17 26 0 8 44 69 53 72 4
2 7 7 7 12 0 9 42 61 81 99 39 40 141 131 146 131 2 0 14 10 26 23 31 31 144
127 150 127 3 0 34 17 69 37 67 40 128 96 128 118 0 25 123 141 230 219 58 41
113 82 123 91 9 8 21 15 26 15 5 0 11 3 13 8 5 11 125 93 158 109 8 3 31 16
50 28 65 41 387 209 610 320 52 26 104 52 115 58 11 6 33 14 50 18 16 4 55 17
85 29 30 12 66 25 80 30 14 5 50 18 80 30 30 12 75 27 100 35 25 7 70 20 100
29 53 16 151 41 277 71 34 8 75 15 92 15 17 0 48 6 68 13 94 34 110 39 138 47
90 25 228 81 360 147 51 25 159 63 183 63 20 0 97 37 110 52 6 8 11 37 10 65
0 46 5 57 62 134 34 46 68 92 76 102 8 9 14 20 14 23 0 2 8 13 18 24 10 10 30
43 46 72 33 61 49 79 126 135 46 34 197 113 216 113 3 0 17 12 32 28 15 15 44
36 65 46 20 11 37 27 37 36 0 10 21 27 53 43 29 15 76 47 104 72 45 39 53 53
63 100 12 59 -1 110 -29 110 -11 0 -14 -17 -12 -77 2 -77 2 -77 -26 -84 -15
-3 -38 -12 -50 -20 -14 -9 -34 -11 -63 -6 -38 6 -43 11 -56 47 -13 38 -13 41
9 57 12 10 28 23 35 28 7 6 12 34 12 68 0 44 7 72 30 120 17 34 37 62 45 62 7
0 19 16 25 35 11 32 94 115 116 115 3 0 20 12 38 26 59 49 181 136 206 148 43
20 220 138 220 147 0 5 6 9 14 9 8 0 17 7 20 16 4 10 2 14 -6 10 -40 -16 -89
-28 -94 -23 -3 3 -1 22 6 42 14 43 6 96 -18 118 -14 13 -29 14 -102 5 -68 -8
-98 -7 -149 5 -93 22 -117 11 -137 -61 -22 -82 -25 -84 -20 -19 5 67 15 83 57
92 16 4 27 10 24 15 -9 15 76 22 172 15 l95 -7 -7 59 c-8 66 -36 156 -71 226
-13 27 -24 55 -24 63 0 14 -19 51 -71 139 -35 58 -79 153 -79 168 0 6 -16 39
-34 73 -51 93 -64 165 -43 248 9 37 23 74 32 82 8 9 15 21 15 28 0 7 11 34 25
60 14 25 36 66 49 91 23 42 70 112 96 142 5 7 10 15 10 18 0 10 154 165 163
165 12 0 107 73 107 82 0 4 7 8 15 8 8 0 15 4 15 10 0 5 15 16 33 23 18 8 53
34 77 58 120 118 205 144 480 144 102 0 173 1 159 3 -14 2 -41 17 -60 33 l-34
30 35 -4 c19 -2 56 -10 81 -17 l47 -14 60 49 c57 46 60 51 55 84 -2 20 -11 56
-20 80 -13 36 -14 52 -4 97 13 56 9 77 -26 164 -12 32 -21 38 -71 52 -31 9
-104 24 -162 33 -58 10 -118 25 -134 34 -29 16 -96 77 -96 87 0 3 -7 13 -16
22 -16 15 -15 17 13 24 46 12 57 30 43 72 -6 20 -12 50 -12 68 -1 35 -13 58
-61 121 -22 28 -36 37 -58 37 -36 0 -84 -23 -124 -60 -29 -27 -110 -60 -147
-60 -16 0 -18 -9 -18 -75 l0 -75 -30 0 c-31 0 -72 19 -128 58 -30 22 -32 27
-32 82 0 32 5 71 11 87 6 15 11 55 12 89 2 52 -2 65 -26 97 -15 20 -34 37 -42
37 -7 0 -15 3 -17 8 -3 7 -32 28 -113 83 -39 26 -51 29 -124 29 -62 0 -91 5
-121 20 -45 23 -90 77 -90 108 0 27 -36 29 -100 7 -72 -25 -80 -22 -80 33 0
43 -3 50 -25 60 -14 7 -32 12 -39 12 -7 0 -40 14 -72 31 -60 31 -111 76 -133
117 -12 23 -66 54 -115 66 -16 4 -49 27 -73 52 -25 24 -48 44 -52 44 -5 0 -25
-16 -46 -35 -20 -20 -41 -35 -46 -33 -17 6 -105 85 -168 152 -173 181 -219
224 -261 243 -44 21 -67 29 -214 73 -87 26 -115 46 -160 114 -37 56 -107 136
-119 136 -4 0 -7 -6 -7 -14z m-4679 -890 c14 -15 11 -37 -8 -58 -20 -23 -12
-33 15 -19 31 17 60 13 72 -8 15 -30 12 -48 -12 -71 -37 -34 -88 -21 -88 22 0
10 -4 18 -10 18 -5 0 -10 6 -10 14 0 7 -12 21 -26 30 -32 22 -30 65 4 82 13 6
29 17 35 23 9 9 13 8 15 -6 2 -10 8 -22 13 -27z m-342 -271 c60 -69 73 -95 48
-95 -7 0 -18 -9 -25 -20 -19 -30 -51 -24 -88 17 -41 44 -43 76 -9 99 l26 17
-21 22 c-18 19 -18 39 1 33 5 -2 35 -34 68 -73z m-292 -297 c39 -38 42 -66 8
-98 -21 -20 -30 -22 -52 -14 -25 9 -73 65 -73 86 0 16 48 58 67 58 9 0 32 -14
50 -32z m5894 -662 c-4 -32 -13 -61 -20 -66 -9 -5 -8 -9 5 -14 15 -6 16 -9 4
-16 -22 -14 -5 -23 19 -10 14 7 21 7 21 0 0 -5 -5 -10 -12 -10 -6 0 -9 -3 -5
-6 3 -3 11 -3 18 2 7 4 25 8 41 9 23 2 26 0 17 -11 -13 -16 2 -19 18 -3 5 5
22 7 37 3 27 -6 27 -7 6 -21 -11 -8 -29 -11 -40 -8 -12 4 -35 8 -53 10 -18 3
-44 6 -60 8 -15 3 -30 0 -33 -4 -3 -5 0 -9 5 -9 6 0 11 -7 11 -16 0 -14 -3
-14 -15 -4 -12 10 -15 10 -15 -3 0 -8 8 -21 17 -28 11 -10 14 -10 9 -1 -11 18
9 15 25 -5 12 -14 12 -16 0 -8 -10 5 -12 4 -7 -3 4 -7 14 -12 22 -12 20 0 18
-14 -6 -35 -22 -20 -28 -8 -7 14 10 11 9 12 -1 6 -15 -8 -52 21 -52 42 0 8 -4
12 -8 9 -5 -3 -15 7 -24 22 -16 27 -18 32 -18 53 0 6 -6 9 -14 6 -11 -4 -11
-1 -2 19 l11 24 17 -22 c9 -13 15 -25 13 -28 -2 -3 5 -6 16 -6 12 0 18 5 14
14 -2 7 -1 10 4 7 5 -3 12 -1 15 4 4 5 2 12 -4 16 -12 7 -14 55 -2 55 5 0 6
14 4 32 -3 22 0 35 13 45 10 7 20 12 21 10 2 -1 -1 -29 -5 -61z m-754 -533
c-4 -3 -1 -13 6 -21 10 -13 9 -15 -10 -10 -14 4 -23 2 -23 -5 0 -6 -10 -21
-21 -33 -26 -27 -20 -74 9 -74 10 0 24 -6 31 -12 10 -11 11 -10 6 5 -5 12 -2
17 10 17 10 0 13 -5 9 -12 -4 -7 -3 -8 4 -4 7 4 12 13 12 21 0 7 14 17 32 20
28 7 36 3 61 -25 19 -21 27 -40 25 -58 -3 -36 -35 -82 -56 -82 -15 0 -15 2 -2
11 13 9 13 10 0 6 -8 -2 -14 -11 -14 -20 1 -13 -2 -14 -17 -7 -15 8 -17 7 -13
-5 7 -18 -11 -20 -22 -3 -4 6 -2 14 5 16 27 9 81 65 81 83 0 10 5 19 11 19 5
0 7 -4 4 -10 -3 -5 -1 -10 4 -10 22 0 5 31 -19 36 -3 0 -13 4 -24 9 -12 5 -35
0 -71 -18 -45 -22 -56 -24 -70 -13 -11 8 -15 18 -11 25 5 8 2 11 -9 9 -10 -2
-19 4 -20 12 -2 8 -6 22 -9 31 -4 9 0 21 9 29 16 14 21 0 5 -16 -7 -7 -5 -17
6 -30 15 -19 15 -18 5 2 -7 15 -7 24 1 32 8 8 8 15 -1 25 -9 11 -8 17 3 26 10
8 16 9 21 1 3 -5 1 -10 -5 -10 -6 0 -8 -5 -5 -11 8 -12 16 -7 19 15 1 9 11 23
22 31 20 15 32 20 21 8z m-255 -300 c10 -9 18 -23 18 -31 0 -9 3 -12 7 -9 3 4
11 0 17 -9 9 -12 4 -23 -29 -58 -22 -24 -48 -46 -58 -49 -13 -5 -16 -11 -9
-24 5 -10 8 -26 7 -36 -2 -10 2 -16 8 -14 7 3 11 11 9 18 -2 8 6 4 18 -9 12
-13 25 -21 28 -17 4 3 0 11 -8 16 -11 8 -9 9 9 4 17 -5 21 -4 16 5 -6 9 -1 10
16 5 21 -7 22 -6 10 9 -12 14 -12 16 2 11 17 -7 19 25 2 37 -6 4 -2 8 8 8 14
0 17 -5 12 -21 -5 -15 -4 -19 4 -15 6 4 11 16 11 27 0 10 4 19 10 19 15 0 -8
-52 -37 -82 -14 -15 -30 -25 -35 -22 -4 3 -8 0 -8 -6 0 -7 -7 -10 -15 -6 -8 3
-15 1 -15 -4 0 -6 -6 -10 -12 -10 -18 0 -69 46 -61 54 12 11 12 35 0 33 -6 -1
-11 5 -12 13 0 8 -9 16 -20 17 l-20 3 20 -9 c11 -5 16 -10 11 -10 -5 -1 -3 -7
3 -15 8 -10 9 -16 1 -21 -5 -3 -10 -2 -10 3 0 14 -36 52 -44 45 -3 -3 -6 -2
-7 3 0 5 -2 20 -4 34 -2 14 -1 19 2 11 4 -10 7 -11 13 -1 11 18 33 2 25 -18
-3 -9 -3 -13 1 -9 4 4 13 2 20 -4 13 -11 52 3 66 25 4 6 10 7 14 3 4 -3 1 -15
-7 -24 -13 -16 -12 -17 4 -4 11 8 15 21 12 32 -5 15 -3 17 12 12 16 -6 17 -5
3 13 -14 17 -14 18 2 6 9 -8 19 -9 22 -4 6 11 -17 34 -30 30 -5 -1 -19 3 -31
10 -17 9 -28 9 -50 0 -15 -6 -32 -10 -37 -9 -5 1 -6 -6 -4 -17 4 -14 -1 -18
-18 -18 -29 0 -30 6 -3 40 14 18 28 26 40 23 11 -3 19 -1 19 5 0 5 8 7 18 4 9
-3 24 -1 32 4 10 6 0 8 -30 5 -30 -3 -40 -1 -30 5 24 15 72 12 92 -7z m-605
-503 c7 0 13 -9 13 -20 0 -14 -5 -18 -17 -13 -19 7 -18 5 11 -17 11 -8 17 -10
14 -5 -4 6 -3 17 1 24 6 10 10 9 14 -3 3 -8 2 -18 -3 -21 -6 -4 -10 -11 -10
-17 0 -7 4 -7 13 1 10 8 18 4 35 -18 16 -23 26 -27 49 -23 30 5 73 38 73 57 0
6 -11 26 -25 45 -26 35 -21 58 10 46 13 -5 15 -13 11 -34 -5 -20 -4 -23 3 -12
9 13 14 12 33 -8 l23 -23 -28 5 c-19 3 -25 1 -20 -7 12 -19 10 -45 -2 -41 -7
3 -11 -5 -11 -18 1 -18 -4 -23 -21 -22 -14 0 -23 -5 -23 -14 0 -9 -3 -12 -6
-9 -4 3 -15 2 -25 -4 -25 -13 -60 10 -85 56 -10 19 -22 35 -26 35 -4 0 -19 17
-32 37 -19 28 -23 39 -13 46 9 7 9 10 -1 14 -6 2 -9 10 -5 16 4 6 13 -2 22
-21 8 -18 21 -32 28 -32z m-5253 -1823 c-3 -8 2 -20 11 -27 20 -17 19 -33 -5
-55 -29 -26 -14 -37 26 -18 33 16 35 16 57 -5 20 -21 21 -24 7 -50 -17 -29
-56 -53 -75 -46 -6 3 -19 22 -29 43 -9 22 -28 46 -41 55 -35 23 -32 55 7 88
36 30 50 35 42 15z m-283 -389 c7 -14 6 -18 -4 -18 -8 0 -22 -11 -31 -25 -23
-35 -58 -32 -90 6 -33 39 -34 74 -1 95 24 16 25 18 9 35 -9 10 -13 23 -8 30 5
9 24 -5 61 -47 30 -32 59 -67 64 -76z m-800 -522 c14 -16 11 -34 -12 -57 -28
-28 -20 -32 24 -14 35 14 38 14 57 -5 25 -25 25 -31 0 -63 -36 -45 -90 -44
-90 3 0 10 -7 20 -15 24 -8 3 -15 10 -15 17 0 6 -10 19 -22 28 -28 24 -18 59
25 86 27 18 33 19 35 5 2 -8 8 -19 13 -24z m6047 -573 c16 -36 15 -58 -3 -73
-26 -21 -16 -31 15 -15 40 21 57 19 76 -10 20 -31 12 -56 -26 -78 -34 -20 -70
-9 -70 21 -1 19 -27 52 -55 68 -34 19 -31 55 6 86 18 16 36 28 39 28 3 0 11
-12 18 -27z m-278 -380 c0 -7 -5 -13 -11 -13 -6 0 -20 -11 -31 -25 -26 -34
-53 -31 -89 7 -36 40 -37 70 -3 97 26 20 26 22 9 40 -9 11 -14 25 -9 32 8 13
133 -116 134 -138z m-394 -227 c40 -40 42 -59 9 -91 -43 -44 -92 -24 -118 48
-7 20 40 77 63 77 7 0 27 -15 46 -34z m-439 -261 c-4 -8 -2 -17 3 -20 16 -10
12 -47 -7 -67 -20 -23 -12 -33 15 -19 28 15 48 14 66 -5 22 -22 20 -41 -9 -69
-28 -29 -73 -33 -81 -7 -10 32 -38 77 -58 93 -26 21 -15 58 27 86 39 25 51 28
44 8z m-3824 -405 c-2 -2 -8 2 -13 10 -8 12 -10 11 -10 -7 0 -15 5 -20 18 -16
10 2 26 -5 37 -18 11 -12 14 -19 8 -15 -9 5 -11 2 -7 -9 4 -9 9 -14 12 -11 2
3 14 1 24 -5 16 -9 24 -7 37 6 9 10 10 15 4 11 -8 -4 -13 -2 -13 6 0 8 6 20
13 27 9 11 9 12 0 7 -15 -8 -26 29 -21 69 2 21 9 29 28 31 14 1 21 1 15 -2
-10 -4 -11 -132 0 -142 9 -10 78 -33 114 -38 42 -6 51 -11 51 -30 0 -18 -19
-18 -43 1 -11 7 -25 11 -33 8 -8 -3 -14 0 -14 7 0 6 -5 8 -10 5 -6 -3 -20 -3
-31 0 -15 5 -18 10 -9 15 8 5 5 9 -10 13 -16 4 -20 2 -16 -9 7 -17 -14 -18
-49 -2 -22 10 -28 9 -36 -3 -7 -11 -9 -11 -9 -1 0 7 -7 20 -15 28 -8 8 -11 22
-8 32 6 14 4 15 -9 4 -13 -11 -20 -8 -43 19 -19 23 -25 39 -20 56 3 13 1 23
-5 23 -6 0 -9 -4 -5 -9 3 -5 1 -12 -4 -15 -16 -10 -24 14 -10 30 11 13 17 9
50 -28 20 -24 35 -45 32 -48z m-543 -377 c1 -5 17 -26 37 -48 20 -22 33 -32
30 -22 -4 11 -3 16 3 12 6 -4 8 -21 5 -39 -5 -26 -3 -33 9 -33 12 0 13 3 4 14
-8 10 -8 17 0 25 7 7 8 17 2 28 -7 13 -5 22 7 31 14 12 16 12 8 0 -6 -11 -4
-13 9 -8 10 4 15 3 11 -3 -3 -6 -1 -10 6 -10 6 0 0 -9 -14 -21 -25 -19 -26
-21 -11 -45 9 -13 12 -24 8 -24 -5 0 -1 -5 9 -11 9 -5 17 -17 17 -24 0 -8 5
-15 11 -15 5 0 7 5 3 12 -4 7 -3 8 4 4 7 -4 12 -13 12 -20 0 -7 6 -13 13 -14
6 0 21 -3 32 -5 11 -2 26 0 33 6 18 14 37 -6 28 -30 -7 -17 -8 -17 -23 2 -15
20 -15 20 -8 -2 5 -18 2 -23 -12 -24 -32 -2 -47 2 -71 22 -20 15 -21 19 -8 19
10 0 14 5 11 11 -4 6 -14 8 -22 5 -22 -9 -45 13 -38 35 5 14 2 17 -9 13 -9 -3
-20 3 -27 15 -10 15 -16 17 -26 9 -16 -13 -47 8 -36 25 4 6 10 4 18 -6 10 -14
12 -14 23 3 9 15 9 22 -3 33 -8 8 -11 18 -7 22 4 4 -3 4 -15 1 -13 -4 -24 -2
-29 6 -11 18 -13 58 -2 58 4 0 8 -3 8 -7z m-660 -533 c4 0 10 -9 13 -20 3 -11
2 -18 -2 -15 -5 2 -6 -8 -3 -22 5 -27 5 -27 13 -4 5 12 14 19 20 16 5 -4 17 1
25 11 10 14 14 15 12 4 -2 -8 -7 -19 -13 -23 -6 -5 -4 -7 5 -4 8 2 16 9 16 15
1 7 2 17 3 24 1 14 14 2 17 -17 1 -8 -11 -20 -27 -27 -23 -10 -27 -17 -22 -38
6 -25 33 -71 33 -57 0 5 -5 18 -11 30 -7 16 -3 13 15 -7 14 -17 23 -33 20 -38
-3 -4 0 -8 5 -8 6 0 11 -7 11 -15 0 -17 42 -30 65 -21 9 3 13 2 10 -4 -3 -6 2
-10 12 -11 10 0 1 -7 -20 -15 -30 -10 -44 -11 -60 -2 -30 16 -56 50 -50 66 3
7 2 12 -3 10 -5 -2 -10 1 -11 6 0 5 -8 13 -17 18 -9 5 -13 15 -9 25 5 12 3 14
-7 8 -10 -6 -12 -4 -7 8 3 10 2 17 -4 17 -5 0 -12 -7 -15 -15 -4 -8 -12 -15
-20 -15 -8 0 -14 -6 -14 -14 0 -8 -13 -23 -29 -32 -17 -10 -28 -22 -25 -28 3
-6 -1 -3 -9 7 -14 17 -15 17 -21 0 -4 -10 -4 -14 0 -11 8 9 34 -16 34 -34 0
-11 2 -11 9 0 7 11 9 11 14 -2 7 -18 -8 -30 -28 -22 -9 3 -12 12 -8 22 5 13 3
15 -7 9 -9 -6 -11 -4 -5 5 6 10 1 12 -22 7 -36 -7 -48 0 -32 20 9 10 8 17 -2
30 -10 11 -10 14 -1 9 6 -4 12 -2 12 3 0 6 -7 11 -15 11 -17 0 -20 16 -5 25 6
4 8 12 4 18 -3 7 6 -1 20 -16 30 -32 33 -47 10 -47 -8 0 -12 -5 -9 -10 4 -6 1
-17 -5 -25 -9 -11 -9 -15 -1 -15 6 0 16 11 21 24 12 31 70 74 70 52 0 -9 5
-16 11 -16 6 0 8 9 4 21 -5 15 -4 19 4 15 6 -4 11 -1 11 8 0 10 6 13 15 10 23
-9 18 11 -10 44 -26 31 -32 52 -15 52 6 0 11 8 11 18 1 16 2 16 6 0 2 -10 8
-18 13 -18z m-149 -316 c13 -13 18 -27 14 -35 -5 -7 -4 -10 3 -5 6 3 26 -13
46 -35 35 -41 35 -42 19 -70 -24 -40 -71 -73 -86 -60 -8 6 -18 6 -27 1 -12 -8
-11 -10 5 -10 18 -1 17 -2 -4 -11 -30 -12 -74 13 -69 40 2 10 -1 17 -7 17 -5
-1 -9 -7 -8 -14 0 -9 -5 -7 -17 5 -13 14 -15 21 -6 32 9 12 8 13 -6 8 -12 -4
-18 -2 -18 8 0 8 -5 14 -12 13 -7 -2 -13 3 -14 10 -1 6 -2 17 -3 23 0 5 -5 8
-10 5 -5 -3 -14 0 -20 8 -9 10 -8 15 3 19 9 4 18 2 21 -4 4 -5 10 -7 15 -4 12
7 68 -67 62 -84 -2 -8 0 -11 5 -8 6 4 19 -3 29 -15 11 -12 13 -18 7 -14 -7 4
-13 5 -13 2 0 -3 9 -10 20 -16 15 -8 27 -7 51 5 17 9 36 14 43 12 9 -4 13 5
14 24 1 37 9 50 27 42 11 -4 13 -1 9 11 -7 18 -20 21 -29 6 -9 -14 -35 7 -35
27 0 8 -4 11 -10 8 -6 -4 -7 1 -3 11 4 11 2 15 -4 11 -6 -4 -17 1 -24 10 -12
14 -12 16 0 9 9 -6 12 -5 9 5 -3 8 -10 13 -16 12 -6 -2 -17 7 -23 20 -7 12
-17 26 -23 30 -7 6 -4 7 7 3 9 -3 17 0 17 6 0 6 9 0 20 -13 11 -13 29 -34 41
-45z m-455 -171 c-5 -13 -4 -14 8 -4 20 17 62 -39 43 -58 -9 -10 -8 -11 6 -6
9 4 17 13 17 21 0 8 5 13 11 12 6 -2 14 3 17 11 3 8 0 11 -7 7 -19 -12 -12 10
9 29 11 10 23 15 27 12 3 -4 15 1 25 10 16 15 21 15 28 3 5 -8 7 -17 5 -20 -2
-3 5 -6 15 -6 15 0 17 3 7 16 -6 8 -2 7 10 -4 13 -10 20 -23 17 -28 -3 -4 0
-7 8 -6 8 2 12 -4 10 -16 -2 -11 1 -15 7 -11 10 5 16 -15 12 -38 -1 -5 3 -6 8
-2 6 3 9 11 7 18 -1 7 -1 9 1 5 3 -4 3 -10 1 -13 -2 -2 7 -12 19 -20 14 -10
20 -23 18 -38 -4 -21 -4 -21 10 -3 17 22 20 9 5 -14 -9 -12 -18 -6 -54 35 -25
27 -42 53 -40 57 3 5 -6 12 -20 18 -14 5 -26 12 -26 15 0 4 5 3 10 0 6 -3 10
-2 10 4 0 5 -13 9 -28 9 -15 -1 -38 5 -51 11 -12 7 -25 10 -28 7 -3 -3 1 -8 9
-11 12 -5 9 -12 -13 -37 -30 -31 -36 -48 -19 -48 6 0 10 -7 10 -15 0 -8 -5
-15 -11 -15 -5 0 -7 -5 -3 -11 5 -8 10 -6 16 6 9 15 11 15 24 -4 8 -11 14 -24
13 -28 -3 -20 2 -34 11 -28 6 4 7 12 4 18 -4 7 13 -8 37 -33 29 -30 39 -46 30
-49 -12 -3 -12 -4 0 -12 8 -5 9 -9 3 -9 -6 0 -18 8 -25 17 -10 11 -10 14 -1 9
6 -4 12 -2 12 3 0 6 -7 11 -16 11 -9 0 -18 9 -21 20 -3 11 -9 20 -14 20 -5 0
-6 -7 -2 -16 4 -12 -1 -10 -20 6 -15 14 -23 28 -20 38 4 9 2 13 -4 9 -15 -10
-57 39 -49 58 3 10 2 14 -5 10 -11 -7 -41 13 -35 24 4 6 -18 30 -31 34 -5 1
-8 12 -8 25 1 12 -3 22 -7 22 -4 0 -8 -5 -8 -11 0 -5 -5 -7 -11 -4 -6 5 -4 12
8 20 15 11 19 11 26 -1 5 -9 6 -22 3 -31z"/>
</g>
</svg>
