<?xml version="1.0" standalone="no"?>
<!DOCTYPE svg PUBLIC "-//W3C//DTD SVG 20010904//EN"
 "http://www.w3.org/TR/2001/REC-SVG-20010904/DTD/svg10.dtd">
<svg version="1.0" xmlns="http://www.w3.org/2000/svg"
 width="398.000000pt" height="452.000000pt" viewBox="0 0 398.000000 452.000000"
 preserveAspectRatio="xMidYMid meet">
<metadata>
Created by potrace 1.16, written by Peter Selinger 2001-2019
</metadata>
<g transform="translate(0.000000,452.000000) scale(0.100000,-0.100000)"
fill="#000000" stroke="none">
<path d="M0 2260 l0 -2260 1970 0 1970 0 0 41 0 41 20 -23 c19 -24 19 -13 20
2219 l0 2242 -716 0 -716 0 6 -22 c3 -13 6 -31 6 -40 0 -10 7 -18 15 -18 8 0
15 5 15 10 0 6 7 10 15 10 10 0 15 -10 15 -30 0 -16 2 -30 4 -30 15 0 267 -82
291 -94 17 -9 36 -16 43 -16 18 0 27 -31 46 -162 l17 -118 -22 -30 c-19 -25
-21 -33 -11 -55 7 -14 12 -39 12 -55 0 -26 5 -30 43 -40 23 -6 58 -15 77 -20
21 -6 48 -26 70 -52 l37 -42 223 -13 c123 -7 224 -14 226 -15 2 -3 -64 -318
-80 -384 -4 -13 -13 -24 -21 -24 -8 0 -17 -10 -19 -22 -23 -105 -27 -149 -21
-201 5 -49 2 -69 -15 -113 -18 -43 -20 -59 -12 -83 11 -30 -2 -116 -97 -661
-17 -96 -47 -276 -67 -400 -36 -229 -51 -287 -124 -490 -23 -63 -45 -126 -50
-140 -4 -14 -35 -104 -70 -200 -54 -152 -61 -181 -55 -220 9 -65 9 -71 1 -116
-7 -41 -7 -42 28 -48 28 -5 36 -12 36 -28 0 -18 -4 -20 -35 -15 -31 5 -37 3
-47 -18 l-11 -24 -39 20 c-30 15 -38 24 -33 38 4 14 -2 21 -25 29 -34 12 -33
-17 -10 252 16 186 15 202 -20 226 -54 38 -200 177 -200 190 0 9 -13 14 -38
14 -23 0 -46 7 -58 18 -57 52 -85 65 -131 58 -75 -10 -123 -26 -123 -40 0 -8
-7 -20 -17 -27 -9 -8 -38 -41 -65 -73 -44 -52 -48 -60 -35 -74 19 -19 44 -10
56 20 5 13 36 49 69 80 l59 57 53 -14 c55 -15 125 -58 194 -120 22 -19 54 -45
73 -57 23 -16 37 -35 44 -63 5 -22 12 -47 15 -55 2 -8 25 -28 50 -43 46 -27
46 -28 40 -70 -7 -40 -19 -128 -33 -225 -4 -32 -9 -42 -20 -38 -8 4 -26 6 -39
6 -14 0 -23 4 -20 9 4 5 -27 15 -66 21 -40 7 -84 19 -97 27 -21 14 -25 14 -33
0 -4 -9 -25 -21 -46 -28 -20 -6 -39 -15 -42 -19 -3 -5 -32 -19 -65 -32 -49
-20 -63 -31 -78 -62 -13 -26 -23 -36 -35 -32 -9 2 -36 8 -60 11 -42 7 -44 9
-78 78 -35 71 -35 73 -23 132 12 64 22 83 63 130 21 24 26 39 24 70 -3 37 -5
40 -32 40 -27 0 -32 -7 -87 -126 l-58 -126 49 -113 c27 -62 51 -115 54 -117 8
-9 151 -43 179 -43 21 0 31 -7 42 -32 14 -30 14 -41 -7 -127 l-23 -95 -49 -28
c-42 -25 -62 -29 -155 -35 -106 -6 -109 -5 -161 23 -29 16 -67 42 -84 58 -34
33 -96 44 -252 45 -45 1 -115 4 -157 7 l-76 7 -32 96 c-22 69 -42 110 -71 144
l-40 47 22 98 c12 53 32 145 46 203 13 58 24 108 24 112 0 3 -35 13 -77 22
-118 25 -113 23 -104 48 7 18 15 21 47 18 21 -1 41 -7 44 -11 3 -4 23 -10 45
-11 33 -3 40 -1 43 16 2 11 16 89 33 173 28 145 31 155 62 180 17 15 41 36 52
48 11 11 37 33 57 48 35 26 38 32 38 78 l0 50 -117 -7 c-91 -5 -121 -10 -131
-23 -16 -21 -15 -42 2 -42 28 0 25 -17 -20 -116 -60 -133 -70 -169 -55 -188
10 -12 5 -19 -31 -42 -24 -15 -45 -30 -48 -34 -8 -10 -54 -40 -62 -40 -5 0 -8
29 -8 64 0 73 4 68 -181 236 -94 85 -172 158 -306 285 -40 38 -80 73 -88 78
-8 4 -15 18 -15 30 0 26 -55 409 -75 517 l-13 75 39 88 39 87 0 135 0 134 31
36 32 36 -28 202 c-15 111 -33 248 -41 304 l-13 101 34 124 c46 165 63 225 75
275 8 31 21 50 53 75 23 18 46 38 50 45 11 18 22 16 43 -4 9 -10 69 -46 133
-80 64 -35 112 -63 106 -63 -5 0 39 -26 98 -58 104 -56 110 -61 143 -119 23
-41 42 -63 58 -67 14 -3 31 -12 38 -20 8 -7 34 -24 58 -36 50 -26 74 -18 116
37 25 33 25 35 11 81 -8 26 -22 74 -31 107 -8 33 -25 92 -36 131 -26 93 -25
105 10 139 40 39 58 116 40 180 -7 25 -11 47 -9 48 2 2 75 29 161 61 86 32
158 61 160 65 2 4 38 20 81 35 42 15 77 30 77 32 0 2 -445 4 -990 4 l-990 0 0
-2260z"/>
</g>
</svg>
