<?xml version="1.0" standalone="no"?>
<!DOCTYPE svg PUBLIC "-//W3C//DTD SVG 20010904//EN"
 "http://www.w3.org/TR/2001/REC-SVG-20010904/DTD/svg10.dtd">
<svg version="1.0" xmlns="http://www.w3.org/2000/svg"
 width="1109.000000pt" height="1253.000000pt" viewBox="0 0 1109.000000 1253.000000"
 preserveAspectRatio="xMidYMid meet">
<metadata>
Created by potrace 1.16, written by Peter Selinger 2001-2019
</metadata>
<g transform="translate(0.000000,1253.000000) scale(0.100000,-0.100000)"
fill="#000000" stroke="none">
<path d="M6776 12505 c-20 -14 -42 -25 -49 -25 -7 -1 -37 -9 -67 -20 l-55 -19
-2 -68 c-1 -37 -2 -75 -2 -83 -1 -20 -65 -48 -254 -110 -65 -21 -124 -43 -130
-48 -7 -5 -39 -17 -72 -27 -149 -41 -169 -50 -212 -90 -39 -37 -44 -47 -53
-111 -25 -172 -39 -204 -92 -204 -26 0 -28 3 -28 38 -1 41 -16 66 -57 94 -25
16 -28 24 -28 75 0 53 -2 58 -26 67 -14 5 -42 6 -61 2 -41 -8 -51 -27 -57
-113 0 -14 -7 -23 -17 -23 -19 0 -104 51 -104 63 0 4 -7 7 -15 7 -7 0 -18 6
-22 13 -15 23 -83 47 -135 47 -58 0 -128 -18 -135 -36 -2 -6 9 -36 26 -67 18
-34 31 -74 33 -104 3 -51 12 -57 66 -39 19 6 22 4 22 -21 0 -36 9 -49 43 -62
21 -8 27 -17 27 -40 0 -16 5 -33 10 -36 6 -3 10 -21 10 -40 0 -29 -4 -35 -34
-45 -19 -6 -44 -20 -57 -30 -12 -11 -34 -20 -48 -20 -29 -1 -59 -22 -85 -62
-17 -26 -17 -27 3 -38 24 -12 27 -35 7 -47 -13 -8 -56 -92 -56 -110 0 -15 -55
-42 -99 -49 -52 -8 -61 -26 -32 -64 11 -16 21 -32 21 -35 0 -4 7 -13 15 -21 8
-9 15 -26 15 -39 0 -27 -21 -35 -102 -35 -46 0 -62 5 -87 26 -17 14 -31 30
-31 36 0 12 -26 38 -38 38 -26 0 -55 -141 -32 -155 25 -15 -7 -25 -78 -23 -74
2 -115 -7 -191 -40 -21 -9 -48 -12 -72 -8 -60 10 -86 -1 -93 -36 -3 -17 -11
-37 -17 -45 -14 -16 -84 -17 -128 -2 -33 12 -58 2 -102 -42 -30 -30 -80 -25
-112 11 -15 16 -27 34 -27 39 0 5 -7 17 -16 25 -22 22 -233 24 -215 2 19 -23
-4 -28 -24 -6 -10 11 -27 20 -38 20 -20 0 -20 -4 -5 -70 2 -8 -6 -16 -16 -18
-11 -2 -26 -10 -34 -18 -7 -8 -19 -14 -25 -14 -7 0 -19 -13 -28 -29 -10 -18
-28 -30 -47 -34 -23 -5 -33 -14 -38 -32 -3 -14 -10 -25 -15 -25 -5 0 -9 -33
-9 -73 0 -102 -7 -107 -137 -107 -108 0 -173 -16 -205 -50 -10 -10 -18 -26
-18 -34 0 -21 -47 -66 -68 -66 -9 0 -26 7 -36 15 -11 8 -40 15 -64 15 -45 0
-72 -17 -72 -44 0 -28 -62 -76 -98 -76 -39 0 -107 -33 -116 -55 -3 -9 -6 -31
-6 -48 0 -32 -12 -50 -80 -111 -29 -27 -32 -34 -26 -72 4 -30 0 -52 -14 -80
-14 -27 -20 -58 -20 -110 0 -53 -4 -76 -18 -92 -9 -12 -26 -34 -36 -48 -18
-25 -22 -26 -76 -21 -65 7 -85 -3 -93 -46 -8 -51 11 -106 51 -143 20 -18 40
-34 44 -34 4 0 14 -7 22 -16 22 -22 20 -66 -4 -87 -30 -25 -25 -42 24 -73 48
-30 56 -46 56 -112 0 -46 9 -58 71 -104 20 -15 40 -40 44 -55 7 -29 43 -83 78
-117 26 -25 18 -85 -17 -131 -14 -18 -26 -40 -26 -48 0 -8 -9 -26 -21 -41 -29
-37 -22 -59 25 -67 37 -6 56 -21 56 -46 0 -17 40 -43 66 -43 30 0 44 -20 51
-77 4 -38 2 -53 -11 -65 -9 -9 -16 -32 -16 -51 l0 -35 -39 15 c-44 17 -91 11
-91 -12 0 -8 -4 -15 -9 -15 -4 0 -11 -23 -14 -51 -7 -60 -20 -72 -93 -88 -46
-11 -53 -16 -59 -42 -4 -16 -13 -42 -20 -57 -16 -32 -70 -92 -82 -92 -5 0 -17
-13 -26 -30 -10 -16 -14 -30 -10 -30 5 0 14 -14 20 -31 11 -28 9 -33 -23 -64
-19 -18 -34 -37 -34 -41 0 -4 12 -23 27 -43 36 -46 53 -79 53 -101 0 -23 -32
-50 -59 -50 -61 0 -105 -62 -86 -120 8 -25 40 -60 54 -60 12 0 61 -63 61 -78
0 -7 -4 -12 -10 -12 -5 0 -10 -7 -10 -15 0 -9 -21 -36 -47 -60 -27 -25 -43
-45 -37 -45 7 0 14 -8 16 -17 3 -10 18 -25 34 -33 16 -8 44 -29 63 -47 32 -28
34 -36 33 -85 -1 -47 2 -55 27 -75 l29 -23 42 41 c24 24 39 46 36 55 -11 29
-56 7 -56 -28 0 -10 -4 -18 -10 -18 -16 0 -12 57 6 74 8 9 26 16 39 16 26 0
65 -42 65 -70 0 -22 31 -35 42 -18 11 17 10 35 -2 56 -11 18 -24 51 -50 124
-18 52 -12 68 25 68 46 0 134 -63 135 -97 0 -22 41 -25 87 -8 38 15 49 15 69
4 13 -7 24 -18 24 -26 0 -7 3 -13 8 -13 4 0 21 -13 38 -28 49 -44 52 -90 7
-137 -11 -12 -23 -33 -27 -49 -12 -49 -32 -60 -115 -64 -42 -2 -85 -7 -96 -12
-76 -32 -86 -33 -140 -20 -53 13 -55 12 -90 -15 -20 -15 -39 -35 -42 -44 -4
-9 -9 -18 -12 -21 -3 -3 -24 -41 -45 -84 -49 -98 -67 -120 -120 -141 -31 -13
-57 -15 -112 -10 -69 6 -70 6 -82 -20 -7 -14 -12 -36 -12 -49 0 -29 -35 -53
-81 -58 l-34 -3 -5 -67 c-3 -36 -8 -70 -12 -74 -5 -4 -42 -10 -84 -13 -65 -6
-78 -10 -95 -31 -10 -14 -19 -31 -19 -38 0 -11 27 -46 68 -88 31 -33 -1 -54
-83 -54 -69 0 -126 -33 -139 -81 -13 -44 -94 -199 -111 -211 -5 -4 -29 -8 -51
-8 -73 0 -83 -49 -22 -110 35 -35 30 -44 -29 -56 -23 -4 -36 -15 -47 -39 -9
-18 -16 -38 -16 -44 0 -6 -4 -11 -10 -11 -5 0 -10 -5 -10 -10 0 -12 -41 -73
-52 -78 -5 -2 -8 -10 -8 -17 0 -8 -6 -18 -13 -22 -7 -4 -20 -20 -29 -34 -51
-80 -149 -139 -231 -139 -29 0 -73 -8 -99 -17 -41 -15 -49 -21 -54 -51 -4 -18
-3 -64 0 -102 7 -66 6 -68 -20 -89 -40 -32 -64 -76 -62 -116 1 -29 -6 -43 -37
-75 -52 -53 -67 -56 -112 -26 -21 14 -41 26 -45 26 -4 0 -14 -13 -22 -29 -20
-39 -38 -43 -108 -29 -58 12 -61 12 -79 -11 -15 -19 -18 -37 -16 -102 1 -62
-1 -82 -13 -89 -30 -20 -48 -10 -67 35 -15 37 -23 45 -44 45 -24 0 -28 -6 -43
-67 -23 -97 -22 -109 15 -122 18 -6 44 -11 60 -11 15 0 35 -7 44 -16 15 -15
15 -18 -4 -35 -11 -11 -25 -19 -31 -19 -5 0 -10 -4 -10 -9 0 -5 -8 -12 -19
-16 -10 -3 -31 -17 -47 -30 l-29 -25 0 -137 c0 -100 3 -137 13 -141 6 -2 12
-8 12 -14 0 -6 9 -29 19 -52 48 -104 51 -114 51 -204 0 -77 4 -100 31 -166 22
-55 29 -84 24 -106 -4 -17 -11 -30 -16 -30 -5 0 -9 -6 -9 -14 0 -7 -7 -19 -15
-26 -19 -16 -19 -79 -1 -117 57 -115 42 -229 -38 -282 -38 -25 -43 -40 -24
-70 15 -24 4 -49 -27 -61 l-25 -10 0 -216 0 -216 28 6 c15 4 64 11 110 15 46
4 88 13 94 19 7 7 32 12 56 12 38 0 43 -2 37 -19 -4 -14 3 -25 25 -41 42 -30
97 -35 172 -17 214 53 350 49 466 -14 54 -29 62 -30 137 -25 127 9 136 8 209
-29 77 -39 147 -46 227 -21 125 39 156 46 204 46 30 0 65 -4 79 -10 15 -5 63
-13 109 -16 89 -7 131 -24 187 -74 55 -50 87 -60 169 -53 72 6 133 -10 169
-44 7 -7 33 -13 56 -13 36 0 47 5 66 30 13 17 29 30 36 30 18 0 44 40 44 68 0
24 25 69 50 89 21 17 41 16 79 -3 46 -23 110 -14 158 22 53 40 98 64 120 64
23 0 73 -40 73 -58 0 -7 4 -12 9 -12 5 0 12 -11 15 -25 5 -20 13 -25 39 -25
18 0 50 9 72 20 59 30 91 27 110 -13 22 -46 51 -61 115 -59 76 3 84 -4 88 -86
l4 -69 49 -17 c46 -17 99 -64 99 -88 0 -19 71 -76 101 -82 34 -7 88 2 108 18
8 6 43 13 79 16 l65 5 13 50 c7 28 13 62 14 77 0 40 21 26 50 -34 28 -58 30
-109 5 -157 -14 -29 -15 -37 -4 -58 11 -20 11 -28 0 -44 -6 -11 -15 -42 -18
-67 -4 -40 -1 -51 19 -74 l23 -28 40 24 c37 23 41 23 58 9 9 -9 17 -20 17 -25
0 -21 55 -68 81 -68 26 0 27 2 34 73 7 78 21 127 38 127 5 0 27 -5 47 -11 42
-13 54 -39 65 -141 4 -32 10 -60 15 -63 4 -3 11 -21 14 -40 4 -19 11 -35 16
-35 4 0 11 -19 15 -42 4 -24 12 -49 18 -56 7 -9 6 -17 -5 -28 -13 -13 -20 -12
-63 6 -55 24 -75 15 -75 -31 0 -16 -4 -29 -10 -29 -16 0 -11 -102 5 -124 23
-30 18 -46 -12 -46 -16 0 -39 -3 -52 -7 -22 -5 -23 -10 -19 -61 3 -31 10 -58
16 -60 7 -2 12 -12 12 -21 0 -24 37 -62 80 -84 55 -27 69 -63 76 -190 6 -101
9 -114 31 -134 36 -34 68 -29 115 18 40 40 43 41 94 36 59 -6 64 -1 64 63 0
25 -7 46 -18 57 -93 91 -98 166 -12 190 39 10 50 28 50 77 0 25 4 48 10 51 5
3 27 -6 50 -21 32 -21 47 -25 77 -21 58 10 63 36 16 87 -13 14 -23 34 -23 45
0 21 42 53 98 75 41 16 52 36 52 97 0 71 33 153 62 153 5 0 27 18 48 39 22 22
52 42 68 46 33 7 58 30 63 59 8 42 32 40 103 -8 38 -26 81 -60 98 -76 33 -34
36 -34 74 -19 51 19 73 5 80 -50 5 -42 10 -50 31 -56 14 -3 38 -3 54 0 21 5
37 0 61 -18 66 -49 113 -41 124 20 3 18 10 33 14 33 4 0 10 10 14 23 6 26 54
57 88 57 14 0 40 -13 58 -30 18 -16 41 -30 51 -30 28 0 49 11 49 25 0 7 5 15
10 17 6 2 14 30 17 63 9 92 40 113 120 80 51 -21 84 -19 117 10 39 33 75 32
106 -3 36 -41 57 -46 96 -21 33 20 35 20 64 3 35 -21 53 -62 54 -127 1 -30 7
-53 16 -60 8 -7 26 -29 40 -49 14 -21 27 -38 30 -38 3 -1 30 -2 60 -3 41 -2
67 -10 99 -31 24 -16 60 -31 80 -33 31 -4 42 0 73 30 48 45 116 57 181 32 65
-25 87 -18 113 36 13 25 39 62 59 83 35 38 65 94 65 124 0 39 62 52 143 30 24
-6 54 -8 68 -5 26 7 89 60 89 75 0 17 45 61 73 71 16 6 52 11 82 11 57 0 74
16 58 55 -15 40 -41 55 -97 55 -63 0 -72 11 -55 72 14 52 5 85 -32 128 -27 30
-30 41 -26 78 3 29 13 50 31 67 14 13 26 27 26 31 0 4 8 16 17 27 14 15 18 42
21 130 4 104 6 114 29 139 19 20 27 41 30 80 6 74 29 115 80 139 24 12 43 27
43 35 0 7 -27 27 -59 43 -79 41 -101 70 -101 136 0 45 4 55 25 69 37 24 68 20
98 -14 15 -16 27 -34 27 -39 0 -20 80 -71 143 -92 37 -12 78 -33 91 -46 18
-18 33 -24 58 -21 47 4 46 26 -2 97 -23 33 -39 65 -35 71 3 5 23 10 44 10 42
0 69 -20 111 -82 35 -52 66 -65 99 -40 21 15 27 29 29 71 2 28 -1 51 -6 51
-18 0 -34 83 -22 114 19 52 74 73 106 41 21 -20 44 -91 44 -134 0 -21 7 -46
15 -57 8 -10 15 -26 15 -34 0 -23 56 -80 77 -80 18 0 103 -75 103 -91 0 -14
67 -79 81 -79 8 0 31 11 51 25 20 13 66 34 102 46 71 23 106 49 106 79 0 10 5
22 10 25 5 3 10 17 10 29 0 17 10 28 34 40 19 9 38 16 43 16 5 0 19 9 31 20
17 17 22 32 22 75 0 30 5 55 10 55 6 0 10 6 10 14 0 8 7 16 15 20 9 3 15 18
15 34 0 29 -29 52 -65 52 -19 0 -41 45 -48 98 -5 43 -27 71 -57 72 -8 0 -45
-16 -82 -35 -92 -47 -119 -34 -82 38 25 48 56 72 110 87 27 7 56 19 65 27 8 7
21 13 27 13 7 0 12 5 12 10 0 6 10 15 23 20 12 6 29 14 37 19 8 4 31 16 50 25
19 9 46 33 60 54 39 60 70 81 117 82 59 0 93 16 130 58 36 41 43 80 16 88 -74
23 -98 70 -78 156 7 30 21 68 31 84 19 28 27 39 76 98 l25 30 24 -28 c45 -52
84 -68 164 -70 67 -1 76 1 102 26 32 31 39 28 91 -39 44 -57 62 -103 62 -164
0 -84 51 -143 109 -124 36 11 44 47 26 111 -10 33 -21 69 -26 82 -5 13 -9 60
-9 105 -1 45 -4 100 -8 122 -9 44 4 125 19 125 5 0 9 8 9 18 0 10 7 27 15 38
8 11 14 41 14 69 0 49 0 50 -42 69 -72 34 -84 67 -42 122 14 18 25 37 25 43 0
5 6 16 13 23 13 14 33 63 49 121 17 62 -4 90 -94 128 -16 6 -28 15 -28 19 0 4
-11 11 -25 14 -33 8 -42 34 -35 99 8 83 3 96 -42 114 -47 19 -58 42 -58 123 0
32 -7 86 -16 120 -15 59 -10 110 16 145 4 6 13 41 20 78 14 74 5 111 -30 122
-51 16 -98 105 -125 233 -4 18 -19 46 -34 61 -15 15 -42 56 -59 92 -45 89 -64
101 -163 101 -77 0 -80 0 -103 31 -14 18 -28 45 -31 60 -11 43 -56 80 -119
100 -32 9 -63 23 -70 30 -18 17 -86 166 -86 186 0 6 -4 11 -10 11 -18 0 -10
60 14 113 32 68 48 131 41 159 -3 13 -22 34 -42 48 -55 37 -67 62 -60 124 3
30 10 62 15 72 6 11 21 46 34 79 13 33 26 62 31 63 4 2 7 8 7 12 0 5 11 26 25
46 23 33 24 39 11 53 -15 14 -42 11 -143 -15 -28 -8 -31 13 -5 42 45 52 64 97
53 127 -24 62 -121 126 -121 79 0 -10 -7 -28 -16 -40 -19 -27 -39 -17 -47 26
-6 27 -42 82 -55 82 -4 0 -27 -18 -51 -40 -46 -42 -71 -50 -71 -25 0 8 -4 15
-9 15 -5 0 -12 11 -15 25 -12 46 -41 65 -99 65 -56 0 -65 8 -83 84 -4 16 -13
41 -20 55 -8 14 -14 36 -14 49 0 12 -4 22 -9 22 -5 0 -13 14 -16 32 -7 31 -52
121 -81 163 -8 11 -14 28 -14 37 0 10 -4 26 -9 36 -6 9 -20 38 -32 64 -18 38
-25 45 -36 37 -7 -6 -13 -22 -13 -34 0 -60 -53 -105 -124 -105 -64 0 -72 -37
-21 -92 14 -15 25 -31 25 -36 0 -5 7 -15 15 -22 9 -8 15 -29 15 -56 0 -38 -3
-44 -25 -50 -19 -5 -32 1 -56 25 -17 17 -33 31 -36 31 -3 0 -3 -33 1 -73 7
-84 2 -107 -25 -107 -10 0 -25 -13 -34 -30 -9 -16 -18 -30 -21 -30 -3 0 -19
13 -37 30 -29 27 -38 30 -102 30 -54 -1 -75 -5 -92 -19 -13 -11 -23 -24 -23
-29 0 -13 -29 -24 -43 -15 -52 29 -95 76 -102 110 -4 24 -20 50 -46 75 -38 37
-39 40 -39 106 0 37 5 73 10 78 6 6 14 58 17 116 l6 106 -37 36 c-28 29 -36
45 -36 74 0 66 -27 119 -90 181 -35 34 -60 68 -60 79 0 12 -4 31 -9 44 -23 56
-28 72 -30 91 -1 8 -4 8 -12 -3 -9 -12 -10 -11 -6 7 3 15 1 20 -9 16 -7 -3
-21 8 -31 24 -10 16 -26 38 -36 48 -67 75 -81 97 -70 113 6 10 16 16 22 15 29
-7 6 43 -38 86 -47 46 -81 113 -81 161 0 11 -4 28 -9 38 -6 9 -20 38 -32 65
-12 26 -26 47 -31 47 -4 0 -8 6 -8 13 0 8 -9 22 -20 32 -11 10 -20 24 -20 32
0 7 -4 13 -10 13 -5 0 -12 11 -16 25 -3 14 -10 25 -14 25 -5 0 -12 14 -15 32
-4 18 -11 39 -16 48 -5 8 -18 38 -29 65 -12 28 -28 64 -36 82 -17 38 -18 115
-2 131 19 19 44 14 105 -18 57 -31 103 -39 103 -19 0 14 -71 133 -82 137 -4 2
-8 9 -8 16 0 11 -8 23 -49 72 -19 23 -51 104 -51 128 0 15 -4 26 -9 26 -5 0
-11 19 -15 42 -4 23 -11 47 -15 53 -5 5 -11 23 -15 38 -4 16 -12 35 -19 44
-39 48 -81 82 -108 88 -16 4 -44 22 -61 40 -36 40 -100 72 -171 86 -94 17
-112 28 -137 81 -23 50 -74 98 -102 98 -8 0 -23 7 -34 15 -25 19 -49 19 -79
-1 -13 -9 -32 -13 -42 -10 -22 7 -74 54 -89 82 -20 35 -54 44 -172 44 -139 0
-182 18 -182 75 0 35 28 63 96 94 44 20 102 86 109 124 4 20 11 37 16 37 5 0
9 6 9 14 0 8 6 21 13 28 7 7 16 20 20 28 4 8 14 26 22 40 16 28 20 106 6 114
-5 4 -35 -1 -67 -9 -71 -18 -114 -19 -114 -2 0 6 7 26 16 42 9 17 18 55 21 85
8 86 29 143 61 162 66 39 187 71 314 83 60 6 83 12 102 30 28 26 66 104 66
134 0 12 5 21 10 21 6 0 10 11 10 26 0 31 35 109 60 134 16 16 34 20 83 20 60
0 63 1 79 33 9 17 20 43 24 56 7 28 28 51 66 75 19 13 48 17 114 17 49 0 94 5
101 11 26 21 15 64 -29 111 -24 25 -50 55 -58 67 -24 35 -53 73 -79 103 -24
27 -24 27 -161 27 -130 0 -139 -1 -174 -25z m867 -3864 c3 -14 -5 -23 -32 -37
-20 -9 -40 -17 -44 -16 -5 2 -6 -2 -3 -7 4 -5 2 -12 -3 -15 -13 -8 -2 -44 16
-50 8 -4 35 3 60 14 74 33 106 26 128 -27 13 -30 13 -38 0 -62 -19 -38 -84
-94 -101 -87 -8 3 -14 0 -15 -7 0 -7 -4 -3 -9 8 -12 28 -12 35 3 35 7 0 29 11
50 25 28 20 37 32 37 55 0 38 -25 45 -76 23 -21 -9 -54 -18 -71 -21 -28 -3
-35 1 -53 30 -29 48 -2 110 62 141 42 21 45 21 51 -2z m-363 -3391 c11 -11 20
-26 20 -34 0 -8 9 -18 20 -21 34 -11 55 -51 42 -81 -26 -56 -100 -57 -123 -2
-7 18 -23 43 -36 55 -30 29 -29 57 3 82 33 26 49 26 74 1z m-91 -127 c49 -58
55 -103 17 -129 -26 -16 -72 -16 -70 1 0 6 9 12 20 14 27 5 44 21 44 42 0 24
-6 24 -37 -1 -30 -23 -59 -19 -85 14 -36 44 -11 106 43 106 20 0 38 -12 68
-47z m-400 -312 c29 -40 27 -75 -5 -100 -37 -29 -59 -26 -88 12 -32 42 -33 61
-1 92 33 34 69 32 94 -4z m-136 -80 c50 -74 56 -91 32 -91 -9 0 -18 -7 -22
-16 -7 -19 -47 -36 -68 -28 -16 7 -55 65 -55 84 0 6 14 25 31 41 25 24 29 32
19 44 -11 13 -6 35 8 35 4 0 28 -31 55 -69z m-3778 -423 l0 -82 54 -12 c29 -7
71 -14 93 -17 47 -5 53 -10 33 -27 -12 -10 -29 -9 -87 2 l-73 15 -3 -25 c-3
-17 6 -35 28 -57 27 -28 29 -33 15 -45 -12 -10 -18 -10 -30 0 -8 7 -15 19 -15
26 0 8 -5 14 -11 14 -16 0 -149 132 -143 142 3 5 2 7 -3 6 -5 -2 -25 14 -45
34 -29 30 -34 40 -24 53 9 13 22 4 85 -60 41 -41 78 -75 83 -75 5 0 8 34 7 75
-2 60 1 79 16 95 10 11 19 20 19 20 1 0 1 -37 1 -82z m6707 -115 c6 -7 21 -13
34 -13 12 0 25 -3 28 -8 2 -4 25 -7 50 -6 25 1 46 -2 46 -7 0 -5 8 -6 18 -2
14 5 13 2 -5 -17 -21 -22 -22 -22 -89 -7 -38 8 -72 13 -76 10 -16 -9 -7 -40
22 -71 17 -18 27 -39 24 -47 -9 -22 -17 -19 -53 25 -18 22 -53 59 -78 82 -71
67 -83 80 -77 90 3 5 0 7 -8 6 -7 -2 -12 3 -10 10 1 6 -3 11 -9 10 -6 -2 -16
6 -22 17 -7 11 -16 23 -22 27 -6 5 -3 14 9 25 18 17 19 17 13 0 -4 -10 -3 -16
2 -13 11 7 127 -121 123 -136 -1 -5 2 -7 7 -4 5 4 14 -2 20 -11 7 -13 10 8 9
75 0 63 4 98 13 109 12 14 14 6 17 -57 2 -41 8 -80 14 -87z m-6852 -32 c0 -13
-20 -25 -42 -26 -21 -2 -68 -43 -68 -60 0 -7 9 -24 20 -37 10 -14 16 -29 12
-33 -4 -5 -2 -5 4 -2 6 3 25 -9 42 -28 16 -19 37 -35 46 -35 27 0 70 46 71 76
0 35 30 46 40 15 7 -24 -3 -64 -15 -56 -4 3 -7 -3 -6 -12 2 -26 -63 -66 -98
-59 -35 7 -68 34 -59 49 3 5 1 7 -4 4 -6 -4 -30 14 -53 39 -37 40 -42 50 -37
80 7 41 37 85 55 79 7 -3 10 0 7 5 -4 6 12 10 39 10 25 0 46 -4 46 -9z m6690
-26 c0 -17 -11 -23 -49 -28 -28 -4 -51 -32 -51 -62 0 -28 97 -121 133 -127 15
-3 25 -3 22 0 -2 3 4 11 15 19 12 9 20 26 20 44 0 22 5 29 20 29 16 0 20 -7
20 -31 0 -20 -4 -28 -12 -23 -7 5 -8 3 -3 -5 9 -16 -39 -67 -70 -75 -31 -8
-79 10 -69 26 4 6 3 8 -2 5 -6 -3 -32 17 -59 44 -27 27 -45 49 -40 49 4 0 0 8
-9 19 -12 13 -15 27 -10 45 3 14 10 24 14 21 4 -3 7 3 6 13 0 9 5 16 12 14 8
-1 11 2 8 7 -10 15 25 30 67 31 27 0 37 -4 37 -15z m-510 -232 c0 -5 12 -21
26 -37 25 -29 26 -29 54 -13 24 15 29 15 40 2 13 -16 6 -35 -13 -35 -7 0 -18
-10 -26 -22 -7 -13 -10 -20 -6 -15 5 4 17 0 27 -10 20 -18 25 -38 6 -27 -9 5
-9 2 1 -9 16 -20 26 -23 15 -4 -5 8 -2 7 10 -2 9 -8 15 -20 12 -27 -3 -8 -2
-13 2 -12 4 2 19 -6 35 -16 15 -10 36 -16 47 -13 10 3 24 -1 31 -9 9 -11 5
-17 -24 -29 -50 -21 -95 -1 -88 38 1 5 -3 6 -8 2 -10 -6 -37 34 -33 48 1 5 -2
6 -7 3 -5 -4 -18 7 -27 24 -14 23 -23 28 -41 24 -21 -6 -25 -2 -25 26 -1 3 2
19 6 35 4 18 3 25 -2 17 -12 -18 -44 30 -36 52 6 16 24 22 24 9z m-6670 -54
c0 -18 37 -18 62 1 26 19 28 19 37 1 8 -14 5 -23 -15 -40 -25 -21 -25 -23 -8
-42 9 -10 15 -19 12 -19 -3 0 13 -18 34 -41 33 -34 44 -40 73 -38 45 4 67 -15
39 -36 -10 -8 -26 -15 -34 -16 -8 -1 -22 -2 -30 -3 -20 -2 -61 34 -53 47 3 6
1 7 -5 4 -5 -4 -27 15 -47 43 -27 37 -42 49 -55 45 -19 -6 -35 19 -24 37 4 5
-3 23 -15 39 -15 20 -20 37 -15 51 6 21 6 21 25 -3 10 -13 19 -27 19 -30z
m6649 -130 c1 -4 -14 -10 -32 -13 -39 -7 -76 -58 -58 -80 6 -7 8 -16 4 -20 -8
-8 -5 -7 79 20 57 18 58 18 85 -2 40 -30 50 -70 26 -103 -24 -31 -93 -73 -111
-66 -7 3 -10 0 -7 -5 3 -6 1 -10 -4 -10 -6 0 -11 2 -11 4 0 2 -2 11 -5 19 -4
9 8 19 39 31 47 18 80 55 70 80 -8 22 -51 28 -82 13 -45 -23 -90 -19 -108 9
-35 53 -10 113 59 144 39 18 42 18 49 2 4 -9 7 -20 7 -23z m-6699 2 c0 -12 -9
-22 -22 -26 -35 -11 -68 -46 -68 -72 0 -33 36 -38 90 -14 59 27 75 26 99 -5
28 -36 27 -85 -1 -111 -27 -25 -97 -63 -115 -63 -19 0 -16 27 4 34 10 4 37 21
60 39 31 24 41 37 37 51 -5 13 -3 16 6 11 9 -6 11 -4 6 4 -5 7 -10 10 -13 7
-3 -3 -14 -1 -23 4 -13 7 -31 4 -62 -10 -23 -11 -53 -20 -65 -20 -25 0 -63 43
-63 72 0 28 27 75 47 82 10 3 29 13 43 21 33 19 40 19 40 -4z m6373 -239 c10
-10 14 -22 10 -27 -5 -4 -3 -5 3 -2 7 4 19 -5 29 -19 13 -20 14 -28 4 -40 -7
-8 -18 -13 -25 -10 -8 3 -13 0 -11 -7 1 -7 -6 -11 -15 -11 -10 1 -15 -2 -12
-7 3 -5 -11 -19 -31 -30 -33 -20 -35 -23 -21 -38 13 -14 13 -20 3 -31 -10 -10
-9 -11 3 -4 8 5 26 10 40 12 36 5 70 29 70 51 0 14 6 17 25 14 l24 -5 -19 -38
c-29 -57 -111 -88 -151 -57 -8 7 -35 38 -59 70 -42 56 -43 59 -31 98 8 27 24
49 53 69 47 34 87 38 111 12z m-6688 -18 c14 -15 25 -36 25 -48 0 -15 3 -17 9
-8 7 11 9 11 14 -2 4 -10 1 -16 -7 -16 -8 0 -16 -3 -18 -7 -3 -8 -74 -63 -81
-63 -2 0 -4 7 -4 16 0 8 15 26 33 38 32 21 33 24 18 44 -18 25 -69 30 -99 8
-14 -10 -17 -21 -12 -52 6 -37 5 -38 -8 -14 l-13 25 1 -26 c2 -23 6 -26 39
-23 36 3 42 -6 25 -33 -6 -10 35 -53 52 -53 27 1 51 17 61 41 13 30 50 41 50
15 0 -37 -75 -96 -123 -96 -27 0 -51 22 -39 35 4 5 2 5 -5 1 -15 -8 -93 104
-93 134 0 48 69 110 123 110 17 0 37 -10 52 -26z m-335 -89 c0 -28 27 -37 60
-20 24 12 35 14 43 6 9 -9 5 -17 -14 -34 -26 -22 -46 -59 -30 -54 4 1 27 -22
51 -52 39 -49 45 -53 76 -48 45 7 64 -15 32 -37 -12 -9 -33 -16 -45 -16 -24 0
-93 55 -93 74 0 7 -16 27 -35 46 l-35 34 -39 -32 c-22 -18 -45 -32 -52 -32 -7
0 0 -13 15 -29 16 -16 25 -34 22 -39 -3 -5 2 -16 12 -23 16 -13 16 -12 3 6 -8
11 1 3 21 -17 35 -38 65 -47 84 -28 6 6 14 3 21 -9 16 -26 -4 -43 -52 -44 -29
-1 -43 6 -76 41 -24 25 -38 46 -33 53 4 7 3 9 -3 6 -12 -7 -46 26 -37 36 4 4
-16 3 -33 -2 -8 -3 -13 0 -12 5 0 4 -5 11 -13 15 -10 7 -10 9 0 9 17 0 15 21
-7 49 -14 18 -16 28 -7 46 l10 22 24 -28 c13 -16 21 -33 17 -39 -9 -14 25 -1
54 22 13 10 27 15 32 12 5 -3 8 0 7 8 -2 7 3 12 10 11 18 -4 15 21 -7 48 -15
18 -16 28 -8 46 8 18 13 20 24 12 7 -6 13 -17 13 -24z m6705 -41 c2 -10 4 -21
4 -22 1 -2 19 10 40 27 35 28 40 29 46 14 4 -12 -2 -24 -19 -38 -14 -12 -26
-25 -26 -29 0 -5 21 -34 48 -64 26 -31 46 -63 44 -72 -3 -12 -1 -12 10 2 19
25 62 33 77 14 10 -12 7 -17 -19 -31 -44 -23 -85 -17 -84 12 1 13 -3 20 -7 17
-5 -3 -7 -10 -4 -15 14 -21 -14 -7 -31 17 -10 14 -29 38 -41 52 -14 16 -20 34
-17 45 3 11 -8 5 -33 -18 -22 -20 -44 -33 -53 -29 -8 3 -11 2 -7 -2 4 -4 3
-12 -2 -18 -15 -20 -22 -48 -9 -40 8 5 9 1 4 -12 -4 -10 -4 -15 0 -11 4 4 26
-10 48 -31 47 -45 76 -55 95 -35 11 12 15 12 27 -4 12 -16 11 -20 -7 -35 -12
-10 -36 -18 -54 -18 -33 0 -61 20 -47 35 4 5 2 6 -3 2 -6 -3 -17 -2 -25 3 -12
7 -12 11 0 27 12 15 12 16 0 6 -13 -12 -39 -19 -28 -8 3 3 -13 24 -35 45 -40
40 -61 53 -37 25 10 -12 10 -15 -3 -15 -19 0 -27 20 -16 41 6 11 4 21 -6 29
-14 11 -22 70 -10 70 3 0 18 -14 34 -32 l29 -32 46 38 c51 41 55 55 27 80 -16
15 -18 22 -9 42 11 24 12 24 30 6 11 -10 21 -27 23 -38z m-6875 -226 c52 -62
60 -75 52 -83 -4 -5 -2 -5 5 -1 14 8 45 -33 36 -48 -3 -6 -3 -8 2 -4 10 10 35
-10 35 -28 0 -19 -58 -82 -92 -100 -17 -9 -38 -12 -51 -8 -28 8 -138 114 -131
126 3 4 -1 8 -8 8 -20 0 -42 40 -29 53 8 8 31 -9 84 -61 58 -58 79 -72 103
-72 29 0 74 31 74 51 0 9 -40 56 -101 118 -38 39 -49 62 -35 77 16 19 18 18
56 -28z m6783 -134 c15 -17 23 -35 19 -39 -4 -5 -2 -5 5 -1 38 22 -3 -64 -49
-102 -22 -18 -58 -23 -58 -9 0 8 -3 8 -9 -2 -13 -20 -44 0 -125 80 -60 59 -67
71 -56 84 12 14 22 7 89 -59 82 -82 112 -93 146 -56 10 11 21 18 25 15 18 -11
2 41 -20 64 -131 139 -130 137 -113 154 14 14 20 10 68 -41 29 -32 64 -71 78
-88z m-7000 -45 c34 -18 69 -57 62 -68 -3 -6 0 -8 9 -5 14 5 41 -28 30 -39 -3
-3 0 -8 7 -13 8 -4 10 -3 5 4 -4 7 6 4 23 -5 16 -10 27 -21 25 -25 -3 -5 1 -8
8 -8 8 0 7 -5 -4 -16 -17 -17 -43 -10 -32 8 4 6 3 8 -3 5 -6 -4 -36 23 -67 58
-66 75 -95 83 -138 38 -29 -31 -34 -81 -8 -79 8 1 14 -5 12 -12 -1 -8 2 -11 8
-7 7 4 22 -3 36 -16 25 -23 33 -46 12 -33 -7 4 -8 3 -4 -5 4 -6 11 -9 15 -7 4
3 19 -8 34 -24 20 -21 24 -30 14 -38 -9 -7 -21 -2 -44 18 -17 16 -30 30 -27
32 2 3 -8 11 -22 18 -14 8 -54 47 -90 88 -35 40 -64 70 -64 66 0 -3 -9 4 -19
17 -28 35 -9 55 24 27 14 -12 22 -26 18 -31 -3 -6 -1 -7 5 -3 6 3 13 2 17 -4
8 -13 45 -13 45 0 0 6 1 13 1 18 2 10 42 37 52 34 4 -1 7 3 7 8 0 13 26 13 53
-1z m6520 -64 c32 -41 54 -44 66 -12 12 30 62 51 98 42 32 -8 135 -104 126
-118 -3 -6 -1 -7 5 -3 6 3 14 0 19 -7 4 -7 16 -17 27 -20 15 -6 16 -10 6 -22
-7 -8 -17 -15 -22 -15 -6 0 -43 34 -83 75 -44 45 -81 75 -94 75 -44 0 -100
-87 -69 -106 7 -4 8 -2 4 4 -4 8 -2 10 8 6 9 -3 12 -12 9 -21 -4 -11 -2 -14 5
-9 15 9 55 -31 46 -46 -4 -6 -3 -8 3 -5 5 3 25 -9 43 -28 28 -29 31 -37 20
-50 -11 -14 -15 -13 -29 7 -9 13 -15 27 -13 31 1 5 -1 6 -6 3 -5 -3 -19 6 -30
19 -23 27 -29 40 -12 30 16 -10 11 1 -7 16 -11 10 -14 10 -9 2 4 -7 3 -13 -2
-13 -15 0 -33 26 -24 35 4 5 2 5 -4 2 -14 -8 -157 140 -149 154 12 19 41 8 68
-26z m-6710 -107 c2 -7 -12 -24 -32 -38 -43 -30 -54 -73 -22 -90 17 -8 29 -6
63 11 59 30 90 33 116 8 24 -22 30 -76 11 -110 -16 -31 -101 -82 -111 -66 -9
14 -11 33 -2 25 6 -7 47 32 69 65 37 57 -5 84 -69 46 -20 -11 -40 -18 -46 -14
-5 3 -10 1 -10 -4 0 -18 -42 -5 -62 18 -22 28 -24 74 -3 94 8 8 12 17 9 19 -2
3 3 11 13 19 15 12 16 12 9 -1 -6 -12 -4 -11 6 1 12 14 33 26 50 28 3 1 8 -5
11 -11z m6697 -28 c7 -14 7 -20 0 -20 -5 0 -11 1 -13 3 -1 1 -13 -8 -26 -20
-13 -12 -27 -21 -30 -19 -3 2 -7 -9 -8 -24 -1 -20 5 -33 22 -44 16 -11 26 -12
30 -5 4 6 14 8 22 5 8 -3 11 -2 8 4 -8 13 28 30 63 30 36 0 82 -49 82 -87 0
-32 -73 -108 -95 -99 -9 3 -14 2 -11 -3 3 -5 -1 -11 -9 -14 -8 -4 -16 2 -20
14 -8 24 -4 30 23 32 12 0 19 3 17 5 -2 3 7 13 20 24 16 13 25 30 25 48 0 39
-28 46 -79 20 -64 -32 -102 -26 -127 21 -11 22 -12 34 -4 49 6 11 9 24 6 28
-9 15 54 72 81 72 7 0 17 -9 23 -20z"/>
</g>
</svg>
