<?xml version="1.0" standalone="no"?>
<!DOCTYPE svg PUBLIC "-//W3C//DTD SVG 20010904//EN"
 "http://www.w3.org/TR/2001/REC-SVG-20010904/DTD/svg10.dtd">
<svg version="1.0" xmlns="http://www.w3.org/2000/svg"
 width="1301.000000pt" height="1271.000000pt" viewBox="0 0 1301.000000 1271.000000"
 preserveAspectRatio="xMidYMid meet">
<metadata>
Created by potrace 1.16, written by Peter Selinger 2001-2019
</metadata>
<g transform="translate(0.000000,1271.000000) scale(0.100000,-0.100000)"
fill="#000000" stroke="none">
<path d="M6656 12166 c-20 -23 -36 -48 -36 -54 0 -5 -16 -19 -35 -31 -20 -11
-48 -41 -63 -66 -15 -24 -34 -45 -43 -45 -9 0 -26 -9 -39 -20 -18 -15 -37 -20
-85 -20 -44 0 -66 -5 -75 -15 -7 -8 -25 -14 -39 -13 -18 1 -45 -12 -82 -40
-47 -35 -63 -42 -103 -42 -36 0 -52 -5 -71 -25 -22 -21 -25 -34 -26 -102 -2
-101 -2 -100 -20 -158 -9 -27 -14 -67 -11 -87 3 -28 -1 -44 -17 -64 -12 -15
-21 -35 -21 -45 0 -23 -34 -165 -49 -202 -6 -16 -11 -44 -11 -63 0 -27 -5 -37
-25 -46 -14 -6 -25 -15 -25 -20 0 -4 -6 -8 -14 -8 -18 0 -29 -43 -27 -103 2
-41 -2 -53 -28 -83 -17 -19 -31 -45 -31 -59 0 -13 -12 -38 -27 -55 -20 -25
-26 -41 -25 -75 2 -39 -2 -47 -28 -67 -16 -12 -30 -28 -30 -35 0 -26 -33 -78
-76 -120 -37 -35 -44 -48 -44 -81 0 -26 -6 -45 -19 -56 -11 -10 -24 -30 -31
-45 -9 -23 -23 -32 -71 -46 -32 -10 -59 -22 -59 -26 0 -5 -20 -14 -45 -20 -25
-6 -45 -15 -45 -20 0 -5 -6 -9 -14 -9 -8 0 -16 -7 -20 -15 -3 -8 -12 -15 -20
-15 -25 0 -96 -31 -96 -42 0 -15 -42 -47 -62 -48 -20 0 -58 -46 -58 -70 0 -32
-33 -50 -93 -50 -61 0 -63 -1 -127 -79 -20 -25 -38 -59 -42 -83 -4 -22 -13
-45 -21 -52 -31 -26 -42 -52 -48 -110 -4 -34 -16 -88 -28 -120 -12 -33 -21
-73 -21 -90 0 -17 -7 -44 -16 -61 -19 -37 -41 -102 -46 -135 -2 -16 -14 -30
-34 -40 -36 -17 -64 -44 -64 -59 0 -6 -5 -11 -11 -11 -18 0 -56 -46 -70 -85
-10 -26 -24 -40 -51 -52 -22 -10 -38 -24 -38 -34 0 -9 -9 -27 -19 -41 -11 -13
-23 -38 -27 -54 -4 -16 -18 -39 -31 -51 -21 -20 -23 -30 -23 -130 0 -101 -2
-110 -24 -130 -18 -18 -36 -23 -75 -23 -28 0 -51 -4 -51 -9 0 -18 -50 -61 -73
-61 -13 0 -38 -11 -57 -25 -33 -24 -39 -25 -195 -25 -115 0 -176 4 -211 15
-69 21 -82 19 -121 -15 -29 -26 -39 -29 -72 -24 -46 7 -81 -9 -81 -37 0 -13
-10 -24 -30 -30 -16 -6 -30 -15 -30 -20 0 -5 -20 -9 -44 -9 -40 0 -48 -4 -77
-41 -28 -36 -35 -40 -64 -35 -25 5 -38 1 -61 -19 -20 -18 -35 -24 -49 -18 -11
3 -47 7 -80 7 -68 1 -95 13 -115 50 -7 14 -21 26 -31 26 -23 0 -49 37 -49 70
0 15 -7 35 -15 46 -8 11 -15 42 -15 74 -1 70 -23 122 -82 199 l-48 61 -69 0
c-38 0 -88 -7 -111 -15 -23 -8 -52 -12 -64 -9 -27 6 -37 -5 -61 -69 -18 -49
-19 -49 -97 -62 -21 -3 -38 -10 -38 -15 0 -6 -5 -10 -11 -10 -22 0 -48 -45
-49 -83 0 -32 -5 -41 -33 -57 -40 -24 -57 -57 -57 -110 0 -22 -6 -42 -13 -47
-8 -4 -22 -30 -32 -57 -10 -26 -26 -55 -34 -64 -11 -10 -16 -33 -15 -65 0 -41
-4 -55 -30 -84 -17 -19 -47 -43 -67 -54 -38 -19 -49 -35 -49 -74 0 -15 -14
-34 -39 -54 -24 -19 -42 -44 -46 -61 -4 -17 -12 -30 -19 -30 -17 0 -43 -30
-48 -55 -2 -12 -13 -21 -28 -23 -14 -2 -33 -11 -42 -19 -10 -9 -34 -17 -54
-18 -49 -3 -65 -25 -57 -81 6 -43 5 -44 -30 -59 -20 -8 -45 -15 -56 -15 -20 0
-31 -18 -31 -52 0 -11 -9 -31 -20 -45 -12 -15 -18 -34 -15 -44 3 -10 -3 -36
-15 -58 -11 -22 -20 -58 -20 -80 0 -22 -4 -43 -10 -46 -15 -9 -13 -190 3 -202
6 -6 41 -16 77 -23 87 -17 97 -23 66 -39 -20 -11 -33 -11 -68 -2 -75 21 -93
19 -96 -9 -2 -14 5 -34 15 -46 24 -27 26 -43 8 -51 -16 -5 -47 25 -39 38 2 4
-5 5 -16 2 -23 -6 -26 -26 -6 -42 8 -7 17 -34 21 -62 7 -53 31 -79 71 -79 37
0 110 -38 124 -65 9 -17 22 -25 41 -25 18 0 28 -6 32 -20 3 -13 14 -20 30 -20
24 0 57 -27 57 -48 0 -24 44 -53 72 -47 20 5 37 -1 65 -19 30 -21 49 -26 100
-26 42 0 63 4 63 12 0 6 7 19 15 28 23 25 93 11 118 -24 10 -14 27 -26 37 -26
11 0 24 -8 29 -17 12 -23 18 -365 7 -420 -7 -36 -6 -44 13 -59 24 -21 26 -41
6 -68 -8 -11 -15 -34 -15 -52 0 -19 -6 -34 -15 -38 -8 -3 -15 -15 -15 -26 0
-30 -18 -60 -35 -60 -31 0 -54 -37 -48 -74 4 -29 2 -37 -13 -43 -42 -15 -38
-46 7 -62 29 -10 29 -11 29 -84 0 -54 4 -78 15 -87 8 -7 15 -20 15 -29 0 -9 9
-24 20 -34 11 -9 20 -26 20 -38 0 -25 17 -59 30 -59 6 0 18 -8 28 -18 10 -9
27 -22 37 -28 13 -7 18 -21 17 -47 -1 -27 4 -41 18 -50 12 -7 20 -23 20 -38 0
-33 15 -39 69 -32 23 3 52 1 64 -5 12 -6 56 -12 99 -14 55 -2 82 -8 95 -21 29
-25 53 -22 53 8 0 21 5 25 28 25 16 0 37 7 48 15 28 22 41 18 52 -14 6 -16 22
-37 36 -46 40 -27 33 -75 -12 -90 l-23 -7 3 -205 3 -205 27 -20 c16 -11 28
-25 28 -32 0 -7 13 -24 29 -39 26 -22 29 -31 24 -62 -4 -28 -2 -35 11 -35 11
0 16 -9 16 -29 0 -27 3 -30 38 -33 36 -3 37 -4 40 -47 3 -33 8 -44 23 -48 10
-3 19 -14 19 -25 0 -27 18 -58 35 -58 19 0 23 -20 13 -58 -11 -39 -3 -103 19
-149 8 -18 16 -54 17 -79 1 -29 8 -51 18 -58 9 -7 19 -30 23 -51 9 -52 31 -85
55 -85 25 0 41 -31 38 -73 -1 -23 5 -41 20 -57 12 -13 22 -35 22 -48 0 -43 30
-92 55 -92 15 0 26 -8 30 -20 3 -11 14 -20 23 -20 10 0 28 -7 40 -16 31 -22
37 -13 12 19 -29 37 -26 80 9 120 33 37 94 61 121 47 9 -5 29 -25 44 -45 27
-35 27 -37 10 -56 -10 -11 -24 -17 -31 -14 -8 2 -12 1 -8 -4 3 -5 -9 -20 -27
-32 -18 -13 -36 -28 -40 -34 -11 -16 16 -36 55 -40 31 -3 37 1 53 30 21 40 59
57 48 22 -3 -12 -12 -29 -19 -37 -12 -13 -5 -15 50 -17 56 -2 65 0 70 17 6 19
17 25 39 21 5 -1 26 5 46 13 36 14 39 14 59 -8 l22 -24 39 19 c22 11 43 19 47
19 4 0 28 -16 52 -35 24 -19 48 -35 52 -35 5 0 29 12 54 26 66 36 89 30 93
-23 2 -29 8 -43 17 -43 16 0 45 49 45 75 0 11 11 15 40 15 38 0 40 -2 40 -31
0 -29 1 -30 43 -27 42 3 42 3 47 48 5 46 5 46 51 33 10 -3 18 3 22 16 3 15 13
21 31 21 22 0 26 -4 26 -29 0 -40 9 -61 26 -61 8 0 20 -11 26 -25 13 -28 17
-30 52 -13 21 9 29 8 44 -5 14 -13 37 -17 90 -17 51 0 75 -4 86 -16 27 -27 20
-44 -19 -44 -29 0 -35 -4 -35 -21 0 -19 4 -21 41 -16 34 4 45 1 73 -24 19 -16
39 -29 46 -29 21 0 49 -44 50 -80 1 -36 48 -131 68 -138 6 -2 14 9 17 25 4 15
11 38 17 50 6 12 8 33 4 47 -8 33 12 66 40 66 22 0 34 -17 34 -51 0 -21 59
-62 117 -82 28 -10 42 -24 68 -72 32 -56 36 -60 77 -66 33 -4 52 0 85 18 l42
23 32 -35 c35 -38 68 -45 90 -19 10 12 10 22 2 45 -10 26 -9 32 14 55 20 20
24 31 19 58 -7 36 4 49 64 78 89 42 104 32 108 -69 4 -111 8 -123 37 -123 14
0 25 5 25 10 0 16 22 12 36 -8 17 -21 18 -64 2 -80 -7 -7 -24 -12 -39 -12 -32
0 -40 -22 -32 -90 5 -41 3 -48 -14 -52 -31 -8 -41 -108 -15 -145 10 -16 22
-36 25 -46 5 -12 15 -16 39 -15 32 3 32 2 29 -35 -2 -34 0 -38 28 -48 17 -6
33 -19 36 -30 4 -10 10 -19 15 -19 5 0 15 -3 23 -6 16 -6 73 48 83 79 8 24 29
21 42 -7 6 -14 21 -26 34 -28 18 -2 25 -13 34 -57 7 -29 17 -58 23 -64 15 -15
14 -96 -2 -127 -8 -16 -32 -33 -66 -46 -29 -12 -57 -28 -62 -35 -17 -26 -9
-59 20 -87 16 -15 32 -40 35 -55 3 -15 8 -38 11 -51 4 -21 15 -26 85 -42 74
-16 80 -19 80 -42 0 -13 -9 -39 -20 -56 -14 -24 -17 -40 -11 -62 11 -44 43
-44 70 1 16 28 26 35 39 30 9 -3 29 -9 44 -12 37 -7 79 -85 60 -110 -23 -33
-25 -45 -14 -77 7 -18 12 -60 12 -94 0 -49 3 -62 18 -65 34 -10 86 -5 106 9
25 17 53 18 58 2 4 -10 10 -10 32 0 36 16 56 2 57 -42 0 -25 9 -37 45 -64 47
-34 91 -42 100 -17 10 26 41 17 54 -16 17 -40 95 -99 131 -99 27 0 29 -3 29
-37 0 -23 7 -45 20 -58 l20 -22 -25 -27 c-28 -30 -30 -39 -15 -67 16 -30 97
-27 131 5 30 28 33 26 79 -34 19 -25 39 -48 44 -51 5 -4 5 -24 2 -44 -5 -27
-4 -40 6 -46 28 -18 52 -7 100 43 l48 51 40 -31 c50 -41 79 -42 86 -4 3 16 19
37 35 47 16 11 29 23 29 28 0 4 20 7 44 7 42 0 76 18 76 41 0 5 23 20 52 32
l52 23 -23 21 c-17 15 -20 27 -15 47 6 25 5 26 -44 26 -32 0 -54 5 -62 15 -7
8 -25 15 -41 15 -16 0 -29 5 -29 10 0 6 -12 15 -26 20 -24 9 -26 14 -21 47 4
20 18 49 33 64 19 20 25 34 21 51 -8 31 2 44 47 63 26 11 42 26 52 50 11 28
21 35 55 42 37 7 43 13 59 53 18 44 28 50 70 39 8 -2 19 6 25 18 5 13 13 23
17 23 3 0 16 16 28 35 17 27 32 38 66 46 52 13 55 27 14 54 -34 22 -40 58 -15
91 19 25 19 61 0 114 -21 60 -19 175 4 242 19 57 40 99 54 109 11 8 27 69 27
105 0 19 -8 38 -21 50 -12 10 -28 32 -36 49 -9 16 -22 34 -29 38 -19 11 -18
87 1 123 23 44 19 71 -10 78 -15 4 -27 16 -31 31 -8 33 -28 32 -40 -2 -8 -24
-14 -26 -62 -28 -44 -2 -56 2 -68 19 -18 26 -18 50 0 84 23 45 46 102 46 115
0 7 14 30 30 51 17 22 30 45 30 52 0 7 -18 20 -39 30 -22 9 -42 25 -44 36 -4
13 -15 18 -41 18 -30 0 -37 4 -42 27 -4 14 -2 40 5 58 6 17 11 39 11 48 0 8
14 25 30 37 17 12 30 30 30 40 0 10 22 41 49 70 l49 53 54 -7 c64 -8 75 1 104
82 22 62 12 76 -44 66 -27 -5 -38 -2 -62 21 -23 22 -31 25 -48 16 -31 -16 -41
-14 -48 13 -8 33 4 66 24 66 13 0 13 2 -3 14 -12 8 -18 25 -17 46 0 18 -7 44
-17 56 -20 26 -17 76 6 96 13 10 18 9 33 -9 12 -15 27 -21 46 -20 26 2 29 -1
32 -33 5 -44 18 -60 51 -60 18 0 30 -7 36 -22 6 -13 21 -28 34 -35 22 -10 27
-8 52 18 15 16 34 29 43 29 21 0 36 31 36 75 0 29 8 45 36 73 34 34 36 41 38
101 1 83 21 100 66 56 29 -28 32 -28 63 -16 55 23 72 23 96 4 23 -19 23 -20 6
-52 -12 -24 -16 -51 -13 -95 3 -55 1 -61 -17 -61 -11 0 -26 -4 -32 -8 -18 -11
-16 -62 2 -77 22 -18 101 -7 129 19 12 11 30 21 39 21 19 0 23 -26 5 -32 -7
-3 -13 -18 -14 -34 -2 -44 -2 -44 -28 -44 -13 0 -36 -10 -51 -22 -27 -21 -29
-21 -57 -5 -35 20 -79 24 -60 5 22 -22 12 -38 -29 -44 -29 -5 -44 -13 -51 -30
-13 -27 -2 -94 15 -94 7 0 25 -11 41 -25 22 -19 33 -22 47 -15 27 15 48 12 75
-9 21 -16 39 -19 104 -18 54 2 84 7 97 18 41 35 60 31 97 -23 l15 -21 48 24
c27 14 54 37 61 52 7 15 24 35 38 43 13 9 24 22 24 29 0 26 26 35 81 27 46 -6
56 -11 68 -36 11 -24 11 -33 1 -49 -10 -17 -8 -23 19 -48 37 -33 37 -34 11
-66 -18 -23 -18 -27 -4 -48 9 -14 29 -26 52 -30 70 -12 68 -8 70 -98 2 -53 -3
-98 -12 -124 l-14 -41 37 -41 c29 -32 44 -41 70 -41 34 0 50 11 69 47 9 15 9
24 1 28 -6 4 -8 14 -5 22 3 8 2 12 -3 9 -8 -5 -17 4 -83 86 -34 41 -36 47 -22
59 14 12 20 9 40 -16 12 -16 20 -33 17 -38 -3 -6 -1 -7 5 -3 16 10 105 -110
97 -133 -10 -31 -75 -92 -106 -98 -35 -7 -45 -4 -41 11 2 7 -1 6 -10 -2 -10
-10 -22 -3 -63 40 -78 81 -111 108 -134 108 -12 0 -21 -3 -21 -7 0 -5 -4 -24
-9 -44 -6 -27 -5 -36 5 -36 7 0 11 4 8 9 -12 18 44 6 62 -14 10 -12 14 -19 8
-15 -6 3 -11 0 -11 -8 0 -8 5 -12 10 -8 10 6 127 -105 127 -120 0 -5 -6 -4
-14 2 -11 9 -16 9 -22 0 -4 -8 -3 -9 4 -5 7 4 12 3 12 -3 0 -5 -4 -12 -9 -15
-11 -7 -63 52 -56 65 4 5 2 8 -4 7 -6 -2 -32 20 -57 47 -26 28 -43 44 -39 36
6 -9 4 -12 -4 -7 -15 10 -52 -3 -50 -17 1 -7 -1 -19 -5 -28 -4 -8 0 -28 8 -44
8 -16 13 -32 10 -36 -2 -4 4 -10 15 -14 26 -8 64 -45 77 -74 14 -34 -12 -90
-46 -98 -49 -12 -66 -47 -35 -73 8 -7 15 -20 15 -29 0 -27 16 -43 51 -50 32
-6 34 -10 40 -56 8 -68 4 -74 -44 -72 -41 2 -42 1 -40 -28 2 -19 -5 -38 -19
-52 -31 -33 -48 -29 -48 10 0 33 -1 33 -42 33 -32 -1 -44 -5 -46 -18 -6 -32
-55 -22 -89 17 -35 39 -59 45 -68 15 -4 -12 -15 -20 -28 -20 -20 0 -22 -5 -23
-60 -1 -42 -6 -66 -18 -79 -15 -16 -15 -23 -5 -43 7 -12 15 -30 19 -38 4 -8
19 -16 33 -18 20 -2 27 -10 29 -30 3 -23 8 -27 33 -26 17 0 37 2 45 5 11 3 14
-2 12 -18 -2 -16 2 -23 12 -23 9 0 16 -6 16 -14 0 -9 7 -12 20 -9 15 4 20 -1
25 -23 11 -50 15 -56 32 -52 15 3 18 14 18 55 -1 44 2 53 22 62 27 12 29 32 7
66 -18 27 -14 40 15 48 21 5 71 -32 71 -53 0 -5 7 -10 15 -10 8 0 15 6 15 14
0 11 13 13 60 10 48 -3 62 -1 66 11 4 8 10 15 15 15 14 0 99 61 99 71 0 5 -7
12 -15 15 -9 4 -15 19 -15 35 0 19 -5 29 -14 29 -8 0 -17 9 -21 20 -8 26 24
69 52 70 27 0 73 44 73 70 0 16 7 20 30 20 25 0 30 4 30 25 0 14 7 28 15 32
14 5 14 8 -2 25 -14 15 -15 22 -5 36 7 9 16 27 22 40 5 12 14 22 20 22 13 0
13 77 0 85 -14 9 -3 24 26 35 34 13 52 3 66 -37 10 -27 17 -33 33 -29 11 3 26
6 33 6 6 0 12 6 12 14 0 30 64 35 80 6 6 -12 21 -20 36 -20 13 0 27 -7 30 -15
8 -19 28 -19 44 0 10 12 16 13 26 4 8 -6 14 -9 14 -6 0 2 17 -2 38 -10 20 -7
45 -16 54 -19 10 -4 20 -15 23 -25 8 -23 41 -25 49 -3 3 9 6 27 6 41 0 30 30
81 70 122 35 34 50 25 50 -33 0 -57 24 -119 49 -131 11 -5 21 -18 21 -29 0
-15 5 -17 28 -12 53 13 67 11 76 -11 15 -32 96 -42 96 -12 0 6 9 5 20 -1 18
-10 20 -8 20 17 1 31 31 73 52 73 30 0 27 14 -12 52 -22 22 -40 45 -40 53 0 7
-7 18 -15 25 -8 7 -15 29 -15 50 0 30 -4 37 -17 36 -12 0 -16 5 -14 14 2 8 3
66 2 129 -1 101 -4 115 -22 130 -21 17 -38 94 -23 104 5 2 24 8 42 12 26 5 32
3 32 -9 0 -9 11 -21 25 -26 14 -5 25 -16 25 -25 0 -8 5 -15 10 -15 6 0 10 -6
10 -13 0 -23 21 -37 41 -27 11 6 20 6 23 1 10 -16 65 11 68 33 2 13 15 24 36
30 25 7 32 14 32 35 0 14 7 35 15 45 23 30 19 122 -6 162 -11 19 -27 34 -35
34 -8 0 -14 6 -15 13 -1 21 -87 77 -120 77 -26 0 -30 3 -27 23 2 17 -1 21 -17
19 -11 -2 -35 -6 -53 -9 -41 -7 -72 18 -72 57 0 15 -7 33 -15 40 -11 9 -12 16
-2 31 10 15 24 19 74 19 l62 0 3 42 c2 35 -2 46 -26 70 -18 19 -26 35 -23 48
3 13 0 20 -9 20 -8 0 -14 4 -14 9 0 5 -11 19 -25 32 -13 13 -25 29 -25 35 0
14 63 74 78 74 7 0 12 6 12 14 0 8 10 22 22 30 12 9 16 16 9 16 -8 0 -11 6 -7
16 3 8 2 13 -3 10 -10 -7 -21 16 -21 43 0 46 85 98 132 82 23 -8 9 -28 -21
-32 -13 -2 -33 -16 -45 -32 -17 -23 -19 -32 -9 -57 8 -21 8 -30 -1 -34 -6 -2
-1 -5 12 -5 13 -1 32 3 42 9 10 5 55 12 101 15 93 6 103 10 90 33 -6 11 -4 20
7 30 15 11 14 12 -5 2 -20 -9 -27 -4 -70 51 -26 33 -74 86 -105 116 -52 50
-56 57 -41 69 15 10 21 8 42 -14 94 -105 125 -133 137 -128 9 4 13 14 9 28
-14 64 -12 117 5 133 16 15 18 12 24 -49 3 -35 4 -70 1 -78 -4 -10 10 -17 55
-27 33 -8 63 -18 66 -22 3 -5 21 -9 39 -9 28 0 37 -6 50 -30 8 -16 15 -38 15
-50 0 -11 6 -20 13 -20 22 0 40 18 34 34 -3 8 0 21 7 28 7 7 21 34 30 60 10
26 27 55 37 64 23 21 25 60 4 68 -9 3 -15 14 -13 23 2 12 -3 18 -17 18 -22 0
-33 37 -34 112 -1 23 -5 45 -11 48 -5 3 -10 25 -10 49 0 73 -67 107 -89 46 -7
-22 -16 -30 -33 -30 -26 0 -54 -35 -37 -45 11 -8 3 -63 -13 -83 -6 -7 -16 -11
-22 -10 -6 1 -20 -3 -32 -9 -16 -9 -36 -8 -90 6 -56 14 -74 15 -94 5 -53 -26
-77 -33 -126 -39 -44 -6 -58 -2 -109 24 -59 31 -85 38 -85 24 0 -5 -7 -16 -14
-25 -11 -15 -17 -16 -38 -6 -14 7 -30 25 -36 41 -9 23 -15 28 -29 22 -72 -30
-70 -30 -107 -1 -20 15 -36 33 -36 41 0 8 -9 19 -21 26 -15 8 -20 18 -16 35 3
16 -1 28 -11 33 -11 6 -15 21 -14 46 2 21 -4 48 -13 61 -8 13 -15 32 -15 44 0
14 -7 20 -21 20 -22 0 -23 18 -5 62 5 11 1 18 -14 23 -17 6 -20 12 -15 36 5
22 3 29 -8 29 -22 0 -28 25 -11 48 13 19 12 23 -8 41 l-22 21 22 23 c12 13 22
26 22 30 0 4 9 16 20 27 16 16 20 33 20 85 0 59 2 67 23 76 13 6 31 24 41 40
9 16 23 29 31 29 7 0 23 12 35 28 18 23 31 28 83 32 60 5 62 6 71 39 7 24 19
37 38 45 15 6 28 18 28 27 0 9 9 24 21 35 13 12 19 27 16 41 -2 14 3 29 14 39
11 10 19 23 19 29 0 36 58 115 84 115 13 0 35 14 49 30 15 17 33 30 40 31 32
2 51 9 71 27 11 10 40 28 62 38 23 10 50 31 60 47 11 15 37 36 60 47 22 11 49
28 60 38 10 10 39 29 62 42 43 24 72 63 72 95 0 8 3 15 8 16 30 3 47 10 51 20
9 28 55 59 87 59 26 0 34 4 34 18 0 26 32 53 49 42 18 -11 41 -2 41 16 0 7 11
16 25 20 14 3 25 12 25 20 0 19 40 44 72 44 18 0 28 5 28 15 0 8 6 15 13 16 6
0 26 2 42 2 25 2 31 7 33 32 5 37 19 55 43 55 23 0 79 59 79 83 0 10 7 20 15
23 8 4 15 13 15 20 0 30 34 53 77 51 45 -1 73 15 73 44 0 11 3 19 8 20 84 6
94 5 103 -13 5 -10 19 -18 29 -18 17 0 20 7 20 41 0 22 6 47 14 55 10 9 13 26
9 49 -6 38 3 43 39 24 18 -10 25 -8 40 11 11 14 16 30 12 42 -7 24 20 47 55
48 24 0 24 0 5 15 -10 8 -27 15 -37 15 -21 0 -34 27 -19 42 7 7 17 6 31 -1 17
-10 21 -9 21 4 0 15 10 19 42 16 12 -2 16 3 12 13 -3 9 -10 16 -15 16 -5 0 -9
7 -9 15 0 9 -13 18 -31 22 -16 3 -46 21 -65 40 l-35 34 -27 -30 c-41 -44 -52
-59 -52 -72 0 -7 -9 -9 -27 -5 -30 8 -43 -5 -43 -45 0 -15 -7 -33 -16 -40 -14
-11 -20 -10 -40 14 -13 16 -24 37 -24 48 0 10 -7 19 -15 19 -8 0 -15 5 -15 10
0 23 -28 7 -50 -30 -14 -22 -30 -40 -37 -40 -6 0 -35 24 -63 53 l-52 52 -15
-22 c-12 -18 -25 -23 -59 -23 -43 0 -44 -1 -50 -39 -5 -33 -11 -40 -35 -45
-16 -3 -29 -12 -29 -20 0 -19 -24 -27 -61 -19 -24 4 -34 2 -41 -10 -6 -12 -23
-17 -57 -17 -55 0 -61 -7 -61 -75 0 -24 -3 -50 -6 -59 -21 -54 -72 36 -74 131
-2 82 -3 80 30 92 17 5 30 17 30 25 0 16 59 66 78 66 7 0 12 -6 12 -14 0 -7 6
-18 13 -24 9 -8 25 0 60 31 26 23 47 48 47 56 0 10 9 12 35 8 27 -5 35 -2 40
13 5 16 10 17 36 8 49 -17 58 4 19 42 -31 30 -35 31 -113 30 -114 -2 -110 -3
-104 20 3 13 -2 27 -13 38 -20 19 -21 83 -1 90 6 2 11 10 11 17 0 8 9 19 20
25 15 8 19 17 14 35 -6 22 -3 25 24 25 28 0 30 3 36 49 8 61 2 76 -38 95 -60
28 -86 80 -38 75 33 -3 42 1 42 19 0 18 -37 45 -56 41 -33 -6 -68 4 -89 27
-20 21 -31 25 -60 22 -31 -4 -35 -2 -35 20 0 16 -7 26 -20 29 -15 4 -19 11
-14 25 4 13 1 24 -7 29 -8 5 -14 16 -15 26 -1 10 -2 30 -3 46 -1 20 -6 27 -21
27 -10 0 -31 11 -45 25 -21 22 -25 35 -25 85 0 52 -2 60 -19 60 -17 0 -19 6
-16 43 2 32 8 44 24 52 18 8 21 16 17 39 -3 16 -6 41 -6 57 0 22 -5 29 -20 29
-11 0 -20 3 -21 8 0 4 -2 42 -4 85 -2 44 -6 81 -9 85 -3 3 -14 -2 -24 -11 -10
-10 -23 -17 -28 -17 -5 0 -15 -14 -23 -31 -13 -29 -14 -29 -32 -13 -10 9 -19
23 -19 31 0 22 -66 17 -83 -7 -16 -23 -61 -22 -97 3 -21 15 -24 14 -51 -16
-16 -17 -29 -36 -29 -42 0 -5 18 -18 40 -28 64 -30 46 -57 -38 -57 -28 0 -35
-5 -54 -44 -22 -46 -52 -60 -94 -46 -18 7 -20 13 -24 104 -1 11 8 32 20 47 15
21 20 43 20 85 0 42 4 60 17 69 15 11 16 16 4 38 -11 20 -11 28 1 46 11 19 11
24 -6 36 -13 10 -17 21 -12 38 4 17 1 27 -9 31 -22 8 -19 59 5 89 13 16 16 28
10 32 -14 9 -12 42 3 52 36 23 38 103 3 103 -9 0 -18 11 -22 25 -3 14 -17 34
-30 44 -13 11 -24 29 -24 43 0 54 -51 64 -95 19 -24 -26 -27 -36 -22 -70 4
-34 2 -41 -12 -41 -9 0 -21 -10 -26 -22 -11 -23 -17 -25 -46 -13 -9 3 -23 -1
-32 -9 -9 -9 -19 -16 -24 -16 -12 0 -39 -67 -59 -147 -17 -71 -18 -72 -46 -66
-21 4 -28 2 -28 -11 0 -23 -52 -21 -73 2 -10 10 -17 31 -17 45 0 15 -3 27 -7
28 -23 2 -57 10 -61 14 -3 2 3 16 12 30 16 24 16 26 -9 49 -29 27 -32 41 -10
50 8 3 15 11 15 18 0 10 -3 9 -9 -1 -6 -9 -16 -11 -27 -6 -18 7 -18 8 1 15 16
7 14 8 -11 8 -36 -1 -76 23 -94 57 -16 30 -26 25 -45 -22 -16 -38 -7 -63 22
-63 10 0 13 -8 9 -31 -2 -17 -2 -28 1 -25 4 3 12 1 19 -5 16 -13 76 -30 69
-19 -11 18 13 19 29 1 15 -16 15 -18 -6 -29 -50 -24 -75 -23 -107 4 -17 14
-31 21 -31 14 0 -6 12 -22 27 -35 26 -21 27 -24 12 -42 -9 -10 -14 -24 -12
-31 6 -17 -58 -42 -88 -35 -27 6 -71 42 -64 52 2 4 -5 12 -16 19 -17 11 -21 9
-31 -13 -6 -14 -17 -25 -25 -25 -18 0 -16 -7 7 -32 10 -12 17 -26 13 -31 -3
-6 -1 -7 5 -3 6 3 20 -5 31 -20 16 -21 18 -29 8 -44 -8 -14 -13 -16 -19 -7 -4
7 -6 -21 -4 -61 2 -42 10 -82 19 -96 18 -27 6 -46 -27 -46 -31 0 -47 14 -66
54 l-16 36 -30 -25 c-32 -27 -40 -30 -49 -15 -10 17 -23 11 -18 -8 2 -10 -3
-24 -11 -31 -13 -11 -17 -11 -22 3 -3 9 -14 16 -24 16 -10 0 -23 12 -30 29 -6
16 -20 37 -31 47 -10 9 -19 23 -19 30 0 7 -12 14 -27 16 -17 2 -27 8 -25 16 1
8 -2 11 -8 7 -6 -4 -9 -10 -6 -13 3 -3 -3 -11 -14 -19 -44 -31 -43 -48 5 -108
25 -30 43 -55 41 -55 -3 0 6 -12 20 -27 23 -24 23 -27 8 -44 -9 -10 -20 -16
-25 -14 -4 3 -25 33 -45 68 -21 34 -42 65 -47 68 -5 4 -6 12 -2 19 5 8 4 11
-2 7 -6 -4 -30 19 -54 50 -61 79 -62 82 -48 99 10 13 14 12 31 -3 10 -9 16
-23 14 -30 -3 -7 -1 -12 4 -10 5 1 16 -7 24 -18 15 -20 16 -19 41 12 17 21 48
40 95 58 39 15 67 31 64 36 -11 18 -12 64 -2 76 6 7 8 24 4 37 -9 35 16 53 51
37 21 -10 28 -9 34 1 13 19 11 42 -4 63 -14 18 -37 18 -124 0 -31 -7 -33 -6
-33 22 0 35 16 53 47 53 12 0 27 9 33 19 5 11 26 25 46 31 36 12 36 13 32 59
-5 52 -36 102 -74 119 -12 6 -30 25 -39 42 -8 16 -21 30 -29 30 -20 0 -46 34
-46 59 0 37 -18 61 -48 61 -15 0 -37 11 -50 24 -12 13 -39 28 -60 33 -37 9
-37 9 -40 66 -3 48 -6 57 -21 57 -11 0 -21 7 -25 15 -3 10 -19 15 -44 15 -31
0 -44 6 -68 34 -28 32 -30 36 -17 60 17 32 11 42 -25 51 -68 15 -128 109 -115
179 3 14 -1 34 -8 43 -10 11 -14 49 -14 133 0 94 -3 122 -16 136 -10 12 -16
37 -16 67 0 42 3 47 23 47 19 0 24 7 30 36 7 40 -7 58 -39 50 -34 -8 -47 4
-47 46 0 34 -4 40 -30 49 -32 12 -36 23 -20 63 11 30 4 56 -15 56 -25 0 -27
20 -4 56 21 34 21 37 5 70 -9 19 -16 48 -16 65 0 40 -22 34 -34 -10 -13 -46
-31 -32 -34 27 -2 29 -6 52 -9 52 -28 0 -84 -38 -92 -62 -9 -24 -14 -27 -40
-22 -26 5 -32 3 -40 -17 -9 -24 -9 -24 -21 9 -7 17 -15 32 -19 32 -17 0 -76
-24 -82 -33 -4 -5 -17 6 -29 25 -34 49 -49 58 -100 58 -32 0 -53 6 -68 20 -19
18 -21 27 -15 85 7 72 5 73 -51 50 -20 -8 -36 -12 -36 -8 0 5 -7 17 -15 28
-15 19 -16 18 -45 -14 -17 -18 -30 -36 -30 -41 0 -15 -33 -21 -92 -14 -42 5
-62 3 -74 -7 -20 -17 -81 -38 -89 -31 -3 3 -5 16 -5 28 0 22 -26 52 -80 93
-25 19 -25 20 -10 63 11 30 26 50 53 68 l38 24 -5 61 c-3 33 -5 61 -6 62 0 0
-8 -1 -19 -4 -17 -4 -18 0 -13 43 3 27 11 55 19 62 9 10 13 45 13 123 0 100
-2 109 -19 109 -10 0 -24 -7 -31 -15 -15 -18 -37 -19 -70 -2 -22 11 -26 20
-30 80 -4 61 -3 68 13 63 10 -2 17 2 17 11 0 12 7 14 35 9 l35 -7 0 51 c0 37
-4 50 -15 50 -16 0 -38 34 -28 44 3 3 15 6 25 6 24 0 23 17 -1 30 -27 14 -85
12 -156 -5 -90 -22 -157 -20 -173 5 -11 18 -23 20 -131 20 -112 0 -119 -1
-134 -22 -14 -22 -20 -23 -128 -21 -77 2 -115 7 -121 15 -11 18 -10 66 2 73 6
3 10 19 10 36 0 24 4 29 25 29 27 0 32 9 15 26 -8 8 -6 15 5 24 8 7 15 20 15
29 0 9 14 36 30 61 34 51 37 72 14 94 -23 23 -29 21 -68 -28z m2417 -3885 c4
-15 -2 -22 -26 -30 -34 -12 -62 -46 -63 -77 -1 -16 5 -20 25 -19 14 1 36 7 49
14 12 6 22 9 22 6 0 -3 8 -1 18 4 23 12 64 3 55 -12 -4 -6 -1 -7 7 -2 15 9 30
-11 30 -43 0 -26 -29 -82 -43 -82 -4 0 -5 5 -1 12 4 7 3 8 -5 4 -6 -4 -9 -12
-6 -17 3 -5 -9 -18 -27 -29 -38 -23 -52 -25 -43 -7 4 6 0 4 -8 -6 -14 -17 -15
-16 -20 3 -7 28 37 47 62 28 14 -12 14 -11 2 5 -8 10 -9 17 -3 17 6 0 20 10
32 22 45 49 8 90 -57 62 -61 -26 -87 -26 -113 1 -41 43 -12 109 65 149 38 20
42 20 48 -3z m-5373 -1916 c6 -7 13 -21 14 -30 1 -9 13 -22 27 -28 37 -19 37
-59 -1 -91 -17 -14 -40 -26 -50 -26 -24 0 -49 36 -43 61 4 13 0 19 -10 19 -20
0 -41 36 -33 56 5 13 63 54 77 54 4 0 12 -7 19 -15z m-103 -143 c37 -49 41
-71 16 -100 -20 -24 -73 -40 -73 -23 0 6 8 11 17 11 19 0 53 28 53 45 0 28
-22 32 -46 8 -25 -24 -51 -25 -81 -1 -22 18 -16 75 10 93 35 25 67 15 104 -33z
m-518 -406 c52 -62 60 -75 44 -77 -5 0 -14 -11 -21 -25 -19 -35 -54 -31 -91
11 -17 20 -31 40 -31 45 0 14 38 50 52 50 7 0 6 6 -4 18 -25 29 -30 42 -16 42
7 0 37 -29 67 -64z m5616 -933 c5 -18 15 -33 22 -33 11 0 43 -37 43 -51 0 -4
-12 -21 -26 -38 -32 -38 -75 -42 -98 -9 -9 12 -16 30 -16 40 0 9 -9 22 -20 28
-28 15 -27 64 3 85 12 9 36 14 52 13 24 -2 32 -9 40 -35z m-160 -59 c24 -10
75 -89 75 -118 0 -14 -9 -35 -20 -46 -24 -24 -80 -27 -80 -5 0 8 9 15 19 15
32 0 51 11 51 29 0 28 -10 31 -31 10 -27 -27 -64 -24 -89 8 -42 54 11 131 75
107z m-366 -390 c12 -15 21 -38 21 -51 0 -29 -41 -73 -69 -73 -21 0 -71 53
-71 75 0 24 51 75 75 75 14 0 32 -11 44 -26z m-130 -100 l53 -65 -37 -35 c-44
-41 -63 -43 -98 -6 -34 36 -34 66 0 98 20 19 24 27 15 36 -7 7 -12 18 -12 25
0 29 29 10 79 -53z m-3764 -346 c-3 -18 -2 -56 3 -85 5 -29 6 -54 3 -56 -3 -2
0 -2 8 0 14 4 102 -19 154 -39 22 -8 25 -13 16 -24 -15 -18 -43 -17 -104 5
-31 11 -49 23 -47 32 1 8 -4 6 -13 -5 -21 -27 -20 -31 22 -76 32 -36 35 -43
21 -56 -13 -13 -20 -9 -59 34 -106 117 -144 163 -141 173 1 6 -2 8 -7 4 -6 -3
-17 7 -25 22 -8 15 -15 24 -16 20 0 -4 -9 1 -21 12 -22 20 -19 41 6 41 7 0 23
-12 34 -26 11 -15 41 -49 66 -76 25 -27 42 -54 39 -60 -4 -6 2 -6 14 1 19 10
20 17 15 81 -5 59 -3 73 12 90 24 27 27 25 20 -12z m-155 -189 c0 -15 -5 -19
-18 -14 -11 3 -29 -3 -44 -14 -14 -11 -27 -18 -30 -16 -2 3 -2 -13 1 -35 8
-50 76 -126 120 -132 17 -2 28 -1 26 3 -3 4 2 9 10 12 8 4 18 21 23 39 11 42
42 51 42 13 0 -39 -25 -79 -62 -99 -30 -16 -37 -17 -69 -3 -37 15 -104 89 -91
101 4 4 1 6 -7 4 -9 -2 -19 9 -25 27 -6 17 -15 33 -20 37 -15 10 14 58 46 78
16 9 44 17 63 18 29 1 35 -2 35 -19z m-497 -283 c-3 -6 -2 -8 2 -3 5 4 17 0
27 -10 17 -15 20 -15 41 6 23 21 24 21 41 2 15 -17 15 -19 1 -25 -11 -4 -14
-2 -9 7 4 6 4 9 0 5 -4 -3 -8 -10 -8 -15 0 -4 -4 -13 -10 -20 -6 -8 -4 -19 6
-36 9 -13 13 -27 9 -32 -5 -4 -3 -5 3 -2 13 7 85 -68 76 -80 -4 -4 -1 -3 7 4
7 6 19 9 26 7 7 -3 16 0 20 6 5 8 11 8 21 -1 22 -18 17 -29 -21 -45 -28 -11
-40 -12 -58 -3 -19 10 -81 69 -73 69 2 0 -11 16 -29 36 -19 20 -38 33 -45 29
-6 -4 -17 -1 -26 5 -11 10 -12 16 -3 27 10 11 6 20 -15 42 -21 22 -26 35 -21
51 6 20 8 21 26 4 10 -9 16 -22 12 -28z m6762 -22 c21 14 29 15 41 5 13 -10
12 -15 -6 -34 -27 -28 -25 -38 10 -78 30 -34 39 -54 20 -42 -6 3 -7 -1 -3 -10
4 -11 8 -13 13 -5 5 8 11 6 20 -5 14 -17 70 -21 70 -3 0 6 9 3 21 -8 l21 -19
-22 -17 c-45 -37 -95 -16 -160 67 -31 38 -50 54 -62 51 -22 -5 -41 18 -34 42
4 11 -2 28 -14 42 -20 23 -26 51 -14 63 4 3 21 -10 39 -30 33 -37 33 -37 60
-19z m-6798 -128 c-4 -9 -10 -15 -14 -14 -18 6 -55 -32 -62 -64 -8 -32 -6 -34
21 -36 15 -1 46 7 68 18 42 21 75 27 65 10 -3 -5 0 -7 8 -4 20 7 47 -33 47
-71 0 -36 -35 -75 -95 -104 -41 -20 -55 -19 -55 2 0 16 77 60 90 52 6 -4 9 -3
8 2 -1 4 1 18 6 30 16 47 -21 72 -69 46 -11 -6 -23 -12 -27 -12 -4 -1 -15 -4
-24 -8 -25 -9 -67 10 -83 38 -12 22 -13 31 -1 59 24 58 139 113 117 56z m6676
-24 c-13 -7 -29 -10 -36 -6 -6 4 -9 4 -5 -1 4 -4 -1 -20 -11 -34 -14 -19 -17
-31 -10 -44 13 -22 40 -22 95 4 48 21 81 21 76 0 -1 -7 2 -10 7 -7 5 3 16 -5
25 -19 19 -29 20 -39 4 -29 -10 6 -10 4 -2 -7 24 -29 -21 -85 -90 -114 -32
-14 -40 -14 -47 -3 -14 21 -10 31 8 24 10 -4 14 -4 10 0 -7 8 64 55 73 49 3
-2 7 12 8 31 3 45 -16 52 -77 30 -61 -22 -86 -20 -111 6 -43 47 -12 121 65
154 26 11 31 10 36 -4 4 -12 -1 -21 -18 -30z m-301 -231 c13 -5 36 -25 51 -45
l28 -36 -71 -51 c-38 -28 -70 -54 -70 -57 0 -2 9 -13 21 -22 33 -29 109 0 109
41 0 14 7 19 25 19 24 0 25 -1 12 -32 -16 -39 -81 -87 -118 -88 -27 0 -56 26
-108 99 -24 34 -28 47 -19 53 9 5 9 8 1 8 -28 0 3 67 45 95 40 27 58 30 94 16z
m-319 -135 c-4 -5 -1 -6 5 -2 6 3 13 2 17 -4 9 -15 36 -12 57 7 17 15 21 15
29 3 6 -11 2 -21 -16 -37 -14 -12 -25 -26 -25 -32 0 -5 21 -34 46 -65 38 -47
50 -56 75 -54 16 1 29 7 29 12 0 6 5 5 11 -1 16 -16 3 -47 -17 -39 -8 3 -13 2
-10 -3 3 -5 -7 -11 -22 -14 -35 -7 -97 37 -87 61 3 9 3 13 -1 9 -9 -9 -45 33
-38 44 3 5 -6 9 -20 9 -24 0 -106 -62 -106 -79 0 -4 19 -29 42 -55 38 -42 46
-47 80 -45 50 4 69 -14 37 -34 -34 -21 -83 -31 -73 -16 5 8 3 9 -6 4 -13 -8
-38 18 -87 88 -20 29 -31 36 -46 31 -28 -9 -40 16 -19 40 9 11 12 17 6 13 -16
-9 -35 39 -26 63 7 20 10 19 41 -16 30 -32 35 -34 43 -20 7 13 13 15 23 6 11
-10 13 -8 10 9 -2 12 0 21 4 21 4 0 17 9 30 21 21 19 21 22 5 33 -9 7 -14 18
-10 24 3 6 1 14 -5 18 -8 5 -9 3 -4 -6 5 -9 4 -11 -3 -6 -8 5 -8 13 0 31 10
23 12 23 24 7 7 -9 10 -21 7 -26z"/>
</g>
</svg>
