<?xml version="1.0" standalone="no"?>
<!DOCTYPE svg PUBLIC "-//W3C//DTD SVG 20010904//EN"
 "http://www.w3.org/TR/2001/REC-SVG-20010904/DTD/svg10.dtd">
<svg version="1.0" xmlns="http://www.w3.org/2000/svg"
 width="1003.000000pt" height="1275.000000pt" viewBox="0 0 1003.000000 1275.000000"
 preserveAspectRatio="xMidYMid meet">
<metadata>
Created by potrace 1.16, written by Peter Selinger 2001-2019
</metadata>
<g transform="translate(0.000000,1275.000000) scale(0.100000,-0.100000)"
fill="#000000" stroke="none">
<path d="M6242 12598 c-17 -17 -15 -64 5 -96 10 -15 43 -53 74 -84 30 -32 60
-73 66 -93 16 -50 -1 -99 -41 -118 -34 -17 -135 -47 -155 -47 -7 0 -27 -6 -44
-14 -150 -66 -164 -69 -245 -62 -72 6 -82 4 -113 -17 -31 -21 -34 -27 -37 -81
-2 -38 2 -65 12 -80 8 -12 20 -41 26 -63 16 -54 4 -75 -67 -111 -72 -36 -86
-70 -70 -176 14 -87 1 -101 -83 -92 -92 11 -139 34 -223 112 -65 62 -84 74
-123 80 -127 19 -248 -37 -291 -136 -25 -56 -52 -134 -53 -151 -1 -46 -115
-109 -197 -109 -37 0 -133 -37 -133 -51 0 -5 -7 -9 -15 -9 -8 0 -15 -4 -15 -9
0 -5 -10 -13 -22 -17 -13 -4 -51 -20 -85 -36 -80 -37 -103 -72 -103 -156 0
-49 -4 -65 -21 -80 -32 -31 -138 -62 -207 -62 l-61 0 -60 59 c-33 32 -72 66
-85 75 -33 21 -74 20 -99 -1 -19 -18 -39 -20 -176 -12 -62 4 -64 3 -95 -33
-17 -20 -40 -53 -50 -75 -51 -99 -81 -119 -136 -88 -14 8 -44 14 -67 15 -39 0
-43 -2 -43 -24 0 -27 -42 -66 -70 -66 -9 0 -25 9 -35 20 -29 32 -41 7 -14 -29
18 -24 20 -34 11 -43 -7 -7 -12 -8 -12 -4 0 5 -10 -4 -22 -19 -18 -23 -27 -26
-58 -22 -29 4 -41 0 -60 -20 -17 -18 -29 -22 -44 -17 -36 13 -149 10 -154 -3
-2 -7 -8 -13 -12 -13 -5 0 -23 -14 -41 -31 -17 -16 -37 -29 -46 -27 -15 3 -39
44 -69 118 -20 49 -58 105 -89 132 -31 27 -61 22 -82 -12 -20 -35 -16 -34
-118 -35 l-80 0 -17 -55 c-10 -30 -20 -67 -23 -81 -2 -14 -16 -38 -30 -53 -23
-25 -31 -28 -68 -22 -23 4 -44 10 -47 14 -10 13 -69 52 -80 52 -5 0 -10 4 -10
9 0 16 -227 109 -282 116 -69 9 -127 -7 -152 -42 -16 -21 -20 -44 -20 -122 -1
-98 -15 -141 -44 -141 -28 0 -100 -52 -112 -80 -16 -39 -6 -65 51 -122 27 -27
49 -53 49 -58 0 -4 4 -10 10 -12 5 -1 19 -50 30 -108 31 -156 57 -240 81 -261
17 -14 38 -19 86 -19 70 0 121 -20 162 -64 14 -14 30 -26 37 -26 7 0 14 -5 16
-12 2 -6 30 -13 62 -16 54 -4 59 -7 82 -43 13 -21 35 -41 48 -45 14 -3 32 -14
41 -24 30 -33 83 -151 77 -172 -6 -23 -58 -48 -100 -48 -26 0 -62 -25 -62 -43
0 -12 -35 -43 -93 -81 -45 -30 -57 -44 -57 -63 0 -32 25 -52 65 -53 43 0 55
-16 55 -70 0 -43 20 -80 43 -80 4 0 16 -9 28 -21 47 -47 30 -134 -37 -185 -20
-16 -51 -42 -67 -58 l-30 -29 8 -143 c6 -140 6 -142 -17 -164 -13 -12 -36 -24
-52 -27 -45 -9 -100 -73 -146 -170 -23 -48 -53 -111 -66 -138 -28 -59 -33
-173 -9 -215 29 -51 20 -81 -45 -141 l-60 -55 0 -108 c0 -137 -18 -180 -83
-196 -85 -22 -112 -33 -133 -54 -49 -49 -70 -176 -40 -234 8 -15 17 -45 21
-65 7 -35 4 -41 -32 -76 -22 -20 -64 -50 -94 -66 -90 -47 -93 -49 -136 -80
-23 -16 -44 -37 -48 -45 -3 -8 -16 -35 -30 -60 -13 -25 -24 -52 -24 -61 -1
-10 -14 -50 -31 -90 -25 -62 -30 -88 -30 -160 l0 -86 -51 -16 c-28 -10 -57
-17 -65 -17 -29 0 -91 -97 -109 -173 -10 -38 11 -83 59 -130 l40 -38 -19 -32
c-20 -35 -22 -38 -55 -112 -13 -29 -51 -78 -89 -116 -75 -76 -91 -99 -91 -134
0 -36 18 -64 75 -115 124 -111 203 -198 223 -242 16 -37 21 -73 24 -160 4
-135 7 -131 -134 -201 -104 -52 -116 -65 -150 -154 -16 -45 -22 -83 -23 -173
-1 -63 -6 -145 -10 -181 -5 -44 -3 -79 5 -105 15 -50 53 -124 62 -124 5 0 8
-5 8 -10 0 -10 37 -49 71 -74 70 -52 62 -126 -25 -212 -72 -71 -79 -90 -81
-243 -3 -151 -14 -190 -68 -232 -80 -63 -103 -90 -120 -136 -21 -60 -21 -77 0
-143 11 -35 32 -68 62 -99 39 -39 57 -49 117 -64 l71 -18 34 -102 c38 -116 57
-153 95 -182 45 -34 84 -76 84 -91 0 -8 4 -14 9 -14 5 0 13 -10 16 -22 4 -13
18 -46 30 -74 28 -59 53 -126 64 -169 4 -17 12 -39 18 -50 11 -22 28 -131 38
-240 6 -73 30 -150 52 -173 7 -7 13 -19 13 -26 0 -16 87 -105 114 -117 12 -5
28 -13 36 -17 40 -23 83 -42 91 -42 6 0 52 -20 102 -44 188 -89 217 -93 305
-44 50 27 120 75 159 108 7 5 15 10 18 10 3 0 24 12 48 27 75 49 167 83 225
83 45 0 129 -43 188 -96 42 -37 55 -44 92 -44 47 0 52 11 22 50 -11 14 -20 31
-20 38 0 7 -4 11 -9 8 -14 -9 -21 21 -7 33 9 8 22 -1 50 -34 20 -25 35 -49 32
-53 -3 -5 17 -9 45 -11 l50 -2 -2 46 c-2 32 2 51 14 62 16 16 17 13 17 -45 0
-59 1 -62 32 -78 45 -23 142 -23 203 1 73 29 300 29 365 0 25 -11 51 -25 58
-32 7 -7 17 -13 22 -13 17 0 96 -88 118 -131 31 -60 70 -103 107 -117 53 -21
167 -49 367 -92 48 -10 95 -26 104 -34 9 -9 32 -16 56 -16 35 0 101 -28 118
-50 3 -4 28 -15 55 -25 78 -29 150 -89 172 -141 10 -24 23 -44 29 -44 6 0 19
16 30 36 14 25 34 42 74 61 38 17 69 43 100 80 25 30 53 63 63 73 9 11 17 24
17 31 0 6 13 34 30 61 17 27 30 63 30 81 1 41 36 82 90 103 8 3 41 19 73 35
41 21 72 29 109 29 50 0 54 2 103 54 27 30 63 58 78 61 36 10 83 56 90 92 4
17 19 37 41 50 20 13 43 34 51 47 23 34 45 122 45 177 0 69 24 89 160 133 41
14 107 36 145 49 65 23 106 33 300 72 176 36 198 32 290 -50 55 -49 52 -48
145 -49 64 -1 68 -3 119 -47 59 -52 104 -65 162 -49 26 7 41 20 55 47 24 48
69 98 118 134 50 37 111 39 160 7 39 -26 96 -107 96 -136 0 -30 28 -170 47
-233 15 -48 24 -61 76 -100 83 -61 101 -68 189 -69 67 0 80 3 106 25 25 21 31
35 37 88 15 145 38 216 80 247 11 8 50 41 86 75 85 78 95 86 149 112 57 28 91
65 114 123 10 25 24 60 32 78 8 18 14 38 14 45 0 7 20 34 44 61 52 59 59 91
40 183 -19 90 -18 112 6 150 24 39 46 52 114 63 49 8 156 62 156 79 0 4 14 21
31 39 l30 31 147 -1 c102 0 156 -5 176 -14 43 -21 54 -18 103 26 84 74 144
107 206 115 31 4 57 11 57 16 0 5 7 9 15 9 8 0 15 4 15 10 0 10 10 24 63 85
15 18 27 35 27 39 0 9 -38 46 -47 46 -10 0 -33 49 -33 69 0 9 17 26 38 38 98
56 138 296 58 348 -18 12 -32 13 -77 3 -30 -6 -67 -8 -82 -4 -34 8 -159 130
-178 173 -7 18 -20 33 -26 33 -9 0 -13 19 -14 58 -1 31 -4 45 -6 30 -4 -25 -6
-27 -26 -16 -19 10 -20 9 -10 -4 15 -17 7 -29 -13 -21 -21 8 -17 24 12 55 26
26 26 28 10 53 -10 15 -31 31 -47 37 -31 11 -58 51 -68 102 -4 16 -18 38 -32
48 -24 18 -29 18 -100 4 -158 -33 -191 -19 -289 127 -63 94 -65 96 -122 114
-32 9 -66 25 -75 35 -15 16 -14 21 2 65 10 27 24 55 31 64 24 27 15 58 -30
107 -36 38 -45 56 -51 98 -8 66 -35 108 -79 129 -19 9 -47 29 -61 43 -24 24
-26 30 -18 77 4 27 8 106 8 175 0 123 -8 172 -43 250 -32 72 -20 104 82 213
14 15 26 32 26 38 0 5 4 9 9 9 5 0 13 13 19 28 12 36 -1 62 -32 62 -13 0 -47
8 -75 17 -67 21 -101 60 -101 116 -1 74 -18 166 -40 212 -11 24 -22 56 -23 71
-2 27 -1 28 75 39 108 15 130 33 145 121 17 102 21 110 69 136 24 12 44 26 44
30 0 5 6 8 14 8 23 0 78 77 83 118 3 23 -3 60 -16 99 -38 113 -18 251 45 310
22 20 31 22 89 16 72 -7 77 -3 140 81 16 21 49 54 74 73 62 47 81 78 81 136 0
37 -7 58 -30 92 -25 36 -30 53 -30 102 0 32 7 78 16 102 19 54 12 84 -27 123
-16 16 -29 36 -29 45 0 31 33 83 95 148 88 92 128 181 111 249 -3 14 -29 51
-57 83 l-51 58 5 95 c6 129 26 197 84 292 30 49 29 86 -3 133 -42 63 -37 90
32 152 130 118 180 170 199 205 17 33 17 40 5 80 -10 29 -15 108 -17 248 -3
247 -2 230 -13 203 -10 -26 -32 -30 -49 -10 -8 11 -5 19 14 37 25 24 34 60 15
60 -19 0 -35 49 -21 63 9 9 17 5 35 -18 13 -17 27 -27 31 -23 11 11 -23 57
-51 70 -13 6 -24 15 -24 20 0 4 -5 8 -12 8 -19 0 -67 61 -98 126 -40 85 -69
110 -136 118 -29 3 -65 11 -79 18 -39 17 -66 79 -72 162 -5 65 -3 78 27 146
39 91 59 169 60 232 0 47 -24 166 -39 196 -15 28 -29 93 -37 162 -6 54 -12 70
-36 92 -16 15 -45 30 -65 34 -19 4 -70 33 -114 65 -43 33 -82 59 -85 59 -10 0
-88 63 -104 85 -19 25 -32 47 -61 105 -26 51 -60 103 -71 108 -5 2 -8 8 -8 13
0 22 -121 126 -212 181 -88 54 -161 74 -218 59 -25 -7 -52 -19 -61 -27 -8 -8
-19 -14 -24 -14 -5 0 -17 -7 -27 -17 -29 -26 -96 -22 -147 11 -106 68 -195 73
-317 15 -99 -46 -137 -48 -166 -8 -11 14 -22 46 -24 70 -9 79 -32 116 -105
170 -70 52 -107 100 -169 223 -53 104 -103 154 -175 177 -70 22 -96 24 -113 7z
m2328 -2724 c0 -8 6 -13 13 -11 6 1 11 -2 10 -8 -1 -5 9 -10 22 -10 13 0 22 2
20 5 -7 12 22 38 34 31 9 -6 8 -15 -6 -39 l-18 -31 43 -44 c23 -24 39 -47 35
-51 -4 -4 0 -4 10 0 9 3 17 2 17 -4 0 -5 16 -6 40 -2 49 9 75 -11 44 -35 -10
-8 -23 -15 -29 -15 -5 -1 -18 -3 -27 -5 -10 -2 -18 1 -18 6 0 6 -4 8 -9 5 -5
-3 -29 16 -54 43 -25 26 -52 51 -61 54 -9 4 -16 12 -16 18 0 8 -4 8 -15 -1
-11 -9 -19 -8 -37 4 -12 9 -17 16 -10 16 18 0 14 21 -9 46 -25 26 -19 74 7 53
8 -6 14 -18 14 -25z m-21 -156 c1 -9 -55 -39 -61 -33 -2 3 -5 -13 -6 -35 -2
-25 2 -40 9 -40 8 0 8 -4 -1 -15 -10 -12 -6 -11 21 2 19 9 45 25 58 35 34 26
74 23 105 -8 26 -27 37 -84 15 -84 -5 0 -8 -4 -4 -10 8 -13 -33 -52 -47 -44
-6 4 -8 3 -5 -3 9 -14 -19 -37 -34 -27 -8 4 -9 3 -5 -4 4 -7 3 -12 -3 -12 -6
0 -15 9 -20 19 -8 15 -7 20 5 25 9 3 21 3 26 -1 7 -3 8 -1 4 5 -7 11 7 17 29
12 5 -1 7 2 3 5 -4 4 -1 17 7 29 33 46 8 83 -44 65 -17 -6 -31 -14 -31 -19 0
-16 -58 -32 -78 -21 -30 16 -62 61 -62 87 0 27 41 79 78 97 23 11 28 11 34 -3
4 -8 7 -18 7 -22z m-295 -244 c9 -3 13 -11 9 -17 -4 -6 -1 -7 6 -3 15 10 53
-23 44 -37 -3 -6 -1 -7 5 -3 6 3 16 -3 22 -14 9 -17 3 -25 -54 -66 -57 -41
-63 -49 -53 -66 26 -42 101 -31 113 17 4 18 13 25 30 25 21 0 22 -3 14 -24
-23 -61 -86 -98 -139 -81 -27 8 -114 128 -119 162 -5 44 6 76 26 68 9 -3 13
-3 10 1 -12 12 27 41 59 43 6 1 18 -2 27 -5z m-285 -99 c26 -39 37 -42 68 -20
20 14 23 14 32 -4 8 -14 6 -22 -10 -37 -25 -23 -21 -50 14 -86 19 -19 27 -34
22 -45 -3 -10 -3 -14 1 -10 4 4 18 0 31 -8 13 -9 33 -13 47 -9 31 7 45 -14 21
-33 -11 -7 -33 -13 -51 -13 -32 0 -60 21 -46 34 4 4 2 6 -5 4 -6 -1 -30 25
-52 60 l-41 63 -41 -23 c-61 -34 -66 -44 -40 -79 12 -16 19 -35 15 -41 -4 -6
-3 -8 3 -5 5 4 16 -5 23 -19 15 -27 47 -39 78 -30 27 9 39 -24 15 -41 -17 -13
-50 -12 -86 2 -10 4 -37 37 -59 72 -29 47 -46 63 -58 60 -10 -2 -22 4 -29 16
-11 17 -11 19 1 14 21 -8 11 37 -12 58 -20 18 -16 45 6 45 7 0 20 -13 29 -30
19 -37 27 -37 70 -4 19 14 38 23 44 20 13 -9 1 34 -19 64 -15 24 -17 60 -2 60
4 0 18 -16 31 -35z m-136 -308 c75 -115 76 -117 26 -161 -24 -22 -47 -35 -55
-32 -8 3 -12 2 -9 -3 9 -16 -35 -24 -63 -12 -15 7 -52 46 -82 89 -67 94 -64
85 -41 99 17 10 22 8 37 -15 9 -14 17 -32 17 -39 0 -6 3 -11 7 -10 4 1 23 -18
41 -43 40 -52 60 -59 97 -34 15 10 30 18 33 17 4 -1 6 10 5 25 -1 15 -28 64
-59 109 -50 73 -55 83 -40 92 10 5 21 7 24 5 4 -2 32 -41 62 -87z m-276 -110
c12 -7 47 -47 78 -90 47 -65 55 -80 44 -93 -10 -13 -15 -12 -35 7 -13 12 -22
24 -20 26 2 2 -6 15 -18 27 -11 13 -29 35 -39 50 -24 35 -78 36 -112 1 -14
-13 -25 -28 -25 -32 0 -10 72 -108 107 -145 23 -24 24 -28 10 -42 -14 -14 -19
-11 -56 31 -22 26 -38 50 -35 55 3 5 1 7 -4 6 -10 -3 -32 19 -67 68 -11 16
-33 43 -49 62 -27 31 -28 34 -12 50 16 16 19 15 50 -23 l34 -39 26 32 c26 30
69 59 91 61 6 0 20 -5 32 -12z m-244 -205 c-13 -7 -28 -10 -33 -7 -5 3 -12 0
-16 -6 -5 -8 -3 -9 7 -4 8 5 2 -4 -13 -19 -30 -31 -28 -47 9 -71 14 -10 22
-12 19 -6 -4 6 -1 11 6 11 7 0 24 9 38 20 30 23 77 25 104 5 11 -8 16 -15 10
-15 -5 0 -3 -4 5 -9 20 -13 6 -73 -25 -105 -15 -14 -31 -23 -37 -19 -6 3 -7 1
-3 -5 4 -6 -6 -18 -23 -26 -26 -14 -30 -14 -35 0 -8 21 3 37 21 30 8 -3 12 -2
9 3 -3 4 8 18 24 30 17 12 30 28 30 37 0 8 5 12 10 9 6 -4 5 5 -2 19 -14 33
-43 33 -90 1 -43 -29 -79 -32 -101 -7 -22 24 -33 72 -16 72 7 0 9 3 6 6 -12
13 15 46 61 75 42 27 47 28 53 12 4 -13 -1 -22 -18 -31z m-5315 -1894 c7 -7
12 -20 12 -29 0 -9 10 -19 23 -23 55 -13 50 -87 -6 -114 -24 -12 -32 -11 -53
2 -15 10 -24 26 -24 41 0 14 -4 25 -10 25 -21 0 -49 39 -43 60 11 41 74 65
101 38z m-99 -134 c50 -57 54 -93 14 -124 -28 -21 -54 -23 -60 -4 -2 6 9 14
25 17 32 6 47 30 34 53 -7 12 -13 10 -32 -11 -29 -31 -56 -32 -87 -3 -30 28
-29 63 2 93 35 36 58 31 104 -21z m-490 -449 c63 -67 72 -85 46 -85 -8 0 -15
-4 -15 -10 0 -5 -11 -17 -25 -26 -23 -15 -27 -15 -50 0 -56 37 -71 106 -25
121 19 6 19 8 5 28 -8 12 -15 25 -15 29 0 19 22 3 79 -57z m5415 -1058 c46
-56 54 -89 27 -116 -22 -22 -61 -29 -61 -11 0 6 8 10 18 10 23 0 42 19 42 42
0 28 -26 32 -49 9 -28 -28 -37 -27 -72 8 -35 35 -36 53 -7 81 34 31 62 25 102
-23z m-4205 -822 c-5 -38 -7 -75 -5 -82 3 -6 26 -15 53 -18 26 -4 66 -11 88
-17 37 -9 38 -11 20 -24 -17 -13 -84 -12 -106 2 -3 2 -22 5 -42 8 -34 4 -35 4
-27 -24 4 -15 16 -40 25 -54 17 -26 17 -28 0 -44 -9 -9 -19 -13 -21 -7 -8 20
-148 231 -175 264 -21 26 -26 38 -18 48 15 17 19 14 85 -75 32 -42 59 -79 61
-82 11 -13 23 32 23 86 0 53 3 64 23 77 12 8 23 14 23 13 1 0 -2 -32 -7 -71z
m-181 -113 c9 -2 10 -6 1 -20 -7 -11 -20 -17 -33 -15 -31 5 -68 -18 -78 -49
-8 -23 -3 -36 31 -87 22 -33 49 -61 58 -63 23 -4 71 38 75 66 4 26 48 36 48
11 0 -10 -5 -13 -12 -9 -6 4 -8 3 -4 -4 16 -27 -57 -104 -84 -87 -6 3 -10 1
-10 -4 0 -6 -8 -11 -17 -11 -19 1 -75 29 -58 30 6 0 6 3 0 8 -6 4 -25 30 -43
58 -31 49 -44 114 -22 114 6 0 10 6 10 13 0 12 30 36 60 48 13 5 38 5 78 1z
m-554 -259 c36 -45 36 -44 66 -23 40 28 50 7 15 -30 l-28 -29 44 -53 c55 -67
58 -69 94 -66 31 2 55 -7 55 -21 0 -12 -50 -32 -62 -25 -7 4 -8 2 -4 -4 12
-20 -13 -13 -34 8 -11 11 -20 17 -20 14 0 -4 -10 6 -22 22 -12 16 -25 31 -28
34 -4 3 -15 20 -25 37 -13 22 -25 31 -36 28 -9 -3 -22 2 -30 11 -12 15 -11 16
11 10 14 -4 21 -4 15 1 -5 4 -21 23 -34 42 -21 29 -22 36 -10 58 8 16 15 20
18 12 2 -7 9 -19 15 -26z m6674 -21 c-2 -4 9 -21 24 -37 l27 -29 30 22 c24 17
31 19 40 8 9 -10 6 -17 -13 -30 -19 -12 -25 -24 -23 -45 1 -16 4 -27 6 -25 3
2 23 -14 46 -36 38 -37 43 -39 75 -30 50 14 62 -4 25 -36 -30 -26 -82 -30 -78
-7 2 7 -3 10 -10 8 -6 -3 -32 20 -57 50 -35 42 -50 53 -67 50 -27 -6 -39 11
-22 31 10 12 8 19 -11 39 -20 21 -22 28 -12 50 10 23 26 36 20 17z m-6728
-140 c-1 -9 -16 -24 -35 -33 -19 -9 -32 -12 -28 -6 3 6 2 7 -4 4 -6 -4 -10
-23 -9 -44 1 -47 27 -54 77 -24 43 27 69 26 103 0 23 -18 27 -27 23 -58 -7
-55 -16 -69 -64 -103 -36 -24 -47 -28 -54 -17 -5 8 -9 17 -9 21 0 9 55 48 68
48 6 0 13 14 17 31 9 40 -12 65 -46 53 -13 -4 -28 -7 -32 -6 -5 1 -6 -2 -3 -7
7 -11 -22 -24 -35 -15 -5 3 -9 0 -9 -5 0 -6 -7 -11 -16 -11 -8 0 -12 4 -9 10
3 5 0 8 -7 5 -19 -6 -52 21 -42 36 4 8 3 10 -4 5 -19 -12 -14 36 8 71 14 23
24 31 36 26 11 -4 15 -3 10 5 -4 6 5 17 21 26 31 16 43 13 43 -12z m6694 -38
c7 -18 0 -34 -16 -34 -5 0 -23 -9 -40 -21 -38 -28 -36 -69 5 -80 15 -4 25 -4
22 1 -6 10 24 22 36 14 5 -3 8 0 7 8 -2 7 5 12 14 12 10 -1 15 2 12 7 -3 5 6
9 19 9 60 0 103 -100 57 -133 -11 -8 -18 -16 -15 -19 3 -3 -1 -11 -10 -18 -8
-7 -15 -10 -15 -7 0 3 -12 -6 -26 -20 -21 -21 -28 -23 -35 -12 -5 8 -9 19 -9
25 0 13 48 47 65 47 5 0 11 20 13 44 3 39 1 43 -20 43 -13 0 -34 -7 -46 -16
-12 -8 -27 -12 -34 -8 -6 4 -8 3 -5 -3 4 -6 0 -14 -9 -17 -25 -10 -62 4 -78
30 -32 47 -14 98 47 137 48 31 53 32 61 11z m-6993 -242 c9 -4 33 -22 54 -41
l38 -33 -55 -52 c-49 -44 -87 -99 -57 -81 5 4 16 2 24 -5 8 -6 26 -10 42 -8
21 2 33 12 46 41 10 20 25 37 33 37 25 0 15 -48 -17 -85 -26 -29 -38 -35 -70
-35 -32 0 -46 8 -89 48 -27 26 -50 54 -50 61 0 6 -4 10 -9 7 -5 -3 -14 7 -21
23 -27 66 64 151 131 123z m6689 -22 c11 -6 36 -27 56 -48 l36 -37 -48 -43
c-27 -23 -55 -40 -62 -37 -7 3 -11 1 -8 -4 3 -5 -1 -14 -9 -21 -13 -10 -19 -8
-38 16 -12 16 -21 32 -19 36 1 5 -3 7 -10 6 -16 -4 -32 44 -25 75 7 27 60 67
90 67 10 0 27 -5 37 -10z m-285 -92 c25 -29 74 -61 61 -39 -3 5 1 14 9 21 13
10 19 9 35 -5 19 -17 19 -19 3 -31 -10 -7 -21 -10 -25 -8 -5 3 -8 -2 -8 -11 0
-9 24 -43 53 -76 28 -33 51 -64 50 -69 -1 -4 5 -7 15 -6 9 2 23 -4 30 -13 8
-9 11 -11 8 -5 -3 7 0 17 8 23 10 8 17 6 30 -7 15 -18 15 -19 -9 -30 -14 -7
-35 -12 -46 -12 -29 0 -61 19 -53 32 4 6 3 8 -3 5 -14 -9 -37 19 -27 34 4 7 3
9 -3 6 -15 -9 -57 39 -47 55 4 7 3 10 -1 5 -5 -4 -16 0 -26 9 -16 15 -20 14
-53 -13 -20 -15 -36 -33 -36 -39 0 -6 17 -33 37 -59 20 -27 30 -45 23 -40 -9
5 -11 4 -6 -4 4 -6 11 -9 15 -6 5 2 16 -4 26 -15 13 -14 23 -17 39 -10 25 9
56 -4 56 -24 0 -30 -75 -36 -97 -8 -9 10 -11 11 -7 2 13 -27 -37 23 -82 81
-24 31 -40 60 -36 65 4 5 -3 1 -14 -9 -21 -17 -22 -17 -29 0 -5 10 -7 24 -6
32 1 7 -6 23 -17 35 -20 22 -28 70 -11 64 6 -2 11 -8 11 -13 1 -6 14 -20 31
-32 l30 -22 34 26 c19 14 39 36 45 47 6 12 7 18 3 14 -12 -11 -55 34 -55 59 0
32 13 29 45 -9z m-6720 -9 c-3 -5 0 -6 8 -4 7 3 22 -3 32 -15 22 -24 33 -25
57 -4 14 14 20 14 33 4 12 -10 13 -16 4 -26 -6 -8 -15 -12 -18 -9 -4 2 -8 -1
-8 -8 0 -7 -2 -17 -4 -22 -2 -6 22 -34 53 -62 31 -28 55 -53 53 -55 -2 -1 9
-3 25 -3 15 0 26 3 23 8 -8 13 24 7 36 -7 10 -12 8 -18 -11 -29 -54 -34 -67
-32 -119 19 -26 26 -45 52 -42 58 3 6 2 8 -2 3 -11 -9 -46 23 -39 35 4 6 -3 5
-14 -1 -12 -6 -24 -16 -27 -21 -4 -6 -11 -8 -16 -5 -5 4 -9 -1 -9 -9 0 -9 -4
-16 -10 -16 -19 0 -10 -49 10 -60 11 -6 20 -16 20 -22 0 -7 -4 -7 -14 1 -10 9
-16 9 -21 1 -5 -8 -15 -4 -30 10 -13 13 -29 19 -35 15 -14 -9 -30 12 -30 38 0
10 -9 30 -20 45 -12 16 -18 35 -15 44 6 15 8 15 26 0 10 -9 19 -22 19 -29 0
-20 40 -26 59 -9 10 9 21 13 26 9 4 -5 5 -3 1 4 -4 7 2 17 14 23 26 14 25 20
-5 52 -24 26 -36 76 -15 63 6 -4 8 -11 5 -16z m6570 -228 c3 -11 13 -22 21
-25 8 -3 12 -11 9 -16 -4 -6 -2 -9 4 -8 11 3 111 -130 111 -148 0 -19 -79 -82
-109 -89 -37 -8 -75 8 -98 40 -10 14 -37 51 -61 81 -36 45 -41 56 -30 68 12
11 24 0 78 -68 77 -96 102 -105 151 -57 l30 31 -47 62 c-27 35 -53 66 -60 70
-6 4 -19 19 -29 34 -14 22 -15 28 -4 35 21 13 27 11 34 -10z m-6676 -46 c17
-20 29 -40 26 -45 -4 -6 -1 -9 7 -8 7 2 12 -3 11 -9 -2 -7 1 -12 6 -10 5 1 26
-20 46 -46 31 -41 35 -50 24 -65 -29 -38 -60 -63 -71 -56 -6 4 -8 3 -5 -3 8
-13 -20 -26 -35 -16 -7 3 -8 1 -4 -5 5 -8 -1 -12 -14 -12 -27 0 -84 55 -74 71
4 7 3 9 -3 6 -9 -6 -48 38 -41 45 2 2 -12 18 -30 37 -29 31 -31 36 -17 50 14
14 17 13 32 -9 85 -121 108 -145 144 -148 31 -3 41 2 64 30 15 18 22 34 16 36
-19 6 -91 104 -84 115 3 5 1 7 -5 3 -13 -8 -56 50 -47 64 10 16 20 12 54 -25z
m-397 -165 c25 -44 42 -50 57 -21 13 24 61 43 96 38 30 -4 95 -62 95 -84 0 -7
5 -13 10 -13 6 0 10 -7 10 -15 0 -8 3 -15 8 -15 15 0 43 -63 33 -73 -14 -14
-54 22 -46 40 2 8 1 11 -5 8 -5 -3 -14 5 -21 17 -7 13 -15 25 -18 28 -4 3 -17
20 -30 38 -28 40 -58 42 -100 6 -29 -24 -36 -53 -16 -71 4 -5 5 -1 0 7 -17 32
14 -7 54 -68 23 -35 38 -68 35 -74 -4 -6 -2 -8 4 -4 6 3 13 2 17 -3 3 -6 -4
-15 -16 -21 -15 -8 -19 -9 -15 -1 4 6 3 11 -1 11 -5 0 -36 38 -69 85 -32 47
-78 111 -101 142 -31 43 -39 61 -31 70 17 21 26 16 50 -27z m6696 -15 c28 -35
29 -35 47 -15 10 11 22 17 26 14 5 -3 9 3 9 12 0 16 1 16 14 -1 12 -16 10 -21
-15 -42 -34 -29 -33 -36 6 -78 17 -18 45 -52 62 -77 28 -39 31 -48 18 -58 -19
-16 -27 -10 -92 78 -31 42 -76 99 -100 126 -34 38 -41 51 -32 62 17 21 25 18
57 -21z m-6759 -142 c-58 -24 -90 -83 -54 -97 9 -3 35 2 58 11 57 21 94 20
117 -5 41 -44 18 -104 -55 -147 -52 -30 -70 -32 -72 -6 -1 13 7 20 26 24 52
11 102 83 71 102 -6 4 -8 11 -5 16 6 8 -84 -23 -107 -37 -5 -3 -21 -3 -37 1
-29 6 -51 39 -51 75 0 48 116 128 131 90 4 -10 -3 -19 -22 -27z m6715 11 c7
-19 8 -17 -22 -33 -12 -7 -28 -9 -35 -5 -6 4 -9 4 -5 0 4 -5 -2 -17 -13 -29
-48 -52 0 -91 62 -50 75 49 159 9 128 -61 -7 -14 -16 -23 -22 -19 -6 3 -7 1
-3 -5 8 -13 -40 -61 -60 -62 -7 0 -14 -7 -18 -15 -7 -20 -36 -19 -36 0 0 18
59 56 74 48 6 -3 8 -3 4 2 -4 4 -1 17 7 29 19 26 19 50 0 66 -12 10 -21 8 -47
-8 -18 -11 -39 -17 -47 -14 -9 3 -11 0 -6 -8 6 -10 1 -12 -18 -8 -15 3 -24 1
-21 -3 10 -17 -16 -9 -36 11 -39 39 -20 93 51 146 52 38 55 39 63 18z"/>
</g>
</svg>
