<?xml version="1.0" standalone="no"?>
<!DOCTYPE svg PUBLIC "-//W3C//DTD SVG 20010904//EN"
 "http://www.w3.org/TR/2001/REC-SVG-20010904/DTD/svg10.dtd">
<svg version="1.0" xmlns="http://www.w3.org/2000/svg"
 width="989.000000pt" height="1315.000000pt" viewBox="0 0 989.000000 1315.000000"
 preserveAspectRatio="xMidYMid meet">
<metadata>
Created by potrace 1.16, written by Peter Selinger 2001-2019
</metadata>
<g transform="translate(0.000000,1315.000000) scale(0.100000,-0.100000)"
fill="#000000" stroke="none">
<path d="M8797 12663 c-13 -12 -7 -23 23 -38 33 -17 53 -55 44 -80 -4 -10 -20
-15 -50 -15 -49 0 -47 3 -44 -87 l2 -63 -61 0 c-70 0 -74 -7 -36 -62 24 -36
25 -37 6 -48 -11 -5 -27 -10 -36 -10 -26 0 -74 -32 -81 -55 -10 -30 -22 -35
-102 -35 -65 0 -74 -2 -79 -20 -4 -14 -14 -20 -33 -20 -15 0 -35 -9 -44 -19
-10 -11 -31 -23 -47 -26 -36 -8 -37 -21 -2 -57 18 -19 37 -28 59 -28 71 0 88
-33 26 -49 -21 -6 -47 -19 -58 -29 -17 -17 -20 -17 -31 -3 -8 11 -28 16 -69
16 -44 0 -59 4 -68 18 -9 15 -7 21 9 33 19 14 19 15 -13 40 -17 14 -32 31 -32
38 0 7 -9 21 -20 31 -20 18 -22 18 -49 2 -16 -9 -48 -17 -70 -17 -23 0 -41 -4
-41 -10 0 -14 -39 -32 -58 -26 -22 8 -60 65 -73 109 -13 48 -34 67 -71 67 -17
0 -45 9 -63 20 -28 17 -34 18 -51 5 -12 -9 -43 -14 -81 -15 -43 0 -66 -5 -78
-16 -21 -21 -15 -48 10 -52 50 -7 66 -14 85 -34 30 -33 25 -48 -16 -48 -34 0
-35 -1 -32 -32 2 -26 10 -37 36 -50 19 -9 29 -19 23 -23 -6 -3 -11 -18 -11
-33 0 -66 -7 -72 -76 -72 -73 0 -84 -10 -84 -83 0 -43 -1 -44 -42 -56 -22 -7
-48 -19 -55 -27 -24 -24 -50 -17 -56 14 -4 21 -16 33 -44 45 -21 9 -56 30 -78
47 -22 16 -43 29 -47 30 -16 0 -6 -26 22 -60 32 -37 38 -74 15 -104 -11 -15
-22 -17 -57 -12 -54 8 -66 -1 -70 -46 -2 -30 3 -42 26 -61 33 -29 27 -33 -67
-43 -54 -5 -65 -3 -86 15 -30 26 -51 27 -84 1 -38 -30 -67 -27 -67 8 -1 38
-19 57 -64 68 -38 9 -48 19 -60 57 -9 29 -53 22 -71 -13 -18 -35 -37 -38 -65
-10 -42 42 -57 23 -62 -75 -2 -39 -7 -51 -21 -53 -34 -7 -47 17 -47 87 0 87
-27 115 -71 75 -24 -22 -63 -21 -86 1 -14 14 -18 15 -22 4 -7 -22 -34 -38 -63
-39 -18 0 -29 -7 -33 -20 -7 -23 -43 -27 -51 -5 -4 10 -20 15 -50 15 -48 0
-74 -24 -74 -71 0 -37 -20 -51 -44 -33 -28 20 -39 18 -57 -15 -11 -18 -28 -31
-48 -36 -30 -6 -41 -20 -22 -27 5 -1 25 -24 45 -50 33 -45 34 -48 16 -58 -10
-5 -28 -10 -40 -10 -18 0 -21 -4 -16 -28 6 -23 2 -30 -23 -45 -40 -23 -51 -66
-51 -200 0 -105 -1 -108 -24 -117 -30 -11 -39 -28 -55 -103 -7 -32 -17 -57
-21 -55 -5 2 -20 23 -33 48 -20 38 -28 45 -53 45 -29 0 -29 -1 -34 -65 -5 -65
-5 -65 -37 -68 -31 -3 -33 -6 -33 -40 0 -50 -7 -57 -66 -71 -49 -12 -54 -11
-92 13 -22 14 -62 31 -89 37 -26 7 -56 20 -66 30 -10 11 -26 19 -36 19 -10 0
-24 7 -31 15 -7 8 -21 15 -31 15 -11 0 -19 7 -19 15 0 21 -14 19 -56 -10 -34
-23 -38 -24 -65 -9 -16 8 -29 18 -29 22 0 14 24 32 42 32 10 0 26 9 35 20 10
11 23 20 30 20 20 0 5 25 -28 44 -17 10 -34 29 -39 42 -5 13 -16 24 -24 24 -8
0 -18 9 -21 20 -5 17 -15 20 -63 20 -46 0 -60 4 -70 20 -9 15 -19 19 -38 14
-20 -5 -26 -2 -31 14 -3 13 -15 22 -31 24 -21 2 -28 10 -35 41 -5 20 -15 37
-22 37 -7 0 -15 9 -18 20 -4 15 -13 20 -39 20 -44 -1 -78 -30 -78 -68 0 -27
-4 -31 -32 -34 -28 -2 -34 -8 -36 -30 -4 -31 -14 -35 -32 -13 -7 8 -19 15 -26
15 -8 0 -14 11 -14 26 0 14 -6 32 -14 40 -8 7 -17 19 -19 26 -7 17 -37 -19
-37 -44 0 -26 -26 -33 -55 -14 -19 12 -25 25 -25 51 0 32 2 35 31 35 26 0 30
3 27 23 -2 18 -10 23 -47 25 -27 2 -49 -2 -60 -11 -9 -8 -45 -18 -81 -22 -36
-3 -73 -9 -82 -11 -21 -6 -24 -50 -6 -88 9 -22 8 -29 -7 -46 -10 -11 -24 -20
-32 -20 -9 0 -13 -16 -13 -55 0 -40 -4 -57 -15 -61 -9 -4 -15 -19 -15 -40 0
-47 -19 -84 -43 -84 -11 0 -29 -8 -40 -17 -18 -17 -19 -17 -32 0 -15 21 -35
22 -35 2 0 -24 -57 -19 -70 5 -13 24 -62 27 -80 6 -6 -8 -26 -16 -43 -18 -28
-3 -32 -8 -39 -43 -5 -22 -15 -43 -23 -48 -10 -5 -15 -25 -15 -63 0 -39 -4
-56 -15 -60 -8 -4 -15 -18 -15 -34 0 -16 7 -30 15 -34 8 -3 15 -16 15 -30 0
-19 6 -25 28 -28 23 -3 27 -8 30 -41 3 -37 4 -38 37 -31 27 5 35 2 44 -14 18
-34 13 -62 -18 -90 -24 -23 -29 -37 -34 -92 -4 -52 -10 -68 -29 -83 -13 -10
-36 -30 -52 -43 -17 -13 -33 -24 -37 -24 -3 0 -12 -13 -19 -30 -7 -17 -20 -30
-30 -30 -9 0 -27 -9 -40 -20 -12 -11 -39 -22 -59 -25 -78 -13 -80 -14 -87 -50
-8 -43 0 -87 22 -120 13 -20 25 -25 55 -25 31 0 39 4 39 18 0 38 22 43 57 12
l34 -30 133 0 c120 0 135 -2 151 -20 10 -11 33 -25 52 -32 26 -10 35 -20 44
-51 5 -21 17 -41 25 -44 7 -3 14 -16 14 -28 0 -15 8 -26 20 -30 25 -8 26 -27
1 -49 -11 -10 -23 -32 -27 -50 -9 -43 -22 -56 -55 -56 -16 0 -29 -5 -29 -12 0
-6 -7 -19 -16 -29 -8 -9 -18 -43 -21 -75 -3 -33 -10 -65 -16 -71 -5 -8 -33
-13 -67 -13 -38 0 -62 -5 -70 -15 -10 -12 -32 -13 -118 -9 -134 8 -172 -1
-192 -44 -10 -21 -22 -32 -36 -32 -30 0 -34 -16 -34 -131 0 -79 -3 -101 -15
-105 -8 -4 -15 -14 -15 -24 0 -10 -7 -23 -15 -30 -8 -7 -15 -19 -15 -26 0 -17
-32 -18 -48 -2 -7 7 -12 20 -12 29 0 12 -12 19 -43 23 -53 8 -69 3 -98 -35
-24 -31 -56 -38 -65 -14 -4 8 -13 15 -21 15 -8 0 -20 15 -28 34 -12 27 -21 34
-52 40 -65 10 -89 7 -126 -18 -33 -23 -67 -30 -199 -40 -26 -2 -52 -7 -58 -11
-10 -6 -8 -36 6 -87 8 -28 -15 -21 -44 12 -15 17 -34 30 -43 30 -10 0 -31 13
-47 29 -16 17 -41 33 -56 37 -28 7 -37 34 -11 34 18 0 20 31 3 48 -7 7 -30 12
-52 12 -46 0 -86 -32 -86 -69 0 -27 -24 -18 -38 15 -9 19 -19 24 -47 24 -19 0
-35 -4 -35 -8 0 -5 -13 -22 -30 -38 -16 -16 -30 -39 -30 -51 0 -14 -6 -23 -15
-23 -8 0 -15 -8 -15 -19 0 -10 -7 -24 -15 -31 -8 -7 -15 -16 -15 -21 0 -5 -9
-18 -20 -29 -26 -26 -25 -64 3 -90 21 -21 21 -22 3 -35 -12 -9 -19 -28 -20
-57 l-1 -43 -98 -3 c-92 -3 -99 -1 -104 18 -7 26 -31 32 -128 28 -72 -3 -81
-5 -90 -25 -8 -20 -17 -23 -63 -23 -38 0 -61 6 -81 21 -24 17 -32 19 -50 9
-19 -10 -23 -8 -32 19 -6 17 -17 31 -25 31 -15 0 -19 16 -15 64 3 35 -42 86
-75 86 -13 0 -30 10 -39 23 -16 22 -16 22 -31 2 -8 -11 -31 -37 -52 -59 -20
-21 -42 -52 -48 -70 -10 -28 -15 -31 -55 -31 -49 -1 -76 -20 -101 -71 -13 -26
-18 -29 -60 -27 -43 3 -47 1 -57 -27 -7 -21 -15 -28 -26 -24 -8 3 -27 -1 -41
-11 -31 -20 -37 -15 -54 48 -15 57 -25 65 -50 41 -11 -11 -26 -25 -35 -32 -14
-12 -14 -15 0 -28 21 -22 19 -70 -5 -94 -11 -11 -25 -20 -30 -20 -16 0 -12
-19 10 -42 21 -23 27 -48 10 -48 -16 0 -11 -27 6 -34 9 -4 31 -4 49 0 27 5 35
2 44 -15 8 -14 21 -21 41 -21 23 0 30 -4 30 -20 0 -11 7 -20 15 -20 8 0 25 -6
36 -12 18 -11 23 -10 36 10 20 29 29 28 48 -8 14 -28 20 -30 70 -30 51 0 55
-2 55 -24 0 -40 11 -56 37 -56 17 0 27 -7 30 -21 5 -18 11 -20 49 -14 40 6 44
4 44 -14 0 -18 6 -21 45 -21 34 0 45 -4 45 -15 0 -9 7 -18 15 -21 20 -8 19
-39 -2 -76 -17 -28 -17 -30 0 -39 26 -15 20 -27 -15 -31 -31 -3 -33 -6 -36
-44 l-3 -41 -59 0 c-69 -1 -80 -6 -80 -39 0 -13 -5 -24 -10 -24 -6 0 -13 -8
-17 -17 -3 -10 -12 -25 -20 -34 -13 -15 -10 -17 33 -21 51 -4 74 9 74 43 0 27
32 24 61 -7 13 -14 23 -27 22 -30 -9 -15 1 -24 27 -24 24 0 33 6 40 26 9 24
14 26 48 20 59 -11 72 -16 72 -32 0 -9 11 -14 35 -14 42 0 75 29 75 65 0 28
12 32 34 10 20 -20 36 -19 36 3 0 29 50 60 88 54 37 -5 41 -22 18 -74 -8 -18
-17 -40 -21 -48 -3 -8 -12 -26 -20 -39 -18 -32 -3 -61 30 -61 29 0 33 -22 13
-66 -11 -23 -10 -28 11 -45 15 -12 20 -25 17 -37 -7 -22 27 -62 52 -62 26 0
62 -28 56 -44 -8 -22 -84 -27 -122 -9 -31 15 -34 15 -55 -5 -12 -11 -34 -25
-49 -31 -17 -6 -28 -18 -28 -29 0 -34 -22 -82 -37 -82 -12 0 -14 -7 -9 -31 5
-24 1 -35 -20 -54 -27 -25 -29 -53 -4 -65 30 -15 87 -30 113 -30 15 0 32 -8
38 -19 10 -15 17 -16 40 -8 25 10 31 8 55 -18 l26 -28 45 16 45 17 27 -28 c15
-15 44 -36 64 -47 43 -23 49 -34 37 -74 -14 -48 9 -59 76 -36 l54 18 31 -29
c17 -16 40 -44 51 -62 21 -34 21 -34 1 -60 -20 -27 -73 -43 -73 -22 0 6 6 10
13 7 21 -8 47 13 47 38 0 33 -19 41 -36 16 -8 -12 -24 -21 -35 -21 -10 0 -28
-9 -38 -19 -18 -18 -18 -20 0 -47 17 -27 17 -44 0 -44 -5 0 -12 10 -16 23 l-8
22 -4 -25 c-3 -13 0 -26 6 -28 15 -5 -6 -32 -25 -32 -20 0 -36 -36 -34 -78 3
-67 6 -65 -60 -58 l-60 7 0 -38 c0 -29 8 -45 37 -75 40 -41 40 -40 -7 -114
-17 -27 -19 -36 -9 -57 10 -21 9 -29 -6 -43 -16 -16 -16 -39 -1 -75 5 -10 -2
-27 -18 -47 -33 -38 -32 -43 2 -91 25 -35 30 -52 36 -135 3 -52 9 -102 12
-110 4 -10 23 -16 52 -18 44 -3 47 -5 47 -32 1 -15 9 -34 18 -41 9 -7 17 -24
17 -39 0 -22 4 -26 28 -26 15 0 44 -9 65 -20 20 -11 51 -20 68 -20 25 0 30 3
27 22 -3 23 30 48 64 48 20 0 48 37 48 62 0 10 6 18 14 18 8 0 20 19 28 43
l13 42 65 1 c87 1 90 2 90 19 0 10 10 15 34 15 18 0 45 9 59 20 47 37 111 6
122 -60 6 -37 36 -80 56 -80 7 0 8 -14 4 -39 -6 -36 -3 -43 31 -80 l37 -42
-12 -69 c-6 -38 -11 -82 -11 -98 0 -24 -6 -32 -28 -40 -15 -5 -42 -7 -60 -4
-19 2 -45 -1 -58 -8 -21 -12 -24 -20 -24 -70 0 -54 2 -58 32 -73 18 -9 47 -20
63 -25 28 -8 30 -12 33 -60 2 -29 8 -52 14 -52 16 0 4 -105 -14 -123 -9 -9
-27 -19 -41 -22 -37 -10 -55 -102 -38 -199 13 -76 38 -119 53 -91 19 33 28 12
25 -62 -2 -76 -2 -78 23 -81 14 -1 56 -10 93 -18 60 -15 66 -18 50 -30 -20
-15 -63 -19 -63 -6 0 5 -14 7 -30 4 -17 -2 -36 0 -43 6 -22 18 -39 -1 -28 -30
5 -14 7 -29 3 -34 -4 -4 -2 -4 4 -1 7 4 19 -4 28 -17 14 -22 14 -25 0 -37 -14
-11 -22 -7 -54 31 -21 25 -36 49 -33 54 4 5 2 6 -4 3 -5 -3 -17 7 -27 24 -21
35 -32 36 -57 6 -12 -15 -18 -38 -19 -74 0 -49 -1 -52 -30 -58 -28 -6 -30 -10
-28 -45 2 -22 7 -35 12 -30 5 5 16 4 27 -3 28 -17 66 5 77 45 11 43 42 51 42
11 0 -39 -32 -87 -48 -71 -13 13 4 -61 18 -76 5 -4 45 -9 91 -10 87 -1 109 8
109 45 0 29 23 23 38 -11 15 -32 31 -37 62 -18 32 21 46 -2 31 -52 -14 -49 -5
-70 44 -100 19 -12 35 -27 35 -34 0 -16 -57 -96 -68 -96 -4 0 -20 -12 -35 -26
-27 -25 -28 -29 -21 -91 6 -63 6 -65 -25 -95 -17 -17 -31 -39 -31 -49 0 -18
-10 -23 -38 -20 -8 1 -25 -5 -39 -14 -21 -14 -24 -22 -18 -52 5 -26 2 -40 -11
-54 -15 -16 -15 -25 -6 -58 18 -58 15 -85 -13 -111 -21 -19 -25 -33 -25 -76 0
-47 -4 -56 -27 -74 -16 -11 -44 -43 -63 -70 -19 -27 -41 -50 -47 -50 -7 0 -15
-11 -18 -25 -3 -14 -7 -36 -10 -50 -4 -17 -21 -35 -50 -53 -54 -32 -59 -44
-40 -82 8 -16 15 -36 15 -44 0 -8 15 -29 34 -47 20 -18 39 -50 46 -75 7 -24
17 -44 21 -44 5 0 17 -8 26 -18 82 -81 86 -153 12 -192 -11 -6 -19 -21 -19
-35 0 -13 -13 -40 -30 -58 -16 -19 -30 -44 -30 -55 0 -11 -7 -25 -15 -32 -19
-15 -19 -59 -1 -85 7 -11 16 -42 19 -69 5 -35 14 -54 32 -68 14 -11 25 -26 25
-33 0 -20 32 -85 42 -85 17 0 38 -62 38 -110 0 -55 -13 -90 -33 -90 -7 0 -18
-14 -26 -30 -12 -28 -11 -33 15 -68 42 -55 53 -65 68 -59 11 4 13 23 11 75 -3
58 0 73 14 86 17 16 18 13 20 -61 1 -53 7 -83 17 -93 8 -8 14 -10 14 -3 0 8
18 6 57 -4 32 -9 71 -15 86 -15 l28 1 -23 -18 c-23 -17 -73 -27 -64 -12 3 4
-15 6 -38 4 -24 -2 -47 0 -50 6 -4 6 -13 8 -20 5 -18 -7 -9 -42 17 -72 26 -28
30 -49 10 -57 -9 -3 -16 -4 -17 -3 -1 2 -25 31 -54 65 -28 34 -52 66 -52 72 0
6 -4 11 -8 11 -5 0 -24 21 -42 47 -19 25 -29 43 -23 40 7 -4 15 -3 18 3 4 6 3
10 -2 9 -21 -4 -33 3 -34 19 -1 17 -13 -18 -24 -70 -4 -23 -11 -28 -36 -28
-26 0 -29 -2 -19 -14 6 -8 19 -12 27 -9 10 4 14 2 10 -4 -3 -5 0 -10 8 -10 8
0 12 5 8 10 -3 5 4 6 18 2 31 -10 31 -9 24 -27 -4 -11 -18 -15 -46 -13 -27 1
-39 -2 -39 -11 0 -8 -4 -14 -9 -14 -23 0 -18 -45 9 -85 16 -23 26 -46 22 -50
-4 -5 -2 -5 4 -2 6 4 19 -2 29 -13 10 -11 26 -20 35 -20 24 0 70 45 70 70 0
23 25 27 34 5 3 -8 2 -15 -3 -15 -4 0 -7 -10 -7 -22 1 -13 -4 -22 -11 -21 -7
2 -10 -3 -7 -10 7 -20 -68 -51 -101 -43 -33 8 -76 54 -101 107 -19 39 -44 59
-44 35 0 -25 27 -91 54 -130 14 -21 26 -48 26 -60 0 -30 -29 -69 -47 -62 -8 3
-12 2 -9 -3 3 -5 0 -11 -7 -14 -8 -3 -19 3 -25 13 -9 15 -7 21 14 34 18 12 24
24 22 46 -1 16 -4 27 -6 25 -2 -2 -24 3 -49 10 -52 16 -80 6 -89 -32 -3 -12
-12 -24 -20 -27 -19 -7 -18 -36 1 -36 8 0 15 -4 15 -10 0 -5 12 -13 27 -16 39
-9 51 -21 78 -74 17 -33 35 -51 64 -65 22 -11 46 -31 53 -44 7 -13 36 -34 64
-46 28 -13 55 -28 58 -34 4 -6 22 -11 40 -11 25 0 36 -6 47 -27 19 -38 28 -43
76 -43 23 0 45 -4 48 -10 3 -5 18 -10 32 -10 15 0 36 -11 49 -26 13 -14 28
-22 34 -19 5 3 26 -2 47 -10 29 -12 55 -15 109 -10 67 7 72 6 90 -17 18 -23
25 -25 77 -20 38 3 57 9 57 18 0 7 -4 16 -10 19 -17 11 -11 33 20 68 17 19 30
41 30 50 0 29 26 40 66 27 36 -12 39 -11 61 14 20 23 31 27 80 28 32 1 77 0
101 -2 27 -1 49 3 60 12 9 9 28 18 42 21 47 11 70 43 70 97 0 52 1 54 53 50
16 -1 37 6 48 15 13 12 28 16 48 12 20 -4 35 -1 45 8 8 8 26 15 39 15 13 0 35
9 48 19 14 10 36 21 49 23 18 2 26 11 30 32 3 16 12 32 20 36 58 27 74 37 84
54 30 52 45 59 117 54 48 -4 74 -1 86 8 17 12 15 16 -20 52 -39 40 -42 72 -7
72 27 0 50 27 50 59 0 38 17 51 70 51 25 0 51 5 58 12 7 7 12 38 12 71 0 56
-16 101 -48 135 -37 40 -72 104 -72 132 0 17 10 45 23 63 31 45 118 127 134
127 7 0 22 20 34 44 11 24 29 46 40 49 28 8 23 39 -12 73 -33 32 -33 29 -7
154 13 60 30 107 76 200 12 25 32 42 68 60 33 16 66 43 92 77 23 28 51 54 63
58 31 10 54 32 110 102 38 49 58 65 91 74 24 7 58 24 76 37 21 16 51 27 82 30
37 3 56 11 77 33 35 35 39 35 47 4 4 -15 18 -30 32 -35 39 -15 120 -12 138 5
8 8 30 18 48 21 45 8 78 25 78 40 0 7 16 29 35 49 35 34 37 35 118 35 84 0
108 9 151 53 10 9 26 17 37 17 11 0 35 16 53 36 29 31 36 35 54 25 11 -6 63
-11 116 -11 95 0 95 0 113 30 17 30 18 30 105 30 80 0 89 -2 112 -25 21 -21
29 -23 51 -15 15 6 43 10 64 10 23 0 44 6 52 16 11 14 27 15 105 10 85 -7 92
-6 96 12 3 11 3 25 -1 31 -4 6 -65 13 -145 17 l-137 7 -51 53 c-28 29 -66 64
-84 76 -19 13 -34 29 -34 36 0 6 -4 12 -9 12 -5 0 -14 12 -20 27 -13 36 -30
55 -64 72 -38 20 -41 40 -23 161 9 57 16 123 16 147 0 30 6 49 20 63 11 11 20
24 20 29 0 5 7 11 15 15 8 3 15 14 15 24 0 10 18 37 40 60 22 22 40 44 40 48
0 4 20 48 44 98 24 50 53 111 64 136 15 32 31 49 52 57 16 6 33 20 36 30 18
55 27 70 54 85 21 12 30 25 30 43 0 25 35 70 71 91 9 5 31 32 48 60 17 29 48
65 69 80 20 15 55 45 77 65 22 21 53 49 70 62 l30 25 -28 28 c-18 18 -26 35
-23 47 3 12 -6 27 -25 44 -32 29 -37 54 -15 72 11 9 12 18 3 40 -16 44 -2 73
68 142 44 42 65 71 65 87 0 13 10 32 23 42 12 10 38 33 58 50 24 20 43 28 54
24 9 -4 20 -3 24 3 15 23 94 43 169 43 85 0 240 -23 271 -39 11 -6 50 -11 88
-11 49 0 79 -6 106 -20 20 -11 55 -20 76 -20 22 0 43 -5 46 -10 14 -23 314 -2
345 24 8 8 21 11 28 9 27 -10 60 7 66 33 5 20 1 33 -16 51 -27 28 -29 83 -14
304 8 115 7 126 -9 132 -16 7 -17 58 -14 865 1 583 -1 865 -9 883 -5 14 -13
116 -17 228 l-8 202 -27 14 c-24 13 -29 12 -48 -5 -18 -17 -22 -17 -33 -4 -9
10 -9 21 -2 37 8 17 7 28 -3 42 -9 12 -14 45 -14 90 0 56 -4 76 -19 91 -32 35
-34 58 -5 85 24 22 25 27 19 94 -6 63 -4 72 15 93 12 13 24 38 27 55 3 18 10
38 16 45 5 7 11 54 12 105 1 73 6 100 23 132 12 22 22 51 22 65 0 14 11 38 25
54 14 16 25 32 25 36 0 3 7 49 16 100 16 94 24 114 75 180 14 19 29 49 32 65
6 33 31 90 50 118 10 15 7 22 -23 50 -19 19 -47 48 -63 66 -21 25 -30 31 -40
22 -20 -16 -37 6 -30 40 3 18 1 29 -5 29 -18 0 -34 38 -24 56 7 13 13 11 35
-15 30 -37 31 -37 65 -11 23 19 27 19 41 5 15 -15 14 -18 -6 -35 -13 -10 -23
-23 -23 -29 0 -5 24 -36 54 -67 l53 -56 72 94 c58 77 71 102 71 131 0 28 6 40
25 53 29 19 32 44 9 79 -36 56 23 138 97 133 45 -2 54 5 62 47 4 17 4 24 1 17
-4 -8 -16 0 -34 25 -16 21 -26 42 -23 47 4 5 1 6 -5 2 -6 -3 -14 -1 -18 5 -6
10 11 28 27 29 3 0 14 -15 24 -34 11 -19 23 -32 29 -29 5 4 7 -1 3 -10 -9 -23
13 -17 40 11 12 12 24 22 27 22 3 0 19 13 35 29 17 16 39 32 50 36 19 6 51 70
51 103 0 10 5 23 12 30 9 9 9 27 0 77 -11 55 -10 69 3 95 8 16 15 40 15 53 0
13 13 36 31 53 45 42 59 76 59 138 0 62 30 117 83 152 15 11 30 29 33 41 8 29
-16 76 -44 88 -35 15 -36 46 -6 121 25 62 26 74 20 159 -6 86 -5 93 19 125 16
21 25 47 25 70 0 35 16 61 57 92 32 24 47 63 38 105 -5 21 -9 65 -9 99 -1 51
3 66 27 97 18 24 27 48 27 73 0 52 27 149 57 210 31 60 26 96 -15 116 l-27 14
3 96 c2 57 -1 98 -7 102 -5 4 -22 -5 -37 -19 l-26 -25 -19 24 c-11 13 -19 29
-19 35 0 6 -16 11 -35 11 -29 0 -38 5 -48 28 -17 38 -29 44 -52 22 -11 -10
-40 -24 -64 -31 -47 -14 -49 -13 -96 55 -18 24 -61 14 -71 -17 -7 -24 -22 -37
-41 -37 -9 0 -13 15 -13 43 0 40 -3 45 -35 60 -20 9 -48 17 -64 17 -15 0 -50
7 -77 15 -56 17 -58 17 -67 8z m-397 -3148 c0 -7 -10 -15 -23 -19 -31 -7 -67
-58 -60 -85 7 -28 35 -27 93 6 45 25 51 26 76 13 36 -20 52 -55 35 -82 -7 -11
-8 -17 -2 -13 8 4 8 -1 0 -18 -6 -14 -27 -33 -45 -43 -19 -10 -34 -23 -34 -28
0 -5 -3 -6 -7 -3 -3 4 -13 2 -20 -5 -11 -9 -16 -9 -23 2 -10 16 63 76 80 65 6
-4 10 -3 9 2 -1 4 1 21 6 37 6 23 4 32 -10 42 -15 11 -24 10 -58 -8 -87 -44
-137 -29 -137 42 0 44 30 87 74 105 33 14 46 12 46 -10z m-276 -306 c32 -38
40 -69 14 -53 -6 4 -8 2 -5 -3 4 -6 -1 -17 -10 -24 -14 -12 -16 -12 -8 0 4 8
-11 -5 -35 -29 -29 -29 -45 -39 -50 -30 -5 8 -9 7 -13 -4 -4 -9 -3 -15 1 -13
4 1 17 -8 29 -20 21 -21 53 -22 79 -2 6 5 14 5 18 1 4 -4 7 -2 6 3 -8 36 1 55
25 55 31 0 31 -6 -1 -54 -18 -26 -31 -36 -44 -33 -13 3 -17 0 -13 -9 7 -18
-42 -29 -71 -16 -12 5 -41 34 -64 64 -49 64 -55 109 -21 152 12 15 23 25 26
22 3 -2 13 4 24 15 32 32 73 25 113 -22z m-350 -83 c25 -34 25 -35 5 -31 -12
3 -19 1 -15 -2 11 -12 48 -14 61 -3 6 5 16 6 20 2 5 -4 5 -2 1 5 -9 17 12 27
30 13 12 -11 10 -17 -17 -42 -30 -29 -30 -37 1 -68 3 -3 17 -22 33 -42 30 -41
61 -55 82 -38 17 14 35 5 35 -16 0 -8 -4 -12 -10 -9 -5 3 -10 1 -10 -5 0 -7
-7 -9 -16 -6 -8 3 -12 2 -9 -4 4 -6 -7 -10 -24 -10 -33 0 -52 16 -102 91 -19
27 -40 49 -47 49 -18 0 -92 -52 -92 -65 0 -5 21 -36 47 -69 45 -56 47 -58 84
-52 47 8 61 -10 29 -36 -16 -13 -35 -18 -59 -16 -29 2 -41 11 -68 48 -71 95
-73 98 -92 93 -23 -6 -35 21 -16 37 11 9 9 15 -10 36 -20 22 -22 29 -13 49
l11 24 29 -40 28 -39 37 24 c20 14 39 23 43 21 13 -8 8 40 -8 68 -12 22 -14
31 -5 34 7 2 9 11 6 19 -9 24 3 16 31 -20z m-198 -241 c-3 -8 0 -14 6 -12 6 1
30 -25 53 -59 22 -33 51 -73 63 -88 17 -22 19 -32 11 -47 -5 -11 -15 -16 -21
-13 -6 4 -8 3 -5 -3 14 -23 -64 -73 -107 -69 -29 4 -86 51 -86 73 0 7 -4 13
-8 13 -4 0 -25 23 -46 52 -37 48 -38 52 -20 65 14 10 20 10 25 1 4 -7 5 -16 3
-20 -3 -5 -1 -7 4 -6 5 2 31 -26 59 -62 56 -73 79 -82 131 -54 26 14 32 22 27
38 -4 12 -7 27 -7 34 -1 6 -4 10 -6 7 -8 -8 -42 37 -36 47 3 4 1 7 -4 6 -14
-5 -65 61 -59 77 4 10 1 12 -11 8 -15 -6 -15 -5 -3 10 17 21 45 23 37 2z
m-406 -172 c0 -5 13 -23 28 -41 l28 -32 29 30 c41 43 86 55 125 35 18 -9 30
-19 27 -21 -2 -3 9 -19 25 -36 16 -17 26 -33 23 -36 -3 -3 4 -12 15 -19 11 -8
17 -19 14 -25 -4 -6 -2 -8 3 -5 6 4 18 -4 27 -18 15 -23 15 -25 -2 -34 -14 -7
-24 -1 -51 30 -18 22 -30 46 -27 54 3 8 0 17 -6 21 -7 4 -8 3 -4 -4 16 -26
-13 -10 -40 23 -16 19 -38 35 -49 35 -20 0 -89 -40 -70 -40 6 0 4 -4 -3 -9
-10 -6 7 -33 67 -104 73 -87 79 -97 63 -106 -16 -9 -26 -2 -61 42 -23 29 -59
72 -81 97 -22 25 -53 61 -69 80 -17 19 -29 40 -26 47 2 7 -2 10 -11 6 -17 -6
-19 8 -2 25 14 14 28 16 28 5z m-7 -166 c6 -17 -29 -40 -46 -31 -7 4 -9 3 -4
-1 4 -5 -4 -21 -18 -35 -25 -26 -25 -28 -9 -45 19 -19 43 -17 113 9 39 15 46
15 67 1 13 -8 24 -25 24 -36 0 -11 5 -17 10 -14 15 9 12 -22 -5 -56 -9 -16
-20 -27 -26 -24 -5 4 -8 1 -7 -6 2 -7 -15 -23 -37 -35 -36 -21 -41 -22 -46 -6
-4 12 6 24 38 44 34 22 43 33 43 57 0 51 -23 58 -86 28 -30 -15 -60 -27 -67
-27 -25 0 -60 48 -59 82 1 36 33 84 55 82 9 -1 13 4 10 12 -3 10 3 14 20 14
14 0 27 -6 30 -13z m-5331 -1924 c10 -9 18 -25 18 -35 0 -10 11 -23 24 -28 51
-19 54 -74 6 -100 -42 -23 -79 -5 -83 40 -1 12 -14 31 -29 42 -15 10 -28 27
-28 37 0 23 35 54 69 60 3 1 13 -6 23 -16z m4956 -1495 c7 -7 12 -20 12 -30 0
-11 7 -18 20 -18 11 0 27 -11 35 -24 22 -33 5 -71 -41 -93 l-36 -18 -25 29
c-13 16 -22 35 -19 42 3 8 0 14 -6 14 -17 0 -48 31 -48 47 0 22 47 63 73 63
12 0 28 -5 35 -12z m-99 -134 c54 -62 55 -106 4 -133 -30 -15 -53 -14 -53 4 0
9 9 15 25 15 29 0 53 36 36 53 -8 8 -17 5 -34 -11 -30 -28 -52 -28 -82 3 -33
32 -32 68 1 94 39 31 58 26 103 -25z m-375 -335 c30 -36 33 -70 9 -91 -37 -31
-54 -30 -89 8 -38 39 -42 59 -18 92 23 33 66 29 98 -9z m-129 -70 c50 -65 63
-91 42 -90 -3 0 -18 -11 -31 -24 -14 -14 -30 -25 -37 -25 -18 0 -79 69 -79 90
0 19 20 45 42 53 10 3 11 9 1 26 -7 11 -13 25 -13 31 0 24 22 5 75 -61z"/>
</g>
</svg>
