<?xml version="1.0" standalone="no"?>
<!DOCTYPE svg PUBLIC "-//W3C//DTD SVG 20010904//EN"
 "http://www.w3.org/TR/2001/REC-SVG-20010904/DTD/svg10.dtd">
<svg version="1.0" xmlns="http://www.w3.org/2000/svg"
 width="683.000000pt" height="754.000000pt" viewBox="0 0 683.000000 754.000000"
 preserveAspectRatio="xMidYMid meet">
<metadata>
Created by potrace 1.16, written by Peter Selinger 2001-2019
</metadata>
<g transform="translate(0.000000,754.000000) scale(0.100000,-0.100000)"
fill="#000000" stroke="none">
<path d="M1607 7429 c-7 -50 8 -77 43 -81 19 -2 26 -10 28 -31 2 -15 12 -33
23 -40 24 -15 27 -88 4 -107 -8 -7 -15 -22 -15 -33 0 -12 -15 -34 -32 -49 -36
-31 -44 -33 -53 -18 -10 16 -35 -15 -35 -44 0 -14 6 -29 13 -33 21 -14 47 -70
47 -104 0 -20 -9 -42 -21 -56 -21 -22 -21 -24 -6 -65 9 -24 20 -64 23 -90 7
-47 6 -48 -19 -48 -15 0 -41 -6 -59 -14 -18 -8 -49 -21 -70 -30 -20 -9 -41
-16 -47 -16 -13 0 -25 -44 -18 -69 2 -10 1 -24 -3 -31 -4 -7 -2 -28 6 -46 11
-26 12 -44 4 -76 -5 -24 -10 -56 -10 -73 0 -40 -38 -60 -77 -40 -15 8 -31 12
-35 9 -5 -3 -22 0 -39 6 -23 10 -32 10 -44 0 -13 -11 -17 -8 -28 19 -6 17 -19
31 -28 31 -9 0 -22 13 -29 29 -6 16 -21 32 -33 35 -12 3 -34 17 -49 31 -33 31
-43 31 -93 0 -22 -14 -48 -25 -57 -25 -9 0 -24 -7 -33 -16 -19 -19 -4 -44 26
-44 10 0 23 -9 29 -20 10 -18 8 -20 -18 -20 -24 0 -31 -7 -47 -42 -24 -53 -29
-85 -15 -93 15 -9 12 -41 -6 -56 -12 -10 -15 -24 -10 -56 6 -49 -7 -63 -43
-44 -18 10 -21 7 -32 -29 -11 -34 -16 -40 -41 -40 -15 0 -28 -6 -29 -12 -2
-25 2 -64 12 -102 10 -36 12 -38 40 -32 27 5 31 2 41 -24 7 -23 16 -30 35 -30
23 0 25 -3 19 -35 -7 -34 -6 -35 27 -35 38 0 51 -11 61 -53 4 -17 16 -31 31
-37 14 -5 25 -14 25 -20 0 -5 7 -10 15 -10 8 0 15 -9 15 -19 0 -10 -7 -21 -15
-25 -8 -3 -15 -1 -15 4 0 13 -45 13 -68 0 -9 -5 -29 -14 -45 -20 -18 -6 -34
-24 -46 -52 -11 -24 -29 -64 -41 -90 -25 -56 -42 -72 -69 -63 -47 15 -86 -78
-57 -136 15 -31 15 -35 -5 -76 -13 -28 -31 -48 -48 -54 -14 -5 -40 -17 -58
-26 -30 -16 -33 -16 -51 0 -10 9 -33 17 -50 17 -28 0 -32 -3 -32 -27 0 -16 -4
-34 -9 -42 -7 -10 -4 -20 9 -31 12 -10 16 -21 11 -29 -6 -9 -11 -10 -15 -2
-10 16 -36 13 -36 -4 0 -9 -9 -15 -21 -15 -27 0 -19 -24 9 -28 12 -2 22 -10
22 -19 0 -13 -8 -15 -45 -10 -50 7 -69 -7 -31 -24 36 -17 38 -33 12 -72 -13
-19 -27 -53 -31 -76 -7 -40 -6 -41 23 -41 39 0 54 -19 46 -59 -5 -26 -3 -31
12 -31 21 -1 54 -22 54 -36 0 -5 -9 -15 -20 -22 -20 -12 -28 -62 -10 -62 6 0
10 -7 10 -15 0 -8 -4 -15 -10 -15 -14 0 -12 -28 5 -75 26 -73 20 -96 -33 -130
-43 -28 -68 -65 -43 -65 6 0 29 -11 51 -25 22 -14 46 -25 54 -25 7 0 19 -7 26
-15 7 -8 20 -15 30 -15 11 0 20 -10 23 -27 4 -22 -3 -37 -36 -74 -65 -72 -87
-100 -87 -110 0 -5 -4 -9 -8 -9 -4 0 -16 -14 -27 -32 -10 -18 -34 -47 -52 -66
-42 -41 -43 -73 -3 -112 38 -37 38 -47 0 -55 -17 -4 -30 -10 -30 -15 0 -4 -12
-11 -26 -14 -40 -10 -63 -38 -80 -97 -9 -30 -20 -59 -26 -66 -5 -6 -6 -28 -2
-47 4 -24 2 -36 -5 -36 -6 0 -11 -7 -11 -15 0 -9 9 -15 23 -15 12 0 40 -9 61
-20 41 -20 56 -19 56 6 0 8 7 14 15 14 8 0 15 -4 15 -10 0 -14 43 -13 57 1 8
8 16 4 29 -16 14 -22 23 -26 48 -22 23 3 39 -2 60 -20 28 -23 36 -24 81 -8 16
5 17 5 5 -4 -13 -9 -13 -11 2 -11 15 0 15 -3 -2 -37 -11 -23 -14 -40 -9 -44 6
-3 9 -10 7 -15 -2 -5 2 -11 7 -12 20 -7 35 -24 29 -34 -3 -5 -13 -7 -21 -3
-13 5 -14 3 -3 -10 9 -11 15 -12 20 -5 10 17 40 0 37 -21 -5 -28 -17 -36 -17
-11 0 12 -4 22 -10 22 -5 0 -7 -8 -3 -17 3 -10 -8 -2 -25 17 -16 19 -28 38
-25 43 2 4 -1 7 -7 7 -7 0 -10 7 -7 14 4 10 1 13 -9 9 -7 -3 -14 -1 -14 4 0 5
-20 10 -44 12 -43 2 -44 1 -48 -33 -2 -19 0 -32 4 -30 4 3 8 0 8 -5 0 -6 -8
-12 -17 -12 -24 -2 -25 -2 -48 7 l-20 7 20 -17 c11 -10 15 -15 9 -12 -7 3 -14
-1 -18 -9 -3 -8 -11 -15 -17 -15 -8 0 -8 4 1 15 9 10 9 15 1 15 -6 0 -11 -3
-12 -7 -6 -59 -3 -74 16 -78 32 -8 69 -2 84 13 19 18 26 7 10 -15 -16 -21 -39
-28 -39 -12 0 5 -5 7 -10 4 -8 -5 -7 -12 1 -22 11 -12 8 -13 -17 -8 -22 5 -25
4 -14 -4 12 -8 11 -10 -7 -8 -12 0 -19 5 -16 10 3 4 -3 7 -12 5 -11 -2 -21 6
-27 21 -8 24 -8 24 10 8 10 -9 22 -17 27 -17 4 0 -4 9 -19 21 -14 11 -23 25
-20 31 4 6 -2 5 -15 -1 -11 -7 -21 -18 -21 -26 0 -8 -11 -22 -24 -30 -14 -9
-29 -30 -35 -46 -6 -17 -15 -28 -20 -25 -5 3 -16 3 -25 0 -19 -7 -22 -50 -4
-57 10 -3 10 -7 -1 -20 -7 -10 -10 -17 -6 -17 4 0 2 -7 -5 -15 -11 -13 -10
-15 6 -9 14 4 13 1 -6 -15 -14 -11 -33 -23 -42 -27 -10 -3 -18 -14 -18 -24 0
-11 -7 -23 -16 -28 -9 -5 -18 -20 -19 -34 -3 -24 -2 -25 39 -16 22 5 50 9 61
10 11 0 14 2 8 5 -20 7 -15 23 7 23 11 0 20 -4 20 -8 0 -16 -55 -61 -83 -67
-15 -4 -30 -11 -32 -16 -8 -12 17 -49 33 -49 7 0 20 -4 30 -9 9 -5 24 -12 33
-15 10 -2 25 -23 35 -45 10 -23 21 -41 26 -41 4 0 8 -7 8 -15 0 -8 5 -15 10
-15 15 0 11 -52 -6 -75 -9 -12 -12 -30 -8 -47 4 -21 1 -30 -13 -35 -29 -11
-43 -30 -43 -57 0 -16 -6 -26 -15 -26 -10 0 -15 -11 -15 -35 0 -19 5 -35 10
-35 6 0 10 -17 10 -37 1 -21 7 -56 15 -77 16 -47 11 -60 -20 -52 -13 3 -27 2
-30 -4 -3 -5 -1 -10 4 -10 17 0 13 -48 -5 -58 -11 -6 -14 -16 -9 -31 5 -16 14
-21 40 -21 33 0 34 -1 24 -30 -9 -24 -17 -30 -41 -30 -23 0 -29 -4 -26 -17 2
-10 13 -19 26 -21 25 -4 28 -12 10 -30 -8 -8 -9 -18 -1 -34 13 -28 -4 -48 -40
-48 -14 0 -30 -7 -37 -15 -7 -8 -23 -15 -36 -15 -26 0 -31 -19 -12 -38 10 -10
10 -17 0 -32 -8 -13 -12 -62 -12 -140 0 -103 2 -120 16 -120 9 0 29 -8 45 -17
26 -15 32 -16 52 -4 30 19 135 16 157 -4 9 -8 22 -15 28 -15 7 0 12 -4 12 -8
0 -11 49 -34 59 -27 5 2 13 -7 20 -22 10 -22 9 -29 -3 -42 -11 -10 -16 -11
-16 -3 0 29 -60 4 -73 -30 -3 -10 -19 -18 -39 -20 -40 -4 -58 -41 -42 -85 7
-20 6 -44 -4 -85 -13 -54 -13 -60 4 -85 15 -22 19 -49 21 -123 3 -159 14 -258
30 -264 7 -3 49 -9 93 -12 48 -4 84 -12 91 -20 6 -8 18 -14 25 -14 8 0 14 -4
14 -10 0 -6 27 -10 60 -10 33 0 60 4 60 10 0 14 28 12 33 -2 5 -16 214 -15
230 1 14 14 74 14 82 1 3 -6 19 -10 35 -10 16 0 48 -9 70 -21 48 -25 67 -20
72 18 4 41 44 45 52 5 9 -40 59 -92 89 -92 40 0 117 48 117 73 0 33 11 44 62
66 54 23 78 53 78 97 0 17 3 46 6 63 6 30 9 31 55 31 37 0 54 6 75 25 15 14
34 25 43 25 9 0 34 10 56 21 32 17 50 20 99 16 32 -3 62 -10 65 -15 16 -23
181 -23 181 1 0 16 42 47 64 47 12 0 47 -25 81 -59 50 -50 67 -60 105 -65 56
-7 88 1 132 37 33 26 36 34 43 99 12 130 43 159 70 65 9 -34 19 -68 21 -75 5
-19 32 -14 44 7 13 25 13 112 0 145 -8 21 -6 28 13 41 12 8 38 15 59 15 31 0
42 6 64 35 24 32 29 34 68 29 22 -4 54 -13 70 -20 34 -16 66 -18 66 -4 0 16
30 12 48 -6 12 -13 27 -15 71 -10 30 4 57 8 59 10 11 12 32 120 32 169 0 42
-4 59 -15 63 -22 9 -22 169 0 177 13 5 13 10 0 41 -20 47 -20 50 15 89 17 19
30 38 30 42 0 29 73 49 233 63 76 7 96 17 97 48 0 14 23 24 57 24 13 0 31 7
39 15 10 9 34 15 63 15 46 0 83 20 93 51 5 14 68 3 68 -12 0 -5 19 8 42 31 42
40 62 48 73 30 13 -20 51 -10 67 18 9 15 28 34 42 42 22 11 30 11 53 -1 14 -8
28 -22 31 -31 5 -19 13 -21 77 -18 37 1 42 -2 58 -35 9 -19 17 -44 17 -55 0
-21 20 -28 68 -25 51 4 52 4 52 17 0 19 61 108 74 108 20 0 73 53 81 80 4 14
11 30 15 35 4 6 11 28 14 50 6 33 3 42 -14 55 -11 8 -20 22 -20 32 0 10 -6 18
-13 18 -7 0 -24 5 -38 12 -24 11 -25 14 -16 54 8 35 15 44 35 46 21 2 27 11
36 48 10 39 15 45 39 48 16 2 31 10 34 18 3 9 19 14 42 14 29 0 44 7 64 30 15
17 33 30 41 30 8 0 16 5 18 11 3 8 8 7 19 -2 33 -32 80 -50 109 -44 26 6 31 3
40 -19 5 -15 17 -29 25 -32 10 -4 15 -20 15 -51 0 -26 6 -51 15 -59 8 -9 15
-26 15 -40 0 -14 7 -27 15 -30 8 -4 15 -12 15 -19 0 -7 11 -16 25 -19 18 -5
25 -13 25 -31 0 -33 13 -38 39 -15 l22 19 -25 16 c-14 10 -26 21 -26 25 0 11
63 -12 83 -30 34 -31 46 -40 57 -40 5 0 10 -13 10 -29 0 -23 5 -30 27 -36 15
-3 30 -10 33 -14 3 -5 31 -10 62 -13 47 -4 61 -1 75 14 9 10 22 18 30 18 21 0
16 10 -22 47 -27 26 -35 42 -35 68 0 28 4 35 19 35 15 0 20 9 23 47 2 25 -1
50 -7 55 -5 5 -21 17 -34 28 -13 11 -30 20 -37 20 -7 0 -15 6 -17 13 -4 10 -6
10 -6 0 -1 -8 -15 -13 -36 -13 -29 0 -35 -4 -35 -21 l0 -21 -34 21 c-18 12
-41 21 -50 21 -9 0 -16 4 -16 9 0 4 -18 11 -40 14 -49 6 -77 31 -60 52 7 8 18
15 26 15 20 0 26 35 11 77 -11 34 -11 41 3 56 21 21 30 22 30 2 0 -16 8 -27
43 -66 20 -22 47 -25 47 -5 0 8 14 17 30 21 25 5 30 12 30 34 0 50 20 91 44
91 11 0 32 10 46 23 34 31 56 38 69 23 7 -8 25 -16 41 -20 20 -4 34 -14 40
-31 5 -14 16 -25 25 -25 11 0 13 -5 5 -26 -6 -14 -10 -27 -10 -30 0 -10 69 -3
72 8 5 14 65 13 82 -1 6 -5 32 -12 58 -15 26 -4 61 -14 78 -23 17 -8 41 -12
54 -9 27 7 36 31 36 95 0 25 5 60 12 78 10 28 17 33 45 33 33 0 33 0 33 50 0
55 7 59 53 35 15 -8 51 -18 78 -23 47 -9 53 -8 72 14 18 21 30 24 84 24 35 0
71 4 81 9 9 6 29 12 45 16 27 5 27 7 27 79 l0 74 31 7 c17 4 56 4 86 0 68 -8
93 9 93 64 -1 50 -20 71 -64 71 -35 0 -46 7 -80 55 -14 19 -15 19 -34 2 -19
-18 -22 -18 -46 -2 -24 16 -31 29 -38 79 -4 27 -21 30 -48 6 -27 -23 -55 -25
-92 -6 -15 8 -42 17 -60 21 -37 8 -48 20 -48 52 0 13 -10 27 -22 34 -30 16
-38 28 -38 60 0 36 -38 59 -95 59 -31 0 -47 5 -51 15 -4 9 -19 15 -35 15 -22
0 -29 5 -29 20 0 16 7 20 31 20 32 0 45 10 67 49 10 17 11 26 3 31 -29 17 -25
130 4 130 8 0 15 5 15 10 0 13 87 13 95 1 3 -6 25 -13 49 -16 28 -5 53 -16 67
-31 27 -29 34 -29 57 -6 52 55 53 58 40 88 -17 40 -27 45 -63 30 -66 -28 -88
25 -140 324 -9 52 -21 109 -27 125 -5 17 -16 54 -23 83 -13 50 -12 54 9 80 63
74 34 102 -49 47 -79 -53 -104 -44 -125 43 -6 23 -4 37 6 47 21 21 17 29 -19
46 -45 20 -57 14 -57 -30 0 -50 -22 -69 -85 -72 l-50 -3 -6 36 c-7 44 -4 49
41 74 61 33 62 40 15 91 -19 21 -35 45 -35 54 0 8 -7 24 -15 35 -8 10 -15 30
-15 45 0 14 -5 30 -12 37 -9 9 -9 15 0 24 18 18 15 38 -6 38 -10 0 -25 12 -33
28 -7 15 -32 45 -55 67 -23 22 -45 52 -48 66 -7 31 -61 88 -114 121 -20 12
-54 38 -75 57 -20 19 -51 43 -68 53 -28 17 -34 17 -77 4 -26 -9 -69 -21 -95
-27 -27 -7 -55 -19 -63 -27 -13 -13 -17 -12 -29 4 -8 11 -15 28 -15 39 0 11
-7 29 -15 39 -8 11 -15 28 -15 39 0 36 -42 97 -66 97 -12 0 -24 -5 -26 -10 -2
-6 -28 -14 -58 -17 -43 -4 -58 -2 -69 10 -11 15 -17 14 -52 -8 -21 -14 -43
-25 -47 -25 -18 0 -127 63 -136 78 -5 8 -24 32 -43 53 -32 35 -40 39 -83 39
-42 0 -52 4 -74 31 -34 40 -33 53 8 79 19 11 38 30 41 41 10 30 -6 182 -21
204 -8 11 -14 43 -14 71 0 60 -10 68 -64 53 -46 -13 -51 -9 -65 44 -22 77 -14
95 59 133 75 40 84 51 64 78 -23 33 -17 95 16 161 23 46 30 74 30 118 0 37 6
67 16 83 16 24 16 28 -15 88 -17 34 -31 69 -31 77 -1 27 -37 59 -67 59 -30 0
-70 22 -91 52 -7 10 -36 41 -64 68 -70 69 -134 84 -176 43 -7 -7 -31 -13 -52
-13 -63 0 -103 -25 -129 -80 -21 -43 -51 -74 -51 -51 0 5 -11 12 -24 15 -14 3
-26 16 -30 31 -8 30 -42 34 -51 6 -11 -35 -46 -71 -69 -71 -13 0 -31 12 -44
30 -16 21 -31 30 -50 30 -18 0 -43 13 -68 35 -48 43 -67 50 -95 34 -17 -9 -24
-8 -30 2 -20 36 -37 48 -76 54 -43 7 -43 7 -43 -24 0 -31 -15 -75 -35 -101 -7
-8 -17 -29 -24 -47 -11 -28 -11 -35 3 -48 20 -20 14 -31 -21 -40 -23 -5 -33 0
-65 34 -20 23 -44 41 -53 41 -8 0 -27 13 -41 29 -14 16 -33 30 -43 30 -60 1
-130 17 -155 34 -18 12 -24 23 -17 25 9 3 7 9 -5 23 -11 12 -19 42 -22 77 -2
31 -9 63 -14 70 -7 7 -37 12 -83 12 -78 0 -85 5 -85 57 0 37 -21 103 -34 104
-6 1 -19 0 -29 -1 -10 -1 -35 9 -55 23 -38 24 -112 36 -112 17 0 -5 -7 -10
-15 -10 -8 0 -15 5 -15 10 0 6 -7 10 -15 10 -8 0 -15 4 -15 9 0 16 -135 52
-216 58 -76 5 -83 4 -93 -16 -13 -24 -51 -29 -51 -6 0 11 -11 15 -42 15 -61 0
-133 52 -140 100 -2 21 -10 26 -43 30 -32 4 -41 9 -43 28 -2 15 -10 22 -26 22
-20 0 -24 -6 -29 -41z m1789 -4831 c67 -75 72 -125 17 -163 -21 -14 -41 -25
-44 -25 -7 0 -109 152 -109 163 0 13 65 47 91 47 14 0 34 -10 45 -22z"/>
</g>
</svg>
