<?xml version="1.0" standalone="no"?>
<!DOCTYPE svg PUBLIC "-//W3C//DTD SVG 20010904//EN"
 "http://www.w3.org/TR/2001/REC-SVG-20010904/DTD/svg10.dtd">
<svg version="1.0" xmlns="http://www.w3.org/2000/svg"
 width="495.000000pt" height="643.000000pt" viewBox="0 0 495.000000 643.000000"
 preserveAspectRatio="xMidYMid meet">
<metadata>
Created by potrace 1.16, written by Peter Selinger 2001-2019
</metadata>
<g transform="translate(0.000000,643.000000) scale(0.100000,-0.100000)"
fill="#000000" stroke="none">
<path d="M4140 6413 c0 -10 7 -27 15 -37 8 -11 15 -32 15 -47 0 -16 11 -58 24
-95 26 -72 25 -88 -4 -79 -31 10 -67 -14 -79 -54 -27 -91 -139 -161 -257 -161
-45 0 -120 17 -169 39 -89 39 -102 39 -115 6 -8 -21 -15 -25 -50 -23 -54 2
-59 -7 -23 -40 17 -15 43 -49 57 -77 15 -27 32 -57 38 -67 9 -12 9 -20 -1 -32
-12 -14 -15 -14 -29 1 -9 9 -22 26 -27 37 -6 12 -27 29 -48 38 -34 17 -39 17
-79 1 -82 -32 -106 -83 -72 -148 63 -118 66 -285 9 -460 -7 -22 -16 -86 -20
-142 l-8 -103 -31 0 c-51 1 -82 39 -100 121 -4 17 -14 29 -30 33 -34 8 -66 68
-66 122 0 25 -5 54 -10 65 -11 19 -40 27 -40 10 0 -5 -15 -18 -32 -29 -26 -16
-44 -19 -80 -15 -27 3 -48 10 -48 14 0 5 -5 9 -10 9 -9 0 -65 35 -80 50 -3 3
-24 15 -48 28 l-42 23 0 -45 c0 -43 15 -130 46 -273 19 -87 15 -107 -24 -100
-66 13 -113 28 -144 47 -32 19 -52 29 -74 35 -6 2 -21 35 -33 73 -12 39 -26
72 -32 74 -5 2 -13 29 -16 61 -4 37 -10 57 -19 57 -16 0 -54 -47 -54 -67 0
-25 32 -113 41 -113 5 0 9 -11 9 -24 0 -18 -7 -25 -29 -29 -38 -8 -51 -46 -52
-156 -2 -144 -22 -186 -90 -186 -38 0 -45 -4 -73 -42 l-31 -43 -60 6 c-33 3
-80 9 -105 14 -72 15 -168 29 -265 41 -87 10 -110 16 -167 45 -15 8 -57 14
-101 14 -73 0 -75 0 -87 -30 -17 -40 -5 -94 31 -149 38 -58 39 -118 4 -180
-19 -33 -25 -57 -25 -107 0 -49 -3 -64 -14 -64 -8 0 -18 5 -21 10 -3 6 -30 10
-58 10 -29 0 -65 7 -81 15 -15 8 -46 15 -67 15 -36 0 -38 -2 -44 -37 -11 -61
-16 -74 -28 -70 -7 2 -14 16 -17 30 -6 33 -18 26 -53 -30 -37 -58 -42 -88 -23
-118 26 -40 20 -45 -48 -45 -71 0 -93 -18 -50 -40 31 -17 30 -28 -6 -69 -17
-18 -30 -44 -30 -57 0 -13 20 -58 45 -100 25 -41 45 -83 45 -91 0 -8 -14 -33
-31 -54 -29 -37 -32 -49 -41 -152 -17 -195 -21 -204 -69 -152 -23 24 -79 35
-79 16 0 -5 -15 -12 -32 -15 -60 -12 -82 -40 -98 -128 -13 -65 2 -105 47 -123
29 -12 43 -13 75 -3 53 16 64 2 72 -90 6 -67 5 -72 -10 -58 -8 9 -21 16 -29
16 -7 0 -15 3 -17 8 -4 10 -67 42 -84 42 -20 0 -27 -40 -28 -155 -1 -82 2
-104 16 -118 9 -9 20 -17 25 -17 4 0 14 -14 22 -31 8 -18 22 -34 31 -36 11 -3
24 -27 36 -61 10 -31 27 -67 37 -79 15 -17 18 -30 13 -57 -6 -30 -3 -37 19
-53 14 -10 35 -26 47 -36 11 -9 28 -17 36 -17 25 0 59 -50 65 -94 8 -55 41
-128 72 -157 13 -13 25 -33 25 -44 0 -11 7 -29 15 -39 9 -12 15 -42 15 -72 0
-42 6 -62 30 -97 17 -25 30 -49 30 -55 0 -18 31 -22 61 -7 28 15 29 15 29 -10
0 -29 -51 -88 -58 -67 -5 17 -30 15 -48 -3 -13 -13 -13 -18 3 -40 10 -13 27
-25 39 -25 29 0 64 -33 64 -59 0 -12 -11 -32 -25 -45 -31 -29 -32 -46 -1 -46
16 0 25 -7 29 -22 3 -13 11 -38 18 -56 10 -25 11 -37 2 -51 -8 -13 -8 -22 -1
-29 6 -6 14 -86 19 -179 8 -142 13 -172 29 -195 11 -15 20 -35 20 -44 0 -9 6
-28 14 -42 7 -15 24 -49 36 -75 33 -72 127 -157 174 -157 9 0 16 -4 16 -10 0
-5 7 -10 15 -10 8 0 15 5 15 10 0 6 6 10 14 10 13 0 46 41 46 58 0 5 -13 24
-30 42 -22 25 -30 43 -30 72 0 22 -12 64 -26 95 -32 66 -45 169 -37 276 5 69
4 79 -13 92 -16 12 -17 16 -4 24 8 5 27 7 42 4 31 -6 36 5 16 36 -9 14 -8 23
5 42 10 13 17 33 17 45 0 26 26 39 34 18 4 -10 21 -14 57 -14 45 0 55 -4 85
-35 37 -38 43 -65 19 -85 -18 -15 -20 -70 -2 -70 6 0 26 4 44 9 39 11 50 1 55
-54 3 -36 6 -40 32 -43 16 -2 36 -10 44 -18 12 -13 12 -19 -3 -50 -9 -19 -15
-51 -13 -72 3 -32 7 -37 31 -40 25 -3 28 -7 23 -28 -4 -15 0 -34 10 -49 13
-19 14 -31 7 -48 -11 -25 -7 -47 10 -47 33 -1 71 -106 55 -150 -11 -30 18 -90
44 -90 26 0 31 -17 13 -44 -16 -24 -12 -76 6 -76 4 0 11 -16 15 -35 4 -25 18
-44 48 -67 22 -18 43 -35 46 -38 12 -15 40 -17 57 -5 18 15 73 20 73 8 0 -4
-9 -17 -21 -29 l-21 -22 41 -26 c57 -36 74 -34 95 14 10 22 24 40 32 40 8 0
15 8 15 18 1 9 2 24 3 32 1 12 16 15 73 15 64 0 74 3 100 28 23 21 39 27 75
27 46 0 86 22 117 64 8 10 25 28 39 40 49 42 112 105 112 113 0 5 -5 24 -10
43 -14 48 7 63 77 54 57 -7 65 -1 97 78 14 33 14 37 1 32 -8 -4 -15 -10 -15
-15 0 -4 -7 -6 -16 -2 -14 5 -13 8 7 20 l24 14 -25 -6 c-20 -5 -22 -4 -8 5 15
9 15 15 4 48 -12 35 -15 37 -58 37 -48 0 -89 22 -66 36 9 6 9 9 -4 14 -13 5
-15 12 -7 35 6 16 17 31 25 34 9 3 13 10 10 14 -3 5 6 15 19 22 43 23 29 71
-41 147 -19 20 -24 37 -24 75 0 32 -9 69 -26 105 -36 81 -39 104 -18 190 15
65 25 85 59 119 24 25 48 63 59 95 21 57 30 69 59 69 32 0 47 26 47 78 0 56 8
67 85 127 28 22 52 42 55 45 3 3 22 16 43 29 33 20 48 23 112 19 l75 -3 -7 53
c-5 46 -3 56 15 72 12 11 25 20 29 20 15 0 63 66 63 87 0 21 -15 82 -39 163
-6 19 -11 53 -11 75 0 44 -23 172 -45 250 -8 28 -22 88 -30 135 -9 47 -22 97
-30 111 -16 30 -9 41 33 54 21 6 24 12 22 58 -5 109 -3 117 28 117 45 -1 112
-73 112 -122 1 -37 36 -106 59 -113 12 -3 21 -10 21 -14 0 -5 19 -11 42 -14
24 -3 44 -11 46 -17 5 -15 69 -40 101 -40 37 1 59 21 63 60 3 34 15 45 59 54
16 4 32 19 45 42 10 20 38 57 62 82 23 25 42 51 42 58 0 24 50 64 79 64 23 0
30 -5 34 -28 6 -29 50 -55 117 -69 19 -3 43 -14 53 -24 18 -16 18 -19 3 -40
-21 -31 -20 -68 3 -98 27 -36 54 -21 85 50 15 32 30 76 32 97 9 67 14 82 27
82 7 0 24 10 36 21 23 21 23 26 17 133 -4 61 -9 137 -13 169 -5 47 -3 57 10
57 9 0 23 7 31 15 14 14 13 21 -5 71 l-21 55 28 37 c15 20 32 40 38 44 10 7
57 -11 67 -25 3 -5 19 -7 35 -5 33 3 46 36 20 50 -22 13 -20 38 9 92 32 61 31
77 -4 101 -38 25 -51 54 -51 114 0 49 17 81 67 126 l23 20 -29 46 c-16 25 -37
71 -47 103 -16 51 -17 64 -4 134 7 43 15 172 17 292 3 191 2 219 -14 252 -10
21 -21 38 -24 38 -11 0 -86 123 -93 151 -6 26 -8 27 -100 31 -56 2 -100 9
-109 17 -31 25 -31 90 1 172 l29 77 -22 28 -23 29 40 45 c51 57 71 105 65 152
-8 58 -76 188 -124 235 -41 40 -42 43 -45 115 l-3 73 -162 3 c-151 2 -163 1
-163 -15z"/>
</g>
</svg>
