<?xml version="1.0" standalone="no"?>
<!DOCTYPE svg PUBLIC "-//W3C//DTD SVG 20010904//EN"
 "http://www.w3.org/TR/2001/REC-SVG-20010904/DTD/svg10.dtd">
<svg version="1.0" xmlns="http://www.w3.org/2000/svg"
 width="1119.000000pt" height="931.000000pt" viewBox="0 0 1119.000000 931.000000"
 preserveAspectRatio="xMidYMid meet">
<metadata>
Created by potrace 1.16, written by Peter Selinger 2001-2019
</metadata>
<g transform="translate(0.000000,931.000000) scale(0.100000,-0.100000)"
fill="#000000" stroke="none">
<path d="M1286 9258 c-2 -7 -9 -35 -15 -63 -18 -74 -84 -171 -132 -191 -30
-14 -41 -26 -51 -58 -9 -30 -19 -42 -35 -44 -13 -2 -32 -20 -47 -46 -21 -36
-32 -44 -64 -50 -57 -9 -88 -37 -95 -87 -4 -28 -15 -50 -34 -68 -15 -15 -34
-37 -41 -50 -17 -30 -51 -158 -52 -193 0 -15 -7 -33 -15 -42 -8 -8 -15 -19
-15 -24 0 -6 -6 -12 -14 -15 -8 -3 -26 -30 -41 -61 -26 -53 -26 -58 -14 -108
7 -29 16 -58 21 -64 23 -32 49 -224 36 -271 -6 -21 -14 -87 -19 -148 -4 -60
-11 -126 -14 -146 -6 -31 -3 -39 19 -56 14 -12 26 -29 26 -39 0 -9 14 -46 31
-81 34 -70 35 -111 5 -191 -17 -46 -17 -50 17 -200 12 -49 23 -71 53 -101 39
-39 56 -66 90 -152 24 -58 64 -109 86 -109 9 0 23 -7 32 -15 13 -13 19 -14 36
-3 18 11 23 10 31 -4 5 -9 16 -24 24 -32 18 -18 19 -57 3 -142 l-11 -63 41
-39 c45 -43 51 -57 27 -66 -8 -3 -15 -14 -15 -25 0 -11 -13 -40 -30 -64 -16
-25 -30 -50 -30 -56 0 -6 14 -11 30 -11 28 0 30 -3 30 -37 0 -21 7 -47 15 -57
8 -11 15 -26 15 -33 0 -20 -38 -53 -61 -53 -11 0 -32 -14 -46 -31 -24 -28 -31
-31 -69 -25 -35 4 -46 1 -68 -19 -14 -13 -26 -29 -26 -35 0 -5 -13 -10 -30
-10 -29 0 -30 -1 -30 -52 -1 -31 -7 -61 -15 -72 -23 -30 -18 -57 18 -94 29
-30 30 -34 15 -43 -21 -11 -25 -88 -7 -106 8 -8 8 -17 0 -31 -9 -16 -7 -24 5
-36 8 -9 19 -16 24 -16 5 0 25 -16 44 -35 30 -30 34 -39 29 -68 -7 -45 11 -77
42 -77 14 0 25 -5 25 -12 0 -9 3 -9 11 -1 9 9 18 4 38 -18 20 -22 34 -29 63
-29 21 0 38 -4 38 -8 0 -4 16 -25 36 -46 30 -32 33 -38 15 -33 -31 8 -27 -21
4 -33 14 -5 30 -21 35 -34 5 -13 14 -27 19 -31 17 -10 13 -55 -4 -55 -8 0 -19
-16 -25 -40 -10 -38 -13 -40 -48 -40 -49 0 -86 -20 -90 -48 -3 -17 2 -22 17
-22 15 0 21 6 21 21 0 17 4 19 22 13 13 -3 25 -11 26 -15 2 -5 10 -9 17 -9 12
0 12 -6 -1 -35 -7 -19 -14 -39 -14 -45 0 -14 76 -13 100 2 15 10 22 10 32 0
14 -14 48 -16 48 -3 0 5 7 11 15 15 17 6 75 -3 75 -13 0 -13 -68 -51 -92 -51
-14 0 -39 -7 -54 -15 -16 -8 -37 -15 -46 -15 -10 0 -18 -4 -18 -9 0 -5 -18
-12 -40 -16 -22 -4 -42 -11 -46 -16 -3 -5 -14 -9 -24 -9 -10 0 -26 -7 -34 -16
-9 -8 -33 -18 -53 -21 -43 -7 -64 -25 -82 -70 -9 -23 -10 -37 -2 -51 6 -12 11
-34 11 -51 0 -20 6 -32 19 -36 43 -13 65 17 48 68 -17 51 13 76 48 41 12 -13
19 -14 28 -5 6 6 32 11 58 11 28 0 53 6 62 15 8 8 34 24 58 37 47 24 69 41 69
55 0 4 12 16 26 26 22 17 30 17 75 6 38 -10 52 -10 61 -1 19 19 37 14 64 -15
21 -23 28 -25 44 -15 45 28 110 4 110 -40 0 -23 4 -28 24 -28 17 0 27 9 36 30
9 22 19 30 37 30 13 0 31 7 39 15 20 19 43 19 50 0 8 -19 30 -19 38 0 6 17 47
12 78 -10 15 -10 14 -13 -12 -28 -17 -10 -31 -29 -35 -46 -3 -16 -13 -32 -21
-35 -8 -3 -14 -15 -14 -26 0 -17 6 -20 48 -20 37 0 53 6 74 25 15 14 34 25 43
25 14 0 13 5 -5 30 -27 38 -23 81 8 95 26 11 27 18 7 35 -16 14 -20 40 -6 40
10 0 110 -135 114 -153 1 -7 -4 -11 -12 -9 -10 2 -12 -4 -6 -25 9 -38 21 -43
88 -36 47 5 61 3 77 -12 11 -10 20 -23 20 -30 0 -21 36 -45 66 -45 16 0 52 12
79 25 35 17 75 27 132 31 81 7 84 6 107 -19 16 -17 31 -25 41 -21 20 8 51 -20
59 -52 5 -18 13 -24 34 -24 15 0 38 -7 52 -15 14 -8 33 -18 43 -21 9 -3 17
-10 17 -15 0 -5 14 -9 30 -9 25 0 30 -4 30 -25 0 -14 -7 -37 -16 -50 -23 -36
-11 -74 26 -81 22 -5 32 -15 41 -41 12 -37 53 -70 81 -65 23 4 25 -35 3 -64
-19 -25 -19 -95 0 -120 8 -10 15 -28 15 -39 0 -20 -31 -55 -49 -55 -12 0 -41
-46 -41 -64 0 -23 -18 -29 -36 -12 -20 21 -31 20 -43 -2 -7 -14 -6 -25 5 -40
13 -19 12 -23 -16 -52 -28 -29 -29 -33 -15 -53 23 -34 19 -78 -13 -112 -30
-33 -42 -56 -71 -130 -13 -34 -25 -51 -39 -53 -11 -2 -28 -12 -37 -22 -17 -19
-17 -22 0 -65 20 -53 16 -64 -17 -41 -34 24 -43 20 -78 -34 -18 -27 -36 -50
-40 -50 -15 0 -21 -34 -7 -45 66 -50 70 -54 56 -72 -11 -13 -11 -17 -1 -20 17
-6 15 -33 -3 -33 -7 0 -18 -8 -24 -17 -8 -14 -12 -15 -25 -4 -11 9 -16 10 -16
2 0 -6 -12 -11 -28 -11 -17 0 -32 -8 -40 -21 -10 -15 -20 -19 -37 -15 -17 4
-27 1 -34 -11 -8 -15 -13 -16 -30 -6 -25 15 -131 17 -131 3 0 -6 -31 -10 -74
-10 l-74 0 -21 -49 c-11 -28 -26 -53 -31 -56 -6 -3 -10 -15 -10 -26 0 -14 -7
-19 -25 -19 -20 0 -25 -6 -31 -35 -3 -20 -13 -43 -21 -51 -9 -9 -16 -37 -18
-69 -2 -56 7 -74 48 -88 11 -4 17 -17 17 -35 0 -17 12 -41 30 -62 16 -18 30
-42 30 -52 0 -10 7 -21 15 -24 23 -9 18 -23 -11 -34 -14 -6 -28 -19 -31 -30
-3 -11 -11 -20 -18 -20 -8 0 -23 -16 -35 -35 -12 -19 -26 -35 -31 -35 -5 0 -8
-19 -7 -41 1 -29 -3 -44 -15 -51 -9 -5 -17 -16 -17 -24 0 -8 -13 -23 -30 -32
-16 -9 -30 -20 -30 -24 0 -5 -6 -8 -14 -8 -21 0 -27 -27 -10 -41 8 -7 12 -19
9 -27 -4 -12 -3 -13 9 -3 8 7 21 9 27 5 7 -4 9 -3 6 2 -3 6 3 15 13 22 16 10
21 9 30 -8 8 -15 6 -21 -10 -30 -11 -6 -25 -8 -30 -5 -6 4 -7 -1 -3 -11 5 -13
3 -15 -7 -9 -8 5 -1 -8 14 -28 16 -21 25 -41 20 -48 -4 -7 -3 -9 3 -6 14 9 37
-19 28 -33 -3 -5 1 -10 10 -10 9 0 14 -4 11 -9 -4 -5 10 -5 32 0 50 12 52 11
52 -7 0 -46 -75 -58 -115 -19 -25 26 -35 52 -13 39 7 -4 8 -3 4 5 -4 6 -11 9
-15 6 -9 -5 -65 72 -66 89 0 5 -6 10 -13 12 -7 1 -9 0 -4 -2 5 -3 5 -26 -1
-53 -12 -64 17 -156 50 -156 11 -1 28 -7 37 -14 14 -12 13 -15 -10 -33 -18
-14 -24 -28 -22 -47 2 -14 -3 -30 -9 -36 -8 -6 -14 -42 -15 -88 -3 -72 -1 -78
23 -100 15 -12 28 -31 30 -42 3 -12 17 -24 37 -30 32 -9 32 -10 32 -71 0 -42
5 -65 15 -74 8 -7 15 -18 15 -25 0 -12 56 -25 79 -17 6 2 8 16 5 32 -5 22 -2
29 15 35 12 3 21 11 21 16 0 6 8 9 18 7 12 -2 20 6 27 27 9 26 15 30 47 31 21
1 35 -2 33 -7 -9 -13 17 -58 30 -52 8 2 23 -5 34 -16 12 -12 28 -21 36 -21 11
0 15 -8 13 -27 -3 -26 -1 -28 30 -25 23 2 32 -1 32 -11 0 -8 7 -20 15 -27 10
-8 15 -9 15 -2 0 18 26 3 40 -24 8 -13 16 -21 19 -16 3 5 14 11 23 15 14 5 23
-3 39 -34 14 -28 25 -39 35 -35 9 3 18 6 20 6 2 0 4 11 4 25 0 26 25 45 59 45
12 0 21 5 21 10 0 6 22 33 50 60 27 27 50 54 50 59 0 5 11 18 25 29 16 13 25
30 25 49 0 16 5 34 12 41 22 22 -15 46 -70 44 -47 -1 -49 0 -49 29 0 27 3 29
36 29 33 0 37 3 36 25 -1 14 -5 28 -8 32 -4 3 -7 17 -7 29 0 12 -7 29 -15 38
-8 8 -15 20 -15 26 0 7 -9 23 -20 37 -11 14 -20 21 -20 14 0 -15 -37 -14 -43
2 -5 15 -37 -9 -37 -28 0 -19 -20 -24 -72 -18 -41 5 -47 8 -52 35 -10 52 -7
96 9 111 10 10 13 25 9 45 -3 16 -2 38 4 48 5 11 12 35 16 55 5 31 2 41 -21
68 -15 17 -34 31 -42 31 -19 0 -97 38 -109 53 -20 25 -31 86 -21 123 8 26 7
39 -2 50 -10 12 -9 13 7 8 15 -4 16 -4 5 4 -8 6 -20 8 -27 5 -24 -9 -32 33
-33 170 -1 15 -7 30 -16 33 -8 4 -15 12 -15 20 0 8 -7 14 -15 14 -8 0 -15 7
-15 15 0 8 5 15 10 15 19 0 10 25 -15 44 -19 15 -23 24 -19 50 10 54 12 58 31
48 11 -7 21 -6 30 3 18 18 16 27 -8 54 -12 12 -19 25 -16 27 3 3 26 6 51 7 25
1 46 5 46 9 0 16 31 36 50 31 14 -4 20 -14 20 -34 0 -15 5 -31 10 -34 6 -4 9
-14 8 -23 -2 -12 3 -16 20 -14 12 2 22 -2 22 -9 0 -8 4 -8 15 1 10 9 15 9 15
1 0 -6 7 -11 15 -11 8 0 15 7 15 15 0 8 7 15 15 15 11 0 14 7 9 26 -5 20 -2
26 15 31 26 7 26 14 1 36 -22 18 -17 47 8 47 8 0 24 -8 34 -17 17 -15 19 -15
37 3 10 11 22 38 27 60 8 34 14 39 39 42 17 1 36 -2 44 -7 12 -7 10 -14 -7
-36 -12 -15 -19 -32 -15 -38 4 -6 6 -23 5 -38 -2 -22 3 -27 27 -31 20 -3 28
-1 24 8 -9 25 43 64 85 64 43 0 53 -6 45 -26 -3 -8 -19 -14 -39 -14 -59 0 -78
-61 -31 -102 11 -10 16 -22 11 -29 -4 -7 -3 -9 3 -6 6 4 22 -7 37 -23 29 -33
60 -38 94 -14 16 11 22 24 20 42 -2 21 1 27 17 27 26 0 32 -43 11 -84 -21 -40
-75 -56 -122 -36 -19 8 -34 18 -34 23 0 5 -19 28 -42 52 -24 24 -37 40 -29 35
9 -5 12 -4 8 3 -5 7 -15 7 -32 -1 -22 -11 -25 -18 -25 -73 0 -43 5 -65 15 -74
36 -30 -7 -43 -49 -14 -23 14 -25 14 -40 -17 -9 -18 -16 -42 -16 -54 0 -13 -7
-28 -15 -35 -19 -16 -19 -26 1 -34 21 -8 57 12 51 28 -6 16 2 28 31 44 19 11
26 11 40 0 9 -7 13 -8 9 -2 -7 12 19 28 32 19 7 -4 11 10 12 48 0 10 -12 27
-26 39 -21 16 -23 23 -14 34 10 12 14 12 30 -2 10 -9 16 -21 12 -27 -3 -5 -1
-7 4 -4 14 9 37 -19 28 -33 -3 -5 -1 -10 4 -10 6 0 10 -3 10 -7 -4 -25 3 -43
16 -43 8 0 15 -5 15 -10 0 -6 -7 -13 -15 -16 -10 -4 -15 -20 -15 -45 0 -32 3
-39 20 -39 11 0 20 4 20 9 0 5 11 16 25 25 23 15 26 15 45 -1 11 -10 20 -28
20 -41 0 -42 66 -42 85 0 14 31 40 30 40 -2 0 -33 32 -39 52 -10 14 20 17 21
25 6 15 -28 37 -18 49 23 10 34 9 42 -5 57 -10 9 -13 20 -9 23 5 3 12 13 15
22 4 11 14 15 31 12 21 -4 25 -1 29 26 3 21 0 31 -9 31 -7 0 -13 5 -13 10 0 6
-11 10 -25 10 -34 0 -41 24 -16 49 24 24 41 27 41 7 0 -7 12 -22 28 -31 15
-10 36 -29 48 -43 14 -17 23 -22 28 -14 9 15 76 16 76 1 0 -6 -11 -25 -24 -42
-24 -31 -26 -36 -26 -57 0 -5 -16 -10 -35 -10 -28 0 -37 -5 -50 -30 -8 -16
-15 -50 -15 -76 0 -40 5 -51 32 -75 24 -22 34 -26 45 -18 22 19 16 69 -13 95
-14 13 -23 28 -20 33 10 16 50 0 77 -31 18 -21 35 -30 55 -30 16 0 32 -5 36
-12 5 -6 5 10 2 36 -6 45 -5 48 17 48 13 0 33 11 45 25 18 21 23 23 28 10 3
-8 17 -15 31 -15 14 0 25 -4 25 -9 0 -5 18 -11 40 -15 23 -3 49 -12 60 -18 15
-10 27 -9 56 1 22 8 52 11 79 6 37 -5 47 -3 65 15 19 19 19 22 5 37 -9 8 -14
22 -11 30 3 8 6 17 6 19 0 2 6 4 14 4 8 0 16 7 20 15 3 9 0 15 -9 15 -22 0
-18 12 11 40 24 22 27 23 39 7 15 -21 48 -22 66 -1 8 10 22 14 41 10 27 -5 58
14 58 36 0 22 63 89 78 83 8 -3 21 0 30 7 8 7 36 13 61 13 40 0 46 3 49 22 3
18 9 22 30 21 68 -4 91 1 94 25 2 13 11 23 24 25 18 3 24 -6 38 -47 9 -27 16
-72 16 -98 0 -45 2 -50 30 -60 20 -8 30 -18 30 -32 0 -14 6 -21 19 -21 14 0
28 -16 45 -49 l25 -50 -21 -23 c-24 -28 -40 -66 -32 -79 3 -5 -8 -21 -25 -35
-17 -14 -31 -35 -31 -47 0 -20 0 -20 -14 -1 -12 15 -18 17 -33 8 -27 -17 -27
-42 -1 -64 28 -24 88 -27 88 -5 0 8 7 15 15 15 9 0 14 8 12 22 -3 26 56 66 76
50 6 -5 24 -12 38 -15 19 -5 29 -17 39 -47 7 -22 19 -40 27 -40 18 0 17 45 -2
74 -16 24 -23 91 -12 102 4 4 17 -1 29 -10 13 -9 38 -28 57 -42 38 -27 60 -20
42 14 -7 14 -8 23 -1 27 5 3 10 20 10 37 0 26 2 29 15 18 8 -7 15 -25 15 -40
0 -39 10 -61 24 -53 25 16 45 12 48 -10 4 -28 28 -32 95 -17 61 13 66 27 27
73 -30 36 -21 47 43 47 59 0 89 14 97 44 7 30 14 31 50 12 l27 -14 -32 -32
c-29 -28 -31 -35 -20 -52 14 -22 12 -26 -21 -42 -12 -6 -26 -26 -31 -46 -7
-29 -6 -37 12 -51 12 -10 21 -21 21 -26 0 -14 -35 -39 -63 -47 -48 -12 -26
-56 27 -56 16 0 44 11 62 25 41 31 49 31 78 0 27 -29 34 -30 72 -10 16 8 50
15 75 15 38 0 50 -5 73 -30 l27 -31 34 36 c19 19 35 40 35 45 0 5 7 7 15 4 8
-4 15 -11 15 -18 0 -6 10 -17 21 -25 28 -17 42 1 33 41 -4 20 4 47 26 90 17
36 26 64 20 66 -15 5 -12 104 5 127 15 18 17 18 44 2 25 -15 30 -15 41 -2 7 8
17 15 23 15 12 0 45 -37 52 -59 6 -19 81 -61 108 -61 25 0 47 11 47 24 0 6
-14 20 -30 31 -42 28 -39 48 5 43 35 -4 35 -4 29 29 l-6 33 61 0 c36 0 61 -4
61 -11 0 -5 17 -25 37 -44 27 -25 34 -37 26 -47 -5 -7 -13 -23 -16 -35 -5 -21
-2 -23 33 -23 22 0 41 -4 45 -9 3 -6 26 -13 52 -17 32 -5 53 -15 69 -33 20
-24 29 -26 102 -27 86 -1 128 -18 111 -44 -5 -8 -9 -41 -9 -72 0 -58 0 -58 30
-58 29 0 70 -29 70 -50 0 -5 24 -10 54 -10 35 0 58 -5 66 -15 7 -8 24 -15 39
-15 14 0 34 -7 44 -14 16 -12 23 -12 52 -1 30 13 34 13 51 -6 13 -15 15 -22 6
-31 -7 -7 -12 -18 -12 -25 0 -16 52 -17 68 -1 9 9 12 7 12 -9 0 -11 -7 -23
-15 -27 -9 -3 -15 -19 -15 -41 0 -35 0 -35 45 -35 25 0 45 -4 45 -10 0 -5 7
-10 15 -10 10 0 15 -10 15 -29 0 -26 3 -29 46 -35 76 -10 74 -11 74 44 0 28
-4 50 -10 50 -16 0 -12 19 10 42 19 20 20 21 39 4 11 -10 39 -20 63 -23 24 -3
46 -10 49 -15 8 -13 89 -14 97 -2 17 26 52 35 88 24 19 -7 42 -9 50 -6 10 4
18 -4 26 -24 9 -28 13 -30 63 -30 l54 0 -9 -30 c-7 -25 -5 -32 12 -41 15 -8
19 -8 14 0 -4 6 -3 11 3 11 14 0 32 -35 23 -45 -4 -5 -2 -5 4 -2 14 8 58 -38
50 -52 -4 -5 -1 -13 5 -17 8 -5 9 -3 4 7 -7 12 -6 12 9 0 10 -9 15 -23 12 -34
-3 -14 -2 -17 6 -9 7 7 17 7 34 0 12 -6 30 -8 38 -5 9 4 19 6 22 6 13 -1 34
55 28 70 -4 9 -6 20 -5 24 1 5 -3 6 -8 2 -11 -6 -33 28 -26 39 3 3 2 4 -2 1
-9 -7 -43 25 -43 42 0 7 -3 13 -7 13 -5 0 -16 12 -26 25 -17 23 -17 25 4 36
20 10 21 9 17 -9 -4 -14 -2 -19 7 -16 15 6 58 -50 47 -61 -4 -5 -2 -5 4 -2 9
5 65 -52 88 -90 18 -31 -52 -107 -111 -119 -31 -6 -100 33 -95 54 1 7 -4 11
-10 10 -7 -2 -12 3 -10 10 1 6 -1 11 -5 11 -21 -3 -24 3 -12 18 12 14 12 16
-1 8 -8 -5 -30 -8 -48 -6 -19 1 -33 -2 -31 -7 2 -5 32 -40 67 -77 35 -38 61
-74 58 -82 -3 -7 -2 -12 2 -10 4 1 8 -2 10 -8 2 -5 -1 -11 -7 -13 -14 -5 -72
59 -64 71 3 6 1 7 -5 3 -6 -3 -17 2 -24 11 -7 10 -26 29 -42 43 l-28 25 2 -40
c3 -59 1 -65 -15 -65 -24 0 -17 -36 13 -62 15 -13 38 -36 51 -51 l24 -27 -21
-19 c-12 -10 -22 -25 -22 -34 0 -8 -13 -29 -30 -45 -33 -34 -36 -48 -15 -76
17 -22 4 -46 -24 -46 -17 0 -51 -33 -51 -50 0 -6 -6 -10 -12 -10 -7 0 1 -14
19 -30 18 -17 43 -30 57 -30 28 0 32 -10 14 -39 -9 -15 -8 -22 5 -35 8 -9 18
-16 21 -16 14 0 129 -82 147 -104 11 -14 25 -26 31 -26 5 0 30 -21 56 -46 43
-43 48 -46 86 -40 28 4 50 16 68 36 33 36 49 37 88 8 26 -19 34 -20 68 -10 22
7 53 9 71 6 48 -10 61 8 61 80 0 59 2 64 35 93 23 21 35 40 35 57 0 27 27 66
46 66 6 0 30 14 52 30 36 26 42 35 42 68 0 20 11 55 24 78 14 25 22 52 19 66
-3 17 6 35 36 67 45 49 45 55 -13 109 -33 31 -36 38 -36 92 0 49 4 61 22 74
12 9 33 16 46 16 28 0 71 21 94 47 16 17 28 88 18 96 -3 2 -17 11 -33 20 -23
15 -27 24 -27 60 0 53 -13 67 -61 67 -22 0 -47 8 -64 22 -23 18 -27 26 -22 60
4 30 1 40 -13 48 -11 6 -27 36 -37 68 -10 31 -24 63 -31 71 -11 11 -12 30 -8
72 6 51 4 60 -15 78 l-22 21 28 57 c21 41 30 77 33 126 l4 68 44 19 c23 11 48
20 53 20 6 0 20 14 33 30 12 17 28 30 35 30 7 0 13 5 13 10 0 6 10 10 23 10
12 1 40 9 62 20 22 11 46 19 53 20 18 0 62 30 90 60 21 22 33 25 90 25 61 1
87 9 132 42 2 2 -11 17 -30 34 l-35 30 25 19 c14 11 39 24 55 28 22 6 30 14
30 31 0 12 7 26 15 31 16 10 33 3 25 -11 -3 -5 1 -6 9 -3 8 3 25 27 37 52 25
52 42 69 79 79 30 8 85 60 94 89 3 11 20 36 36 54 24 27 38 34 81 38 46 4 54
2 70 -19 10 -13 19 -34 19 -45 0 -28 32 -36 105 -28 51 6 55 9 55 33 0 45 22
66 66 63 21 -2 42 -8 45 -14 6 -9 14 -9 31 -1 20 9 28 7 53 -14 l29 -25 17 21
c18 22 53 28 64 11 16 -27 61 1 83 52 10 24 8 31 -13 56 -23 27 -48 42 -129
77 -21 10 -66 44 -98 76 -32 33 -65 59 -71 59 -7 0 -23 -7 -36 -16 -22 -16
-26 -16 -55 2 -17 10 -46 33 -65 51 -45 44 -119 79 -134 64 -19 -19 -27 -13
-46 32 -23 53 -42 69 -78 67 -15 -1 -33 -2 -40 -1 -16 1 -32 32 -37 68 -2 15
-12 45 -22 66 -22 45 -12 57 49 57 24 0 46 7 60 20 15 14 29 19 47 15 18 -4
31 0 43 13 15 17 16 23 4 58 -8 23 -11 52 -7 71 l7 33 -51 -1 c-29 -1 -61 3
-72 9 -10 6 -31 13 -45 16 -14 3 -31 17 -39 31 -12 22 -20 25 -67 25 -49 0
-54 2 -64 27 -15 41 -8 68 21 71 14 2 39 10 57 18 17 8 44 14 60 14 32 0 54
29 50 65 -2 16 5 21 33 23 19 2 37 8 41 13 11 19 102 22 143 5 26 -11 43 -13
56 -6 10 5 50 13 89 16 67 6 71 8 81 37 5 16 10 33 10 37 0 17 -43 50 -66 50
-26 0 -34 5 -84 52 -18 18 -39 28 -58 28 -35 0 -82 38 -82 67 0 15 -8 22 -30
27 -27 5 -30 9 -30 46 0 49 -20 61 -62 37 -15 -9 -28 -12 -28 -7 0 6 -6 10
-14 10 -25 0 -43 44 -48 120 -5 71 -27 135 -52 153 -6 4 -27 6 -46 5 -34 -3
-35 -2 -34 32 0 19 4 43 8 53 7 14 2 20 -23 28 -17 6 -31 15 -31 21 0 16 -23
34 -53 42 -22 5 -27 12 -27 36 0 24 -6 31 -35 41 -32 12 -35 16 -35 55 0 34
-4 44 -20 49 -11 3 -20 10 -20 15 0 5 -17 12 -37 16 -21 4 -42 10 -48 14 -5 4
-31 10 -56 12 -38 4 -54 13 -87 47 l-40 41 -95 7 c-81 5 -99 3 -125 -13 -25
-14 -34 -16 -44 -6 -15 15 -75 16 -80 1 -2 -6 1 -37 6 -69 8 -49 7 -62 -8 -85
-9 -14 -28 -30 -42 -35 -13 -5 -24 -14 -24 -20 0 -5 -9 -10 -20 -10 -18 0 -90
67 -154 145 l-24 30 -165 0 -165 0 -22 28 c-22 27 -24 28 -119 26 -53 0 -104
2 -113 6 -23 9 -29 31 -12 45 17 15 18 44 1 62 -24 27 -38 59 -44 106 -11 84
-72 109 -129 52 l-31 -29 -107 6 c-113 6 -121 10 -174 77 -9 11 -29 16 -67 16
-49 0 -57 4 -94 39 -23 22 -51 43 -64 47 -12 4 -39 18 -59 30 -21 13 -47 24
-59 24 -12 0 -39 19 -64 46 -42 46 -43 47 -91 41 -113 -14 -128 -20 -137 -53
-5 -17 -21 -38 -36 -47 -27 -16 -28 -16 -54 16 -50 63 -75 86 -101 93 -14 3
-26 10 -26 14 0 5 -13 11 -30 15 -16 4 -30 10 -30 15 0 5 -13 11 -30 15 -16 4
-30 11 -30 16 0 5 -8 9 -18 9 -26 0 -147 64 -174 92 -13 13 -39 31 -60 42 -20
10 -50 38 -67 61 -17 24 -40 47 -51 50 -11 4 -20 11 -20 16 0 5 -7 9 -15 9 -8
0 -15 -6 -15 -13 0 -13 -31 -47 -42 -47 -3 0 -9 21 -13 47 -7 51 -26 72 -64
73 -14 0 -37 15 -57 36 -30 31 -34 42 -34 89 0 61 -5 65 -80 65 -27 0 -51 4
-54 9 -3 5 -22 12 -41 15 -19 4 -35 11 -35 16 0 6 -7 10 -17 10 -9 0 -43 28
-75 61 -51 54 -65 62 -103 67 -25 2 -45 9 -45 13 0 5 -5 9 -11 9 -6 0 -41 20
-78 44 -36 24 -77 46 -91 49 -14 4 -41 20 -60 37 -38 34 -52 37 -70 15 -7 -8
-17 -15 -22 -15 -14 0 -77 71 -94 107 l-15 31 -32 -16 c-62 -34 -70 -53 -41
-111 19 -39 8 -57 -30 -47 -19 5 -26 13 -26 30 0 26 -17 36 -61 36 -31 0 -71
21 -104 55 -11 11 -33 30 -49 43 -16 12 -34 33 -40 45 -10 19 -21 22 -74 25
-34 2 -62 6 -62 11 0 13 -72 81 -86 81 -17 0 -24 -24 -24 -91 l0 -58 -53 -26
c-64 -30 -91 -31 -118 -6 -15 14 -18 23 -11 42 15 40 5 49 -54 49 -65 0 -91
20 -100 80 l-7 40 -57 0 c-66 0 -90 -18 -90 -67 0 -17 -8 -37 -19 -47 -17 -16
-20 -16 -35 -1 -9 9 -16 25 -16 35 0 11 -5 30 -12 44 -9 20 -14 23 -25 15 -7
-6 -13 -17 -13 -24 0 -7 -7 -18 -15 -25 -19 -16 -45 9 -45 44 0 26 -25 37 -32
15 -2 -7 -34 -13 -78 -15 l-74 -3 -63 66 -63 66 -65 -5 -65 -6 -27 44 c-16 25
-38 47 -50 50 -23 6 -53 58 -53 92 0 13 -9 22 -27 27 -15 3 -31 12 -35 18 -12
20 -131 15 -152 -6 -10 -9 -26 -17 -37 -17 -10 0 -19 -4 -19 -10 0 -5 -6 -10
-13 -10 -7 0 -18 22 -24 50 -26 110 -54 140 -130 140 -29 0 -43 8 -75 42 -37
41 -46 58 -30 58 21 0 62 47 62 72 0 42 21 51 98 44 38 -4 76 -4 85 0 30 11
19 33 -20 40 -51 9 -136 35 -147 45 -6 5 -16 9 -24 9 -8 0 -36 13 -63 29 -26
17 -64 33 -85 37 -41 7 -114 74 -114 102 0 5 -20 28 -45 51 -25 23 -56 59 -69
80 -58 91 -117 121 -242 121 -71 0 -74 -1 -98 -33 -15 -19 -26 -39 -26 -45 0
-7 -7 -12 -15 -12 -8 0 -15 -4 -15 -9 0 -5 -12 -12 -26 -15 -30 -8 -47 -23
-57 -48 -4 -11 -17 -18 -31 -18 -27 0 -79 -25 -107 -52 -42 -40 -79 23 -79
131 0 67 -1 71 -22 71 -27 -1 -68 -32 -68 -52 0 -28 -24 -38 -97 -38 l-73 0
-16 38 c-8 20 -20 73 -25 117 -6 44 -13 97 -16 118 -3 24 1 50 12 73 9 20 23
70 30 110 13 77 18 85 73 141 31 31 32 36 26 81 -4 36 -2 57 10 80 9 17 16 42
16 56 0 21 -6 26 -35 32 -21 4 -49 21 -72 45 -26 27 -56 45 -93 56 -30 10 -66
25 -79 35 -28 21 -50 23 -55 6z m1494 -4218 c11 -11 20 -27 20 -35 0 -8 9 -15
20 -15 11 0 27 -12 36 -26 16 -24 16 -27 -3 -52 -29 -39 -67 -50 -93 -27 -11
10 -20 29 -20 42 0 15 -6 23 -18 23 -25 0 -45 36 -32 60 10 19 48 50 62 50 5
0 17 -9 28 -20z m-81 -145 c46 -50 51 -75 21 -105 -21 -21 -60 -27 -60 -10 0
6 8 10 18 10 35 0 51 31 32 60 -9 13 -13 12 -28 -6 -26 -33 -55 -37 -85 -13
-32 25 -38 82 -9 98 37 22 68 12 111 -34z m5059 -1339 c7 -14 19 -26 26 -26
15 0 40 -27 49 -52 9 -25 -29 -68 -60 -68 -29 0 -63 25 -63 47 0 8 -16 29 -35
47 -40 38 -39 68 4 91 31 16 58 3 79 -39z m-91 -103 c37 -40 43 -54 41 -83 -2
-27 -9 -37 -29 -44 -15 -5 -35 -6 -45 -1 -16 6 -14 9 14 17 38 10 50 31 32 53
-11 14 -15 13 -27 -5 -42 -60 -148 25 -108 86 27 41 70 32 122 -23z m-508
-439 c47 -62 55 -84 29 -84 -5 0 -19 -11 -30 -25 -26 -34 -61 -32 -87 4 -28
40 -26 58 10 92 25 24 29 32 19 44 -10 12 -7 35 5 35 2 0 27 -30 54 -66z
m-3807 -402 c-3 -44 -7 -60 -15 -55 -7 4 -6 -1 2 -10 7 -9 11 -24 7 -32 -3 -9
-2 -13 4 -10 6 4 45 -1 88 -11 42 -9 83 -17 90 -17 9 0 6 -7 -6 -20 -15 -15
-27 -17 -51 -12 -17 4 -29 11 -26 16 4 5 -1 6 -9 3 -8 -3 -22 -1 -32 4 -54 30
-74 -32 -24 -75 33 -28 37 -38 16 -46 -10 -4 -41 24 -88 77 -137 154 -139 157
-125 175 10 14 10 14 -5 3 -15 -12 -19 -10 -32 16 -13 25 -13 32 -2 41 11 9
28 -6 82 -74 70 -86 84 -98 84 -69 0 9 5 12 13 8 10 -6 10 -4 0 7 -7 7 -13 35
-13 62 0 39 5 53 23 67 12 10 22 18 22 17 1 -1 -1 -30 -3 -65z m-981 -832 c18
-10 49 -59 49 -79 0 -5 -28 -28 -62 -51 -66 -44 -90 -70 -64 -70 8 0 16 -5 18
-11 7 -22 53 -15 81 13 15 14 27 31 27 37 0 6 9 11 20 11 17 0 18 -3 9 -27
-17 -45 -76 -93 -115 -93 -9 0 -23 8 -31 18 -10 11 -12 12 -8 2 6 -13 -1 -6
-45 47 -42 51 -68 143 -40 143 6 0 10 -5 10 -12 0 -6 3 -8 6 -5 4 4 1 13 -6
22 -11 14 -9 19 6 13 3 -2 10 5 16 15 18 33 89 48 129 27z m6641 -11 c15 -8
19 -8 14 0 -4 6 -2 11 4 11 23 0 48 -20 68 -54 17 -29 18 -37 7 -46 -8 -7 -19
-9 -24 -6 -5 4 -13 1 -17 -5 -5 -8 -3 -9 7 -4 8 5 5 -1 -5 -13 -11 -12 -21
-20 -23 -18 -3 2 -18 -10 -34 -26 -27 -29 -28 -32 -13 -49 28 -31 87 -9 105
38 6 16 17 23 34 23 29 0 28 -4 -12 -58 -13 -18 -29 -30 -34 -26 -5 3 -8 0 -7
-7 4 -18 -68 -36 -90 -23 -9 6 -34 35 -54 64 -48 67 -52 127 -13 166 14 14 30
22 37 18 6 -4 8 -3 4 4 -5 8 3 16 22 21 2 1 13 -4 24 -10z m-262 -141 c0 -10
32 2 53 21 16 13 19 13 27 1 15 -23 12 -28 -20 -45 -16 -9 -30 -18 -30 -21 0
-15 87 -124 102 -129 10 -4 26 -1 37 4 14 8 22 7 32 -5 11 -14 10 -18 -6 -30
-22 -16 -68 -18 -95 -4 -10 5 -37 39 -60 76 l-41 65 -27 -17 c-38 -24 -72 -56
-72 -67 0 -6 18 -35 41 -64 39 -52 43 -54 81 -52 29 3 42 -1 49 -13 13 -23
-20 -40 -69 -36 -31 3 -43 12 -89 68 -32 40 -60 65 -72 65 -27 0 -36 12 -21
29 10 12 8 21 -8 43 -18 25 -18 32 -7 58 7 17 14 24 14 17 1 -17 42 -72 54
-72 5 0 20 9 34 20 14 11 30 17 36 13 5 -3 7 -1 4 4 -4 6 0 16 8 23 14 11 14
16 -1 37 -10 16 -13 34 -9 51 l7 27 24 -30 c13 -16 24 -33 24 -37z"/>
</g>
</svg>
