<?xml version="1.0" standalone="no"?>
<!DOCTYPE svg PUBLIC "-//W3C//DTD SVG 20010904//EN"
 "http://www.w3.org/TR/2001/REC-SVG-20010904/DTD/svg10.dtd">
<svg version="1.0" xmlns="http://www.w3.org/2000/svg"
 width="1333.000000pt" height="1169.000000pt" viewBox="0 0 1333.000000 1169.000000"
 preserveAspectRatio="xMidYMid meet">
<metadata>
Created by potrace 1.16, written by Peter Selinger 2001-2019
</metadata>
<g transform="translate(0.000000,1169.000000) scale(0.100000,-0.100000)"
fill="#000000" stroke="none">
<path d="M5784 11468 c-31 -44 -44 -82 -44 -126 0 -47 -3 -53 -45 -90 -25 -22
-45 -48 -45 -60 0 -11 -7 -25 -14 -32 -8 -6 -22 -34 -31 -61 -18 -54 -58 -99
-88 -99 -11 0 -30 -9 -43 -19 -13 -11 -32 -17 -42 -15 -10 2 -28 -11 -46 -32
-25 -30 -29 -45 -33 -107 -2 -40 -10 -89 -18 -110 -8 -20 -15 -52 -15 -71 0
-20 -8 -40 -20 -51 -11 -10 -20 -26 -20 -37 0 -22 4 -22 35 -2 34 22 79 15 83
-14 2 -13 14 -27 28 -32 46 -18 51 -79 8 -107 -27 -18 -32 -54 -9 -73 9 -7 38
-23 66 -36 l49 -23 -6 -55 c-9 -71 1 -104 31 -116 26 -10 49 -54 41 -77 -3 -8
-21 -13 -46 -13 -23 0 -55 -7 -72 -16 -44 -23 -121 -24 -145 -1 -27 23 -38 22
-72 -12 -28 -28 -32 -28 -66 -17 -20 7 -50 30 -68 52 -43 53 -46 55 -92 51
-33 -4 -50 2 -102 36 -35 21 -63 43 -63 48 0 17 33 9 67 -17 19 -14 36 -24 39
-22 2 2 -5 22 -16 43 -11 22 -20 45 -20 52 0 7 -4 13 -10 13 -5 0 -10 7 -10
15 0 9 -7 18 -15 21 -19 8 -19 48 0 64 24 20 8 30 -46 30 -31 0 -65 -8 -91
-21 -35 -18 -44 -19 -65 -8 -19 10 -28 10 -43 1 -25 -16 -40 -15 -59 2 -23 20
-184 28 -209 10 -17 -12 -21 -9 -40 27 -12 23 -22 47 -22 55 0 9 -10 14 -27
14 -18 0 -35 10 -49 28 -20 25 -27 27 -89 26 l-66 -2 -63 -60 c-70 -68 -73
-69 -203 -76 l-91 -5 -21 43 c-11 24 -27 46 -35 49 -9 4 -16 16 -16 28 0 12
-8 23 -20 26 -11 3 -20 13 -20 23 0 10 -16 28 -36 40 l-37 21 -26 -25 c-15
-15 -33 -26 -40 -26 -19 0 -40 31 -41 59 0 30 -44 82 -83 98 -17 8 -49 11 -81
7 -28 -3 -80 -6 -116 -7 l-65 -3 -2 -33 c-2 -50 -20 -63 -65 -49 -41 12 -68 0
-68 -31 0 -19 -40 -61 -58 -61 -7 0 -17 -9 -24 -20 -14 -23 -39 -26 -67 -8
-24 14 -48 -2 -53 -35 -2 -17 -10 -22 -35 -22 -18 0 -35 6 -38 14 -3 7 -12 10
-21 7 -9 -3 -21 -3 -27 1 -28 17 -68 7 -98 -24 -17 -18 -37 -33 -44 -33 -8 0
-29 -13 -47 -30 -18 -16 -38 -30 -45 -30 -7 0 -21 -10 -32 -21 -18 -19 -25
-21 -61 -11 -23 6 -42 6 -46 1 -3 -5 -18 -9 -33 -9 -16 0 -34 -6 -40 -14 -7
-8 -25 -17 -40 -21 -27 -6 -61 -49 -61 -78 0 -21 -20 -33 -30 -18 -4 7 -13 13
-21 14 -8 2 -21 7 -29 12 -8 5 -29 8 -47 6 -43 -3 -73 7 -73 25 0 24 -42 13
-69 -18 -13 -16 -34 -28 -47 -28 -13 0 -24 -5 -24 -11 0 -7 -10 -9 -26 -5 -39
10 -77 -12 -99 -58 -10 -23 -20 -47 -21 -54 -3 -20 -55 -64 -69 -59 -16 7 -48
-67 -40 -92 7 -24 -65 -104 -108 -120 -26 -10 -27 -14 -21 -48 3 -21 12 -48
20 -60 8 -12 14 -48 14 -80 0 -46 -4 -62 -20 -76 -12 -10 -20 -29 -20 -49 0
-39 -18 -108 -28 -108 -25 0 -81 23 -85 35 -11 26 -78 6 -118 -35 -30 -31 -35
-43 -31 -70 2 -17 11 -34 18 -37 8 -3 14 -15 14 -28 0 -12 9 -30 19 -39 17
-15 24 -16 63 -5 23 7 52 20 63 30 37 33 46 28 49 -29 3 -42 -1 -58 -18 -80
-17 -22 -21 -38 -19 -99 3 -72 -2 -84 -24 -62 -8 8 -17 8 -32 -1 -29 -15 -38
-7 -46 39 -4 22 -13 45 -21 51 -11 10 -16 6 -26 -16 -7 -16 -17 -32 -22 -35
-5 -4 -6 -15 -2 -24 3 -10 1 -33 -6 -51 -10 -29 -9 -36 6 -53 18 -20 17 -21
-15 -63 -18 -24 -37 -45 -40 -48 -4 -3 -10 -17 -14 -32 -4 -15 -13 -32 -21
-39 -8 -7 -12 -19 -9 -29 6 -20 -30 -70 -50 -70 -31 0 -44 -86 -15 -100 8 -4
31 -15 50 -24 19 -9 43 -31 54 -49 60 -103 58 -98 41 -116 -8 -10 -15 -25 -15
-34 0 -24 51 -74 83 -82 15 -4 27 -11 27 -16 0 -5 14 -18 30 -28 27 -16 29
-20 15 -31 -23 -19 -20 -91 5 -118 30 -31 25 -42 -20 -42 -38 0 -40 -2 -40
-30 0 -26 -4 -30 -28 -30 -15 0 -33 5 -40 12 -8 8 -15 8 -27 -2 -20 -17 -19
-40 3 -40 29 -1 64 -37 57 -59 -4 -14 5 -29 32 -56 37 -36 39 -37 99 -32 34 2
66 2 71 -2 6 -3 13 -40 17 -81 5 -62 3 -79 -11 -99 -34 -49 -52 -61 -93 -61
-48 0 -100 -26 -160 -80 -38 -33 -50 -39 -75 -34 -24 4 -35 0 -53 -20 -12 -15
-22 -30 -22 -35 0 -5 -13 -12 -29 -16 -16 -3 -37 -15 -46 -25 -14 -15 -22 -17
-37 -9 -32 17 -72 7 -86 -23 -12 -26 -18 -28 -71 -28 -40 0 -63 -5 -71 -15 -7
-8 -26 -15 -42 -15 -19 0 -31 -6 -34 -17 -3 -10 -9 -25 -14 -34 -17 -33 3 -39
118 -38 89 2 115 -1 125 -13 7 -8 31 -29 55 -47 23 -18 42 -39 42 -47 0 -8 4
-14 10 -14 19 0 50 -35 50 -56 0 -12 10 -25 25 -32 13 -6 27 -23 31 -37 3 -14
12 -25 20 -25 8 0 14 -5 14 -10 0 -6 12 -16 28 -22 79 -33 151 -68 157 -78 3
-5 15 -10 27 -10 11 0 29 -11 40 -25 11 -14 30 -25 44 -25 13 0 33 -8 43 -17
62 -57 92 -73 132 -73 18 0 32 -6 36 -16 4 -11 13 -14 29 -10 15 4 34 0 49
-10 14 -9 32 -14 40 -11 8 4 21 0 29 -8 8 -8 24 -15 36 -15 13 0 38 -13 57
-30 18 -16 40 -30 48 -30 8 0 15 -5 15 -10 0 -12 -100 -110 -112 -110 -4 0 -8
-13 -8 -29 0 -17 -5 -33 -10 -36 -6 -3 -10 -18 -10 -33 0 -31 -15 -56 -76
-124 -27 -31 -43 -60 -47 -86 -5 -26 -16 -45 -37 -60 -16 -13 -30 -31 -30 -41
0 -10 -12 -24 -26 -31 -14 -8 -28 -26 -31 -42 -6 -33 -28 -36 -74 -12 -17 8
-42 14 -57 12 -22 -2 -28 -9 -33 -41 -3 -20 -15 -47 -27 -60 -11 -12 -30 -42
-41 -66 l-19 -44 22 -31 c30 -43 24 -82 -14 -89 -22 -5 -29 -12 -32 -34 -2
-19 -8 -28 -21 -27 -10 1 -17 -5 -17 -16 0 -10 -7 -23 -15 -30 -22 -18 -18
-45 12 -80 25 -30 25 -33 10 -45 -9 -7 -17 -16 -17 -21 0 -5 -16 -27 -36 -48
l-36 -40 18 -34 c10 -19 24 -37 31 -39 7 -3 13 -11 13 -17 0 -15 -94 -106
-109 -106 -6 0 -11 -20 -11 -45 0 -25 4 -45 9 -45 5 0 12 -11 15 -25 3 -13 20
-32 36 -40 20 -10 30 -23 30 -38 0 -12 8 -27 18 -33 10 -7 24 -31 31 -55 20
-67 42 -109 57 -109 15 0 19 -44 15 -166 -2 -58 0 -72 13 -77 21 -8 20 -26 -1
-49 -14 -16 -14 -22 -3 -43 10 -19 21 -25 47 -25 19 0 33 -5 33 -12 0 -6 10
-22 21 -35 18 -19 20 -25 9 -38 -11 -13 -8 -19 14 -40 15 -14 37 -25 50 -25
13 0 29 -7 36 -15 11 -13 16 -13 41 2 16 10 29 23 29 30 0 7 7 13 15 13 8 0
38 18 67 40 46 35 58 40 88 35 45 -7 98 14 114 46 9 18 20 24 46 24 34 0 35
-1 45 -55 7 -37 16 -56 27 -58 9 -2 19 -14 22 -27 3 -13 14 -25 23 -27 14 -2
16 -14 14 -66 -2 -46 1 -62 11 -62 9 0 13 -17 14 -61 l1 -60 -46 3 -46 3 -1
-63 c0 -51 2 -62 15 -61 9 1 37 1 64 0 47 -1 47 -1 40 -29 -12 -43 -7 -81 13
-103 17 -19 19 -19 30 -4 9 13 29 16 82 16 81 0 87 6 76 77 -6 42 -5 46 32 78
32 29 45 34 85 34 56 0 79 23 79 78 0 26 6 36 30 50 16 9 30 23 30 29 0 7 15
19 33 27 43 18 79 63 75 95 -2 20 3 26 27 33 17 4 36 6 43 3 7 -3 15 2 18 10
4 8 14 15 23 15 27 1 51 26 62 64 6 21 16 36 25 36 8 0 17 7 20 15 12 30 94
29 94 -1 0 -9 11 -14 28 -14 22 0 30 7 39 30 6 17 19 30 28 30 22 0 85 49 85
66 0 7 8 15 18 19 23 7 132 108 132 122 0 6 9 31 20 56 20 45 21 46 58 40 22
-4 44 -16 55 -30 11 -13 27 -23 37 -21 9 2 24 -3 33 -10 16 -13 34 -18 112
-29 24 -3 53 -17 73 -34 18 -16 38 -30 45 -30 7 -1 22 -3 34 -4 13 -1 29 -8
37 -14 8 -7 25 -9 38 -6 32 8 78 -28 78 -61 0 -13 9 -32 20 -41 11 -10 20 -27
20 -39 0 -12 6 -27 14 -33 14 -11 24 -64 30 -146 5 -83 19 -140 40 -161 12
-11 29 -29 38 -40 9 -10 23 -24 30 -30 7 -6 33 -33 58 -61 25 -28 55 -54 68
-57 12 -4 22 -13 22 -20 0 -17 28 -41 37 -32 3 3 -1 14 -10 24 -22 24 -21 33
1 25 9 -3 14 -3 10 1 -5 7 -26 13 -50 15 -4 1 -12 11 -19 22 -9 17 -8 25 5 37
10 11 16 12 16 4 0 -7 19 -31 42 -53 24 -23 37 -38 29 -34 -9 6 -12 4 -7 -4 4
-6 11 -9 16 -6 10 6 52 -44 46 -54 -3 -4 3 -7 12 -7 15 0 17 11 14 76 -2 63 1
79 18 100 l20 25 -2 -55 c-3 -101 0 -117 25 -125 36 -11 39 -12 101 -24 71
-13 76 -17 43 -32 -19 -9 -40 -8 -95 5 -39 9 -72 16 -74 16 -2 0 -3 -11 -3
-25 0 -20 8 -28 42 -41 23 -9 50 -27 60 -40 10 -14 37 -34 61 -46 24 -11 46
-28 50 -37 9 -24 22 -30 59 -24 36 6 123 -14 123 -28 0 -5 15 -15 33 -23 17
-7 46 -25 62 -40 17 -14 38 -26 47 -26 10 0 52 -11 94 -25 42 -14 96 -25 120
-25 23 0 45 -4 48 -9 3 -4 38 -12 77 -15 91 -9 142 -32 135 -61 -2 -11 -8 -37
-11 -58 -4 -20 -11 -37 -16 -37 -5 0 -9 -8 -9 -19 0 -24 -68 -101 -89 -101
-10 0 -30 -13 -46 -30 -18 -19 -39 -30 -56 -30 -18 0 -35 -9 -48 -26 -18 -23
-23 -25 -38 -13 -10 8 -21 19 -25 24 -5 6 -8 6 -8 -1 0 -7 -14 -25 -31 -42
-29 -28 -31 -35 -26 -77 5 -37 4 -45 -9 -45 -8 0 -22 7 -30 15 -9 8 -28 15
-44 15 -16 0 -33 7 -38 16 -8 14 -10 14 -21 0 -8 -9 -19 -16 -27 -16 -7 0 -17
-6 -21 -13 -4 -7 -19 -20 -33 -28 -14 -9 -31 -28 -39 -42 -12 -22 -11 -27 7
-45 11 -11 29 -23 41 -27 12 -3 26 -15 31 -25 6 -10 28 -29 50 -41 22 -13 40
-26 40 -31 0 -13 65 -72 101 -91 43 -22 162 -25 187 -5 9 8 24 -2 57 -38 25
-26 45 -56 45 -65 0 -9 12 -28 28 -41 33 -29 62 -79 62 -108 0 -11 7 -35 16
-52 15 -29 15 -54 -2 -107 -7 -23 -6 -23 32 -17 21 4 63 10 93 14 31 5 59 15
66 25 7 9 21 17 31 17 21 0 68 -54 84 -95 6 -15 22 -42 36 -61 21 -27 34 -34
59 -34 61 0 91 56 33 62 -26 2 -34 8 -36 27 -6 40 7 71 29 71 17 0 20 4 14 29
-4 20 -2 30 9 34 19 7 46 -18 46 -43 0 -23 20 -30 62 -24 27 5 39 0 65 -25 18
-17 39 -31 46 -31 6 0 18 -9 24 -19 10 -15 20 -18 51 -14 78 11 171 -88 128
-136 -9 -10 -16 -29 -16 -43 0 -15 -6 -29 -12 -32 -10 -3 -8 -9 5 -19 9 -8 17
-26 17 -41 0 -21 5 -26 25 -26 16 0 25 -6 25 -15 0 -8 6 -15 14 -15 7 0 19 -6
25 -13 8 -11 6 -18 -9 -32 -25 -22 -26 -58 -3 -85 19 -21 58 -27 68 -9 4 5 17
14 28 18 60 23 66 22 88 -3 13 -15 26 -26 31 -26 10 0 178 -172 178 -182 0 -5
5 -8 11 -8 7 0 22 -11 34 -24 31 -33 59 -40 88 -21 22 14 27 14 53 0 53 -27
114 -11 114 31 0 33 29 10 47 -38 l20 -53 49 -3 c27 -2 53 -8 59 -13 5 -5 8
-52 7 -108 -4 -107 16 -194 48 -211 26 -14 161 12 197 38 27 19 32 20 49 7 26
-20 81 -19 103 3 10 9 26 32 35 50 16 31 20 33 64 30 l47 -3 -3 -45 c-2 -25
-10 -55 -18 -67 -12 -19 -12 -24 3 -38 32 -33 133 3 133 47 0 13 7 18 29 18
17 0 33 5 36 10 7 12 55 14 55 2 0 -4 24 -20 53 -35 28 -15 62 -34 73 -43 20
-14 24 -13 49 10 16 15 31 26 34 26 4 0 33 25 66 55 45 41 68 55 90 55 17 0
39 6 50 14 17 12 116 22 165 17 8 0 20 -11 25 -23 6 -12 27 -31 48 -42 36 -19
52 -56 23 -56 -19 0 -28 -42 -18 -87 12 -61 5 -93 -23 -93 -26 0 -42 -29 -23
-42 21 -12 41 -9 76 12 29 18 32 24 32 67 1 72 22 92 89 85 44 -4 59 -11 82
-36 32 -36 46 -76 28 -86 -15 -10 -49 0 -49 14 0 23 -22 36 -42 25 -12 -6 -18
-21 -18 -42 0 -50 36 -67 133 -62 61 2 77 0 77 -11 0 -8 -5 -14 -11 -14 -6 0
-9 -14 -7 -32 2 -24 10 -36 31 -46 18 -9 30 -24 34 -43 3 -16 14 -34 23 -39
10 -5 21 -25 24 -45 4 -19 11 -35 16 -35 6 0 10 -6 10 -13 0 -20 53 -47 72
-36 11 6 26 5 42 -2 41 -19 112 -3 150 34 34 34 96 126 96 144 0 6 7 16 15 23
22 18 18 67 -7 102 -21 30 -21 31 -2 66 10 19 26 37 35 39 28 8 42 47 35 94
-4 24 -9 105 -12 179 -5 119 -4 139 12 170 11 19 25 41 31 48 13 13 17 32 14
65 -1 9 4 17 12 17 9 0 19 18 26 46 12 47 52 94 80 94 23 0 41 20 41 45 0 14
10 26 25 33 28 13 35 52 9 52 -13 0 -15 6 -10 28 4 15 7 39 6 55 0 15 7 39 17
53 15 24 15 27 0 54 -27 44 -7 116 44 164 21 21 42 49 45 62 3 13 10 24 14 24
5 0 22 11 38 25 34 28 89 30 120 2 12 -11 35 -17 63 -17 49 0 62 6 72 32 3 10
24 30 46 45 22 16 40 31 41 35 0 3 -11 19 -24 35 -17 20 -22 34 -15 44 18 29
10 70 -21 99 -22 21 -30 37 -30 63 0 42 21 54 46 26 11 -12 30 -19 54 -19 24
0 40 -5 44 -15 3 -8 15 -15 26 -15 24 0 27 34 6 84 -8 20 -10 39 -5 47 5 8 9
41 9 74 0 37 6 68 15 79 8 11 15 35 15 53 0 21 6 36 15 39 11 5 15 21 15 60 0
53 -1 55 -30 61 -19 3 -30 12 -30 22 0 17 -33 51 -50 51 -6 0 -10 16 -10 35 0
26 -7 41 -26 58 -15 12 -32 27 -38 33 -6 6 -17 9 -25 6 -8 -3 -11 0 -7 6 3 5
-1 12 -9 16 -19 7 -19 56 0 82 20 26 19 34 -5 34 -16 0 -20 7 -21 33 -1 33 -2
44 -14 88 -7 30 15 55 42 45 10 -4 26 3 45 21 l28 27 16 -22 c19 -27 30 -28
44 -2 8 14 8 26 0 41 -9 16 -8 24 3 37 8 9 18 27 21 40 5 16 15 22 35 22 31 0
44 12 71 63 10 17 26 34 36 36 29 5 41 19 46 51 3 18 0 31 -9 34 -22 9 -15 55
15 84 26 26 108 72 130 72 12 0 22 24 22 51 0 11 11 42 25 69 14 27 25 58 25
69 0 11 7 26 15 35 8 8 15 32 15 54 0 35 -5 45 -39 72 -50 39 -81 88 -81 128
0 17 -6 32 -15 36 -9 3 -15 18 -15 39 0 21 -8 41 -20 52 -28 25 -44 79 -31
103 6 11 33 36 60 55 36 26 51 44 56 69 12 63 26 88 50 88 13 0 32 13 45 30
25 33 45 38 54 15 6 -17 47 -20 63 -4 8 8 21 7 48 -2 37 -14 38 -13 66 21 16
19 29 39 29 46 0 16 31 42 62 49 15 4 30 15 33 26 8 24 60 76 84 84 12 4 21
19 25 46 4 22 13 51 21 63 11 17 15 47 13 113 -3 87 -2 92 25 118 15 15 27 32
27 36 0 19 41 49 66 49 14 0 32 7 40 15 18 18 102 20 137 4 30 -14 72 6 130
62 23 21 44 39 48 39 4 0 10 13 14 28 6 30 49 62 83 62 12 0 31 17 48 43 16
23 32 44 37 45 4 2 7 25 7 50 0 56 1 58 67 102 45 30 83 81 89 122 1 4 2 12 3
17 0 5 16 12 34 15 46 9 93 40 109 73 7 15 23 32 34 38 50 25 56 36 49 89 -3
28 -11 64 -17 79 -10 27 -9 31 20 54 23 17 32 33 32 54 0 16 5 29 10 29 6 0
19 20 30 45 21 49 45 58 73 27 21 -23 21 -31 2 -52 -13 -14 -12 -21 7 -59 15
-31 25 -40 37 -35 9 3 29 8 45 10 17 2 33 9 37 15 4 7 19 9 33 7 20 -4 31 1
45 18 22 28 27 29 47 9 9 -8 22 -15 30 -15 8 0 17 7 20 15 4 9 19 15 39 15 20
0 35 6 39 15 3 8 17 15 32 15 23 0 25 3 20 26 -4 15 -13 33 -21 40 -8 9 -11
27 -8 51 7 55 -10 90 -46 98 -17 4 -40 18 -51 32 -15 19 -32 27 -67 31 -27 2
-61 14 -78 26 -19 13 -46 21 -80 21 -46 1 -231 42 -300 66 -16 6 -44 14 -61
18 -16 5 -50 22 -74 39 -23 18 -51 32 -62 32 -10 0 -18 7 -18 15 0 8 -9 24
-20 35 -11 11 -20 29 -20 39 0 10 -7 21 -15 25 -8 3 -15 15 -15 26 0 11 -7 23
-15 26 -8 4 -15 14 -15 25 0 10 -10 30 -23 44 -19 23 -25 25 -50 16 -16 -6
-37 -11 -48 -11 -26 0 -25 36 2 43 33 9 5 41 -50 57 -25 7 -54 21 -64 31 -10
11 -22 19 -26 19 -5 0 -11 9 -14 20 -3 13 -14 20 -29 20 -12 0 -32 7 -42 15
-11 8 -32 15 -48 15 -19 0 -33 8 -45 26 -14 22 -48 49 -112 89 -9 5 -31 21
-50 34 -56 40 -113 27 -110 -24 2 -38 -1 -43 -35 -49 -19 -4 -46 -19 -61 -33
l-26 -27 -50 53 c-27 29 -49 59 -49 67 0 27 -45 45 -97 38 -38 -5 -52 -3 -62
10 -7 9 -26 16 -42 16 -15 0 -32 7 -36 15 -5 8 -25 23 -46 33 -22 11 -45 32
-55 53 -11 21 -23 32 -32 29 -8 -2 -43 -6 -78 -8 -46 -3 -68 0 -80 11 -9 8
-35 24 -57 35 -22 12 -62 44 -88 71 -40 42 -53 50 -73 45 -17 -4 -31 0 -45 12
-20 18 -21 18 -39 -4 -20 -24 -36 -28 -42 -10 -3 8 -11 5 -23 -10 -24 -27 -40
-28 -57 -4 -7 11 -32 31 -55 46 -42 26 -43 27 -43 81 0 40 -4 57 -15 61 -8 4
-15 18 -15 34 0 15 7 33 15 40 29 24 15 95 -21 104 -13 4 -24 11 -24 16 0 6
-6 10 -14 10 -14 0 -26 29 -26 67 0 24 64 70 91 65 22 -4 61 46 54 69 -4 11 2
23 16 32 24 17 18 37 -12 37 -10 0 -19 4 -19 10 0 5 -6 7 -13 4 -17 -6 -61 41
-52 56 3 6 3 9 -2 8 -5 -2 -25 15 -45 37 -33 37 -36 45 -35 97 2 71 -23 111
-73 116 -55 6 -79 -5 -88 -40 -6 -24 -15 -34 -39 -40 -17 -4 -36 -15 -43 -23
-7 -8 -18 -15 -24 -15 -17 0 -126 106 -126 122 0 8 -13 24 -30 36 -16 13 -30
29 -30 36 0 20 -30 41 -76 54 -27 8 -51 25 -73 53 -18 22 -52 49 -75 58 -23
10 -47 26 -55 34 -7 9 -38 28 -68 43 -45 21 -64 25 -99 19 -25 -3 -44 -2 -44
3 0 5 -10 20 -22 34 -13 13 -32 41 -43 61 -17 32 -24 38 -50 35 -24 -2 -32 2
-44 27 -8 17 -18 38 -23 48 -4 9 -6 28 -2 42 3 14 2 25 -4 25 -5 0 -12 9 -15
20 -3 11 -13 23 -24 27 -10 4 -25 15 -33 25 -18 21 -64 25 -103 9 -16 -6 -46
-8 -70 -5 -56 9 -147 50 -163 73 -25 35 -50 32 -96 -13 -33 -33 -54 -45 -88
-50 -50 -8 -48 -8 -105 -1 -49 7 -87 -11 -95 -44 -6 -27 -16 -33 -80 -52 -25
-8 -52 -21 -60 -29 -8 -8 -27 -22 -40 -31 -24 -15 -26 -15 -50 8 -23 21 -45
28 -78 24 -13 -2 -64 32 -96 64 -14 15 -14 18 0 40 19 29 11 45 -22 45 -22 0
-24 4 -24 45 0 39 -3 45 -20 45 -11 0 -23 8 -26 18 -14 45 -35 83 -43 77 -13
-7 -289 -10 -297 -3 -3 3 -12 41 -19 84 -8 44 -14 80 -15 80 0 1 -13 4 -30 8
-30 5 -30 6 -30 75 l0 69 -33 11 c-19 7 -41 9 -49 6 -9 -4 -23 2 -33 11 -9 9
-26 18 -38 19 -26 1 -147 62 -147 73 0 4 -20 29 -45 57 -48 53 -54 74 -30 99
20 20 19 31 -10 79 -15 27 -21 47 -16 56 5 8 3 20 -6 30 -7 9 -25 31 -39 49
-17 21 -34 32 -51 32 -23 0 -62 33 -63 54 0 5 6 17 13 25 7 9 21 40 31 68 l18
53 -24 29 c-12 16 -36 35 -53 42 -28 13 -30 17 -27 62 4 54 -5 70 -56 94 -19
9 -37 24 -39 34 -3 9 -16 22 -29 29 -13 8 -24 21 -24 30 0 9 -7 25 -15 36 -8
10 -15 27 -15 37 0 10 -20 37 -44 60 -24 23 -47 52 -50 64 -9 29 -76 93 -97
93 -9 0 -22 7 -29 15 -7 8 -21 15 -31 15 -11 0 -19 7 -19 15 0 12 -11 15 -46
13 -47 -1 -74 16 -74 49 0 17 -35 17 -46 1z m-875 -1390 c37 -40 39 -67 6 -98
-21 -20 -28 -21 -52 -11 -27 11 -73 66 -73 87 0 5 7 20 16 32 23 33 66 29 103
-10z m-125 -73 c66 -76 77 -95 53 -95 -7 0 -18 -9 -25 -20 -20 -32 -55 -25
-96 20 -20 22 -36 45 -36 51 0 20 21 49 35 49 19 0 19 14 0 30 -17 14 -20 40
-6 40 5 0 39 -34 75 -75z m4886 -1312 c0 -5 12 -21 26 -37 25 -29 26 -29 54
-13 25 15 29 15 41 1 11 -14 10 -19 -10 -35 -16 -13 -21 -24 -15 -36 4 -10 6
-22 5 -26 -1 -5 3 -6 8 -3 13 8 34 -21 25 -35 -4 -7 -3 -9 3 -6 11 7 41 -21
42 -38 1 -5 5 -10 10 -10 5 0 13 -3 17 -7 12 -13 54 -9 54 4 0 8 6 6 16 -4 27
-27 10 -48 -37 -48 -37 0 -47 5 -86 48 -24 26 -54 62 -66 79 -21 32 -57 45
-57 22 0 -6 -7 -9 -15 -6 -16 7 -28 -8 -33 -41 -2 -15 9 -37 28 -60 17 -20 40
-47 50 -60 16 -18 28 -23 56 -20 27 2 40 -2 48 -15 8 -14 8 -20 -4 -27 -22
-14 -73 -13 -64 2 5 7 3 8 -5 3 -15 -8 -93 63 -85 77 3 5 1 7 -4 6 -5 -2 -21
12 -36 30 -15 17 -32 30 -36 27 -21 -13 -40 8 -36 41 3 19 0 33 -6 31 -17 -4
-38 36 -27 53 8 13 11 13 22 0 7 -8 22 -23 34 -34 21 -18 23 -18 52 3 16 12
34 21 40 21 12 0 16 40 4 40 -15 1 -43 49 -37 64 6 16 24 22 24 9z m-117 -280
c18 -20 31 -42 31 -49 -1 -7 4 -11 10 -9 6 2 30 -21 54 -51 42 -54 51 -74 32
-74 -5 0 -10 5 -10 12 0 6 -3 8 -6 5 -4 -4 -2 -13 5 -21 23 -27 -79 -93 -126
-81 -31 7 -86 62 -77 77 4 6 3 8 -4 5 -5 -4 -29 16 -53 44 -37 44 -40 52 -27
65 13 13 21 7 73 -53 32 -37 64 -73 72 -79 7 -6 11 -13 8 -16 -16 -16 65 8 84
26 13 11 21 16 17 9 -3 -6 -2 -14 3 -18 16 -10 3 33 -19 66 -19 25 -20 32 -8
47 11 15 11 16 -3 4 -14 -11 -21 -8 -43 19 -14 17 -23 36 -19 42 3 7 2 9 -2 4
-5 -4 -19 3 -32 15 -25 24 -32 48 -8 28 13 -11 14 -10 9 4 -10 26 4 19 39 -21z
m-210 -180 c13 -11 17 -12 12 -4 -21 36 45 -29 92 -91 48 -62 51 -68 34 -78
-16 -8 -24 -3 -46 25 -15 20 -23 41 -19 48 4 6 4 9 -1 5 -4 -4 -25 8 -47 27
-40 37 -78 45 -98 20 -7 -8 -16 -12 -21 -9 -5 3 -9 2 -8 -3 1 -4 -1 -16 -5
-25 -6 -12 5 -32 36 -70 23 -29 47 -56 52 -59 5 -4 5 -13 1 -20 -5 -8 -5 -11
-1 -7 4 3 16 -1 27 -10 18 -16 18 -17 -3 -28 -19 -10 -25 -9 -38 9 -8 12 -14
25 -12 30 1 4 -2 6 -6 5 -4 -2 -34 29 -67 67 -32 39 -63 72 -67 73 -5 2 -6 8
-2 13 3 5 -1 9 -9 9 -21 0 -50 37 -44 55 10 23 29 18 66 -20 l35 -35 18 28
c10 15 18 24 18 20 0 -4 12 4 26 17 32 30 50 31 77 8z m-210 -173 c3 -11 1
-20 -4 -20 -5 0 -11 0 -14 -1 -11 -1 -64 -57 -65 -70 -6 -42 20 -58 57 -34 13
9 29 13 35 9 6 -4 8 -3 4 4 -7 12 13 19 58 21 32 1 55 -22 56 -55 0 -27 -43
-90 -59 -86 -7 1 -10 -2 -6 -8 3 -5 -2 -13 -12 -17 -10 -3 -26 -15 -37 -26
-15 -15 -20 -16 -27 -5 -5 7 -9 16 -9 19 0 9 81 60 88 55 12 -7 13 76 2 90 -9
10 -21 6 -59 -22 -44 -31 -111 -48 -96 -24 3 5 0 7 -8 4 -10 -3 -18 5 -26 27
-14 42 6 83 62 126 50 38 53 39 60 13z m-5349 -1946 c9 -8 16 -22 16 -30 0 -8
8 -14 17 -14 26 0 53 -31 53 -61 0 -32 -40 -69 -76 -69 -25 0 -54 34 -54 62 0
10 -4 18 -10 18 -12 0 -50 37 -50 49 0 4 9 20 21 35 23 29 60 34 83 10z m-81
-136 c46 -55 51 -92 17 -120 -25 -20 -61 -21 -67 -2 -2 6 9 14 25 17 32 7 45
26 32 48 -7 11 -13 9 -33 -9 -30 -28 -52 -28 -82 3 -47 46 -22 119 38 113 21
-2 42 -17 70 -50z m-392 -310 c36 -38 35 -73 -3 -101 -34 -25 -68 -17 -91 22
-24 41 -21 66 9 90 36 28 51 26 85 -11z m-129 -79 c49 -67 57 -89 35 -89 -8 0
-22 -9 -32 -20 -27 -30 -67 -26 -93 10 -29 39 -28 57 7 89 21 20 27 32 20 42
-13 20 -11 41 3 37 7 -3 34 -33 60 -69z m5552 -955 c9 -8 16 -22 16 -30 0 -8
8 -17 18 -21 30 -11 52 -35 52 -59 0 -23 -51 -74 -74 -74 -22 0 -56 31 -56 52
0 11 -13 33 -30 48 -36 34 -37 44 -5 75 28 29 57 32 79 9z m-97 -122 c49 -56
59 -86 39 -117 -17 -26 -57 -42 -75 -30 -19 11 -12 22 18 28 16 3 31 14 35 23
8 21 -11 45 -22 28 -24 -37 -77 -34 -106 8 -23 33 -20 64 11 87 33 27 59 20
100 -27z m-383 -305 c41 -54 30 -100 -27 -121 -26 -9 -87 53 -87 87 0 28 41
67 71 67 10 0 29 -15 43 -33z m-134 -74 c52 -65 62 -85 48 -91 -4 -1 -19 -14
-32 -27 -33 -33 -51 -31 -87 7 -37 42 -39 84 -4 100 18 8 24 17 19 27 -30 72
-8 66 56 -16z m1857 -1284 c15 -5 47 -29 70 -51 l43 -42 -27 -17 c-15 -10 -31
-16 -35 -13 -5 3 -7 0 -6 -8 2 -7 -5 -12 -14 -12 -10 1 -16 -2 -15 -6 1 -5 -6
-15 -16 -22 -16 -12 -16 -15 -1 -36 14 -20 22 -23 53 -18 20 3 41 7 47 8 6 1
10 13 9 27 -1 21 3 26 22 26 13 0 23 -3 23 -7 0 -18 -23 -65 -42 -85 -30 -32
-93 -25 -127 14 -114 131 -130 169 -89 208 24 22 58 44 70 45 4 0 19 -5 35
-11z m-276 -94 c27 -40 31 -41 63 -20 21 14 25 14 37 -1 11 -14 10 -18 -11
-34 -22 -17 -23 -20 -10 -44 7 -14 17 -26 21 -26 10 0 55 -73 51 -83 -1 -5 3
-5 9 -1 6 3 15 0 20 -7 6 -11 14 -11 37 -3 25 9 31 8 40 -7 10 -15 8 -21 -11
-34 -12 -8 -23 -11 -25 -6 -2 5 -11 7 -21 4 -21 -5 -84 44 -74 59 3 7 1 8 -6
4 -6 -4 -14 0 -18 11 -4 10 -15 27 -25 37 -10 11 -18 24 -18 28 0 5 -10 12
-22 17 -17 6 -28 0 -56 -31 -19 -21 -39 -35 -45 -31 -6 3 -7 1 -3 -6 4 -6 12
-8 18 -5 8 5 9 1 5 -10 -4 -9 -3 -15 2 -11 5 3 26 -17 46 -44 38 -53 62 -66
100 -57 14 4 27 0 35 -9 19 -22 5 -45 -27 -44 -42 2 -64 9 -58 20 3 5 0 6 -8
3 -17 -6 -80 63 -71 78 4 6 3 8 -4 4 -6 -3 -18 7 -28 23 -9 16 -24 28 -33 26
-9 -1 -24 2 -34 7 -15 8 -16 12 -6 24 10 12 8 19 -10 37 -12 13 -21 36 -21 53
l0 29 33 -36 c29 -33 77 -63 62 -39 -3 5 10 20 29 32 32 21 48 48 28 48 -12 0
-40 54 -35 68 8 20 19 14 44 -23z m-161 -222 c0 -5 26 -35 57 -68 31 -33 67
-77 81 -98 l25 -38 -20 -27 c-24 -33 -90 -72 -121 -72 -29 0 -126 96 -118 117
3 8 2 12 -3 9 -9 -6 -61 41 -61 54 0 4 6 13 14 19 11 9 23 0 60 -43 25 -30 46
-59 46 -66 0 -6 5 -8 10 -5 6 3 10 -1 10 -10 0 -9 5 -13 10 -10 6 3 10 1 10
-5 0 -7 17 -10 44 -9 25 2 44 5 43 8 -4 12 30 51 38 43 5 -4 5 -1 1 6 -4 7
-11 10 -15 7 -5 -2 -23 17 -42 43 -18 26 -41 53 -51 60 -9 7 -27 26 -39 43
-18 26 -19 33 -8 40 17 11 29 11 29 2z m-174 -203 c15 -6 24 -13 21 -16 -9 -9
16 -33 27 -26 5 3 6 0 2 -6 -4 -7 -3 -12 3 -12 5 0 26 -23 47 -51 31 -43 35
-53 23 -64 -12 -12 -22 -5 -69 48 -30 33 -50 58 -43 54 6 -4 15 -2 19 5 4 7 4
10 -1 6 -4 -4 -20 -1 -36 7 -15 8 -35 15 -45 15 -17 0 -68 -40 -71 -56 -1 -5
-3 -16 -5 -24 -1 -8 2 -14 9 -13 7 2 25 -14 40 -35 15 -20 36 -46 45 -56 10
-10 15 -24 11 -29 -3 -6 -1 -7 5 -3 16 10 25 -13 12 -29 -15 -17 -30 -20 -30
-4 0 5 5 7 12 3 7 -4 8 -3 4 4 -4 6 -14 8 -23 5 -12 -5 -15 -2 -10 10 4 10 1
17 -6 17 -18 0 -49 39 -41 52 4 7 3 8 -4 4 -11 -7 -38 32 -34 47 1 5 -1 6 -6
3 -13 -8 -84 72 -76 86 4 6 3 9 -2 5 -5 -3 -17 0 -27 7 -16 12 -16 14 1 29 17
16 21 14 57 -23 l38 -39 24 32 c39 53 76 67 129 47z m-226 -180 c0 -10 -10
-25 -22 -31 -39 -20 -68 -52 -68 -75 0 -34 26 -36 81 -8 27 15 53 24 56 20 3
-3 12 -1 20 5 15 13 37 -1 54 -33 20 -38 -45 -123 -128 -167 -21 -11 -23 -10
-23 14 0 15 4 24 9 21 5 -3 14 1 21 10 7 8 20 12 29 9 8 -3 12 -3 8 1 -4 4 2
17 12 28 31 33 36 69 11 84 -12 7 -20 8 -20 2 0 -5 -5 -10 -11 -10 -6 0 -25
-10 -42 -23 -44 -32 -81 -34 -101 -5 -20 28 -20 41 1 85 15 32 84 93 105 93 4
0 8 -9 8 -20z"/>
</g>
</svg>
