<?xml version="1.0" standalone="no"?>
<!DOCTYPE svg PUBLIC "-//W3C//DTD SVG 20010904//EN"
 "http://www.w3.org/TR/2001/REC-SVG-20010904/DTD/svg10.dtd">
<svg version="1.0" xmlns="http://www.w3.org/2000/svg"
 width="773.000000pt" height="1287.000000pt" viewBox="0 0 773.000000 1287.000000"
 preserveAspectRatio="xMidYMid meet">
<metadata>
Created by potrace 1.16, written by Peter Selinger 2001-2019
</metadata>
<g transform="translate(0.000000,1287.000000) scale(0.100000,-0.100000)"
fill="#000000" stroke="none">
<path d="M3929 12248 c-1 -7 0 -23 0 -34 1 -12 -5 -29 -14 -37 -9 -10 -15 -30
-13 -50 1 -23 -5 -40 -19 -54 -27 -27 -20 -59 18 -79 27 -13 29 -19 29 -74 0
-40 5 -64 16 -74 17 -18 71 -21 94 -6 19 12 40 -6 40 -33 0 -11 7 -29 16 -38
9 -11 17 -38 18 -65 2 -31 8 -49 19 -56 11 -5 17 -22 17 -42 0 -36 32 -86 56
-86 9 0 14 -11 15 -32 0 -18 2 -44 3 -58 1 -14 3 -55 4 -92 2 -53 5 -68 17
-68 24 0 23 -44 -1 -71 -8 -9 -17 -40 -20 -70 -9 -93 -23 -126 -62 -145 -33
-15 -34 -18 -29 -60 2 -24 1 -44 -4 -44 -13 0 -39 -56 -39 -85 0 -18 7 -28 26
-35 35 -14 60 -12 76 3 23 22 88 57 107 57 19 0 31 -25 24 -47 -3 -8 -21 -13
-43 -13 -41 0 -50 -11 -50 -61 0 -26 3 -29 35 -29 25 0 37 -6 46 -22 6 -13 30
-39 52 -59 45 -40 43 -55 -8 -65 -26 -5 -37 -13 -41 -31 -10 -39 9 -49 56 -30
22 8 42 12 44 9 2 -4 0 -31 -5 -61 -8 -53 -31 -91 -54 -91 -7 0 -24 -11 -39
-25 -14 -13 -44 -29 -65 -35 -32 -8 -41 -16 -46 -39 -4 -20 -17 -34 -43 -46
-20 -10 -59 -44 -87 -75 -53 -62 -69 -70 -83 -44 -8 14 -10 14 -25 0 -8 -9
-20 -16 -26 -16 -6 0 -11 -19 -11 -41 0 -37 -2 -41 -21 -36 -12 3 -29 2 -38
-4 -9 -5 -28 -13 -43 -19 -34 -12 -37 -30 -5 -30 12 0 29 -5 37 -10 13 -8 12
-11 -5 -24 -11 -9 -23 -16 -27 -16 -12 0 -9 -30 2 -30 26 0 6 -28 -29 -40 -55
-18 -81 -7 -81 36 0 22 -5 34 -13 34 -20 0 -47 -33 -47 -58 0 -13 -18 -39 -40
-61 l-40 -39 0 -91 0 -91 -26 0 c-30 0 -30 1 19 -102 32 -67 32 -67 74 -68 36
0 43 -4 62 -35 11 -19 25 -35 31 -35 16 0 12 -58 -7 -87 l-17 -25 32 7 c28 6
32 4 32 -14 0 -16 6 -21 24 -21 15 0 27 -7 30 -18 5 -13 14 -17 34 -15 22 3
30 -2 43 -29 9 -18 25 -34 36 -36 11 -2 33 -16 48 -32 26 -28 27 -31 16 -72
-22 -76 -30 -122 -31 -165 0 -23 -5 -45 -10 -48 -17 -10 9 -35 36 -35 29 0 44
-27 44 -79 0 -40 -1 -41 -34 -41 -18 0 -39 7 -46 15 -9 11 -9 15 -1 15 7 0 9
5 6 10 -3 6 -14 10 -24 10 -10 0 -24 7 -31 14 -8 11 -18 12 -36 5 -44 -16 -81
-11 -87 12 -4 16 -9 19 -24 11 -10 -6 -25 -22 -33 -36 -8 -15 -22 -26 -35 -26
-16 0 -24 -10 -34 -46 -9 -28 -23 -52 -40 -62 -14 -9 -34 -25 -43 -34 -21 -21
-32 -22 -59 -8 -16 9 -19 7 -19 -15 0 -14 -7 -39 -15 -55 -15 -29 -14 -31 15
-56 27 -25 29 -29 15 -44 -8 -9 -15 -21 -15 -27 0 -14 35 -44 43 -37 11 12 47
-8 47 -26 0 -11 14 -33 30 -50 17 -17 30 -37 30 -45 0 -7 -20 -28 -45 -46 -26
-19 -45 -40 -45 -51 0 -22 -26 -76 -47 -97 -9 -9 -13 -24 -9 -40 3 -14 10 -48
16 -75 6 -27 15 -54 20 -61 6 -7 9 -23 8 -35 -3 -19 3 -25 29 -30 37 -8 95
-54 112 -87 14 -29 4 -53 -21 -53 -18 0 -20 -5 -15 -41 7 -50 13 -57 37 -41
18 11 19 7 22 -76 2 -67 -1 -94 -14 -118 -9 -17 -22 -60 -28 -95 -15 -82 -26
-109 -45 -109 -8 0 -15 -7 -15 -15 0 -10 11 -15 35 -15 38 0 48 -12 60 -75 3
-22 12 -47 19 -55 20 -23 26 -59 13 -73 -18 -19 -19 -37 -3 -37 20 0 25 -22 9
-38 -9 -9 -10 -19 -4 -31 5 -9 6 -23 2 -30 -5 -7 -7 -21 -4 -30 3 -11 -5 -21
-22 -29 -53 -24 -119 -9 -157 37 -10 12 -27 21 -38 21 -31 0 -27 -44 5 -58 20
-9 24 -16 17 -28 -7 -12 -4 -22 11 -37 16 -16 19 -28 14 -74 -5 -50 -4 -55 18
-63 40 -15 39 -30 -2 -30 -38 -1 -83 -27 -83 -49 0 -6 12 -14 28 -17 41 -10
45 -14 28 -32 -8 -10 -18 -30 -22 -47 -3 -16 -14 -38 -22 -48 -14 -16 -14 -21
2 -48 l18 -31 -55 7 c-48 6 -57 4 -75 -15 -12 -13 -24 -36 -27 -51 -9 -38 -60
-89 -90 -89 -12 0 -33 -9 -46 -20 l-24 -20 24 -21 c15 -12 37 -20 55 -19 46 3
51 1 38 -12 -20 -20 -14 -33 19 -45 18 -7 29 -18 27 -25 -6 -17 -121 -23 -171
-8 -29 8 -42 8 -53 -1 -19 -16 -18 -59 1 -59 8 0 15 -4 15 -9 0 -5 -7 -14 -15
-21 -8 -7 -15 -25 -15 -41 0 -22 -6 -30 -24 -35 -45 -11 -69 -1 -78 32 -14 54
-78 52 -78 -2 0 -15 7 -24 21 -26 l21 -3 -21 -24 c-23 -26 -15 -46 23 -61 19
-7 18 -8 -9 -23 -45 -23 -75 -55 -68 -72 6 -17 -23 -55 -41 -55 -6 0 -16 10
-21 22 -6 13 -23 27 -40 31 -16 5 -43 15 -58 23 -36 18 -47 18 -47 -1 0 -10
-10 -15 -30 -15 -24 0 -30 4 -30 21 0 12 8 28 18 35 15 12 14 13 -16 14 -18 0
-42 -5 -54 -11 -16 -9 -24 -7 -39 10 -25 27 -43 27 -70 0 l-21 -21 21 -19 c12
-11 21 -32 21 -47 0 -15 7 -35 15 -46 11 -15 19 -17 42 -9 15 6 34 8 41 6 17
-6 15 -41 -3 -59 -17 -17 -19 -52 -6 -73 13 -21 2 -41 -23 -41 -32 0 -46 -19
-46 -62 0 -27 -5 -40 -19 -48 -27 -14 -41 -13 -41 5 0 8 5 15 10 15 14 0 13
27 -2 36 -6 4 -19 -2 -29 -14 -23 -30 -36 -28 -54 8 -11 21 -23 30 -41 30 -33
0 -64 -17 -64 -35 0 -16 32 -79 43 -83 22 -10 -6 -46 -49 -62 -23 -9 -35 -7
-71 12 -24 13 -43 29 -43 35 0 7 -7 13 -15 13 -8 0 -15 4 -15 9 0 5 -25 19
-56 32 -45 19 -56 29 -61 51 -5 24 -10 28 -39 28 -26 0 -36 -6 -48 -27 l-14
-28 -12 27 c-13 28 -40 40 -61 28 -10 -7 -15 -51 -8 -86 6 -36 -39 -48 -77
-19 -27 21 -68 18 -90 -6 -21 -23 -12 -47 24 -64 29 -13 28 -29 -5 -55 -24
-19 -29 -31 -33 -88 l-5 -67 -63 -3 c-62 -3 -64 -3 -75 28 -8 21 -18 30 -34
30 -23 0 -63 -32 -63 -50 0 -5 -5 -10 -11 -10 -6 0 -27 -8 -46 -17 -28 -13
-39 -14 -54 -5 -30 19 -38 14 -45 -28 -4 -22 -12 -44 -18 -49 -16 -12 -126
-30 -126 -19 0 9 -64 11 -97 2 -13 -4 -23 -14 -23 -25 0 -24 -60 -69 -92 -69
-27 0 -58 -27 -58 -51 0 -8 -5 -20 -12 -27 -8 -8 -8 -15 2 -27 8 -10 9 -15 1
-15 -6 0 -11 -7 -11 -15 0 -8 5 -15 11 -15 6 0 8 -9 4 -21 -5 -14 -3 -19 3
-15 13 8 31 -23 25 -41 -3 -7 -16 -13 -29 -13 -15 0 -24 -6 -24 -15 0 -8 7
-15 15 -15 8 0 15 -6 15 -14 0 -17 -27 -29 -32 -14 -6 17 -58 0 -58 -18 0 -14
-11 -15 -87 -9 -93 8 -153 33 -153 64 0 40 -73 70 -86 36 -4 -8 -12 -15 -19
-15 -16 0 -28 44 -14 49 26 9 50 47 44 71 -3 14 -7 36 -8 49 -3 33 -50 50 -76
27 -25 -23 -34 -20 -53 15 -15 25 -23 30 -50 27 -22 -2 -34 -9 -38 -23 -8 -31
-33 -65 -49 -65 -10 0 -12 -9 -6 -37 9 -52 13 -55 38 -38 31 21 47 19 47 -8 0
-24 -37 -67 -57 -67 -6 0 -16 6 -22 14 -14 17 -78 7 -117 -19 -21 -13 -31 -15
-50 -6 l-24 11 0 -330 c0 -326 0 -330 21 -330 13 0 23 10 30 30 l11 30 25 -20
c14 -11 36 -20 49 -20 12 0 29 -8 36 -18 7 -10 29 -22 48 -28 28 -8 36 -15 38
-37 2 -18 9 -27 22 -27 32 0 50 -11 50 -31 0 -10 7 -19 15 -19 8 0 15 5 15 10
0 6 20 10 45 10 42 0 50 -6 46 -33 -1 -4 12 -1 28 7 26 14 30 14 35 0 10 -26
7 -44 -7 -44 -8 0 -24 -11 -37 -25 -19 -21 -21 -25 -7 -25 9 0 17 -7 17 -16 0
-17 8 -16 97 2 27 5 37 1 63 -25 36 -36 50 -39 50 -12 0 11 7 21 16 23 13 2
10 10 -14 38 -17 19 -28 39 -25 44 3 5 2 6 -4 3 -12 -8 -56 36 -46 46 3 4 1 7
-6 7 -7 0 -9 5 -5 11 4 7 -1 7 -15 -1 -26 -14 -56 4 -46 28 3 7 -4 26 -15 42
-21 30 -27 55 -10 45 6 -3 7 1 4 9 -3 9 -1 16 4 16 14 0 53 -55 45 -63 -13
-14 41 4 57 18 14 13 19 13 28 2 9 -10 7 -19 -6 -38 -22 -31 -24 -69 -3 -61
10 4 13 1 8 -12 -4 -9 -3 -15 2 -12 4 3 22 -10 40 -29 17 -19 41 -35 52 -35
12 0 17 -4 14 -11 -4 -6 2 -5 14 3 16 10 23 10 32 1 16 -16 -2 -39 -36 -47
-25 -6 -35 -39 -16 -50 5 -3 7 -14 5 -24 -4 -14 2 -17 40 -19 29 -1 49 4 57
13 9 11 15 12 26 3 10 -9 18 -8 32 5 23 21 57 17 55 -7 -2 -21 30 -22 70 -2
48 25 96 17 96 -17 0 -12 8 -27 17 -34 15 -11 20 -10 35 9 22 29 40 12 32 -31
-5 -23 -14 -34 -37 -41 -41 -15 -44 -14 -50 9 -4 14 -13 20 -34 20 -40 0 -56
-13 -48 -39 5 -17 2 -21 -14 -21 -12 0 -21 -4 -21 -10 0 -5 5 -10 11 -10 6 0
9 -8 6 -19 -2 -10 0 -25 4 -34 6 -10 4 -21 -8 -32 -14 -14 -14 -20 -4 -38 11
-16 11 -22 0 -28 -28 -17 -34 -25 -51 -62 -25 -53 -23 -57 22 -57 52 0 110
-48 110 -92 0 -35 17 -43 64 -30 47 13 81 5 64 -15 -9 -11 -9 -16 3 -24 8 -5
19 -9 26 -9 6 0 15 -9 18 -20 3 -11 12 -20 20 -20 7 0 15 -7 19 -15 3 -9 18
-15 36 -15 l31 0 -7 -65 c-6 -60 -5 -67 21 -101 15 -20 30 -32 34 -28 6 9 36
30 59 40 8 4 32 1 55 -6 23 -7 48 -14 54 -16 7 -2 13 -9 13 -16 0 -7 14 -22
30 -33 24 -16 30 -27 30 -57 0 -20 5 -40 10 -43 6 -3 10 -13 10 -21 0 -10 -14
-14 -55 -14 -60 0 -65 -6 -40 -54 8 -15 15 -39 15 -52 0 -20 4 -23 28 -18 19
4 32 1 41 -10 8 -9 29 -16 47 -16 24 0 34 -5 34 -15 0 -8 3 -15 8 -15 4 0 13
-4 21 -9 11 -7 9 -14 -11 -33 -22 -20 -48 -75 -48 -99 0 -5 18 -9 40 -9 34 0
42 -4 50 -25 5 -14 16 -28 24 -31 12 -5 13 -11 3 -32 -17 -39 -25 -42 -103
-35 -66 5 -71 4 -76 -15 -4 -14 1 -26 16 -37 21 -15 20 -15 -9 -10 -19 4 -38
0 -50 -9 -11 -9 -30 -16 -42 -16 -13 0 -23 -3 -24 -7 -4 -42 -12 -69 -21 -74
-6 -4 -12 -18 -13 -31 -1 -12 -4 -30 -6 -38 -3 -10 3 -15 19 -14 79 2 102 5
101 12 -4 24 4 32 32 32 23 0 30 -4 28 -17 -4 -46 2 -73 16 -73 15 0 19 -11
15 -39 -1 -10 5 -12 22 -6 52 16 87 16 122 0 20 -10 61 -19 91 -20 46 -1 58
-6 75 -28 12 -15 28 -27 36 -27 8 0 14 -6 14 -13 0 -7 8 -17 18 -24 14 -8 18
-20 14 -42 -3 -24 0 -31 12 -31 9 0 16 -7 16 -16 0 -29 -31 -82 -51 -87 -15
-4 -19 -14 -19 -46 0 -35 4 -43 25 -51 16 -6 25 -17 25 -32 0 -35 11 -45 58
-58 59 -15 104 -5 100 23 -2 12 -14 27 -28 34 -35 18 -25 40 34 74 16 10 18 9
13 -10 -6 -24 -6 -25 27 -9 35 15 58 53 50 82 -5 21 -1 25 26 31 28 6 36 2 68
-33 20 -21 49 -42 65 -46 23 -5 26 -9 17 -26 -5 -10 -10 -29 -10 -41 0 -12 -7
-31 -17 -41 -15 -17 -15 -20 4 -41 11 -12 23 -34 27 -48 3 -17 17 -31 35 -38
21 -9 27 -18 24 -32 -5 -16 0 -19 31 -19 20 0 36 -4 36 -9 0 -5 12 -7 28 -3
59 15 122 0 122 -28 0 -24 17 -26 42 -3 18 16 21 14 59 -26 34 -35 40 -47 34
-69 -4 -15 -9 -44 -12 -64 -3 -26 -10 -38 -21 -38 -11 0 -7 -10 16 -33 20 -21
32 -43 32 -60 0 -32 21 -35 78 -12 30 13 41 14 59 4 20 -11 26 -9 44 9 12 14
33 23 57 24 20 1 44 2 52 4 8 1 21 2 28 3 6 1 12 8 12 16 0 8 7 15 15 15 9 0
12 -6 9 -15 -10 -25 82 -21 96 5 6 11 17 20 25 20 8 0 19 8 24 18 5 10 22 19
38 20 15 1 29 6 31 11 2 5 11 7 21 4 22 -6 71 23 71 42 0 7 12 18 28 24 15 7
40 34 57 62 32 53 54 72 98 83 20 5 27 12 27 31 0 18 5 25 20 25 14 0 26 14
41 45 14 30 28 45 40 45 15 0 19 7 19 40 0 59 25 113 60 128 16 7 31 21 34 30
9 26 122 142 199 201 66 52 67 53 67 102 0 27 -5 49 -10 49 -6 0 -15 11 -20
24 -5 14 -21 32 -35 42 -14 9 -25 23 -25 30 0 9 -11 14 -27 14 -16 0 -35 4
-42 9 -9 6 -22 6 -32 0 -19 -10 -49 -2 -49 12 0 13 144 11 157 -2 6 -6 26 -14
44 -18 46 -9 85 -88 94 -193 5 -47 4 -78 -2 -78 -5 0 -29 -27 -53 -60 -24 -33
-46 -60 -50 -60 -4 0 -12 -19 -19 -41 -11 -36 -10 -46 5 -75 10 -19 22 -34 26
-34 13 0 9 -28 -4 -33 -10 -3 -10 -11 0 -39 6 -19 12 -44 12 -56 0 -15 6 -22
20 -22 19 0 24 -10 21 -37 -1 -6 3 -14 9 -18 5 -3 10 -28 10 -55 0 -52 8 -60
63 -60 50 0 64 13 48 43 -12 23 -11 28 19 61 22 24 42 36 59 36 l26 0 -26 -18
c-33 -22 -59 -48 -59 -59 0 -5 13 -14 29 -20 23 -8 28 -16 25 -31 -4 -12 0
-22 10 -25 20 -8 20 -26 1 -47 -12 -14 -13 -19 -2 -34 11 -15 18 -16 33 -8 25
13 47 1 39 -21 -4 -10 1 -21 14 -29 12 -7 21 -18 21 -25 0 -7 8 -13 18 -13 15
0 17 -9 16 -60 0 -33 3 -60 8 -60 4 0 8 -16 8 -35 0 -35 29 -63 38 -37 2 7 23
12 47 12 42 0 43 1 49 38 8 54 11 64 24 95 16 38 15 72 -2 86 -8 7 -24 30 -35
51 -17 32 -17 39 -5 44 8 3 14 14 14 25 0 11 12 29 27 41 22 17 25 25 17 38
-6 9 -20 18 -30 20 -59 9 -66 12 -54 27 7 8 17 15 22 15 17 0 78 52 78 67 0 8
-8 28 -17 44 -17 28 -17 29 12 60 35 36 65 55 65 40 0 -5 -7 -17 -16 -26 -9
-8 -18 -33 -21 -55 -5 -36 -3 -40 21 -50 14 -5 26 -16 26 -24 0 -23 29 -41 43
-27 9 9 7 20 -8 47 -18 34 -18 36 0 70 20 37 32 43 41 19 14 -35 58 -2 67 50
3 17 11 50 17 75 7 25 10 75 7 112 -4 61 -3 65 12 50 15 -15 16 -13 19 16 5
50 -12 72 -58 72 -49 0 -54 22 -10 40 60 25 106 -27 125 -138 5 -34 4 -42 -9
-42 -24 0 -46 -53 -46 -110 l0 -50 65 0 c66 0 70 2 65 43 -1 10 5 26 14 36 10
11 12 21 6 31 -12 18 -13 40 -2 39 4 -1 17 -1 30 0 40 2 22 61 -19 61 -10 0
-30 10 -44 23 -22 19 -25 26 -17 48 13 32 75 95 80 81 2 -7 -4 -22 -12 -34
-28 -40 -16 -71 24 -61 8 2 25 18 37 35 l22 31 7 -27 c3 -15 2 -37 -5 -49 -6
-12 -12 -53 -13 -92 -3 -67 -4 -70 -29 -73 -24 -3 -27 -7 -27 -50 -2 -59 -11
-102 -23 -102 -5 0 -9 -24 -9 -52 -1 -53 -23 -98 -49 -98 -30 0 17 -59 47 -60
7 0 23 -5 35 -12 22 -12 21 -12 -8 -18 -26 -5 -30 -9 -28 -37 2 -19 -3 -33
-11 -36 -9 -4 -12 -14 -9 -26 3 -13 -2 -24 -16 -33 -25 -15 -28 -63 -7 -87 8
-9 17 -28 20 -44 7 -42 29 -97 38 -97 14 0 9 -19 -16 -59 -13 -21 -21 -42 -18
-47 19 -28 60 -44 112 -44 51 0 57 3 73 29 19 33 23 91 6 91 -32 0 -52 77 -26
99 14 11 37 -3 37 -24 0 -15 37 -45 55 -45 8 0 15 8 15 18 0 27 9 32 31 19 28
-18 32 -3 9 40 -28 54 -32 147 -6 166 29 21 17 51 -22 55 -17 2 -33 6 -33 10
-1 4 -3 32 -4 62 -2 54 6 82 32 108 17 17 16 4 -2 -28 -21 -37 -18 -58 14 -91
20 -19 40 -29 60 -29 24 0 31 -4 31 -19 0 -10 -6 -24 -14 -30 -31 -26 -27
-191 4 -191 6 0 10 -5 10 -10 0 -22 39 -51 76 -57 22 -3 42 -10 45 -15 3 -5
24 -12 46 -15 30 -4 44 -12 54 -29 16 -31 81 -34 101 -6 7 10 25 27 41 36 21
15 27 26 27 56 0 24 -5 40 -15 44 -11 4 -15 21 -15 61 0 53 -1 55 -26 55 -19
0 -25 4 -20 15 8 23 -4 45 -24 45 -11 0 -22 5 -25 10 -3 6 -15 10 -25 10 -21
0 -60 37 -60 57 0 8 13 13 34 13 33 0 35 2 51 56 18 61 13 94 -14 94 -10 0
-31 11 -47 25 -16 14 -34 25 -40 25 -6 0 -27 16 -47 35 -21 20 -46 35 -60 35
-38 0 -60 31 -52 74 5 26 3 43 -9 61 -15 23 -15 25 4 37 21 13 28 62 10 73
-17 10 -11 51 9 69 11 10 24 15 29 12 12 -7 13 -146 1 -146 -19 0 5 -30 25
-31 16 -1 17 -2 4 -6 -19 -5 -32 -40 -26 -69 2 -10 17 -25 33 -34 17 -8 32
-17 35 -20 32 -32 103 -80 118 -80 24 0 32 18 32 75 0 23 8 66 17 95 14 43 14
55 4 73 -8 13 -14 62 -16 134 -1 62 -4 114 -6 116 -2 2 -16 11 -31 20 -16 10
-28 25 -28 35 -1 28 -25 52 -53 52 -21 0 -28 -6 -33 -27 -8 -36 -32 -63 -54
-63 -10 0 -23 -7 -30 -15 -12 -14 -15 -14 -36 0 -30 19 -53 19 -60 0 -4 -8
-15 -15 -26 -15 -17 0 -18 5 -12 38 4 20 7 42 6 47 -9 102 5 125 78 125 33 0
50 5 54 15 3 8 10 15 15 15 7 0 7 -9 1 -26 -13 -34 -13 -34 9 -34 10 0 21 7
25 15 3 8 15 15 26 15 11 0 23 -7 26 -15 4 -8 18 -15 34 -15 22 0 31 -7 44
-34 9 -19 16 -39 16 -45 0 -6 5 -11 10 -11 6 0 20 -20 32 -45 14 -28 29 -45
39 -45 23 0 35 20 20 30 -7 4 -15 27 -18 51 -3 24 -11 58 -19 76 -8 17 -14 43
-14 58 0 25 -49 85 -70 85 -5 0 -8 19 -7 42 2 40 0 43 -28 48 -35 6 -46 41
-22 68 21 24 24 55 8 85 -12 23 -11 28 13 59 20 27 23 37 14 46 -14 14 -37 95
-38 130 0 15 -7 26 -20 29 -16 4 -20 14 -20 43 0 31 -6 43 -31 63 -34 27 -32
47 6 47 12 0 25 6 28 14 8 19 -37 66 -63 66 -25 0 -25 1 1 44 12 21 18 43 14
55 -3 11 -1 22 5 26 18 11 11 42 -15 59 -50 33 -57 112 -12 131 12 6 23 20 25
32 2 13 16 30 32 40 38 22 43 37 26 78 -12 28 -23 36 -59 45 -49 13 -77 48
-77 99 0 27 -3 31 -29 31 -31 0 -59 24 -41 35 13 8 13 71 0 96 -9 16 -7 19 15
19 23 0 25 4 25 41 0 23 -7 47 -15 55 -8 9 -15 24 -15 33 0 10 -7 24 -15 31
-40 33 0 67 65 53 40 -8 52 9 44 61 l-6 38 31 -7 c27 -6 31 -4 36 22 11 49 15
55 35 60 11 3 20 12 20 19 0 11 -19 14 -84 14 l-85 0 15 28 14 27 -39 3 c-22
2 -55 -4 -75 -12 -40 -17 -62 -12 -88 19 -19 22 -24 6 -8 -25 8 -15 6 -21 -9
-30 -27 -14 -41 -13 -41 5 0 8 -8 15 -17 15 -20 0 -82 53 -108 93 -9 15 -25
27 -34 27 -33 1 21 22 73 29 l51 6 -30 31 c-35 36 -35 54 1 54 28 0 26 -5 29
89 1 64 5 77 24 92 13 11 32 19 42 19 23 0 24 20 5 75 -10 27 -21 41 -35 43
-15 3 -21 -2 -21 -16 0 -34 -24 -45 -51 -23 -13 10 -34 21 -46 25 -14 4 -26
19 -29 34 -11 46 -18 49 -91 40 -67 -8 -68 -8 -95 22 -32 35 -37 84 -10 99 13
8 8 11 -28 11 l-45 1 27 16 c15 10 30 23 32 30 8 21 -5 43 -25 43 -22 0 -21
19 1 36 12 10 11 19 -11 65 -23 50 -27 77 -20 162 1 4 7 7 15 7 17 0 46 59 46
92 0 13 -7 33 -15 44 -26 35 -19 44 37 44 28 0 74 7 102 16 43 14 54 22 70 56
13 29 26 40 47 45 54 10 52 93 -2 93 -57 0 -29 68 34 84 28 7 38 36 13 36 -12
0 -12 6 -3 29 14 37 -3 79 -43 106 -17 11 -30 25 -30 31 0 7 -7 14 -15 18 -9
3 -15 18 -15 37 0 31 0 31 43 25 54 -7 77 10 84 62 5 34 1 45 -19 65 -13 13
-30 26 -38 29 -10 3 -15 24 -15 74 -1 38 -8 88 -15 112 -11 34 -18 42 -37 42
-13 0 -26 7 -29 15 -8 20 -34 19 -34 0 0 -24 -47 -42 -71 -27 -10 7 -29 12
-42 12 -25 0 -67 26 -67 41 0 5 -9 19 -20 31 -15 16 -26 19 -50 14 -20 -4 -43
0 -62 10 -17 9 -54 20 -82 24 -28 4 -66 14 -84 21 -30 13 -35 12 -47 -4 -11
-15 -17 -16 -34 -8 -11 6 -38 11 -60 11 -29 0 -41 5 -45 18 -16 47 -44 67
-103 72 -50 4 -58 8 -59 26 -1 27 -12 44 -26 44 -6 0 -19 6 -27 14 -9 8 -32
18 -51 23 -32 8 -35 13 -38 48 -4 47 -16 57 -60 49 -36 -7 -62 8 -62 36 0 10
-7 23 -16 31 -10 8 -13 21 -9 37 5 19 -2 34 -24 63 -17 21 -31 45 -31 54 0 9
-9 29 -21 44 -17 24 -19 32 -10 50 7 12 9 36 6 54 -11 56 53 181 89 174 6 -1
13 18 16 43 6 50 44 120 65 120 17 0 65 50 65 67 0 7 -18 16 -40 19 -51 8 -62
38 -31 88 27 44 44 49 72 25 26 -22 47 -24 74 -5 11 7 31 17 44 21 22 7 23 5
17 -19 -8 -33 14 -106 34 -107 8 -1 28 0 44 1 24 1 28 -2 24 -17 -14 -48 -14
-48 20 -46 45 2 48 7 29 48 -36 76 -13 135 55 138 28 2 33 -1 33 -20 1 -29 19
-47 40 -39 13 5 15 13 11 32 -21 82 -21 84 11 84 48 0 67 32 59 101 -5 55 -4
60 19 75 32 21 31 29 -6 51 -28 16 -30 22 -26 56 5 34 -1 61 -24 124 -14 39 8
45 146 37 103 -6 128 -10 138 -24 12 -17 14 -17 47 1 88 46 110 50 110 19 0
-27 13 -25 46 5 33 30 45 31 69 5 10 -11 28 -20 41 -20 14 0 25 -8 29 -20 6
-18 15 -20 84 -20 l79 0 11 45 c13 53 31 59 31 11 l0 -33 90 1 c88 1 91 2 105
29 8 15 21 34 29 43 14 13 14 18 1 38 -13 20 -13 25 -1 35 7 6 16 25 20 41 4
23 10 29 27 27 36 -4 33 22 -7 58 -47 43 -74 44 -104 5 -13 -16 -29 -30 -37
-30 -22 0 -26 27 -9 52 9 12 16 26 16 30 0 11 -58 10 -80 -2 -26 -14 -50 -2
-50 25 0 12 -9 30 -21 40 -14 13 -19 29 -17 49 2 24 -2 33 -21 43 l-25 12 27
12 c20 9 27 20 27 40 0 46 -30 108 -59 122 -17 8 -26 20 -25 35 0 18 -5 22
-31 22 -18 0 -38 -7 -45 -15 -7 -8 -27 -15 -45 -15 -25 0 -39 -7 -53 -27 -15
-21 -23 -25 -33 -16 -8 5 -43 13 -79 17 -36 3 -69 12 -75 19 -7 8 -32 11 -78
9 -66 -4 -104 9 -91 29 3 5 -7 26 -21 46 -14 21 -25 47 -25 59 0 12 -10 25
-25 32 -14 6 -25 18 -25 27 0 9 -9 15 -24 15 -19 0 -22 4 -19 25 7 36 -31 91
-78 111 -21 10 -39 23 -39 29 0 27 -66 73 -121 85 -69 13 -87 32 -98 100 -9
57 -24 77 -61 82 -21 3 -26 -3 -35 -36 -15 -54 -46 -68 -80 -36 -14 13 -25 18
-25 12 0 -21 -78 -12 -108 13 -2 2 3 13 10 25 13 22 8 29 -42 61 -13 8 -13 10
2 19 16 10 17 14 3 40 -19 36 -19 98 -2 119 27 32 37 90 21 126 -13 31 -12 34
5 40 11 3 22 16 25 29 4 15 18 28 38 35 40 14 78 49 78 72 0 10 -13 23 -30 31
-23 10 -30 19 -30 40 0 16 4 28 9 28 5 0 12 14 16 30 4 17 18 38 33 47 15 10
45 32 67 51 47 39 51 41 94 65 18 9 39 17 47 17 8 0 33 9 56 21 l41 21 -7 60
c-3 33 -3 71 0 84 5 21 12 24 54 24 l48 0 -6 45 c-5 47 9 60 36 33 16 -16 52
17 52 49 0 26 5 27 65 12 67 -17 77 -9 53 40 -11 22 -22 59 -25 81 -3 22 -11
44 -17 48 -24 19 -110 40 -126 32 -12 -6 -24 -1 -44 21 -35 36 -59 34 -66 -6
-4 -23 -10 -30 -29 -30 -18 0 -26 9 -36 38 -12 36 -12 38 16 58 32 23 37 54
14 85 -21 28 -19 31 25 54 42 22 42 22 41 85 -2 77 30 82 36 6 1 -19 9 -41 17
-50 8 -9 22 -40 31 -68 16 -48 20 -53 47 -53 16 0 42 9 56 21 30 23 44 9 18
-20 -37 -41 -5 -71 75 -71 36 0 41 -3 54 -34 15 -35 64 -64 85 -51 7 4 10 19
6 36 -4 20 -2 29 8 29 8 0 16 -16 19 -42 7 -50 34 -75 95 -84 23 -3 45 -10 48
-16 8 -13 -16 -38 -37 -38 -28 0 -23 -19 7 -30 20 -8 25 -16 22 -34 -7 -34 13
-54 56 -58 l38 -3 -22 -27 c-15 -20 -30 -28 -54 -28 -34 0 -56 -15 -56 -38 0
-7 -7 -20 -15 -28 -21 -21 -19 -54 3 -54 9 0 39 20 65 45 27 25 54 45 60 45 7
0 26 9 42 20 38 25 55 25 55 0 0 -11 6 -20 13 -20 24 0 50 -38 45 -64 -7 -36
4 -48 54 -53 50 -6 67 11 48 47 -18 34 -11 48 34 63 39 13 46 13 57 1 6 -8 20
-14 30 -14 24 0 44 -37 30 -54 -9 -10 8 -14 82 -20 85 -6 93 -5 106 14 7 11
19 20 26 20 7 0 17 6 24 13 17 21 -7 37 -55 37 -24 0 -46 5 -49 10 -3 6 -17 7
-31 4 -27 -7 -32 7 -9 26 8 7 15 23 15 36 0 21 -5 24 -34 24 -19 0 -41 7 -50
15 -8 8 -26 15 -40 15 -31 0 -70 36 -62 57 3 8 6 19 6 24 0 5 8 9 18 9 20 0
39 30 44 69 2 13 10 28 19 34 23 15 67 1 65 -20 -1 -13 8 -19 28 -21 16 -2 35
-9 42 -16 7 -7 40 -16 74 -20 39 -5 70 -14 82 -26 20 -18 20 -18 -2 -40 -27
-27 -24 -74 5 -76 11 -1 25 -2 31 -3 6 -1 19 -16 27 -33 18 -36 6 -54 -24 -37
-27 14 -28 12 -26 -28 2 -32 6 -38 35 -45 33 -9 43 -33 20 -56 -14 -14 6 -42
30 -42 12 0 14 -10 9 -60 -4 -37 -3 -61 4 -66 6 -3 8 -17 4 -32 -8 -32 9 -43
48 -29 28 9 33 7 59 -21 21 -24 36 -32 62 -32 26 0 36 -5 41 -20 3 -11 3 -24
0 -30 -3 -5 3 -10 15 -10 29 0 70 -29 70 -50 0 -11 12 -22 30 -29 24 -8 30
-16 30 -40 0 -29 2 -31 40 -32 22 -1 46 -2 53 -3 8 -1 12 15 13 47 1 55 21 83
52 73 13 -4 22 -19 25 -39 19 -106 15 -99 66 -93 139 19 155 19 166 -5 13 -29
33 -36 41 -12 3 10 11 28 17 41 9 18 7 25 -8 36 -28 20 -12 43 45 63 61 21 81
47 50 63 -11 6 -20 17 -20 25 0 8 -3 15 -8 15 -4 0 -13 12 -19 28 -13 29 -8
67 12 92 21 26 37 78 31 97 -8 26 13 50 51 58 37 7 47 -4 33 -39 -9 -24 -7
-26 18 -26 18 0 40 11 59 30 29 28 30 33 21 70 -10 37 -9 42 17 66 20 19 25
31 21 49 -5 20 -2 25 11 25 10 0 27 14 38 30 19 29 45 40 45 20 0 -13 37 -13
46 1 3 6 1 16 -5 22 -17 17 -13 46 9 74 19 24 19 37 3 96 -4 15 1 17 24 15
l28 -3 6 95 c4 68 11 105 24 128 19 31 19 32 1 45 -15 11 -17 20 -10 48 4 19
7 38 6 42 -2 5 -4 54 -5 109 -2 86 -5 102 -22 115 -23 17 -64 12 -113 -14 -35
-19 -58 -13 -74 20 -4 9 -12 25 -17 35 -6 13 -18 16 -55 14 -41 -3 -48 -1 -53
17 -4 15 -13 21 -33 21 -36 0 -57 -24 -40 -45 10 -12 5 -16 -32 -21 -51 -9
-51 -9 -56 5 -2 6 5 11 16 11 26 0 48 29 50 67 2 29 -1 33 -32 38 -21 4 -42
18 -55 36 -19 26 -24 27 -47 17 -22 -10 -28 -9 -40 6 -11 16 -22 18 -82 12
-54 -5 -71 -4 -81 8 -6 7 -21 12 -31 9 -24 -6 -26 10 -5 31 26 25 17 36 -30
36 -25 0 -45 -4 -45 -9 0 -23 -31 -19 -42 5 -15 32 -50 29 -58 -6 -7 -30 -50
-42 -50 -15 0 13 -6 16 -22 11 -13 -3 -33 -6 -46 -6 -18 0 -22 -4 -17 -19 5
-17 -1 -20 -52 -24 -32 -3 -83 -10 -113 -16 -137 -26 -132 -26 -125 1 6 22 1
28 -32 45 -39 21 -57 53 -29 53 21 0 20 10 -1 26 -17 13 -17 13 1 14 15 0 16
3 6 15 -7 8 -29 15 -50 15 -39 0 -78 29 -65 49 4 7 -4 11 -21 11 -15 0 -38 9
-50 21 -23 22 -44 19 -44 -7 0 -10 -12 -14 -40 -14 -38 0 -52 12 -30 25 18 11
11 33 -20 62 -16 15 -30 34 -30 40 0 22 -28 14 -36 -9 -9 -31 -81 -101 -94
-93 -15 9 -12 23 14 62 14 19 22 42 19 49 -3 8 1 14 11 14 9 0 16 6 16 14 0 8
3 22 7 32 5 14 2 16 -15 12 -31 -8 -35 5 -12 35 14 17 17 28 9 32 -7 5 -8 25
-4 57 6 43 4 51 -14 64 -12 8 -21 22 -21 30 0 13 -3 13 -27 0 -26 -14 -29 -13
-48 10 -32 40 -150 59 -175 29 -7 -8 -21 -15 -32 -15 -15 0 -18 5 -13 19 4 13
0 23 -11 29 -11 6 -13 11 -5 16 18 11 13 24 -15 43 -27 17 -27 17 -53 -14 -25
-30 -51 -38 -108 -35 -18 2 -23 8 -23 32 0 35 3 34 -66 14 -52 -15 -54 -17
-54 -51 0 -33 -3 -36 -60 -61 -53 -24 -60 -30 -60 -55 0 -16 -8 -42 -17 -58
-14 -23 -24 -29 -51 -29 -28 0 -36 5 -45 31 -12 32 -17 32 -102 13 -12 -3 -31
5 -49 21 -19 16 -41 25 -64 25 -29 0 -34 3 -29 20 7 28 -21 26 -63 -5 -33 -24
-41 -24 -70 1 -14 12 -41 18 -67 15 -7 0 -13 -10 -13 -20 0 -30 -16 -33 -52
-11 -18 11 -48 20 -66 20 -45 0 -56 32 -62 183 0 13 -90 8 -91 -5z m1138
-7742 c29 -38 50 -72 47 -78 -3 -5 -8 -7 -11 -5 -2 3 -15 -6 -28 -19 -32 -32
-48 -30 -79 7 -34 41 -35 85 -1 101 29 13 31 21 10 38 -8 7 -15 17 -15 22 0
22 28 -2 77 -66z m-3795 -388 c-4 -24 -7 -59 -7 -78 0 -32 3 -35 30 -38 17 -2
54 -10 83 -18 42 -12 51 -18 43 -28 -9 -10 -40 -14 -61 -6 -3 1 -22 1 -44 0
-23 -1 -36 2 -32 8 4 6 -2 8 -14 5 -28 -7 -26 -45 5 -81 18 -22 21 -32 13 -40
-7 -7 -15 -12 -19 -12 -14 0 -89 102 -82 113 3 5 2 8 -3 4 -5 -3 -38 33 -74
80 -61 81 -63 86 -45 99 17 13 22 8 68 -54 27 -37 51 -73 54 -79 12 -30 31
-10 37 40 4 28 8 62 10 73 3 22 25 53 38 54 3 0 3 -19 0 -42z m-190 -180 c-4
-16 -11 -19 -38 -16 -18 2 -31 2 -29 0 2 -3 -7 -13 -20 -24 -27 -21 -34 -71
-12 -85 17 -11 58 -69 52 -75 -3 -2 13 -4 34 -4 45 1 81 28 81 61 0 14 8 25
20 28 17 4 20 0 20 -24 0 -33 -53 -99 -79 -99 -9 0 -22 -5 -27 -10 -31 -31
-154 102 -154 165 0 33 42 91 59 81 5 -3 11 0 14 8 6 15 41 24 68 18 11 -2 15
-10 11 -24z"/>
<path d="M5189 1133 c-1 -5 -1 -12 0 -17 1 -5 -7 -15 -18 -23 -11 -7 -18 -20
-15 -28 4 -10 0 -15 -11 -15 -12 0 -16 -6 -12 -20 7 -25 -7 -34 -23 -15 -7 8
-16 12 -21 9 -5 -3 -2 -12 6 -20 11 -11 13 -26 8 -56 -5 -37 -4 -41 12 -34 10
3 23 2 30 -4 9 -8 15 -8 20 0 9 15 25 12 25 -5 0 -8 7 -15 15 -15 8 0 15 -7
15 -16 0 -13 3 -14 15 -4 15 12 11 64 -7 86 -13 17 7 92 31 118 12 12 21 32
21 44 0 19 -5 22 -45 22 -25 0 -46 -3 -46 -7z"/>
<path d="M4242 1048 c-7 -7 -12 -18 -12 -25 0 -8 -7 -16 -15 -19 -18 -7 -59
-90 -50 -104 3 -5 17 -10 30 -10 18 0 23 -4 19 -15 -4 -9 -19 -15 -40 -15 -29
0 -34 -3 -34 -25 0 -13 -7 -28 -16 -33 -18 -10 -36 -89 -23 -98 17 -10 9 -46
-12 -51 -13 -4 -18 -11 -14 -21 3 -8 0 -21 -6 -28 -8 -10 -5 -15 15 -20 14 -3
26 -10 26 -15 0 -5 18 -9 40 -9 29 0 40 -4 40 -15 0 -8 7 -15 15 -15 9 0 26
-7 38 -15 34 -22 55 -5 38 31 -10 23 -10 29 3 36 14 8 13 13 -8 41 -27 35 -24
47 12 66 12 6 22 20 22 31 0 10 5 20 11 22 20 7 29 90 13 120 -8 15 -14 48
-14 73 0 31 -5 47 -15 51 -8 4 -15 12 -15 19 0 6 -8 21 -18 33 -14 16 -22 18
-30 10z"/>
<path d="M5016 895 c-4 -14 -13 -25 -21 -25 -7 0 -17 -9 -20 -20 -3 -11 -11
-20 -16 -20 -14 0 -11 -66 4 -78 7 -6 23 -9 35 -5 13 3 22 1 22 -6 0 -6 11
-11 25 -11 18 0 25 5 25 20 0 11 7 20 15 20 20 0 19 -8 -6 -49 -16 -27 -24
-32 -42 -26 -73 22 -77 20 -53 -36 12 -28 12 -35 0 -47 -9 -9 -14 -36 -14 -79
0 -58 -2 -64 -17 -58 -33 12 -38 10 -36 -13 2 -13 -2 -32 -8 -43 -16 -30 6
-87 34 -88 12 0 46 -4 75 -7 42 -5 52 -3 52 9 0 8 -7 17 -15 21 -8 3 -15 17
-15 31 0 24 3 26 30 20 18 -4 30 -3 30 3 0 6 8 18 17 27 13 14 14 21 4 36 -15
26 -5 42 25 36 14 -2 25 1 28 9 3 8 1 14 -4 14 -6 0 -10 7 -10 15 0 8 -5 15
-10 15 -7 0 -7 7 0 20 6 11 10 55 9 97 -2 61 1 78 14 88 10 7 17 22 17 34 0
12 5 31 10 42 10 17 7 19 -25 19 -23 0 -38 6 -42 15 -5 14 -8 13 -20 -4 -17
-25 -35 -19 -51 19 -17 37 -38 39 -46 5z"/>
<path d="M4380 796 c0 -16 6 -26 14 -26 8 0 15 -14 18 -34 3 -31 1 -36 -37
-54 -39 -19 -41 -22 -39 -62 1 -27 9 -48 23 -61 15 -14 21 -32 21 -60 0 -33 3
-40 18 -37 13 2 17 14 18 46 1 23 4 46 8 49 11 12 41 -13 41 -33 1 -11 4 -24
8 -31 10 -16 -2 -43 -19 -43 -8 0 -14 -7 -14 -15 0 -8 7 -15 15 -15 8 0 15 -9
15 -19 0 -23 45 -36 90 -26 24 5 32 14 40 46 10 37 9 41 -17 63 -22 19 -27 31
-25 60 2 25 -2 38 -13 42 -8 3 -15 15 -15 25 0 22 4 23 33 8 30 -16 37 -30 27
-49 -5 -10 -4 -26 3 -41 14 -28 57 -39 57 -15 0 9 5 16 10 16 6 0 10 15 8 33
-1 18 1 38 5 43 7 12 -26 32 -61 36 -13 2 -31 16 -40 32 -9 16 -24 37 -33 47
-10 9 -20 31 -24 48 -8 38 -7 37 -77 46 -58 7 -58 7 -58 -19z"/>
<path d="M5586 491 c-21 -8 -31 -70 -12 -77 7 -3 10 -18 8 -39 -3 -25 0 -35 9
-36 16 -1 32 -5 39 -8 3 -2 25 -5 49 -7 50 -4 76 10 62 34 -6 10 -4 21 6 31
14 13 13 16 -1 26 -9 7 -16 17 -16 22 0 20 -31 36 -65 35 -25 -1 -35 3 -35 13
0 16 -14 18 -44 6z"/>
</g>
</svg>
